<svg width="114" height="49" viewBox="0 0 114 49" fill="none" xmlns="http://www.w3.org/2000/svg">
<path d="M11.9042 36.3354C11.6021 36.3354 11.3252 36.1556 11.1742 35.8729L0.0721808 13.2341C-0.104041 12.8229 0.0470061 12.3347 0.474976 12.1292C0.852591 11.9492 1.33091 12.1034 1.5323 12.4889L11.9042 33.663L22.4272 12.4632C22.6034 12.0521 23.0817 11.8721 23.4845 12.0521C23.8873 12.2319 24.0635 12.7201 23.8873 13.1313C23.8873 13.157 23.8621 13.1827 23.8621 13.2084L12.6091 35.8472C12.4832 36.1556 12.2063 36.3354 11.9042 36.3354Z" fill="white"/>
<path d="M52.8631 36.1804C52.4099 36.1804 52.0575 35.8207 52.0575 35.3582V23.3835H69.3524C71.8699 23.3835 73.909 21.0451 73.909 18.4754C73.909 15.9057 71.8699 13.8243 69.3776 13.8243H52.8631C52.4099 13.85 52.0323 13.4903 52.0071 13.0534C51.982 12.5908 52.3344 12.2054 52.7624 12.1797C52.7875 12.1797 52.8127 12.1797 52.8631 12.1797H69.3524C72.751 12.1797 75.5202 15.0064 75.5202 18.4754C75.5202 21.9445 72.751 25.0281 69.3524 25.0281H53.6686V35.3838C53.6686 35.8207 53.3162 36.1804 52.8631 36.1804Z" fill="white"/>
<path d="M44.1531 36.3349H28.6708C28.2177 36.3349 27.8652 35.9751 27.8652 35.5126C27.8652 35.05 28.2177 34.6903 28.6708 34.6903H44.1531C46.7713 34.6903 48.886 32.5318 48.886 29.8593C48.886 27.1868 46.7713 25.0283 44.1531 25.0283H34.2092C30.7099 25.0283 27.8652 22.1246 27.8652 18.5527C27.8652 14.9809 30.7099 12.0771 34.2092 12.0771H49.6916C50.1447 12.0771 50.4971 12.4369 50.4971 12.8995C50.4971 13.362 50.1447 13.7218 49.6916 13.7218H34.2092C31.591 13.7218 29.4764 15.8803 29.4764 18.5527C29.4764 21.2252 31.591 23.3837 34.2092 23.3837H44.1531C47.6524 23.3837 50.4971 26.2875 50.4971 29.885C50.4971 33.4312 47.6524 36.3349 44.1531 36.3349Z" fill="white"/>
<path d="M25.4729 36.1814C25.0197 36.1814 24.6673 35.8216 24.6673 35.359V13.0029C24.6421 12.5404 24.9945 12.1549 25.4225 12.1292C25.8505 12.1036 26.2533 12.4633 26.2784 12.9001C26.2784 12.9258 26.2784 12.9515 26.2784 13.0029V35.359C26.2784 35.8216 25.926 36.1814 25.4729 36.1814Z" fill="white"/>
<path d="M113.457 3.80311C113.483 4.18857 113.332 4.57402 113.054 4.85668C112.828 5.08796 112.652 5.29353 112.45 5.49911C112.249 5.70468 111.997 5.85886 111.72 5.93595C111.594 5.98734 111.494 6.03874 111.393 6.14152C110.889 6.52697 110.411 6.91242 109.933 7.32357C109.455 7.73472 109.002 8.14587 108.523 8.53134C108.347 8.6341 108.196 8.76262 108.095 8.94247C107.793 9.19942 107.516 9.43069 107.239 9.68764C106.962 9.94467 106.66 10.2016 106.333 10.4329C105.93 10.844 105.528 11.2295 105.125 11.6406C104.721 12.0261 104.268 12.4372 103.841 12.8483L103.488 13.2081C103.363 13.3109 103.261 13.4394 103.136 13.5422L102.053 14.57C101.7 14.9041 101.349 15.2125 100.971 15.5465C100.945 15.5723 100.92 15.5979 100.92 15.5979C100.92 15.5979 100.895 15.5979 100.87 15.6493C100.618 16.1376 100.266 16.5487 99.8381 16.8571C99.4096 17.1911 99.0326 17.5251 98.6548 17.9106L98.5038 18.0648C98.4532 18.1162 98.4279 18.1676 98.3773 18.219C98.3275 18.3475 98.2769 18.4503 98.1766 18.553C98.0754 18.6559 97.9497 18.7072 97.824 18.7072C97.5972 18.7843 97.3956 18.9128 97.2446 19.1184C97.0684 19.2725 96.968 19.4525 96.9174 19.6837C96.9427 19.9664 96.9933 20.2747 97.0937 20.5317C97.1949 20.7887 97.2446 21.0713 97.2446 21.354C97.2699 21.4824 97.2952 21.611 97.3205 21.6881C97.3458 21.7908 97.3458 21.8937 97.3458 21.9964C97.2446 22.279 97.2952 22.6132 97.4968 22.8444C97.5221 22.8958 97.5466 22.9472 97.5719 22.9986C97.5972 23.05 97.6225 23.1014 97.6225 23.1527C97.5719 23.4611 97.6225 23.7952 97.7481 24.0778C97.8738 24.3862 97.9244 24.7202 97.8738 25.0286C97.8493 25.2599 97.8738 25.5168 98.0003 25.7224C98.1007 25.9023 98.201 26.1079 98.3275 26.3392C98.3773 26.4934 98.4532 26.6732 98.5038 26.8531C98.5789 27.0073 98.6042 27.1871 98.6042 27.3671C98.6295 27.8553 98.7298 28.3178 98.8808 28.7546C99.0326 29.2172 99.1836 29.6541 99.3093 30.1165C99.4349 30.4507 99.5353 30.8361 99.5606 31.1958C99.5859 31.5556 99.4855 31.9153 99.284 32.2237C99.3346 32.3779 99.4096 32.4807 99.5353 32.4807C99.6618 32.4807 99.7622 32.5064 99.8878 32.5321C99.9637 32.5835 100.039 32.6092 100.115 32.6863C100.215 32.7634 100.266 32.8148 100.266 32.8661C100.215 33.1745 100.24 33.4572 100.367 33.7398C100.493 34.0225 100.593 34.3051 100.644 34.6135C100.694 34.9219 100.744 35.1788 100.794 35.4358C100.845 35.7185 100.971 36.0012 101.096 36.2581C101.147 36.3352 101.172 36.438 101.147 36.5408C101.122 36.6436 101.122 36.7463 101.122 36.8748C101.122 37.4916 101.198 38.0826 101.373 38.6736C101.549 39.2646 101.776 39.8299 102.078 40.3696C102.204 40.7294 102.33 41.0634 102.481 41.4231C102.632 41.7829 102.758 42.1426 102.934 42.5281C102.959 42.5795 103.312 43.0934 103.261 43.2219C103.11 43.2733 102.96 43.2733 102.809 43.2476C102.658 43.1963 102.532 43.1448 102.38 43.0677C101.802 42.6823 101.273 42.2197 100.82 41.6802C100.367 41.1405 99.9637 40.5752 99.6112 39.9585C99.3599 39.5473 99.133 39.1361 98.9061 38.725C98.6801 38.3138 98.4279 37.9027 98.2263 37.4916C97.9244 37.0033 97.6731 36.515 97.4209 36.0012C97.1696 35.4872 96.9427 34.999 96.7158 34.5107C96.4645 33.9711 96.2629 33.4058 96.0866 32.8148C95.9104 32.2237 95.7088 31.6841 95.4828 31.1187C95.3318 30.6819 95.1555 30.2707 95.0046 29.8596C94.8536 29.4485 94.7018 29.0373 94.5761 28.6005C94.4504 28.1637 94.3248 27.8039 94.2236 27.3927C94.1232 26.9816 93.9975 26.5961 93.8963 26.185C93.8213 25.9794 93.6956 25.671 93.494 25.2599C93.3431 24.9259 93.1415 24.6175 92.8893 24.3348C92.8396 24.4376 92.7889 24.5147 92.713 24.5918C92.638 24.6432 92.6127 24.7202 92.5874 24.8231C92.487 24.9773 92.3613 25.1314 92.2348 25.2856C92.1092 25.4397 91.9582 25.5426 91.7819 25.6454C91.3788 25.9281 91.0018 26.2878 90.6998 26.6989C90.6239 26.9045 90.473 27.0587 90.2714 27.1614C90.1204 27.2385 89.9442 27.3156 89.7679 27.3927C89.7173 27.5212 89.6675 27.6754 89.6169 27.8296C89.5663 27.9837 89.4913 28.1122 89.3656 28.215C89.1387 28.5234 88.9371 28.8061 88.6858 29.1144C88.4336 29.4228 88.1823 29.7054 87.9301 30.0138C87.4772 30.6305 86.999 31.2729 86.5208 31.8897C86.0173 32.5321 85.5382 33.1488 85.06 33.7912C84.8087 34.1767 84.5818 34.5107 84.3305 34.8448C84.0783 35.1788 83.827 35.5129 83.5751 35.8726C83.5247 35.9497 83.4744 36.0012 83.4491 36.1039C83.424 36.181 83.3737 36.2324 83.2981 36.2838C83.0967 36.3352 82.9205 36.438 82.7947 36.5921C82.6687 36.7463 82.5429 36.8748 82.417 37.029C82.1149 37.3887 81.8129 37.7999 81.5611 38.2111C81.3093 38.6222 81.0072 38.9819 80.68 39.316C80.529 39.4959 80.4282 39.7015 80.3527 39.907C80.2772 40.1126 80.1765 40.3439 80.0758 40.5238C79.824 40.9863 79.5974 41.4489 79.3709 41.9371C79.1443 42.4253 78.8422 42.8621 78.4646 43.2476C78.3891 43.3761 78.3136 43.5046 78.2632 43.6331C78.2129 43.7872 78.1373 43.9158 78.0618 44.0699C77.9359 44.3526 77.8856 44.6353 77.9108 44.9436C77.9359 45.2262 77.8604 45.5089 77.7597 45.7659C77.6842 45.843 77.6087 45.9457 77.6087 46.0486C77.5583 46.357 77.5331 46.6652 77.5331 46.9736C77.5331 47.282 77.508 47.616 77.4828 47.9758L77.4073 48.13C77.1807 48.13 76.9541 48.1043 76.7276 48.0529C76.501 47.9501 76.2996 47.7702 76.2241 47.5133C75.8716 46.8452 75.6199 46.0999 75.5192 45.3291C75.4185 44.5582 75.4437 43.7616 75.5695 42.9906C75.7206 42.2455 75.8968 41.5516 76.0982 40.8578C76.2996 40.1383 76.5513 39.4445 76.8283 38.7507C77.0548 38.134 77.3569 37.5173 77.7094 36.9519C78.0618 36.3609 78.3891 35.7699 78.666 35.1531C78.7163 35.0246 78.7919 34.8704 78.8422 34.742C78.9177 34.5878 78.9933 34.4593 79.094 34.3309C79.3205 33.9454 79.5219 33.5856 79.7737 33.2516C80.0254 32.9175 80.252 32.5835 80.5037 32.2494C80.6044 32.1466 80.6799 32.0181 80.7555 31.8897L80.9065 31.5556C81.0072 31.4271 81.1079 31.2986 81.1834 31.1444C81.259 31.016 82.5429 29.1401 82.6436 29.0116C83.0212 29.1915 83.2226 29.3457 83.2477 29.4741C83.273 29.6027 81.989 31.5042 81.7122 31.7098L81.4855 31.941C81.4101 31.9924 81.3848 32.0695 81.3597 32.1723C81.2841 32.4036 81.1834 32.6092 81.0072 32.789C80.8562 32.9689 80.7051 33.1488 80.5037 33.3801C80.4282 33.4572 80.403 33.5343 80.3779 33.637C80.3275 33.7398 80.252 33.8426 80.1513 33.9197C79.5723 34.8704 78.9429 35.7956 78.238 36.6436C78.1877 36.7207 78.1373 36.8234 78.1373 36.9262C78.1373 37.029 78.087 37.1318 78.0366 37.2089C77.9863 37.2603 77.9611 37.3116 77.9611 37.3631C77.9611 37.4145 77.9359 37.4916 77.8856 37.5173C77.5583 37.877 77.3317 38.3395 77.2562 38.8277C77.1555 39.1875 77.0297 39.5216 76.8283 39.8299C76.6269 40.1383 76.4758 40.4724 76.3248 40.8321C76.2492 41.1662 76.1737 41.5002 76.0982 41.8343C76.0227 42.194 76.0479 42.5538 76.1485 42.9136C76.1989 42.8365 76.2492 42.7594 76.2996 42.6823C76.3499 42.6052 76.4003 42.5281 76.4255 42.451C76.5513 42.1684 76.6772 41.9114 76.7779 41.6802C76.8786 41.4489 76.9793 41.1919 77.0548 40.9349C77.3317 40.1126 77.659 39.316 78.0618 38.5451C78.4394 37.7999 78.8926 37.0804 79.4212 36.4123C79.5471 36.2067 79.673 35.9754 79.7737 35.7699C79.8744 35.5386 79.9751 35.333 80.1009 35.1275C80.1513 35.076 80.2016 34.999 80.252 34.9475C80.3023 34.8704 80.3779 34.7677 80.4282 34.6906C80.5037 34.742 81.4101 33.7141 81.4604 33.7656C81.5108 33.8169 80.7806 34.999 80.9065 35.0504C80.6799 35.4358 80.4282 35.8213 80.1765 36.181C79.8995 36.5665 80.5541 36.6179 80.8813 36.2067C81.2086 35.7955 81.4352 35.3073 81.5359 34.7677C81.5611 34.6392 81.6115 34.5364 81.6869 34.4336C82.1904 34.0738 82.5933 33.637 82.9457 33.1231C83.273 32.6348 83.6505 32.1466 84.053 31.6841C84.1795 31.5813 84.2799 31.4528 84.3802 31.3244C84.4815 31.1702 84.5818 31.0417 84.7075 30.9131C84.5565 30.8618 84.4562 30.7847 84.4562 30.6819C84.4562 30.5791 84.4562 30.4763 84.4562 30.3736C84.4815 30.2707 84.4815 30.168 84.5068 30.0395C84.5321 29.911 84.3052 30.168 84.1795 30.0909C84.053 30.1423 84.1036 29.8596 84.0033 29.9367C83.902 30.0138 83.8017 30.0652 83.7009 30.1165C83.6758 30.1165 83.6505 30.0909 83.6254 30.0652L84.1036 29.2686C84.2546 29.0116 84.4309 28.7546 84.5818 28.4977H84.7328C84.7581 28.6005 84.7834 28.7033 84.7834 28.8061C84.7834 28.9088 84.9597 28.7033 84.985 28.8575C85.1612 28.8317 85.1865 29.063 85.3122 28.9602C85.4379 28.8575 85.5382 28.729 85.6394 28.6005C85.7398 28.472 85.841 28.3178 85.9414 28.1637C86.0418 28.0095 86.1936 27.9067 86.3445 27.8296C86.3943 28.0608 86.3192 28.2921 86.1683 28.4463C86.0173 28.5491 85.8908 28.6775 85.7904 28.8061C85.7145 28.9345 85.6141 29.0887 85.5382 29.2429C85.4632 29.397 85.3375 29.577 85.2363 29.7312C85.4632 29.7825 85.5888 29.7825 85.6647 29.7054C85.7398 29.6283 85.8157 29.5512 85.8908 29.4485C86.067 29.1658 86.2939 28.9088 86.5208 28.6775C86.7468 28.4463 86.9737 28.1893 87.1753 27.9324C87.2503 27.8553 87.3262 27.8039 87.4266 27.7782C87.5278 27.7525 87.6282 27.7011 87.7032 27.6497C87.5523 27.3927 87.15 27.3927 86.999 27.1358C87.0741 27.11 87.4013 26.8274 87.4772 26.8017C87.5278 26.776 87.6029 26.7503 87.6535 26.7503C87.8045 26.7246 87.9554 26.7246 88.1064 26.7246C88.2827 26.7503 88.4589 26.7246 88.6352 26.6989C88.9371 26.6218 89.164 26.3649 89.1893 26.0565C89.0881 26.0051 88.9877 25.9537 88.8621 25.9023L88.5095 25.7481C88.5846 25.671 88.6858 25.6197 88.7862 25.5939C88.8865 25.5683 88.9877 25.5426 89.0881 25.4912C89.1893 25.4655 89.2644 25.3884 89.315 25.3113C89.3656 25.2085 89.39 25.1057 89.39 24.9772C89.541 24.9772 89.6675 25.0029 89.8185 25.0286C89.9189 25.08 90.0445 25.0543 90.171 25.0029C90.2714 24.9515 90.3718 24.8488 90.4224 24.746C90.4983 24.6175 90.5986 24.5404 90.7243 24.4633C90.9512 24.1035 91.2025 23.7952 91.4547 23.4868C91.706 23.1785 91.9582 22.8958 92.2095 22.5874C92.336 22.4846 92.4111 22.3561 92.487 22.2019C92.5368 22.0735 92.487 21.9193 92.3613 21.7395C92.2601 21.6366 92.1851 21.4824 92.1851 21.3283C92.1598 21.1741 92.1345 21.02 92.0839 20.8915C91.9835 20.6345 91.8578 20.3775 91.6816 20.1462V19.4525C91.5551 19.401 91.4041 19.4267 91.329 19.5038C91.2531 19.6066 91.1528 19.7094 91.0515 19.8122C91.0018 19.8636 90.9259 19.915 90.8508 19.9664C90.7749 19.9921 90.6998 20.0434 90.6492 20.1205C90.5733 19.9664 90.4983 19.8122 90.4477 19.6323C90.3718 19.3496 90.473 19.067 90.6998 18.9128L91.2531 18.3475C91.4547 18.1933 91.5306 17.9364 91.4547 17.7051C91.1527 16.6258 90.8753 15.5465 90.6239 14.493C90.3718 13.4394 90.0698 12.3858 89.7932 11.3579C89.6422 10.6898 89.4406 9.99601 89.2138 9.3536C88.9877 8.71119 88.7862 8.04308 88.5846 7.37497C88.4842 7.01521 88.383 6.68115 88.2827 6.3471C88.1823 6.01304 88.0811 5.67898 87.9301 5.31923C87.7791 4.95948 87.6788 4.54833 87.5776 4.16287C87.4772 3.77742 87.3009 3.39197 87.0994 3.03222C86.848 2.72385 86.8725 2.41549 87.1247 2.05574C87.376 1.69598 87.7041 1.36193 88.0313 1.54181C88.1317 1.46471 88.2321 1.64459 88.308 1.5675L88.5095 1.36193C88.7103 1.15635 89.013 1.05357 89.315 1.13066C89.4913 1.18205 89.6928 1.20775 89.8936 1.18205C90.0698 1.18205 90.2461 1.15635 90.4477 1.13066C90.6745 1.05357 90.9006 1.10496 91.0768 1.25914C91.2025 1.38762 91.3788 1.5932 91.6057 1.82446C91.6563 1.87586 91.7313 1.92725 91.8072 1.95296C92.336 2.05574 92.6886 2.31271 92.8396 2.69816C92.9905 3.08361 93.1415 3.46906 93.2672 3.85451C93.4434 4.34275 93.6197 4.83099 93.7454 5.26783C93.871 5.73037 94.0228 6.19291 94.1485 6.65546V6.80964C94.1485 7.45205 94.2489 8.06878 94.4504 8.68552C94.652 9.27651 94.8283 9.89325 94.9793 10.4842C95.0543 10.8184 95.1302 11.101 95.2053 11.3837C95.2812 11.6663 95.3318 11.9233 95.3816 12.2059L95.4322 12.4629C95.4575 12.54 95.4575 12.6171 95.4828 12.6942C95.5578 12.8227 95.7341 12.8483 95.9863 12.7456C96.2123 12.6428 96.4139 12.54 96.6154 12.3858C96.6914 12.283 96.7664 12.1803 96.8423 12.1032C96.9174 12.0004 96.9933 11.9233 97.0937 11.8462C97.5719 11.3579 98.0501 10.8955 98.5038 10.4329C98.982 9.97034 99.4096 9.45636 99.7875 8.9168C99.989 8.6341 100.215 8.35144 100.467 8.09447C100.719 7.83751 100.996 7.58054 101.273 7.34927L103.614 5.11365C104.419 4.36845 105.225 3.62324 106.081 2.90373C106.459 2.54397 106.837 2.20992 107.189 1.87586C107.541 1.54181 107.944 1.20775 108.297 0.925084C108.649 0.616722 109.051 0.334058 109.505 0.154181C109.706 0.0770902 109.907 0.0256968 110.134 0C110.361 0 110.562 0.0770903 110.713 0.256968C110.889 0.385451 111.04 0.411148 111.167 0.308361C111.292 0.205574 111.443 0.205574 111.67 0.308361V0.565328C111.67 0.668115 111.896 0.770902 111.846 0.899389C111.997 0.950779 111.896 1.00218 112.047 1.05357C112.198 1.10496 112.35 1.15635 112.501 1.20775C112.652 1.25914 112.778 1.31054 112.903 1.38762C113.004 1.46471 113.029 1.5932 112.979 1.77308C112.979 1.87586 113.004 1.97865 113.054 2.05574C113.256 2.26132 113.381 2.51828 113.407 2.80095C113.357 3.23779 113.407 3.52046 113.457 3.80311ZM81.9638 32.5064C81.9135 32.3522 81.9135 32.198 81.9387 32.0695C82.0897 31.864 82.2659 31.6841 82.4422 31.5299C82.5177 31.8126 82.4926 31.9924 82.3666 32.1209C82.2408 32.2494 82.0897 32.3779 81.9638 32.5064ZM86.6718 24.4119C86.7974 24.3862 86.8725 24.2834 86.8978 24.1549C86.8978 24.0007 86.8725 23.8209 86.848 23.6667C87.2756 23.1271 87.7041 22.5874 88.1317 22.0478C88.5593 21.5082 89.013 20.9429 89.466 20.3775C89.541 20.2491 90.548 19.1183 90.6239 19.067C90.6998 19.0156 90.8508 19.067 91.0515 19.1954C90.9006 19.3496 89.8185 20.5574 89.6675 20.7373C89.5166 20.9171 89.3403 21.0713 89.1893 21.2512C89.2644 21.3026 89.3403 21.354 89.39 21.4054C89.4406 21.4568 89.4913 21.5082 89.541 21.5595C89.5166 21.8166 89.3656 21.9193 89.1134 21.9193C88.7356 21.8679 88.6099 21.9964 88.7609 22.3305C88.8621 22.459 88.8368 22.6388 88.7103 22.7416C88.7103 22.7416 88.6858 22.7673 88.6605 22.7673C88.5348 22.9472 88.4083 23.1271 88.2827 23.2812C88.157 23.4354 88.0313 23.5639 87.9048 23.7181C87.8551 23.7695 87.8045 23.7952 87.7538 23.8466C87.7041 23.8723 87.6282 23.9236 87.6029 23.9751C87.225 24.489 86.848 25.0029 86.4702 25.4912L85.2869 27.0073C85.06 27.2642 84.8593 27.5469 84.6577 27.7782C84.4309 28.0351 84.2546 28.3435 84.0783 28.6262C83.9273 28.9345 83.7764 29.0887 83.6254 29.0887C83.4744 29.0887 83.2477 28.9859 82.9205 28.7546C83.4491 27.9837 84.0033 27.2385 84.5565 26.4934C85.1106 25.7481 85.6647 24.9773 86.218 24.1806C86.4702 24.3091 86.5959 24.3862 86.6718 24.4119ZM83.7512 31.0417C83.827 31.2473 83.7764 31.4785 83.6254 31.6584C83.4744 31.8126 83.2981 31.941 83.1219 32.0695C83.2226 31.8897 83.3233 31.7098 83.4491 31.5299C83.5751 31.35 83.6254 31.1958 83.7512 31.0417ZM85.3628 27.8296C85.3375 27.8039 85.3122 27.7782 85.3122 27.7782C85.2869 27.7782 85.2616 27.7525 85.2616 27.7268C85.4885 27.4955 85.7145 27.29 85.9667 27.11C85.9161 27.2642 85.841 27.3927 85.7145 27.4955C85.6141 27.624 85.5138 27.7011 85.3628 27.8296ZM85.4885 26.0822C85.5138 26.0308 85.5382 26.0051 85.5888 25.9537C85.5382 25.9023 85.5138 25.851 85.5138 25.8252C85.4632 25.8766 85.4379 25.9023 85.4126 25.9794C85.3873 26.0308 85.3628 26.0822 85.3122 26.1336L85.3873 26.2107C85.4126 26.1592 85.4632 26.1336 85.4885 26.0822ZM86.0173 27.0587C86.0173 27.0844 86.0173 27.0844 85.992 27.11L86.0173 27.0587ZM86.848 26.0051C86.7468 26.2363 86.6212 26.4419 86.4702 26.6218L86.0417 27.0587C86.067 26.8274 86.1177 26.6218 86.2433 26.4163C86.3698 26.185 86.5959 26.0308 86.848 26.0051ZM87.0243 25.6197C87.1247 25.5168 87.225 25.4141 87.3009 25.3113C87.3262 25.3113 87.376 25.3627 87.4266 25.4397C87.3262 25.5168 87.225 25.6454 87.15 25.7739L87.0243 25.6197ZM87.7538 25.0543C87.7041 24.7973 87.7032 24.6689 87.7285 24.6175C87.8551 24.5147 87.9807 24.4119 88.157 24.3605C88.1064 24.489 88.0313 24.5918 87.9554 24.6946C87.8795 24.7973 87.8045 24.9259 87.7538 25.0543ZM88.2068 24.3605L88.157 24.3091H88.2068V24.3605ZM88.1823 24.3605V24.3091L88.2321 24.3605H88.1823ZM88.2068 24.3091C88.2068 24.1293 88.2574 23.9494 88.3333 23.7695C88.4589 23.6153 88.6605 23.5125 88.8621 23.5125L88.2068 24.3091ZM89.2138 23.2298C89.164 23.0243 89.1893 22.8187 89.2644 22.6388C89.4659 22.4332 89.6928 22.2277 89.9189 22.0478L89.9948 22.1249C89.8691 22.279 89.7426 22.459 89.6169 22.6388C89.4913 22.8187 89.3656 22.9986 89.2138 23.2298ZM90.1204 23.1527C90.2967 23.1785 90.4224 23.3583 90.3971 23.5382C90.3971 23.5639 90.3718 23.5896 90.3718 23.641C90.2208 23.6153 90.1204 23.5639 90.1204 23.4868C90.0951 23.3583 90.0951 23.2556 90.1204 23.1527ZM91.0018 22.2534C91.0515 22.5617 91.0515 22.5617 90.9259 22.6388C90.8002 22.7159 90.6492 22.7673 90.5236 22.8187C90.5986 22.7159 90.6745 22.5874 90.7243 22.4846C90.8255 22.3561 90.9006 22.4076 91.0018 22.2534ZM90.5986 21.7137C90.5236 21.5082 90.5236 21.354 90.6239 21.2769C90.7496 21.1998 90.9006 21.1741 91.0768 21.1741C90.9765 21.2255 91.0271 21.354 90.9512 21.4311C90.8753 21.5082 90.6998 21.611 90.5986 21.7137ZM96.5901 29.1658C96.9427 29.2686 97.0186 28.4977 96.9933 28.3178C96.968 28.1379 96.9174 27.9324 96.8668 27.7525C96.817 27.5983 96.7917 27.4184 96.7664 27.2385C96.7158 26.8788 96.6661 26.519 96.5901 26.1592C96.5395 25.9794 96.4139 25.8252 96.2629 25.7224C96.2123 25.671 96.1878 25.6197 96.1878 25.5426C96.1878 25.4655 95.961 24.7717 95.9357 24.4633C95.8851 24.3605 95.8353 24.2577 95.81 24.1293C95.7594 24.0264 95.7088 23.9237 95.659 23.7952C95.6084 23.641 95.5578 23.4611 95.5334 23.2812C95.5081 23.1014 95.4322 22.9215 95.3816 22.7416C95.3065 22.7416 95.2306 22.7416 95.1302 22.793C95.0046 23.1271 94.954 23.5125 94.9793 23.8723C95.0046 24.232 95.0796 24.5661 95.2306 24.9002C95.3318 25.2085 95.4322 25.4912 95.5334 25.7739C95.6337 26.0822 95.7088 26.3905 95.7594 26.6989C95.81 26.8788 95.9104 27.0587 96.036 27.2385C96.4392 27.4698 96.6155 27.8809 96.5648 28.472V28.8317C96.5395 28.9088 96.5648 29.0373 96.5901 29.1658ZM100.367 12.0004C100.769 11.6663 101.172 11.3066 101.525 10.8955C101.5 10.6898 101.424 10.51 101.298 10.3558C100.794 10.7155 100.342 11.1267 99.8878 11.5635C99.5606 11.8719 99.2334 12.1803 98.9061 12.5143L97.975 13.4651C97.7481 13.6707 97.5719 13.8762 97.4462 14.0562C97.3205 14.236 97.1443 14.4159 96.9427 14.5957C96.8676 14.7242 96.7917 14.8527 96.7411 14.9555C96.6914 15.0583 96.7158 15.1868 96.8668 15.3152C97.0684 15.2639 97.2446 15.1868 97.3956 15.0583C97.5466 14.9298 97.6731 14.7757 97.7987 14.6215L98.5536 13.8505C98.6042 13.7991 98.6801 13.7478 98.7552 13.6707C98.8311 13.6193 98.9061 13.5422 98.9567 13.4394C99.1077 13.131 99.3093 12.8483 99.5859 12.6171C99.8128 12.4372 100.089 12.2059 100.367 12.0004ZM96.6914 17.6793C96.8921 17.6022 97.2952 17.0113 97.3703 16.9085C97.4715 16.8056 97.5221 16.6515 97.4968 16.4973C97.3703 16.5744 97.2446 16.6515 97.1443 16.7543C96.968 17.0627 96.8423 17.371 96.6914 17.6793ZM97.3956 31.1702C97.4715 30.9902 97.4715 30.8361 97.3956 30.7333C97.3205 30.6305 97.2193 30.5534 97.119 30.4763C97.0937 30.6049 97.0684 30.7333 97.0684 30.8875C97.0684 31.016 97.1696 31.1187 97.3956 31.1702ZM99.5353 37.8C99.2081 37.0547 98.9061 36.3352 98.5789 35.59C98.2516 34.8448 97.824 34.1509 97.2952 33.56C97.3956 33.9454 97.1949 33.8169 97.1696 34.2024C97.1443 34.5878 98.0256 35.7442 98.3022 36.1039C98.4279 36.2324 98.5291 36.4123 98.5536 36.5921C98.5789 36.772 98.6548 36.9262 98.7805 37.0804C99.0824 37.5429 99.0824 37.7742 99.3093 38.2882C99.5353 38.8021 99.5859 39.2646 99.9637 39.6244C100.064 39.7528 100.165 39.907 100.24 40.0612C100.316 40.2154 100.391 40.3439 100.493 40.4981C100.618 40.6523 100.694 40.8064 100.794 40.9606C100.895 41.1405 100.92 40.5494 100.769 40.3696C100.618 40.164 100.493 39.9327 100.417 39.6758C100.24 39.3674 100.089 39.059 100.039 38.6993C99.9637 38.3395 99.7875 38.0311 99.5353 37.8ZM103.387 9.09665C103.412 9.04523 103.438 8.96814 103.438 8.9168C103.438 8.83971 103.463 8.76262 103.488 8.68552C103.11 8.73686 102.758 8.9168 102.481 9.19942C102.179 9.45636 101.978 9.81616 101.902 10.2016C102.053 10.1502 102.204 10.0474 102.33 9.94467C102.507 9.81616 102.707 9.66197 102.884 9.50779C103.06 9.3536 103.211 9.25084 103.387 9.09665Z" fill="url(#paint0_linear_494_880)"/>
<defs>
<linearGradient id="paint0_linear_494_880" x1="110.57" y1="6.91805" x2="91.1964" y2="25.8956" gradientUnits="userSpaceOnUse">
<stop stop-color="#12DEF6"/>
<stop offset="0.12" stop-color="#18E0FF"/>
<stop offset="0.29" stop-color="#2BD3FD"/>
<stop offset="0.49" stop-color="#4FBAFB"/>
<stop offset="0.72" stop-color="#8892F9"/>
<stop offset="0.96" stop-color="#E04EF1"/>
<stop offset="1" stop-color="#EF40EA"/>
</linearGradient>
</defs>
</svg>
