<svg width="90" height="38" viewBox="0 0 90 38" fill="none" xmlns="http://www.w3.org/2000/svg">
<path d="M9.44277 28.2353C9.20314 28.2353 8.98348 28.0955 8.86367 27.8758L0.057256 10.2829C-0.0825283 9.96344 0.0372868 9.58403 0.376763 9.42427C0.676301 9.28449 1.05572 9.4043 1.21547 9.70384L9.44277 26.1585L17.7899 9.68387C17.9297 9.36437 18.3091 9.22458 18.6286 9.36437C18.9481 9.50415 19.0879 9.88356 18.9481 10.2031C18.9481 10.223 18.9281 10.243 18.9281 10.263L10.0019 27.8558C9.90207 28.0955 9.6824 28.2353 9.44277 28.2353Z" fill="white"/>
<path d="M41.934 28.1187C41.5745 28.1187 41.295 27.8391 41.295 27.4797V18.174H55.0138C57.0107 18.174 58.6282 16.3568 58.6282 14.3599C58.6282 12.363 57.0107 10.7455 55.0338 10.7455H41.934C41.5745 10.7654 41.275 10.4859 41.255 10.1464C41.2351 9.78694 41.5146 9.48741 41.8541 9.46744C41.8741 9.46744 41.894 9.46744 41.934 9.46744H55.0138C57.7097 9.46744 59.9063 11.664 59.9063 14.3599C59.9063 17.0557 57.7097 19.452 55.0138 19.452H42.573V27.4996C42.573 27.8391 42.2934 28.1187 41.934 28.1187Z" fill="white"/>
<path d="M35.0231 28.2315H22.742C22.3826 28.2315 22.103 27.9519 22.103 27.5925C22.103 27.233 22.3826 26.9535 22.742 26.9535H35.0231C37.0999 26.9535 38.7773 25.2761 38.7773 23.1993C38.7773 21.1225 37.0999 19.4451 35.0231 19.4451H27.1353C24.3595 19.4451 22.103 17.1885 22.103 14.4128C22.103 11.6371 24.3595 9.38058 27.1353 9.38058H39.4163C39.7758 9.38058 40.0553 9.66015 40.0553 10.0196C40.0553 10.379 39.7758 10.6586 39.4163 10.6586H27.1353C25.0585 10.6586 23.3811 12.336 23.3811 14.4128C23.3811 16.4896 25.0585 18.167 27.1353 18.167H35.0231C37.7988 18.167 40.0553 20.4235 40.0553 23.2192C40.0553 25.975 37.7988 28.2315 35.0231 28.2315Z" fill="white"/>
<path d="M20.2056 28.1141C19.8461 28.1141 19.5666 27.8345 19.5666 27.4751V10.1019C19.5466 9.74245 19.8262 9.44291 20.1656 9.42294C20.5051 9.40297 20.8246 9.68254 20.8446 10.022C20.8446 10.042 20.8446 10.062 20.8446 10.1019V27.4751C20.8446 27.8345 20.565 28.1141 20.2056 28.1141Z" fill="white"/>
<path d="M89.9978 2.95544C90.0178 3.25498 89.898 3.55452 89.6783 3.77418C89.4986 3.9539 89.3588 4.11365 89.1991 4.27341C89.0393 4.43316 88.8396 4.55298 88.62 4.61288C88.5201 4.65282 88.4402 4.69276 88.3604 4.77264C87.961 5.07218 87.5816 5.37171 87.2022 5.69122C86.8227 6.01073 86.4633 6.33024 86.0839 6.62977C85.9441 6.70965 85.8243 6.8095 85.7444 6.94928C85.5048 7.14897 85.2851 7.32869 85.0654 7.52839C84.8458 7.72808 84.6062 7.92777 84.3466 8.10749C84.027 8.427 83.7075 8.72654 83.388 9.04605C83.0685 9.34558 82.7091 9.66509 82.3696 9.9846L82.09 10.2642C81.9902 10.344 81.9103 10.4439 81.8105 10.5238L80.9518 11.3225C80.6722 11.5821 80.3927 11.8218 80.0931 12.0814C80.0732 12.1013 80.0532 12.1213 80.0532 12.1213C80.0532 12.1213 80.0332 12.1213 80.0132 12.1612C79.8136 12.5407 79.534 12.8602 79.1945 13.0998C78.855 13.3594 78.5555 13.619 78.256 13.9185L78.1361 14.0383C78.0962 14.0783 78.0762 14.1182 78.0363 14.1582C77.9964 14.258 77.9564 14.3379 77.8765 14.4178C77.7967 14.4976 77.6968 14.5376 77.597 14.5376C77.4172 14.5975 77.2575 14.6973 77.1377 14.8571C76.9979 14.9769 76.918 15.1167 76.8781 15.2964C76.898 15.5161 76.938 15.7557 77.0179 15.9554C77.0977 16.1551 77.1377 16.3747 77.1377 16.5944C77.1576 16.6942 77.1776 16.7941 77.1976 16.854C77.2176 16.9339 77.2176 17.0138 77.2176 17.0936C77.1377 17.3133 77.1776 17.5729 77.3374 17.7526C77.3573 17.7926 77.3773 17.8325 77.3973 17.8724C77.4172 17.9124 77.4372 17.9523 77.4372 17.9922C77.3973 18.2319 77.4372 18.4915 77.5371 18.7111C77.6369 18.9508 77.6768 19.2104 77.6369 19.45C77.6169 19.6297 77.6369 19.8294 77.7368 19.9892C77.8166 20.1289 77.8965 20.2887 77.9964 20.4684C78.0363 20.5882 78.0962 20.728 78.1361 20.8678C78.196 20.9876 78.216 21.1274 78.216 21.2672C78.236 21.6466 78.3159 22.0061 78.4357 22.3455C78.5555 22.705 78.6753 23.0445 78.7752 23.4039C78.875 23.6635 78.9549 23.963 78.9748 24.2426C78.9948 24.5222 78.9149 24.8017 78.7552 25.0414C78.7951 25.1612 78.855 25.2411 78.9549 25.2411C79.0547 25.2411 79.1346 25.261 79.2344 25.281C79.2943 25.3209 79.3543 25.3409 79.4142 25.4008C79.494 25.4607 79.534 25.5007 79.534 25.5406C79.494 25.7802 79.514 25.9999 79.6139 26.2196C79.7137 26.4392 79.7936 26.6589 79.8335 26.8985C79.8735 27.1381 79.9134 27.3378 79.9533 27.5375C79.9933 27.7572 80.0931 27.9768 80.193 28.1765C80.2329 28.2364 80.2529 28.3163 80.2329 28.3962C80.2129 28.4761 80.2129 28.5559 80.2129 28.6558C80.2129 29.1351 80.2728 29.5943 80.4126 30.0536C80.5524 30.5129 80.7321 30.9523 80.9718 31.3716C81.0716 31.6512 81.1715 31.9108 81.2913 32.1903C81.4111 32.4699 81.5109 32.7495 81.6507 33.049C81.6707 33.089 81.9503 33.4883 81.9103 33.5882C81.7905 33.6281 81.6707 33.6281 81.5509 33.6082C81.4311 33.5682 81.3312 33.5283 81.2114 33.4684C80.7521 33.1688 80.3327 32.8094 79.9733 32.39C79.6139 31.9707 79.2944 31.5314 79.0148 31.0521C78.8151 30.7326 78.6354 30.4131 78.4556 30.0936C78.2759 29.7741 78.0762 29.4546 77.9165 29.1351C77.6768 28.7556 77.4772 28.3762 77.2775 27.9768C77.0778 27.5775 76.8981 27.198 76.7183 26.8186C76.5186 26.3993 76.3589 25.96 76.2191 25.5007C76.0793 25.0414 75.9196 24.622 75.7398 24.1827C75.62 23.8432 75.4802 23.5237 75.3604 23.2042C75.2406 22.8847 75.1208 22.5652 75.0209 22.2257C74.9211 21.8862 74.8212 21.6067 74.7414 21.2872C74.6615 20.9677 74.5617 20.6681 74.4818 20.3486C74.4219 20.1889 74.322 19.9492 74.1623 19.6297C74.0425 19.3701 73.8827 19.1305 73.683 18.9108C73.6431 18.9907 73.6031 19.0506 73.5432 19.1105C73.4833 19.1505 73.4633 19.2104 73.4434 19.2902C73.3635 19.4101 73.2637 19.5299 73.1638 19.6497C73.064 19.7695 72.9441 19.8494 72.8044 19.9293C72.4849 20.1489 72.1853 20.4285 71.9457 20.748C71.8858 20.9077 71.766 21.0276 71.6062 21.1074C71.4864 21.1673 71.3466 21.2273 71.2068 21.2872C71.1669 21.387 71.127 21.5068 71.087 21.6266C71.0471 21.7465 70.9872 21.8463 70.8873 21.9262C70.7076 22.1658 70.5478 22.3855 70.3482 22.6251C70.1485 22.8647 69.9488 23.0844 69.7491 23.324C69.3896 23.8033 69.0102 24.3025 68.6308 24.7818C68.2314 25.281 67.852 25.7603 67.4726 26.2595C67.2729 26.559 67.0932 26.8186 66.8935 27.0782C66.6938 27.3378 66.4941 27.5974 66.2944 27.877C66.2545 27.9369 66.2145 27.9768 66.1946 28.0567C66.1746 28.1166 66.1347 28.1566 66.0747 28.1965C65.915 28.2364 65.7752 28.3163 65.6754 28.4361C65.5755 28.5559 65.4757 28.6558 65.3758 28.7756C65.1362 29.0552 64.8966 29.3747 64.6969 29.6942C64.4972 30.0137 64.2576 30.2933 63.998 30.5529C63.8781 30.6927 63.7983 30.8524 63.7384 31.0122C63.6784 31.1719 63.5986 31.3516 63.5187 31.4914C63.319 31.8509 63.1393 32.2103 62.9596 32.5897C62.7798 32.9691 62.5402 33.3086 62.2407 33.6082C62.1808 33.708 62.1208 33.8078 62.0809 33.9077C62.041 34.0275 61.9811 34.1274 61.9212 34.2472C61.8213 34.4668 61.7814 34.6865 61.8013 34.9261C61.8213 35.1458 61.7614 35.3654 61.6815 35.5651C61.6216 35.625 61.5617 35.7049 61.5617 35.7848C61.5218 36.0244 61.5018 36.2641 61.5018 36.5037C61.5018 36.7433 61.4818 37.0029 61.4619 37.2825L61.402 37.4023C61.2222 37.4023 61.0425 37.3823 60.8628 37.3424C60.6831 37.2625 60.5233 37.1227 60.4634 36.923C60.1838 36.4038 59.9841 35.8247 59.9043 35.2257C59.8244 34.6266 59.8444 34.0075 59.9442 33.4085C60.064 32.8294 60.2038 32.2902 60.3636 31.751C60.5233 31.1919 60.723 30.6527 60.9427 30.1135C61.1224 29.6343 61.362 29.155 61.6416 28.7157C61.9212 28.2564 62.1808 27.7971 62.4004 27.3179C62.4404 27.218 62.5003 27.0982 62.5402 26.9984C62.6001 26.8785 62.66 26.7787 62.7399 26.6788C62.9196 26.3793 63.0794 26.0997 63.2791 25.8401C63.4788 25.5805 63.6585 25.3209 63.8582 25.0613C63.938 24.9815 63.9979 24.8816 64.0579 24.7818L64.1777 24.5222C64.2575 24.4223 64.3374 24.3225 64.3973 24.2027C64.4572 24.1028 65.4757 22.6451 65.5555 22.5452C65.8551 22.685 66.0148 22.8048 66.0348 22.9047C66.0548 23.0045 65.0364 24.4822 64.8167 24.642L64.637 24.8217C64.5771 24.8616 64.5571 24.9216 64.5371 25.0014C64.4772 25.1812 64.3973 25.3409 64.2575 25.4807C64.1377 25.6205 64.0179 25.7603 63.8582 25.94C63.7983 25.9999 63.7783 26.0598 63.7583 26.1397C63.7184 26.2196 63.6585 26.2994 63.5786 26.3593C63.1193 27.0982 62.6201 27.8171 62.0609 28.4761C62.021 28.536 61.9811 28.6159 61.9811 28.6957C61.9811 28.7756 61.9411 28.8555 61.9012 28.9154C61.8612 28.9553 61.8413 28.9953 61.8413 29.0352C61.8413 29.0751 61.8213 29.1351 61.7814 29.155C61.5218 29.4346 61.342 29.794 61.2821 30.1735C61.2023 30.453 61.1024 30.7126 60.9427 30.9523C60.7829 31.1919 60.6631 31.4515 60.5433 31.7311C60.4834 31.9907 60.4235 32.2503 60.3636 32.5098C60.3036 32.7894 60.3236 33.069 60.4035 33.3486C60.4434 33.2886 60.4834 33.2287 60.5233 33.1688C60.5633 33.1089 60.6032 33.049 60.6232 32.9891C60.723 32.7694 60.8228 32.5698 60.9027 32.39C60.9826 32.2103 61.0625 32.0106 61.1224 31.8109C61.3421 31.1719 61.6016 30.5529 61.9212 29.9538C62.2207 29.3747 62.5801 28.8155 62.9995 28.2963C63.0993 28.1366 63.1992 27.9569 63.2791 27.7971C63.3589 27.6174 63.4388 27.4576 63.5387 27.2979C63.5786 27.2579 63.6185 27.198 63.6585 27.1581C63.6984 27.0982 63.7583 27.0183 63.7983 26.9584C63.8582 26.9984 64.5771 26.1996 64.617 26.2395C64.6569 26.2795 64.0778 27.198 64.1777 27.238C63.998 27.5375 63.7983 27.8371 63.5986 28.1166C63.3789 28.4162 63.8981 28.4561 64.1577 28.1366C64.4173 27.8171 64.597 27.4377 64.6769 27.0183C64.6969 26.9185 64.7368 26.8386 64.7967 26.7587C65.1961 26.4792 65.5156 26.1397 65.7952 25.7403C66.0548 25.3609 66.3543 24.9815 66.6738 24.622C66.7737 24.5421 66.8535 24.4423 66.9334 24.3424C67.0133 24.2226 67.0932 24.1228 67.193 24.0229C67.0732 23.983 66.9933 23.9231 66.9933 23.8432C66.9933 23.7633 66.9933 23.6835 66.9933 23.6036C67.0133 23.5237 67.0133 23.4438 67.0333 23.344C67.0532 23.2441 66.8735 23.4438 66.7737 23.3839C66.6738 23.4239 66.7138 23.2042 66.6339 23.2641C66.554 23.324 66.4741 23.364 66.3943 23.4039C66.3743 23.4039 66.3543 23.3839 66.3343 23.364L66.7138 22.7449C66.8336 22.5452 66.9734 22.3455 67.0932 22.1458H67.213C67.233 22.2257 67.2529 22.3056 67.2529 22.3855C67.2529 22.4653 67.3927 22.3056 67.4127 22.4254C67.5525 22.4054 67.5724 22.5852 67.6723 22.5053C67.7721 22.4254 67.852 22.3256 67.9319 22.2257C68.0118 22.1259 68.0916 22.0061 68.1715 21.8862C68.2514 21.7664 68.3712 21.6865 68.491 21.6266C68.531 21.8064 68.471 21.9861 68.3512 22.1059C68.2314 22.1858 68.1316 22.2856 68.0517 22.3855C67.9918 22.4853 67.9119 22.6051 67.852 22.7249C67.7921 22.8448 67.6923 22.9845 67.6124 23.1044C67.7921 23.1443 67.8919 23.1443 67.9518 23.0844C68.0118 23.0245 68.0717 22.9646 68.1316 22.8847C68.2714 22.665 68.4511 22.4653 68.6308 22.2856C68.8105 22.1059 68.9902 21.9062 69.15 21.7065C69.2099 21.6466 69.2698 21.6067 69.3497 21.5867C69.4296 21.5667 69.5094 21.5268 69.5694 21.4869C69.4495 21.2872 69.13 21.2872 69.0102 21.0875C69.0701 21.0675 69.3297 20.8478 69.3896 20.8279C69.4296 20.8079 69.4895 20.7879 69.5294 20.7879C69.6492 20.768 69.769 20.768 69.8889 20.768C70.0286 20.7879 70.1684 20.768 70.3082 20.748C70.5478 20.6881 70.7276 20.4884 70.7475 20.2488C70.6677 20.2088 70.5878 20.1689 70.4879 20.129L70.2084 20.0091C70.2683 19.9492 70.3482 19.9093 70.428 19.8893C70.5079 19.8693 70.5878 19.8494 70.6677 19.8094C70.7475 19.7895 70.8074 19.7296 70.8474 19.6697C70.8873 19.5898 70.9073 19.5099 70.9073 19.4101C71.0271 19.4101 71.127 19.43 71.2468 19.45C71.3266 19.4899 71.4265 19.47 71.5263 19.43C71.6062 19.3901 71.6861 19.3102 71.726 19.2303C71.7859 19.1305 71.8658 19.0706 71.9657 19.0107C72.1454 18.7311 72.3451 18.4915 72.5448 18.2518C72.7445 18.0122 72.9441 17.7926 73.1438 17.5529C73.2437 17.473 73.3036 17.3732 73.3635 17.2534C73.4034 17.1535 73.3635 17.0337 73.2637 16.8939C73.1838 16.8141 73.1239 16.6942 73.1239 16.5744C73.1039 16.4546 73.0839 16.3348 73.044 16.235C72.9641 16.0353 72.8643 15.8356 72.7245 15.6558V15.1167C72.6246 15.0767 72.5048 15.0967 72.4449 15.1566C72.385 15.2365 72.3051 15.3164 72.2253 15.3962C72.1853 15.4362 72.1254 15.4761 72.0655 15.5161C72.0056 15.536 71.9457 15.576 71.9058 15.6359C71.8458 15.5161 71.7859 15.3962 71.746 15.2565C71.6861 15.0368 71.766 14.8171 71.9457 14.6973L72.385 14.258C72.5448 14.1382 72.6047 13.9385 72.5448 13.7588C72.3051 12.9201 72.0855 12.0814 71.8858 11.2626C71.6861 10.4439 71.4465 9.62515 71.2268 8.82638C71.107 8.30719 70.9472 7.76802 70.7675 7.26879C70.5878 6.76956 70.428 6.25036 70.2683 5.73116C70.1884 5.45159 70.1085 5.19199 70.0286 4.93239C69.9488 4.67279 69.8689 4.41319 69.7491 4.13362C69.6293 3.85405 69.5494 3.53455 69.4695 3.23501C69.3896 2.93547 69.2498 2.63593 69.0901 2.35636C68.8904 2.11673 68.9104 1.8771 69.1101 1.59754C69.3098 1.31797 69.5694 1.05837 69.829 1.19815C69.9088 1.13824 69.9887 1.27803 70.0486 1.21812L70.2084 1.05837C70.3681 0.898614 70.6078 0.818737 70.8474 0.878645C70.9872 0.918583 71.1469 0.938552 71.3067 0.918583C71.4465 0.918583 71.5862 0.898614 71.746 0.878645C71.9257 0.818737 72.1054 0.858675 72.2452 0.978491C72.3451 1.07834 72.4849 1.23809 72.6646 1.41781C72.7045 1.45775 72.7644 1.49769 72.8243 1.51766C73.2437 1.59754 73.5233 1.79723 73.6431 2.09677C73.7629 2.3963 73.8827 2.69584 73.9825 2.99538C74.1223 3.37479 74.2621 3.75421 74.362 4.09369C74.4618 4.45313 74.5816 4.81258 74.6815 5.17202V5.29184C74.6815 5.79107 74.7613 6.27033 74.9211 6.74959C75.0809 7.20888 75.2206 7.68814 75.3404 8.14743C75.4004 8.40703 75.4603 8.62669 75.5202 8.84635C75.5801 9.06601 75.62 9.26571 75.66 9.48537L75.6999 9.68506C75.7199 9.74497 75.7199 9.80488 75.7398 9.86478C75.7997 9.96463 75.9395 9.9846 76.1392 9.90472C76.3189 9.82484 76.4787 9.74497 76.6384 9.62515C76.6984 9.54528 76.7583 9.4654 76.8182 9.40549C76.8781 9.32561 76.938 9.26571 77.0179 9.2058C77.3973 8.82638 77.7767 8.46694 78.1361 8.10749C78.5156 7.74805 78.855 7.34866 79.1546 6.92931C79.3143 6.70965 79.494 6.48999 79.6937 6.2903C79.8934 6.0906 80.1131 5.89091 80.3327 5.71119L82.1899 3.97387C82.8289 3.39476 83.4679 2.81566 84.1469 2.25652C84.4464 1.97695 84.7459 1.71735 85.0255 1.45775C85.3051 1.19815 85.6246 0.938552 85.9042 0.718891C86.1837 0.479261 86.5032 0.2596 86.8627 0.119815C87.0224 0.0599076 87.1822 0.0199692 87.3619 0C87.5416 0 87.7014 0.0599076 87.8212 0.199692C87.961 0.299538 88.0808 0.319507 88.1806 0.23963C88.2805 0.159754 88.4003 0.159754 88.58 0.23963V0.439322C88.58 0.519199 88.7597 0.599076 88.7198 0.698922C88.8396 0.73886 88.7597 0.778799 88.8796 0.818737C88.9994 0.858675 89.1192 0.898614 89.239 0.938552C89.3588 0.978491 89.4587 1.01843 89.5585 1.07834C89.6384 1.13824 89.6584 1.23809 89.6184 1.37787C89.6184 1.45775 89.6384 1.53763 89.6783 1.59754C89.8381 1.75729 89.9379 1.95698 89.9579 2.17664C89.918 2.51612 89.9579 2.73578 89.9978 2.95544ZM65.0164 25.261C64.9764 25.1412 64.9764 25.0214 64.9964 24.9216C65.1162 24.7618 65.256 24.622 65.3958 24.5022C65.4557 24.7219 65.4357 24.8616 65.3359 24.9615C65.236 25.0613 65.1162 25.1612 65.0164 25.261ZM68.7506 18.9707C68.8505 18.9508 68.9104 18.8709 68.9303 18.771C68.9303 18.6512 68.9104 18.5114 68.8904 18.3916C69.2299 17.9723 69.5694 17.5529 69.9088 17.1336C70.2483 16.7142 70.6078 16.2749 70.9672 15.8356C71.0271 15.7357 71.8259 14.8571 71.8858 14.8171C71.9457 14.7772 72.0655 14.8171 72.2253 14.917C72.1054 15.0368 71.2468 15.9754 71.127 16.1151C71.0071 16.2549 70.8674 16.3747 70.7475 16.5145C70.8074 16.5545 70.8674 16.5944 70.9073 16.6343C70.9472 16.6743 70.9872 16.7142 71.0271 16.7542C71.0071 16.9538 70.8873 17.0337 70.6876 17.0337C70.3881 16.9938 70.2882 17.0936 70.4081 17.3532C70.4879 17.4531 70.468 17.5929 70.3681 17.6727C70.3681 17.6727 70.3482 17.6927 70.3282 17.6927C70.2283 17.8325 70.1285 17.9723 70.0286 18.0921C69.9288 18.2119 69.829 18.3118 69.7291 18.4316C69.6892 18.4715 69.6492 18.4915 69.6093 18.5314C69.5694 18.5514 69.5094 18.5913 69.4895 18.6313C69.1899 19.0306 68.8904 19.43 68.5909 19.8094L67.6523 20.9876C67.4726 21.1873 67.3128 21.407 67.1531 21.5867C66.9734 21.7864 66.8336 22.026 66.6938 22.2457C66.574 22.4853 66.4542 22.6051 66.3343 22.6051C66.2145 22.6051 66.0348 22.5253 65.7752 22.3455C66.1946 21.7465 66.6339 21.1673 67.0732 20.5882C67.5125 20.0091 67.9519 19.4101 68.3912 18.791C68.5909 18.8909 68.6907 18.9508 68.7506 18.9707ZM66.4342 24.1228C66.4941 24.2825 66.4542 24.4623 66.3343 24.602C66.2145 24.7219 66.0747 24.8217 65.935 24.9216C66.0148 24.7818 66.0947 24.642 66.1946 24.5022C66.2944 24.3624 66.3343 24.2426 66.4342 24.1228ZM67.7122 21.6266C67.6923 21.6067 67.6723 21.5867 67.6723 21.5867C67.6523 21.5867 67.6323 21.5667 67.6323 21.5468C67.8121 21.367 67.9918 21.2073 68.1915 21.0675C68.1515 21.1873 68.0916 21.2872 67.9918 21.367C67.9119 21.4669 67.832 21.5268 67.7122 21.6266ZM67.8121 20.2687C67.832 20.2288 67.852 20.2088 67.8919 20.1689C67.852 20.1289 67.832 20.089 67.832 20.069C67.7921 20.109 67.7721 20.1289 67.7522 20.1889C67.7322 20.2288 67.7122 20.2687 67.6723 20.3087L67.7322 20.3686C67.7522 20.3286 67.7921 20.3087 67.8121 20.2687ZM68.2314 21.0276C68.2314 21.0475 68.2314 21.0475 68.2115 21.0675L68.2314 21.0276ZM68.8904 20.2088C68.8105 20.3885 68.7107 20.5483 68.5909 20.6881L68.2514 21.0276C68.2714 20.8478 68.3113 20.6881 68.4111 20.5283C68.511 20.3486 68.6907 20.2288 68.8904 20.2088ZM69.0302 19.9093C69.1101 19.8294 69.1899 19.7495 69.2498 19.6697C69.2698 19.6697 69.3098 19.7096 69.3497 19.7695C69.2698 19.8294 69.1899 19.9293 69.13 20.0291L69.0302 19.9093ZM69.6093 19.47C69.5694 19.2703 69.5694 19.1704 69.5893 19.1305C69.6892 19.0506 69.789 18.9707 69.9288 18.9308C69.8889 19.0306 69.829 19.1105 69.769 19.1904C69.7091 19.2703 69.6492 19.3701 69.6093 19.47ZM69.9687 18.9308L69.9288 18.8909H69.9687V18.9308ZM69.9488 18.9308V18.8909L69.9887 18.9308H69.9488ZM69.9687 18.8909C69.9687 18.7511 70.0087 18.6113 70.0686 18.4715C70.1684 18.3517 70.3282 18.2718 70.4879 18.2718L69.9687 18.8909ZM70.7675 18.0522C70.7276 17.8924 70.7475 17.7326 70.8074 17.5929C70.9672 17.4331 71.1469 17.2734 71.3266 17.1336L71.3866 17.1935C71.2867 17.3133 71.1869 17.4531 71.087 17.5929C70.9872 17.7326 70.8873 17.8724 70.7675 18.0522ZM71.4864 17.9922C71.6262 18.0122 71.726 18.152 71.7061 18.2918C71.7061 18.3118 71.6861 18.3317 71.6861 18.3717C71.5663 18.3517 71.4864 18.3118 71.4864 18.2518C71.4664 18.152 71.4664 18.0721 71.4864 17.9922ZM72.1853 17.2933C72.2253 17.533 72.2253 17.533 72.1254 17.5929C72.0256 17.6528 71.9058 17.6927 71.8059 17.7326C71.8658 17.6528 71.9257 17.5529 71.9657 17.473C72.0455 17.3732 72.1054 17.4131 72.1853 17.2933ZM71.8658 16.874C71.8059 16.7142 71.8059 16.5944 71.8858 16.5345C71.9856 16.4746 72.1054 16.4546 72.2452 16.4546C72.1653 16.4946 72.2053 16.5944 72.1454 16.6543C72.0855 16.7142 71.9457 16.7941 71.8658 16.874ZM76.6185 22.665C76.8981 22.7449 76.958 22.1458 76.938 22.0061C76.918 21.8663 76.8781 21.7065 76.8381 21.5667C76.7982 21.4469 76.7782 21.3071 76.7583 21.1673C76.7183 20.8878 76.6784 20.6082 76.6185 20.3286C76.5785 20.1889 76.4787 20.069 76.3589 19.9892C76.3189 19.9492 76.299 19.9093 76.299 19.8494C76.299 19.7895 76.1193 19.2503 76.0993 19.0107C76.0593 18.9308 76.0194 18.8509 75.9994 18.7511C75.9595 18.6712 75.9196 18.5913 75.8796 18.4915C75.8397 18.3717 75.7997 18.2319 75.7798 18.0921C75.7598 17.9523 75.6999 17.8125 75.66 17.6727C75.6 17.6727 75.5401 17.6727 75.4603 17.7127C75.3604 17.9723 75.3205 18.2718 75.3404 18.5514C75.3604 18.831 75.4203 19.0906 75.5401 19.3502C75.62 19.5898 75.6999 19.8094 75.7798 20.0291C75.8596 20.2687 75.9196 20.5084 75.9595 20.748C75.9994 20.8878 76.0793 21.0276 76.1792 21.1673C76.4987 21.3471 76.6384 21.6666 76.5985 22.1259V22.4054C76.5785 22.4653 76.5985 22.5652 76.6185 22.665ZM79.6139 9.32561C79.9334 9.06601 80.2529 8.78645 80.5324 8.46694C80.5125 8.30719 80.4526 8.1674 80.3527 8.04759C79.9533 8.32715 79.5939 8.64666 79.2344 8.98614C78.9748 9.22577 78.7152 9.4654 78.4556 9.725L77.7168 10.4639C77.5371 10.6236 77.3973 10.7834 77.2974 10.9232C77.1976 11.0629 77.0578 11.2027 76.898 11.3425C76.8381 11.4423 76.7782 11.5422 76.7383 11.6221C76.6984 11.7019 76.7183 11.8018 76.8381 11.9016C76.9979 11.8617 77.1377 11.8018 77.2575 11.7019C77.3773 11.6021 77.4772 11.4823 77.577 11.3625L78.1761 10.7634C78.216 10.7235 78.2759 10.6835 78.3358 10.6236C78.3957 10.5837 78.4556 10.5238 78.4956 10.4439C78.6154 10.2043 78.7752 9.9846 78.9948 9.80487C79.1745 9.66509 79.3942 9.48537 79.6139 9.32561ZM76.6984 13.7388C76.8581 13.6789 77.1776 13.2196 77.2375 13.1397C77.3174 13.0599 77.3573 12.94 77.3374 12.8202C77.2375 12.8801 77.1377 12.94 77.0578 13.0199C76.918 13.2595 76.8182 13.4992 76.6984 13.7388ZM77.2575 24.2226C77.3174 24.0828 77.3174 23.963 77.2575 23.8832C77.1976 23.8033 77.1177 23.7434 77.0378 23.6835C77.0179 23.7833 76.9979 23.8832 76.9979 24.003C76.9979 24.1028 77.0778 24.1827 77.2575 24.2226ZM78.9549 29.3747C78.6953 28.7956 78.4556 28.2364 78.196 27.6573C77.9364 27.0782 77.597 26.5391 77.1776 26.0798C77.2575 26.3793 77.0977 26.2795 77.0778 26.579C77.0578 26.8785 77.7567 27.7772 77.9764 28.0567C78.0762 28.1566 78.1561 28.2963 78.1761 28.4361C78.196 28.5759 78.256 28.6957 78.3558 28.8155C78.5954 29.175 78.5954 29.3547 78.7752 29.7541C78.9549 30.1535 78.9948 30.5129 79.2944 30.7925C79.3742 30.8923 79.4541 31.0122 79.514 31.132C79.5739 31.2518 79.6338 31.3516 79.7137 31.4715C79.8136 31.5913 79.8735 31.7111 79.9533 31.8309C80.0332 31.9707 80.0532 31.5114 79.9334 31.3716C79.8135 31.2119 79.7137 31.0321 79.6538 30.8324C79.514 30.5928 79.3942 30.3532 79.3543 30.0736C79.2943 29.794 79.1546 29.5544 78.9549 29.3747ZM82.0102 7.0691C82.0301 7.02916 82.0501 6.96925 82.0501 6.92931C82.0501 6.8694 82.0701 6.8095 82.09 6.74959C81.7905 6.78953 81.5109 6.92931 81.2913 7.14897C81.0516 7.34866 80.8919 7.62823 80.832 7.92777C80.9518 7.88783 81.0716 7.80796 81.1715 7.72808C81.3112 7.62823 81.471 7.50842 81.6108 7.3886C81.7506 7.26879 81.8704 7.18891 82.0102 7.0691Z" fill="url(#paint0_linear_2_20)"/>
<defs>
<linearGradient id="paint0_linear_2_20" x1="87.7077" y1="5.37609" x2="72.649" y2="20.4329" gradientUnits="userSpaceOnUse">
<stop stop-color="#12DEF6"/>
<stop offset="0.12" stop-color="#18E0FF"/>
<stop offset="0.29" stop-color="#2BD3FD"/>
<stop offset="0.49" stop-color="#4FBAFB"/>
<stop offset="0.72" stop-color="#8892F9"/>
<stop offset="0.96" stop-color="#E04EF1"/>
<stop offset="1" stop-color="#EF40EA"/>
</linearGradient>
</defs>
</svg>
