<svg width="136" height="57" viewBox="0 0 136 57" fill="none" xmlns="http://www.w3.org/2000/svg">
<path d="M14.8064 43.0315C14.4482 43.0315 14.1199 42.8185 13.9408 42.4838L0.777405 15.6728C0.568463 15.1858 0.747556 14.6076 1.25499 14.3642C1.70272 14.1511 2.26985 14.3337 2.50864 14.7902L14.8064 39.8666L27.2832 14.7598C27.4922 14.2729 28.0593 14.0598 28.5369 14.2729C29.0145 14.4859 29.2234 15.0641 29.0145 15.551C29.0145 15.5815 28.9846 15.6119 28.9846 15.6423L15.6422 42.4533C15.4929 42.8185 15.1646 43.0315 14.8064 43.0315Z" fill="white"/>
<path d="M63.3706 42.8488C62.8333 42.8488 62.4154 42.4228 62.4154 41.875V27.6935H82.9216C85.9065 27.6935 88.3243 24.9241 88.3243 21.8809C88.3243 18.8376 85.9065 16.3726 82.9515 16.3726H63.3706C62.8333 16.403 62.3855 15.977 62.3557 15.4596C62.3259 14.9118 62.7437 14.4554 63.2512 14.4249C63.281 14.4249 63.3109 14.4249 63.3706 14.4249H82.9216C86.9512 14.4249 90.2346 17.7725 90.2346 21.8809C90.2346 25.9893 86.9512 29.6412 82.9216 29.6412H64.3257V41.9054C64.3257 42.4228 63.9078 42.8488 63.3706 42.8488Z" fill="white"/>
<path d="M53.0428 43.0315H34.6857C34.1485 43.0315 33.7306 42.6054 33.7306 42.0576C33.7306 41.5098 34.1485 41.0838 34.6857 41.0838H53.0428C56.1471 41.0838 58.6544 38.5275 58.6544 35.3625C58.6544 32.1975 56.1471 29.6412 53.0428 29.6412H41.2525C37.1035 29.6412 33.7306 26.2023 33.7306 21.9722C33.7306 17.7421 37.1035 14.3032 41.2525 14.3032H59.6096C60.1469 14.3032 60.5647 14.7293 60.5647 15.2771C60.5647 15.8248 60.1469 16.2509 59.6096 16.2509H41.2525C38.1482 16.2509 35.6409 18.8072 35.6409 21.9722C35.6409 25.1372 38.1482 27.6935 41.2525 27.6935H53.0428C57.1918 27.6935 60.5647 31.1324 60.5647 35.3929C60.5647 39.5926 57.1918 43.0315 53.0428 43.0315Z" fill="white"/>
<path d="M30.895 42.849C30.3577 42.849 29.9398 42.4229 29.9398 41.8751V15.3989C29.91 14.8511 30.3278 14.3946 30.8353 14.3642C31.3427 14.3338 31.8203 14.7598 31.8501 15.2772C31.8501 15.3076 31.8501 15.338 31.8501 15.3989V41.8751C31.8501 42.4229 31.4322 42.849 30.895 42.849Z" fill="white"/>
<path d="M135.217 4.504C135.247 4.96049 135.068 5.41698 134.739 5.75173C134.471 6.02563 134.262 6.26909 134.023 6.51255C133.784 6.75601 133.486 6.9386 133.157 7.0299C133.008 7.09076 132.889 7.15163 132.769 7.27336C132.172 7.72984 131.605 8.18633 131.038 8.67325C130.471 9.16017 129.934 9.64709 129.367 10.1036C129.158 10.2253 128.979 10.3775 128.859 10.5905C128.501 10.8948 128.173 11.1687 127.844 11.473C127.516 11.7774 127.158 12.0817 126.77 12.3556C126.292 12.8425 125.815 13.299 125.337 13.7859C124.859 14.2424 124.322 14.7293 123.815 15.2162L123.397 15.6423C123.248 15.764 123.128 15.9162 122.979 16.0379L121.695 17.2552C121.277 17.6508 120.86 18.016 120.412 18.4116C120.382 18.4421 120.352 18.4725 120.352 18.4725C120.352 18.4725 120.322 18.4725 120.292 18.5334C119.994 19.1116 119.576 19.5985 119.069 19.9637C118.561 20.3593 118.114 20.7549 117.666 21.2114L117.487 21.394C117.427 21.4549 117.397 21.5157 117.337 21.5766C117.278 21.7288 117.218 21.8505 117.099 21.9722C116.979 22.094 116.83 22.1548 116.681 22.1548C116.412 22.2461 116.173 22.3983 115.994 22.6418C115.785 22.8243 115.666 23.0374 115.606 23.3113C115.636 23.646 115.696 24.0112 115.815 24.3155C115.935 24.6199 115.994 24.9546 115.994 25.2894C116.024 25.4415 116.054 25.5937 116.084 25.685C116.114 25.8067 116.114 25.9285 116.114 26.0502C115.994 26.3849 116.054 26.7806 116.293 27.0545C116.323 27.1153 116.352 27.1762 116.382 27.2371C116.412 27.2979 116.442 27.3588 116.442 27.4196C116.382 27.7848 116.442 28.1805 116.591 28.5152C116.74 28.8804 116.8 29.276 116.74 29.6412C116.711 29.9151 116.74 30.2194 116.89 30.4629C117.009 30.6759 117.128 30.9194 117.278 31.1933C117.337 31.3759 117.427 31.5889 117.487 31.8019C117.576 31.9845 117.606 32.1975 117.606 32.4106C117.636 32.9888 117.755 33.5366 117.934 34.0539C118.114 34.6017 118.293 35.1191 118.442 35.6668C118.591 36.0625 118.71 36.519 118.74 36.945C118.77 37.3711 118.651 37.7971 118.412 38.1623C118.472 38.3449 118.561 38.4666 118.71 38.4666C118.86 38.4666 118.979 38.4971 119.128 38.5275C119.218 38.5884 119.307 38.6188 119.397 38.7101C119.516 38.8014 119.576 38.8623 119.576 38.9231C119.516 39.2883 119.546 39.6231 119.696 39.9578C119.845 40.2926 119.964 40.6273 120.024 40.9925C120.084 41.3577 120.143 41.662 120.203 41.9664C120.263 42.3011 120.412 42.6359 120.561 42.9402C120.621 43.0315 120.651 43.1532 120.621 43.275C120.591 43.3967 120.591 43.5184 120.591 43.6706C120.591 44.401 120.681 45.1009 120.889 45.8009C121.098 46.5008 121.367 47.1703 121.725 47.8094C121.874 48.2355 122.024 48.6311 122.203 49.0571C122.382 49.4832 122.531 49.9092 122.74 50.3657C122.77 50.4266 123.188 51.0352 123.128 51.1874C122.949 51.2483 122.77 51.2483 122.591 51.2178C122.412 51.157 122.263 51.0961 122.083 51.0048C121.397 50.5483 120.77 50.0005 120.233 49.3615C119.696 48.7224 119.218 48.0529 118.8 47.3225C118.502 46.8356 118.233 46.3486 117.964 45.8617C117.696 45.3748 117.397 44.8879 117.158 44.401C116.8 43.8227 116.502 43.2445 116.203 42.6359C115.905 42.0272 115.636 41.449 115.367 40.8708C115.069 40.2317 114.83 39.5622 114.621 38.8623C114.412 38.1623 114.173 37.5232 113.905 36.8537C113.726 36.3364 113.517 35.8494 113.338 35.3625C113.159 34.8756 112.979 34.3887 112.83 33.8713C112.681 33.354 112.532 32.9279 112.412 32.441C112.293 31.9541 112.144 31.4976 112.024 31.0107C111.935 30.7672 111.786 30.402 111.547 29.9151C111.368 29.5195 111.129 29.1543 110.83 28.8195C110.771 28.9413 110.711 29.0326 110.621 29.1239C110.532 29.1847 110.502 29.276 110.472 29.3978C110.353 29.5804 110.204 29.7629 110.054 29.9455C109.905 30.1281 109.726 30.2499 109.517 30.3716C109.039 30.7064 108.592 31.1324 108.234 31.6193C108.144 31.8628 107.965 32.0454 107.726 32.1671C107.547 32.2584 107.338 32.3497 107.129 32.441C107.069 32.5932 107.01 32.7758 106.95 32.9584C106.89 33.1409 106.801 33.2931 106.652 33.4148C106.383 33.78 106.144 34.1148 105.846 34.48C105.547 34.8452 105.249 35.1799 104.95 35.5451C104.413 36.2755 103.846 37.0363 103.279 37.7667C102.682 38.5275 102.114 39.2579 101.547 40.0187C101.249 40.4752 100.98 40.8708 100.682 41.2664C100.383 41.662 100.085 42.0577 99.7863 42.4837C99.7266 42.575 99.6669 42.6359 99.637 42.7576C99.6072 42.8489 99.5475 42.9098 99.4579 42.9706C99.2191 43.0315 99.0102 43.1532 98.861 43.3358C98.7117 43.5184 98.5625 43.6706 98.4132 43.8532C98.055 44.2792 97.6969 44.7661 97.3984 45.2531C97.0999 45.74 96.7417 46.166 96.3537 46.5617C96.1746 46.7747 96.0552 47.0182 95.9656 47.2616C95.8761 47.5051 95.7567 47.779 95.6373 47.992C95.3388 48.5398 95.0701 49.0876 94.8015 49.6658C94.5329 50.244 94.1747 50.7613 93.727 51.2178C93.6374 51.37 93.5479 51.5222 93.4882 51.6743C93.4285 51.8569 93.3389 52.0091 93.2494 52.1917C93.1001 52.5264 93.0404 52.8612 93.0703 53.2264C93.1001 53.5611 93.0106 53.8959 92.8912 54.2002C92.8016 54.2915 92.7121 54.4132 92.7121 54.535C92.6524 54.9002 92.6225 55.2653 92.6225 55.6305C92.6225 55.9957 92.5927 56.3913 92.5628 56.8174L92.4733 57C92.2047 57 91.936 56.9696 91.6674 56.9087C91.3987 56.787 91.1599 56.5739 91.0704 56.2696C90.6525 55.4784 90.354 54.5958 90.2346 53.6829C90.1152 52.7699 90.1451 51.8265 90.2943 50.9135C90.4734 50.031 90.6824 49.2093 90.9211 48.3876C91.1599 47.5355 91.4584 46.7138 91.7868 45.8922C92.0554 45.1618 92.4136 44.4314 92.8315 43.7619C93.2494 43.0619 93.6374 42.362 93.9657 41.6316C94.0254 41.4794 94.115 41.2968 94.1747 41.1447C94.2642 40.9621 94.3538 40.8099 94.4732 40.6578C94.7418 40.2013 94.9806 39.7752 95.2791 39.3796C95.5776 38.984 95.8462 38.5884 96.1447 38.1927C96.2641 38.071 96.3536 37.9188 96.4432 37.7667L96.6223 37.3711C96.7417 37.2189 96.8611 37.0667 96.9506 36.8841C97.0402 36.732 98.5625 34.5104 98.6819 34.3582C99.1296 34.5713 99.3684 34.7539 99.3982 34.906C99.4281 35.0582 97.9058 37.3102 97.5775 37.5537L97.3088 37.8275C97.2193 37.8884 97.1894 37.9797 97.1596 38.1014C97.07 38.3753 96.9506 38.6188 96.7417 38.8318C96.5626 39.0448 96.3835 39.2579 96.1447 39.5318C96.0552 39.6231 96.0253 39.7144 95.9955 39.8361C95.9358 39.9578 95.8462 40.0795 95.7268 40.1708C95.0403 41.2968 94.2941 42.3924 93.4583 43.3967C93.3986 43.488 93.3389 43.6097 93.3389 43.7314C93.3389 43.8532 93.2792 43.9749 93.2195 44.0662C93.1598 44.1271 93.13 44.1879 93.13 44.2488C93.13 44.3097 93.1001 44.401 93.0404 44.4314C92.6524 44.8574 92.3837 45.4052 92.2942 45.9834C92.1748 46.4095 92.0256 46.8051 91.7868 47.1703C91.548 47.5355 91.3689 47.9311 91.1898 48.3572C91.1002 48.7528 91.0107 49.1484 90.9211 49.544C90.8316 49.9701 90.8615 50.3962 90.9808 50.8222C91.0405 50.7309 91.1002 50.6396 91.1599 50.5483C91.2196 50.457 91.2793 50.3657 91.3092 50.2744C91.4584 49.9397 91.6077 49.6353 91.7271 49.3615C91.8465 49.0876 91.9659 48.7832 92.0554 48.4789C92.3837 47.5051 92.7718 46.5617 93.2494 45.6487C93.6971 44.7661 94.2344 43.914 94.8612 43.1228C95.0105 42.8793 95.1597 42.6054 95.2791 42.362C95.3985 42.0881 95.5179 41.8446 95.6671 41.6012C95.7268 41.5403 95.7865 41.449 95.8462 41.3881C95.9059 41.2968 95.9955 41.1751 96.0552 41.0838C96.1447 41.1447 97.2193 39.9274 97.279 39.9883C97.3387 40.0491 96.473 41.449 96.6223 41.5099C96.3536 41.9664 96.0552 42.4229 95.7567 42.8489C95.4283 43.3054 96.2044 43.3663 96.5924 42.8793C96.9805 42.3924 97.2491 41.8142 97.3685 41.1751C97.3984 41.023 97.4581 40.9012 97.5476 40.7795C98.1446 40.3534 98.6222 39.8361 99.0401 39.2274C99.4281 38.6492 99.8758 38.071 100.353 37.5232C100.503 37.4015 100.622 37.2493 100.741 37.0972C100.861 36.9146 100.98 36.7624 101.129 36.6102C100.95 36.5494 100.831 36.4581 100.831 36.3364C100.831 36.2146 100.831 36.0929 100.831 35.9712C100.861 35.8494 100.861 35.7277 100.891 35.5755C100.921 35.4234 100.652 35.7277 100.503 35.6364C100.353 35.6973 100.413 35.3625 100.294 35.4538C100.174 35.5451 100.055 35.606 99.9355 35.6668C99.9057 35.6668 99.8758 35.6364 99.846 35.606L100.413 34.6626C100.592 34.3582 100.801 34.0539 100.98 33.7496H101.159C101.189 33.8713 101.219 33.9931 101.219 34.1148C101.219 34.2365 101.428 33.9931 101.458 34.1757C101.667 34.1452 101.697 34.4191 101.846 34.2974C101.995 34.1757 102.114 34.0235 102.234 33.8713C102.353 33.7192 102.473 33.5366 102.592 33.354C102.711 33.1714 102.891 33.0497 103.07 32.9584C103.129 33.2322 103.04 33.5061 102.861 33.6887C102.682 33.8105 102.532 33.9626 102.413 34.1148C102.323 34.2669 102.204 34.4495 102.114 34.6321C102.025 34.8147 101.876 35.0278 101.756 35.2104C102.025 35.2712 102.174 35.2712 102.264 35.1799C102.353 35.0886 102.443 34.9973 102.532 34.8756C102.741 34.5408 103.01 34.2365 103.279 33.9626C103.547 33.6887 103.816 33.3844 104.055 33.0801C104.144 32.9888 104.234 32.9279 104.353 32.8975C104.473 32.8671 104.592 32.8062 104.681 32.7453C104.502 32.441 104.025 32.441 103.846 32.1367C103.935 32.1062 104.323 31.7715 104.413 31.7411C104.473 31.7106 104.562 31.6802 104.622 31.6802C104.801 31.6498 104.98 31.6498 105.159 31.6498C105.368 31.6802 105.577 31.6498 105.786 31.6193C106.144 31.528 106.413 31.2237 106.443 30.8585C106.323 30.7976 106.204 30.7368 106.055 30.6759L105.637 30.4933C105.726 30.402 105.846 30.3412 105.965 30.3107C106.084 30.2803 106.204 30.2499 106.323 30.189C106.443 30.1586 106.532 30.0673 106.592 29.976C106.652 29.8542 106.681 29.7325 106.681 29.5803C106.86 29.5803 107.01 29.6108 107.189 29.6412C107.308 29.7021 107.457 29.6716 107.607 29.6108C107.726 29.5499 107.845 29.4282 107.905 29.3065C107.995 29.1543 108.114 29.063 108.263 28.9717C108.532 28.5456 108.83 28.1805 109.129 27.8153C109.427 27.4501 109.726 27.1153 110.024 26.7501C110.174 26.6284 110.263 26.4762 110.353 26.2936C110.412 26.1415 110.353 25.9589 110.204 25.7459C110.084 25.6241 109.995 25.4415 109.995 25.2589C109.965 25.0763 109.935 24.8938 109.875 24.7416C109.756 24.4373 109.607 24.1329 109.398 23.859V23.0374C109.248 22.9765 109.069 23.0069 108.98 23.0982C108.89 23.22 108.771 23.3417 108.651 23.4634C108.592 23.5243 108.502 23.5852 108.413 23.646C108.323 23.6765 108.234 23.7373 108.174 23.8286C108.084 23.646 107.995 23.4634 107.935 23.2504C107.845 22.9156 107.965 22.5809 108.234 22.3983L108.89 21.7288C109.129 21.5462 109.219 21.2419 109.129 20.968C108.771 19.6898 108.442 18.4116 108.144 17.1639C107.845 15.9162 107.487 14.6684 107.159 13.4511C106.98 12.6599 106.741 11.8382 106.472 11.0774C106.204 10.3166 105.965 9.52536 105.726 8.73412C105.607 8.30806 105.487 7.91244 105.368 7.51682C105.249 7.1212 105.129 6.72557 104.95 6.29952C104.771 5.87347 104.652 5.38655 104.532 4.93006C104.413 4.47357 104.204 4.01708 103.965 3.59103C103.667 3.22584 103.696 2.86065 103.995 2.4346C104.293 2.00854 104.682 1.61292 105.07 1.82595C105.189 1.73465 105.308 1.94768 105.398 1.85638L105.637 1.61292C105.875 1.36946 106.234 1.24773 106.592 1.33903C106.801 1.39989 107.04 1.43033 107.278 1.39989C107.487 1.39989 107.696 1.36946 107.935 1.33903C108.204 1.24773 108.472 1.3086 108.681 1.49119C108.83 1.64335 109.039 1.88681 109.308 2.1607C109.368 2.22157 109.457 2.28243 109.547 2.31287C110.174 2.4346 110.592 2.73892 110.771 3.19541C110.95 3.6519 111.129 4.10838 111.278 4.56487C111.487 5.14309 111.696 5.7213 111.845 6.23865C111.994 6.78644 112.174 7.33422 112.323 7.88201V8.0646C112.323 8.82541 112.442 9.55579 112.681 10.2862C112.92 10.9861 113.129 11.7165 113.308 12.4164C113.397 12.8121 113.487 13.1468 113.576 13.4816C113.666 13.8163 113.726 14.1207 113.785 14.4554L113.845 14.7597C113.875 14.851 113.875 14.9423 113.905 15.0336C113.994 15.1858 114.203 15.2162 114.502 15.0945C114.77 14.9728 115.009 14.851 115.248 14.6684C115.338 14.5467 115.427 14.425 115.517 14.3337C115.606 14.212 115.696 14.1207 115.815 14.0294C116.382 13.4511 116.949 12.9034 117.487 12.3556C118.054 11.8078 118.561 11.1991 119.009 10.5601C119.248 10.2253 119.516 9.89055 119.815 9.58622C120.113 9.2819 120.442 8.97758 120.77 8.70368L123.546 6.05606C124.501 5.17352 125.456 4.29098 126.471 3.43887C126.919 3.01281 127.367 2.61719 127.785 2.22157C128.202 1.82595 128.68 1.43033 129.098 1.09557C129.516 0.730379 129.993 0.395622 130.531 0.182595C130.769 0.0912974 131.008 0.0304325 131.277 0C131.546 0 131.784 0.0912974 131.963 0.304325C132.172 0.456487 132.351 0.486919 132.501 0.36519C132.65 0.24346 132.829 0.24346 133.098 0.36519V0.669514C133.098 0.791244 133.366 0.912974 133.307 1.06514C133.486 1.126 133.366 1.18687 133.545 1.24773C133.724 1.3086 133.904 1.36946 134.083 1.43033C134.262 1.49119 134.411 1.55206 134.56 1.64335C134.68 1.73465 134.709 1.88681 134.65 2.09984C134.65 2.22157 134.68 2.3433 134.739 2.4346C134.978 2.67806 135.127 2.98238 135.157 3.31714C135.098 3.83449 135.157 4.16925 135.217 4.504ZM97.8759 38.4971C97.8162 38.3145 97.8162 38.1319 97.8461 37.9797C98.0252 37.7363 98.2341 37.5232 98.4431 37.3406C98.5326 37.6754 98.5028 37.8884 98.3535 38.0406C98.2043 38.1927 98.0252 38.3449 97.8759 38.4971ZM103.458 28.9108C103.607 28.8804 103.696 28.7587 103.726 28.6065C103.726 28.4239 103.696 28.2109 103.667 28.0283C104.174 27.3892 104.682 26.7501 105.189 26.1111C105.696 25.472 106.234 24.8025 106.771 24.1329C106.86 23.9808 108.054 22.6417 108.144 22.5809C108.234 22.52 108.413 22.5809 108.651 22.733C108.472 22.9156 107.189 24.346 107.01 24.559C106.831 24.772 106.622 24.9546 106.443 25.1676C106.532 25.2285 106.622 25.2894 106.681 25.3502C106.741 25.4111 106.801 25.472 106.86 25.5328C106.831 25.8372 106.652 25.9589 106.353 25.9589C105.905 25.898 105.756 26.0502 105.935 26.4458C106.055 26.598 106.025 26.811 105.875 26.9327C105.875 26.9327 105.846 26.9632 105.816 26.9632C105.667 27.1762 105.517 27.3892 105.368 27.5718C105.219 27.7544 105.07 27.9066 104.92 28.0892C104.861 28.15 104.801 28.1805 104.741 28.2413C104.682 28.2718 104.592 28.3326 104.562 28.3935C104.114 29.0021 103.667 29.6108 103.219 30.189L101.816 31.9845C101.547 32.2888 101.309 32.6236 101.07 32.8975C100.801 33.2018 100.592 33.567 100.383 33.9018C100.204 34.2669 100.025 34.4495 99.846 34.4495C99.6669 34.4495 99.3982 34.3278 99.0102 34.0539C99.637 33.1409 100.294 32.2584 100.95 31.3759C101.607 30.4933 102.264 29.5804 102.92 28.6369C103.219 28.7891 103.368 28.8804 103.458 28.9108ZM99.9952 36.7624C100.085 37.0059 100.025 37.2798 99.846 37.4928C99.6669 37.6754 99.4579 37.8275 99.249 37.9797C99.3684 37.7667 99.4878 37.5537 99.637 37.3406C99.7863 37.1276 99.846 36.945 99.9952 36.7624ZM101.906 32.9584C101.876 32.9279 101.846 32.8975 101.846 32.8975C101.816 32.8975 101.786 32.8671 101.786 32.8366C102.055 32.5627 102.323 32.3193 102.622 32.1062C102.562 32.2888 102.473 32.441 102.323 32.5627C102.204 32.7149 102.085 32.8062 101.906 32.9584ZM102.055 30.8889C102.085 30.8281 102.114 30.7976 102.174 30.7368C102.114 30.6759 102.085 30.6151 102.085 30.5846C102.025 30.6455 101.995 30.6759 101.965 30.7672C101.935 30.8281 101.906 30.8889 101.846 30.9498L101.935 31.0411C101.965 30.9802 102.025 30.9498 102.055 30.8889ZM102.682 32.0454C102.682 32.0758 102.682 32.0758 102.652 32.1062L102.682 32.0454ZM103.667 30.7976C103.547 31.0715 103.398 31.315 103.219 31.528L102.711 32.0454C102.741 31.7715 102.801 31.528 102.95 31.2846C103.1 31.0107 103.368 30.8281 103.667 30.7976ZM103.876 30.3412C103.995 30.2194 104.114 30.0977 104.204 29.976C104.234 29.976 104.293 30.0368 104.353 30.1281C104.234 30.2194 104.114 30.3716 104.025 30.5238L103.876 30.3412ZM104.741 29.6716C104.682 29.3673 104.681 29.2152 104.711 29.1543C104.861 29.0326 105.01 28.9108 105.219 28.85C105.159 29.0021 105.07 29.1239 104.98 29.2456C104.89 29.3673 104.801 29.5195 104.741 29.6716ZM105.278 28.85L105.219 28.7891H105.278V28.85ZM105.249 28.85V28.7891L105.308 28.85H105.249ZM105.278 28.7891C105.278 28.5761 105.338 28.3631 105.428 28.15C105.577 27.9674 105.816 27.8457 106.055 27.8457L105.278 28.7891ZM106.472 27.5109C106.413 27.2675 106.443 27.024 106.532 26.811C106.771 26.5675 107.04 26.3241 107.308 26.1111L107.398 26.2023C107.249 26.3849 107.099 26.598 106.95 26.811C106.801 27.024 106.652 27.2371 106.472 27.5109ZM107.547 27.4196C107.756 27.4501 107.905 27.6631 107.875 27.8761C107.875 27.9066 107.845 27.937 107.845 27.9979C107.666 27.9674 107.547 27.9066 107.547 27.8153C107.517 27.6631 107.517 27.5414 107.547 27.4196ZM108.592 26.3545C108.651 26.7197 108.651 26.7197 108.502 26.811C108.353 26.9023 108.174 26.9632 108.025 27.024C108.114 26.9023 108.204 26.7501 108.263 26.6284C108.383 26.4762 108.472 26.5371 108.592 26.3545ZM108.114 25.7154C108.025 25.472 108.025 25.2894 108.144 25.1981C108.293 25.1068 108.472 25.0763 108.681 25.0763C108.562 25.1372 108.622 25.2894 108.532 25.3807C108.442 25.472 108.234 25.5937 108.114 25.7154ZM115.218 34.5408C115.636 34.6626 115.726 33.7496 115.696 33.5366C115.666 33.3235 115.606 33.0801 115.546 32.8671C115.487 32.6845 115.457 32.4714 115.427 32.2584C115.367 31.8324 115.308 31.4063 115.218 30.9802C115.158 30.7672 115.009 30.5846 114.83 30.4629C114.77 30.402 114.741 30.3412 114.741 30.2499C114.741 30.1586 114.472 29.3369 114.442 28.9717C114.382 28.85 114.323 28.7282 114.293 28.5761C114.233 28.4543 114.173 28.3326 114.114 28.1805C114.054 27.9979 113.994 27.7848 113.965 27.5718C113.935 27.3588 113.845 27.1458 113.785 26.9327C113.696 26.9327 113.606 26.9327 113.487 26.9936C113.338 27.3892 113.278 27.8457 113.308 28.2718C113.338 28.6978 113.427 29.0934 113.606 29.4891C113.726 29.8542 113.845 30.189 113.965 30.5238C114.084 30.8889 114.173 31.2541 114.233 31.6193C114.293 31.8324 114.412 32.0454 114.561 32.2584C115.039 32.5323 115.248 33.0192 115.188 33.7192V34.1452C115.158 34.2365 115.188 34.3887 115.218 34.5408ZM119.696 14.212C120.173 13.8163 120.651 13.3903 121.069 12.9034C121.039 12.6599 120.949 12.4469 120.8 12.2643C120.203 12.6903 119.666 13.1773 119.128 13.6946C118.74 14.0598 118.352 14.425 117.964 14.8206L116.86 15.9466C116.591 16.1901 116.382 16.4335 116.233 16.6466C116.084 16.8596 115.875 17.0726 115.636 17.2856C115.547 17.4378 115.457 17.59 115.397 17.7117C115.338 17.8334 115.367 17.9856 115.546 18.1377C115.785 18.0769 115.994 17.9856 116.173 17.8334C116.352 17.6813 116.502 17.4987 116.651 17.3161L117.546 16.4031C117.606 16.3422 117.696 16.2814 117.785 16.1901C117.875 16.1292 117.964 16.0379 118.024 15.9162C118.203 15.551 118.442 15.2162 118.77 14.9423C119.039 14.7293 119.367 14.4554 119.696 14.212ZM115.338 20.9375C115.576 20.8462 116.054 20.1463 116.143 20.0246C116.263 19.9028 116.323 19.7202 116.293 19.5376C116.143 19.6289 115.994 19.7202 115.875 19.842C115.666 20.2072 115.517 20.5723 115.338 20.9375ZM116.173 36.9146C116.263 36.7015 116.263 36.519 116.173 36.3972C116.084 36.2755 115.964 36.1842 115.845 36.0929C115.815 36.2451 115.785 36.3972 115.785 36.5798C115.785 36.732 115.905 36.8537 116.173 36.9146ZM118.71 44.7662C118.322 43.8836 117.964 43.0315 117.576 42.149C117.188 41.2664 116.681 40.4447 116.054 39.7448C116.173 40.2013 115.935 40.0491 115.905 40.5056C115.875 40.9621 116.92 42.3316 117.248 42.7576C117.397 42.9098 117.517 43.1228 117.546 43.3358C117.576 43.5488 117.666 43.7314 117.815 43.914C118.173 44.4618 118.173 44.7357 118.442 45.3444C118.71 45.953 118.77 46.5008 119.218 46.9269C119.337 47.079 119.457 47.2616 119.546 47.4442C119.636 47.6268 119.725 47.779 119.845 47.9616C119.994 48.1442 120.084 48.3267 120.203 48.5093C120.322 48.7224 120.352 48.0224 120.173 47.8094C119.994 47.5659 119.845 47.292 119.755 46.9877C119.546 46.6225 119.367 46.2573 119.307 45.8313C119.218 45.4052 119.009 45.04 118.71 44.7662ZM123.277 10.7731C123.307 10.7122 123.337 10.6209 123.337 10.5601C123.337 10.4688 123.367 10.3775 123.397 10.2862C122.949 10.347 122.531 10.5601 122.203 10.8948C121.845 11.1991 121.606 11.6252 121.516 12.0817C121.695 12.0208 121.874 11.8991 122.024 11.7774C122.233 11.6252 122.471 11.4426 122.68 11.26C122.889 11.0774 123.068 10.9557 123.277 10.7731Z" fill="url(#paint0_linear_153_46)"/>
<defs>
<linearGradient id="paint0_linear_153_46" x1="131.794" y1="8.193" x2="108.849" y2="30.6948" gradientUnits="userSpaceOnUse">
<stop stop-color="#12DEF6"/>
<stop offset="0.12" stop-color="#18E0FF"/>
<stop offset="0.29" stop-color="#2BD3FD"/>
<stop offset="0.49" stop-color="#4FBAFB"/>
<stop offset="0.72" stop-color="#8892F9"/>
<stop offset="0.96" stop-color="#E04EF1"/>
<stop offset="1" stop-color="#EF40EA"/>
</linearGradient>
</defs>
</svg>
