<svg width="255" height="107" viewBox="0 0 255 107" fill="none" xmlns="http://www.w3.org/2000/svg">
<path d="M27.7622 80.7784C27.0906 80.7784 26.475 80.3786 26.1392 79.7503L1.45783 29.4209C1.06607 28.5067 1.40186 27.4213 2.3533 26.9644C3.1928 26.5644 4.25617 26.9071 4.7039 27.7641L27.7622 74.8373L51.1562 27.707C51.5481 26.793 52.6114 26.393 53.5069 26.793C54.4024 27.1928 54.7941 28.2782 54.4024 29.1922C54.4024 29.2495 54.3463 29.3066 54.3463 29.3636L29.3293 79.693C29.0494 80.3786 28.4338 80.7784 27.7622 80.7784Z" fill="white"/>
<path d="M118.82 80.4353C117.812 80.4353 117.029 79.6356 117.029 78.6073V51.9858H155.478C161.075 51.9858 165.608 46.7871 165.608 41.0745C165.608 35.3616 161.075 30.7343 155.534 30.7343H118.82C117.812 30.7914 116.973 29.9917 116.917 29.0205C116.861 27.9921 117.644 27.1354 118.596 27.0781C118.652 27.0781 118.708 27.0781 118.82 27.0781H155.478C163.033 27.0781 169.19 33.3622 169.19 41.0745C169.19 48.7867 163.033 55.6421 155.478 55.6421H120.611V78.6643C120.611 79.6356 119.827 80.4353 118.82 80.4353Z" fill="white"/>
<path d="M99.4555 80.7787H65.0359C64.0287 80.7787 63.2451 79.9788 63.2451 78.9505C63.2451 77.9221 64.0287 77.1225 65.0359 77.1225H99.4555C105.276 77.1225 109.977 72.3238 109.977 66.3825C109.977 60.4412 105.276 55.6425 99.4555 55.6425H77.3487C69.5693 55.6425 63.2451 49.187 63.2451 41.2463C63.2451 33.3056 69.5693 26.8501 77.3487 26.8501H111.768C112.776 26.8501 113.559 27.65 113.559 28.6783C113.559 29.7064 112.776 30.5063 111.768 30.5063H77.3487C71.5281 30.5063 66.8269 35.305 66.8269 41.2463C66.8269 47.1876 71.5281 51.9863 77.3487 51.9863H99.4555C107.235 51.9863 113.559 58.4418 113.559 66.4395C113.559 74.3232 107.235 80.7787 99.4555 80.7787Z" fill="white"/>
<path d="M57.9281 80.4358C56.9207 80.4358 56.1371 79.6359 56.1371 78.6076V28.9066C56.0812 27.8783 56.8646 27.0214 57.8162 26.9643C58.7675 26.9072 59.663 27.7069 59.7189 28.6782C59.7189 28.7352 59.7189 28.7923 59.7189 28.9066V78.6076C59.7189 79.6359 58.9353 80.4358 57.9281 80.4358Z" fill="white"/>
<path d="M253.532 8.45488C253.588 9.3118 253.253 10.1687 252.636 10.7971C252.133 11.3113 251.741 11.7683 251.293 12.2253C250.845 12.6823 250.286 13.0251 249.669 13.1965C249.39 13.3107 249.167 13.425 248.942 13.6535C247.823 14.5104 246.759 15.3673 245.696 16.2814C244.633 17.1954 243.626 18.1094 242.563 18.9664C242.171 19.1949 241.836 19.4806 241.611 19.8804C240.939 20.4516 240.324 20.9658 239.708 21.537C239.093 22.1085 238.421 22.6797 237.694 23.1938C236.798 24.1079 235.903 24.9648 235.007 25.8788C234.111 26.7357 233.104 27.6497 232.153 28.5637L231.369 29.3636C231.09 29.5921 230.865 29.8778 230.586 30.1062L228.178 32.3913C227.394 33.134 226.613 33.8195 225.773 34.5621C225.716 34.6194 225.66 34.6764 225.66 34.6764C225.66 34.6764 225.604 34.6764 225.548 34.7908C224.989 35.8762 224.205 36.7902 223.254 37.4757C222.302 38.2183 221.464 38.9609 220.624 39.8179L220.288 40.1607C220.176 40.275 220.119 40.3891 220.007 40.5034C219.896 40.7892 219.784 41.0176 219.561 41.2461C219.336 41.4747 219.056 41.5888 218.777 41.5888C218.273 41.7602 217.824 42.0459 217.489 42.503C217.097 42.8456 216.874 43.2456 216.761 43.7598C216.818 44.3881 216.93 45.0737 217.153 45.6449C217.378 46.2163 217.489 46.8446 217.489 47.4731C217.545 47.7586 217.601 48.0443 217.658 48.2157C217.714 48.4442 217.714 48.6728 217.714 48.9013C217.489 49.5295 217.601 50.2724 218.049 50.7865C218.106 50.9007 218.16 51.015 218.216 51.1293C218.273 51.2434 218.329 51.3577 218.329 51.4719C218.216 52.1574 218.329 52.9002 218.608 53.5285C218.888 54.2141 219 54.9567 218.887 55.6423C218.833 56.1564 218.888 56.7276 219.169 57.1847C219.392 57.5846 219.615 58.0417 219.896 58.5558C220.007 58.8986 220.176 59.2985 220.288 59.6983C220.455 60.0411 220.511 60.4409 220.511 60.841C220.568 61.9263 220.791 62.9547 221.126 63.9257C221.464 64.9541 221.799 65.9253 222.079 66.9535C222.358 67.6963 222.581 68.5532 222.637 69.3529C222.694 70.1528 222.471 70.9525 222.023 71.638C222.135 71.9808 222.302 72.2092 222.581 72.2092C222.862 72.2092 223.086 72.2665 223.365 72.3236C223.534 72.4379 223.701 72.4949 223.869 72.6663C224.093 72.8377 224.205 72.952 224.205 73.0662C224.092 73.7517 224.149 74.3802 224.43 75.0085C224.709 75.637 224.933 76.2653 225.045 76.9508C225.158 77.6364 225.268 78.2076 225.381 78.779C225.493 79.4073 225.772 80.0358 226.052 80.607C226.164 80.7784 226.221 81.0069 226.164 81.2355C226.108 81.464 226.108 81.6924 226.108 81.9781C226.108 83.3492 226.277 84.6631 226.667 85.9771C227.059 87.291 227.563 88.5478 228.234 89.7475C228.514 90.5473 228.795 91.29 229.131 92.0896C229.466 92.8895 229.746 93.6892 230.138 94.5461C230.194 94.6605 230.978 95.8029 230.865 96.0886C230.529 96.2029 230.194 96.2029 229.858 96.1457C229.523 96.0316 229.243 95.9172 228.906 95.7458C227.619 94.8889 226.444 93.8606 225.437 92.6611C224.43 91.4613 223.534 90.2046 222.75 88.8335C222.191 87.9195 221.687 87.0053 221.182 86.0913C220.68 85.1773 220.119 84.2633 219.671 83.3493C219 82.2637 218.441 81.1783 217.881 80.0358C217.322 78.8932 216.817 77.8078 216.313 76.7224C215.754 75.5227 215.306 74.2659 214.914 72.952C214.523 71.638 214.074 70.4383 213.572 69.1815C213.236 68.2104 212.844 67.2962 212.509 66.3822C212.173 65.4682 211.836 64.5542 211.556 63.583C211.277 62.6119 210.998 61.812 210.773 60.898C210.549 59.984 210.27 59.1271 210.045 58.2131C209.878 57.756 209.599 57.0704 209.151 56.1564C208.815 55.4138 208.367 54.7282 207.806 54.0998C207.696 54.3284 207.583 54.4998 207.414 54.6712C207.248 54.7853 207.191 54.9567 207.135 55.1853C206.912 55.5281 206.633 55.8707 206.351 56.2135C206.072 56.5563 205.736 56.7849 205.344 57.0134C204.448 57.6418 203.61 58.4415 202.939 59.3555C202.77 59.8126 202.434 60.1554 201.986 60.3839C201.651 60.5552 201.259 60.7266 200.867 60.898C200.754 61.1837 200.644 61.5265 200.531 61.8693C200.419 62.2119 200.252 62.4976 199.973 62.726C199.468 63.4116 199.02 64.0401 198.461 64.7256C197.901 65.4112 197.342 66.0395 196.781 66.725C195.774 68.0961 194.711 69.5243 193.648 70.8954C192.529 72.3236 191.464 73.6947 190.401 75.1228C189.842 75.9798 189.338 76.7224 188.779 77.465C188.218 78.2076 187.659 78.9504 187.099 79.7501C186.987 79.9215 186.875 80.0358 186.819 80.2643C186.764 80.4357 186.652 80.55 186.484 80.6641C186.036 80.7784 185.644 81.0069 185.364 81.3497C185.084 81.6924 184.805 81.9781 184.525 82.3209C183.853 83.1206 183.182 84.0346 182.622 84.9488C182.062 85.8628 181.391 86.6625 180.663 87.4053C180.327 87.8051 180.104 88.2622 179.936 88.7191C179.768 89.1762 179.544 89.6904 179.32 90.0902C178.76 91.1186 178.256 92.1469 177.753 93.2323C177.249 94.3177 176.578 95.2888 175.738 96.1457C175.57 96.4314 175.402 96.7171 175.29 97.0026C175.178 97.3454 175.01 97.6311 174.843 97.9739C174.563 98.6022 174.451 99.2307 174.507 99.9162C174.563 100.545 174.395 101.173 174.171 101.744C174.003 101.916 173.835 102.144 173.835 102.373C173.723 103.058 173.667 103.744 173.667 104.429C173.667 105.115 173.611 105.857 173.555 106.657L173.387 107C172.884 107 172.38 106.943 171.876 106.829C171.373 106.6 170.925 106.2 170.757 105.629C169.973 104.144 169.414 102.487 169.19 100.773C168.966 99.0593 169.022 97.2883 169.302 95.5745C169.638 93.9178 170.029 92.3754 170.477 90.8329C170.925 89.2333 171.484 87.6908 172.1 86.1485C172.604 84.7774 173.275 83.4063 174.059 82.1495C174.843 80.8355 175.57 79.5216 176.186 78.1505C176.298 77.8648 176.466 77.5221 176.578 77.2365C176.745 76.8938 176.913 76.6081 177.137 76.3225C177.641 75.4656 178.089 74.6657 178.648 73.9231C179.208 73.1805 179.712 72.4379 180.271 71.6951C180.495 71.4666 180.663 71.1809 180.831 70.8954L181.167 70.1528C181.391 69.8671 181.615 69.5814 181.782 69.2386C181.95 68.9531 184.805 64.7827 185.029 64.497C185.868 64.897 186.316 65.2398 186.372 65.5253C186.428 65.811 183.573 70.0384 182.958 70.4955L182.454 71.0095C182.286 71.1238 182.23 71.2952 182.174 71.5237C182.006 72.0378 181.782 72.4949 181.391 72.8948C181.055 73.2946 180.719 73.6947 180.271 74.2088C180.104 74.3802 180.047 74.5516 179.992 74.7801C179.88 75.0085 179.712 75.237 179.488 75.4083C178.201 77.5221 176.801 79.5787 175.234 81.464C175.122 81.6354 175.01 81.8638 175.01 82.0923C175.01 82.3209 174.898 82.5494 174.787 82.7208C174.675 82.8351 174.619 82.9492 174.619 83.0635C174.619 83.1779 174.563 83.3492 174.451 83.4063C173.723 84.206 173.219 85.2343 173.052 86.3197C172.828 87.1196 172.548 87.8622 172.1 88.5478C171.652 89.2333 171.317 89.9759 170.981 90.7758C170.813 91.5184 170.645 92.261 170.477 93.0036C170.309 93.8035 170.365 94.6034 170.589 95.4031C170.701 95.2317 170.813 95.0603 170.925 94.8889C171.037 94.7175 171.149 94.5461 171.205 94.3747C171.484 93.7465 171.764 93.175 171.988 92.6611C172.212 92.1469 172.436 91.5755 172.604 91.0042C173.219 89.1762 173.947 87.4053 174.843 85.6914C175.682 84.0346 176.689 82.4351 177.865 80.9498C178.145 80.4927 178.424 79.9786 178.648 79.5216C178.872 79.0075 179.096 78.5504 179.376 78.0935C179.488 77.9792 179.6 77.8078 179.712 77.6935C179.824 77.5221 179.992 77.2936 180.103 77.1222C180.271 77.2365 182.286 74.9514 182.398 75.0658C182.51 75.1799 180.887 77.8078 181.167 77.9221C180.663 78.779 180.103 79.636 179.544 80.4357C178.928 81.2926 180.383 81.4069 181.111 80.4927C181.838 79.5787 182.342 78.4933 182.566 77.2936C182.622 77.0081 182.734 76.7794 182.902 76.551C184.021 75.7511 184.917 74.7801 185.7 73.6374C186.428 72.552 187.267 71.4666 188.162 70.4383C188.443 70.2098 188.666 69.9241 188.889 69.6386C189.114 69.2958 189.337 69.0101 189.617 68.7244C189.281 68.6103 189.058 68.4389 189.058 68.2104C189.058 67.9818 189.058 67.7533 189.058 67.5249C189.114 67.2962 189.114 67.0678 189.171 66.7821C189.227 66.4966 188.722 67.0678 188.443 66.8964C188.162 67.0107 188.274 66.3822 188.051 66.5536C187.826 66.725 187.603 66.8393 187.379 66.9535C187.323 66.9535 187.267 66.8964 187.211 66.8393L188.274 65.0684C188.61 64.497 189.002 63.9257 189.338 63.3545H189.673C189.729 63.583 189.786 63.8116 189.786 64.0401C189.786 64.2685 190.178 63.8116 190.234 64.1544C190.626 64.0971 190.682 64.6113 190.961 64.3828C191.241 64.1544 191.464 63.8687 191.689 63.583C191.912 63.2974 192.137 62.9547 192.36 62.6119C192.583 62.2691 192.921 62.0407 193.256 61.8693C193.367 62.3833 193.2 62.8974 192.864 63.2402C192.529 63.4688 192.248 63.7544 192.024 64.0401C191.856 64.3256 191.632 64.6684 191.464 65.0111C191.297 65.3539 191.017 65.7539 190.792 66.0967C191.297 66.2108 191.576 66.2109 191.745 66.0395C191.912 65.8681 192.081 65.6967 192.247 65.4682C192.639 64.8397 193.144 64.2685 193.648 63.7544C194.151 63.2402 194.655 62.669 195.103 62.0977C195.27 61.9263 195.439 61.812 195.662 61.755C195.887 61.6979 196.11 61.5836 196.277 61.4692C195.941 60.898 195.047 60.898 194.711 60.3268C194.878 60.2695 195.606 59.6412 195.774 59.5842C195.887 59.5269 196.054 59.4698 196.166 59.4698C196.502 59.4128 196.837 59.4128 197.173 59.4128C197.565 59.4698 197.957 59.4128 198.349 59.3555C199.02 59.1841 199.524 58.6129 199.581 57.9274C199.356 57.813 199.133 57.6989 198.853 57.5846L198.069 57.2418C198.236 57.0704 198.461 56.9563 198.684 56.899C198.907 56.842 199.132 56.7849 199.356 56.6706C199.581 56.6135 199.748 56.4421 199.86 56.2707C199.973 56.0421 200.027 55.8136 200.027 55.5279C200.363 55.5279 200.644 55.5852 200.979 55.6423C201.203 55.7566 201.482 55.6993 201.763 55.5852C201.986 55.4709 202.209 55.2424 202.322 55.014C202.491 54.7282 202.714 54.5569 202.993 54.3855C203.498 53.5856 204.056 52.9002 204.617 52.2147C205.176 51.5291 205.736 50.9007 206.295 50.2151C206.576 49.9866 206.743 49.7009 206.912 49.3582C207.022 49.0726 206.912 48.7299 206.633 48.33C206.408 48.1014 206.241 47.7586 206.241 47.4158C206.184 47.0731 206.128 46.7305 206.016 46.4448C205.793 45.8735 205.513 45.3021 205.121 44.7879V43.2456C204.84 43.1313 204.504 43.1884 204.338 43.3598C204.169 43.5884 203.946 43.8169 203.721 44.0453C203.61 44.1596 203.441 44.274 203.274 44.3881C203.106 44.4454 202.939 44.5595 202.826 44.7309C202.658 44.3881 202.491 44.0453 202.378 43.6455C202.209 43.017 202.434 42.3887 202.939 42.0459L204.169 40.7892C204.617 40.4464 204.786 39.8751 204.617 39.361C203.946 36.9616 203.329 34.5621 202.77 32.22C202.209 29.8778 201.538 27.5354 200.923 25.2503C200.587 23.7651 200.139 22.2226 199.635 20.7944C199.133 19.3662 198.684 17.8809 198.236 16.3956C198.013 15.5958 197.788 14.8532 197.565 14.1105C197.342 13.3679 197.117 12.6252 196.781 11.8254C196.446 11.0256 196.222 10.1116 195.997 9.25467C195.774 8.39775 195.382 7.54083 194.934 6.74106C194.376 6.05552 194.43 5.36999 194.991 4.57021C195.549 3.77042 196.279 3.02776 197.006 3.42766C197.229 3.25627 197.453 3.65617 197.621 3.48478L198.069 3.02776C198.516 2.57074 199.189 2.34223 199.86 2.51362C200.252 2.62786 200.7 2.68501 201.146 2.62786C201.538 2.62786 201.93 2.57074 202.378 2.51362C202.882 2.34223 203.385 2.45649 203.777 2.79925C204.056 3.08488 204.448 3.54191 204.952 4.05605C205.065 4.17032 205.232 4.28456 205.401 4.3417C206.576 4.57021 207.36 5.14148 207.696 5.9984C208.031 6.85532 208.367 7.71222 208.646 8.56914C209.038 9.65457 209.43 10.74 209.709 11.7111C209.989 12.7395 210.326 13.7677 210.606 14.7961V15.1388C210.606 16.567 210.829 17.9381 211.277 19.3092C211.725 20.623 212.117 21.9941 212.452 23.308C212.619 24.0508 212.788 24.6791 212.955 25.3076C213.124 25.9359 213.236 26.5073 213.347 27.1356L213.459 27.7068C213.516 27.8782 213.516 28.0496 213.572 28.221C213.739 28.5067 214.131 28.5637 214.691 28.3353C215.194 28.1068 215.642 27.8782 216.09 27.5354C216.259 27.307 216.426 27.0785 216.594 26.9071C216.761 26.6787 216.93 26.5073 217.153 26.3359C218.216 25.2503 219.279 24.2222 220.288 23.1938C221.351 22.1655 222.302 21.0229 223.142 19.8233C223.59 19.1949 224.093 18.5665 224.653 17.9952C225.212 17.4239 225.829 16.8526 226.444 16.3385L231.649 11.3684C233.439 9.71169 235.23 8.055 237.133 6.45542C237.973 5.65563 238.813 4.91297 239.597 4.17032C240.379 3.42766 241.275 2.68501 242.059 2.0566C242.843 1.37106 243.737 0.742659 244.746 0.342766C245.192 0.171383 245.64 0.0571277 246.144 0C246.649 0 247.095 0.171383 247.431 0.571277C247.823 0.856914 248.158 0.914041 248.439 0.685532C248.719 0.457021 249.054 0.457021 249.559 0.685532V1.25681C249.559 1.48532 250.061 1.71383 249.951 1.99947C250.286 2.11372 250.061 2.22798 250.397 2.34223C250.733 2.45649 251.07 2.57074 251.406 2.68501C251.741 2.79925 252.021 2.91352 252.3 3.08489C252.525 3.25627 252.579 3.54191 252.469 3.9418C252.469 4.17032 252.525 4.39883 252.636 4.57021C253.084 5.02724 253.363 5.5985 253.419 6.22691C253.309 7.19808 253.419 7.82649 253.532 8.45488ZM183.517 72.2665C183.405 71.9237 183.405 71.5809 183.461 71.2952C183.797 70.8383 184.189 70.4383 184.581 70.0955C184.749 70.724 184.693 71.1238 184.413 71.4095C184.133 71.6951 183.797 71.9808 183.517 72.2665ZM193.984 54.2712C194.263 54.2141 194.43 53.9856 194.486 53.6999C194.486 53.3571 194.43 52.9573 194.376 52.6145C195.326 51.4148 196.279 50.2151 197.229 49.0156C198.18 47.8159 199.189 46.5591 200.196 45.3021C200.363 45.0166 202.601 42.5028 202.77 42.3887C202.939 42.2744 203.274 42.3887 203.721 42.6742C203.385 43.017 200.979 45.7021 200.644 46.102C200.308 46.5018 199.916 46.8446 199.581 47.2444C199.748 47.3588 199.916 47.4731 200.027 47.5872C200.139 47.7015 200.252 47.8159 200.363 47.93C200.308 48.5014 199.972 48.7299 199.412 48.7299C198.572 48.6155 198.292 48.9013 198.628 49.6439C198.853 49.9296 198.797 50.3294 198.516 50.5579C198.516 50.5579 198.461 50.6151 198.405 50.6151C198.126 51.015 197.844 51.4148 197.565 51.7576C197.286 52.1004 197.006 52.3861 196.725 52.7288C196.614 52.843 196.502 52.9002 196.389 53.0144C196.279 53.0716 196.11 53.1858 196.054 53.3001C195.214 54.4425 194.376 55.5852 193.536 56.6706L190.905 60.0411C190.401 60.6123 189.954 61.2408 189.506 61.755C189.002 62.3262 188.61 63.0117 188.218 63.6402C187.883 64.3256 187.547 64.6684 187.211 64.6684C186.875 64.6684 186.372 64.4399 185.644 63.9257C186.819 62.2119 188.051 60.5552 189.281 58.8986C190.513 57.2418 191.745 55.5281 192.975 53.757C193.536 54.0427 193.815 54.2141 193.984 54.2712ZM187.491 69.0101C187.659 69.4672 187.547 69.9814 187.211 70.3812C186.875 70.724 186.484 71.0095 186.092 71.2952C186.316 70.8954 186.54 70.4955 186.819 70.0955C187.099 69.6957 187.211 69.3529 187.491 69.0101ZM191.074 61.8693C191.017 61.812 190.961 61.755 190.961 61.755C190.905 61.755 190.849 61.6979 190.849 61.6406C191.353 61.1265 191.856 60.6696 192.416 60.2695C192.304 60.6123 192.137 60.898 191.856 61.1265C191.632 61.4122 191.409 61.5836 191.074 61.8693ZM191.353 57.9844C191.409 57.8703 191.464 57.813 191.576 57.6989C191.464 57.5846 191.409 57.4705 191.409 57.4132C191.297 57.5275 191.241 57.5846 191.184 57.756C191.128 57.8703 191.074 57.9844 190.961 58.0987L191.128 58.2701C191.184 58.1558 191.297 58.0987 191.353 57.9844ZM192.529 60.1554C192.529 60.2125 192.529 60.2125 192.473 60.2695L192.529 60.1554ZM194.376 57.813C194.151 58.3272 193.871 58.7843 193.536 59.1841L192.583 60.1554C192.639 59.6412 192.752 59.1841 193.031 58.7272C193.312 58.2131 193.815 57.8703 194.376 57.813ZM194.768 56.9563C194.991 56.7276 195.214 56.4992 195.383 56.2707C195.439 56.2707 195.549 56.3849 195.662 56.5563C195.439 56.7276 195.214 57.0134 195.047 57.2991L194.768 56.9563ZM196.389 55.6993C196.279 55.1281 196.277 54.8426 196.333 54.7282C196.614 54.4998 196.894 54.2712 197.286 54.157C197.173 54.4425 197.006 54.6712 196.838 54.8996C196.669 55.1281 196.502 55.4138 196.389 55.6993ZM197.396 54.157L197.286 54.0427H197.396V54.157ZM197.342 54.157V54.0427L197.452 54.157H197.342ZM197.396 54.0427C197.396 53.6429 197.509 53.243 197.678 52.843C197.957 52.5002 198.405 52.2718 198.853 52.2718L197.396 54.0427ZM199.635 51.6433C199.524 51.1864 199.581 50.7293 199.747 50.3294C200.196 49.8723 200.7 49.4154 201.202 49.0156L201.371 49.1868C201.092 49.5295 200.811 49.9296 200.531 50.3294C200.252 50.7293 199.973 51.1293 199.635 51.6433ZM201.651 51.4719C202.042 51.5291 202.322 51.929 202.266 52.3288C202.266 52.3861 202.209 52.4431 202.209 52.5575C201.874 52.5002 201.651 52.3861 201.651 52.2147C201.594 51.929 201.594 51.7005 201.651 51.4719ZM203.61 49.4725C203.721 50.158 203.721 50.158 203.441 50.3294C203.162 50.5008 202.826 50.6151 202.547 50.7293C202.714 50.5008 202.883 50.2151 202.993 49.9866C203.218 49.7009 203.385 49.8153 203.61 49.4725ZM202.714 48.2728C202.547 47.8159 202.547 47.4731 202.77 47.3017C203.049 47.1303 203.385 47.0731 203.777 47.0731C203.554 47.1874 203.666 47.4731 203.497 47.6445C203.329 47.8159 202.939 48.0443 202.714 48.2728ZM216.034 64.8397C216.818 65.0684 216.986 63.3545 216.93 62.9547C216.874 62.5546 216.761 62.0977 216.649 61.6979C216.538 61.3551 216.482 60.9551 216.426 60.5552C216.313 59.7556 216.203 58.9557 216.034 58.1558C215.921 57.756 215.642 57.4132 215.306 57.1847C215.194 57.0704 215.139 56.9563 215.139 56.7849C215.139 56.6135 214.635 55.071 214.579 54.3855C214.466 54.157 214.356 53.9284 214.299 53.6429C214.187 53.4142 214.074 53.1858 213.964 52.9002C213.851 52.5575 213.739 52.1574 213.684 51.7576C213.628 51.3577 213.459 50.9579 213.347 50.5579C213.18 50.5579 213.011 50.5579 212.788 50.6722C212.509 51.4148 212.396 52.2718 212.452 53.0716C212.509 53.8713 212.676 54.6139 213.011 55.3567C213.236 56.0421 213.459 56.6706 213.684 57.2991C213.907 57.9844 214.074 58.67 214.187 59.3555C214.299 59.7556 214.522 60.1554 214.802 60.5552C215.698 61.0694 216.09 61.9834 215.978 63.2974V64.0971C215.921 64.2685 215.978 64.5542 216.034 64.8397ZM224.43 26.6787C225.324 25.9359 226.221 25.1362 227.004 24.2222C226.948 23.7651 226.779 23.3652 226.5 23.0225C225.381 23.8221 224.374 24.7363 223.365 25.7074C222.638 26.393 221.91 27.0785 221.182 27.8211L219.113 29.9348C218.608 30.3919 218.216 30.8489 217.937 31.2489C217.658 31.6487 217.266 32.0486 216.818 32.4484C216.651 32.7341 216.482 33.0198 216.369 33.2483C216.259 33.4767 216.313 33.7624 216.649 34.048C217.097 33.9338 217.489 33.7624 217.824 33.4767C218.16 33.1912 218.441 32.8484 218.721 32.5057L220.399 30.7918C220.511 30.6775 220.68 30.5633 220.847 30.3919C221.016 30.2776 221.183 30.1062 221.295 29.8778C221.631 29.1922 222.079 28.5637 222.694 28.0496C223.198 27.6497 223.813 27.1356 224.43 26.6787ZM216.259 39.3037C216.705 39.1323 217.601 37.8185 217.768 37.59C217.993 37.3614 218.106 37.0186 218.049 36.6758C217.768 36.8472 217.489 37.0186 217.266 37.2473C216.874 37.9328 216.594 38.6182 216.259 39.3037ZM217.824 69.2958C217.993 68.8958 217.993 68.5532 217.824 68.3246C217.657 68.0961 217.433 67.9247 217.209 67.7533C217.153 68.039 217.097 68.3246 217.097 68.6673C217.097 68.953 217.322 69.1815 217.824 69.2958ZM222.581 84.0348C221.854 82.378 221.182 80.7784 220.455 79.1218C219.727 77.465 218.777 75.9225 217.601 74.6087C217.824 75.4656 217.378 75.1799 217.322 76.0368C217.266 76.8938 219.225 79.4646 219.84 80.2643C220.119 80.55 220.344 80.9498 220.399 81.3497C220.455 81.7495 220.624 82.0923 220.903 82.4351C221.574 83.4634 221.574 83.9775 222.079 85.1202C222.581 86.2626 222.694 87.291 223.534 88.0908C223.757 88.3764 223.982 88.7191 224.149 89.0619C224.317 89.4047 224.484 89.6904 224.709 90.0332C224.989 90.376 225.158 90.7185 225.381 91.0613C225.604 91.4613 225.66 90.1473 225.324 89.7475C224.989 89.2904 224.709 88.7762 224.541 88.205C224.149 87.5194 223.813 86.8339 223.701 86.0342C223.534 85.2343 223.142 84.5488 222.581 84.0348ZM231.144 20.2232C231.201 20.1089 231.257 19.9375 231.257 19.8233C231.257 19.652 231.313 19.4806 231.369 19.3092C230.529 19.4233 229.746 19.8233 229.131 20.4516C228.459 21.0229 228.011 21.8227 227.842 22.6797C228.178 22.5654 228.514 22.3369 228.795 22.1085C229.187 21.8227 229.633 21.48 230.025 21.1372C230.417 20.7944 230.753 20.566 231.144 20.2232Z" fill="url(#paint0_linear_452_876)"/>
<defs>
<linearGradient id="paint0_linear_452_876" x1="247.114" y1="15.3798" x2="204.043" y2="57.5697" gradientUnits="userSpaceOnUse">
<stop stop-color="#12DEF6"/>
<stop offset="0.12" stop-color="#18E0FF"/>
<stop offset="0.29" stop-color="#2BD3FD"/>
<stop offset="0.49" stop-color="#4FBAFB"/>
<stop offset="0.72" stop-color="#8892F9"/>
<stop offset="0.96" stop-color="#E04EF1"/>
<stop offset="1" stop-color="#EF40EA"/>
</linearGradient>
</defs>
</svg>
