<svg width="22" height="18" viewBox="0 0 22 18" fill="none" xmlns="http://www.w3.org/2000/svg">
<path d="M18.636 1.4263C17.1933 0.751241 15.6669 0.271579 14.0973 0C13.9018 0.353461 13.6734 0.828867 13.5159 1.20708C11.8236 0.952617 10.1469 0.952617 8.48572 1.20708C8.32828 0.828953 8.0947 0.353461 7.89739 0C6.32628 0.271705 4.79862 0.752588 3.35516 1.42983C0.482791 5.77044 -0.295889 10.0031 0.093408 14.1759C1.99856 15.5986 3.84484 16.4629 5.66001 17.0284C6.11112 16.4081 6.5099 15.7513 6.85222 15.0648C6.20049 14.8167 5.5722 14.5109 4.97483 14.1512C5.13203 14.0346 5.28554 13.9132 5.43511 13.787C9.05497 15.4802 12.9882 15.4802 16.5649 13.787C16.7151 13.9124 16.8685 14.0338 17.0251 14.1512C16.4267 14.5119 15.7973 14.8183 15.1442 15.0666C15.4885 15.7559 15.8866 16.4133 16.3364 17.0301C18.1533 16.4647 20.0013 15.6004 21.9065 14.1759C22.3633 9.33865 21.1262 5.14473 18.636 1.42622V1.4263ZM7.34541 11.6097C6.25873 11.6097 5.36756 10.5952 5.36756 9.35988C5.36756 8.12453 6.23974 7.10832 7.34541 7.10832C8.45117 7.10832 9.34226 8.12272 9.32326 9.35988C9.32498 10.5952 8.45117 11.6097 7.34541 11.6097ZM14.6545 11.6097C13.5678 11.6097 12.6767 10.5952 12.6767 9.35988C12.6767 8.12453 13.5488 7.10832 14.6545 7.10832C15.7602 7.10832 16.6513 8.12272 16.6323 9.35988C16.6323 10.5952 15.7602 11.6097 14.6545 11.6097Z" fill="#55ACEE"/>
</svg>
