<svg width="662" height="388" viewBox="0 0 662 388" fill="none" xmlns="http://www.w3.org/2000/svg">
<circle cx="281.044" cy="141.491" r="118.232" fill="#429C0B"/>
<path d="M410.861 149.728C410.861 218.773 354.889 274.744 285.845 274.744C285.845 192.37 285.889 156.997 285.889 156.997C285.889 156.997 285.889 156.997 400.245 98.8499C410.861 121.14 410.861 137.13 410.861 149.728Z" fill="#E6A91C"/>
<path d="M410.861 149.728C410.861 218.773 354.889 274.744 285.845 274.744C285.845 192.37 285.889 156.997 285.889 156.997C285.889 156.997 285.889 156.997 400.245 98.8499C410.861 121.14 410.861 137.13 410.861 149.728Z" fill="#E6A91C"/>
<path d="M285.764 19.3823V98.0872C253.798 98.0872 227.878 124.006 227.878 155.973C227.878 187.941 253.798 210.783 285.764 210.783C306.502 209.562 310.117 204.483 316.901 200.607L363.903 259.238C357.119 265.053 335.799 285.889 288.057 285.889C214.599 285.889 155.059 226.339 155.059 152.89C155.059 79.4424 212.305 19.3823 285.764 19.3823Z" fill="url(#paint0_radial_1314_132)"/>
<path d="M286.074 14.5366V99.5571C256.051 99.9835 231.836 124.441 231.836 154.566C231.836 184.963 250.517 197.215 258.27 201.576L212.237 272.806C203.514 267.96 148.275 230.069 148.275 153.38C148.275 77.0555 209.872 15.1144 286.074 14.5366Z" fill="url(#paint1_radial_1314_132)"/>
<path d="M285.935 211.36C317.004 211.36 342.19 186.173 342.19 155.105C342.19 124.036 317.004 98.8499 285.935 98.8499C254.866 98.8499 229.68 124.036 229.68 155.105C229.68 186.173 254.866 211.36 285.935 211.36Z" fill="black"/>
<path opacity="0.72" d="M285.463 84.313C246.63 84.313 215.144 115.8 215.144 154.632C215.144 193.464 246.63 224.951 285.463 224.951C324.295 224.951 355.782 193.464 355.782 154.632C355.782 115.79 324.295 84.313 285.463 84.313ZM285.636 207.051C256.572 207.051 233.024 183.492 233.024 154.438C233.024 125.374 256.582 101.825 285.636 101.825C314.7 101.825 338.25 125.384 338.25 154.438C338.25 183.492 314.69 207.051 285.636 207.051Z" fill="#372054"/>
<path d="M6 277.85V276.148L14.7065 265.008H17.3319L8.69606 276.148L7.45947 275.762H21.062V277.85H6ZM15.4566 282.036V277.85L15.5274 275.762V272.063H17.8183V282.036H15.4566Z" fill="#FCFCFF"/>
<path d="M29.3984 282.119C28.0707 282.119 26.8848 281.774 25.8306 281.095C24.7866 280.417 23.9555 279.423 23.3473 278.126C22.7392 276.828 22.4351 275.257 22.4351 273.402C22.4351 271.557 22.7392 269.976 23.3473 268.679C23.9555 267.381 24.7866 266.388 25.8306 265.708C26.8747 265.03 28.0605 264.685 29.3984 264.685C30.7162 264.685 31.892 265.03 32.9461 265.708C34.0002 266.388 34.8314 267.381 35.4294 268.679C36.0274 269.976 36.3315 271.547 36.3315 273.402C36.3315 275.246 36.0274 276.828 35.4294 278.126C34.8314 279.423 34.0002 280.417 32.9461 281.095C31.892 281.774 30.7162 282.119 29.3984 282.119ZM29.3984 279.95C30.2904 279.95 31.0709 279.706 31.75 279.22C32.419 278.733 32.9461 278.004 33.3312 277.031C33.7164 276.058 33.8988 274.852 33.8988 273.402C33.8988 271.963 33.7063 270.747 33.3312 269.774C32.9461 268.801 32.419 268.07 31.75 267.584C31.081 267.097 30.2904 266.854 29.3984 266.854C28.5065 266.854 27.716 267.097 27.0368 267.584C26.3577 268.07 25.8205 268.801 25.4454 269.774C25.0603 270.747 24.8778 271.952 24.8778 273.402C24.8778 274.841 25.0705 276.058 25.4454 277.031C25.8306 278.004 26.3577 278.733 27.0368 279.22C27.716 279.706 28.5065 279.95 29.3984 279.95Z" fill="#FCFCFF"/>
<path d="M41.513 271.748C42.2229 271.748 42.9168 271.538 43.507 271.143C44.0973 270.749 44.5573 270.188 44.829 269.533C45.1006 268.877 45.1717 268.155 45.0332 267.459C44.8947 266.763 44.5529 266.123 44.0509 265.621C43.549 265.119 42.9095 264.777 42.2132 264.639C41.517 264.5 40.7953 264.572 40.1395 264.843C39.4837 265.115 38.9231 265.575 38.5287 266.165C38.1344 266.755 37.9239 267.449 37.9239 268.159C37.9239 269.111 38.302 270.024 38.9751 270.697C39.6482 271.37 40.5611 271.748 41.513 271.748V271.748ZM41.513 266.621C41.8172 266.621 42.1146 266.711 42.3676 266.88C42.6206 267.049 42.8177 267.289 42.9341 267.57C43.0506 267.852 43.081 268.161 43.0217 268.459C42.9623 268.758 42.8158 269.032 42.6007 269.247C42.3856 269.462 42.1115 269.608 41.8131 269.668C41.5147 269.727 41.2054 269.697 40.9244 269.58C40.6433 269.464 40.4031 269.267 40.234 269.014C40.065 268.761 39.9748 268.463 39.9748 268.159C39.9748 267.751 40.1369 267.36 40.4253 267.071C40.7138 266.783 41.1051 266.621 41.513 266.621V266.621ZM49.7168 274.825C49.0069 274.825 48.313 275.035 47.7228 275.43C47.1325 275.824 46.6725 276.385 46.4008 277.04C46.1292 277.696 46.0581 278.418 46.1966 279.114C46.3351 279.81 46.6769 280.45 47.1789 280.952C47.6808 281.454 48.3203 281.796 49.0166 281.934C49.7128 282.073 50.4345 282.001 51.0903 281.73C51.7461 281.458 52.3067 280.998 52.701 280.408C53.0954 279.818 53.3059 279.124 53.3059 278.414C53.3059 277.462 52.9278 276.549 52.2547 275.876C51.5816 275.203 50.6687 274.825 49.7168 274.825V274.825ZM49.7168 279.952C49.4126 279.952 49.1152 279.862 48.8622 279.693C48.6092 279.524 48.4121 279.284 48.2957 279.002C48.1792 278.721 48.1488 278.412 48.2081 278.114C48.2675 277.815 48.414 277.541 48.6291 277.326C48.8442 277.111 49.1183 276.965 49.4167 276.905C49.7151 276.846 50.0244 276.876 50.3054 276.993C50.5865 277.109 50.8267 277.306 50.9958 277.559C51.1648 277.812 51.255 278.11 51.255 278.414C51.255 278.822 51.0929 279.213 50.8045 279.502C50.516 279.79 50.1247 279.952 49.7168 279.952ZM53.552 264.837C53.4673 264.752 53.3666 264.684 53.2557 264.638C53.1449 264.592 53.026 264.569 52.906 264.569C52.786 264.569 52.6671 264.592 52.5563 264.638C52.4454 264.684 52.3447 264.752 52.2599 264.837L37.6778 279.419C37.5086 279.591 37.413 279.823 37.4111 280.065C37.4109 280.246 37.4642 280.422 37.5645 280.573C37.6648 280.723 37.8074 280.84 37.9744 280.909C38.1413 280.979 38.325 280.997 38.5022 280.961C38.6795 280.926 38.8422 280.839 38.9698 280.711L53.552 266.129C53.637 266.044 53.7044 265.943 53.7504 265.832C53.7964 265.722 53.8201 265.603 53.8201 265.483C53.8201 265.363 53.7964 265.244 53.7504 265.133C53.7044 265.022 53.637 264.921 53.552 264.837Z" fill="white"/>
<path d="M168.335 149.244V151.271L133.872 153.299L105.219 213L102.096 216.73L100.434 215.99L102.391 212.655L132.859 151.271L168.335 149.244Z" fill="white"/>
<path d="M100.536 225.213C104.678 225.213 108.037 221.855 108.037 217.712C108.037 213.57 104.678 210.212 100.536 210.212C96.3931 210.212 93.0352 213.57 93.0352 217.712C93.0352 221.855 96.3931 225.213 100.536 225.213Z" fill="white"/>
<path d="M14.6573 254.25C13.2907 254.25 12.0323 254.033 10.8823 253.6C9.74899 253.15 8.75732 252.525 7.90732 251.725C7.05732 250.908 6.39899 249.95 5.93232 248.85C5.46566 247.75 5.23232 246.55 5.23232 245.25C5.23232 243.95 5.46566 242.75 5.93232 241.65C6.39899 240.55 7.05732 239.6 7.90732 238.8C8.77399 237.983 9.78232 237.358 10.9323 236.925C12.0823 236.475 13.3407 236.25 14.7073 236.25C16.1907 236.25 17.524 236.492 18.7073 236.975C19.9073 237.458 20.9157 238.167 21.7323 239.1L19.6823 241.1C18.999 240.417 18.2573 239.917 17.4573 239.6C16.674 239.267 15.8073 239.1 14.8573 239.1C13.9407 239.1 13.0907 239.25 12.3073 239.55C11.524 239.85 10.849 240.275 10.2823 240.825C9.71566 241.375 9.27399 242.025 8.95732 242.775C8.65732 243.525 8.50732 244.35 8.50732 245.25C8.50732 246.133 8.65732 246.95 8.95732 247.7C9.27399 248.45 9.71566 249.108 10.2823 249.675C10.849 250.225 11.5157 250.65 12.2823 250.95C13.049 251.25 13.899 251.4 14.8323 251.4C15.699 251.4 16.5323 251.267 17.3323 251C18.149 250.717 18.924 250.25 19.6573 249.6L21.5073 252.025C20.5907 252.758 19.524 253.317 18.3073 253.7C17.1073 254.067 15.8907 254.25 14.6573 254.25ZM18.4323 251.6V245.05H21.5073V252.025L18.4323 251.6ZM32.2688 254.175C30.7855 254.175 29.4855 253.883 28.3688 253.3C27.2688 252.7 26.4105 251.883 25.7938 250.85C25.1938 249.817 24.8938 248.642 24.8938 247.325C24.8938 245.992 25.1855 244.817 25.7688 243.8C26.3688 242.767 27.1855 241.958 28.2188 241.375C29.2688 240.792 30.4605 240.5 31.7938 240.5C33.0938 240.5 34.2522 240.783 35.2688 241.35C36.2855 241.917 37.0855 242.717 37.6688 243.75C38.2522 244.783 38.5438 246 38.5438 247.4C38.5438 247.533 38.5355 247.683 38.5188 247.85C38.5188 248.017 38.5105 248.175 38.4938 248.325H27.3688V246.25H36.8438L35.6188 246.9C35.6355 246.133 35.4772 245.458 35.1438 244.875C34.8105 244.292 34.3522 243.833 33.7688 243.5C33.2022 243.167 32.5438 243 31.7938 243C31.0272 243 30.3522 243.167 29.7688 243.5C29.2022 243.833 28.7522 244.3 28.4188 244.9C28.1022 245.483 27.9438 246.175 27.9438 246.975V247.475C27.9438 248.275 28.1272 248.983 28.4938 249.6C28.8605 250.217 29.3772 250.692 30.0438 251.025C30.7105 251.358 31.4772 251.525 32.3438 251.525C33.0938 251.525 33.7688 251.408 34.3688 251.175C34.9688 250.942 35.5022 250.575 35.9688 250.075L37.6438 252C37.0438 252.7 36.2855 253.242 35.3688 253.625C34.4688 253.992 33.4355 254.175 32.2688 254.175ZM49.6206 240.5C50.6873 240.5 51.6373 240.708 52.4706 241.125C53.3206 241.542 53.9873 242.183 54.4706 243.05C54.9539 243.9 55.1956 245 55.1956 246.35V254H52.0706V246.75C52.0706 245.567 51.7873 244.683 51.2206 244.1C50.6706 243.517 49.8956 243.225 48.8956 243.225C48.1623 243.225 47.5123 243.375 46.9456 243.675C46.3789 243.975 45.9373 244.425 45.6206 245.025C45.3206 245.608 45.1706 246.35 45.1706 247.25V254H42.0456V240.65H45.0206V244.25L44.4956 243.15C44.9623 242.3 45.6373 241.65 46.5206 241.2C47.4206 240.733 48.4539 240.5 49.6206 240.5ZM65.9593 254.175C64.4759 254.175 63.1759 253.883 62.0593 253.3C60.9593 252.7 60.1009 251.883 59.4843 250.85C58.8843 249.817 58.5843 248.642 58.5843 247.325C58.5843 245.992 58.8759 244.817 59.4593 243.8C60.0593 242.767 60.8759 241.958 61.9093 241.375C62.9593 240.792 64.1509 240.5 65.4843 240.5C66.7843 240.5 67.9426 240.783 68.9593 241.35C69.9759 241.917 70.7759 242.717 71.3593 243.75C71.9426 244.783 72.2343 246 72.2343 247.4C72.2343 247.533 72.2259 247.683 72.2093 247.85C72.2093 248.017 72.2009 248.175 72.1843 248.325H61.0593V246.25H70.5343L69.3093 246.9C69.3259 246.133 69.1676 245.458 68.8343 244.875C68.5009 244.292 68.0426 243.833 67.4593 243.5C66.8926 243.167 66.2343 243 65.4843 243C64.7176 243 64.0426 243.167 63.4593 243.5C62.8926 243.833 62.4426 244.3 62.1093 244.9C61.7926 245.483 61.6343 246.175 61.6343 246.975V247.475C61.6343 248.275 61.8176 248.983 62.1843 249.6C62.5509 250.217 63.0676 250.692 63.7343 251.025C64.4009 251.358 65.1676 251.525 66.0343 251.525C66.7843 251.525 67.4593 251.408 68.0593 251.175C68.6593 250.942 69.1926 250.575 69.6593 250.075L71.3343 252C70.7343 252.7 69.9759 253.242 69.0593 253.625C68.1593 253.992 67.1259 254.175 65.9593 254.175ZM79.861 254.175C78.7444 254.175 77.6694 254.033 76.636 253.75C75.6194 253.45 74.811 253.092 74.211 252.675L75.411 250.3C76.011 250.683 76.7277 251 77.561 251.25C78.3944 251.5 79.2277 251.625 80.061 251.625C81.0444 251.625 81.7527 251.492 82.186 251.225C82.636 250.958 82.861 250.6 82.861 250.15C82.861 249.783 82.711 249.508 82.411 249.325C82.111 249.125 81.7194 248.975 81.236 248.875C80.7527 248.775 80.211 248.683 79.611 248.6C79.0277 248.517 78.436 248.408 77.836 248.275C77.2527 248.125 76.7194 247.917 76.236 247.65C75.7527 247.367 75.361 246.992 75.061 246.525C74.761 246.058 74.611 245.442 74.611 244.675C74.611 243.825 74.8527 243.092 75.336 242.475C75.8194 241.842 76.4944 241.358 77.361 241.025C78.2444 240.675 79.286 240.5 80.486 240.5C81.386 240.5 82.2944 240.6 83.211 240.8C84.1277 241 84.886 241.283 85.486 241.65L84.286 244.025C83.6527 243.642 83.011 243.383 82.361 243.25C81.7277 243.1 81.0944 243.025 80.461 243.025C79.511 243.025 78.8027 243.167 78.336 243.45C77.886 243.733 77.661 244.092 77.661 244.525C77.661 244.925 77.811 245.225 78.111 245.425C78.411 245.625 78.8027 245.783 79.286 245.9C79.7694 246.017 80.3027 246.117 80.886 246.2C81.486 246.267 82.0777 246.375 82.661 246.525C83.2444 246.675 83.7777 246.883 84.261 247.15C84.761 247.4 85.161 247.758 85.461 248.225C85.761 248.692 85.911 249.3 85.911 250.05C85.911 250.883 85.661 251.608 85.161 252.225C84.6777 252.842 83.986 253.325 83.086 253.675C82.186 254.008 81.111 254.175 79.861 254.175ZM89.1022 254V240.65H92.2272V254H89.1022ZM90.6772 238.45C90.0939 238.45 89.6106 238.267 89.2272 237.9C88.8606 237.533 88.6772 237.092 88.6772 236.575C88.6772 236.042 88.8606 235.6 89.2272 235.25C89.6106 234.883 90.0939 234.7 90.6772 234.7C91.2606 234.7 91.7356 234.875 92.1022 235.225C92.4856 235.558 92.6772 235.983 92.6772 236.5C92.6772 237.05 92.4939 237.517 92.1272 237.9C91.7606 238.267 91.2772 238.45 90.6772 238.45ZM100.954 254.175C99.8371 254.175 98.7621 254.033 97.7288 253.75C96.7121 253.45 95.9038 253.092 95.3038 252.675L96.5038 250.3C97.1038 250.683 97.8205 251 98.6538 251.25C99.4871 251.5 100.32 251.625 101.154 251.625C102.137 251.625 102.845 251.492 103.279 251.225C103.729 250.958 103.954 250.6 103.954 250.15C103.954 249.783 103.804 249.508 103.504 249.325C103.204 249.125 102.812 248.975 102.329 248.875C101.845 248.775 101.304 248.683 100.704 248.6C100.12 248.517 99.5288 248.408 98.9288 248.275C98.3455 248.125 97.8121 247.917 97.3288 247.65C96.8455 247.367 96.4538 246.992 96.1538 246.525C95.8538 246.058 95.7038 245.442 95.7038 244.675C95.7038 243.825 95.9455 243.092 96.4288 242.475C96.9121 241.842 97.5871 241.358 98.4538 241.025C99.3371 240.675 100.379 240.5 101.579 240.5C102.479 240.5 103.387 240.6 104.304 240.8C105.22 241 105.979 241.283 106.579 241.65L105.379 244.025C104.745 243.642 104.104 243.383 103.454 243.25C102.82 243.1 102.187 243.025 101.554 243.025C100.604 243.025 99.8955 243.167 99.4288 243.45C98.9788 243.733 98.7538 244.092 98.7538 244.525C98.7538 244.925 98.9038 245.225 99.2038 245.425C99.5038 245.625 99.8955 245.783 100.379 245.9C100.862 246.017 101.395 246.117 101.979 246.2C102.579 246.267 103.17 246.375 103.754 246.525C104.337 246.675 104.87 246.883 105.354 247.15C105.854 247.4 106.254 247.758 106.554 248.225C106.854 248.692 107.004 249.3 107.004 250.05C107.004 250.883 106.754 251.608 106.254 252.225C105.77 252.842 105.079 253.325 104.179 253.675C103.279 254.008 102.204 254.175 100.954 254.175ZM117.904 254V236.5H120.579L128.229 249.275H126.829L134.354 236.5H137.029L137.054 254H133.979L133.954 241.325H134.604L128.204 252H126.754L120.254 241.325H121.004V254H117.904ZM141.981 254V240.65H145.106V254H141.981ZM143.556 238.45C142.973 238.45 142.489 238.267 142.106 237.9C141.739 237.533 141.556 237.092 141.556 236.575C141.556 236.042 141.739 235.6 142.106 235.25C142.489 234.883 142.973 234.7 143.556 234.7C144.139 234.7 144.614 234.875 144.981 235.225C145.364 235.558 145.556 235.983 145.556 236.5C145.556 237.05 145.373 237.517 145.006 237.9C144.639 238.267 144.156 238.45 143.556 238.45ZM157.283 240.5C158.349 240.5 159.299 240.708 160.133 241.125C160.983 241.542 161.649 242.183 162.133 243.05C162.616 243.9 162.858 245 162.858 246.35V254H159.733V246.75C159.733 245.567 159.449 244.683 158.883 244.1C158.333 243.517 157.558 243.225 156.558 243.225C155.824 243.225 155.174 243.375 154.608 243.675C154.041 243.975 153.599 244.425 153.283 245.025C152.983 245.608 152.833 246.35 152.833 247.25V254H149.708V240.65H152.683V244.25L152.158 243.15C152.624 242.3 153.299 241.65 154.183 241.2C155.083 240.733 156.116 240.5 157.283 240.5ZM172.347 254.175C170.88 254.175 169.747 253.8 168.947 253.05C168.147 252.283 167.747 251.158 167.747 249.675V237.7H170.872V249.6C170.872 250.233 171.03 250.725 171.347 251.075C171.68 251.425 172.139 251.6 172.722 251.6C173.422 251.6 174.005 251.417 174.472 251.05L175.347 253.275C174.98 253.575 174.53 253.8 173.997 253.95C173.464 254.1 172.914 254.175 172.347 254.175ZM165.547 243.25V240.75H174.447V243.25H165.547Z" fill="white"/>
<path d="M326.78 386.636C326.78 387.325 326.221 387.884 325.532 387.884H315.55C315.301 387.884 315.057 387.809 314.851 387.67C314.644 387.53 314.484 387.332 314.392 387.1C314.299 386.869 314.278 386.616 314.331 386.372C314.383 386.129 314.508 385.907 314.688 385.734L322.237 378.517C323.46 377.34 323.561 375.397 322.464 374.095C321.882 373.405 321.065 372.998 320.164 372.949C319.27 372.903 318.408 373.218 317.754 373.842L316.389 375.082C315.879 375.546 315.089 375.507 314.627 374.997C314.163 374.489 314.201 373.698 314.711 373.234L316.054 372.013C317.172 370.947 318.721 370.371 320.301 370.458C321.873 370.543 323.357 371.283 324.372 372.487C326.313 374.79 326.134 378.231 323.964 380.317L318.661 385.386H325.532C326.223 385.388 326.78 385.946 326.78 386.636V386.636Z" fill="white"/>
<path d="M335.763 388C334.435 388 333.249 387.655 332.195 386.976C331.151 386.298 330.32 385.304 329.712 384.007C329.103 382.709 328.799 381.138 328.799 379.283C328.799 377.438 329.103 375.857 329.712 374.56C330.32 373.262 331.151 372.269 332.195 371.589C333.239 370.911 334.425 370.566 335.763 370.566C337.08 370.566 338.256 370.911 339.31 371.589C340.364 372.269 341.196 373.262 341.794 374.56C342.392 375.857 342.696 377.428 342.696 379.283C342.696 381.127 342.392 382.709 341.794 384.007C341.196 385.304 340.364 386.298 339.31 386.976C338.256 387.655 337.08 388 335.763 388ZM335.763 385.83C336.655 385.83 337.435 385.587 338.114 385.101C338.783 384.614 339.31 383.884 339.695 382.911C340.081 381.939 340.263 380.733 340.263 379.283C340.263 377.844 340.071 376.628 339.695 375.655C339.31 374.682 338.783 373.951 338.114 373.465C337.445 372.978 336.655 372.735 335.763 372.735C334.871 372.735 334.08 372.978 333.401 373.465C332.722 373.951 332.185 374.682 331.81 375.655C331.425 376.628 331.242 377.833 331.242 379.283C331.242 380.722 331.435 381.939 331.81 382.911C332.195 383.884 332.722 384.614 333.401 385.101C334.08 385.587 334.871 385.83 335.763 385.83Z" fill="#FCFCFF"/>
<path d="M347.877 377.629C348.587 377.629 349.281 377.419 349.871 377.024C350.461 376.63 350.921 376.069 351.193 375.414C351.464 374.758 351.535 374.036 351.397 373.34C351.258 372.644 350.917 372.004 350.415 371.502C349.913 371 349.273 370.658 348.577 370.52C347.881 370.381 347.159 370.452 346.503 370.724C345.847 370.996 345.287 371.456 344.893 372.046C344.498 372.636 344.288 373.33 344.288 374.04C344.288 374.992 344.666 375.905 345.339 376.578C346.012 377.251 346.925 377.629 347.877 377.629V377.629ZM347.877 372.502C348.181 372.502 348.478 372.592 348.731 372.761C348.984 372.93 349.181 373.17 349.298 373.451C349.414 373.732 349.445 374.042 349.385 374.34C349.326 374.638 349.18 374.913 348.964 375.128C348.749 375.343 348.475 375.489 348.177 375.549C347.878 375.608 347.569 375.578 347.288 375.461C347.007 375.345 346.767 375.148 346.598 374.895C346.429 374.642 346.339 374.344 346.339 374.04C346.339 373.632 346.501 373.241 346.789 372.952C347.078 372.664 347.469 372.502 347.877 372.502V372.502ZM356.081 380.706C355.371 380.706 354.677 380.916 354.087 381.31C353.496 381.705 353.036 382.265 352.765 382.921C352.493 383.577 352.422 384.299 352.56 384.995C352.699 385.691 353.041 386.331 353.543 386.833C354.045 387.335 354.684 387.676 355.38 387.815C356.077 387.953 356.798 387.882 357.454 387.611C358.11 387.339 358.67 386.879 359.065 386.289C359.459 385.698 359.67 385.005 359.67 384.295C359.67 383.343 359.292 382.43 358.618 381.757C357.945 381.084 357.032 380.706 356.081 380.706V380.706ZM356.081 385.833C355.776 385.833 355.479 385.743 355.226 385.574C354.973 385.405 354.776 385.164 354.659 384.883C354.543 384.602 354.513 384.293 354.572 383.995C354.631 383.696 354.778 383.422 354.993 383.207C355.208 382.992 355.482 382.845 355.78 382.786C356.079 382.727 356.388 382.757 356.669 382.874C356.95 382.99 357.191 383.187 357.36 383.44C357.529 383.693 357.619 383.99 357.619 384.295C357.619 384.703 357.457 385.094 357.168 385.382C356.88 385.671 356.489 385.833 356.081 385.833ZM359.916 370.717C359.831 370.633 359.73 370.565 359.619 370.519C359.509 370.473 359.39 370.449 359.27 370.449C359.15 370.449 359.031 370.473 358.92 370.519C358.809 370.565 358.708 370.633 358.624 370.717L344.042 385.3C343.872 385.472 343.777 385.704 343.775 385.946C343.775 386.126 343.828 386.303 343.928 386.453C344.029 386.604 344.171 386.721 344.338 386.79C344.505 386.859 344.689 386.877 344.866 386.842C345.043 386.807 345.206 386.72 345.334 386.592L359.916 372.01C360.001 371.925 360.068 371.824 360.114 371.713C360.16 371.602 360.184 371.484 360.184 371.364C360.184 371.243 360.16 371.125 360.114 371.014C360.068 370.903 360.001 370.802 359.916 370.717Z" fill="white"/>
<path d="M310 257V259.027L344.463 261.055L373.117 320.756L376.239 324.486L377.901 323.746L375.945 320.411L345.477 259.027L310 257Z" fill="white"/>
<path d="M377.799 332.969C373.657 332.969 370.298 329.611 370.298 325.468C370.298 321.326 373.657 317.968 377.799 317.968C381.942 317.968 385.3 321.326 385.3 325.468C385.3 329.611 381.942 332.969 377.799 332.969Z" fill="white"/>
<path d="M321.46 359.25C320.093 359.25 318.785 359.059 317.535 358.675C316.285 358.275 315.293 357.767 314.56 357.15L315.685 354.625C316.385 355.175 317.252 355.634 318.285 356C319.318 356.367 320.377 356.55 321.46 356.55C322.377 356.55 323.118 356.45 323.685 356.25C324.252 356.05 324.668 355.784 324.935 355.45C325.202 355.1 325.335 354.709 325.335 354.275C325.335 353.742 325.143 353.317 324.76 353C324.377 352.667 323.877 352.409 323.26 352.225C322.66 352.025 321.985 351.842 321.235 351.675C320.502 351.509 319.76 351.317 319.01 351.1C318.277 350.867 317.602 350.575 316.985 350.225C316.385 349.859 315.893 349.375 315.51 348.775C315.127 348.175 314.935 347.409 314.935 346.475C314.935 345.525 315.185 344.659 315.685 343.875C316.202 343.075 316.977 342.442 318.01 341.975C319.06 341.492 320.385 341.25 321.985 341.25C323.035 341.25 324.077 341.384 325.11 341.65C326.143 341.917 327.043 342.3 327.81 342.8L326.785 345.325C326.002 344.859 325.193 344.517 324.36 344.3C323.527 344.067 322.727 343.95 321.96 343.95C321.06 343.95 320.327 344.059 319.76 344.275C319.21 344.492 318.802 344.775 318.535 345.125C318.285 345.475 318.16 345.875 318.16 346.325C318.16 346.859 318.343 347.292 318.71 347.625C319.093 347.942 319.585 348.192 320.185 348.375C320.802 348.559 321.485 348.742 322.235 348.925C322.985 349.092 323.727 349.284 324.46 349.5C325.21 349.717 325.885 350 326.485 350.35C327.102 350.7 327.593 351.175 327.96 351.775C328.343 352.375 328.535 353.134 328.535 354.05C328.535 354.984 328.277 355.85 327.76 356.65C327.26 357.434 326.485 358.067 325.435 358.55C324.385 359.017 323.06 359.25 321.46 359.25ZM336.983 359.175C335.516 359.175 334.383 358.8 333.583 358.05C332.783 357.284 332.383 356.159 332.383 354.675V342.7H335.508V354.6C335.508 355.234 335.666 355.725 335.983 356.075C336.316 356.425 336.774 356.6 337.358 356.6C338.058 356.6 338.641 356.417 339.108 356.05L339.983 358.275C339.616 358.575 339.166 358.8 338.633 358.95C338.099 359.1 337.549 359.175 336.983 359.175ZM330.183 348.25V345.75H339.083V348.25H330.183ZM343.053 359V345.65H346.028V349.325L345.678 348.25C346.078 347.35 346.703 346.667 347.553 346.2C348.42 345.734 349.495 345.5 350.778 345.5V348.475C350.645 348.442 350.52 348.425 350.403 348.425C350.287 348.409 350.17 348.4 350.053 348.4C348.87 348.4 347.928 348.75 347.228 349.45C346.528 350.134 346.178 351.159 346.178 352.525V359H343.053ZM361.202 359V356.3L361.027 355.725V351C361.027 350.084 360.752 349.375 360.202 348.875C359.652 348.359 358.819 348.1 357.702 348.1C356.952 348.1 356.211 348.217 355.477 348.45C354.761 348.684 354.152 349.009 353.652 349.425L352.427 347.15C353.144 346.6 353.994 346.192 354.977 345.925C355.977 345.642 357.011 345.5 358.077 345.5C360.011 345.5 361.502 345.967 362.552 346.9C363.619 347.817 364.152 349.242 364.152 351.175V359H361.202ZM357.002 359.175C356.002 359.175 355.127 359.009 354.377 358.675C353.627 358.325 353.044 357.85 352.627 357.25C352.227 356.634 352.027 355.942 352.027 355.175C352.027 354.425 352.202 353.75 352.552 353.15C352.919 352.55 353.511 352.075 354.327 351.725C355.144 351.375 356.227 351.2 357.577 351.2H361.452V353.275H357.802C356.736 353.275 356.019 353.45 355.652 353.8C355.286 354.134 355.102 354.55 355.102 355.05C355.102 355.617 355.327 356.067 355.777 356.4C356.227 356.734 356.852 356.9 357.652 356.9C358.419 356.9 359.102 356.725 359.702 356.375C360.319 356.025 360.761 355.509 361.027 354.825L361.552 356.7C361.252 357.484 360.711 358.092 359.927 358.525C359.161 358.959 358.186 359.175 357.002 359.175ZM373.688 359.175C372.221 359.175 371.088 358.8 370.288 358.05C369.488 357.284 369.088 356.159 369.088 354.675V342.7H372.213V354.6C372.213 355.234 372.371 355.725 372.688 356.075C373.021 356.425 373.479 356.6 374.063 356.6C374.763 356.6 375.346 356.417 375.813 356.05L376.688 358.275C376.321 358.575 375.871 358.8 375.338 358.95C374.804 359.1 374.254 359.175 373.688 359.175ZM366.888 348.25V345.75H375.788V348.25H366.888ZM385.594 359.175C384.111 359.175 382.811 358.884 381.694 358.3C380.594 357.7 379.736 356.884 379.119 355.85C378.519 354.817 378.219 353.642 378.219 352.325C378.219 350.992 378.511 349.817 379.094 348.8C379.694 347.767 380.511 346.959 381.544 346.375C382.594 345.792 383.786 345.5 385.119 345.5C386.419 345.5 387.577 345.784 388.594 346.35C389.611 346.917 390.411 347.717 390.994 348.75C391.577 349.784 391.869 351 391.869 352.4C391.869 352.534 391.861 352.684 391.844 352.85C391.844 353.017 391.836 353.175 391.819 353.325H380.694V351.25H390.169L388.944 351.9C388.961 351.134 388.802 350.459 388.469 349.875C388.136 349.292 387.677 348.834 387.094 348.5C386.527 348.167 385.869 348 385.119 348C384.352 348 383.677 348.167 383.094 348.5C382.527 348.834 382.077 349.3 381.744 349.9C381.427 350.484 381.269 351.175 381.269 351.975V352.475C381.269 353.275 381.452 353.984 381.819 354.6C382.186 355.217 382.702 355.692 383.369 356.025C384.036 356.359 384.802 356.525 385.669 356.525C386.419 356.525 387.094 356.409 387.694 356.175C388.294 355.942 388.827 355.575 389.294 355.075L390.969 357C390.369 357.7 389.611 358.242 388.694 358.625C387.794 358.992 386.761 359.175 385.594 359.175ZM401.421 364.025C400.187 364.025 398.979 363.859 397.796 363.525C396.629 363.209 395.671 362.742 394.921 362.125L396.321 359.775C396.904 360.259 397.637 360.642 398.521 360.925C399.421 361.225 400.329 361.375 401.246 361.375C402.712 361.375 403.787 361.034 404.471 360.35C405.154 359.684 405.496 358.675 405.496 357.325V354.95L405.746 351.925L405.646 348.9V345.65H408.621V356.975C408.621 359.392 408.004 361.167 406.771 362.3C405.537 363.45 403.754 364.025 401.421 364.025ZM401.021 358.4C399.754 358.4 398.604 358.134 397.571 357.6C396.554 357.05 395.746 356.292 395.146 355.325C394.562 354.359 394.271 353.225 394.271 351.925C394.271 350.642 394.562 349.517 395.146 348.55C395.746 347.584 396.554 346.834 397.571 346.3C398.604 345.767 399.754 345.5 401.021 345.5C402.154 345.5 403.171 345.725 404.071 346.175C404.971 346.625 405.687 347.325 406.221 348.275C406.771 349.225 407.046 350.442 407.046 351.925C407.046 353.409 406.771 354.634 406.221 355.6C405.687 356.55 404.971 357.259 404.071 357.725C403.171 358.175 402.154 358.4 401.021 358.4ZM401.496 355.75C402.279 355.75 402.979 355.592 403.596 355.275C404.212 354.942 404.687 354.492 405.021 353.925C405.371 353.342 405.546 352.675 405.546 351.925C405.546 351.175 405.371 350.517 405.021 349.95C404.687 349.367 404.212 348.925 403.596 348.625C402.979 348.309 402.279 348.15 401.496 348.15C400.712 348.15 400.004 348.309 399.371 348.625C398.754 348.925 398.271 349.367 397.921 349.95C397.587 350.517 397.421 351.175 397.421 351.925C397.421 352.675 397.587 353.342 397.921 353.925C398.271 354.492 398.754 354.942 399.371 355.275C400.004 355.592 400.712 355.75 401.496 355.75ZM413.229 359V345.65H416.354V359H413.229ZM414.804 343.45C414.221 343.45 413.738 343.267 413.354 342.9C412.988 342.534 412.804 342.092 412.804 341.575C412.804 341.042 412.988 340.6 413.354 340.25C413.738 339.884 414.221 339.7 414.804 339.7C415.388 339.7 415.863 339.875 416.229 340.225C416.613 340.559 416.804 340.984 416.804 341.5C416.804 342.05 416.621 342.517 416.254 342.9C415.888 343.267 415.404 343.45 414.804 343.45ZM427.081 359.175C425.681 359.175 424.431 358.884 423.331 358.3C422.247 357.7 421.397 356.884 420.781 355.85C420.164 354.817 419.856 353.642 419.856 352.325C419.856 350.992 420.164 349.817 420.781 348.8C421.397 347.767 422.247 346.959 423.331 346.375C424.431 345.792 425.681 345.5 427.081 345.5C428.381 345.5 429.522 345.767 430.506 346.3C431.506 346.817 432.264 347.584 432.781 348.6L430.381 350C429.981 349.367 429.489 348.9 428.906 348.6C428.339 348.3 427.722 348.15 427.056 348.15C426.289 348.15 425.597 348.317 424.981 348.65C424.364 348.984 423.881 349.467 423.531 350.1C423.181 350.717 423.006 351.459 423.006 352.325C423.006 353.192 423.181 353.942 423.531 354.575C423.881 355.192 424.364 355.667 424.981 356C425.597 356.334 426.289 356.5 427.056 356.5C427.722 356.5 428.339 356.35 428.906 356.05C429.489 355.75 429.981 355.284 430.381 354.65L432.781 356.05C432.264 357.05 431.506 357.825 430.506 358.375C429.522 358.909 428.381 359.175 427.081 359.175ZM443.691 359V341.5H450.891C452.441 341.5 453.766 341.75 454.866 342.25C455.983 342.75 456.841 343.467 457.441 344.4C458.041 345.334 458.341 346.442 458.341 347.725C458.341 349.009 458.041 350.117 457.441 351.05C456.841 351.984 455.983 352.7 454.866 353.2C453.766 353.7 452.441 353.95 450.891 353.95H445.491L446.941 352.425V359H443.691ZM446.941 352.775L445.491 351.2H450.741C452.175 351.2 453.25 350.9 453.966 350.3C454.7 349.684 455.066 348.825 455.066 347.725C455.066 346.609 454.7 345.75 453.966 345.15C453.25 344.55 452.175 344.25 450.741 344.25H445.491L446.941 342.65V352.775ZM469.89 359V356.3L469.715 355.725V351C469.715 350.084 469.44 349.375 468.89 348.875C468.34 348.359 467.506 348.1 466.39 348.1C465.64 348.1 464.898 348.217 464.165 348.45C463.448 348.684 462.84 349.009 462.34 349.425L461.115 347.15C461.831 346.6 462.681 346.192 463.665 345.925C464.665 345.642 465.698 345.5 466.765 345.5C468.698 345.5 470.19 345.967 471.24 346.9C472.306 347.817 472.84 349.242 472.84 351.175V359H469.89ZM465.69 359.175C464.69 359.175 463.815 359.009 463.065 358.675C462.315 358.325 461.731 357.85 461.315 357.25C460.915 356.634 460.715 355.942 460.715 355.175C460.715 354.425 460.89 353.75 461.24 353.15C461.606 352.55 462.198 352.075 463.015 351.725C463.831 351.375 464.915 351.2 466.265 351.2H470.14V353.275H466.49C465.423 353.275 464.706 353.45 464.34 353.8C463.973 354.134 463.79 354.55 463.79 355.05C463.79 355.617 464.015 356.067 464.465 356.4C464.915 356.734 465.54 356.9 466.34 356.9C467.106 356.9 467.79 356.725 468.39 356.375C469.006 356.025 469.448 355.509 469.715 354.825L470.24 356.7C469.94 357.484 469.398 358.092 468.615 358.525C467.848 358.959 466.873 359.175 465.69 359.175ZM477.35 359V345.65H480.325V349.325L479.975 348.25C480.375 347.35 481 346.667 481.85 346.2C482.717 345.734 483.792 345.5 485.075 345.5V348.475C484.942 348.442 484.817 348.425 484.7 348.425C484.584 348.409 484.467 348.4 484.35 348.4C483.167 348.4 482.225 348.75 481.525 349.45C480.825 350.134 480.475 351.159 480.475 352.525V359H477.35ZM493.74 359.175C492.273 359.175 491.14 358.8 490.34 358.05C489.54 357.284 489.14 356.159 489.14 354.675V342.7H492.265V354.6C492.265 355.234 492.423 355.725 492.74 356.075C493.073 356.425 493.531 356.6 494.115 356.6C494.815 356.6 495.398 356.417 495.865 356.05L496.74 358.275C496.373 358.575 495.923 358.8 495.39 358.95C494.856 359.1 494.306 359.175 493.74 359.175ZM486.94 348.25V345.75H495.84V348.25H486.94ZM507.385 345.5C508.452 345.5 509.402 345.709 510.235 346.125C511.085 346.542 511.752 347.184 512.235 348.05C512.719 348.9 512.96 350 512.96 351.35V359H509.835V351.75C509.835 350.567 509.552 349.684 508.985 349.1C508.435 348.517 507.66 348.225 506.66 348.225C505.927 348.225 505.277 348.375 504.71 348.675C504.144 348.975 503.702 349.425 503.385 350.025C503.085 350.609 502.935 351.35 502.935 352.25V359H499.81V345.65H502.785V349.25L502.26 348.15C502.727 347.3 503.402 346.65 504.285 346.2C505.185 345.734 506.219 345.5 507.385 345.5ZM523.724 359.175C522.241 359.175 520.941 358.884 519.824 358.3C518.724 357.7 517.866 356.884 517.249 355.85C516.649 354.817 516.349 353.642 516.349 352.325C516.349 350.992 516.641 349.817 517.224 348.8C517.824 347.767 518.641 346.959 519.674 346.375C520.724 345.792 521.916 345.5 523.249 345.5C524.549 345.5 525.707 345.784 526.724 346.35C527.741 346.917 528.541 347.717 529.124 348.75C529.707 349.784 529.999 351 529.999 352.4C529.999 352.534 529.991 352.684 529.974 352.85C529.974 353.017 529.966 353.175 529.949 353.325H518.824V351.25H528.299L527.074 351.9C527.091 351.134 526.932 350.459 526.599 349.875C526.266 349.292 525.807 348.834 525.224 348.5C524.657 348.167 523.999 348 523.249 348C522.482 348 521.807 348.167 521.224 348.5C520.657 348.834 520.207 349.3 519.874 349.9C519.557 350.484 519.399 351.175 519.399 351.975V352.475C519.399 353.275 519.582 353.984 519.949 354.6C520.316 355.217 520.832 355.692 521.499 356.025C522.166 356.359 522.932 356.525 523.799 356.525C524.549 356.525 525.224 356.409 525.824 356.175C526.424 355.942 526.957 355.575 527.424 355.075L529.099 357C528.499 357.7 527.741 358.242 526.824 358.625C525.924 358.992 524.891 359.175 523.724 359.175ZM533.501 359V345.65H536.476V349.325L536.126 348.25C536.526 347.35 537.151 346.667 538.001 346.2C538.867 345.734 539.942 345.5 541.226 345.5V348.475C541.092 348.442 540.967 348.425 540.851 348.425C540.734 348.409 540.617 348.4 540.501 348.4C539.317 348.4 538.376 348.75 537.676 349.45C536.976 350.134 536.626 351.159 536.626 352.525V359H533.501ZM548.624 359.175C547.507 359.175 546.432 359.034 545.399 358.75C544.382 358.45 543.574 358.092 542.974 357.675L544.174 355.3C544.774 355.684 545.49 356 546.324 356.25C547.157 356.5 547.99 356.625 548.824 356.625C549.807 356.625 550.515 356.492 550.949 356.225C551.399 355.959 551.624 355.6 551.624 355.15C551.624 354.784 551.474 354.509 551.174 354.325C550.874 354.125 550.482 353.975 549.999 353.875C549.515 353.775 548.974 353.684 548.374 353.6C547.79 353.517 547.199 353.409 546.599 353.275C546.015 353.125 545.482 352.917 544.999 352.65C544.515 352.367 544.124 351.992 543.824 351.525C543.524 351.059 543.374 350.442 543.374 349.675C543.374 348.825 543.615 348.092 544.099 347.475C544.582 346.842 545.257 346.359 546.124 346.025C547.007 345.675 548.049 345.5 549.249 345.5C550.149 345.5 551.057 345.6 551.974 345.8C552.89 346 553.649 346.284 554.249 346.65L553.049 349.025C552.415 348.642 551.774 348.384 551.124 348.25C550.49 348.1 549.857 348.025 549.224 348.025C548.274 348.025 547.565 348.167 547.099 348.45C546.649 348.734 546.424 349.092 546.424 349.525C546.424 349.925 546.574 350.225 546.874 350.425C547.174 350.625 547.565 350.784 548.049 350.9C548.532 351.017 549.065 351.117 549.649 351.2C550.249 351.267 550.84 351.375 551.424 351.525C552.007 351.675 552.54 351.884 553.024 352.15C553.524 352.4 553.924 352.759 554.224 353.225C554.524 353.692 554.674 354.3 554.674 355.05C554.674 355.884 554.424 356.609 553.924 357.225C553.44 357.842 552.749 358.325 551.849 358.675C550.949 359.009 549.874 359.175 548.624 359.175Z" fill="white"/>
<path d="M439.981 47.1983C439.981 47.8873 439.423 48.4461 438.734 48.4461H428.751C428.502 48.4461 428.258 48.3715 428.052 48.2319C427.846 48.0923 427.686 47.894 427.593 47.6627C427.5 47.4315 427.479 47.1778 427.532 46.9344C427.585 46.6909 427.709 46.4688 427.889 46.2967L435.438 39.0789C436.661 37.9024 436.762 35.9593 435.665 34.6569C435.084 33.9671 434.267 33.5604 433.365 33.5113C432.471 33.4657 431.609 33.7803 430.955 34.4043L429.59 35.6443C429.08 36.1087 428.291 36.0689 427.828 35.5596C427.364 35.0516 427.402 34.26 427.912 33.7959L429.255 32.5754C430.373 31.5093 431.922 30.9334 433.502 31.0203C435.074 31.1056 436.559 31.8454 437.573 33.0492C439.515 35.3518 439.335 38.7931 437.165 40.8793L431.862 45.9485H438.734C439.424 45.9505 439.981 46.5081 439.981 47.1983V47.1983Z" fill="white"/>
<path d="M448.964 48.5626C447.636 48.5626 446.45 48.2176 445.396 47.5382C444.352 46.8598 443.521 45.8665 442.913 44.5689C442.305 43.2712 442 41.7003 442 39.8454C442 38.0002 442.305 36.4195 442.913 35.1219C443.521 33.8243 444.352 32.8309 445.396 32.1516C446.44 31.4732 447.626 31.1282 448.964 31.1282C450.282 31.1282 451.457 31.4732 452.512 32.1516C453.566 32.8309 454.397 33.8243 454.995 35.1219C455.593 36.4195 455.897 37.9905 455.897 39.8454C455.897 41.6896 455.593 43.2712 454.995 44.5689C454.397 45.8665 453.566 46.8598 452.512 47.5382C451.457 48.2176 450.282 48.5626 448.964 48.5626ZM448.964 46.3927C449.856 46.3927 450.636 46.1495 451.315 45.663C451.984 45.1765 452.512 44.4467 452.897 43.4738C453.282 42.5008 453.464 41.2952 453.464 39.8454C453.464 38.4062 453.272 37.19 452.897 36.217C452.512 35.244 451.984 34.5133 451.315 34.0268C450.646 33.5403 449.856 33.2971 448.964 33.2971C448.072 33.2971 447.281 33.5403 446.602 34.0268C445.923 34.5133 445.386 35.244 445.011 36.217C444.626 37.19 444.443 38.3956 444.443 39.8454C444.443 41.2845 444.636 42.5008 445.011 43.4738C445.396 44.4467 445.923 45.1765 446.602 45.663C447.281 46.1495 448.072 46.3927 448.964 46.3927Z" fill="#FCFCFF"/>
<path d="M461.078 38.1914C461.788 38.1914 462.482 37.9809 463.072 37.5865C463.663 37.1921 464.123 36.6316 464.394 35.9758C464.666 35.3199 464.737 34.5983 464.599 33.902C464.46 33.2058 464.118 32.5663 463.616 32.0643C463.114 31.5624 462.475 31.2206 461.779 31.0821C461.082 30.9436 460.361 31.0147 459.705 31.2863C459.049 31.558 458.489 32.018 458.094 32.6082C457.7 33.1985 457.489 33.8924 457.489 34.6023C457.489 35.5542 457.867 36.4671 458.541 37.1402C459.214 37.8133 460.127 38.1914 461.078 38.1914V38.1914ZM461.078 33.064C461.383 33.064 461.68 33.1543 461.933 33.3233C462.186 33.4923 462.383 33.7325 462.5 34.0136C462.616 34.2947 462.646 34.604 462.587 34.9023C462.528 35.2007 462.381 35.4748 462.166 35.6899C461.951 35.905 461.677 36.0515 461.379 36.1109C461.08 36.1703 460.771 36.1398 460.49 36.0234C460.209 35.9069 459.968 35.7098 459.799 35.4568C459.63 35.2039 459.54 34.9065 459.54 34.6023C459.54 34.1943 459.702 33.803 459.991 33.5146C460.279 33.2261 460.67 33.064 461.078 33.064V33.064ZM469.282 41.2678C468.572 41.2678 467.878 41.4783 467.288 41.8727C466.698 42.2671 466.238 42.8276 465.966 43.4835C465.695 44.1393 465.624 44.8609 465.762 45.5572C465.901 46.2534 466.242 46.8929 466.744 47.3949C467.246 47.8968 467.886 48.2387 468.582 48.3771C469.278 48.5156 470 48.4446 470.656 48.1729C471.312 47.9012 471.872 47.4412 472.266 46.851C472.661 46.2608 472.871 45.5668 472.871 44.857C472.871 43.9051 472.493 42.9921 471.82 42.319C471.147 41.646 470.234 41.2678 469.282 41.2678V41.2678ZM469.282 46.3952C468.978 46.3952 468.681 46.3049 468.428 46.1359C468.175 45.9669 467.978 45.7267 467.861 45.4456C467.745 45.1645 467.714 44.8553 467.774 44.5569C467.833 44.2585 467.979 43.9844 468.195 43.7693C468.41 43.5542 468.684 43.4077 468.982 43.3483C469.281 43.289 469.59 43.3194 469.871 43.4358C470.152 43.5523 470.392 43.7494 470.561 44.0024C470.73 44.2553 470.82 44.5527 470.82 44.857C470.82 45.2649 470.658 45.6562 470.37 45.9446C470.081 46.2331 469.69 46.3952 469.282 46.3952ZM473.117 31.2797C473.033 31.1948 472.932 31.1274 472.821 31.0814C472.71 31.0354 472.591 31.0117 472.471 31.0117C472.351 31.0117 472.233 31.0354 472.122 31.0814C472.011 31.1274 471.91 31.1948 471.825 31.2797L457.243 45.8619C457.074 46.0346 456.978 46.2662 456.977 46.508C456.976 46.6887 457.03 46.8654 457.13 47.0157C457.23 47.1661 457.373 47.2833 457.54 47.3525C457.707 47.4217 457.89 47.4397 458.068 47.4044C458.245 47.3691 458.408 47.2819 458.535 47.154L473.117 32.5718C473.202 32.487 473.27 32.3863 473.316 32.2755C473.362 32.1646 473.385 32.0458 473.385 31.9258C473.385 31.8058 473.362 31.6869 473.316 31.5761C473.27 31.4652 473.202 31.3645 473.117 31.2797Z" fill="white"/>
<path d="M318.839 49.6367L320.325 51.4293L358.269 13.1411H397.943H403.037V11.5748L399.482 11.2441H357.322L318.839 49.6367Z" fill="white"/>
<path d="M404.35 18.6934C407.902 18.6934 410.782 15.8104 410.782 12.254C410.782 8.69767 407.902 5.8147 404.35 5.8147C400.797 5.8147 397.917 8.69767 397.917 12.254C397.917 15.8104 400.797 18.6934 404.35 18.6934Z" fill="white"/>
<path d="M435.449 22.25C434.116 22.25 432.874 22.0333 431.724 21.6C430.591 21.15 429.599 20.525 428.749 19.725C427.916 18.9083 427.266 17.95 426.799 16.85C426.332 15.75 426.099 14.55 426.099 13.25C426.099 11.95 426.332 10.75 426.799 9.65C427.266 8.55 427.924 7.6 428.774 6.8C429.624 5.98333 430.616 5.35833 431.749 4.925C432.882 4.475 434.124 4.25 435.474 4.25C436.907 4.25 438.216 4.5 439.399 5C440.582 5.48333 441.582 6.20833 442.399 7.175L440.299 9.15C439.666 8.46667 438.957 7.95833 438.174 7.625C437.391 7.275 436.541 7.1 435.624 7.1C434.707 7.1 433.866 7.25 433.099 7.55C432.349 7.85 431.691 8.275 431.124 8.825C430.574 9.375 430.141 10.025 429.824 10.775C429.524 11.525 429.374 12.35 429.374 13.25C429.374 14.15 429.524 14.975 429.824 15.725C430.141 16.475 430.574 17.125 431.124 17.675C431.691 18.225 432.349 18.65 433.099 18.95C433.866 19.25 434.707 19.4 435.624 19.4C436.541 19.4 437.391 19.2333 438.174 18.9C438.957 18.55 439.666 18.025 440.299 17.325L442.399 19.325C441.582 20.275 440.582 21 439.399 21.5C438.216 22 436.899 22.25 435.449 22.25ZM451.2 22.175C449.834 22.175 448.617 21.8833 447.55 21.3C446.484 20.7 445.642 19.8833 445.025 18.85C444.409 17.8167 444.1 16.6417 444.1 15.325C444.1 13.9917 444.409 12.8167 445.025 11.8C445.642 10.7667 446.484 9.95833 447.55 9.375C448.617 8.79167 449.834 8.5 451.2 8.5C452.584 8.5 453.809 8.79167 454.875 9.375C455.959 9.95833 456.8 10.7583 457.4 11.775C458.017 12.7917 458.325 13.975 458.325 15.325C458.325 16.6417 458.017 17.8167 457.4 18.85C456.8 19.8833 455.959 20.7 454.875 21.3C453.809 21.8833 452.584 22.175 451.2 22.175ZM451.2 19.5C451.967 19.5 452.65 19.3333 453.25 19C453.85 18.6667 454.317 18.1833 454.65 17.55C455 16.9167 455.175 16.175 455.175 15.325C455.175 14.4583 455 13.7167 454.65 13.1C454.317 12.4667 453.85 11.9833 453.25 11.65C452.65 11.3167 451.975 11.15 451.225 11.15C450.459 11.15 449.775 11.3167 449.175 11.65C448.592 11.9833 448.125 12.4667 447.775 13.1C447.425 13.7167 447.25 14.4583 447.25 15.325C447.25 16.175 447.425 16.9167 447.775 17.55C448.125 18.1833 448.592 18.6667 449.175 19C449.775 19.3333 450.45 19.5 451.2 19.5ZM478.664 8.5C479.73 8.5 480.672 8.70833 481.489 9.125C482.322 9.54167 482.972 10.1833 483.439 11.05C483.905 11.9 484.139 13 484.139 14.35V22H481.014V14.75C481.014 13.5667 480.755 12.6833 480.239 12.1C479.722 11.5167 478.98 11.225 478.014 11.225C477.33 11.225 476.722 11.375 476.189 11.675C475.672 11.975 475.264 12.4167 474.964 13C474.68 13.5833 474.539 14.325 474.539 15.225V22H471.414V14.75C471.414 13.5667 471.155 12.6833 470.639 12.1C470.122 11.5167 469.38 11.225 468.414 11.225C467.73 11.225 467.122 11.375 466.589 11.675C466.072 11.975 465.664 12.4167 465.364 13C465.08 13.5833 464.939 14.325 464.939 15.225V22H461.814V8.65H464.789V12.2L464.264 11.15C464.714 10.2833 465.364 9.625 466.214 9.175C467.08 8.725 468.064 8.5 469.164 8.5C470.414 8.5 471.497 8.80833 472.414 9.425C473.347 10.0417 473.964 10.975 474.264 12.225L473.039 11.8C473.472 10.8 474.189 10 475.189 9.4C476.189 8.8 477.347 8.5 478.664 8.5ZM505.482 8.5C506.549 8.5 507.49 8.70833 508.307 9.125C509.14 9.54167 509.79 10.1833 510.257 11.05C510.724 11.9 510.957 13 510.957 14.35V22H507.832V14.75C507.832 13.5667 507.574 12.6833 507.057 12.1C506.54 11.5167 505.799 11.225 504.832 11.225C504.149 11.225 503.54 11.375 503.007 11.675C502.49 11.975 502.082 12.4167 501.782 13C501.499 13.5833 501.357 14.325 501.357 15.225V22H498.232V14.75C498.232 13.5667 497.974 12.6833 497.457 12.1C496.94 11.5167 496.199 11.225 495.232 11.225C494.549 11.225 493.94 11.375 493.407 11.675C492.89 11.975 492.482 12.4167 492.182 13C491.899 13.5833 491.757 14.325 491.757 15.225V22H488.632V8.65H491.607V12.2L491.082 11.15C491.532 10.2833 492.182 9.625 493.032 9.175C493.899 8.725 494.882 8.5 495.982 8.5C497.232 8.5 498.315 8.80833 499.232 9.425C500.165 10.0417 500.782 10.975 501.082 12.225L499.857 11.8C500.29 10.8 501.007 10 502.007 9.4C503.007 8.8 504.165 8.5 505.482 8.5ZM521.1 22.175C519.967 22.175 518.967 21.9667 518.1 21.55C517.234 21.1167 516.559 20.4667 516.075 19.6C515.592 18.7167 515.35 17.6083 515.35 16.275V8.65H518.475V15.85C518.475 17.05 518.742 17.95 519.275 18.55C519.825 19.1333 520.6 19.425 521.6 19.425C522.334 19.425 522.967 19.275 523.5 18.975C524.05 18.675 524.475 18.225 524.775 17.625C525.092 17.025 525.25 16.2833 525.25 15.4V8.65H528.375V22H525.4V18.4L525.925 19.5C525.475 20.3667 524.817 21.0333 523.95 21.5C523.084 21.95 522.134 22.175 521.1 22.175ZM540.542 8.5C541.609 8.5 542.559 8.70833 543.392 9.125C544.242 9.54167 544.909 10.1833 545.392 11.05C545.875 11.9 546.117 13 546.117 14.35V22H542.992V14.75C542.992 13.5667 542.709 12.6833 542.142 12.1C541.592 11.5167 540.817 11.225 539.817 11.225C539.084 11.225 538.434 11.375 537.867 11.675C537.3 11.975 536.859 12.425 536.542 13.025C536.242 13.6083 536.092 14.35 536.092 15.25V22H532.967V8.65H535.942V12.25L535.417 11.15C535.884 10.3 536.559 9.65 537.442 9.2C538.342 8.73333 539.375 8.5 540.542 8.5ZM550.581 22V8.65H553.706V22H550.581ZM552.156 6.45C551.573 6.45 551.09 6.26667 550.706 5.9C550.34 5.53333 550.156 5.09167 550.156 4.575C550.156 4.04167 550.34 3.6 550.706 3.25C551.09 2.88333 551.573 2.7 552.156 2.7C552.74 2.7 553.215 2.875 553.581 3.225C553.965 3.55833 554.156 3.98333 554.156 4.5C554.156 5.05 553.973 5.51667 553.606 5.9C553.24 6.26667 552.756 6.45 552.156 6.45ZM563.333 22.175C561.866 22.175 560.733 21.8 559.933 21.05C559.133 20.2833 558.733 19.1583 558.733 17.675V5.7H561.858V17.6C561.858 18.2333 562.016 18.725 562.333 19.075C562.666 19.425 563.124 19.6 563.708 19.6C564.408 19.6 564.991 19.4167 565.458 19.05L566.333 21.275C565.966 21.575 565.516 21.8 564.983 21.95C564.449 22.1 563.899 22.175 563.333 22.175ZM556.533 11.25V8.75H565.433V11.25H556.533ZM570.259 27.025C569.609 27.025 568.959 26.9167 568.309 26.7C567.659 26.4833 567.118 26.1833 566.684 25.8L567.934 23.5C568.251 23.7833 568.609 24.0083 569.009 24.175C569.409 24.3417 569.818 24.425 570.234 24.425C570.801 24.425 571.259 24.2833 571.609 24C571.959 23.7167 572.284 23.2417 572.584 22.575L573.359 20.825L573.609 20.45L578.659 8.65H581.659L575.409 23.075C574.993 24.075 574.526 24.8667 574.009 25.45C573.509 26.0333 572.943 26.4417 572.309 26.675C571.693 26.9083 571.009 27.025 570.259 27.025ZM573.009 22.475L566.984 8.65H570.234L575.134 20.175L573.009 22.475ZM596.997 22L589.347 4.5H592.872L599.697 20.325H597.672L604.572 4.5H607.822L600.197 22H596.997ZM617.092 22V19.3L616.917 18.725V14C616.917 13.0833 616.642 12.375 616.092 11.875C615.542 11.3583 614.709 11.1 613.592 11.1C612.842 11.1 612.101 11.2167 611.367 11.45C610.651 11.6833 610.042 12.0083 609.542 12.425L608.317 10.15C609.034 9.6 609.884 9.19167 610.867 8.925C611.867 8.64167 612.901 8.5 613.967 8.5C615.901 8.5 617.392 8.96667 618.442 9.9C619.509 10.8167 620.042 12.2417 620.042 14.175V22H617.092ZM612.892 22.175C611.892 22.175 611.017 22.0083 610.267 21.675C609.517 21.325 608.934 20.85 608.517 20.25C608.117 19.6333 607.917 18.9417 607.917 18.175C607.917 17.425 608.092 16.75 608.442 16.15C608.809 15.55 609.401 15.075 610.217 14.725C611.034 14.375 612.117 14.2 613.467 14.2H617.342V16.275H613.692C612.626 16.275 611.909 16.45 611.542 16.8C611.176 17.1333 610.992 17.55 610.992 18.05C610.992 18.6167 611.217 19.0667 611.667 19.4C612.117 19.7333 612.742 19.9 613.542 19.9C614.309 19.9 614.992 19.725 615.592 19.375C616.209 19.025 616.651 18.5083 616.917 17.825L617.442 19.7C617.142 20.4833 616.601 21.0917 615.817 21.525C615.051 21.9583 614.076 22.175 612.892 22.175ZM630.203 22.175C629.07 22.175 628.07 21.9667 627.203 21.55C626.336 21.1167 625.661 20.4667 625.178 19.6C624.695 18.7167 624.453 17.6083 624.453 16.275V8.65H627.578V15.85C627.578 17.05 627.845 17.95 628.378 18.55C628.928 19.1333 629.703 19.425 630.703 19.425C631.436 19.425 632.07 19.275 632.603 18.975C633.153 18.675 633.578 18.225 633.878 17.625C634.195 17.025 634.353 16.2833 634.353 15.4V8.65H637.478V22H634.503V18.4L635.028 19.5C634.578 20.3667 633.92 21.0333 633.053 21.5C632.186 21.95 631.236 22.175 630.203 22.175ZM642.07 22V3.45H645.195V22H642.07ZM655.48 22.175C654.014 22.175 652.88 21.8 652.08 21.05C651.28 20.2833 650.88 19.1583 650.88 17.675V5.7H654.005V17.6C654.005 18.2333 654.164 18.725 654.48 19.075C654.814 19.425 655.272 19.6 655.855 19.6C656.555 19.6 657.139 19.4167 657.605 19.05L658.48 21.275C658.114 21.575 657.664 21.8 657.13 21.95C656.597 22.1 656.047 22.175 655.48 22.175ZM648.68 11.25V8.75H657.58V11.25H648.68Z" fill="white"/>
<path d="M465.457 213.948C465.457 214.637 464.898 215.196 464.209 215.196H454.226C453.977 215.196 453.733 215.121 453.527 214.981C453.321 214.842 453.161 214.644 453.068 214.412C452.975 214.181 452.954 213.927 453.007 213.684C453.06 213.44 453.184 213.218 453.364 213.046L460.913 205.828C462.136 204.652 462.237 202.709 461.14 201.406C460.559 200.717 459.742 200.31 458.841 200.261C457.946 200.215 457.084 200.53 456.431 201.154L455.065 202.394C454.555 202.858 453.766 202.818 453.303 202.309C452.839 201.801 452.877 201.009 453.387 200.545L454.73 199.325C455.848 198.259 457.397 197.683 458.977 197.77C460.549 197.855 462.034 198.595 463.048 199.799C464.99 202.101 464.81 205.543 462.64 207.629L457.337 212.698H464.209C464.899 212.7 465.457 213.258 465.457 213.948V213.948Z" fill="white"/>
<path d="M474.439 215.312C473.111 215.312 471.925 214.967 470.871 214.288C469.827 213.609 468.996 212.616 468.388 211.318C467.78 210.021 467.476 208.45 467.476 206.595C467.476 204.75 467.78 203.169 468.388 201.871C468.996 200.574 469.827 199.58 470.871 198.901C471.915 198.223 473.101 197.878 474.439 197.878C475.757 197.878 476.933 198.223 477.987 198.901C479.041 199.58 479.872 200.574 480.47 201.871C481.068 203.169 481.372 204.74 481.372 206.595C481.372 208.439 481.068 210.021 480.47 211.318C479.872 212.616 479.041 213.609 477.987 214.288C476.933 214.967 475.757 215.312 474.439 215.312ZM474.439 213.142C475.331 213.142 476.111 212.899 476.791 212.412C477.46 211.926 477.987 211.196 478.372 210.223C478.757 209.25 478.939 208.045 478.939 206.595C478.939 205.156 478.747 203.94 478.372 202.967C477.987 201.994 477.46 201.263 476.791 200.776C476.122 200.29 475.331 200.047 474.439 200.047C473.547 200.047 472.756 200.29 472.077 200.776C471.398 201.263 470.861 201.994 470.486 202.967C470.101 203.94 469.918 205.145 469.918 206.595C469.918 208.034 470.111 209.25 470.486 210.223C470.871 211.196 471.398 211.926 472.077 212.412C472.756 212.899 473.547 213.142 474.439 213.142Z" fill="#FCFCFF"/>
<path d="M486.553 204.941C487.263 204.941 487.957 204.73 488.547 204.336C489.137 203.942 489.597 203.381 489.869 202.725C490.141 202.069 490.212 201.348 490.073 200.652C489.935 199.955 489.593 199.316 489.091 198.814C488.589 198.312 487.949 197.97 487.253 197.832C486.557 197.693 485.835 197.764 485.18 198.036C484.524 198.307 483.963 198.768 483.569 199.358C483.174 199.948 482.964 200.642 482.964 201.352C482.964 202.304 483.342 203.217 484.015 203.89C484.688 204.563 485.601 204.941 486.553 204.941V204.941ZM486.553 199.814C486.857 199.814 487.155 199.904 487.408 200.073C487.661 200.242 487.858 200.482 487.974 200.763C488.091 201.044 488.121 201.353 488.062 201.652C488.002 201.95 487.856 202.224 487.641 202.439C487.426 202.655 487.152 202.801 486.853 202.86C486.555 202.92 486.245 202.889 485.964 202.773C485.683 202.656 485.443 202.459 485.274 202.206C485.105 201.953 485.015 201.656 485.015 201.352C485.015 200.944 485.177 200.553 485.465 200.264C485.754 199.976 486.145 199.814 486.553 199.814V199.814ZM494.757 208.017C494.047 208.017 493.353 208.228 492.763 208.622C492.173 209.017 491.713 209.577 491.441 210.233C491.169 210.889 491.098 211.61 491.237 212.307C491.375 213.003 491.717 213.642 492.219 214.144C492.721 214.646 493.36 214.988 494.057 215.127C494.753 215.265 495.474 215.194 496.13 214.922C496.786 214.651 497.347 214.191 497.741 213.6C498.135 213.01 498.346 212.316 498.346 211.606C498.346 210.655 497.968 209.742 497.295 209.069C496.622 208.395 495.709 208.017 494.757 208.017V208.017ZM494.757 213.145C494.453 213.145 494.155 213.054 493.902 212.885C493.649 212.716 493.452 212.476 493.336 212.195C493.219 211.914 493.189 211.605 493.248 211.306C493.308 211.008 493.454 210.734 493.669 210.519C493.884 210.304 494.158 210.157 494.457 210.098C494.755 210.038 495.064 210.069 495.345 210.185C495.627 210.302 495.867 210.499 496.036 210.752C496.205 211.005 496.295 211.302 496.295 211.606C496.295 212.014 496.133 212.406 495.844 212.694C495.556 212.983 495.165 213.145 494.757 213.145ZM498.592 198.029C498.507 197.944 498.407 197.877 498.296 197.831C498.185 197.785 498.066 197.761 497.946 197.761C497.826 197.761 497.707 197.785 497.596 197.831C497.485 197.877 497.385 197.944 497.3 198.029L482.718 212.611C482.549 212.784 482.453 213.016 482.451 213.257C482.451 213.438 482.504 213.615 482.605 213.765C482.705 213.916 482.847 214.033 483.014 214.102C483.181 214.171 483.365 214.189 483.542 214.154C483.719 214.119 483.882 214.031 484.01 213.904L498.592 199.321C498.677 199.237 498.744 199.136 498.79 199.025C498.836 198.914 498.86 198.795 498.86 198.675C498.86 198.555 498.836 198.436 498.79 198.326C498.744 198.215 498.677 198.114 498.592 198.029Z" fill="white"/>
<path d="M392.492 163.75L393.57 165.517L437.973 136.035L478.707 155.614L482.254 155.814C482.653 156.023 483.149 155.875 483.358 155.475C483.558 155.101 483.436 154.64 483.079 154.413L480.315 154.161L437.973 133.738L392.492 163.75Z" fill="white"/>
<path d="M484.557 162.462C481.004 162.462 478.124 159.579 478.124 156.023C478.124 152.467 481.004 149.583 484.557 149.583C488.11 149.583 490.99 152.467 490.99 156.023C490.99 159.579 488.11 162.462 484.557 162.462Z" fill="white"/>
<path d="M453.017 190V172.5H455.692L463.342 185.275H461.942L469.467 172.5H472.142L472.167 190H469.092L469.067 177.325H469.717L463.317 188H461.867L455.367 177.325H456.117V190H453.017ZM485.319 190V187.3L485.144 186.725V182C485.144 181.083 484.869 180.375 484.319 179.875C483.769 179.358 482.936 179.1 481.819 179.1C481.069 179.1 480.327 179.217 479.594 179.45C478.877 179.683 478.269 180.008 477.769 180.425L476.544 178.15C477.261 177.6 478.111 177.192 479.094 176.925C480.094 176.642 481.127 176.5 482.194 176.5C484.127 176.5 485.619 176.967 486.669 177.9C487.736 178.817 488.269 180.242 488.269 182.175V190H485.319ZM481.119 190.175C480.119 190.175 479.244 190.008 478.494 189.675C477.744 189.325 477.161 188.85 476.744 188.25C476.344 187.633 476.144 186.942 476.144 186.175C476.144 185.425 476.319 184.75 476.669 184.15C477.036 183.55 477.627 183.075 478.444 182.725C479.261 182.375 480.344 182.2 481.694 182.2H485.569V184.275H481.919C480.852 184.275 480.136 184.45 479.769 184.8C479.402 185.133 479.219 185.55 479.219 186.05C479.219 186.617 479.444 187.067 479.894 187.4C480.344 187.733 480.969 187.9 481.769 187.9C482.536 187.9 483.219 187.725 483.819 187.375C484.436 187.025 484.877 186.508 485.144 185.825L485.669 187.7C485.369 188.483 484.827 189.092 484.044 189.525C483.277 189.958 482.302 190.175 481.119 190.175ZM492.779 190V176.65H495.754V180.325L495.404 179.25C495.804 178.35 496.429 177.667 497.279 177.2C498.146 176.733 499.221 176.5 500.504 176.5V179.475C500.371 179.442 500.246 179.425 500.129 179.425C500.013 179.408 499.896 179.4 499.779 179.4C498.596 179.4 497.654 179.75 496.954 180.45C496.254 181.133 495.904 182.158 495.904 183.525V190H492.779ZM506.205 187.025L506.28 183.1L513.255 176.65H517.005L511.08 182.6L509.43 183.975L506.205 187.025ZM503.655 190V171.45H506.78V190H503.655ZM513.73 190L508.855 183.975L510.83 181.475L517.53 190H513.73ZM525.787 190.175C524.304 190.175 523.004 189.883 521.887 189.3C520.787 188.7 519.929 187.883 519.312 186.85C518.712 185.817 518.412 184.642 518.412 183.325C518.412 181.992 518.704 180.817 519.287 179.8C519.887 178.767 520.704 177.958 521.737 177.375C522.787 176.792 523.979 176.5 525.312 176.5C526.612 176.5 527.77 176.783 528.787 177.35C529.804 177.917 530.604 178.717 531.187 179.75C531.77 180.783 532.062 182 532.062 183.4C532.062 183.533 532.054 183.683 532.037 183.85C532.037 184.017 532.029 184.175 532.012 184.325H520.887V182.25H530.362L529.137 182.9C529.154 182.133 528.995 181.458 528.662 180.875C528.329 180.292 527.87 179.833 527.287 179.5C526.72 179.167 526.062 179 525.312 179C524.545 179 523.87 179.167 523.287 179.5C522.72 179.833 522.27 180.3 521.937 180.9C521.62 181.483 521.462 182.175 521.462 182.975V183.475C521.462 184.275 521.645 184.983 522.012 185.6C522.379 186.217 522.895 186.692 523.562 187.025C524.229 187.358 524.995 187.525 525.862 187.525C526.612 187.525 527.287 187.408 527.887 187.175C528.487 186.942 529.02 186.575 529.487 186.075L531.162 188C530.562 188.7 529.804 189.242 528.887 189.625C527.987 189.992 526.954 190.175 525.787 190.175ZM540.589 190.175C539.122 190.175 537.989 189.8 537.189 189.05C536.389 188.283 535.989 187.158 535.989 185.675V173.7H539.114V185.6C539.114 186.233 539.272 186.725 539.589 187.075C539.922 187.425 540.38 187.6 540.964 187.6C541.664 187.6 542.247 187.417 542.714 187.05L543.589 189.275C543.222 189.575 542.772 189.8 542.239 189.95C541.705 190.1 541.155 190.175 540.589 190.175ZM533.789 179.25V176.75H542.689V179.25H533.789ZM546.659 190V176.65H549.784V190H546.659ZM548.234 174.45C547.651 174.45 547.168 174.267 546.784 173.9C546.418 173.533 546.234 173.092 546.234 172.575C546.234 172.042 546.418 171.6 546.784 171.25C547.168 170.883 547.651 170.7 548.234 170.7C548.818 170.7 549.293 170.875 549.659 171.225C550.043 171.558 550.234 171.983 550.234 172.5C550.234 173.05 550.051 173.517 549.684 173.9C549.318 174.267 548.834 174.45 548.234 174.45ZM561.961 176.5C563.028 176.5 563.978 176.708 564.811 177.125C565.661 177.542 566.328 178.183 566.811 179.05C567.294 179.9 567.536 181 567.536 182.35V190H564.411V182.75C564.411 181.567 564.128 180.683 563.561 180.1C563.011 179.517 562.236 179.225 561.236 179.225C560.503 179.225 559.853 179.375 559.286 179.675C558.719 179.975 558.278 180.425 557.961 181.025C557.661 181.608 557.511 182.35 557.511 183.25V190H554.386V176.65H557.361V180.25L556.836 179.15C557.303 178.3 557.978 177.65 558.861 177.2C559.761 176.733 560.794 176.5 561.961 176.5ZM578.075 195.025C576.841 195.025 575.633 194.858 574.45 194.525C573.283 194.208 572.325 193.742 571.575 193.125L572.975 190.775C573.558 191.258 574.291 191.642 575.175 191.925C576.075 192.225 576.983 192.375 577.9 192.375C579.366 192.375 580.441 192.033 581.125 191.35C581.808 190.683 582.15 189.675 582.15 188.325V185.95L582.4 182.925L582.3 179.9V176.65H585.275V187.975C585.275 190.392 584.658 192.167 583.425 193.3C582.191 194.45 580.408 195.025 578.075 195.025ZM577.675 189.4C576.408 189.4 575.258 189.133 574.225 188.6C573.208 188.05 572.4 187.292 571.8 186.325C571.216 185.358 570.925 184.225 570.925 182.925C570.925 181.642 571.216 180.517 571.8 179.55C572.4 178.583 573.208 177.833 574.225 177.3C575.258 176.767 576.408 176.5 577.675 176.5C578.808 176.5 579.825 176.725 580.725 177.175C581.625 177.625 582.341 178.325 582.875 179.275C583.425 180.225 583.7 181.442 583.7 182.925C583.7 184.408 583.425 185.633 582.875 186.6C582.341 187.55 581.625 188.258 580.725 188.725C579.825 189.175 578.808 189.4 577.675 189.4ZM578.15 186.75C578.933 186.75 579.633 186.592 580.25 186.275C580.866 185.942 581.341 185.492 581.675 184.925C582.025 184.342 582.2 183.675 582.2 182.925C582.2 182.175 582.025 181.517 581.675 180.95C581.341 180.367 580.866 179.925 580.25 179.625C579.633 179.308 578.933 179.15 578.15 179.15C577.366 179.15 576.658 179.308 576.025 179.625C575.408 179.925 574.925 180.367 574.575 180.95C574.241 181.517 574.075 182.175 574.075 182.925C574.075 183.675 574.241 184.342 574.575 184.925C574.925 185.492 575.408 185.942 576.025 186.275C576.658 186.592 577.366 186.75 578.15 186.75Z" fill="white"/>
<defs>
<radialGradient id="paint0_radial_1314_132" cx="0" cy="0" r="1" gradientUnits="userSpaceOnUse" gradientTransform="translate(268.541 152.818) scale(120.26)">
<stop offset="0.0027933" stop-color="#F333B9"/>
<stop offset="0.2722" stop-color="#F034BC"/>
<stop offset="0.5077" stop-color="#E638C7"/>
<stop offset="0.7305" stop-color="#D63DD9"/>
<stop offset="0.9443" stop-color="#C045F2"/>
<stop offset="1" stop-color="#B948FA"/>
</radialGradient>
<radialGradient id="paint1_radial_1314_132" cx="0" cy="0" r="1" gradientUnits="userSpaceOnUse" gradientTransform="translate(258.381 153.395) scale(125.31)">
<stop stop-color="#6C87C4"/>
<stop offset="0.1902" stop-color="#6480C0"/>
<stop offset="0.4778" stop-color="#506CB5"/>
<stop offset="0.8253" stop-color="#2E4CA3"/>
<stop offset="1" stop-color="#1A3999"/>
</radialGradient>
</defs>
</svg>
