<svg width="540" height="375" viewBox="0 0 540 375" fill="none" xmlns="http://www.w3.org/2000/svg">
<path d="M95.6904 172.03C95.6904 243.664 153.759 301.732 225.393 301.732C297.027 301.732 355.096 243.664 355.096 172.03C355.096 100.396 297.027 42.3271 225.393 42.3271C153.759 42.3271 95.6904 100.396 95.6904 172.03ZM176.131 170.105C176.131 138.739 201.557 113.323 232.913 113.323C264.28 113.323 289.695 138.749 289.695 170.105C289.695 201.472 264.269 226.887 232.913 226.887C201.546 226.887 176.131 201.461 176.131 170.105Z" fill="#E6A91C"/>
<path d="M235.108 36.6797C264.121 36.6797 290.917 46.1556 312.578 62.1788L266.747 124.577C257.292 117.528 245.567 113.355 232.859 113.355C201.514 113.355 176.098 138.77 176.098 170.116C176.098 201.462 201.514 226.877 232.859 226.877C239.971 226.877 246.77 225.559 253.035 223.175L287.152 286.703C271.213 293.648 253.61 297.507 235.108 297.507C163.077 297.507 104.694 239.114 104.694 167.093C104.694 95.0725 163.077 36.6797 235.108 36.6797Z" fill="url(#paint0_radial_329_2561)"/>
<path d="M232.065 25.625V113.355C201.085 113.795 176.098 139.032 176.098 170.117C176.098 201.483 201.524 226.899 232.88 226.899C245.797 226.899 257.689 222.579 267.228 215.321L317.107 285.02C293.511 302.099 264.519 312.182 233.163 312.182C154.03 312.182 89.874 248.026 89.874 168.893C89.874 90.1363 153.434 26.2212 232.065 25.625Z" fill="url(#paint1_radial_329_2561)"/>
<path d="M263.516 47.8293L261.424 49.9211L235.747 12.3731H188.002L190.303 12.2685L185.073 11.2226L186.161 10.1035H236.887L263.516 47.8293Z" fill="white"/>
<path d="M191.798 19.0565C196.073 19.0565 199.538 15.5913 199.538 11.3168C199.538 7.04232 196.073 3.57715 191.798 3.57715C187.524 3.57715 184.059 7.04232 184.059 11.3168C184.059 15.5913 187.524 19.0565 191.798 19.0565Z" fill="white"/>
<path d="M184.027 240.276V242.368L148.466 244.46L118.899 306.064L115.677 309.913L113.962 309.149L115.981 305.708L147.42 242.368L184.027 240.276Z" fill="white"/>
<path d="M114.067 318.666C118.341 318.666 121.807 315.201 121.807 310.926C121.807 306.652 118.341 303.187 114.067 303.187C109.792 303.187 106.327 306.652 106.327 310.926C106.327 315.201 109.792 318.666 114.067 318.666Z" fill="white"/>
<path d="M42.8512 19.6313C41.4811 19.6313 40.2155 19.4116 39.0755 18.9619C37.925 18.5226 36.9314 17.8951 36.0737 17.0793C35.2161 16.2634 34.5572 15.3117 34.0865 14.203C33.6159 13.0944 33.3857 11.8916 33.3857 10.5842C33.3857 9.27682 33.6159 8.07401 34.0865 6.96535C34.5572 5.85669 35.2161 4.90492 36.0842 4.08912C36.9418 3.27331 37.9564 2.64578 39.1069 2.2065C40.2574 1.76722 41.5229 1.53711 42.893 1.53711C44.3782 1.53711 45.7274 1.77768 46.9197 2.26925C48.1121 2.75037 49.1266 3.46159 49.9424 4.40291L47.882 6.41102C47.1917 5.72073 46.4596 5.21871 45.6647 4.89448C44.8698 4.57025 43.9912 4.40291 43.0395 4.40291C42.1191 4.40291 41.2614 4.54933 40.477 4.85264C39.6926 5.15595 39.0127 5.58477 38.4479 6.12864C37.8832 6.68297 37.4439 7.33143 37.1301 8.08448C36.8163 8.83753 36.6699 9.6638 36.6699 10.5737C36.6699 11.4627 36.8268 12.2786 37.1301 13.0316C37.4439 13.7847 37.8832 14.4436 38.4479 14.9979C39.0127 15.5627 39.6821 15.9915 40.4561 16.2948C41.23 16.5981 42.0772 16.7446 43.0185 16.7446C43.8866 16.7446 44.7339 16.6086 45.5392 16.3262C46.355 16.0543 47.1289 15.5836 47.8611 14.9351L49.7228 17.3721C48.8024 18.1042 47.7356 18.669 46.5224 19.0456C45.3196 19.443 44.0958 19.6313 42.8512 19.6313ZM46.6479 16.9642V10.3855H49.7332V17.393L46.6479 16.9642Z" fill="#FCFCFF"/>
<path d="M55.9349 3.76526C55.3492 3.76526 54.8681 3.577 54.4916 3.21093C54.1151 2.84487 53.9268 2.39514 53.9268 1.88265C53.9268 1.34923 54.1151 0.899497 54.4916 0.54389C54.8681 0.188283 55.3492 0 55.9349 0C56.5206 0 57.0017 0.167366 57.3782 0.512514C57.7548 0.857663 57.9431 1.28647 57.9431 1.80942C57.9431 2.36375 57.7548 2.82394 57.3887 3.20046C57.0226 3.57699 56.5311 3.76526 55.9349 3.76526ZM54.3451 19.3806V5.97213H57.4829V19.3806H54.3451Z" fill="#FCFCFF"/>
<path d="M65.7984 19.3801L60.0459 5.97168H63.3091L68.2562 17.7904H66.6455L71.7704 5.97168H74.7826L69.0302 19.3801H65.7984Z" fill="#FCFCFF"/>
<path d="M83.2956 19.5472C81.8105 19.5472 80.5031 19.2543 79.3944 18.6581C78.2858 18.062 77.4176 17.2462 76.811 16.2107C76.2044 15.1753 75.8906 13.9934 75.8906 12.6756C75.8906 11.3369 76.1835 10.155 76.7797 9.11951C77.3758 8.09453 78.1916 7.27875 79.2375 6.69304C80.2834 6.10733 81.4757 5.81445 82.8145 5.81445C84.1219 5.81445 85.2829 6.09685 86.3078 6.6721C87.3328 7.23689 88.1277 8.04225 88.7134 9.0777C89.2991 10.1131 89.592 11.3369 89.592 12.7384C89.592 12.8743 89.592 13.0207 89.5815 13.1881C89.5711 13.3554 89.5606 13.5123 89.5397 13.6692H78.3694V11.5879H87.8872L86.653 12.2363C86.6739 11.4623 86.5066 10.793 86.1719 10.2073C85.8372 9.62155 85.377 9.16135 84.8017 8.82666C84.2265 8.49197 83.5571 8.32465 82.804 8.32465C82.0301 8.32465 81.3607 8.49197 80.7854 8.82666C80.2102 9.16135 79.7605 9.62157 79.4258 10.2177C79.1016 10.8139 78.9342 11.5147 78.9342 12.3095V12.8116C78.9342 13.6169 79.1225 14.3281 79.4885 14.9452C79.8546 15.5623 80.3775 16.0434 81.0469 16.3781C81.7163 16.7128 82.4903 16.8801 83.3584 16.8801C84.1114 16.8801 84.7913 16.7651 85.3874 16.5245C85.9836 16.284 86.5275 15.9179 86.9981 15.4159L88.6821 17.3508C88.0754 18.0515 87.3223 18.5954 86.4124 18.9719C85.5025 19.3589 84.4566 19.5472 83.2956 19.5472Z" fill="#FCFCFF"/>
<path d="M96.893 19.5477C95.8889 19.5477 95.0104 19.3804 94.2573 19.0352C93.5043 18.6901 92.9186 18.2194 92.5107 17.6024C92.1028 16.9957 91.8936 16.3054 91.8936 15.5315C91.8936 14.7784 92.0714 14.0986 92.4374 13.5024C92.7931 12.8958 93.3892 12.4251 94.205 12.0695C95.0208 11.7139 96.1086 11.5466 97.4682 11.5466H101.359V13.6279H97.6984C96.6315 13.6279 95.9099 13.7953 95.5438 14.1404C95.1777 14.4856 94.9895 14.9039 94.9895 15.4059C94.9895 15.9707 95.2196 16.4309 95.6693 16.7656C96.1191 17.1003 96.7466 17.2677 97.5519 17.2677C98.3259 17.2677 99.0162 17.0899 99.6228 16.7447C100.229 16.3996 100.669 15.8766 100.941 15.1863L101.464 17.0689C101.16 17.8534 100.627 18.4704 99.8425 18.8993C99.0685 19.3385 98.0853 19.5477 96.893 19.5477ZM101.118 19.3804V16.6715L100.941 16.0962V11.3478C100.941 10.4274 100.669 9.71624 100.114 9.20375C99.5601 8.69126 98.7233 8.44023 97.6042 8.44023C96.8512 8.44023 96.1086 8.55527 95.3869 8.79583C94.6652 9.03639 94.0481 9.36062 93.5461 9.77898L92.3119 7.49892C93.0336 6.94459 93.8913 6.53669 94.8849 6.25429C95.8785 5.98236 96.9139 5.83594 97.9807 5.83594C99.9261 5.83594 101.422 6.29612 102.489 7.22698C103.555 8.15783 104.078 9.59071 104.078 11.5361V19.3908H101.118V19.3804Z" fill="#FCFCFF"/>
<path d="M111.431 19.3801L106.516 5.97168H109.475L113.691 17.7904H112.289L116.703 5.97168H119.338L123.627 17.7904H122.246L126.587 5.97168H129.369L124.421 19.3801H121.409L117.498 8.91067H118.428L114.433 19.3801H111.431Z" fill="#FCFCFF"/>
<path d="M135.78 19.5477C134.776 19.5477 133.897 19.3804 133.144 19.0352C132.391 18.6901 131.805 18.2194 131.397 17.6024C130.989 16.9957 130.78 16.3054 130.78 15.5315C130.78 14.7784 130.958 14.0986 131.324 13.5024C131.68 12.8958 132.276 12.4251 133.092 12.0695C133.907 11.7139 134.995 11.5466 136.355 11.5466H140.246V13.6279H136.585C135.518 13.6279 134.797 13.7953 134.43 14.1404C134.064 14.4856 133.876 14.9039 133.876 15.4059C133.876 15.9707 134.106 16.4309 134.556 16.7656C135.006 17.1003 135.633 17.2677 136.439 17.2677C137.213 17.2677 137.903 17.0899 138.509 16.7447C139.116 16.3996 139.555 15.8766 139.827 15.1863L140.35 17.0689C140.047 17.8534 139.514 18.4704 138.729 18.8993C137.955 19.3385 136.962 19.5477 135.78 19.5477ZM139.995 19.3804V16.6715L139.817 16.0962V11.3478C139.817 10.4274 139.545 9.71624 138.991 9.20375C138.436 8.69126 137.6 8.44023 136.48 8.44023C135.727 8.44023 134.985 8.55527 134.263 8.79583C133.541 9.03639 132.924 9.36062 132.422 9.77898L131.188 7.49892C131.91 6.94459 132.767 6.53669 133.761 6.25429C134.755 5.98236 135.79 5.83594 136.857 5.83594C138.802 5.83594 140.298 6.29612 141.365 7.22698C142.432 8.15783 142.955 9.59071 142.955 11.5361V19.3908H139.995V19.3804Z" fill="#FCFCFF"/>
<path d="M148.456 24.4214C147.807 24.4214 147.148 24.3168 146.5 24.0972C145.851 23.8775 145.307 23.5742 144.868 23.1977L146.123 20.8862C146.437 21.1686 146.803 21.3988 147.201 21.5661C147.598 21.7335 148.016 21.8171 148.435 21.8171C148.999 21.8171 149.46 21.6707 149.815 21.3883C150.171 21.1059 150.495 20.6248 150.798 19.9554L151.572 18.1983L151.823 17.8218L156.896 5.97168H159.908L153.633 20.4574C153.214 21.4615 152.754 22.2564 152.242 22.8421C151.729 23.4278 151.164 23.8357 150.537 24.0763C149.909 24.3168 149.209 24.4214 148.456 24.4214ZM151.217 19.8508L145.171 5.97168H148.435L153.35 17.5394L151.217 19.8508Z" fill="#FCFCFF"/>
<path d="M34.8703 51.0087V34.4416L35.9475 35.6234H30.9062V33.4375H37.3595V51.0087H34.8703Z" fill="#FCFCFF"/>
<path d="M48.3729 51.2073C47.0027 51.2073 45.7791 50.8517 44.6913 50.151C43.6036 49.4502 42.7564 48.4252 42.1288 47.0865C41.5013 45.7477 41.1875 44.1266 41.1875 42.2126C41.1875 40.309 41.5013 38.6774 42.1288 37.3386C42.7564 35.9999 43.614 34.9749 44.6913 34.2741C45.7686 33.5734 46.9923 33.2178 48.3729 33.2178C49.7325 33.2178 50.9458 33.5734 52.0335 34.2741C53.1213 34.9749 53.9789 35.9999 54.596 37.3386C55.2131 38.6774 55.5269 40.2985 55.5269 42.2126C55.5269 44.1161 55.2131 45.7477 54.596 47.0865C53.9789 48.4252 53.1213 49.4502 52.0335 50.151C50.9458 50.8517 49.7221 51.2073 48.3729 51.2073ZM48.3729 48.9795C49.2932 48.9795 50.0986 48.7285 50.7994 48.2265C51.5001 47.7245 52.0335 46.9714 52.431 45.9673C52.8284 44.9633 53.0167 43.7187 53.0167 42.223C53.0167 40.7378 52.8179 39.4827 52.431 38.4787C52.044 37.4746 51.4897 36.7215 50.7994 36.2195C50.1091 35.7175 49.2932 35.4665 48.3729 35.4665C47.4525 35.4665 46.6366 35.7175 45.9359 36.2195C45.2351 36.7215 44.6809 37.4746 44.2939 38.4787C43.9069 39.4827 43.7082 40.7274 43.7082 42.223C43.7082 43.7082 43.9069 44.9633 44.2939 45.9673C44.6913 46.9714 45.2351 47.7245 45.9359 48.2265C46.6366 48.7285 47.4525 48.9795 48.3729 48.9795Z" fill="#FCFCFF"/>
<path d="M65.118 51.2073C63.7478 51.2073 62.5241 50.8517 61.4364 50.151C60.3486 49.4502 59.5015 48.4252 58.874 47.0865C58.2464 45.7477 57.9326 44.1266 57.9326 42.2126C57.9326 40.309 58.2464 38.6774 58.874 37.3386C59.5015 35.9999 60.3591 34.9749 61.4364 34.2741C62.5136 33.5734 63.7374 33.2178 65.118 33.2178C66.4776 33.2178 67.6909 33.5734 68.7786 34.2741C69.8664 34.9749 70.724 35.9999 71.3411 37.3386C71.9582 38.6774 72.272 40.2985 72.272 42.2126C72.272 44.1161 71.9582 45.7477 71.3411 47.0865C70.724 48.4252 69.8664 49.4502 68.7786 50.151C67.6909 50.8517 66.4672 51.2073 65.118 51.2073ZM65.118 48.9795C66.0384 48.9795 66.8437 48.7285 67.5445 48.2265C68.2452 47.7245 68.7786 46.9714 69.1761 45.9673C69.5735 44.9633 69.7618 43.7187 69.7618 42.223C69.7618 40.7378 69.5631 39.4827 69.1761 38.4787C68.7891 37.4746 68.2348 36.7215 67.5445 36.2195C66.8542 35.7175 66.0384 35.4665 65.118 35.4665C64.1976 35.4665 63.3818 35.7175 62.681 36.2195C61.9802 36.7215 61.4259 37.4746 61.0389 38.4787C60.6519 39.4827 60.4532 40.7274 60.4532 42.223C60.4532 43.7082 60.6519 44.9633 61.0389 45.9673C61.4364 46.9714 61.9802 47.7245 62.681 48.2265C63.3818 48.7285 64.1976 48.9795 65.118 48.9795Z" fill="#FCFCFF"/>
<path d="M9.46541 342.534C8.09528 342.534 6.82975 342.314 5.68972 341.864C4.53922 341.425 3.54562 340.797 2.68798 339.982C1.83034 339.166 1.17139 338.214 0.700738 337.105C0.230081 335.997 0 334.794 0 333.487C0 332.179 0.230081 330.976 0.700738 329.868C1.17139 328.759 1.83035 327.807 2.69845 326.991C3.55609 326.176 4.57063 325.548 5.72113 325.109C6.87162 324.67 8.13716 324.439 9.50729 324.439C10.9925 324.439 12.3417 324.68 13.534 325.172C14.7263 325.663 15.7409 326.364 16.5567 327.305L14.4962 329.313C13.8059 328.623 13.0738 328.121 12.2789 327.797C11.484 327.473 10.6055 327.305 9.65373 327.305C8.73334 327.305 7.87568 327.452 7.09126 327.755C6.30683 328.058 5.62699 328.487 5.0622 329.031C4.49741 329.585 4.05812 330.234 3.74435 330.987C3.43058 331.74 3.28415 332.566 3.28415 333.476C3.28415 334.365 3.44104 335.181 3.74435 335.934C4.05812 336.687 4.49741 337.346 5.0622 337.9C5.62699 338.455 6.29635 338.894 7.07032 339.197C7.84429 339.501 8.69148 339.647 9.63279 339.647C10.5009 339.647 11.348 339.511 12.1534 339.229C12.9692 338.957 13.7432 338.486 14.4753 337.838L16.337 340.274C15.4166 341.017 14.3498 341.571 13.1365 341.948C11.9338 342.345 10.71 342.534 9.46541 342.534ZM13.262 339.877V333.298H16.3475V340.306L13.262 339.877Z" fill="#FCFCFF"/>
<path d="M27.2673 342.461C25.7821 342.461 24.4748 342.168 23.3661 341.572C22.2575 340.976 21.3893 340.16 20.7827 339.125C20.1761 338.089 19.8623 336.907 19.8623 335.59C19.8623 334.251 20.1552 333.069 20.7514 332.034C21.3475 331.009 22.1633 330.193 23.2092 329.607C24.2551 329.021 25.4474 328.729 26.7862 328.729C28.0936 328.729 29.2545 329.011 30.2795 329.586C31.3045 330.151 32.0994 330.956 32.6851 331.992C33.2708 333.027 33.5637 334.251 33.5637 335.652C33.5637 335.788 33.5637 335.935 33.5532 336.102C33.5428 336.269 33.5323 336.426 33.5114 336.583H22.3411V334.502H31.8589L30.6247 335.15C30.6456 334.376 30.4782 333.707 30.1436 333.121C29.8089 332.536 29.3487 332.075 28.7734 331.741C28.1982 331.406 27.5288 331.239 26.7758 331.239C26.0018 331.239 25.3324 331.406 24.7571 331.741C24.1819 332.075 23.7322 332.536 23.3975 333.132C23.0732 333.728 22.9059 334.429 22.9059 335.224V335.726C22.9059 336.531 23.0941 337.242 23.4602 337.859C23.8263 338.476 24.3492 338.957 25.0186 339.292C25.688 339.627 26.462 339.794 27.3301 339.794C28.0831 339.794 28.763 339.679 29.3591 339.439C29.9658 339.208 30.4991 338.832 30.9698 338.33L32.6537 340.265C32.0471 340.966 31.294 341.509 30.3841 341.886C29.4742 342.263 28.4387 342.461 27.2673 342.461Z" fill="#FCFCFF"/>
<path d="M44.8162 328.729C45.883 328.729 46.8453 328.938 47.6924 329.356C48.5396 329.774 49.1985 330.412 49.6901 331.281C50.1712 332.138 50.4222 333.247 50.4222 334.606V342.283H47.2845V335.004C47.2845 333.812 47.0021 332.933 46.4478 332.347C45.883 331.762 45.109 331.469 44.1049 331.469C43.3728 331.469 42.7139 331.615 42.1491 331.919C41.5843 332.222 41.1451 332.672 40.8313 333.257C40.5175 333.853 40.3711 334.596 40.3711 335.506V342.283H37.2334V328.875H40.2247V332.494L39.7017 331.385C40.1724 330.527 40.8522 329.879 41.7516 329.419C42.6511 328.959 43.6448 328.729 44.8162 328.729Z" fill="#FCFCFF"/>
<path d="M61.3533 342.461C59.8681 342.461 58.5607 342.168 57.452 341.572C56.3433 340.976 55.4753 340.16 54.8686 339.125C54.262 338.089 53.9482 336.907 53.9482 335.59C53.9482 334.251 54.2411 333.069 54.8372 332.034C55.4334 331.009 56.2492 330.193 57.2951 329.607C58.341 329.021 59.5334 328.729 60.8721 328.729C62.1795 328.729 63.3405 329.011 64.3655 329.586C65.3905 330.151 66.1853 330.956 66.771 331.992C67.3567 333.027 67.6496 334.251 67.6496 335.652C67.6496 335.788 67.6495 335.935 67.6391 336.102C67.6286 336.269 67.6182 336.426 67.5973 336.583H56.427V334.502H65.9447L64.7106 335.15C64.7315 334.376 64.5642 333.707 64.2295 333.121C63.8948 332.536 63.4346 332.075 62.8594 331.741C62.2841 331.406 61.6147 331.239 60.8616 331.239C60.0877 331.239 59.4183 331.406 58.8431 331.741C58.2678 332.075 57.8181 332.536 57.4834 333.132C57.1592 333.728 56.9918 334.429 56.9918 335.224V335.726C56.9918 336.531 57.1801 337.242 57.5462 337.859C57.9122 338.476 58.4352 338.957 59.1045 339.292C59.7739 339.627 60.5479 339.794 61.416 339.794C62.1691 339.794 62.8489 339.679 63.4451 339.439C64.0517 339.208 64.5851 338.832 65.0557 338.33L66.7396 340.265C66.133 340.966 65.38 341.509 64.47 341.886C63.5601 342.263 62.5247 342.461 61.3533 342.461Z" fill="#FCFCFF"/>
<path d="M75.4412 342.461C74.3221 342.461 73.2448 342.314 72.2198 342.022C71.1949 341.729 70.3791 341.373 69.7725 340.955L70.9752 338.57C71.5818 338.957 72.293 339.271 73.1298 339.522C73.9665 339.773 74.8032 339.898 75.64 339.898C76.6231 339.898 77.3448 339.762 77.7841 339.501C78.2233 339.239 78.4534 338.873 78.4534 338.424C78.4534 338.058 78.307 337.775 78.0037 337.587C77.7004 337.399 77.3134 337.252 76.8218 337.148C76.3407 337.043 75.7969 336.959 75.2007 336.876C74.6045 336.792 74.0084 336.677 73.4227 336.541C72.8265 336.395 72.2931 336.185 71.8015 335.913C71.3204 335.642 70.923 335.265 70.6196 334.794C70.3163 334.324 70.1699 333.707 70.1699 332.933C70.1699 332.075 70.4105 331.343 70.9021 330.715C71.3832 330.088 72.0734 329.607 72.952 329.262C73.8305 328.916 74.8764 328.749 76.0792 328.749C76.9787 328.749 77.8991 328.854 78.8195 329.052C79.7399 329.251 80.5034 329.533 81.0996 329.91L79.8968 332.295C79.2588 331.908 78.6208 331.646 77.9723 331.5C77.3238 331.353 76.6859 331.291 76.0479 331.291C75.0961 331.291 74.3849 331.437 73.9247 331.719C73.4645 332.002 73.2344 332.368 73.2344 332.797C73.2344 333.194 73.3808 333.497 73.6841 333.696C73.9874 333.895 74.3744 334.052 74.866 334.177C75.3471 334.292 75.891 334.386 76.4871 334.47C77.0833 334.554 77.669 334.658 78.2547 334.805C78.8404 334.951 79.3843 335.16 79.8759 335.422C80.3674 335.683 80.7649 336.049 81.0682 336.51C81.3715 336.98 81.5179 337.587 81.5179 338.34C81.5179 339.177 81.267 339.909 80.7754 340.526C80.2838 341.143 79.5831 341.624 78.6836 341.969C77.7736 342.283 76.6963 342.461 75.4412 342.461Z" fill="#FCFCFF"/>
<path d="M86.4329 326.668C85.8472 326.668 85.3661 326.479 84.9896 326.113C84.613 325.747 84.4248 325.297 84.4248 324.785C84.4248 324.252 84.613 323.802 84.9896 323.446C85.3661 323.091 85.8472 322.902 86.4329 322.902C87.0186 322.902 87.4997 323.08 87.8763 323.415C88.2528 323.76 88.441 324.189 88.441 324.712C88.441 325.266 88.2528 325.726 87.8867 326.103C87.5207 326.479 87.0291 326.668 86.4329 326.668ZM84.8431 342.283V328.874H87.9808V342.283H84.8431Z" fill="#FCFCFF"/>
<path d="M96.8719 342.461C95.7528 342.461 94.6756 342.314 93.6506 342.022C92.6256 341.729 91.8097 341.373 91.2031 340.955L92.4059 338.57C93.0126 338.957 93.7238 339.271 94.5605 339.522C95.3972 339.773 96.2339 339.898 97.0706 339.898C98.0538 339.898 98.7754 339.762 99.2147 339.501C99.654 339.239 99.8841 338.873 99.8841 338.424C99.8841 338.058 99.7377 337.775 99.4344 337.587C99.1311 337.399 98.7441 337.252 98.2525 337.148C97.7714 337.043 97.2275 336.959 96.6314 336.876C96.0352 336.792 95.439 336.677 94.8533 336.541C94.2572 336.395 93.7238 336.185 93.2322 335.913C92.7511 335.642 92.3536 335.265 92.0503 334.794C91.747 334.324 91.6006 333.707 91.6006 332.933C91.6006 332.075 91.8411 331.343 92.3327 330.715C92.8138 330.088 93.5041 329.607 94.3826 329.262C95.2612 328.916 96.3072 328.749 97.51 328.749C98.4094 328.749 99.3298 328.854 100.25 329.052C101.171 329.251 101.934 329.533 102.53 329.91L101.327 332.295C100.689 331.908 100.051 331.646 99.403 331.5C98.7546 331.353 98.1165 331.291 97.4785 331.291C96.5268 331.291 95.8155 331.437 95.3553 331.719C94.8951 332.002 94.6651 332.368 94.6651 332.797C94.6651 333.194 94.8115 333.497 95.1148 333.696C95.4181 333.895 95.8051 334.052 96.2967 334.177C96.7778 334.292 97.3216 334.386 97.9178 334.47C98.514 334.554 99.0997 334.658 99.6854 334.805C100.271 334.951 100.815 335.16 101.307 335.422C101.798 335.683 102.196 336.049 102.499 336.51C102.802 336.98 102.949 337.587 102.949 338.34C102.949 339.177 102.698 339.909 102.206 340.526C101.714 341.143 101.014 341.624 100.114 341.969C99.2043 342.283 98.127 342.461 96.8719 342.461Z" fill="#FCFCFF"/>
<path d="M114.14 342.283V324.712H116.828L124.505 337.535H123.103L130.654 324.712H133.342L133.363 342.283H130.278L130.257 329.554H130.906L124.484 340.275H123.03L116.503 329.554H117.256V342.283H114.14Z" fill="#FCFCFF"/>
<path d="M140.026 326.668C139.44 326.668 138.959 326.479 138.582 326.113C138.206 325.747 138.018 325.297 138.018 324.785C138.018 324.252 138.206 323.802 138.582 323.446C138.959 323.091 139.44 322.902 140.026 322.902C140.611 322.902 141.093 323.08 141.469 323.415C141.846 323.76 142.034 324.189 142.034 324.712C142.034 325.266 141.846 325.726 141.48 326.103C141.113 326.479 140.622 326.668 140.026 326.668ZM138.436 342.283V328.874H141.574V342.283H138.436Z" fill="#FCFCFF"/>
<path d="M153.926 328.729C154.992 328.729 155.955 328.938 156.802 329.356C157.649 329.774 158.308 330.412 158.8 331.281C159.281 332.138 159.532 333.247 159.532 334.606V342.283H156.394V335.004C156.394 333.812 156.112 332.933 155.557 332.347C154.992 331.762 154.218 331.469 153.214 331.469C152.482 331.469 151.823 331.615 151.259 331.919C150.694 332.222 150.254 332.672 149.941 333.257C149.627 333.853 149.48 334.596 149.48 335.506V342.283H146.343V328.875H149.334V332.494L148.811 331.385C149.282 330.527 149.962 329.879 150.861 329.419C151.761 328.959 152.754 328.729 153.926 328.729Z" fill="#FCFCFF"/>
<path d="M162.366 331.489V328.979H171.298V331.489H162.366ZM169.186 342.46C167.711 342.46 166.571 342.084 165.776 341.32C164.981 340.557 164.573 339.438 164.573 337.942V325.914H167.711V337.858C167.711 338.496 167.878 338.988 168.202 339.343C168.527 339.699 168.987 339.866 169.573 339.866C170.273 339.866 170.859 339.678 171.33 339.312L172.208 341.55C171.842 341.854 171.392 342.073 170.849 342.23C170.305 342.387 169.761 342.46 169.186 342.46Z" fill="#FCFCFF"/>
<path d="M6.53649 374.11C5.30232 374.11 4.09953 373.921 2.93858 373.535C1.77762 373.148 0.825882 372.635 0.09375 371.976L1.24422 369.989C1.82992 370.543 2.59343 370.993 3.52428 371.349C4.45513 371.704 5.45925 371.872 6.51561 371.872C7.85437 371.872 8.8793 371.589 9.60098 371.014C10.3227 370.439 10.6783 369.686 10.6783 368.734C10.6783 368.085 10.5214 367.51 10.1972 367.029C9.88338 366.548 9.32904 366.171 8.55507 365.91C7.78111 365.648 6.71429 365.523 5.35461 365.523H1.35925L2.29012 356.34H12.2053V358.526H3.22099L4.52837 357.292L3.79623 364.55L2.48885 363.347H5.87756C7.63468 363.347 9.04665 363.578 10.1239 364.027C11.2012 364.477 11.9752 365.105 12.4563 365.899C12.9375 366.694 13.1884 367.615 13.1884 368.65C13.1884 369.654 12.9479 370.575 12.4563 371.401C11.9752 372.227 11.2431 372.886 10.2599 373.388C9.27675 373.89 8.04259 374.11 6.53649 374.11Z" fill="#FCFCFF"/>
<path d="M20.8139 374.11C19.5797 374.11 18.3769 373.921 17.216 373.535C16.055 373.148 15.1032 372.635 14.3711 371.976L15.5216 369.989C16.1073 370.543 16.8708 370.993 17.8017 371.349C18.7325 371.704 19.7366 371.872 20.793 371.872C22.1317 371.872 23.1567 371.589 23.8784 371.014C24.6001 370.439 24.9556 369.686 24.9556 368.734C24.9556 368.085 24.7988 367.51 24.4746 367.029C24.1608 366.548 23.6065 366.171 22.8325 365.91C22.0585 365.648 20.9917 365.523 19.632 365.523H15.6367L16.5675 356.34H26.4827V358.526H17.4984L18.8058 357.292L18.0736 364.55L16.7663 363.347H20.155C21.9121 363.347 23.3241 363.578 24.4013 364.027C25.4786 364.477 26.2526 365.105 26.7337 365.899C27.2148 366.694 27.4658 367.615 27.4658 368.65C27.4658 369.654 27.2253 370.575 26.7337 371.401C26.2526 372.227 25.5205 372.886 24.5373 373.388C23.5542 373.89 22.32 374.11 20.8139 374.11Z" fill="#FCFCFF"/>
<path d="M36.7322 374.11C35.3621 374.11 34.1384 373.754 33.0507 373.053C31.9734 372.353 31.1158 371.328 30.4882 369.989C29.8607 368.65 29.5469 367.029 29.5469 365.115C29.5469 363.211 29.8607 361.58 30.4882 360.241C31.1158 358.902 31.9734 357.877 33.0507 357.176C34.128 356.476 35.3516 356.12 36.7322 356.12C38.0919 356.12 39.3052 356.476 40.3929 357.176C41.4806 357.877 42.3383 358.902 42.9554 360.241C43.5724 361.58 43.8862 363.201 43.8862 365.115C43.8862 367.018 43.5724 368.65 42.9554 369.989C42.3383 371.328 41.4806 372.353 40.3929 373.053C39.3052 373.754 38.0919 374.11 36.7322 374.11ZM36.7322 371.871C37.6526 371.871 38.458 371.62 39.1587 371.118C39.849 370.616 40.3929 369.863 40.7903 368.859C41.1878 367.855 41.376 366.611 41.376 365.115C41.376 363.63 41.1773 362.375 40.7903 361.371C40.3929 360.367 39.849 359.613 39.1587 359.111C38.4684 358.609 37.6526 358.358 36.7322 358.358C35.8118 358.358 34.9961 358.609 34.2953 359.111C33.5946 359.613 33.0402 360.367 32.6532 361.371C32.2558 362.375 32.0675 363.619 32.0675 365.115C32.0675 366.6 32.2663 367.855 32.6532 368.859C33.0507 369.863 33.5946 370.616 34.2953 371.118C34.9961 371.62 35.8118 371.871 36.7322 371.871Z" fill="#FCFCFF"/>
<path d="M53.4764 374.11C52.1062 374.11 50.8825 373.754 49.7948 373.053C48.7175 372.353 47.8599 371.328 47.2324 369.989C46.6048 368.65 46.291 367.029 46.291 365.115C46.291 363.211 46.6048 361.58 47.2324 360.241C47.8599 358.902 48.7175 357.877 49.7948 357.176C50.872 356.476 52.0958 356.12 53.4764 356.12C54.836 356.12 56.0493 356.476 57.137 357.176C58.2248 357.877 59.0824 358.902 59.6995 360.241C60.3166 361.58 60.6304 363.201 60.6304 365.115C60.6304 367.018 60.3166 368.65 59.6995 369.989C59.0824 371.328 58.2248 372.353 57.137 373.053C56.0493 373.754 54.8256 374.11 53.4764 374.11ZM53.4764 371.871C54.3968 371.871 55.2021 371.62 55.9029 371.118C56.5932 370.616 57.137 369.863 57.5345 368.859C57.9319 367.855 58.1202 366.611 58.1202 365.115C58.1202 363.63 57.9215 362.375 57.5345 361.371C57.137 360.367 56.5932 359.613 55.9029 359.111C55.2126 358.609 54.3968 358.358 53.4764 358.358C52.556 358.358 51.7402 358.609 51.0394 359.111C50.3386 359.613 49.7844 360.367 49.3974 361.371C48.9999 362.375 48.8116 363.619 48.8116 365.115C48.8116 366.6 49.0104 367.855 49.3974 368.859C49.7948 369.863 50.3386 370.616 51.0394 371.118C51.7402 371.62 52.556 371.871 53.4764 371.871Z" fill="#FCFCFF"/>
<path d="M434.395 109.789H431.132V92.2178H443.955V94.958H434.395V109.789ZM434.113 100.292H442.877V103.053H434.113V100.292Z" fill="#FCFCFF"/>
<path d="M451.057 109.956C450.053 109.956 449.174 109.789 448.421 109.443C447.668 109.098 447.083 108.628 446.675 108.011C446.267 107.404 446.058 106.714 446.058 105.94C446.058 105.187 446.235 104.507 446.602 103.911C446.957 103.304 447.553 102.833 448.369 102.478C449.185 102.122 450.273 101.955 451.632 101.955H455.523V104.036H451.862C450.795 104.036 450.074 104.203 449.708 104.549C449.342 104.894 449.153 105.312 449.153 105.814C449.153 106.379 449.384 106.839 449.833 107.174C450.283 107.509 450.911 107.676 451.716 107.676C452.49 107.676 453.18 107.498 453.787 107.153C454.393 106.808 454.833 106.285 455.105 105.595L455.628 107.477C455.324 108.262 454.791 108.879 454.006 109.307C453.232 109.747 452.249 109.956 451.057 109.956ZM455.272 109.789V107.08L455.094 106.504V101.756C455.094 100.836 454.822 100.124 454.268 99.612C453.714 99.0995 452.877 98.8484 451.758 98.8484C451.005 98.8484 450.262 98.9635 449.54 99.204C448.819 99.4446 448.202 99.7688 447.7 100.187L446.466 97.9071C447.187 97.3528 448.045 96.9449 449.038 96.6625C450.032 96.3906 451.067 96.2441 452.134 96.2441C454.08 96.2441 455.575 96.7043 456.642 97.6352C457.709 98.566 458.232 99.9989 458.232 101.944V109.799H455.272V109.789Z" fill="#FCFCFF"/>
<path d="M462.886 109.789V96.3808H465.877V100.073L465.521 98.9956C465.919 98.0961 466.557 97.4058 467.414 96.9351C468.272 96.4645 469.349 96.2344 470.636 96.2344V99.2257C470.5 99.1943 470.374 99.1734 470.259 99.1629C470.144 99.1524 470.029 99.1525 469.904 99.1525C468.711 99.1525 467.77 99.4976 467.069 100.198C466.369 100.889 466.013 101.924 466.013 103.294V109.8H462.886V109.789Z" fill="#FCFCFF"/>
<path d="M490.843 96.2331C491.91 96.2331 492.862 96.4423 493.688 96.8607C494.514 97.279 495.163 97.917 495.634 98.7851C496.104 99.6428 496.334 100.751 496.334 102.111V109.788H493.197V102.509C493.197 101.316 492.935 100.438 492.423 99.8519C491.9 99.2662 491.157 98.9734 490.184 98.9734C489.494 98.9734 488.887 99.1198 488.364 99.4231C487.842 99.7264 487.423 100.166 487.13 100.751C486.838 101.337 486.691 102.08 486.691 102.99V109.788H483.553V102.509C483.553 101.316 483.292 100.438 482.779 99.8519C482.256 99.2662 481.514 98.9734 480.541 98.9734C479.851 98.9734 479.244 99.1198 478.721 99.4231C478.198 99.7264 477.78 100.166 477.487 100.751C477.194 101.337 477.048 102.08 477.048 102.99V109.788H473.91V96.3796H476.901V99.9461L476.378 98.8897C476.828 98.0216 477.487 97.3627 478.345 96.9025C479.202 96.4423 480.186 96.2227 481.294 96.2227C482.549 96.2227 483.637 96.5364 484.568 97.1535C485.499 97.7706 486.116 98.7119 486.409 99.967L485.175 99.5382C485.614 98.5341 486.325 97.7288 487.329 97.1326C488.364 96.526 489.525 96.2331 490.843 96.2331Z" fill="#FCFCFF"/>
<path d="M502.567 94.1735C501.981 94.1735 501.5 93.9852 501.123 93.6191C500.747 93.2531 500.559 92.8033 500.559 92.2908C500.559 91.7574 500.747 91.3077 501.123 90.9521C501.5 90.5965 501.981 90.4082 502.567 90.4082C503.152 90.4082 503.633 90.5756 504.01 90.9207C504.387 91.2659 504.575 91.6947 504.575 92.2176C504.575 92.772 504.387 93.2321 504.02 93.6087C503.654 93.9852 503.173 94.1735 502.567 94.1735ZM500.987 109.789V96.3803H504.125V109.789H500.987Z" fill="#FCFCFF"/>
<path d="M516.477 96.2344C517.544 96.2344 518.506 96.4436 519.354 96.8619C520.201 97.2803 520.86 97.9183 521.351 98.7864C521.832 99.644 522.083 100.753 522.083 102.112V109.789H518.946V102.51C518.946 101.317 518.663 100.439 518.109 99.8532C517.555 99.2675 516.77 98.9746 515.766 98.9746C515.034 98.9746 514.375 99.1211 513.81 99.4244C513.246 99.7277 512.806 100.177 512.493 100.763C512.179 101.349 512.032 102.102 512.032 103.012V109.789H508.895V96.3808H511.886V99.9996L511.363 98.891C511.834 98.0333 512.513 97.3849 513.413 96.9247C514.271 96.4645 515.306 96.2344 516.477 96.2344Z" fill="#FCFCFF"/>
<path d="M532.386 109.183C531.11 109.183 529.959 108.911 528.934 108.367C527.909 107.823 527.094 107.07 526.497 106.097C525.901 105.125 525.608 103.985 525.608 102.688C525.608 101.401 525.901 100.272 526.497 99.2989C527.094 98.3262 527.899 97.5731 528.934 97.0397C529.959 96.5063 531.11 96.2344 532.386 96.2344C533.526 96.2344 534.54 96.4645 535.45 96.9142C536.35 97.3639 537.082 98.0647 537.626 99.027C538.17 99.9787 538.442 101.202 538.442 102.688C538.442 104.173 538.17 105.407 537.626 106.369C537.082 107.331 536.36 108.043 535.45 108.503C534.54 108.953 533.526 109.183 532.386 109.183ZM532.783 114.831C531.549 114.831 530.336 114.663 529.154 114.339C527.972 114.015 527.01 113.544 526.257 112.917L527.658 110.553C528.244 111.034 528.987 111.431 529.876 111.724C530.775 112.017 531.675 112.163 532.595 112.163C534.07 112.163 535.147 111.829 535.837 111.149C536.528 110.469 536.862 109.455 536.862 108.095V105.71L537.113 102.677L537.009 99.644V96.3808H540V107.75C540 110.176 539.383 111.965 538.138 113.105C536.925 114.255 535.126 114.831 532.783 114.831ZM532.867 106.526C533.651 106.526 534.352 106.359 534.98 106.034C535.597 105.71 536.078 105.261 536.423 104.675C536.768 104.1 536.936 103.43 536.936 102.677C536.936 101.924 536.758 101.255 536.423 100.679C536.078 100.104 535.597 99.6545 534.98 99.3512C534.363 99.0374 533.662 98.891 532.867 98.891C532.072 98.891 531.371 99.0479 530.744 99.3512C530.116 99.665 529.635 100.104 529.29 100.679C528.945 101.255 528.778 101.924 528.778 102.677C528.778 103.43 528.945 104.1 529.29 104.675C529.635 105.25 530.116 105.7 530.744 106.034C531.371 106.359 532.072 106.526 532.867 106.526Z" fill="#FCFCFF"/>
<path d="M430.588 137.705V135.948L439.572 124.453H442.281L433.37 135.948L432.094 135.55H446.13V137.705H430.588ZM440.346 142.024V137.705L440.419 135.55V131.733H442.783V142.024H440.346Z" fill="#FCFCFF"/>
<path d="M454.801 142.223C453.43 142.223 452.207 141.867 451.119 141.167C450.031 140.466 449.184 139.441 448.557 138.102C447.929 136.763 447.615 135.142 447.615 133.228C447.615 131.325 447.929 129.693 448.557 128.354C449.184 127.016 450.042 125.991 451.119 125.29C452.196 124.589 453.42 124.233 454.801 124.233C456.16 124.233 457.374 124.589 458.461 125.29C459.549 125.991 460.407 127.016 461.024 128.354C461.641 129.693 461.955 131.314 461.955 133.228C461.955 135.132 461.641 136.763 461.024 138.102C460.407 139.441 459.549 140.466 458.461 141.167C457.374 141.867 456.16 142.223 454.801 142.223ZM454.801 139.985C455.721 139.985 456.526 139.734 457.227 139.232C457.928 138.73 458.461 137.977 458.859 136.973C459.256 135.968 459.444 134.724 459.444 133.228C459.444 131.743 459.246 130.488 458.859 129.484C458.472 128.48 457.917 127.727 457.227 127.225C456.537 126.723 455.721 126.472 454.801 126.472C453.88 126.472 453.064 126.723 452.364 127.225C451.663 127.727 451.109 128.48 450.722 129.484C450.335 130.488 450.136 131.733 450.136 133.228C450.136 134.713 450.335 135.968 450.722 136.973C451.119 137.977 451.663 138.73 452.364 139.232C453.075 139.734 453.88 139.985 454.801 139.985Z" fill="#FCFCFF"/>
<path d="M471.546 142.223C470.176 142.223 468.952 141.867 467.864 141.167C466.776 140.466 465.929 139.441 465.302 138.102C464.674 136.763 464.36 135.142 464.36 133.228C464.36 131.325 464.674 129.693 465.302 128.354C465.929 127.016 466.787 125.991 467.864 125.29C468.941 124.589 470.165 124.233 471.546 124.233C472.905 124.233 474.119 124.589 475.206 125.29C476.294 125.991 477.152 127.016 477.769 128.354C478.386 129.693 478.7 131.314 478.7 133.228C478.7 135.132 478.386 136.763 477.769 138.102C477.152 139.441 476.294 140.466 475.206 141.167C474.119 141.867 472.905 142.223 471.546 142.223ZM471.546 139.985C472.466 139.985 473.271 139.734 473.972 139.232C474.673 138.73 475.206 137.977 475.604 136.973C476.001 135.968 476.189 134.724 476.189 133.228C476.189 131.743 475.991 130.488 475.604 129.484C475.217 128.48 474.662 127.727 473.972 127.225C473.282 126.723 472.466 126.472 471.546 126.472C470.625 126.472 469.809 126.723 469.109 127.225C468.408 127.727 467.854 128.48 467.467 129.484C467.08 130.488 466.881 131.733 466.881 133.228C466.881 134.713 467.08 135.968 467.467 136.973C467.864 137.977 468.408 138.73 469.109 139.232C469.82 139.734 470.625 139.985 471.546 139.985Z" fill="#FCFCFF"/>
<path d="M316.856 144.052L318.948 146.144L359.738 101.17L401.69 100.061L405.957 100.302C406.438 100.553 407.034 100.375 407.285 99.8938C407.526 99.444 407.379 98.8897 406.951 98.6178L403.625 98.3145L358.693 99.078L316.856 144.052Z" fill="white"/>
<path d="M408.728 108.293C413.003 108.293 416.468 104.828 416.468 100.553C416.468 96.2786 413.003 92.8135 408.728 92.8135C404.453 92.8135 400.988 96.2786 400.988 100.553C400.988 104.828 404.453 108.293 408.728 108.293Z" fill="white"/>
<path opacity="0.63" d="M232.065 113.262C232.243 113.262 232.41 113.252 232.588 113.252C245.4 113.252 257.209 117.498 266.705 124.652L277.97 109.298C265.346 99.9163 249.71 94.373 232.766 94.373C232.525 94.373 232.295 94.394 232.055 94.394V113.262H232.065Z" fill="url(#paint2_linear_329_2561)"/>
<path opacity="0.72" d="M200.521 238.949C209.243 243.049 218.866 245.549 229.021 246.04L200.521 238.949Z" fill="url(#paint3_linear_329_2561)"/>
<path opacity="0.19" d="M277.98 109.266L266.705 124.599C280.595 134.953 289.6 151.51 289.6 170.158C289.6 188.597 280.804 204.976 267.186 215.352L278.513 231.103C296.953 217.255 308.886 195.208 308.886 170.378C308.886 145.307 296.723 123.082 277.98 109.266Z" fill="black"/>
<path opacity="0.83" d="M267.187 215.351C257.628 222.652 245.694 227.003 232.745 227.003C201.379 227.003 175.963 201.577 175.963 170.221C175.963 139.084 201.023 113.815 232.066 113.449V94.5703C190.554 95.041 157.043 128.813 157.043 170.44C157.043 212.349 191.024 246.331 232.934 246.331C250.045 246.331 265.827 240.662 278.514 231.113L267.187 215.351Z" fill="url(#paint4_radial_329_2561)"/>
<circle cx="232.37" cy="170.718" r="58.0476" fill="black"/>
<defs>
<radialGradient id="paint0_radial_329_2561" cx="0" cy="0" r="1" gradientUnits="userSpaceOnUse" gradientTransform="translate(208.63 167.095) scale(117.923)">
<stop offset="0.0027933" stop-color="#F333B9"/>
<stop offset="0.2722" stop-color="#F034BC"/>
<stop offset="0.5077" stop-color="#E638C7"/>
<stop offset="0.7305" stop-color="#D63DD9"/>
<stop offset="0.9443" stop-color="#C045F2"/>
<stop offset="1" stop-color="#B948FA"/>
</radialGradient>
<radialGradient id="paint1_radial_329_2561" cx="0" cy="0" r="1" gradientUnits="userSpaceOnUse" gradientTransform="translate(203.489 168.909) scale(129.303)">
<stop stop-color="#6C87C4"/>
<stop offset="0.1902" stop-color="#6480C0"/>
<stop offset="0.4778" stop-color="#506CB5"/>
<stop offset="0.8253" stop-color="#2E4CA3"/>
<stop offset="1" stop-color="#1A3999"/>
</radialGradient>
<linearGradient id="paint2_linear_329_2561" x1="247.664" y1="122.724" x2="257.081" y2="95.9597" gradientUnits="userSpaceOnUse">
<stop stop-color="#D748B9" stop-opacity="0"/>
<stop offset="0.4095" stop-color="#B048D5" stop-opacity="0.4095"/>
<stop offset="1" stop-color="#7C48FA"/>
</linearGradient>
<linearGradient id="paint3_linear_329_2561" x1="214.773" y1="246.043" x2="214.773" y2="238.952" gradientUnits="userSpaceOnUse">
<stop stop-color="#D748B9" stop-opacity="0"/>
<stop offset="0.2235" stop-color="#D448C1" stop-opacity="0.2235"/>
<stop offset="0.5615" stop-color="#CA48D5" stop-opacity="0.5615"/>
<stop offset="0.9701" stop-color="#BA48F7" stop-opacity="0.9701"/>
<stop offset="1" stop-color="#B948FA"/>
</linearGradient>
<radialGradient id="paint4_radial_329_2561" cx="0" cy="0" r="1" gradientUnits="userSpaceOnUse" gradientTransform="translate(217.775 170.442) scale(68.7256)">
<stop stop-color="#6C87C4"/>
<stop offset="0.193" stop-color="#647FC0"/>
<stop offset="0.4994" stop-color="#4D69B4"/>
<stop offset="0.8788" stop-color="#2746A0"/>
<stop offset="1" stop-color="#1A3999"/>
</radialGradient>
</defs>
</svg>
