<svg width="22" height="18" viewBox="0 0 22 18" fill="none" xmlns="http://www.w3.org/2000/svg">
<path d="M22 2.11647C21.1762 2.48142 20.3024 2.72098 19.4076 2.82717C20.3396 2.26858 21.0552 1.38402 21.3922 0.330086C20.5062 0.855839 19.5369 1.22627 18.5261 1.42536C17.7027 0.548195 16.5297 0 15.2315 0C12.7388 0 10.7178 2.02091 10.7178 4.51344C10.7178 4.86724 10.7577 5.21168 10.8347 5.54211C7.08348 5.35382 3.7577 3.55695 1.53149 0.826203C1.14305 1.49282 0.920477 2.26823 0.920477 3.0953C0.920477 4.66125 1.71738 6.0427 2.92841 6.85214C2.21164 6.82969 1.51065 6.6361 0.883953 6.28753C0.883695 6.30644 0.883695 6.32534 0.883695 6.34434C0.883695 8.53119 2.43951 10.3555 4.50424 10.7701C3.83959 10.9509 3.14242 10.9773 2.46598 10.8475C3.0403 12.6406 4.70723 13.9455 6.68224 13.982C5.13752 15.1925 3.19129 15.9142 1.07671 15.9142C0.712336 15.9142 0.353117 15.8928 0 15.8511C1.99745 17.1317 4.36992 17.879 6.91883 17.879C15.221 17.879 19.7608 11.0013 19.7608 5.03688C19.7608 4.84112 19.7565 4.64647 19.7478 4.45294C20.6314 3.81415 21.3941 3.02295 22 2.11647Z" fill="#55ACEE"/>
</svg>
