<svg width="570" height="143" viewBox="0 0 570 143" fill="none" xmlns="http://www.w3.org/2000/svg">
<path d="M3.21474 38.3772C1.49232 23.7088 12.7937 10.7522 27.5601 10.4663L542.516 0.493528C556.51 0.222519 568 11.4923 568 25.4888V118C568 131.807 556.807 143 543 143H37.7362C25.0569 143 14.3854 133.508 12.9068 120.916L3.21474 38.3772Z" fill="#3B8303"/>
<path d="M25.1699 90L29.8259 83.648V84.88L25.4259 78.8H27.2499L30.7379 83.584L30.0179 83.6L33.4899 78.8H35.2339L30.8659 84.784V83.632L35.5219 90H33.6819L29.9699 84.896H30.6739L27.0099 90H25.1699ZM41.5195 90.096C40.7942 90.096 40.1382 89.936 39.5515 89.616C38.9755 89.2853 38.5168 88.8 38.1755 88.16C37.8448 87.52 37.6795 86.72 37.6795 85.76C37.6795 84.8 37.8502 84 38.1915 83.36C38.5435 82.72 39.0075 82.24 39.5835 81.92C40.1702 81.6 40.8155 81.44 41.5195 81.44C42.3515 81.44 43.0875 81.6213 43.7275 81.984C44.3675 82.3467 44.8742 82.8533 45.2475 83.504C45.6208 84.144 45.8075 84.896 45.8075 85.76C45.8075 86.624 45.6208 87.3813 45.2475 88.032C44.8742 88.6827 44.3675 89.1893 43.7275 89.552C43.0875 89.9147 42.3515 90.096 41.5195 90.096ZM37.0235 90V78.128H38.5595V83.776L38.3995 85.744L38.4955 87.712V90H37.0235ZM41.3915 88.752C41.9355 88.752 42.4208 88.6293 42.8475 88.384C43.2848 88.1387 43.6262 87.792 43.8715 87.344C44.1275 86.8853 44.2555 86.3573 44.2555 85.76C44.2555 85.152 44.1275 84.6293 43.8715 84.192C43.6262 83.744 43.2848 83.3973 42.8475 83.152C42.4208 82.9067 41.9355 82.784 41.3915 82.784C40.8582 82.784 40.3728 82.9067 39.9355 83.152C39.5088 83.3973 39.1675 83.744 38.9115 84.192C38.6662 84.6293 38.5435 85.152 38.5435 85.76C38.5435 86.3573 38.6662 86.8853 38.9115 87.344C39.1675 87.792 39.5088 88.1387 39.9355 88.384C40.3728 88.6293 40.8582 88.752 41.3915 88.752ZM51.4018 90.096C50.5484 90.096 49.7911 89.9093 49.1298 89.536C48.4684 89.1627 47.9458 88.6507 47.5618 88C47.1778 87.3387 46.9858 86.592 46.9858 85.76C46.9858 84.9173 47.1778 84.1707 47.5618 83.52C47.9458 82.8693 48.4684 82.3627 49.1298 82C49.7911 81.6267 50.5484 81.44 51.4018 81.44C52.2444 81.44 52.9964 81.6267 53.6578 82C54.3298 82.3627 54.8524 82.8693 55.2258 83.52C55.6098 84.16 55.8018 84.9067 55.8018 85.76C55.8018 86.6027 55.6098 87.3493 55.2258 88C54.8524 88.6507 54.3298 89.1627 53.6578 89.536C52.9964 89.9093 52.2444 90.096 51.4018 90.096ZM51.4018 88.752C51.9458 88.752 52.4311 88.6293 52.8578 88.384C53.2951 88.1387 53.6364 87.792 53.8818 87.344C54.1271 86.8853 54.2498 86.3573 54.2498 85.76C54.2498 85.152 54.1271 84.6293 53.8818 84.192C53.6364 83.744 53.2951 83.3973 52.8578 83.152C52.4311 82.9067 51.9458 82.784 51.4018 82.784C50.8578 82.784 50.3724 82.9067 49.9458 83.152C49.5191 83.3973 49.1778 83.744 48.9218 84.192C48.6658 84.6293 48.5378 85.152 48.5378 85.76C48.5378 86.3573 48.6658 86.8853 48.9218 87.344C49.1778 87.792 49.5191 88.1387 49.9458 88.384C50.3724 88.6293 50.8578 88.752 51.4018 88.752ZM57.766 90V81.52H59.238V83.824L59.094 83.248C59.3287 82.6613 59.7233 82.2133 60.278 81.904C60.8327 81.5947 61.5153 81.44 62.326 81.44V82.928C62.262 82.9173 62.198 82.912 62.134 82.912C62.0807 82.912 62.0273 82.912 61.974 82.912C61.1527 82.912 60.502 83.1573 60.022 83.648C59.542 84.1387 59.302 84.848 59.302 85.776V90H57.766ZM67.693 93.2C66.9143 93.2 66.157 93.088 65.421 92.864C64.6957 92.6507 64.1037 92.3413 63.645 91.936L64.381 90.752C64.7757 91.0933 65.261 91.36 65.837 91.552C66.413 91.7547 67.0157 91.856 67.645 91.856C68.6477 91.856 69.3837 91.6213 69.853 91.152C70.3223 90.6827 70.557 89.968 70.557 89.008V87.216L70.717 85.536L70.637 83.84V81.52H72.093V88.848C72.093 90.3413 71.7197 91.44 70.973 92.144C70.2263 92.848 69.133 93.2 67.693 93.2ZM67.501 89.648C66.6797 89.648 65.9437 89.4773 65.293 89.136C64.653 88.784 64.141 88.2987 63.757 87.68C63.3837 87.0613 63.197 86.3467 63.197 85.536C63.197 84.7147 63.3837 84 63.757 83.392C64.141 82.7733 64.653 82.2933 65.293 81.952C65.9437 81.6107 66.6797 81.44 67.501 81.44C68.2263 81.44 68.8877 81.5893 69.485 81.888C70.0823 82.176 70.557 82.624 70.909 83.232C71.2717 83.84 71.453 84.608 71.453 85.536C71.453 86.4533 71.2717 87.216 70.909 87.824C70.557 88.432 70.0823 88.8907 69.485 89.2C68.8877 89.4987 68.2263 89.648 67.501 89.648ZM67.677 88.304C68.2423 88.304 68.7437 88.1867 69.181 87.952C69.6183 87.7173 69.9597 87.392 70.205 86.976C70.461 86.56 70.589 86.08 70.589 85.536C70.589 84.992 70.461 84.512 70.205 84.096C69.9597 83.68 69.6183 83.36 69.181 83.136C68.7437 82.9013 68.2423 82.784 67.677 82.784C67.1117 82.784 66.605 82.9013 66.157 83.136C65.7197 83.36 65.373 83.68 65.117 84.096C64.8717 84.512 64.749 84.992 64.749 85.536C64.749 86.08 64.8717 86.56 65.117 86.976C65.373 87.392 65.7197 87.7173 66.157 87.952C66.605 88.1867 67.1117 88.304 67.677 88.304ZM83.5328 81.44C84.2261 81.44 84.8341 81.5733 85.3568 81.84C85.8901 82.1067 86.3061 82.512 86.6048 83.056C86.9034 83.6 87.0528 84.288 87.0528 85.12V90H85.5168V85.296C85.5168 84.4747 85.3141 83.856 84.9088 83.44C84.5141 83.024 83.9541 82.816 83.2288 82.816C82.6848 82.816 82.2101 82.9227 81.8048 83.136C81.3994 83.3493 81.0848 83.664 80.8608 84.08C80.6474 84.496 80.5408 85.0133 80.5408 85.632V90H79.0048V78.128H80.5408V83.808L80.2368 83.2C80.5141 82.6453 80.9408 82.2133 81.5168 81.904C82.0928 81.5947 82.7648 81.44 83.5328 81.44ZM93.3674 90.096C92.5141 90.096 91.7567 89.9093 91.0954 89.536C90.4341 89.1627 89.9114 88.6507 89.5274 88C89.1434 87.3387 88.9514 86.592 88.9514 85.76C88.9514 84.9173 89.1434 84.1707 89.5274 83.52C89.9114 82.8693 90.4341 82.3627 91.0954 82C91.7567 81.6267 92.5141 81.44 93.3674 81.44C94.2101 81.44 94.9621 81.6267 95.6234 82C96.2954 82.3627 96.8181 82.8693 97.1914 83.52C97.5754 84.16 97.7674 84.9067 97.7674 85.76C97.7674 86.6027 97.5754 87.3493 97.1914 88C96.8181 88.6507 96.2954 89.1627 95.6234 89.536C94.9621 89.9093 94.2101 90.096 93.3674 90.096ZM93.3674 88.752C93.9114 88.752 94.3967 88.6293 94.8234 88.384C95.2607 88.1387 95.6021 87.792 95.8474 87.344C96.0927 86.8853 96.2154 86.3573 96.2154 85.76C96.2154 85.152 96.0927 84.6293 95.8474 84.192C95.6021 83.744 95.2607 83.3973 94.8234 83.152C94.3967 82.9067 93.9114 82.784 93.3674 82.784C92.8234 82.784 92.3381 82.9067 91.9114 83.152C91.4847 83.3973 91.1434 83.744 90.8874 84.192C90.6314 84.6293 90.5034 85.152 90.5034 85.76C90.5034 86.3573 90.6314 86.8853 90.8874 87.344C91.1434 87.792 91.4847 88.1387 91.9114 88.384C92.3381 88.6293 92.8234 88.752 93.3674 88.752ZM99.7316 90V78.128H101.268V90H99.7316ZM107.544 90.096C106.723 90.096 105.987 89.9147 105.336 89.552C104.696 89.1893 104.19 88.6827 103.816 88.032C103.443 87.3813 103.256 86.624 103.256 85.76C103.256 84.896 103.443 84.144 103.816 83.504C104.19 82.8533 104.696 82.3467 105.336 81.984C105.987 81.6213 106.723 81.44 107.544 81.44C108.259 81.44 108.904 81.6 109.48 81.92C110.056 82.24 110.515 82.72 110.856 83.36C111.208 84 111.384 84.8 111.384 85.76C111.384 86.72 111.214 87.52 110.872 88.16C110.542 88.8 110.088 89.2853 109.512 89.616C108.936 89.936 108.28 90.096 107.544 90.096ZM107.672 88.752C108.206 88.752 108.686 88.6293 109.112 88.384C109.55 88.1387 109.891 87.792 110.136 87.344C110.392 86.8853 110.52 86.3573 110.52 85.76C110.52 85.152 110.392 84.6293 110.136 84.192C109.891 83.744 109.55 83.3973 109.112 83.152C108.686 82.9067 108.206 82.784 107.672 82.784C107.128 82.784 106.643 82.9067 106.216 83.152C105.79 83.3973 105.448 83.744 105.192 84.192C104.936 84.6293 104.808 85.152 104.808 85.76C104.808 86.3573 104.936 86.8853 105.192 87.344C105.448 87.792 105.79 88.1387 106.216 88.384C106.643 88.6293 107.128 88.752 107.672 88.752ZM110.568 90V87.712L110.664 85.744L110.504 83.776V78.128H112.04V90H110.568ZM118.563 90.096C117.656 90.096 116.856 89.9093 116.163 89.536C115.48 89.1627 114.947 88.6507 114.563 88C114.189 87.3493 114.003 86.6027 114.003 85.76C114.003 84.9173 114.184 84.1707 114.547 83.52C114.92 82.8693 115.427 82.3627 116.067 82C116.717 81.6267 117.448 81.44 118.259 81.44C119.08 81.44 119.805 81.6213 120.435 81.984C121.064 82.3467 121.555 82.8587 121.907 83.52C122.269 84.1707 122.451 84.9333 122.451 85.808C122.451 85.872 122.445 85.9467 122.435 86.032C122.435 86.1173 122.429 86.1973 122.419 86.272H115.203V85.168H121.619L120.995 85.552C121.005 85.008 120.893 84.5227 120.659 84.096C120.424 83.6693 120.099 83.3387 119.683 83.104C119.277 82.8587 118.803 82.736 118.259 82.736C117.725 82.736 117.251 82.8587 116.835 83.104C116.419 83.3387 116.093 83.6747 115.859 84.112C115.624 84.5387 115.507 85.0293 115.507 85.584V85.84C115.507 86.4053 115.635 86.912 115.891 87.36C116.157 87.7973 116.525 88.1387 116.995 88.384C117.464 88.6293 118.003 88.752 118.611 88.752C119.112 88.752 119.565 88.6667 119.971 88.496C120.387 88.3253 120.749 88.0693 121.059 87.728L121.907 88.72C121.523 89.168 121.043 89.5093 120.467 89.744C119.901 89.9787 119.267 90.096 118.563 90.096ZM124.424 90V81.52H125.896V83.824L125.752 83.248C125.986 82.6613 126.381 82.2133 126.936 81.904C127.49 81.5947 128.173 81.44 128.984 81.44V82.928C128.92 82.9173 128.856 82.912 128.792 82.912C128.738 82.912 128.685 82.912 128.632 82.912C127.81 82.912 127.16 83.1573 126.68 83.648C126.2 84.1387 125.96 84.848 125.96 85.776V90H124.424ZM133.242 90.096C132.538 90.096 131.866 90 131.226 89.808C130.597 89.616 130.101 89.3813 129.738 89.104L130.378 87.888C130.741 88.1333 131.189 88.3413 131.722 88.512C132.256 88.6827 132.8 88.768 133.354 88.768C134.069 88.768 134.581 88.6667 134.89 88.464C135.21 88.2613 135.37 87.9787 135.37 87.616C135.37 87.3493 135.274 87.1413 135.082 86.992C134.89 86.8427 134.634 86.7307 134.314 86.656C134.005 86.5813 133.658 86.5173 133.274 86.464C132.89 86.4 132.506 86.3253 132.122 86.24C131.738 86.144 131.386 86.016 131.066 85.856C130.746 85.6853 130.49 85.456 130.298 85.168C130.106 84.8693 130.01 84.4747 130.01 83.984C130.01 83.472 130.154 83.024 130.442 82.64C130.73 82.256 131.136 81.9627 131.658 81.76C132.192 81.5467 132.821 81.44 133.546 81.44C134.101 81.44 134.661 81.5093 135.226 81.648C135.802 81.776 136.272 81.9627 136.634 82.208L135.978 83.424C135.594 83.168 135.194 82.992 134.778 82.896C134.362 82.8 133.946 82.752 133.53 82.752C132.858 82.752 132.357 82.864 132.026 83.088C131.696 83.3013 131.53 83.5787 131.53 83.92C131.53 84.208 131.626 84.432 131.818 84.592C132.021 84.7413 132.277 84.8587 132.586 84.944C132.906 85.0293 133.258 85.104 133.642 85.168C134.026 85.2213 134.41 85.296 134.794 85.392C135.178 85.4773 135.525 85.6 135.834 85.76C136.154 85.92 136.41 86.144 136.602 86.432C136.805 86.72 136.906 87.104 136.906 87.584C136.906 88.096 136.757 88.5387 136.458 88.912C136.16 89.2853 135.738 89.5787 135.194 89.792C134.65 89.9947 134 90.096 133.242 90.096ZM146.371 90.096C145.646 90.096 145.006 89.9627 144.451 89.696C143.907 89.4293 143.48 89.024 143.171 88.48C142.872 87.9253 142.723 87.232 142.723 86.4V81.52H144.259V86.224C144.259 87.056 144.456 87.68 144.851 88.096C145.256 88.512 145.822 88.72 146.547 88.72C147.08 88.72 147.544 88.6133 147.939 88.4C148.334 88.176 148.638 87.856 148.851 87.44C149.064 87.0133 149.171 86.5013 149.171 85.904V81.52H150.707V90H149.251V87.712L149.491 88.32C149.214 88.8853 148.798 89.3227 148.243 89.632C147.688 89.9413 147.064 90.096 146.371 90.096ZM157.999 81.44C158.692 81.44 159.3 81.5733 159.823 81.84C160.356 82.1067 160.772 82.512 161.071 83.056C161.37 83.6 161.519 84.288 161.519 85.12V90H159.983V85.296C159.983 84.4747 159.78 83.856 159.375 83.44C158.98 83.024 158.42 82.816 157.695 82.816C157.151 82.816 156.676 82.9227 156.271 83.136C155.866 83.3493 155.551 83.664 155.327 84.08C155.114 84.496 155.007 85.0133 155.007 85.632V90H153.471V81.52H154.943V83.808L154.703 83.2C154.98 82.6453 155.407 82.2133 155.983 81.904C156.559 81.5947 157.231 81.44 157.999 81.44ZM164.202 90V78.128H165.738V90H164.202ZM172.142 90.096C171.289 90.096 170.532 89.9093 169.87 89.536C169.209 89.1627 168.686 88.6507 168.302 88C167.918 87.3387 167.726 86.592 167.726 85.76C167.726 84.9173 167.918 84.1707 168.302 83.52C168.686 82.8693 169.209 82.3627 169.87 82C170.532 81.6267 171.289 81.44 172.142 81.44C172.985 81.44 173.737 81.6267 174.398 82C175.07 82.3627 175.593 82.8693 175.966 83.52C176.35 84.16 176.542 84.9067 176.542 85.76C176.542 86.6027 176.35 87.3493 175.966 88C175.593 88.6507 175.07 89.1627 174.398 89.536C173.737 89.9093 172.985 90.096 172.142 90.096ZM172.142 88.752C172.686 88.752 173.172 88.6293 173.598 88.384C174.036 88.1387 174.377 87.792 174.622 87.344C174.868 86.8853 174.99 86.3573 174.99 85.76C174.99 85.152 174.868 84.6293 174.622 84.192C174.377 83.744 174.036 83.3973 173.598 83.152C173.172 82.9067 172.686 82.784 172.142 82.784C171.598 82.784 171.113 82.9067 170.686 83.152C170.26 83.3973 169.918 83.744 169.662 84.192C169.406 84.6293 169.278 85.152 169.278 85.76C169.278 86.3573 169.406 86.8853 169.662 87.344C169.918 87.792 170.26 88.1387 170.686 88.384C171.113 88.6293 171.598 88.752 172.142 88.752ZM182.203 90.096C181.339 90.096 180.565 89.9093 179.883 89.536C179.211 89.1627 178.683 88.6507 178.299 88C177.915 87.3493 177.723 86.6027 177.723 85.76C177.723 84.9173 177.915 84.1707 178.299 83.52C178.683 82.8693 179.211 82.3627 179.883 82C180.565 81.6267 181.339 81.44 182.203 81.44C182.971 81.44 183.653 81.5947 184.251 81.904C184.859 82.2027 185.328 82.6507 185.659 83.248L184.491 84C184.213 83.584 183.872 83.28 183.467 83.088C183.072 82.8853 182.645 82.784 182.187 82.784C181.632 82.784 181.136 82.9067 180.699 83.152C180.261 83.3973 179.915 83.744 179.659 84.192C179.403 84.6293 179.275 85.152 179.275 85.76C179.275 86.368 179.403 86.896 179.659 87.344C179.915 87.792 180.261 88.1387 180.699 88.384C181.136 88.6293 181.632 88.752 182.187 88.752C182.645 88.752 183.072 88.656 183.467 88.464C183.872 88.2613 184.213 87.952 184.491 87.536L185.659 88.272C185.328 88.8587 184.859 89.312 184.251 89.632C183.653 89.9413 182.971 90.096 182.203 90.096ZM188.626 87.952L188.658 85.984L193.538 81.52H195.394L191.65 85.2L190.818 85.904L188.626 87.952ZM187.378 90V78.128H188.914V90H187.378ZM193.858 90L190.53 85.872L191.522 84.64L195.746 90H193.858ZM206.478 90V88.208L206.398 87.872V84.816C206.398 84.1653 206.206 83.664 205.822 83.312C205.449 82.9493 204.883 82.768 204.126 82.768C203.625 82.768 203.134 82.8533 202.654 83.024C202.174 83.184 201.769 83.4027 201.438 83.68L200.798 82.528C201.235 82.176 201.758 81.9093 202.366 81.728C202.985 81.536 203.63 81.44 204.302 81.44C205.465 81.44 206.361 81.7227 206.99 82.288C207.619 82.8533 207.934 83.7173 207.934 84.88V90H206.478ZM203.694 90.096C203.065 90.096 202.51 89.9893 202.03 89.776C201.561 89.5627 201.198 89.2693 200.942 88.896C200.686 88.512 200.558 88.08 200.558 87.6C200.558 87.1413 200.665 86.7253 200.878 86.352C201.102 85.9787 201.459 85.68 201.95 85.456C202.451 85.232 203.123 85.12 203.966 85.12H206.654V86.224H204.03C203.262 86.224 202.745 86.352 202.478 86.608C202.211 86.864 202.078 87.1733 202.078 87.536C202.078 87.952 202.243 88.288 202.574 88.544C202.905 88.7893 203.363 88.912 203.95 88.912C204.526 88.912 205.027 88.784 205.454 88.528C205.891 88.272 206.206 87.8987 206.398 87.408L206.702 88.464C206.499 88.9653 206.142 89.3653 205.63 89.664C205.118 89.952 204.473 90.096 203.694 90.096ZM215.145 81.44C215.838 81.44 216.446 81.5733 216.969 81.84C217.502 82.1067 217.918 82.512 218.217 83.056C218.515 83.6 218.665 84.288 218.665 85.12V90H217.129V85.296C217.129 84.4747 216.926 83.856 216.521 83.44C216.126 83.024 215.566 82.816 214.841 82.816C214.297 82.816 213.822 82.9227 213.417 83.136C213.011 83.3493 212.697 83.664 212.473 84.08C212.259 84.496 212.153 85.0133 212.153 85.632V90H210.617V81.52H212.089V83.808L211.849 83.2C212.126 82.6453 212.553 82.2133 213.129 81.904C213.705 81.5947 214.377 81.44 215.145 81.44ZM230.748 90V88.208L230.668 87.872V84.816C230.668 84.1653 230.476 83.664 230.092 83.312C229.719 82.9493 229.153 82.768 228.396 82.768C227.895 82.768 227.404 82.8533 226.924 83.024C226.444 83.184 226.039 83.4027 225.708 83.68L225.068 82.528C225.505 82.176 226.028 81.9093 226.636 81.728C227.255 81.536 227.9 81.44 228.572 81.44C229.735 81.44 230.631 81.7227 231.26 82.288C231.889 82.8533 232.204 83.7173 232.204 84.88V90H230.748ZM227.964 90.096C227.335 90.096 226.78 89.9893 226.3 89.776C225.831 89.5627 225.468 89.2693 225.212 88.896C224.956 88.512 224.828 88.08 224.828 87.6C224.828 87.1413 224.935 86.7253 225.148 86.352C225.372 85.9787 225.729 85.68 226.22 85.456C226.721 85.232 227.393 85.12 228.236 85.12H230.924V86.224H228.3C227.532 86.224 227.015 86.352 226.748 86.608C226.481 86.864 226.348 87.1733 226.348 87.536C226.348 87.952 226.513 88.288 226.844 88.544C227.175 88.7893 227.633 88.912 228.22 88.912C228.796 88.912 229.297 88.784 229.724 88.528C230.161 88.272 230.476 87.8987 230.668 87.408L230.972 88.464C230.769 88.9653 230.412 89.3653 229.9 89.664C229.388 89.952 228.743 90.096 227.964 90.096ZM238.583 90.096C237.719 90.096 236.945 89.9093 236.263 89.536C235.591 89.1627 235.063 88.6507 234.679 88C234.295 87.3493 234.103 86.6027 234.103 85.76C234.103 84.9173 234.295 84.1707 234.679 83.52C235.063 82.8693 235.591 82.3627 236.263 82C236.945 81.6267 237.719 81.44 238.583 81.44C239.351 81.44 240.033 81.5947 240.631 81.904C241.239 82.2027 241.708 82.6507 242.039 83.248L240.871 84C240.593 83.584 240.252 83.28 239.847 83.088C239.452 82.8853 239.025 82.784 238.567 82.784C238.012 82.784 237.516 82.9067 237.079 83.152C236.641 83.3973 236.295 83.744 236.039 84.192C235.783 84.6293 235.655 85.152 235.655 85.76C235.655 86.368 235.783 86.896 236.039 87.344C236.295 87.792 236.641 88.1387 237.079 88.384C237.516 88.6293 238.012 88.752 238.567 88.752C239.025 88.752 239.452 88.656 239.847 88.464C240.252 88.2613 240.593 87.952 240.871 87.536L242.039 88.272C241.708 88.8587 241.239 89.312 240.631 89.632C240.033 89.9413 239.351 90.096 238.583 90.096ZM247.438 90.096C246.574 90.096 245.801 89.9093 245.118 89.536C244.446 89.1627 243.918 88.6507 243.534 88C243.15 87.3493 242.958 86.6027 242.958 85.76C242.958 84.9173 243.15 84.1707 243.534 83.52C243.918 82.8693 244.446 82.3627 245.118 82C245.801 81.6267 246.574 81.44 247.438 81.44C248.206 81.44 248.889 81.5947 249.486 81.904C250.094 82.2027 250.564 82.6507 250.894 83.248L249.726 84C249.449 83.584 249.108 83.28 248.702 83.088C248.308 82.8853 247.881 82.784 247.422 82.784C246.868 82.784 246.372 82.9067 245.934 83.152C245.497 83.3973 245.15 83.744 244.894 84.192C244.638 84.6293 244.51 85.152 244.51 85.76C244.51 86.368 244.638 86.896 244.894 87.344C245.15 87.792 245.497 88.1387 245.934 88.384C246.372 88.6293 246.868 88.752 247.422 88.752C247.881 88.752 248.308 88.656 248.702 88.464C249.108 88.2613 249.449 87.952 249.726 87.536L250.894 88.272C250.564 88.8587 250.094 89.312 249.486 89.632C248.889 89.9413 248.206 90.096 247.438 90.096ZM256.374 90.096C255.467 90.096 254.667 89.9093 253.974 89.536C253.291 89.1627 252.758 88.6507 252.374 88C252.001 87.3493 251.814 86.6027 251.814 85.76C251.814 84.9173 251.995 84.1707 252.358 83.52C252.731 82.8693 253.238 82.3627 253.878 82C254.529 81.6267 255.259 81.44 256.07 81.44C256.891 81.44 257.617 81.6213 258.246 81.984C258.875 82.3467 259.366 82.8587 259.718 83.52C260.081 84.1707 260.262 84.9333 260.262 85.808C260.262 85.872 260.257 85.9467 260.246 86.032C260.246 86.1173 260.241 86.1973 260.23 86.272H253.014V85.168H259.43L258.806 85.552C258.817 85.008 258.705 84.5227 258.47 84.096C258.235 83.6693 257.91 83.3387 257.494 83.104C257.089 82.8587 256.614 82.736 256.07 82.736C255.537 82.736 255.062 82.8587 254.646 83.104C254.23 83.3387 253.905 83.6747 253.67 84.112C253.435 84.5387 253.318 85.0293 253.318 85.584V85.84C253.318 86.4053 253.446 86.912 253.702 87.36C253.969 87.7973 254.337 88.1387 254.806 88.384C255.275 88.6293 255.814 88.752 256.422 88.752C256.923 88.752 257.377 88.6667 257.782 88.496C258.198 88.3253 258.561 88.0693 258.87 87.728L259.718 88.72C259.334 89.168 258.854 89.5093 258.278 89.744C257.713 89.9787 257.078 90.096 256.374 90.096ZM264.667 90.096C263.963 90.096 263.291 90 262.651 89.808C262.021 89.616 261.525 89.3813 261.163 89.104L261.803 87.888C262.165 88.1333 262.613 88.3413 263.147 88.512C263.68 88.6827 264.224 88.768 264.779 88.768C265.493 88.768 266.005 88.6667 266.315 88.464C266.635 88.2613 266.795 87.9787 266.795 87.616C266.795 87.3493 266.699 87.1413 266.507 86.992C266.315 86.8427 266.059 86.7307 265.739 86.656C265.429 86.5813 265.083 86.5173 264.699 86.464C264.315 86.4 263.931 86.3253 263.547 86.24C263.163 86.144 262.811 86.016 262.491 85.856C262.171 85.6853 261.915 85.456 261.723 85.168C261.531 84.8693 261.435 84.4747 261.435 83.984C261.435 83.472 261.579 83.024 261.867 82.64C262.155 82.256 262.56 81.9627 263.083 81.76C263.616 81.5467 264.245 81.44 264.971 81.44C265.525 81.44 266.085 81.5093 266.651 81.648C267.227 81.776 267.696 81.9627 268.059 82.208L267.403 83.424C267.019 83.168 266.619 82.992 266.203 82.896C265.787 82.8 265.371 82.752 264.955 82.752C264.283 82.752 263.781 82.864 263.451 83.088C263.12 83.3013 262.955 83.5787 262.955 83.92C262.955 84.208 263.051 84.432 263.243 84.592C263.445 84.7413 263.701 84.8587 264.011 84.944C264.331 85.0293 264.683 85.104 265.067 85.168C265.451 85.2213 265.835 85.296 266.219 85.392C266.603 85.4773 266.949 85.6 267.259 85.76C267.579 85.92 267.835 86.144 268.027 86.432C268.229 86.72 268.331 87.104 268.331 87.584C268.331 88.096 268.181 88.5387 267.883 88.912C267.584 89.2853 267.163 89.5787 266.619 89.792C266.075 89.9947 265.424 90.096 264.667 90.096ZM272.522 90.096C271.818 90.096 271.146 90 270.506 89.808C269.877 89.616 269.381 89.3813 269.018 89.104L269.658 87.888C270.021 88.1333 270.469 88.3413 271.002 88.512C271.536 88.6827 272.08 88.768 272.634 88.768C273.349 88.768 273.861 88.6667 274.17 88.464C274.49 88.2613 274.65 87.9787 274.65 87.616C274.65 87.3493 274.554 87.1413 274.362 86.992C274.17 86.8427 273.914 86.7307 273.594 86.656C273.285 86.5813 272.938 86.5173 272.554 86.464C272.17 86.4 271.786 86.3253 271.402 86.24C271.018 86.144 270.666 86.016 270.346 85.856C270.026 85.6853 269.77 85.456 269.578 85.168C269.386 84.8693 269.29 84.4747 269.29 83.984C269.29 83.472 269.434 83.024 269.722 82.64C270.01 82.256 270.416 81.9627 270.938 81.76C271.472 81.5467 272.101 81.44 272.826 81.44C273.381 81.44 273.941 81.5093 274.506 81.648C275.082 81.776 275.552 81.9627 275.914 82.208L275.258 83.424C274.874 83.168 274.474 82.992 274.058 82.896C273.642 82.8 273.226 82.752 272.81 82.752C272.138 82.752 271.637 82.864 271.306 83.088C270.976 83.3013 270.81 83.5787 270.81 83.92C270.81 84.208 270.906 84.432 271.098 84.592C271.301 84.7413 271.557 84.8587 271.866 84.944C272.186 85.0293 272.538 85.104 272.922 85.168C273.306 85.2213 273.69 85.296 274.074 85.392C274.458 85.4773 274.805 85.6 275.114 85.76C275.434 85.92 275.69 86.144 275.882 86.432C276.085 86.72 276.186 87.104 276.186 87.584C276.186 88.096 276.037 88.5387 275.738 88.912C275.44 89.2853 275.018 89.5787 274.474 89.792C273.93 89.9947 273.28 90.096 272.522 90.096ZM286.579 90.096C285.875 90.096 285.23 89.936 284.643 89.616C284.067 89.2853 283.603 88.8 283.251 88.16C282.91 87.52 282.739 86.72 282.739 85.76C282.739 84.8 282.904 84 283.235 83.36C283.576 82.72 284.035 82.24 284.611 81.92C285.198 81.6 285.854 81.44 286.579 81.44C287.411 81.44 288.147 81.6213 288.787 81.984C289.427 82.3467 289.934 82.8533 290.307 83.504C290.68 84.144 290.867 84.896 290.867 85.76C290.867 86.624 290.68 87.3813 290.307 88.032C289.934 88.6827 289.427 89.1893 288.787 89.552C288.147 89.9147 287.411 90.096 286.579 90.096ZM282.083 93.104V81.52H283.555V83.808L283.459 85.776L283.619 87.744V93.104H282.083ZM286.451 88.752C286.995 88.752 287.48 88.6293 287.907 88.384C288.344 88.1387 288.686 87.792 288.931 87.344C289.187 86.8853 289.315 86.3573 289.315 85.76C289.315 85.152 289.187 84.6293 288.931 84.192C288.686 83.744 288.344 83.3973 287.907 83.152C287.48 82.9067 286.995 82.784 286.451 82.784C285.918 82.784 285.432 82.9067 284.995 83.152C284.568 83.3973 284.227 83.744 283.971 84.192C283.726 84.6293 283.603 85.152 283.603 85.76C283.603 86.3573 283.726 86.8853 283.971 87.344C284.227 87.792 284.568 88.1387 284.995 88.384C285.432 88.6293 285.918 88.752 286.451 88.752ZM298.015 90V88.208L297.935 87.872V84.816C297.935 84.1653 297.743 83.664 297.359 83.312C296.986 82.9493 296.42 82.768 295.663 82.768C295.162 82.768 294.671 82.8533 294.191 83.024C293.711 83.184 293.306 83.4027 292.975 83.68L292.335 82.528C292.772 82.176 293.295 81.9093 293.903 81.728C294.522 81.536 295.167 81.44 295.839 81.44C297.002 81.44 297.898 81.7227 298.527 82.288C299.156 82.8533 299.471 83.7173 299.471 84.88V90H298.015ZM295.231 90.096C294.602 90.096 294.047 89.9893 293.567 89.776C293.098 89.5627 292.735 89.2693 292.479 88.896C292.223 88.512 292.095 88.08 292.095 87.6C292.095 87.1413 292.202 86.7253 292.415 86.352C292.639 85.9787 292.996 85.68 293.487 85.456C293.988 85.232 294.66 85.12 295.503 85.12H298.191V86.224H295.567C294.799 86.224 294.282 86.352 294.015 86.608C293.748 86.864 293.615 87.1733 293.615 87.536C293.615 87.952 293.78 88.288 294.111 88.544C294.442 88.7893 294.9 88.912 295.487 88.912C296.063 88.912 296.564 88.784 296.991 88.528C297.428 88.272 297.743 87.8987 297.935 87.408L298.239 88.464C298.036 88.9653 297.679 89.3653 297.167 89.664C296.655 89.952 296.01 90.096 295.231 90.096ZM304.586 90.096C303.882 90.096 303.21 90 302.57 89.808C301.94 89.616 301.444 89.3813 301.082 89.104L301.722 87.888C302.084 88.1333 302.532 88.3413 303.066 88.512C303.599 88.6827 304.143 88.768 304.698 88.768C305.412 88.768 305.924 88.6667 306.234 88.464C306.554 88.2613 306.714 87.9787 306.714 87.616C306.714 87.3493 306.618 87.1413 306.426 86.992C306.234 86.8427 305.978 86.7307 305.658 86.656C305.348 86.5813 305.002 86.5173 304.618 86.464C304.234 86.4 303.85 86.3253 303.466 86.24C303.082 86.144 302.73 86.016 302.41 85.856C302.09 85.6853 301.834 85.456 301.642 85.168C301.45 84.8693 301.354 84.4747 301.354 83.984C301.354 83.472 301.498 83.024 301.786 82.64C302.074 82.256 302.479 81.9627 303.002 81.76C303.535 81.5467 304.164 81.44 304.89 81.44C305.444 81.44 306.004 81.5093 306.57 81.648C307.146 81.776 307.615 81.9627 307.978 82.208L307.322 83.424C306.938 83.168 306.538 82.992 306.122 82.896C305.706 82.8 305.29 82.752 304.874 82.752C304.202 82.752 303.7 82.864 303.37 83.088C303.039 83.3013 302.874 83.5787 302.874 83.92C302.874 84.208 302.97 84.432 303.162 84.592C303.364 84.7413 303.62 84.8587 303.93 84.944C304.25 85.0293 304.602 85.104 304.986 85.168C305.37 85.2213 305.754 85.296 306.138 85.392C306.522 85.4773 306.868 85.6 307.178 85.76C307.498 85.92 307.754 86.144 307.946 86.432C308.148 86.72 308.25 87.104 308.25 87.584C308.25 88.096 308.1 88.5387 307.802 88.912C307.503 89.2853 307.082 89.5787 306.538 89.792C305.994 89.9947 305.343 90.096 304.586 90.096ZM312.441 90.096C311.737 90.096 311.065 90 310.425 89.808C309.796 89.616 309.3 89.3813 308.937 89.104L309.577 87.888C309.94 88.1333 310.388 88.3413 310.921 88.512C311.454 88.6827 311.998 88.768 312.553 88.768C313.268 88.768 313.78 88.6667 314.089 88.464C314.409 88.2613 314.569 87.9787 314.569 87.616C314.569 87.3493 314.473 87.1413 314.281 86.992C314.089 86.8427 313.833 86.7307 313.513 86.656C313.204 86.5813 312.857 86.5173 312.473 86.464C312.089 86.4 311.705 86.3253 311.321 86.24C310.937 86.144 310.585 86.016 310.265 85.856C309.945 85.6853 309.689 85.456 309.497 85.168C309.305 84.8693 309.209 84.4747 309.209 83.984C309.209 83.472 309.353 83.024 309.641 82.64C309.929 82.256 310.334 81.9627 310.857 81.76C311.39 81.5467 312.02 81.44 312.745 81.44C313.3 81.44 313.86 81.5093 314.425 81.648C315.001 81.776 315.47 81.9627 315.833 82.208L315.177 83.424C314.793 83.168 314.393 82.992 313.977 82.896C313.561 82.8 313.145 82.752 312.729 82.752C312.057 82.752 311.556 82.864 311.225 83.088C310.894 83.3013 310.729 83.5787 310.729 83.92C310.729 84.208 310.825 84.432 311.017 84.592C311.22 84.7413 311.476 84.8587 311.785 84.944C312.105 85.0293 312.457 85.104 312.841 85.168C313.225 85.2213 313.609 85.296 313.993 85.392C314.377 85.4773 314.724 85.6 315.033 85.76C315.353 85.92 315.609 86.144 315.801 86.432C316.004 86.72 316.105 87.104 316.105 87.584C316.105 88.096 315.956 88.5387 315.657 88.912C315.358 89.2853 314.937 89.5787 314.393 89.792C313.849 89.9947 313.198 90.096 312.441 90.096ZM322.226 90V80.768C322.226 79.936 322.466 79.2747 322.946 78.784C323.436 78.2827 324.13 78.032 325.026 78.032C325.356 78.032 325.671 78.0747 325.97 78.16C326.279 78.2347 326.54 78.3573 326.754 78.528L326.29 79.696C326.13 79.568 325.948 79.472 325.746 79.408C325.543 79.3333 325.33 79.296 325.106 79.296C324.658 79.296 324.316 79.424 324.082 79.68C323.847 79.9253 323.73 80.2933 323.73 80.784V81.92L323.762 82.624V90H322.226ZM320.786 82.784V81.52H326.194V82.784H320.786ZM330.989 90.096C330.136 90.096 329.379 89.9093 328.717 89.536C328.056 89.1627 327.533 88.6507 327.149 88C326.765 87.3387 326.573 86.592 326.573 85.76C326.573 84.9173 326.765 84.1707 327.149 83.52C327.533 82.8693 328.056 82.3627 328.717 82C329.379 81.6267 330.136 81.44 330.989 81.44C331.832 81.44 332.584 81.6267 333.245 82C333.917 82.3627 334.44 82.8693 334.813 83.52C335.197 84.16 335.389 84.9067 335.389 85.76C335.389 86.6027 335.197 87.3493 334.813 88C334.44 88.6507 333.917 89.1627 333.245 89.536C332.584 89.9093 331.832 90.096 330.989 90.096ZM330.989 88.752C331.533 88.752 332.019 88.6293 332.445 88.384C332.883 88.1387 333.224 87.792 333.469 87.344C333.715 86.8853 333.837 86.3573 333.837 85.76C333.837 85.152 333.715 84.6293 333.469 84.192C333.224 83.744 332.883 83.3973 332.445 83.152C332.019 82.9067 331.533 82.784 330.989 82.784C330.445 82.784 329.96 82.9067 329.533 83.152C329.107 83.3973 328.765 83.744 328.509 84.192C328.253 84.6293 328.125 85.152 328.125 85.76C328.125 86.3573 328.253 86.8853 328.509 87.344C328.765 87.792 329.107 88.1387 329.533 88.384C329.96 88.6293 330.445 88.752 330.989 88.752ZM337.354 90V81.52H338.826V83.824L338.682 83.248C338.916 82.6613 339.311 82.2133 339.866 81.904C340.42 81.5947 341.103 81.44 341.914 81.44V82.928C341.85 82.9173 341.786 82.912 341.722 82.912C341.668 82.912 341.615 82.912 341.562 82.912C340.74 82.912 340.09 83.1573 339.61 83.648C339.13 84.1387 338.89 84.848 338.89 85.776V90H337.354ZM350.805 90.096C349.952 90.096 349.29 89.8667 348.821 89.408C348.352 88.9493 348.117 88.2933 348.117 87.44V79.664H349.653V87.376C349.653 87.8347 349.765 88.1867 349.989 88.432C350.224 88.6773 350.554 88.8 350.981 88.8C351.461 88.8 351.861 88.6667 352.181 88.4L352.661 89.504C352.426 89.7067 352.144 89.856 351.813 89.952C351.493 90.048 351.157 90.096 350.805 90.096ZM346.677 82.784V81.52H352.085V82.784H346.677ZM358.886 81.44C359.579 81.44 360.187 81.5733 360.71 81.84C361.243 82.1067 361.659 82.512 361.958 83.056C362.257 83.6 362.406 84.288 362.406 85.12V90H360.87V85.296C360.87 84.4747 360.667 83.856 360.262 83.44C359.867 83.024 359.307 82.816 358.582 82.816C358.038 82.816 357.563 82.9227 357.158 83.136C356.753 83.3493 356.438 83.664 356.214 84.08C356.001 84.496 355.894 85.0133 355.894 85.632V90H354.358V78.128H355.894V83.808L355.59 83.2C355.867 82.6453 356.294 82.2133 356.87 81.904C357.446 81.5947 358.118 81.44 358.886 81.44ZM368.865 90.096C367.958 90.096 367.158 89.9093 366.465 89.536C365.782 89.1627 365.249 88.6507 364.865 88C364.491 87.3493 364.305 86.6027 364.305 85.76C364.305 84.9173 364.486 84.1707 364.849 83.52C365.222 82.8693 365.729 82.3627 366.369 82C367.019 81.6267 367.75 81.44 368.561 81.44C369.382 81.44 370.107 81.6213 370.737 81.984C371.366 82.3467 371.857 82.8587 372.209 83.52C372.571 84.1707 372.753 84.9333 372.753 85.808C372.753 85.872 372.747 85.9467 372.737 86.032C372.737 86.1173 372.731 86.1973 372.721 86.272H365.505V85.168H371.921L371.297 85.552C371.307 85.008 371.195 84.5227 370.961 84.096C370.726 83.6693 370.401 83.3387 369.985 83.104C369.579 82.8587 369.105 82.736 368.561 82.736C368.027 82.736 367.553 82.8587 367.137 83.104C366.721 83.3387 366.395 83.6747 366.161 84.112C365.926 84.5387 365.809 85.0293 365.809 85.584V85.84C365.809 86.4053 365.937 86.912 366.193 87.36C366.459 87.7973 366.827 88.1387 367.297 88.384C367.766 88.6293 368.305 88.752 368.913 88.752C369.414 88.752 369.867 88.6667 370.273 88.496C370.689 88.3253 371.051 88.0693 371.361 87.728L372.209 88.72C371.825 89.168 371.345 89.5093 370.769 89.744C370.203 89.9787 369.569 90.096 368.865 90.096ZM384.126 90V88.208L384.046 87.872V84.816C384.046 84.1653 383.854 83.664 383.47 83.312C383.097 82.9493 382.532 82.768 381.774 82.768C381.273 82.768 380.782 82.8533 380.302 83.024C379.822 83.184 379.417 83.4027 379.086 83.68L378.446 82.528C378.884 82.176 379.406 81.9093 380.014 81.728C380.633 81.536 381.278 81.44 381.95 81.44C383.113 81.44 384.009 81.7227 384.638 82.288C385.268 82.8533 385.582 83.7173 385.582 84.88V90H384.126ZM381.342 90.096C380.713 90.096 380.158 89.9893 379.678 89.776C379.209 89.5627 378.846 89.2693 378.59 88.896C378.334 88.512 378.206 88.08 378.206 87.6C378.206 87.1413 378.313 86.7253 378.526 86.352C378.75 85.9787 379.108 85.68 379.598 85.456C380.1 85.232 380.772 85.12 381.614 85.12H384.302V86.224H381.678C380.91 86.224 380.393 86.352 380.126 86.608C379.86 86.864 379.726 87.1733 379.726 87.536C379.726 87.952 379.892 88.288 380.222 88.544C380.553 88.7893 381.012 88.912 381.598 88.912C382.174 88.912 382.676 88.784 383.102 88.528C383.54 88.272 383.854 87.8987 384.046 87.408L384.35 88.464C384.148 88.9653 383.79 89.3653 383.278 89.664C382.766 89.952 382.121 90.096 381.342 90.096ZM388.265 90V78.128H389.801V90H388.265ZM397.07 90.096C396.366 90.096 395.72 89.936 395.134 89.616C394.558 89.2853 394.094 88.8 393.742 88.16C393.4 87.52 393.23 86.72 393.23 85.76C393.23 84.8 393.395 84 393.726 83.36C394.067 82.72 394.526 82.24 395.102 81.92C395.688 81.6 396.344 81.44 397.07 81.44C397.902 81.44 398.638 81.6213 399.278 81.984C399.918 82.3467 400.424 82.8533 400.798 83.504C401.171 84.144 401.358 84.896 401.358 85.76C401.358 86.624 401.171 87.3813 400.798 88.032C400.424 88.6827 399.918 89.1893 399.278 89.552C398.638 89.9147 397.902 90.096 397.07 90.096ZM392.574 93.104V81.52H394.046V83.808L393.95 85.776L394.11 87.744V93.104H392.574ZM396.942 88.752C397.486 88.752 397.971 88.6293 398.398 88.384C398.835 88.1387 399.176 87.792 399.422 87.344C399.678 86.8853 399.806 86.3573 399.806 85.76C399.806 85.152 399.678 84.6293 399.422 84.192C399.176 83.744 398.835 83.3973 398.398 83.152C397.971 82.9067 397.486 82.784 396.942 82.784C396.408 82.784 395.923 82.9067 395.486 83.152C395.059 83.3973 394.718 83.744 394.462 84.192C394.216 84.6293 394.094 85.152 394.094 85.76C394.094 86.3573 394.216 86.8853 394.462 87.344C394.718 87.792 395.059 88.1387 395.486 88.384C395.923 88.6293 396.408 88.752 396.942 88.752ZM407.848 81.44C408.541 81.44 409.149 81.5733 409.672 81.84C410.205 82.1067 410.621 82.512 410.92 83.056C411.218 83.6 411.368 84.288 411.368 85.12V90H409.832V85.296C409.832 84.4747 409.629 83.856 409.224 83.44C408.829 83.024 408.269 82.816 407.544 82.816C407 82.816 406.525 82.9227 406.12 83.136C405.714 83.3493 405.4 83.664 405.176 84.08C404.962 84.496 404.856 85.0133 404.856 85.632V90H403.32V78.128H404.856V83.808L404.552 83.2C404.829 82.6453 405.256 82.2133 405.832 81.904C406.408 81.5947 407.08 81.44 407.848 81.44ZM419.314 90V88.208L419.234 87.872V84.816C419.234 84.1653 419.042 83.664 418.658 83.312C418.285 82.9493 417.72 82.768 416.962 82.768C416.461 82.768 415.97 82.8533 415.49 83.024C415.01 83.184 414.605 83.4027 414.274 83.68L413.634 82.528C414.072 82.176 414.594 81.9093 415.202 81.728C415.821 81.536 416.466 81.44 417.138 81.44C418.301 81.44 419.197 81.7227 419.826 82.288C420.456 82.8533 420.77 83.7173 420.77 84.88V90H419.314ZM416.53 90.096C415.901 90.096 415.346 89.9893 414.866 89.776C414.397 89.5627 414.034 89.2693 413.778 88.896C413.522 88.512 413.394 88.08 413.394 87.6C413.394 87.1413 413.501 86.7253 413.714 86.352C413.938 85.9787 414.296 85.68 414.786 85.456C415.288 85.232 415.96 85.12 416.802 85.12H419.49V86.224H416.866C416.098 86.224 415.581 86.352 415.314 86.608C415.048 86.864 414.914 87.1733 414.914 87.536C414.914 87.952 415.08 88.288 415.41 88.544C415.741 88.7893 416.2 88.912 416.786 88.912C417.362 88.912 417.864 88.784 418.29 88.528C418.728 88.272 419.042 87.8987 419.234 87.408L419.538 88.464C419.336 88.9653 418.978 89.3653 418.466 89.664C417.954 89.952 417.309 90.096 416.53 90.096ZM431.302 93.2C430.523 93.2 429.766 93.088 429.03 92.864C428.304 92.6507 427.712 92.3413 427.254 91.936L427.99 90.752C428.384 91.0933 428.87 91.36 429.446 91.552C430.022 91.7547 430.624 91.856 431.254 91.856C432.256 91.856 432.992 91.6213 433.462 91.152C433.931 90.6827 434.166 89.968 434.166 89.008V87.216L434.326 85.536L434.246 83.84V81.52H435.702V88.848C435.702 90.3413 435.328 91.44 434.582 92.144C433.835 92.848 432.742 93.2 431.302 93.2ZM431.11 89.648C430.288 89.648 429.552 89.4773 428.902 89.136C428.262 88.784 427.75 88.2987 427.366 87.68C426.992 87.0613 426.806 86.3467 426.806 85.536C426.806 84.7147 426.992 84 427.366 83.392C427.75 82.7733 428.262 82.2933 428.902 81.952C429.552 81.6107 430.288 81.44 431.11 81.44C431.835 81.44 432.496 81.5893 433.094 81.888C433.691 82.176 434.166 82.624 434.518 83.232C434.88 83.84 435.062 84.608 435.062 85.536C435.062 86.4533 434.88 87.216 434.518 87.824C434.166 88.432 433.691 88.8907 433.094 89.2C432.496 89.4987 431.835 89.648 431.11 89.648ZM431.286 88.304C431.851 88.304 432.352 88.1867 432.79 87.952C433.227 87.7173 433.568 87.392 433.814 86.976C434.07 86.56 434.198 86.08 434.198 85.536C434.198 84.992 434.07 84.512 433.814 84.096C433.568 83.68 433.227 83.36 432.79 83.136C432.352 82.9013 431.851 82.784 431.286 82.784C430.72 82.784 430.214 82.9013 429.766 83.136C429.328 83.36 428.982 83.68 428.726 84.096C428.48 84.512 428.358 84.992 428.358 85.536C428.358 86.08 428.48 86.56 428.726 86.976C428.982 87.392 429.328 87.7173 429.766 87.952C430.214 88.1867 430.72 88.304 431.286 88.304ZM443.741 90V88.208L443.661 87.872V84.816C443.661 84.1653 443.469 83.664 443.085 83.312C442.711 82.9493 442.146 82.768 441.389 82.768C440.887 82.768 440.397 82.8533 439.917 83.024C439.437 83.184 439.031 83.4027 438.701 83.68L438.061 82.528C438.498 82.176 439.021 81.9093 439.629 81.728C440.247 81.536 440.893 81.44 441.565 81.44C442.727 81.44 443.623 81.7227 444.253 82.288C444.882 82.8533 445.197 83.7173 445.197 84.88V90H443.741ZM440.957 90.096C440.327 90.096 439.773 89.9893 439.293 89.776C438.823 89.5627 438.461 89.2693 438.205 88.896C437.949 88.512 437.821 88.08 437.821 87.6C437.821 87.1413 437.927 86.7253 438.141 86.352C438.365 85.9787 438.722 85.68 439.213 85.456C439.714 85.232 440.386 85.12 441.229 85.12H443.917V86.224H441.293C440.525 86.224 440.007 86.352 439.741 86.608C439.474 86.864 439.341 87.1733 439.341 87.536C439.341 87.952 439.506 88.288 439.837 88.544C440.167 88.7893 440.626 88.912 441.213 88.912C441.789 88.912 442.29 88.784 442.717 88.528C443.154 88.272 443.469 87.8987 443.661 87.408L443.965 88.464C443.762 88.9653 443.405 89.3653 442.893 89.664C442.381 89.952 441.735 90.096 440.957 90.096ZM458.487 81.44C459.17 81.44 459.772 81.5733 460.295 81.84C460.818 82.1067 461.223 82.512 461.511 83.056C461.81 83.6 461.959 84.288 461.959 85.12V90H460.423V85.296C460.423 84.4747 460.231 83.856 459.847 83.44C459.463 83.024 458.924 82.816 458.231 82.816C457.719 82.816 457.271 82.9227 456.887 83.136C456.503 83.3493 456.204 83.664 455.991 84.08C455.788 84.496 455.687 85.0133 455.687 85.632V90H454.151V85.296C454.151 84.4747 453.959 83.856 453.575 83.44C453.202 83.024 452.663 82.816 451.959 82.816C451.458 82.816 451.015 82.9227 450.631 83.136C450.247 83.3493 449.948 83.664 449.735 84.08C449.522 84.496 449.415 85.0133 449.415 85.632V90H447.879V81.52H449.351V83.776L449.111 83.2C449.378 82.6453 449.788 82.2133 450.343 81.904C450.898 81.5947 451.543 81.44 452.279 81.44C453.09 81.44 453.788 81.6427 454.375 82.048C454.962 82.4427 455.346 83.0453 455.527 83.856L454.903 83.6C455.159 82.9493 455.607 82.4267 456.247 82.032C456.887 81.6373 457.634 81.44 458.487 81.44ZM468.401 90.096C467.495 90.096 466.695 89.9093 466.001 89.536C465.319 89.1627 464.785 88.6507 464.401 88C464.028 87.3493 463.841 86.6027 463.841 85.76C463.841 84.9173 464.023 84.1707 464.385 83.52C464.759 82.8693 465.265 82.3627 465.905 82C466.556 81.6267 467.287 81.44 468.097 81.44C468.919 81.44 469.644 81.6213 470.273 81.984C470.903 82.3467 471.393 82.8587 471.745 83.52C472.108 84.1707 472.289 84.9333 472.289 85.808C472.289 85.872 472.284 85.9467 472.273 86.032C472.273 86.1173 472.268 86.1973 472.257 86.272H465.041V85.168H471.457L470.833 85.552C470.844 85.008 470.732 84.5227 470.497 84.096C470.263 83.6693 469.937 83.3387 469.521 83.104C469.116 82.8587 468.641 82.736 468.097 82.736C467.564 82.736 467.089 82.8587 466.673 83.104C466.257 83.3387 465.932 83.6747 465.697 84.112C465.463 84.5387 465.345 85.0293 465.345 85.584V85.84C465.345 86.4053 465.473 86.912 465.729 87.36C465.996 87.7973 466.364 88.1387 466.833 88.384C467.303 88.6293 467.841 88.752 468.449 88.752C468.951 88.752 469.404 88.6667 469.809 88.496C470.225 88.3253 470.588 88.0693 470.897 87.728L471.745 88.72C471.361 89.168 470.881 89.5093 470.305 89.744C469.74 89.9787 469.105 90.096 468.401 90.096ZM482.895 90.096C482.191 90.096 481.546 89.936 480.959 89.616C480.383 89.2853 479.919 88.8 479.567 88.16C479.226 87.52 479.055 86.72 479.055 85.76C479.055 84.8 479.22 84 479.551 83.36C479.892 82.72 480.351 82.24 480.927 81.92C481.514 81.6 482.17 81.44 482.895 81.44C483.727 81.44 484.463 81.6213 485.103 81.984C485.743 82.3467 486.25 82.8533 486.623 83.504C486.996 84.144 487.183 84.896 487.183 85.76C487.183 86.624 486.996 87.3813 486.623 88.032C486.25 88.6827 485.743 89.1893 485.103 89.552C484.463 89.9147 483.727 90.096 482.895 90.096ZM478.399 93.104V81.52H479.871V83.808L479.775 85.776L479.935 87.744V93.104H478.399ZM482.767 88.752C483.311 88.752 483.796 88.6293 484.223 88.384C484.66 88.1387 485.002 87.792 485.247 87.344C485.503 86.8853 485.631 86.3573 485.631 85.76C485.631 85.152 485.503 84.6293 485.247 84.192C485.002 83.744 484.66 83.3973 484.223 83.152C483.796 82.9067 483.311 82.784 482.767 82.784C482.234 82.784 481.748 82.9067 481.311 83.152C480.884 83.3973 480.543 83.744 480.287 84.192C480.042 84.6293 479.919 85.152 479.919 85.76C479.919 86.3573 480.042 86.8853 480.287 87.344C480.543 87.792 480.884 88.1387 481.311 88.384C481.748 88.6293 482.234 88.752 482.767 88.752ZM489.145 90V78.128H490.681V90H489.145ZM498.718 90V88.208L498.638 87.872V84.816C498.638 84.1653 498.446 83.664 498.062 83.312C497.689 82.9493 497.123 82.768 496.366 82.768C495.865 82.768 495.374 82.8533 494.894 83.024C494.414 83.184 494.009 83.4027 493.678 83.68L493.038 82.528C493.475 82.176 493.998 81.9093 494.606 81.728C495.225 81.536 495.87 81.44 496.542 81.44C497.705 81.44 498.601 81.7227 499.23 82.288C499.859 82.8533 500.174 83.7173 500.174 84.88V90H498.718ZM495.934 90.096C495.305 90.096 494.75 89.9893 494.27 89.776C493.801 89.5627 493.438 89.2693 493.182 88.896C492.926 88.512 492.798 88.08 492.798 87.6C492.798 87.1413 492.905 86.7253 493.118 86.352C493.342 85.9787 493.699 85.68 494.19 85.456C494.691 85.232 495.363 85.12 496.206 85.12H498.894V86.224H496.27C495.502 86.224 494.985 86.352 494.718 86.608C494.451 86.864 494.318 87.1733 494.318 87.536C494.318 87.952 494.483 88.288 494.814 88.544C495.145 88.7893 495.603 88.912 496.19 88.912C496.766 88.912 497.267 88.784 497.694 88.528C498.131 88.272 498.446 87.8987 498.638 87.408L498.942 88.464C498.739 88.9653 498.382 89.3653 497.87 89.664C497.358 89.952 496.713 90.096 495.934 90.096ZM503.068 93.2C502.663 93.2 502.268 93.1307 501.884 92.992C501.5 92.864 501.17 92.672 500.892 92.416L501.548 91.264C501.762 91.4667 501.996 91.6213 502.252 91.728C502.508 91.8347 502.78 91.888 503.068 91.888C503.442 91.888 503.751 91.792 503.996 91.6C504.242 91.408 504.471 91.0667 504.684 90.576L505.212 89.408L505.372 89.216L508.7 81.52H510.204L506.092 90.848C505.847 91.4453 505.57 91.9147 505.26 92.256C504.962 92.5973 504.631 92.8373 504.268 92.976C503.906 93.1253 503.506 93.2 503.068 93.2ZM505.084 90.272L501.212 81.52H502.812L506.108 89.072L505.084 90.272ZM520.879 90V88.208L520.799 87.872V84.816C520.799 84.1653 520.607 83.664 520.223 83.312C519.849 82.9493 519.284 82.768 518.527 82.768C518.025 82.768 517.535 82.8533 517.055 83.024C516.575 83.184 516.169 83.4027 515.839 83.68L515.199 82.528C515.636 82.176 516.159 81.9093 516.767 81.728C517.385 81.536 518.031 81.44 518.703 81.44C519.865 81.44 520.761 81.7227 521.391 82.288C522.02 82.8533 522.335 83.7173 522.335 84.88V90H520.879ZM518.095 90.096C517.465 90.096 516.911 89.9893 516.431 89.776C515.961 89.5627 515.599 89.2693 515.343 88.896C515.087 88.512 514.959 88.08 514.959 87.6C514.959 87.1413 515.065 86.7253 515.279 86.352C515.503 85.9787 515.86 85.68 516.351 85.456C516.852 85.232 517.524 85.12 518.367 85.12H521.055V86.224H518.431C517.663 86.224 517.145 86.352 516.879 86.608C516.612 86.864 516.479 87.1733 516.479 87.536C516.479 87.952 516.644 88.288 516.975 88.544C517.305 88.7893 517.764 88.912 518.351 88.912C518.927 88.912 519.428 88.784 519.855 88.528C520.292 88.272 520.607 87.8987 520.799 87.408L521.103 88.464C520.9 88.9653 520.543 89.3653 520.031 89.664C519.519 89.952 518.873 90.096 518.095 90.096ZM529.545 81.44C530.239 81.44 530.847 81.5733 531.369 81.84C531.903 82.1067 532.319 82.512 532.617 83.056C532.916 83.6 533.065 84.288 533.065 85.12V90H531.529V85.296C531.529 84.4747 531.327 83.856 530.921 83.44C530.527 83.024 529.967 82.816 529.241 82.816C528.697 82.816 528.223 82.9227 527.817 83.136C527.412 83.3493 527.097 83.664 526.873 84.08C526.66 84.496 526.553 85.0133 526.553 85.632V90H525.017V81.52H526.489V83.808L526.249 83.2C526.527 82.6453 526.953 82.2133 527.529 81.904C528.105 81.5947 528.777 81.44 529.545 81.44ZM539.252 90.096C538.431 90.096 537.695 89.9147 537.044 89.552C536.404 89.1893 535.897 88.6827 535.524 88.032C535.151 87.3813 534.964 86.624 534.964 85.76C534.964 84.896 535.151 84.144 535.524 83.504C535.897 82.8533 536.404 82.3467 537.044 81.984C537.695 81.6213 538.431 81.44 539.252 81.44C539.967 81.44 540.612 81.6 541.188 81.92C541.764 82.24 542.223 82.72 542.564 83.36C542.916 84 543.092 84.8 543.092 85.76C543.092 86.72 542.921 87.52 542.58 88.16C542.249 88.8 541.796 89.2853 541.22 89.616C540.644 89.936 539.988 90.096 539.252 90.096ZM539.38 88.752C539.913 88.752 540.393 88.6293 540.82 88.384C541.257 88.1387 541.599 87.792 541.844 87.344C542.1 86.8853 542.228 86.3573 542.228 85.76C542.228 85.152 542.1 84.6293 541.844 84.192C541.599 83.744 541.257 83.3973 540.82 83.152C540.393 82.9067 539.913 82.784 539.38 82.784C538.836 82.784 538.351 82.9067 537.924 83.152C537.497 83.3973 537.156 83.744 536.9 84.192C536.644 84.6293 536.516 85.152 536.516 85.76C536.516 86.3573 536.644 86.8853 536.9 87.344C537.156 87.792 537.497 88.1387 537.924 88.384C538.351 88.6293 538.836 88.752 539.38 88.752ZM542.276 90V87.712L542.372 85.744L542.212 83.776V78.128H543.748V90H542.276ZM83.4957 108.096C82.5891 108.096 81.7891 107.909 81.0957 107.536C80.4131 107.163 79.8797 106.651 79.4957 106C79.1224 105.349 78.9357 104.603 78.9357 103.76C78.9357 102.917 79.1171 102.171 79.4797 101.52C79.8531 100.869 80.3597 100.363 80.9997 100C81.6504 99.6267 82.3811 99.44 83.1917 99.44C84.0131 99.44 84.7384 99.6213 85.3677 99.984C85.9971 100.347 86.4877 100.859 86.8397 101.52C87.2024 102.171 87.3837 102.933 87.3837 103.808C87.3837 103.872 87.3784 103.947 87.3677 104.032C87.3677 104.117 87.3624 104.197 87.3517 104.272H80.1357V103.168H86.5517L85.9277 103.552C85.9384 103.008 85.8264 102.523 85.5917 102.096C85.3571 101.669 85.0317 101.339 84.6157 101.104C84.2104 100.859 83.7357 100.736 83.1917 100.736C82.6584 100.736 82.1837 100.859 81.7677 101.104C81.3517 101.339 81.0264 101.675 80.7917 102.112C80.5571 102.539 80.4397 103.029 80.4397 103.584V103.84C80.4397 104.405 80.5677 104.912 80.8237 105.36C81.0904 105.797 81.4584 106.139 81.9277 106.384C82.3971 106.629 82.9357 106.752 83.5437 106.752C84.0451 106.752 84.4984 106.667 84.9037 106.496C85.3197 106.325 85.6824 106.069 85.9917 105.728L86.8397 106.72C86.4557 107.168 85.9757 107.509 85.3997 107.744C84.8344 107.979 84.1997 108.096 83.4957 108.096ZM87.8902 108L91.5382 103.264L91.5222 104.048L88.0502 99.52H89.7622L92.4182 103.008H91.7622L94.4182 99.52H96.0982L92.5782 104.08L92.5942 103.264L96.2742 108H94.5302L91.7302 104.288L92.3542 104.384L89.6022 108H87.8902ZM101.205 108.096C100.341 108.096 99.5678 107.909 98.8851 107.536C98.2131 107.163 97.6851 106.651 97.3011 106C96.9171 105.349 96.7251 104.603 96.7251 103.76C96.7251 102.917 96.9171 102.171 97.3011 101.52C97.6851 100.869 98.2131 100.363 98.8851 100C99.5678 99.6267 100.341 99.44 101.205 99.44C101.973 99.44 102.656 99.5947 103.253 99.904C103.861 100.203 104.33 100.651 104.661 101.248L103.493 102C103.216 101.584 102.874 101.28 102.469 101.088C102.074 100.885 101.648 100.784 101.189 100.784C100.634 100.784 100.138 100.907 99.7011 101.152C99.2638 101.397 98.9171 101.744 98.6611 102.192C98.4051 102.629 98.2771 103.152 98.2771 103.76C98.2771 104.368 98.4051 104.896 98.6611 105.344C98.9171 105.792 99.2638 106.139 99.7011 106.384C100.138 106.629 100.634 106.752 101.189 106.752C101.648 106.752 102.074 106.656 102.469 106.464C102.874 106.261 103.216 105.952 103.493 105.536L104.661 106.272C104.33 106.859 103.861 107.312 103.253 107.632C102.656 107.941 101.973 108.096 101.205 108.096ZM106.38 108V96.128H107.916V108H106.38ZM114.257 108.096C113.532 108.096 112.892 107.963 112.337 107.696C111.793 107.429 111.366 107.024 111.057 106.48C110.758 105.925 110.609 105.232 110.609 104.4V99.52H112.145V104.224C112.145 105.056 112.342 105.68 112.737 106.096C113.142 106.512 113.708 106.72 114.433 106.72C114.966 106.72 115.43 106.613 115.825 106.4C116.22 106.176 116.524 105.856 116.737 105.44C116.95 105.013 117.057 104.501 117.057 103.904V99.52H118.593V108H117.137V105.712L117.377 106.32C117.1 106.885 116.684 107.323 116.129 107.632C115.574 107.941 114.95 108.096 114.257 108.096ZM123.789 108.096C123.085 108.096 122.413 108 121.773 107.808C121.144 107.616 120.648 107.381 120.285 107.104L120.925 105.888C121.288 106.133 121.736 106.341 122.269 106.512C122.803 106.683 123.347 106.768 123.901 106.768C124.616 106.768 125.128 106.667 125.437 106.464C125.757 106.261 125.917 105.979 125.917 105.616C125.917 105.349 125.821 105.141 125.629 104.992C125.437 104.843 125.181 104.731 124.861 104.656C124.552 104.581 124.205 104.517 123.821 104.464C123.437 104.4 123.053 104.325 122.669 104.24C122.285 104.144 121.933 104.016 121.613 103.856C121.293 103.685 121.037 103.456 120.845 103.168C120.653 102.869 120.557 102.475 120.557 101.984C120.557 101.472 120.701 101.024 120.989 100.64C121.277 100.256 121.683 99.9627 122.205 99.76C122.739 99.5467 123.368 99.44 124.093 99.44C124.648 99.44 125.208 99.5093 125.773 99.648C126.349 99.776 126.819 99.9627 127.181 100.208L126.525 101.424C126.141 101.168 125.741 100.992 125.325 100.896C124.909 100.8 124.493 100.752 124.077 100.752C123.405 100.752 122.904 100.864 122.573 101.088C122.243 101.301 122.077 101.579 122.077 101.92C122.077 102.208 122.173 102.432 122.365 102.592C122.568 102.741 122.824 102.859 123.133 102.944C123.453 103.029 123.805 103.104 124.189 103.168C124.573 103.221 124.957 103.296 125.341 103.392C125.725 103.477 126.072 103.6 126.381 103.76C126.701 103.92 126.957 104.144 127.149 104.432C127.352 104.72 127.453 105.104 127.453 105.584C127.453 106.096 127.304 106.539 127.005 106.912C126.707 107.285 126.285 107.579 125.741 107.792C125.197 107.995 124.547 108.096 123.789 108.096ZM129.213 108V99.52H130.749V108H129.213ZM129.981 97.888C129.682 97.888 129.432 97.792 129.229 97.6C129.037 97.408 128.941 97.1733 128.941 96.896C128.941 96.608 129.037 96.368 129.229 96.176C129.432 95.984 129.682 95.888 129.981 95.888C130.28 95.888 130.525 95.984 130.717 96.176C130.92 96.3573 131.021 96.5867 131.021 96.864C131.021 97.152 130.925 97.3973 130.733 97.6C130.541 97.792 130.29 97.888 129.981 97.888ZM135.746 108L132.034 99.52H133.634L136.93 107.2H136.162L139.522 99.52H141.026L137.314 108H135.746ZM145.841 108.096C144.934 108.096 144.134 107.909 143.441 107.536C142.758 107.163 142.225 106.651 141.841 106C141.467 105.349 141.281 104.603 141.281 103.76C141.281 102.917 141.462 102.171 141.825 101.52C142.198 100.869 142.705 100.363 143.345 100C143.995 99.6267 144.726 99.44 145.537 99.44C146.358 99.44 147.083 99.6213 147.713 99.984C148.342 100.347 148.833 100.859 149.185 101.52C149.547 102.171 149.729 102.933 149.729 103.808C149.729 103.872 149.723 103.947 149.713 104.032C149.713 104.117 149.707 104.197 149.697 104.272H142.481V103.168H148.897L148.273 103.552C148.283 103.008 148.171 102.523 147.937 102.096C147.702 101.669 147.377 101.339 146.961 101.104C146.555 100.859 146.081 100.736 145.537 100.736C145.003 100.736 144.529 100.859 144.113 101.104C143.697 101.339 143.371 101.675 143.137 102.112C142.902 102.539 142.785 103.029 142.785 103.584V103.84C142.785 104.405 142.913 104.912 143.169 105.36C143.435 105.797 143.803 106.139 144.273 106.384C144.742 106.629 145.281 106.752 145.889 106.752C146.39 106.752 146.843 106.667 147.249 106.496C147.665 106.325 148.027 106.069 148.337 105.728L149.185 106.72C148.801 107.168 148.321 107.509 147.745 107.744C147.179 107.979 146.545 108.096 145.841 108.096ZM156.063 108V96.8H157.375L164.783 106H164.095V96.8H165.695V108H164.383L156.975 98.8H157.663V108H156.063ZM170.327 102.096H176.103V103.472H170.327V102.096ZM170.487 108H168.887V96.8H176.791V98.192H170.487V108ZM181.185 108V98.192H177.345V96.8H186.609V98.192H182.769V108H181.185ZM189.79 108.096C189.086 108.096 188.414 108 187.774 107.808C187.145 107.616 186.649 107.381 186.286 107.104L186.926 105.888C187.289 106.133 187.737 106.341 188.27 106.512C188.804 106.683 189.348 106.768 189.902 106.768C190.617 106.768 191.129 106.667 191.438 106.464C191.758 106.261 191.918 105.979 191.918 105.616C191.918 105.349 191.822 105.141 191.63 104.992C191.438 104.843 191.182 104.731 190.862 104.656C190.553 104.581 190.206 104.517 189.822 104.464C189.438 104.4 189.054 104.325 188.67 104.24C188.286 104.144 187.934 104.016 187.614 103.856C187.294 103.685 187.038 103.456 186.846 103.168C186.654 102.869 186.558 102.475 186.558 101.984C186.558 101.472 186.702 101.024 186.99 100.64C187.278 100.256 187.684 99.9627 188.206 99.76C188.74 99.5467 189.369 99.44 190.094 99.44C190.649 99.44 191.209 99.5093 191.774 99.648C192.35 99.776 192.82 99.9627 193.182 100.208L192.526 101.424C192.142 101.168 191.742 100.992 191.326 100.896C190.91 100.8 190.494 100.752 190.078 100.752C189.406 100.752 188.905 100.864 188.574 101.088C188.244 101.301 188.078 101.579 188.078 101.92C188.078 102.208 188.174 102.432 188.366 102.592C188.569 102.741 188.825 102.859 189.134 102.944C189.454 103.029 189.806 103.104 190.19 103.168C190.574 103.221 190.958 103.296 191.342 103.392C191.726 103.477 192.073 103.6 192.382 103.76C192.702 103.92 192.958 104.144 193.15 104.432C193.353 104.72 193.454 105.104 193.454 105.584C193.454 106.096 193.305 106.539 193.006 106.912C192.708 107.285 192.286 107.579 191.742 107.792C191.198 107.995 190.548 108.096 189.79 108.096ZM199.575 108V98.768C199.575 97.936 199.815 97.2747 200.295 96.784C200.786 96.2827 201.479 96.032 202.375 96.032C202.706 96.032 203.02 96.0747 203.319 96.16C203.628 96.2347 203.89 96.3573 204.103 96.528L203.639 97.696C203.479 97.568 203.298 97.472 203.095 97.408C202.892 97.3333 202.679 97.296 202.455 97.296C202.007 97.296 201.666 97.424 201.431 97.68C201.196 97.9253 201.079 98.2933 201.079 98.784V99.92L201.111 100.624V108H199.575ZM198.135 100.784V99.52H203.543V100.784H198.135ZM204.832 108V99.52H206.304V101.824L206.16 101.248C206.394 100.661 206.789 100.213 207.344 99.904C207.898 99.5947 208.581 99.44 209.392 99.44V100.928C209.328 100.917 209.264 100.912 209.2 100.912C209.146 100.912 209.093 100.912 209.04 100.912C208.218 100.912 207.568 101.157 207.088 101.648C206.608 102.139 206.368 102.848 206.368 103.776V108H204.832ZM214.679 108.096C213.825 108.096 213.068 107.909 212.407 107.536C211.745 107.163 211.223 106.651 210.839 106C210.455 105.339 210.263 104.592 210.263 103.76C210.263 102.917 210.455 102.171 210.839 101.52C211.223 100.869 211.745 100.363 212.407 100C213.068 99.6267 213.825 99.44 214.679 99.44C215.521 99.44 216.273 99.6267 216.935 100C217.607 100.363 218.129 100.869 218.503 101.52C218.887 102.16 219.079 102.907 219.079 103.76C219.079 104.603 218.887 105.349 218.503 106C218.129 106.651 217.607 107.163 216.935 107.536C216.273 107.909 215.521 108.096 214.679 108.096ZM214.679 106.752C215.223 106.752 215.708 106.629 216.135 106.384C216.572 106.139 216.913 105.792 217.159 105.344C217.404 104.885 217.527 104.357 217.527 103.76C217.527 103.152 217.404 102.629 217.159 102.192C216.913 101.744 216.572 101.397 216.135 101.152C215.708 100.907 215.223 100.784 214.679 100.784C214.135 100.784 213.649 100.907 213.223 101.152C212.796 101.397 212.455 101.744 212.199 102.192C211.943 102.629 211.815 103.152 211.815 103.76C211.815 104.357 211.943 104.885 212.199 105.344C212.455 105.792 212.796 106.139 213.223 106.384C213.649 106.629 214.135 106.752 214.679 106.752ZM231.651 99.44C232.334 99.44 232.936 99.5733 233.459 99.84C233.982 100.107 234.387 100.512 234.675 101.056C234.974 101.6 235.123 102.288 235.123 103.12V108H233.587V103.296C233.587 102.475 233.395 101.856 233.011 101.44C232.627 101.024 232.088 100.816 231.395 100.816C230.883 100.816 230.435 100.923 230.051 101.136C229.667 101.349 229.368 101.664 229.155 102.08C228.952 102.496 228.851 103.013 228.851 103.632V108H227.315V103.296C227.315 102.475 227.123 101.856 226.739 101.44C226.366 101.024 225.827 100.816 225.123 100.816C224.622 100.816 224.179 100.923 223.795 101.136C223.411 101.349 223.112 101.664 222.899 102.08C222.686 102.496 222.579 103.013 222.579 103.632V108H221.043V99.52H222.515V101.776L222.275 101.2C222.542 100.645 222.952 100.213 223.507 99.904C224.062 99.5947 224.707 99.44 225.443 99.44C226.254 99.44 226.952 99.6427 227.539 100.048C228.126 100.443 228.51 101.045 228.691 101.856L228.067 101.6C228.323 100.949 228.771 100.427 229.411 100.032C230.051 99.6373 230.798 99.44 231.651 99.44ZM245.558 108.096C244.705 108.096 243.947 107.909 243.286 107.536C242.625 107.163 242.102 106.651 241.718 106C241.334 105.339 241.142 104.592 241.142 103.76C241.142 102.917 241.334 102.171 241.718 101.52C242.102 100.869 242.625 100.363 243.286 100C243.947 99.6267 244.705 99.44 245.558 99.44C246.401 99.44 247.153 99.6267 247.814 100C248.486 100.363 249.009 100.869 249.382 101.52C249.766 102.16 249.958 102.907 249.958 103.76C249.958 104.603 249.766 105.349 249.382 106C249.009 106.651 248.486 107.163 247.814 107.536C247.153 107.909 246.401 108.096 245.558 108.096ZM245.558 106.752C246.102 106.752 246.587 106.629 247.014 106.384C247.451 106.139 247.793 105.792 248.038 105.344C248.283 104.885 248.406 104.357 248.406 103.76C248.406 103.152 248.283 102.629 248.038 102.192C247.793 101.744 247.451 101.397 247.014 101.152C246.587 100.907 246.102 100.784 245.558 100.784C245.014 100.784 244.529 100.907 244.102 101.152C243.675 101.397 243.334 101.744 243.078 102.192C242.822 102.629 242.694 103.152 242.694 103.76C242.694 104.357 242.822 104.885 243.078 105.344C243.334 105.792 243.675 106.139 244.102 106.384C244.529 106.629 245.014 106.752 245.558 106.752ZM255.49 108.096C254.765 108.096 254.125 107.963 253.57 107.696C253.026 107.429 252.6 107.024 252.29 106.48C251.992 105.925 251.842 105.232 251.842 104.4V99.52H253.378V104.224C253.378 105.056 253.576 105.68 253.97 106.096C254.376 106.512 254.941 106.72 255.666 106.72C256.2 106.72 256.664 106.613 257.058 106.4C257.453 106.176 257.757 105.856 257.97 105.44C258.184 105.013 258.29 104.501 258.29 103.904V99.52H259.826V108H258.37V105.712L258.61 106.32C258.333 106.885 257.917 107.323 257.362 107.632C256.808 107.941 256.184 108.096 255.49 108.096ZM262.59 108V99.52H264.062V101.824L263.918 101.248C264.153 100.661 264.548 100.213 265.102 99.904C265.657 99.5947 266.34 99.44 267.15 99.44V100.928C267.086 100.917 267.022 100.912 266.958 100.912C266.905 100.912 266.852 100.912 266.798 100.912C265.977 100.912 265.326 101.157 264.846 101.648C264.366 102.139 264.126 102.848 264.126 103.776V108H262.59ZM277.626 108.096C276.922 108.096 276.276 107.936 275.69 107.616C275.114 107.285 274.65 106.8 274.298 106.16C273.956 105.52 273.786 104.72 273.786 103.76C273.786 102.8 273.951 102 274.282 101.36C274.623 100.72 275.082 100.24 275.658 99.92C276.244 99.6 276.9 99.44 277.626 99.44C278.458 99.44 279.194 99.6213 279.834 99.984C280.474 100.347 280.98 100.853 281.354 101.504C281.727 102.144 281.914 102.896 281.914 103.76C281.914 104.624 281.727 105.381 281.354 106.032C280.98 106.683 280.474 107.189 279.834 107.552C279.194 107.915 278.458 108.096 277.626 108.096ZM273.13 111.104V99.52H274.602V101.808L274.506 103.776L274.666 105.744V111.104H273.13ZM277.498 106.752C278.042 106.752 278.527 106.629 278.954 106.384C279.391 106.139 279.732 105.792 279.978 105.344C280.234 104.885 280.362 104.357 280.362 103.76C280.362 103.152 280.234 102.629 279.978 102.192C279.732 101.744 279.391 101.397 278.954 101.152C278.527 100.907 278.042 100.784 277.498 100.784C276.964 100.784 276.479 100.907 276.042 101.152C275.615 101.397 275.274 101.744 275.018 102.192C274.772 102.629 274.65 103.152 274.65 103.76C274.65 104.357 274.772 104.885 275.018 105.344C275.274 105.792 275.615 106.139 276.042 106.384C276.479 106.629 276.964 106.752 277.498 106.752ZM289.062 108V106.208L288.982 105.872V102.816C288.982 102.165 288.79 101.664 288.406 101.312C288.033 100.949 287.467 100.768 286.71 100.768C286.209 100.768 285.718 100.853 285.238 101.024C284.758 101.184 284.353 101.403 284.022 101.68L283.382 100.528C283.819 100.176 284.342 99.9093 284.95 99.728C285.569 99.536 286.214 99.44 286.886 99.44C288.049 99.44 288.945 99.7227 289.574 100.288C290.203 100.853 290.518 101.717 290.518 102.88V108H289.062ZM286.278 108.096C285.649 108.096 285.094 107.989 284.614 107.776C284.145 107.563 283.782 107.269 283.526 106.896C283.27 106.512 283.142 106.08 283.142 105.6C283.142 105.141 283.249 104.725 283.462 104.352C283.686 103.979 284.043 103.68 284.534 103.456C285.035 103.232 285.707 103.12 286.55 103.12H289.238V104.224H286.614C285.846 104.224 285.329 104.352 285.062 104.608C284.795 104.864 284.662 105.173 284.662 105.536C284.662 105.952 284.827 106.288 285.158 106.544C285.489 106.789 285.947 106.912 286.534 106.912C287.11 106.912 287.611 106.784 288.038 106.528C288.475 106.272 288.79 105.899 288.982 105.408L289.286 106.464C289.083 106.965 288.726 107.365 288.214 107.664C287.702 107.952 287.057 108.096 286.278 108.096ZM293.2 108V99.52H294.672V101.824L294.528 101.248C294.763 100.661 295.158 100.213 295.712 99.904C296.267 99.5947 296.95 99.44 297.76 99.44V100.928C297.696 100.917 297.632 100.912 297.568 100.912C297.515 100.912 297.462 100.912 297.408 100.912C296.587 100.912 295.936 101.157 295.456 101.648C294.976 102.139 294.736 102.848 294.736 103.776V108H293.2ZM302.749 108.096C301.896 108.096 301.235 107.867 300.765 107.408C300.296 106.949 300.061 106.293 300.061 105.44V97.664H301.597V105.376C301.597 105.835 301.709 106.187 301.933 106.432C302.168 106.677 302.499 106.8 302.925 106.8C303.405 106.8 303.805 106.667 304.125 106.4L304.605 107.504C304.371 107.707 304.088 107.856 303.757 107.952C303.437 108.048 303.101 108.096 302.749 108.096ZM298.621 100.784V99.52H304.029V100.784H298.621ZM310.83 99.44C311.524 99.44 312.132 99.5733 312.654 99.84C313.188 100.107 313.604 100.512 313.902 101.056C314.201 101.6 314.35 102.288 314.35 103.12V108H312.814V103.296C312.814 102.475 312.612 101.856 312.206 101.44C311.812 101.024 311.252 100.816 310.526 100.816C309.982 100.816 309.508 100.923 309.102 101.136C308.697 101.349 308.382 101.664 308.158 102.08C307.945 102.496 307.838 103.013 307.838 103.632V108H306.302V99.52H307.774V101.808L307.534 101.2C307.812 100.645 308.238 100.213 308.814 99.904C309.39 99.5947 310.062 99.44 310.83 99.44ZM320.809 108.096C319.902 108.096 319.102 107.909 318.409 107.536C317.726 107.163 317.193 106.651 316.809 106C316.436 105.349 316.249 104.603 316.249 103.76C316.249 102.917 316.43 102.171 316.793 101.52C317.166 100.869 317.673 100.363 318.313 100C318.964 99.6267 319.694 99.44 320.505 99.44C321.326 99.44 322.052 99.6213 322.681 99.984C323.31 100.347 323.801 100.859 324.153 101.52C324.516 102.171 324.697 102.933 324.697 103.808C324.697 103.872 324.692 103.947 324.681 104.032C324.681 104.117 324.676 104.197 324.665 104.272H317.449V103.168H323.865L323.241 103.552C323.252 103.008 323.14 102.523 322.905 102.096C322.67 101.669 322.345 101.339 321.929 101.104C321.524 100.859 321.049 100.736 320.505 100.736C319.972 100.736 319.497 100.859 319.081 101.104C318.665 101.339 318.34 101.675 318.105 102.112C317.87 102.539 317.753 103.029 317.753 103.584V103.84C317.753 104.405 317.881 104.912 318.137 105.36C318.404 105.797 318.772 106.139 319.241 106.384C319.71 106.629 320.249 106.752 320.857 106.752C321.358 106.752 321.812 106.667 322.217 106.496C322.633 106.325 322.996 106.069 323.305 105.728L324.153 106.72C323.769 107.168 323.289 107.509 322.713 107.744C322.148 107.979 321.513 108.096 320.809 108.096ZM326.67 108V99.52H328.142V101.824L327.998 101.248C328.232 100.661 328.627 100.213 329.182 99.904C329.736 99.5947 330.419 99.44 331.23 99.44V100.928C331.166 100.917 331.102 100.912 331.038 100.912C330.984 100.912 330.931 100.912 330.878 100.912C330.056 100.912 329.406 101.157 328.926 101.648C328.446 102.139 328.206 102.848 328.206 103.776V108H326.67ZM336.661 108.096C335.754 108.096 334.954 107.909 334.261 107.536C333.578 107.163 333.045 106.651 332.661 106C332.287 105.349 332.101 104.603 332.101 103.76C332.101 102.917 332.282 102.171 332.645 101.52C333.018 100.869 333.525 100.363 334.165 100C334.815 99.6267 335.546 99.44 336.357 99.44C337.178 99.44 337.903 99.6213 338.533 99.984C339.162 100.347 339.653 100.859 340.005 101.52C340.367 102.171 340.549 102.933 340.549 103.808C340.549 103.872 340.543 103.947 340.533 104.032C340.533 104.117 340.527 104.197 340.517 104.272H333.301V103.168H339.717L339.093 103.552C339.103 103.008 338.991 102.523 338.757 102.096C338.522 101.669 338.197 101.339 337.781 101.104C337.375 100.859 336.901 100.736 336.357 100.736C335.823 100.736 335.349 100.859 334.933 101.104C334.517 101.339 334.191 101.675 333.957 102.112C333.722 102.539 333.605 103.029 333.605 103.584V103.84C333.605 104.405 333.733 104.912 333.989 105.36C334.255 105.797 334.623 106.139 335.093 106.384C335.562 106.629 336.101 106.752 336.709 106.752C337.21 106.752 337.663 106.667 338.069 106.496C338.485 106.325 338.847 106.069 339.157 105.728L340.005 106.72C339.621 107.168 339.141 107.509 338.565 107.744C337.999 107.979 337.365 108.096 336.661 108.096ZM346.026 108.096C345.204 108.096 344.468 107.915 343.818 107.552C343.178 107.189 342.671 106.683 342.298 106.032C341.924 105.381 341.738 104.624 341.738 103.76C341.738 102.896 341.924 102.144 342.298 101.504C342.671 100.853 343.178 100.347 343.818 99.984C344.468 99.6213 345.204 99.44 346.026 99.44C346.74 99.44 347.386 99.6 347.962 99.92C348.538 100.24 348.996 100.72 349.338 101.36C349.69 102 349.866 102.8 349.866 103.76C349.866 104.72 349.695 105.52 349.354 106.16C349.023 106.8 348.57 107.285 347.994 107.616C347.418 107.936 346.762 108.096 346.026 108.096ZM346.154 106.752C346.687 106.752 347.167 106.629 347.594 106.384C348.031 106.139 348.372 105.792 348.618 105.344C348.874 104.885 349.002 104.357 349.002 103.76C349.002 103.152 348.874 102.629 348.618 102.192C348.372 101.744 348.031 101.397 347.594 101.152C347.167 100.907 346.687 100.784 346.154 100.784C345.61 100.784 345.124 100.907 344.698 101.152C344.271 101.397 343.93 101.744 343.674 102.192C343.418 102.629 343.29 103.152 343.29 103.76C343.29 104.357 343.418 104.885 343.674 105.344C343.93 105.792 344.271 106.139 344.698 106.384C345.124 106.629 345.61 106.752 346.154 106.752ZM349.05 108V105.712L349.146 103.744L348.986 101.776V96.128H350.522V108H349.05ZM361.117 111.2C360.338 111.2 359.581 111.088 358.845 110.864C358.119 110.651 357.527 110.341 357.069 109.936L357.805 108.752C358.199 109.093 358.685 109.36 359.261 109.552C359.837 109.755 360.439 109.856 361.069 109.856C362.071 109.856 362.807 109.621 363.277 109.152C363.746 108.683 363.981 107.968 363.981 107.008V105.216L364.141 103.536L364.061 101.84V99.52H365.517V106.848C365.517 108.341 365.143 109.44 364.397 110.144C363.65 110.848 362.557 111.2 361.117 111.2ZM360.925 107.648C360.103 107.648 359.367 107.477 358.717 107.136C358.077 106.784 357.565 106.299 357.181 105.68C356.807 105.061 356.621 104.347 356.621 103.536C356.621 102.715 356.807 102 357.181 101.392C357.565 100.773 358.077 100.293 358.717 99.952C359.367 99.6107 360.103 99.44 360.925 99.44C361.65 99.44 362.311 99.5893 362.909 99.888C363.506 100.176 363.981 100.624 364.333 101.232C364.695 101.84 364.877 102.608 364.877 103.536C364.877 104.453 364.695 105.216 364.333 105.824C363.981 106.432 363.506 106.891 362.909 107.2C362.311 107.499 361.65 107.648 360.925 107.648ZM361.101 106.304C361.666 106.304 362.167 106.187 362.605 105.952C363.042 105.717 363.383 105.392 363.629 104.976C363.885 104.56 364.013 104.08 364.013 103.536C364.013 102.992 363.885 102.512 363.629 102.096C363.383 101.68 363.042 101.36 362.605 101.136C362.167 100.901 361.666 100.784 361.101 100.784C360.535 100.784 360.029 100.901 359.581 101.136C359.143 101.36 358.797 101.68 358.541 102.096C358.295 102.512 358.173 102.992 358.173 103.536C358.173 104.08 358.295 104.56 358.541 104.976C358.797 105.392 359.143 105.717 359.581 105.952C360.029 106.187 360.535 106.304 361.101 106.304ZM373.556 108V106.208L373.476 105.872V102.816C373.476 102.165 373.284 101.664 372.9 101.312C372.526 100.949 371.961 100.768 371.204 100.768C370.702 100.768 370.212 100.853 369.732 101.024C369.252 101.184 368.846 101.403 368.516 101.68L367.876 100.528C368.313 100.176 368.836 99.9093 369.444 99.728C370.062 99.536 370.708 99.44 371.38 99.44C372.542 99.44 373.438 99.7227 374.068 100.288C374.697 100.853 375.012 101.717 375.012 102.88V108H373.556ZM370.772 108.096C370.142 108.096 369.588 107.989 369.108 107.776C368.638 107.563 368.276 107.269 368.02 106.896C367.764 106.512 367.636 106.08 367.636 105.6C367.636 105.141 367.742 104.725 367.956 104.352C368.18 103.979 368.537 103.68 369.028 103.456C369.529 103.232 370.201 103.12 371.044 103.12H373.732V104.224H371.108C370.34 104.224 369.822 104.352 369.556 104.608C369.289 104.864 369.156 105.173 369.156 105.536C369.156 105.952 369.321 106.288 369.652 106.544C369.982 106.789 370.441 106.912 371.028 106.912C371.604 106.912 372.105 106.784 372.532 106.528C372.969 106.272 373.284 105.899 373.476 105.408L373.78 106.464C373.577 106.965 373.22 107.365 372.708 107.664C372.196 107.952 371.55 108.096 370.772 108.096ZM388.302 99.44C388.985 99.44 389.587 99.5733 390.11 99.84C390.633 100.107 391.038 100.512 391.326 101.056C391.625 101.6 391.774 102.288 391.774 103.12V108H390.238V103.296C390.238 102.475 390.046 101.856 389.662 101.44C389.278 101.024 388.739 100.816 388.046 100.816C387.534 100.816 387.086 100.923 386.702 101.136C386.318 101.349 386.019 101.664 385.806 102.08C385.603 102.496 385.502 103.013 385.502 103.632V108H383.966V103.296C383.966 102.475 383.774 101.856 383.39 101.44C383.017 101.024 382.478 100.816 381.774 100.816C381.273 100.816 380.83 100.923 380.446 101.136C380.062 101.349 379.763 101.664 379.55 102.08C379.337 102.496 379.23 103.013 379.23 103.632V108H377.694V99.52H379.166V101.776L378.926 101.2C379.193 100.645 379.603 100.213 380.158 99.904C380.713 99.5947 381.358 99.44 382.094 99.44C382.905 99.44 383.603 99.6427 384.19 100.048C384.777 100.443 385.161 101.045 385.342 101.856L384.718 101.6C384.974 100.949 385.422 100.427 386.062 100.032C386.702 99.6373 387.449 99.44 388.302 99.44ZM394.44 108V99.52H395.976V108H394.44ZM395.208 97.888C394.91 97.888 394.659 97.792 394.456 97.6C394.264 97.408 394.168 97.1733 394.168 96.896C394.168 96.608 394.264 96.368 394.456 96.176C394.659 95.984 394.91 95.888 395.208 95.888C395.507 95.888 395.752 95.984 395.944 96.176C396.147 96.3573 396.248 96.5867 396.248 96.864C396.248 97.152 396.152 97.3973 395.96 97.6C395.768 97.792 395.518 97.888 395.208 97.888ZM403.277 99.44C403.97 99.44 404.578 99.5733 405.101 99.84C405.634 100.107 406.05 100.512 406.349 101.056C406.648 101.6 406.797 102.288 406.797 103.12V108H405.261V103.296C405.261 102.475 405.058 101.856 404.653 101.44C404.258 101.024 403.698 100.816 402.973 100.816C402.429 100.816 401.954 100.923 401.549 101.136C401.144 101.349 400.829 101.664 400.605 102.08C400.392 102.496 400.285 103.013 400.285 103.632V108H398.749V99.52H400.221V101.808L399.981 101.2C400.258 100.645 400.685 100.213 401.261 99.904C401.837 99.5947 402.509 99.44 403.277 99.44ZM413.192 111.2C412.413 111.2 411.656 111.088 410.92 110.864C410.194 110.651 409.602 110.341 409.144 109.936L409.88 108.752C410.274 109.093 410.76 109.36 411.336 109.552C411.912 109.755 412.514 109.856 413.144 109.856C414.146 109.856 414.882 109.621 415.352 109.152C415.821 108.683 416.056 107.968 416.056 107.008V105.216L416.216 103.536L416.136 101.84V99.52H417.592V106.848C417.592 108.341 417.218 109.44 416.472 110.144C415.725 110.848 414.632 111.2 413.192 111.2ZM413 107.648C412.178 107.648 411.442 107.477 410.792 107.136C410.152 106.784 409.64 106.299 409.256 105.68C408.882 105.061 408.696 104.347 408.696 103.536C408.696 102.715 408.882 102 409.256 101.392C409.64 100.773 410.152 100.293 410.792 99.952C411.442 99.6107 412.178 99.44 413 99.44C413.725 99.44 414.386 99.5893 414.984 99.888C415.581 100.176 416.056 100.624 416.408 101.232C416.77 101.84 416.952 102.608 416.952 103.536C416.952 104.453 416.77 105.216 416.408 105.824C416.056 106.432 415.581 106.891 414.984 107.2C414.386 107.499 413.725 107.648 413 107.648ZM413.176 106.304C413.741 106.304 414.242 106.187 414.68 105.952C415.117 105.717 415.458 105.392 415.704 104.976C415.96 104.56 416.088 104.08 416.088 103.536C416.088 102.992 415.96 102.512 415.704 102.096C415.458 101.68 415.117 101.36 414.68 101.136C414.242 100.901 413.741 100.784 413.176 100.784C412.61 100.784 412.104 100.901 411.656 101.136C411.218 101.36 410.872 101.68 410.616 102.096C410.37 102.512 410.248 102.992 410.248 103.536C410.248 104.08 410.37 104.56 410.616 104.976C410.872 105.392 411.218 105.717 411.656 105.952C412.104 106.187 412.61 106.304 413.176 106.304ZM428.999 108.096C428.295 108.096 427.65 107.936 427.063 107.616C426.487 107.285 426.023 106.8 425.671 106.16C425.33 105.52 425.159 104.72 425.159 103.76C425.159 102.8 425.325 102 425.655 101.36C425.997 100.72 426.455 100.24 427.031 99.92C427.618 99.6 428.274 99.44 428.999 99.44C429.831 99.44 430.567 99.6213 431.207 99.984C431.847 100.347 432.354 100.853 432.727 101.504C433.101 102.144 433.287 102.896 433.287 103.76C433.287 104.624 433.101 105.381 432.727 106.032C432.354 106.683 431.847 107.189 431.207 107.552C430.567 107.915 429.831 108.096 428.999 108.096ZM424.503 111.104V99.52H425.975V101.808L425.879 103.776L426.039 105.744V111.104H424.503ZM428.871 106.752C429.415 106.752 429.901 106.629 430.327 106.384C430.765 106.139 431.106 105.792 431.351 105.344C431.607 104.885 431.735 104.357 431.735 103.76C431.735 103.152 431.607 102.629 431.351 102.192C431.106 101.744 430.765 101.397 430.327 101.152C429.901 100.907 429.415 100.784 428.871 100.784C428.338 100.784 427.853 100.907 427.415 101.152C426.989 101.397 426.647 101.744 426.391 102.192C426.146 102.629 426.023 103.152 426.023 103.76C426.023 104.357 426.146 104.885 426.391 105.344C426.647 105.792 426.989 106.139 427.415 106.384C427.853 106.629 428.338 106.752 428.871 106.752ZM435.25 108V99.52H436.722V101.824L436.578 101.248C436.812 100.661 437.207 100.213 437.762 99.904C438.316 99.5947 438.999 99.44 439.81 99.44V100.928C439.746 100.917 439.682 100.912 439.618 100.912C439.564 100.912 439.511 100.912 439.458 100.912C438.636 100.912 437.986 101.157 437.506 101.648C437.026 102.139 436.786 102.848 436.786 103.776V108H435.25ZM445.097 108.096C444.243 108.096 443.486 107.909 442.825 107.536C442.163 107.163 441.641 106.651 441.257 106C440.873 105.339 440.681 104.592 440.681 103.76C440.681 102.917 440.873 102.171 441.257 101.52C441.641 100.869 442.163 100.363 442.825 100C443.486 99.6267 444.243 99.44 445.097 99.44C445.939 99.44 446.691 99.6267 447.353 100C448.025 100.363 448.547 100.869 448.921 101.52C449.305 102.16 449.497 102.907 449.497 103.76C449.497 104.603 449.305 105.349 448.921 106C448.547 106.651 448.025 107.163 447.353 107.536C446.691 107.909 445.939 108.096 445.097 108.096ZM445.097 106.752C445.641 106.752 446.126 106.629 446.553 106.384C446.99 106.139 447.331 105.792 447.577 105.344C447.822 104.885 447.945 104.357 447.945 103.76C447.945 103.152 447.822 102.629 447.577 102.192C447.331 101.744 446.99 101.397 446.553 101.152C446.126 100.907 445.641 100.784 445.097 100.784C444.553 100.784 444.067 100.907 443.641 101.152C443.214 101.397 442.873 101.744 442.617 102.192C442.361 102.629 442.233 103.152 442.233 103.76C442.233 104.357 442.361 104.885 442.617 105.344C442.873 105.792 443.214 106.139 443.641 106.384C444.067 106.629 444.553 106.752 445.097 106.752ZM450.373 111.2C450.021 111.2 449.685 111.157 449.365 111.072C449.034 110.987 448.757 110.859 448.533 110.688L449.029 109.504C449.349 109.771 449.765 109.904 450.277 109.904C450.682 109.904 450.992 109.776 451.205 109.52C451.429 109.275 451.541 108.907 451.541 108.416V99.52H453.077V108.384C453.077 109.248 452.842 109.931 452.373 110.432C451.914 110.944 451.248 111.2 450.373 111.2ZM452.309 97.888C452.01 97.888 451.76 97.792 451.557 97.6C451.365 97.408 451.269 97.1733 451.269 96.896C451.269 96.608 451.365 96.368 451.557 96.176C451.76 95.984 452.01 95.888 452.309 95.888C452.608 95.888 452.853 95.984 453.045 96.176C453.248 96.3573 453.349 96.5867 453.349 96.864C453.349 97.152 453.253 97.3973 453.061 97.6C452.869 97.792 452.618 97.888 452.309 97.888ZM459.624 108.096C458.717 108.096 457.917 107.909 457.224 107.536C456.541 107.163 456.008 106.651 455.624 106C455.251 105.349 455.064 104.603 455.064 103.76C455.064 102.917 455.245 102.171 455.608 101.52C455.981 100.869 456.488 100.363 457.128 100C457.779 99.6267 458.509 99.44 459.32 99.44C460.141 99.44 460.867 99.6213 461.496 99.984C462.125 100.347 462.616 100.859 462.968 101.52C463.331 102.171 463.512 102.933 463.512 103.808C463.512 103.872 463.507 103.947 463.496 104.032C463.496 104.117 463.491 104.197 463.48 104.272H456.264V103.168H462.68L462.056 103.552C462.067 103.008 461.955 102.523 461.72 102.096C461.485 101.669 461.16 101.339 460.744 101.104C460.339 100.859 459.864 100.736 459.32 100.736C458.787 100.736 458.312 100.859 457.896 101.104C457.48 101.339 457.155 101.675 456.92 102.112C456.685 102.539 456.568 103.029 456.568 103.584V103.84C456.568 104.405 456.696 104.912 456.952 105.36C457.219 105.797 457.587 106.139 458.056 106.384C458.525 106.629 459.064 106.752 459.672 106.752C460.173 106.752 460.627 106.667 461.032 106.496C461.448 106.325 461.811 106.069 462.12 105.728L462.968 106.72C462.584 107.168 462.104 107.509 461.528 107.744C460.963 107.979 460.328 108.096 459.624 108.096ZM469.181 108.096C468.317 108.096 467.543 107.909 466.861 107.536C466.189 107.163 465.661 106.651 465.277 106C464.893 105.349 464.701 104.603 464.701 103.76C464.701 102.917 464.893 102.171 465.277 101.52C465.661 100.869 466.189 100.363 466.861 100C467.543 99.6267 468.317 99.44 469.181 99.44C469.949 99.44 470.631 99.5947 471.229 99.904C471.837 100.203 472.306 100.651 472.637 101.248L471.469 102C471.191 101.584 470.85 101.28 470.445 101.088C470.05 100.885 469.623 100.784 469.165 100.784C468.61 100.784 468.114 100.907 467.677 101.152C467.239 101.397 466.893 101.744 466.637 102.192C466.381 102.629 466.253 103.152 466.253 103.76C466.253 104.368 466.381 104.896 466.637 105.344C466.893 105.792 467.239 106.139 467.677 106.384C468.114 106.629 468.61 106.752 469.165 106.752C469.623 106.752 470.05 106.656 470.445 106.464C470.85 106.261 471.191 105.952 471.469 105.536L472.637 106.272C472.306 106.859 471.837 107.312 471.229 107.632C470.631 107.941 469.949 108.096 469.181 108.096ZM477.487 108.096C476.633 108.096 475.972 107.867 475.503 107.408C475.033 106.949 474.799 106.293 474.799 105.44V97.664H476.335V105.376C476.335 105.835 476.447 106.187 476.671 106.432C476.905 106.677 477.236 106.8 477.663 106.8C478.143 106.8 478.543 106.667 478.863 106.4L479.343 107.504C479.108 107.707 478.825 107.856 478.495 107.952C478.175 108.048 477.839 108.096 477.487 108.096ZM473.359 100.784V99.52H478.767V100.784H473.359ZM483.472 108.096C482.768 108.096 482.096 108 481.456 107.808C480.826 107.616 480.33 107.381 479.968 107.104L480.608 105.888C480.97 106.133 481.418 106.341 481.952 106.512C482.485 106.683 483.029 106.768 483.584 106.768C484.298 106.768 484.81 106.667 485.12 106.464C485.44 106.261 485.6 105.979 485.6 105.616C485.6 105.349 485.504 105.141 485.312 104.992C485.12 104.843 484.864 104.731 484.544 104.656C484.234 104.581 483.888 104.517 483.504 104.464C483.12 104.4 482.736 104.325 482.352 104.24C481.968 104.144 481.616 104.016 481.296 103.856C480.976 103.685 480.72 103.456 480.528 103.168C480.336 102.869 480.24 102.475 480.24 101.984C480.24 101.472 480.384 101.024 480.672 100.64C480.96 100.256 481.365 99.9627 481.888 99.76C482.421 99.5467 483.05 99.44 483.776 99.44C484.33 99.44 484.89 99.5093 485.456 99.648C486.032 99.776 486.501 99.9627 486.864 100.208L486.208 101.424C485.824 101.168 485.424 100.992 485.008 100.896C484.592 100.8 484.176 100.752 483.76 100.752C483.088 100.752 482.586 100.864 482.256 101.088C481.925 101.301 481.76 101.579 481.76 101.92C481.76 102.208 481.856 102.432 482.048 102.592C482.25 102.741 482.506 102.859 482.816 102.944C483.136 103.029 483.488 103.104 483.872 103.168C484.256 103.221 484.64 103.296 485.024 103.392C485.408 103.477 485.754 103.6 486.064 103.76C486.384 103.92 486.64 104.144 486.832 104.432C487.034 104.72 487.136 105.104 487.136 105.584C487.136 106.096 486.986 106.539 486.688 106.912C486.389 107.285 485.968 107.579 485.424 107.792C484.88 107.995 484.229 108.096 483.472 108.096Z" fill="white"/>
<path d="M115.63 51.36C113.97 51.36 112.44 51.1 111.04 50.58C109.66 50.04 108.45 49.28 107.41 48.3C106.39 47.32 105.59 46.17 105.01 44.85C104.45 43.53 104.17 42.08 104.17 40.5C104.17 38.92 104.45 37.47 105.01 36.15C105.59 34.83 106.4 33.68 107.44 32.7C108.48 31.72 109.7 30.97 111.1 30.45C112.5 29.91 114.04 29.64 115.72 29.64C117.58 29.64 119.25 29.95 120.73 30.57C122.23 31.19 123.49 32.09 124.51 33.27L121.39 36.15C120.63 35.35 119.8 34.76 118.9 34.38C118 33.98 117.02 33.78 115.96 33.78C114.94 33.78 114.01 33.94 113.17 34.26C112.33 34.58 111.6 35.04 110.98 35.64C110.38 36.24 109.91 36.95 109.57 37.77C109.25 38.59 109.09 39.5 109.09 40.5C109.09 41.48 109.25 42.38 109.57 43.2C109.91 44.02 110.38 44.74 110.98 45.36C111.6 45.96 112.32 46.42 113.14 46.74C113.98 47.06 114.9 47.22 115.9 47.22C116.86 47.22 117.79 47.07 118.69 46.77C119.61 46.45 120.5 45.92 121.36 45.18L124.12 48.69C122.98 49.55 121.65 50.21 120.13 50.67C118.63 51.13 117.13 51.36 115.63 51.36ZM119.68 48.06V40.17H124.12V48.69L119.68 48.06ZM138.205 51V47.85L137.905 47.16V41.52C137.905 40.52 137.595 39.74 136.975 39.18C136.375 38.62 135.445 38.34 134.185 38.34C133.325 38.34 132.475 38.48 131.635 38.76C130.815 39.02 130.115 39.38 129.535 39.84L127.855 36.57C128.735 35.95 129.795 35.47 131.035 35.13C132.275 34.79 133.535 34.62 134.815 34.62C137.275 34.62 139.185 35.2 140.545 36.36C141.905 37.52 142.585 39.33 142.585 41.79V51H138.205ZM133.285 51.24C132.025 51.24 130.945 51.03 130.045 50.61C129.145 50.17 128.455 49.58 127.975 48.84C127.495 48.1 127.255 47.27 127.255 46.35C127.255 45.39 127.485 44.55 127.945 43.83C128.425 43.11 129.175 42.55 130.195 42.15C131.215 41.73 132.545 41.52 134.185 41.52H138.475V44.25H134.695C133.595 44.25 132.835 44.43 132.415 44.79C132.015 45.15 131.815 45.6 131.815 46.14C131.815 46.74 132.045 47.22 132.505 47.58C132.985 47.92 133.635 48.09 134.455 48.09C135.235 48.09 135.935 47.91 136.555 47.55C137.175 47.17 137.625 46.62 137.905 45.9L138.625 48.06C138.285 49.1 137.665 49.89 136.765 50.43C135.865 50.97 134.705 51.24 133.285 51.24ZM167.49 34.62C168.77 34.62 169.9 34.88 170.88 35.4C171.88 35.9 172.66 36.68 173.22 37.74C173.8 38.78 174.09 40.12 174.09 41.76V51H169.41V42.48C169.41 41.18 169.14 40.22 168.6 39.6C168.06 38.98 167.3 38.67 166.32 38.67C165.64 38.67 165.03 38.83 164.49 39.15C163.95 39.45 163.53 39.91 163.23 40.53C162.93 41.15 162.78 41.94 162.78 42.9V51H158.1V42.48C158.1 41.18 157.83 40.22 157.29 39.6C156.77 38.98 156.02 38.67 155.04 38.67C154.36 38.67 153.75 38.83 153.21 39.15C152.67 39.45 152.25 39.91 151.95 40.53C151.65 41.15 151.5 41.94 151.5 42.9V51H146.82V34.86H151.29V39.27L150.45 37.98C151.01 36.88 151.8 36.05 152.82 35.49C153.86 34.91 155.04 34.62 156.36 34.62C157.84 34.62 159.13 35 160.23 35.76C161.35 36.5 162.09 37.64 162.45 39.18L160.8 38.73C161.34 37.47 162.2 36.47 163.38 35.73C164.58 34.99 165.95 34.62 167.49 34.62ZM178.285 51V34.86H182.965V51H178.285ZM180.625 32.61C179.765 32.61 179.065 32.36 178.525 31.86C177.985 31.36 177.715 30.74 177.715 30C177.715 29.26 177.985 28.64 178.525 28.14C179.065 27.64 179.765 27.39 180.625 27.39C181.485 27.39 182.185 27.63 182.725 28.11C183.265 28.57 183.535 29.17 183.535 29.91C183.535 30.69 183.265 31.34 182.725 31.86C182.205 32.36 181.505 32.61 180.625 32.61ZM197.118 34.62C198.398 34.62 199.538 34.88 200.538 35.4C201.558 35.9 202.358 36.68 202.938 37.74C203.518 38.78 203.808 40.12 203.808 41.76V51H199.128V42.48C199.128 41.18 198.838 40.22 198.258 39.6C197.698 38.98 196.898 38.67 195.858 38.67C195.118 38.67 194.448 38.83 193.848 39.15C193.268 39.45 192.808 39.92 192.468 40.56C192.148 41.2 191.988 42.02 191.988 43.02V51H187.308V34.86H191.778V39.33L190.938 37.98C191.518 36.9 192.348 36.07 193.428 35.49C194.508 34.91 195.738 34.62 197.118 34.62ZM215.758 57.06C214.238 57.06 212.768 56.87 211.348 56.49C209.948 56.13 208.778 55.58 207.838 54.84L209.698 51.48C210.378 52.04 211.238 52.48 212.278 52.8C213.338 53.14 214.378 53.31 215.398 53.31C217.058 53.31 218.258 52.94 218.998 52.2C219.758 51.46 220.138 50.36 220.138 48.9V46.47L220.438 42.42L220.378 38.34V34.86H224.818V48.3C224.818 51.3 224.038 53.51 222.478 54.93C220.918 56.35 218.678 57.06 215.758 57.06ZM215.038 50.22C213.538 50.22 212.178 49.9 210.958 49.26C209.758 48.6 208.788 47.69 208.048 46.53C207.328 45.35 206.968 43.98 206.968 42.42C206.968 40.84 207.328 39.47 208.048 38.31C208.788 37.13 209.758 36.22 210.958 35.58C212.178 34.94 213.538 34.62 215.038 34.62C216.398 34.62 217.598 34.9 218.638 35.46C219.678 36 220.488 36.85 221.068 38.01C221.648 39.15 221.938 40.62 221.938 42.42C221.938 44.2 221.648 45.67 221.068 46.83C220.488 47.97 219.678 48.82 218.638 49.38C217.598 49.94 216.398 50.22 215.038 50.22ZM215.968 46.38C216.788 46.38 217.518 46.22 218.158 45.9C218.798 45.56 219.298 45.09 219.658 44.49C220.018 43.89 220.198 43.2 220.198 42.42C220.198 41.62 220.018 40.93 219.658 40.35C219.298 39.75 218.798 39.29 218.158 38.97C217.518 38.63 216.788 38.46 215.968 38.46C215.148 38.46 214.418 38.63 213.778 38.97C213.138 39.29 212.628 39.75 212.248 40.35C211.888 40.93 211.708 41.62 211.708 42.42C211.708 43.2 211.888 43.89 212.248 44.49C212.628 45.09 213.138 45.56 213.778 45.9C214.418 46.22 215.148 46.38 215.968 46.38ZM247.21 51.24C245.85 51.24 244.66 50.94 243.64 50.34C242.62 49.74 241.82 48.83 241.24 47.61C240.68 46.37 240.4 44.81 240.4 42.93C240.4 41.03 240.67 39.47 241.21 38.25C241.75 37.03 242.53 36.12 243.55 35.52C244.57 34.92 245.79 34.62 247.21 34.62C248.73 34.62 250.09 34.97 251.29 35.67C252.51 36.35 253.47 37.31 254.17 38.55C254.89 39.79 255.25 41.25 255.25 42.93C255.25 44.63 254.89 46.1 254.17 47.34C253.47 48.58 252.51 49.54 251.29 50.22C250.09 50.9 248.73 51.24 247.21 51.24ZM237.67 56.82V34.86H242.14V38.16L242.05 42.96L242.35 47.73V56.82H237.67ZM246.4 47.4C247.18 47.4 247.87 47.22 248.47 46.86C249.09 46.5 249.58 45.99 249.94 45.33C250.32 44.65 250.51 43.85 250.51 42.93C250.51 41.99 250.32 41.19 249.94 40.53C249.58 39.87 249.09 39.36 248.47 39C247.87 38.64 247.18 38.46 246.4 38.46C245.62 38.46 244.92 38.64 244.3 39C243.68 39.36 243.19 39.87 242.83 40.53C242.47 41.19 242.29 41.99 242.29 42.93C242.29 43.85 242.47 44.65 242.83 45.33C243.19 45.99 243.68 46.5 244.3 46.86C244.92 47.22 245.62 47.4 246.4 47.4ZM258.383 51V34.86H262.853V39.42L262.223 38.1C262.703 36.96 263.473 36.1 264.533 35.52C265.593 34.92 266.883 34.62 268.403 34.62V38.94C268.203 38.92 268.023 38.91 267.863 38.91C267.703 38.89 267.533 38.88 267.353 38.88C266.073 38.88 265.033 39.25 264.233 39.99C263.453 40.71 263.063 41.84 263.063 43.38V51H258.383ZM278.748 51.24C277.028 51.24 275.498 50.88 274.158 50.16C272.838 49.44 271.788 48.46 271.008 47.22C270.248 45.96 269.868 44.53 269.868 42.93C269.868 41.31 270.248 39.88 271.008 38.64C271.788 37.38 272.838 36.4 274.158 35.7C275.498 34.98 277.028 34.62 278.748 34.62C280.448 34.62 281.968 34.98 283.308 35.7C284.648 36.4 285.698 37.37 286.458 38.61C287.218 39.85 287.598 41.29 287.598 42.93C287.598 44.53 287.218 45.96 286.458 47.22C285.698 48.46 284.648 49.44 283.308 50.16C281.968 50.88 280.448 51.24 278.748 51.24ZM278.748 47.4C279.528 47.4 280.228 47.22 280.848 46.86C281.468 46.5 281.958 45.99 282.318 45.33C282.678 44.65 282.858 43.85 282.858 42.93C282.858 41.99 282.678 41.19 282.318 40.53C281.958 39.87 281.468 39.36 280.848 39C280.228 38.64 279.528 38.46 278.748 38.46C277.968 38.46 277.268 38.64 276.648 39C276.028 39.36 275.528 39.87 275.148 40.53C274.788 41.19 274.608 41.99 274.608 42.93C274.608 43.85 274.788 44.65 275.148 45.33C275.528 45.99 276.028 46.5 276.648 46.86C277.268 47.22 277.968 47.4 278.748 47.4ZM289.526 57.06C288.806 57.06 288.116 56.98 287.456 56.82C286.796 56.68 286.236 56.46 285.776 56.16L287.036 52.77C287.576 53.15 288.236 53.34 289.016 53.34C289.596 53.34 290.056 53.14 290.396 52.74C290.756 52.36 290.936 51.78 290.936 51V34.86H295.616V50.97C295.616 52.83 295.086 54.31 294.026 55.41C292.966 56.51 291.466 57.06 289.526 57.06ZM293.276 32.61C292.416 32.61 291.716 32.36 291.176 31.86C290.636 31.36 290.366 30.74 290.366 30C290.366 29.26 290.636 28.64 291.176 28.14C291.716 27.64 292.416 27.39 293.276 27.39C294.136 27.39 294.836 27.63 295.376 28.11C295.916 28.57 296.186 29.17 296.186 29.91C296.186 30.69 295.916 31.34 295.376 31.86C294.856 32.36 294.156 32.61 293.276 32.61ZM307.936 51.24C306.096 51.24 304.476 50.88 303.076 50.16C301.696 49.44 300.626 48.46 299.866 47.22C299.106 45.96 298.726 44.53 298.726 42.93C298.726 41.31 299.096 39.88 299.836 38.64C300.596 37.38 301.626 36.4 302.926 35.7C304.226 34.98 305.696 34.62 307.336 34.62C308.916 34.62 310.336 34.96 311.596 35.64C312.876 36.3 313.886 37.26 314.626 38.52C315.366 39.76 315.736 41.25 315.736 42.99C315.736 43.17 315.726 43.38 315.706 43.62C315.686 43.84 315.666 44.05 315.646 44.25H302.536V41.52H313.186L311.386 42.33C311.386 41.49 311.216 40.76 310.876 40.14C310.536 39.52 310.066 39.04 309.466 38.7C308.866 38.34 308.166 38.16 307.366 38.16C306.566 38.16 305.856 38.34 305.236 38.7C304.636 39.04 304.166 39.53 303.826 40.17C303.486 40.79 303.316 41.53 303.316 42.39V43.11C303.316 43.99 303.506 44.77 303.886 45.45C304.286 46.11 304.836 46.62 305.536 46.98C306.256 47.32 307.096 47.49 308.056 47.49C308.916 47.49 309.666 47.36 310.306 47.1C310.966 46.84 311.566 46.45 312.106 45.93L314.596 48.63C313.856 49.47 312.926 50.12 311.806 50.58C310.686 51.02 309.396 51.24 307.936 51.24ZM326.651 51.24C324.911 51.24 323.361 50.89 322.001 50.19C320.641 49.47 319.571 48.48 318.791 47.22C318.031 45.96 317.651 44.53 317.651 42.93C317.651 41.31 318.031 39.88 318.791 38.64C319.571 37.38 320.641 36.4 322.001 35.7C323.361 34.98 324.911 34.62 326.651 34.62C328.351 34.62 329.831 34.98 331.091 35.7C332.351 36.4 333.281 37.41 333.881 38.73L330.251 40.68C329.831 39.92 329.301 39.36 328.661 39C328.041 38.64 327.361 38.46 326.621 38.46C325.821 38.46 325.101 38.64 324.461 39C323.821 39.36 323.311 39.87 322.931 40.53C322.571 41.19 322.391 41.99 322.391 42.93C322.391 43.87 322.571 44.67 322.931 45.33C323.311 45.99 323.821 46.5 324.461 46.86C325.101 47.22 325.821 47.4 326.621 47.4C327.361 47.4 328.041 47.23 328.661 46.89C329.301 46.53 329.831 45.96 330.251 45.18L333.881 47.16C333.281 48.46 332.351 49.47 331.091 50.19C329.831 50.89 328.351 51.24 326.651 51.24ZM343.41 51.24C341.51 51.24 340.03 50.76 338.97 49.8C337.91 48.82 337.38 47.37 337.38 45.45V31.29H342.06V45.39C342.06 46.07 342.24 46.6 342.6 46.98C342.96 47.34 343.45 47.52 344.07 47.52C344.81 47.52 345.44 47.32 345.96 46.92L347.22 50.22C346.74 50.56 346.16 50.82 345.48 51C344.82 51.16 344.13 51.24 343.41 51.24ZM334.89 38.82V35.22H346.08V38.82H334.89ZM367.884 51.24C366.524 51.24 365.334 50.94 364.314 50.34C363.294 49.74 362.494 48.83 361.914 47.61C361.354 46.37 361.074 44.81 361.074 42.93C361.074 41.03 361.344 39.47 361.884 38.25C362.424 37.03 363.204 36.12 364.224 35.52C365.244 34.92 366.464 34.62 367.884 34.62C369.404 34.62 370.764 34.97 371.964 35.67C373.184 36.35 374.144 37.31 374.844 38.55C375.564 39.79 375.924 41.25 375.924 42.93C375.924 44.63 375.564 46.1 374.844 47.34C374.144 48.58 373.184 49.54 371.964 50.22C370.764 50.9 369.404 51.24 367.884 51.24ZM358.344 56.82V34.86H362.814V38.16L362.724 42.96L363.024 47.73V56.82H358.344ZM367.074 47.4C367.854 47.4 368.544 47.22 369.144 46.86C369.764 46.5 370.254 45.99 370.614 45.33C370.994 44.65 371.184 43.85 371.184 42.93C371.184 41.99 370.994 41.19 370.614 40.53C370.254 39.87 369.764 39.36 369.144 39C368.544 38.64 367.854 38.46 367.074 38.46C366.294 38.46 365.594 38.64 364.974 39C364.354 39.36 363.864 39.87 363.504 40.53C363.144 41.19 362.964 41.99 362.964 42.93C362.964 43.85 363.144 44.65 363.504 45.33C363.864 45.99 364.354 46.5 364.974 46.86C365.594 47.22 366.294 47.4 367.074 47.4ZM387.066 51.24C385.226 51.24 383.606 50.88 382.206 50.16C380.826 49.44 379.756 48.46 378.996 47.22C378.236 45.96 377.856 44.53 377.856 42.93C377.856 41.31 378.226 39.88 378.966 38.64C379.726 37.38 380.756 36.4 382.056 35.7C383.356 34.98 384.826 34.62 386.466 34.62C388.046 34.62 389.466 34.96 390.726 35.64C392.006 36.3 393.016 37.26 393.756 38.52C394.496 39.76 394.866 41.25 394.866 42.99C394.866 43.17 394.856 43.38 394.836 43.62C394.816 43.84 394.796 44.05 394.776 44.25H381.666V41.52H392.316L390.516 42.33C390.516 41.49 390.346 40.76 390.006 40.14C389.666 39.52 389.196 39.04 388.596 38.7C387.996 38.34 387.296 38.16 386.496 38.16C385.696 38.16 384.986 38.34 384.366 38.7C383.766 39.04 383.296 39.53 382.956 40.17C382.616 40.79 382.446 41.53 382.446 42.39V43.11C382.446 43.99 382.636 44.77 383.016 45.45C383.416 46.11 383.966 46.62 384.666 46.98C385.386 47.32 386.226 47.49 387.186 47.49C388.046 47.49 388.796 47.36 389.436 47.1C390.096 46.84 390.696 46.45 391.236 45.93L393.726 48.63C392.986 49.47 392.056 50.12 390.936 50.58C389.816 51.02 388.526 51.24 387.066 51.24ZM397.982 51V34.86H402.452V39.42L401.822 38.1C402.302 36.96 403.072 36.1 404.132 35.52C405.192 34.92 406.482 34.62 408.002 34.62V38.94C407.802 38.92 407.622 38.91 407.462 38.91C407.302 38.89 407.132 38.88 406.952 38.88C405.672 38.88 404.632 39.25 403.832 39.99C403.052 40.71 402.662 41.84 402.662 43.38V51H397.982ZM414.684 47.7L414.804 42L422.334 34.86H427.914L420.684 42.21L418.254 44.19L414.684 47.7ZM410.814 51V28.74H415.494V51H410.814ZM422.844 51L417.384 44.22L420.324 40.59L428.514 51H422.844ZM435.522 51.24C434.142 51.24 432.812 51.08 431.532 50.76C430.272 50.42 429.272 50 428.532 49.5L430.092 46.14C430.832 46.6 431.702 46.98 432.702 47.28C433.722 47.56 434.722 47.7 435.702 47.7C436.782 47.7 437.542 47.57 437.982 47.31C438.442 47.05 438.672 46.69 438.672 46.23C438.672 45.85 438.492 45.57 438.132 45.39C437.792 45.19 437.332 45.04 436.752 44.94C436.172 44.84 435.532 44.74 434.832 44.64C434.152 44.54 433.462 44.41 432.762 44.25C432.062 44.07 431.422 43.81 430.842 43.47C430.262 43.13 429.792 42.67 429.432 42.09C429.092 41.51 428.922 40.76 428.922 39.84C428.922 38.82 429.212 37.92 429.792 37.14C430.392 36.36 431.252 35.75 432.372 35.31C433.492 34.85 434.832 34.62 436.392 34.62C437.492 34.62 438.612 34.74 439.752 34.98C440.892 35.22 441.842 35.57 442.602 36.03L441.042 39.36C440.262 38.9 439.472 38.59 438.672 38.43C437.892 38.25 437.132 38.16 436.392 38.16C435.352 38.16 434.592 38.3 434.112 38.58C433.632 38.86 433.392 39.22 433.392 39.66C433.392 40.06 433.562 40.36 433.902 40.56C434.262 40.76 434.732 40.92 435.312 41.04C435.892 41.16 436.522 41.27 437.202 41.37C437.902 41.45 438.602 41.58 439.302 41.76C440.002 41.94 440.632 42.2 441.192 42.54C441.772 42.86 442.242 43.31 442.602 43.89C442.962 44.45 443.142 45.19 443.142 46.11C443.142 47.11 442.842 48 442.242 48.78C441.642 49.54 440.772 50.14 439.632 50.58C438.512 51.02 437.142 51.24 435.522 51.24Z" fill="white"/>
</svg>
