<svg width="22" height="22" viewBox="0 0 22 22" fill="none" xmlns="http://www.w3.org/2000/svg">
    <path fill-rule="evenodd" clip-rule="evenodd" d="M10.9923 3.82374L11 3.81976L11.008 3.82391L15.0903 6.27331L16.5 7.12262V17.2335C16.5 17.7772 16.4985 18.0746 16.4811 18.2884L16.479 18.3125L16.4548 18.3146C16.241 18.3321 15.9436 18.3335 15.4 18.3335H6.59995C6.05632 18.3335 5.75885 18.3321 5.54511 18.3146L5.52094 18.3125L5.51884 18.2884C5.50138 18.0746 5.49995 17.7772 5.49995 17.2335V7.12264L6.90444 6.27645L10.9923 3.82374ZM5.95983 4.70519L1.36169 7.46408C0.927573 7.72455 0.786805 8.28762 1.04727 8.72174C1.30774 9.15585 1.87082 9.29662 2.30493 9.03615L3.66662 8.21914V17.2335C3.66662 18.2603 3.66662 18.7737 3.86644 19.1658C4.04221 19.5108 4.32267 19.7913 4.66763 19.967C5.05981 20.1669 5.57319 20.1669 6.59995 20.1669H15.4C16.4267 20.1669 16.9401 20.1669 17.3323 19.967C17.6772 19.7913 17.9577 19.5108 18.1335 19.1658C18.3333 18.7737 18.3333 18.2603 18.3333 17.2335V8.21911L19.695 9.03615C20.1291 9.29662 20.6922 9.15585 20.9527 8.72174C21.2131 8.28762 21.0724 7.72455 20.6383 7.46408L16.0348 4.70202L12.5137 2.5806C12.2577 2.42636 12.0613 2.308 11.8948 2.219C11.8559 2.19726 11.8165 2.17705 11.7765 2.15835C11.638 2.09074 11.5179 2.04573 11.3945 2.01854C11.1346 1.96127 10.8653 1.96127 10.6054 2.01854C10.4817 2.04581 10.3613 2.09097 10.2223 2.15888C10.1831 2.17727 10.1443 2.19712 10.1061 2.21844C9.93943 2.30751 9.7427 2.42604 9.48617 2.58059L5.95983 4.70519Z" fill="white" />
    <path fill-rule="evenodd" clip-rule="evenodd" d="M11.9167 18.3332V14.6665C11.9167 14.1602 11.5063 13.7498 11 13.7498C10.4937 13.7498 10.0833 14.1602 10.0833 14.6665V18.3332H11.9167ZM11 11.9165C9.48122 11.9165 8.25 13.1477 8.25 14.6665V20.1665H13.75V14.6665C13.75 13.1477 12.5188 11.9165 11 11.9165Z" fill="white" />
</svg>
    