<svg width="22" height="22" viewBox="0 0 22 22" fill="none" xmlns="http://www.w3.org/2000/svg">
    <path fill-rule="evenodd" clip-rule="evenodd" d="M2.75 11.0002C2.75 10.4939 3.16041 10.0835 3.66667 10.0835H18.3333C18.8396 10.0835 19.25 10.4939 19.25 11.0002V15.5835C19.25 17.6085 17.6084 19.2502 15.5833 19.2502H6.41667C4.39162 19.2502 2.75 17.6085 2.75 15.5835V11.0002ZM5.04167 11.9168C4.78854 11.9168 4.58333 12.122 4.58333 12.3752V15.5835C4.58333 16.596 5.40414 17.4168 6.41667 17.4168H15.5833C16.5959 17.4168 17.4167 16.596 17.4167 15.5835V12.3752C17.4167 12.122 17.2115 11.9168 16.9583 11.9168H5.04167Z" fill="white" />
    <path fill-rule="evenodd" clip-rule="evenodd" d="M17.4168 7.33333H4.5835C4.07723 7.33333 3.66683 7.74374 3.66683 8.25V9.16667C3.66683 9.67293 4.07723 10.0833 4.5835 10.0833H17.4168C17.9231 10.0833 18.3335 9.67293 18.3335 9.16667V8.25C18.3335 7.74374 17.9231 7.33333 17.4168 7.33333ZM4.5835 5.5C3.06471 5.5 1.8335 6.73122 1.8335 8.25V9.16667C1.8335 10.6854 3.06471 11.9167 4.5835 11.9167H17.4168C18.9356 11.9167 20.1668 10.6854 20.1668 9.16667V8.25C20.1668 6.73122 18.9356 5.5 17.4168 5.5H4.5835Z" fill="white" />
    <path d="M10.0835 5.5H11.9168V19.25H10.0835V5.5Z" fill="white" />
    <path fill-rule="evenodd" clip-rule="evenodd" d="M9.1665 7.3335C7.64772 7.3335 6.4165 6.10228 6.4165 4.5835C6.4165 3.06471 7.64772 1.8335 9.1665 1.8335C9.87083 1.8335 10.5133 2.09828 10.9998 2.53373C11.4864 2.09828 12.1288 1.8335 12.8332 1.8335C14.352 1.8335 15.5832 3.06471 15.5832 4.5835C15.5832 6.10228 14.352 7.3335 12.8332 7.3335H9.1665ZM9.1665 3.66683C9.67276 3.66683 10.0832 4.07723 10.0832 4.5835V5.50016H9.1665C8.66024 5.50016 8.24984 5.08976 8.24984 4.5835C8.24984 4.07723 8.66024 3.66683 9.1665 3.66683ZM11.9165 5.50016H12.8332C13.3394 5.50016 13.7498 5.08976 13.7498 4.5835C13.7498 4.07723 13.3394 3.66683 12.8332 3.66683C12.3269 3.66683 11.9165 4.07723 11.9165 4.5835V5.50016Z" fill="white" />
</svg>
    