<svg width="60" height="60" viewBox="0 0 60 60" fill="none" xmlns="http://www.w3.org/2000/svg">
<rect width="60" height="60" rx="9" fill="#121327"/>
<g opacity="1">
<path d="M36.4163 21.3335C37.9351 21.3335 39.1663 22.5647 39.1663 24.0835V31.4168C39.1663 32.9356 37.9351 34.1668 36.4163 34.1668H29.083C27.5642 34.1668 26.333 32.9356 26.333 31.4168C26.333 30.9106 26.7434 30.5002 27.2497 30.5002C27.7559 30.5002 28.1663 30.9106 28.1663 31.4168C28.1663 31.9231 28.5767 32.3335 29.083 32.3335H36.4163C36.9226 32.3335 37.333 31.9231 37.333 31.4168V24.0835C37.333 23.5772 36.9226 23.1668 36.4163 23.1668C35.9101 23.1668 35.4997 22.7564 35.4997 22.2502C35.4997 21.7439 35.9101 21.3335 36.4163 21.3335Z" fill="white"/>
<path fill-rule="evenodd" clip-rule="evenodd" d="M27.2497 26.8335C29.781 26.8335 31.833 24.7815 31.833 22.2502C31.833 19.7189 29.781 17.6668 27.2497 17.6668C24.7184 17.6668 22.6663 19.7189 22.6663 22.2502C22.6663 24.7815 24.7184 26.8335 27.2497 26.8335ZM27.2497 28.6668C30.7935 28.6668 33.6663 25.794 33.6663 22.2502C33.6663 18.7063 30.7935 15.8335 27.2497 15.8335C23.7058 15.8335 20.833 18.7063 20.833 22.2502C20.833 25.794 23.7058 28.6668 27.2497 28.6668Z" fill="white"/>
</g>
<path opacity="1" d="M34.6947 42.6947C34.8769 42.5061 34.9777 42.2535 34.9754 41.9913C34.9731 41.7291 34.8679 41.4783 34.6825 41.2929C34.4971 41.1075 34.2463 41.0023 33.9841 41C33.7219 40.9978 33.4693 41.0986 33.2807 41.2807L34.6947 42.6947ZM29.9877 45.9877L29.2807 46.6947C29.4682 46.8822 29.7225 46.9875 29.9877 46.9875C30.2529 46.9875 30.5072 46.8822 30.6947 46.6947L29.9877 45.9877ZM26.6947 41.2807C26.5061 41.0986 26.2535 40.9978 25.9913 41C25.7291 41.0023 25.4783 41.1075 25.2929 41.2929C25.1075 41.4783 25.0023 41.7291 25 41.9913C24.9978 42.2535 25.0986 42.5061 25.2807 42.6947L26.6947 41.2807ZM33.2807 41.2807L29.2807 45.2807L30.6947 46.6947L34.6947 42.6947L33.2807 41.2807ZM30.6947 45.2807L26.6947 41.2807L25.2807 42.6947L29.2807 46.6947L30.6947 45.2807Z" fill="white"/>
</svg>
