<svg width="22" height="22" viewBox="0 0 22 22" fill="none" xmlns="http://www.w3.org/2000/svg">
    <path d="M17.4193 7.33334C18.9381 7.33334 20.1693 8.56456 20.1693 10.0833V17.4167C20.1693 18.9355 18.9381 20.1667 17.4193 20.1667H10.0859C8.56716 20.1667 7.33594 18.9355 7.33594 17.4167C7.33594 16.9104 7.74634 16.5 8.2526 16.5C8.75887 16.5 9.16927 16.9104 9.16927 17.4167C9.16927 17.9229 9.57968 18.3333 10.0859 18.3333H17.4193C17.9255 18.3333 18.3359 17.9229 18.3359 17.4167V10.0833C18.3359 9.57708 17.9255 9.16668 17.4193 9.16668C16.913 9.16668 16.5026 8.75627 16.5026 8.25001C16.5026 7.74375 16.913 7.33334 17.4193 7.33334Z" fill="white" />
    <path fill-rule="evenodd" clip-rule="evenodd" d="M8.2526 12.8333C10.7839 12.8333 12.8359 10.7813 12.8359 8.25001C12.8359 5.71871 10.7839 3.66668 8.2526 3.66668C5.7213 3.66668 3.66927 5.71871 3.66927 8.25001C3.66927 10.7813 5.7213 12.8333 8.2526 12.8333ZM8.2526 14.6667C11.7964 14.6667 14.6693 11.7938 14.6693 8.25001C14.6693 4.70618 11.7964 1.83334 8.2526 1.83334C4.70878 1.83334 1.83594 4.70618 1.83594 8.25001C1.83594 11.7938 4.70878 14.6667 8.2526 14.6667Z" fill="white" />
</svg>
    