<svg width="160" height="160" viewBox="0 0 160 160" fill="none" xmlns="http://www.w3.org/2000/svg">
    <path style="mix-blend-mode:screen" opacity="0.5" d="M0 160H36.5235L80.2177 108.442L123.474 160H160V147.329L103.636 80L160 12.671V0H123.475L123.255 0.260329L79.7823 51.776L36.527 0H0V12.671L0.171637 12.876L56.5817 79.9989L0 147.108V160ZM35.8439 158.532H1.46753V147.645L58.5008 80.0012L1.46753 12.1365V1.46753H35.8405L79.7777 54.0579L124.158 1.46753H158.532V12.1365L101.722 80L158.532 147.862V158.531H124.16L80.2235 106.163L35.8439 158.532Z" fill="url(#paint0_linear_1045_1305)" />
    <defs>
        <linearGradient id="paint0_linear_1045_1305" x1="209.76" y1="160" x2="21.6" y2="160" gradientUnits="userSpaceOnUse">
            <stop stop-color="#B347FF" />
            <stop offset="0.163" stop-color="#454CF9" />
            <stop offset="0.335" stop-color="#0961FE" />
            <stop offset="0.46" stop-color="#02ACD3" />
            <stop offset="0.582" stop-color="#0390B4" />
            <stop offset="0.653" stop-color="#046A89" />
            <stop offset="0.715" stop-color="#055571" />
            <stop offset="0.799" stop-color="#063952" />
            <stop offset="0.895" stop-color="#072138" />
            <stop offset="1" stop-color="#08071B" />
        </linearGradient>
    </defs>
</svg>
    