<svg width="60" height="60" viewBox="0 0 60 60" fill="none" xmlns="http://www.w3.org/2000/svg">
<rect width="60" height="60" rx="9" fill="#121327"/>
<g opacity="1">
<path fill-rule="evenodd" clip-rule="evenodd" d="M21.75 25.0002C21.75 24.4939 22.1604 24.0835 22.6667 24.0835H37.3333C37.8396 24.0835 38.25 24.4939 38.25 25.0002V29.5835C38.25 31.6085 36.6084 33.2502 34.5833 33.2502H25.4167C23.3916 33.2502 21.75 31.6085 21.75 29.5835V25.0002ZM24.0417 25.9168C23.7885 25.9168 23.5833 26.122 23.5833 26.3752V29.5835C23.5833 30.596 24.4041 31.4168 25.4167 31.4168H34.5833C35.5959 31.4168 36.4167 30.596 36.4167 29.5835V26.3752C36.4167 26.122 36.2115 25.9168 35.9583 25.9168H24.0417Z" fill="white"/>
<path fill-rule="evenodd" clip-rule="evenodd" d="M36.4173 21.3333H23.584C23.0777 21.3333 22.6673 21.7437 22.6673 22.25V23.1667C22.6673 23.6729 23.0777 24.0833 23.584 24.0833H36.4173C36.9236 24.0833 37.334 23.6729 37.334 23.1667V22.25C37.334 21.7437 36.9236 21.3333 36.4173 21.3333ZM23.584 19.5C22.0652 19.5 20.834 20.7312 20.834 22.25V23.1667C20.834 24.6854 22.0652 25.9167 23.584 25.9167H36.4173C37.9361 25.9167 39.1673 24.6854 39.1673 23.1667V22.25C39.1673 20.7312 37.9361 19.5 36.4173 19.5H23.584Z" fill="white"/>
<path d="M29.084 19.5H30.9173V33.25H29.084V19.5Z" fill="white"/>
<path fill-rule="evenodd" clip-rule="evenodd" d="M28.166 21.3335C26.6472 21.3335 25.416 20.1023 25.416 18.5835C25.416 17.0647 26.6472 15.8335 28.166 15.8335C28.8703 15.8335 29.5128 16.0983 29.9993 16.5337C30.4859 16.0983 31.1284 15.8335 31.8327 15.8335C33.3515 15.8335 34.5827 17.0647 34.5827 18.5835C34.5827 20.1023 33.3515 21.3335 31.8327 21.3335H28.166ZM28.166 17.6668C28.6723 17.6668 29.0827 18.0772 29.0827 18.5835V19.5002H28.166C27.6598 19.5002 27.2493 19.0898 27.2493 18.5835C27.2493 18.0772 27.6598 17.6668 28.166 17.6668ZM30.916 19.5002H31.8327C32.3389 19.5002 32.7493 19.0898 32.7493 18.5835C32.7493 18.0772 32.3389 17.6668 31.8327 17.6668C31.3264 17.6668 30.916 18.0772 30.916 18.5835V19.5002Z" fill="white"/>
</g>
<path opacity="1" d="M34.6947 42.6947C34.8769 42.5061 34.9777 42.2535 34.9754 41.9913C34.9731 41.7291 34.8679 41.4783 34.6825 41.2929C34.4971 41.1075 34.2463 41.0023 33.9841 41C33.7219 40.9978 33.4693 41.0986 33.2807 41.2807L34.6947 42.6947ZM29.9877 45.9877L29.2807 46.6947C29.4682 46.8822 29.7225 46.9875 29.9877 46.9875C30.2529 46.9875 30.5072 46.8822 30.6947 46.6947L29.9877 45.9877ZM26.6947 41.2807C26.5061 41.0986 26.2535 40.9978 25.9913 41C25.7291 41.0023 25.4783 41.1075 25.2929 41.2929C25.1075 41.4783 25.0023 41.7291 25 41.9913C24.9978 42.2535 25.0986 42.5061 25.2807 42.6947L26.6947 41.2807ZM33.2807 41.2807L29.2807 45.2807L30.6947 46.6947L34.6947 42.6947L33.2807 41.2807ZM30.6947 45.2807L26.6947 41.2807L25.2807 42.6947L29.2807 46.6947L30.6947 45.2807Z" fill="white"/>
</svg>
