<svg width="21" height="24" viewBox="0 0 21 24" fill="none" xmlns="http://www.w3.org/2000/svg">
<path fill-rule="evenodd" clip-rule="evenodd" d="M10.2359 0C9.22689 0 7.5409 0.3975 5.95435 0.84C4.33123 1.29 2.69496 1.8225 1.73279 2.145C1.33051 2.28128 0.973862 2.5312 0.70382 2.86605C0.433778 3.20091 0.261296 3.60711 0.206187 4.038C-0.665322 10.7535 1.35699 15.7305 3.81067 19.023C4.85119 20.4314 6.09184 21.6717 7.49119 22.7025C8.05562 23.112 8.57911 23.4255 9.02364 23.64C9.43307 23.838 9.87322 24 10.2359 24C10.5985 24 11.0372 23.838 11.4481 23.64C11.984 23.3728 12.4966 23.0592 12.9805 22.7025C14.3799 21.6718 15.6206 20.4315 16.661 19.023C19.1147 15.7305 21.137 10.7535 20.2655 4.038C20.2105 3.6069 20.0381 3.20046 19.768 2.86535C19.498 2.53024 19.1413 2.28004 18.7389 2.1435C17.3422 1.67372 15.9346 1.23859 14.5174 0.8385C12.9308 0.399 11.2448 0 10.2359 0ZM13.3739 7.719C13.5112 7.57817 13.6974 7.49905 13.8915 7.49905C14.0857 7.49905 14.2719 7.57817 14.4092 7.719C14.5464 7.85983 14.6236 8.05084 14.6236 8.25C14.6236 8.44916 14.5464 8.64017 14.4092 8.781L10.0224 13.281C9.95445 13.3508 9.87377 13.4063 9.78494 13.4441C9.69612 13.4819 9.60089 13.5013 9.50472 13.5013C9.40856 13.5013 9.31333 13.4819 9.22451 13.4441C9.13568 13.4063 9.055 13.3508 8.98708 13.281L6.79369 11.031C6.72571 10.9613 6.67179 10.8785 6.635 10.7874C6.59821 10.6963 6.57927 10.5986 6.57927 10.5C6.57927 10.4014 6.59821 10.3037 6.635 10.2126C6.67179 10.1215 6.72571 10.0387 6.79369 9.969C6.86166 9.89927 6.94237 9.84395 7.03118 9.80622C7.12 9.76848 7.21519 9.74905 7.31133 9.74905C7.40746 9.74905 7.50266 9.76848 7.59147 9.80622C7.68029 9.84395 7.76099 9.89927 7.82897 9.969L9.50472 11.6895L13.3739 7.719Z" fill="#8A92A6"/>
</svg>
