<svg width="2378" height="1178" viewBox="0 0 2378 1178" fill="none" xmlns="http://www.w3.org/2000/svg">
<g clip-path="url(#clip0_494_574)">
<path d="M2377.67 0H0V1177.42H2377.67V0Z" fill="#4B195B"/>
<path d="M0 1177.42L2377.67 1177.42V0L0 0V1177.42Z" fill="url(#paint0_linear_494_574)"/>
<path d="M1424.59 207.93H1024.05C1008.51 207.93 995.91 220.528 995.91 236.07V245.35C995.91 260.891 1008.51 273.49 1024.05 273.49H1424.59C1440.13 273.49 1452.73 260.891 1452.73 245.35V236.07C1452.73 220.528 1440.13 207.93 1424.59 207.93Z" fill="#3C0749"/>
<path d="M2063.19 295.75H1662.65C1647.11 295.75 1634.51 308.349 1634.51 323.89V333.17C1634.51 348.711 1647.11 361.31 1662.65 361.31H2063.19C2078.73 361.31 2091.33 348.711 2091.33 333.17V323.89C2091.33 308.349 2078.73 295.75 2063.19 295.75Z" fill="#3C0749"/>
<path d="M2181.24 413.12H1290.83C1275.29 413.12 1262.69 425.719 1262.69 441.26V450.54C1262.69 466.081 1275.29 478.68 1290.83 478.68H2181.24C2196.78 478.68 2209.38 466.081 2209.38 450.54V441.26C2209.38 425.719 2196.78 413.12 2181.24 413.12Z" fill="#3C0749"/>
<path d="M2025.42 462.85H1176.64C1161.1 462.85 1148.5 475.448 1148.5 490.99V500.27C1148.5 515.811 1161.1 528.41 1176.64 528.41H2025.42C2040.96 528.41 2053.56 515.811 2053.56 500.27V490.99C2053.56 475.448 2040.96 462.85 2025.42 462.85Z" fill="#3C0749"/>
<path d="M2117.49 562.86H1716.95C1701.41 562.86 1688.81 575.459 1688.81 591V600.28C1688.81 615.822 1701.41 628.42 1716.95 628.42H2117.49C2133.03 628.42 2145.63 615.822 2145.63 600.28V591C2145.63 575.459 2133.03 562.86 2117.49 562.86Z" fill="#3C0749"/>
<path d="M2228.83 606.21H1828.29C1812.75 606.21 1800.15 618.809 1800.15 634.35V643.63C1800.15 659.171 1812.75 671.77 1828.29 671.77H2228.83C2244.37 671.77 2256.97 659.171 2256.97 643.63V634.35C2256.97 618.809 2244.37 606.21 2228.83 606.21Z" fill="#3C0749"/>
<path d="M1477.71 589.18H1048.32C1032.78 589.18 1020.18 601.778 1020.18 617.32V626.6C1020.18 642.141 1032.78 654.74 1048.32 654.74H1477.71C1493.25 654.74 1505.85 642.141 1505.85 626.6V617.32C1505.85 601.778 1493.25 589.18 1477.71 589.18Z" fill="#3C0749"/>
<path d="M1497.78 647.85H967.54C951.999 647.85 939.4 660.448 939.4 675.99V685.27C939.4 700.811 951.999 713.41 967.54 713.41H1497.78C1513.32 713.41 1525.92 700.811 1525.92 685.27V675.99C1525.92 660.448 1513.32 647.85 1497.78 647.85Z" fill="#3C0749"/>
<path d="M1539.09 1041.22H1138.55C1123.01 1041.22 1110.41 1053.82 1110.41 1069.36V1078.64C1110.41 1094.18 1123.01 1106.78 1138.55 1106.78H1539.09C1554.63 1106.78 1567.23 1094.18 1567.23 1078.64V1069.36C1567.23 1053.82 1554.63 1041.22 1539.09 1041.22Z" fill="#3C0749"/>
<path d="M2187.14 876.91H1786.6C1771.06 876.91 1758.46 889.509 1758.46 905.05V914.33C1758.46 929.871 1771.06 942.47 1786.6 942.47H2187.14C2202.68 942.47 2215.28 929.871 2215.28 914.33V905.05C2215.28 889.509 2202.68 876.91 2187.14 876.91Z" fill="#3C0749"/>
<path d="M2296.92 927.09H1791.32C1775.78 927.09 1763.18 939.689 1763.18 955.23V964.51C1763.18 980.051 1775.78 992.65 1791.32 992.65H2296.92C2312.46 992.65 2325.06 980.051 2325.06 964.51V955.23C2325.06 939.689 2312.46 927.09 2296.92 927.09Z" fill="#3C0749"/>
<path d="M2188.04 1103.95C2210.2 1103.95 2228.17 1091.63 2228.17 1076.43C2228.17 1061.23 2210.2 1048.91 2188.04 1048.91C2165.88 1048.91 2147.91 1061.23 2147.91 1076.43C2147.91 1091.63 2165.88 1103.95 2188.04 1103.95Z" fill="#3C0749"/>
<path d="M2162.98 315.89C2185.14 315.89 2203.11 303.568 2203.11 288.37C2203.11 273.171 2185.14 260.85 2162.98 260.85C2140.82 260.85 2122.85 273.171 2122.85 288.37C2122.85 303.568 2140.82 315.89 2162.98 315.89Z" fill="#3C0749"/>
<path d="M1074.12 567.54C1096.28 567.54 1114.25 555.219 1114.25 540.02C1114.25 524.821 1096.28 512.5 1074.12 512.5C1051.96 512.5 1033.99 524.821 1033.99 540.02C1033.99 555.219 1051.96 567.54 1074.12 567.54Z" fill="#3C0749"/>
</g>
<defs>
<linearGradient id="paint0_linear_494_574" x1="2377.67" y1="588.72" x2="-0.0100622" y2="588.72" gradientUnits="userSpaceOnUse">
<stop stop-color="#16001F"/>
<stop offset="0.28" stop-color="#250029" stop-opacity="0.51"/>
<stop offset="0.64" stop-color="#300031" stop-opacity="0.13"/>
<stop offset="1" stop-color="#340034" stop-opacity="0"/>
</linearGradient>
<clipPath id="clip0_494_574">
<rect width="2377.67" height="1177.42" fill="white"/>
</clipPath>
</defs>
</svg>
