<?xml version="1.0" encoding="utf-8"?>
<!-- Generator: Adobe Illustrator 27.3.1, SVG Export Plug-In . SVG Version: 6.00 Build 0)  -->
<svg version="1.1" id="Layer_1" xmlns="http://www.w3.org/2000/svg" xmlns:xlink="http://www.w3.org/1999/xlink" x="0px" y="0px"
	 viewBox="0 0 480 80" style="enable-background:new 0 0 480 80;" xml:space="preserve">
<style type="text/css">
	.st0{fill:url(#SVGID_1_);}
</style>
<linearGradient id="SVGID_1_" gradientUnits="userSpaceOnUse" x1="207.4686" y1="138.4084" x2="264.3083" y2="-59.8152">
	<stop  offset="0" style="stop-color:#A4A7A9"/>
	<stop  offset="5.611028e-02" style="stop-color:#C0C1C2"/>
	<stop  offset="0.1158" style="stop-color:#D8D8D9"/>
	<stop  offset="0.1761" style="stop-color:#ECEBEB"/>
	<stop  offset="0.2365" style="stop-color:#F9F8F8"/>
	<stop  offset="0.2976" style="stop-color:#FFFFFF"/>
	<stop  offset="0.3194" style="stop-color:#DDDCDC"/>
	<stop  offset="0.3569" style="stop-color:#B8B6B7"/>
	<stop  offset="0.3942" style="stop-color:#9D9D9E"/>
	<stop  offset="0.4306" style="stop-color:#8C8C8D"/>
	<stop  offset="0.4658" style="stop-color:#828384"/>
	<stop  offset="0.4985" style="stop-color:#7F8081"/>
	<stop  offset="0.5045" style="stop-color:#8A8B8C"/>
	<stop  offset="0.5193" style="stop-color:#A4A3A4"/>
	<stop  offset="0.536" style="stop-color:#BCBBBB"/>
	<stop  offset="0.5549" style="stop-color:#D1D0D0"/>
	<stop  offset="0.5769" style="stop-color:#E3E2E2"/>
	<stop  offset="0.6041" style="stop-color:#F1F0F0"/>
	<stop  offset="0.6423" style="stop-color:#FBFBFB"/>
	<stop  offset="0.7484" style="stop-color:#FFFFFF"/>
	<stop  offset="0.8019" style="stop-color:#D4D4D4"/>
	<stop  offset="0.8554" style="stop-color:#B8B9BA"/>
	<stop  offset="0.9074" style="stop-color:#A5A7A8"/>
	<stop  offset="0.9566" style="stop-color:#9A9C9E"/>
	<stop  offset="1" style="stop-color:#96999B"/>
</linearGradient>
<path class="st0" d="M286.2,2l-26.7,77.3h-24.6l-23.4-45.9l-15.9,45.9h-25.9l23.1-66.8L181.2,2h15.1l0,0h25.9L244.3,48L260.2,2
	H286.2z M319.6,20.7h50.3L376.4,2h-67.3c0,0,0,0,0,0h-23.4l11,10l-23.3,67.3h25.9l8.4-24.4l-7.1-6.5h16.6l0,0h36.6l5.4-15.7h-43.9
	l1.7-4.9l-7.9-7.2L319.6,20.7L319.6,20.7z M135.9,28.5h46.4l5.6-16.2h-61.1c0,0,0,0,0,0h-20.2l9.5,8.6l-15.9,46
	C98,73,103,79.3,110.1,79.3h54.5l5.6-16.2h-46.4l1.9-5.5l-5.6-5h14.4l0,0h34.1l4.7-13.6h-41.2l1.4-4l-7.2-6.5L135.9,28.5L135.9,28.5
	z M106.2,18.5c-0.6,2.5-1.4,4.9-2.6,7.4c-1.2,2.4-2.5,4.7-4.2,6.7c-1.6,2-3.3,3.5-5,4.5c2.8,1.9,4.5,4.7,5.2,8.6
	c0.6,3.3,0.3,6.9-0.8,10.8c-1.1,3.9-2.9,7.5-5.4,10.9c-2.5,3.4-5.6,6.2-9.2,8.5c-3.7,2.3-7.7,3.4-12.2,3.4H1.3l23.2-67L13.1,2h14.9
	l0,0h62.1c4.6,0,8.3,0.9,11.3,2.6c2.9,1.8,4.6,4.2,5.2,7.2C106.9,13.8,106.8,16,106.2,18.5z M73.4,51.2c-0.4-2.1-2-3.1-4.9-3.1H38.1
	l0,0H30l6.2,5.6l-2.4,7H64c1.9,0,3.6-0.5,5.3-1.6c1.7-1.1,2.7-2.3,3.2-3.8l0.6-1.7C73.4,52.6,73.5,51.8,73.4,51.2z M78.3,24
	c-0.4-2.3-2.1-3.4-5-3.4H47.5l0,0.1h-9.3l7.1,6.4l-2,6h25.8c1.9,0,3.6-0.5,5.3-1.6c1.7-1.1,2.8-2.4,3.3-3.9l0.5-1.5
	C78.4,25.5,78.5,24.8,78.3,24z M401.4,2H390h-15.2l11.6,10.5l-2.8,8.2h32l-20.3,58.6h25.9L438.6,29l-9.2-8.3h12l0,0h32L480,2H401.4z
	"/>
</svg>
