<svg width="61" height="60" viewBox="0 0 61 60" fill="none" xmlns="http://www.w3.org/2000/svg">
<circle cx="30.2861" cy="30" r="30" fill="white"/>
<path d="M43.0432 19.4398C40.7947 18.3525 38.416 17.58 35.9699 17.1426C35.6652 17.7119 35.3092 18.4775 35.0637 19.0867C32.4264 18.6769 29.8133 18.6769 27.2245 19.0867C26.9791 18.4777 26.6151 17.7119 26.3076 17.1426C23.8591 17.5802 21.4784 18.3547 19.2288 19.4454C14.7524 26.4364 13.5389 33.2535 14.1456 39.9741C17.1146 42.2655 19.992 43.6575 22.8208 44.5684C23.5238 43.5692 24.1453 42.5114 24.6788 41.4059C23.6631 41.0062 22.684 40.5138 21.753 39.9343C21.998 39.7466 22.2372 39.551 22.4703 39.3478C28.1116 42.0748 34.2413 42.0748 39.8154 39.3478C40.0495 39.5497 40.2886 39.7452 40.5326 39.9343C39.6001 40.5153 38.6191 41.0087 37.6014 41.4088C38.1379 42.5188 38.7583 43.5776 39.4594 44.5711C42.2909 43.6604 45.1709 42.2684 48.14 39.9741C48.8519 32.1833 46.9239 25.4288 43.0432 19.4398ZM25.4474 35.8411C23.7539 35.8411 22.365 34.2071 22.365 32.2175C22.365 30.2279 23.7243 28.5912 25.4474 28.5912C27.1707 28.5912 28.5594 30.225 28.5298 32.2175C28.5324 34.2071 27.1707 35.8411 25.4474 35.8411ZM36.8381 35.8411C35.1446 35.8411 33.7559 34.2071 33.7559 32.2175C33.7559 30.2279 35.115 28.5912 36.8381 28.5912C38.5614 28.5912 39.9501 30.225 39.9205 32.2175C39.9205 34.2071 38.5614 35.8411 36.8381 35.8411Z" fill="black"/>
</svg>
