<svg width="43" height="43" viewBox="0 0 43 43" fill="none" xmlns="http://www.w3.org/2000/svg">
<rect width="42.4242" height="42.4242" rx="21.2121" fill="#5872E7"/>
<path d="M21.6823 5.34792V5.36298C21.6974 5.43828 21.6974 5.52864 21.6974 5.619V16.4775C21.6823 16.5377 21.6372 16.5528 21.592 16.5829C21.2757 16.7335 20.9745 16.8691 20.6582 17.0046C20.2215 17.2004 19.7697 17.4112 19.3329 17.607L17.7516 18.3299C17.3149 18.5257 16.8781 18.7215 16.4564 18.9173C15.9444 19.1582 15.4173 19.3841 14.9052 19.6251C14.4685 19.8209 14.0317 20.0317 13.5799 20.2275C13.2185 20.3932 12.857 20.5438 12.5106 20.7094C12.4805 20.7245 12.4504 20.7396 12.4203 20.7396C12.4052 20.7396 12.4052 20.7396 12.3901 20.7245L12.7968 20.0468C13.5799 18.7516 14.348 17.4715 15.1311 16.1763C15.9594 14.7907 16.8028 13.4052 17.6311 12.0196C18.3992 10.7395 19.1823 9.45938 19.9504 8.17925C20.5076 7.24551 21.0799 6.31178 21.6372 5.37804C21.6522 5.34792 21.6673 5.33286 21.6673 5.30273H21.6823C21.6673 5.31779 21.6823 5.33286 21.6823 5.34792Z" fill="#F3F3F3"/>
<path d="M30.928 20.7241L30.9431 20.7391L28.7292 22.0494L21.7714 26.1609C21.7412 26.1759 21.7111 26.191 21.6961 26.206C21.6509 26.206 21.6509 26.1609 21.6509 26.1458V26.0103V16.703C21.6509 16.6578 21.6509 16.5976 21.6659 16.5524C21.681 16.4921 21.7262 16.5072 21.7714 16.5223C21.9671 16.6126 22.178 16.703 22.3738 16.7933C22.9611 17.0644 23.5485 17.3355 24.1358 17.5915C24.6479 17.8174 25.1449 18.0584 25.6569 18.2843C26.169 18.5102 26.681 18.7512 27.1931 18.9771C27.6298 19.1729 28.0816 19.3837 28.5184 19.5795C28.9551 19.7753 29.4069 19.9861 29.8437 20.1819C30.1901 20.3325 30.5365 20.4982 30.8829 20.6488C30.8829 20.694 30.8979 20.709 30.928 20.7241Z" fill="#8A8DA7"/>
<path d="M21.6809 35.5584C21.6809 35.5735 21.6658 35.5885 21.6658 35.6036H21.6508C21.6508 35.5735 21.6206 35.5584 21.6056 35.5283C20.6718 34.2181 19.7381 32.8927 18.8044 31.5825C17.8556 30.2421 16.8917 28.8867 15.9429 27.5463C15.0242 26.2511 14.0905 24.9409 13.1718 23.6457C12.9308 23.2993 12.6899 22.968 12.4489 22.6216C12.4339 22.5915 12.4188 22.5764 12.3887 22.5312C12.4339 22.5312 12.464 22.5614 12.479 22.5764C13.7893 23.3445 15.0845 24.1126 16.3947 24.8807C17.9007 25.7692 19.3917 26.6578 20.8977 27.5463L21.6658 27.9981C21.6959 28.0283 21.6959 28.0584 21.6959 28.0885V35.3476C21.6959 35.4229 21.6959 35.4982 21.6809 35.5584Z" fill="#F3F3F3"/>
<path d="M12.3735 20.7548V20.7398C12.8555 20.5289 13.3223 20.303 13.8043 20.0922C14.4217 19.806 15.0392 19.5349 15.6567 19.2488C16.1236 19.0379 16.6055 18.812 17.0724 18.6012C17.7651 18.2849 18.4428 17.9837 19.1356 17.6675C19.6025 17.4566 20.0694 17.2458 20.5513 17.0199C20.8826 16.8693 21.229 16.7187 21.5603 16.5681C21.5904 16.553 21.6356 16.5379 21.6507 16.5078C21.6657 16.5078 21.6657 16.5229 21.6507 16.5379V26.1012C21.6507 26.1464 21.6356 26.1916 21.6657 26.2217C21.6356 26.2669 21.6055 26.2217 21.5904 26.2067C21.4549 26.1314 21.3194 26.056 21.1838 25.9657C18.2772 24.2488 15.3555 22.5169 12.4488 20.8C12.4338 20.7849 12.4037 20.7699 12.3735 20.7548Z" fill="#C5C8D9"/>
<path d="M30.8975 22.5312H30.9126C30.9126 22.5614 30.8824 22.5915 30.8674 22.6216C28.0963 26.5222 25.3252 30.4379 22.5541 34.3385C22.2679 34.7452 21.9667 35.1518 21.6806 35.5584C21.6655 35.5434 21.6655 35.5283 21.6655 35.5132V35.4229V28.1186V27.9831C22.2981 27.6066 22.9155 27.2451 23.5481 26.8686C25.9878 25.4228 28.4276 23.9921 30.8523 22.5463C30.8674 22.5614 30.8824 22.5463 30.8975 22.5312Z" fill="#C5C8D9"/>
<path d="M21.6659 16.538V16.5079V16.4175V5.48376C21.6659 5.43858 21.6508 5.40846 21.6809 5.36328C24.7382 10.4386 27.7954 15.4989 30.8376 20.5742C30.8677 20.6194 30.9129 20.6796 30.928 20.7399C30.7171 20.6646 30.5213 20.5591 30.3255 20.4688C30.0846 20.3633 29.8286 20.2429 29.5876 20.1374C29.437 20.0621 29.2713 20.0019 29.1207 19.9266C28.8647 19.8061 28.6087 19.7007 28.3526 19.5802C28.202 19.52 28.0514 19.4447 27.9008 19.3694L26.9069 18.9176C26.7412 18.8423 26.5755 18.767 26.3948 18.6917L25.6719 18.3754C25.5213 18.3151 25.3707 18.2398 25.2201 18.1645L24.2261 17.7127C24.0605 17.6374 23.8948 17.5621 23.7141 17.4868L22.9912 17.1706C22.8255 17.0953 22.6749 17.02 22.5092 16.9447C22.2231 16.8091 21.9369 16.6736 21.6357 16.5531C21.6809 16.538 21.6659 16.538 21.6659 16.538Z" fill="#C5C8D9"/>
</svg>
