<svg width="35" height="35" viewBox="0 0 35 35" fill="none" xmlns="http://www.w3.org/2000/svg">
<circle cx="17.5" cy="17.5" r="17.5" fill="#15448A"/>
<path d="M24.2477 12.167C23.0672 11.6147 21.8184 11.2222 20.5342 11C20.3742 11.2892 20.1873 11.6782 20.0585 11.9876C18.6739 11.7794 17.302 11.7794 15.9429 11.9876C15.814 11.6782 15.6229 11.2892 15.4615 11C14.176 11.2223 12.9261 11.6158 11.7451 12.1699C9.39501 15.7213 8.75791 19.1844 9.07642 22.5985C10.6352 23.7625 12.1458 24.4696 13.6309 24.9323C14 24.4248 14.3263 23.8874 14.6064 23.3258C14.0731 23.1228 13.5591 22.8726 13.0703 22.5782C13.1989 22.4829 13.3245 22.3835 13.4469 22.2803C16.4086 23.6656 19.6267 23.6656 22.5531 22.2803C22.676 22.3828 22.8015 22.4822 22.9296 22.5782C22.4401 22.8734 21.925 23.124 21.3907 23.3273C21.6724 23.8912 21.9981 24.4291 22.3662 24.9338C23.8527 24.4711 25.3647 23.764 26.9235 22.5985C27.2973 18.6407 26.2851 15.2093 24.2477 12.1669V12.167ZM15.0099 20.4989C14.1208 20.4989 13.3916 19.6688 13.3916 18.6581C13.3916 17.6473 14.1052 16.8159 15.0099 16.8159C15.9146 16.8159 16.6437 17.6459 16.6281 18.6581C16.6295 19.6688 15.9146 20.4989 15.0099 20.4989ZM20.99 20.4989C20.1009 20.4989 19.3719 19.6688 19.3719 18.6581C19.3719 17.6473 20.0854 16.8159 20.99 16.8159C21.8947 16.8159 22.6238 17.6459 22.6083 18.6581C22.6083 19.6688 21.8947 20.4989 20.99 20.4989Z" fill="white"/>
</svg>
