<svg width="35" height="35" viewBox="0 0 35 35" fill="none" xmlns="http://www.w3.org/2000/svg">
<circle cx="17.5" cy="17.5" r="17.5" fill="#15448A"/>
<path d="M17.5 8C12.2517 8 8 12.2523 8 17.5C8 22.7477 12.2523 27 17.5 27C22.7483 27 27 22.7477 27 17.5C27 12.2523 22.7477 8 17.5 8ZM22.166 14.5084L20.6068 21.8559C20.4916 22.3769 20.1815 22.5031 19.7487 22.258L17.3737 20.5075L16.2282 21.6107C16.102 21.737 15.9947 21.8443 15.7495 21.8443L15.9181 19.427L20.3194 15.4505C20.5112 15.2819 20.2771 15.1863 20.0239 15.3548L14.5844 18.7791L12.2401 18.0473C11.7307 17.8867 11.7191 17.538 12.3473 17.2928L21.5065 13.7607C21.9319 13.6075 22.3039 13.8649 22.166 14.5084Z" fill="white"/>
</svg>
