<svg width="35" height="35" viewBox="0 0 35 35" fill="none" xmlns="http://www.w3.org/2000/svg">
<circle cx="17.5" cy="17.5" r="17.5" fill="#15448A"/>
<path d="M27 11.7317C26.326 12.0303 25.611 12.2263 24.879 12.3131C25.6415 11.8561 26.227 11.1324 26.5027 10.2701C25.7778 10.7002 24.9847 11.0033 24.1577 11.1662C23.484 10.4485 22.5243 10 21.4621 10C19.4226 10 17.7691 11.6535 17.7691 13.6928C17.7691 13.9823 17.8018 14.2641 17.8647 14.5345C14.7956 14.3804 12.0745 12.9102 10.253 10.676C9.93523 11.2214 9.75312 11.8558 9.75312 12.5325C9.75312 13.8138 10.4051 14.944 11.396 15.6063C10.8095 15.5879 10.236 15.4295 9.72323 15.1443C9.72302 15.1598 9.72302 15.1753 9.72302 15.1908C9.72302 16.9801 10.996 18.4727 12.6853 18.8119C12.1415 18.9598 11.5711 18.9815 11.0176 18.8752C11.4875 20.3423 12.8514 21.41 14.4673 21.4398C13.2034 22.4303 11.6111 23.0207 9.88095 23.0207C9.58282 23.0207 9.28891 23.0032 9 22.9691C10.6343 24.0169 12.5754 24.6282 14.6609 24.6282C21.4535 24.6282 25.1679 19.0011 25.1679 14.1211C25.1679 13.9609 25.1644 13.8017 25.1573 13.6433C25.8802 13.1207 26.5042 12.4733 27 11.7317Z" fill="white"/>
</svg>
