<svg width="44" height="44" viewBox="0 0 44 44" fill="none" xmlns="http://www.w3.org/2000/svg">
    <circle cx="22" cy="22" r="22" fill="white"/>
    <g clip-path="url(#clip0_61_4862)">
    <path d="M30.6602 12.9496L11.9845 20.1513C10.7099 20.6633 10.7173 21.3743 11.7506 21.6913L16.5454 23.1871L27.6393 16.1876C28.1638 15.8685 28.6431 16.0401 28.2491 16.3899L19.261 24.5017H19.2588L19.261 24.5027L18.9302 29.445C19.4147 29.445 19.6286 29.2227 19.9003 28.9605L22.2293 26.6958L27.0736 30.274C27.9668 30.7659 28.6083 30.5131 28.8306 29.4471L32.0106 14.4601C32.3361 13.155 31.5124 12.5641 30.6602 12.9496V12.9496Z" fill="black"/>
    </g>
    <defs>
    <clipPath id="clip0_61_4862">
    <rect width="31.4286" height="31.4286" fill="white" transform="translate(11.1309 12.5714)"/>
    </clipPath>
    </defs>
    </svg>
    