<svg width="70" height="70" viewBox="0 0 70 70" fill="none" xmlns="http://www.w3.org/2000/svg">
    <circle cx="35" cy="35" r="35" fill="white"/>
    <path d="M41.412 39.4C41.548 38.278 41.65 37.156 41.65 36C41.65 34.844 41.548 33.722 41.412 32.6H47.158C47.43 33.688 47.6 34.827 47.6 36C47.6 37.173 47.43 38.312 47.158 39.4M38.403 48.852C39.423 46.965 40.205 44.925 40.749 42.8H45.764C44.117 45.6361 41.504 47.7844 38.403 48.852ZM37.978 39.4H30.022C29.852 38.278 29.75 37.156 29.75 36C29.75 34.844 29.852 33.705 30.022 32.6H37.978C38.131 33.705 38.25 34.844 38.25 36C38.25 37.156 38.131 38.278 37.978 39.4ZM34 49.532C32.589 47.492 31.45 45.231 30.753 42.8H37.247C36.55 45.231 35.411 47.492 34 49.532ZM27.2 29.2H22.236C23.8661 26.3563 26.4772 24.2045 29.58 23.148C28.56 25.035 27.795 27.075 27.2 29.2ZM22.236 42.8H27.2C27.795 44.925 28.56 46.965 29.58 48.852C26.4837 47.7838 23.8762 45.6351 22.236 42.8ZM20.842 39.4C20.57 38.312 20.4 37.173 20.4 36C20.4 34.827 20.57 33.688 20.842 32.6H26.588C26.452 33.722 26.35 34.844 26.35 36C26.35 37.156 26.452 38.278 26.588 39.4M34 22.451C35.411 24.491 36.55 26.769 37.247 29.2H30.753C31.45 26.769 32.589 24.491 34 22.451ZM45.764 29.2H40.749C40.2169 27.0945 39.4291 25.062 38.403 23.148C41.531 24.219 44.132 26.378 45.764 29.2ZM34 19C24.599 19 17 26.65 17 36C17 40.5087 18.7911 44.8327 21.9792 48.0208C23.5578 49.5994 25.4318 50.8516 27.4944 51.706C29.5569 52.5603 31.7675 53 34 53C38.5087 53 42.8327 51.2089 46.0208 48.0208C49.2089 44.8327 51 40.5087 51 36C51 33.7675 50.5603 31.5569 49.706 29.4944C48.8516 27.4318 47.5994 25.5578 46.0208 23.9792C44.4422 22.4006 42.5682 21.1484 40.5056 20.294C38.4431 19.4397 36.2325 19 34 19Z" fill="black"/>
    </svg>
    
    
    