<svg width="60" height="60" viewBox="0 0 60 60" fill="none" xmlns="http://www.w3.org/2000/svg">
<circle cx="30" cy="30" r="30" fill="white"/>
<path d="M46.2854 20.4391C45.1941 21.0076 44.0366 21.3807 42.8514 21.5461C44.0859 20.6761 45.0339 19.2983 45.4802 17.6567C44.3066 18.4756 43.0226 19.0526 41.6836 19.3627C40.5929 17.9964 39.0391 17.1426 37.3193 17.1426C34.0173 17.1426 31.3402 20.2903 31.3402 24.1726C31.3402 24.7237 31.3931 25.2602 31.495 25.7748C26.5259 25.4816 22.1203 22.6828 19.1713 18.4295C18.6568 19.4678 18.3619 20.6755 18.3619 21.9637C18.3619 24.4028 19.4175 26.5545 21.0218 27.8153C20.0723 27.7803 19.1437 27.4788 18.3135 26.9359C18.3132 26.9653 18.3132 26.9948 18.3132 27.0244C18.3132 30.4305 20.3741 33.272 23.1092 33.9179C22.2288 34.1994 21.3053 34.2406 20.4092 34.0383C21.17 36.8313 23.3781 38.8638 25.9944 38.9206C23.9481 40.8061 21.37 41.9301 18.5689 41.9301C18.0862 41.9301 17.6103 41.8968 17.1426 41.8318C19.7885 43.8265 22.9313 44.9904 26.3078 44.9904C37.3055 44.9904 43.3192 34.2779 43.3192 24.9879C43.3192 24.683 43.3135 24.3798 43.3019 24.0784C44.4725 23.0834 45.4828 21.8511 46.2854 20.4391Z" fill="black"/>
</svg>
