<svg width="106" height="106" viewBox="0 0 106 106" fill="none" xmlns="http://www.w3.org/2000/svg">
<path d="M3 22.9994C3 17.6952 5.10714 12.6083 8.85786 8.85769C12.6086 5.10708 17.6957 3 23 3H83C88.3043 3 93.3914 5.10708 97.1421 8.85769C100.893 12.6083 103 17.6952 103 22.9994V82.9977C103 88.3018 100.893 93.3888 97.1421 97.1394C93.3914 100.89 88.3043 102.997 83 102.997H23C17.6957 102.997 12.6086 100.89 8.85786 97.1394C5.10714 93.3888 3 88.3018 3 82.9977V22.9994Z" stroke="black" stroke-width="5" stroke-linecap="round" stroke-linejoin="round"/>
<path d="M35.5 47.9993C42.4036 47.9993 48 42.403 48 35.4996C48 28.5963 42.4036 23 35.5 23C28.5964 23 23 28.5963 23 35.4996C23 42.403 28.5964 47.9993 35.5 47.9993Z" stroke="black" stroke-width="5" stroke-linecap="round" stroke-linejoin="round"/>
<path d="M65.63 56.1064L23 103H83.665C88.793 103 93.7109 100.963 97.3369 97.3371C100.963 93.7112 103 88.7934 103 83.6656V83.0006C103 80.6707 102.125 79.7757 100.55 78.0507L80.4 56.0764C79.4609 55.052 78.3185 54.2346 77.0459 53.6763C75.7732 53.1181 74.3981 52.8312 73.0084 52.834C71.6186 52.8368 70.2448 53.1293 68.9744 53.6927C67.704 54.2561 66.5649 55.0782 65.63 56.1064V56.1064Z" stroke="black" stroke-width="5" stroke-linecap="round" stroke-linejoin="round"/>
</svg>
