<svg width="44" height="44" viewBox="0 0 44 44" fill="none" xmlns="http://www.w3.org/2000/svg">
<circle cx="22" cy="22" r="22" fill="white"/>
<path d="M27.078 24.6C27.162 23.907 27.225 23.214 27.225 22.5C27.225 21.786 27.162 21.093 27.078 20.4H30.627C30.795 21.072 30.9 21.7755 30.9 22.5C30.9 23.2245 30.795 23.928 30.627 24.6M25.2195 30.438C25.8495 29.2725 26.3325 28.0125 26.6685 26.7H29.766C28.7487 28.4517 27.1348 29.7786 25.2195 30.438ZM24.957 24.6H20.043C19.938 23.907 19.875 23.214 19.875 22.5C19.875 21.786 19.938 21.0825 20.043 20.4H24.957C25.0515 21.0825 25.125 21.786 25.125 22.5C25.125 23.214 25.0515 23.907 24.957 24.6ZM22.5 30.858C21.6285 29.598 20.925 28.2015 20.4945 26.7H24.5055C24.075 28.2015 23.3715 29.598 22.5 30.858ZM18.3 18.3H15.234C16.2408 16.5436 17.8535 15.2146 19.77 14.562C19.14 15.7275 18.6675 16.9875 18.3 18.3ZM15.234 26.7H18.3C18.6675 28.0125 19.14 29.2725 19.77 30.438C17.8576 29.7782 16.2471 28.4511 15.234 26.7ZM14.373 24.6C14.205 23.928 14.1 23.2245 14.1 22.5C14.1 21.7755 14.205 21.072 14.373 20.4H17.922C17.838 21.093 17.775 21.786 17.775 22.5C17.775 23.214 17.838 23.907 17.922 24.6M22.5 14.1315C23.3715 15.3915 24.075 16.7985 24.5055 18.3H20.4945C20.925 16.7985 21.6285 15.3915 22.5 14.1315ZM29.766 18.3H26.6685C26.3399 16.9995 25.8533 15.7442 25.2195 14.562C27.1515 15.2235 28.758 16.557 29.766 18.3ZM22.5 12C16.6935 12 12 16.725 12 22.5C12 25.2848 13.1062 27.9555 15.0754 29.9246C16.0504 30.8996 17.2079 31.6731 18.4818 32.2007C19.7557 32.7284 21.1211 33 22.5 33C25.2848 33 27.9555 31.8938 29.9246 29.9246C31.8938 27.9555 33 25.2848 33 22.5C33 21.1211 32.7284 19.7557 32.2007 18.4818C31.6731 17.2079 30.8996 16.0504 29.9246 15.0754C28.9496 14.1004 27.7921 13.3269 26.5182 12.7993C25.2443 12.2716 23.8789 12 22.5 12Z" fill="black"/>
</svg>
