<svg width="217" height="41" viewBox="0 0 217 41" fill="none" xmlns="http://www.w3.org/2000/svg">
<path d="M0.504 40L17.024 17.264V22.752L1.288 0.799997H9.52L21.224 17.04L17.864 17.096L29.456 0.799997H37.352L21.728 22.36V17.096L38.36 40H29.96L17.64 22.752H20.944L8.792 40H0.504ZM45.0196 40V0.799997H63.3876C68.0916 0.799997 71.6756 1.73333 74.1396 3.6C76.6036 5.42933 77.8356 7.89333 77.8356 10.992C77.8356 13.0827 77.3503 14.8747 76.3796 16.368C75.409 17.824 74.1023 18.9627 72.4596 19.784C70.8543 20.568 69.0996 20.96 67.1956 20.96L68.2036 18.944C70.4063 18.944 72.385 19.3547 74.1396 20.176C75.8943 20.96 77.2756 22.1173 78.2836 23.648C79.329 25.1787 79.8516 27.0827 79.8516 29.36C79.8516 32.72 78.5636 35.3333 75.9876 37.2C73.4116 39.0667 69.585 40 64.5076 40H45.0196ZM52.2996 34.288H64.0596C66.785 34.288 68.8756 33.84 70.3316 32.944C71.7876 32.048 72.5156 30.6107 72.5156 28.632C72.5156 26.6907 71.7876 25.272 70.3316 24.376C68.8756 23.4427 66.785 22.976 64.0596 22.976H51.7396V17.32H62.6036C65.1423 17.32 67.0836 16.872 68.4276 15.976C69.809 15.08 70.4996 13.736 70.4996 11.944C70.4996 10.1147 69.809 8.752 68.4276 7.856C67.0836 6.96 65.1423 6.512 62.6036 6.512H52.2996V34.288ZM108.229 40.56C105.168 40.56 102.349 40.056 99.7732 39.048C97.1972 38.04 94.9572 36.64 93.0532 34.848C91.1492 33.0187 89.6745 30.8907 88.6292 28.464C87.5839 26 87.0612 23.312 87.0612 20.4C87.0612 17.488 87.5839 14.8187 88.6292 12.392C89.6745 9.928 91.1492 7.8 93.0532 6.008C94.9572 4.17867 97.1972 2.76 99.7732 1.752C102.349 0.743998 105.149 0.239998 108.173 0.239998C111.235 0.239998 114.035 0.743998 116.573 1.752C119.149 2.76 121.389 4.17867 123.293 6.008C125.197 7.8 126.672 9.928 127.717 12.392C128.763 14.8187 129.285 17.488 129.285 20.4C129.285 23.312 128.763 26 127.717 28.464C126.672 30.928 125.197 33.056 123.293 34.848C121.389 36.64 119.149 38.04 116.573 39.048C114.035 40.056 111.253 40.56 108.229 40.56ZM108.173 34.176C110.152 34.176 111.981 33.84 113.661 33.168C115.341 32.496 116.797 31.544 118.029 30.312C119.261 29.0427 120.213 27.5867 120.885 25.944C121.595 24.264 121.949 22.416 121.949 20.4C121.949 18.384 121.595 16.5547 120.885 14.912C120.213 13.232 119.261 11.776 118.029 10.544C116.797 9.27467 115.341 8.304 113.661 7.632C111.981 6.96 110.152 6.624 108.173 6.624C106.195 6.624 104.365 6.96 102.685 7.632C101.043 8.304 99.5865 9.27467 98.3172 10.544C97.0852 11.776 96.1145 13.232 95.4052 14.912C94.7332 16.5547 94.3972 18.384 94.3972 20.4C94.3972 22.3787 94.7332 24.208 95.4052 25.888C96.1145 27.568 97.0852 29.0427 98.3172 30.312C99.5492 31.544 101.005 32.496 102.685 33.168C104.365 33.84 106.195 34.176 108.173 34.176ZM139.242 40V0.799997H155.37C158.842 0.799997 161.81 1.36 164.274 2.48C166.775 3.6 168.698 5.20533 170.042 7.296C171.386 9.38667 172.058 11.8693 172.058 14.744C172.058 17.6187 171.386 20.1013 170.042 22.192C168.698 24.2453 166.775 25.832 164.274 26.952C161.81 28.0347 158.842 28.576 155.37 28.576H143.274L146.522 25.272V40H139.242ZM164.89 40L154.978 25.776H162.762L172.73 40H164.89ZM146.522 26.056L143.274 22.584H155.034C158.244 22.584 160.652 21.8933 162.258 20.512C163.9 19.1307 164.722 17.208 164.722 14.744C164.722 12.2427 163.9 10.32 162.258 8.976C160.652 7.632 158.244 6.96 155.034 6.96H143.274L146.522 3.376V26.056ZM200.755 40.56C197.693 40.56 194.875 40.0747 192.299 39.104C189.76 38.096 187.539 36.696 185.635 34.904C183.731 33.0747 182.256 30.928 181.211 28.464C180.165 26 179.643 23.312 179.643 20.4C179.643 17.488 180.165 14.8 181.211 12.336C182.256 9.872 183.731 7.744 185.635 5.952C187.576 4.12267 189.835 2.72267 192.411 1.752C194.987 0.743998 197.805 0.239998 200.867 0.239998C204.189 0.239998 207.176 0.781331 209.827 1.864C212.515 2.94667 214.773 4.53333 216.603 6.624L212.011 11.104C210.48 9.57333 208.819 8.45333 207.027 7.744C205.272 6.99733 203.331 6.624 201.203 6.624C199.149 6.624 197.245 6.96 195.491 7.632C193.736 8.304 192.224 9.256 190.955 10.488C189.685 11.72 188.696 13.176 187.987 14.856C187.315 16.536 186.979 18.384 186.979 20.4C186.979 22.3787 187.315 24.208 187.987 25.888C188.696 27.568 189.685 29.0427 190.955 30.312C192.224 31.544 193.717 32.496 195.435 33.168C197.152 33.84 199.056 34.176 201.147 34.176C203.088 34.176 204.955 33.8773 206.747 33.28C208.576 32.6453 210.312 31.6 211.955 30.144L216.099 35.576C214.045 37.2187 211.656 38.4693 208.931 39.328C206.243 40.1493 203.517 40.56 200.755 40.56ZM209.211 34.624V19.952H216.099V35.576L209.211 34.624Z" fill="url(#paint0_linear_102_75)"/>
<defs>
<linearGradient id="paint0_linear_102_75" x1="-1.02911e-07" y1="20" x2="221" y2="20" gradientUnits="userSpaceOnUse">
<stop stop-color="#4F42E4"/>
<stop offset="1" stop-color="#9A44CF"/>
</linearGradient>
</defs>
</svg>
