<svg width="22" height="22" viewBox="0 0 22 22" fill="none" xmlns="http://www.w3.org/2000/svg">
<path fill-rule="evenodd" clip-rule="evenodd" d="M11.0005 2.75008C9.91708 2.75008 8.84423 2.96347 7.84325 3.37807C6.84226 3.79268 5.93274 4.40037 5.16663 5.16645C4.4005 5.93253 3.79278 6.84201 3.37816 7.84294C2.96354 8.84388 2.75014 9.91667 2.75014 11.0001C2.75014 12.0835 2.96354 13.1563 3.37816 14.1572C3.79278 15.1582 4.4005 16.0676 5.16663 16.8337C5.93274 17.5998 6.84226 18.2075 7.84325 18.6221C8.84423 19.0367 9.91708 19.2501 11.0005 19.2501C13.1887 19.2501 15.2872 18.3809 16.8344 16.8337C18.3817 15.2865 19.2509 13.1881 19.2509 11.0001C19.2509 8.81204 18.3817 6.71362 16.8344 5.16645C15.2872 3.61927 13.1887 2.75008 11.0005 2.75008ZM0.916718 11.0001C0.916718 5.43133 5.43152 0.916748 11.0005 0.916748C16.5696 0.916748 21.0844 5.43133 21.0844 11.0001C21.0844 16.5688 16.5696 21.0834 11.0005 21.0834C5.43152 21.0834 0.916718 16.5688 0.916718 11.0001ZM12.1464 6.64591C12.1464 6.94981 12.0257 7.24126 11.8108 7.45614C11.5959 7.67103 11.3044 7.79175 11.0005 7.79175C10.6966 7.79175 10.4052 7.67103 10.1903 7.45614C9.97538 7.24126 9.85465 6.94981 9.85465 6.64591C9.85465 6.34202 9.97538 6.05057 10.1903 5.83569C10.4052 5.6208 10.6966 5.50008 11.0005 5.50008C11.3044 5.50008 11.5959 5.6208 11.8108 5.83569C12.0257 6.05057 12.1464 6.34202 12.1464 6.64591ZM10.0838 9.16675C9.8407 9.16675 9.60753 9.26332 9.43561 9.43523C9.2637 9.60714 9.16712 9.8403 9.16712 10.0834C9.16712 10.3265 9.2637 10.5597 9.43561 10.7316C9.60753 10.9035 9.8407 11.0001 10.0838 11.0001V15.5834C10.0838 15.8265 10.1804 16.0597 10.3523 16.2316C10.5242 16.4035 10.7574 16.5001 11.0005 16.5001C11.2437 16.5001 11.4768 16.4035 11.6488 16.2316C11.8207 16.0597 11.9172 15.8265 11.9172 15.5834V10.0834C11.9172 9.8403 11.8207 9.60714 11.6488 9.43523C11.4768 9.26332 11.2437 9.16675 11.0005 9.16675H10.0838Z" fill="#F22222"/>
</svg>
