<svg width="24" height="24" viewBox="0 0 24 24" fill="none" xmlns="http://www.w3.org/2000/svg">
<path d="M23.1117 21.0913L14.0203 12L23.1117 2.90859C23.3796 2.64068 23.5301 2.27732 23.5301 1.89844C23.5301 1.51956 23.3796 1.1562 23.1117 0.888289C22.8438 0.62038 22.4804 0.46987 22.1015 0.46987C21.7226 0.469869 21.3593 0.620379 21.0914 0.888288L12 9.97966L2.90863 0.888288C2.64072 0.620379 2.27736 0.469869 1.89847 0.46987C1.51959 0.46987 1.15623 0.62038 0.888323 0.888289C0.620413 1.1562 0.469904 1.51956 0.469904 1.89844C0.469904 2.27732 0.620413 2.64068 0.888323 2.90859L9.97969 12L0.888323 21.0913C0.620413 21.3592 0.469903 21.7226 0.469904 22.1015C0.469904 22.4804 0.620414 22.8437 0.888323 23.1116C1.15623 23.3796 1.51959 23.5301 1.89848 23.5301C2.27735 23.5301 2.64072 23.3796 2.90863 23.1116L12 14.0203L21.0914 23.1116C21.3593 23.3796 21.7226 23.5301 22.1015 23.5301C22.4804 23.5301 22.8438 23.3796 23.1117 23.1116C23.3796 22.8437 23.5301 22.4804 23.5301 22.1015C23.5301 21.7226 23.3796 21.3592 23.1117 21.0913Z" fill="white"/>
</svg>
