<svg width="28" height="28" viewBox="0 0 28 28" fill="none" xmlns="http://www.w3.org/2000/svg">
<path d="M28 14C28 6.26801 21.732 0 14 0C6.26801 0 0 6.26801 0 14C0 21.732 6.26801 28 14 28C21.732 28 28 21.732 28 14Z" fill="url(#paint0_linear_1197_12173)"/>
<path d="M14.285 18.3817C14.461 18.5517 14.6968 18.6457 14.9415 18.6436C15.1862 18.6415 15.4203 18.5433 15.5933 18.3703C15.7664 18.1972 15.8645 17.9631 15.8667 17.7184C15.8688 17.4737 15.7747 17.2379 15.6047 17.0619L14.285 18.3817ZM11.2115 13.9884L10.5516 13.3286C10.3767 13.5036 10.2784 13.741 10.2784 13.9884C10.2784 14.2359 10.3767 14.4733 10.5516 14.6483L11.2115 13.9884ZM15.6047 10.915C15.7747 10.739 15.8688 10.5032 15.8667 10.2585C15.8645 10.0138 15.7664 9.77967 15.5933 9.60662C15.4203 9.43357 15.1862 9.33541 14.9415 9.33329C14.6968 9.33116 14.461 9.42524 14.285 9.59525L15.6047 10.915ZM15.6047 17.0619L11.8714 13.3286L10.5516 14.6483L14.285 18.3817L15.6047 17.0619ZM11.8714 14.6483L15.6047 10.915L14.285 9.59525L10.5516 13.3286L11.8714 14.6483Z" fill="white"/>
<defs>
<linearGradient id="paint0_linear_1197_12173" x1="2.25287" y1="8.03353e-08" x2="32.2328" y2="6.87476" gradientUnits="userSpaceOnUse">
<stop stop-color="#B347FF"/>
<stop offset="0.442482" stop-color="#454CF9"/>
<stop offset="0.70862" stop-color="#0961FE"/>
<stop offset="1" stop-color="#02ACD3"/>
</linearGradient>
</defs>
</svg>
