<svg width="28" height="28" viewBox="0 0 28 28" fill="none" xmlns="http://www.w3.org/2000/svg">
<path d="M-1.90735e-06 14C-1.90735e-06 6.26801 6.26801 0 14 0C21.732 0 28 6.26801 28 14C28 21.732 21.732 28 14 28C6.26801 28 -1.90735e-06 21.732 -1.90735e-06 14Z" fill="url(#paint0_linear_1197_19064)"/>
<path d="M13.715 18.3817C13.539 18.5517 13.3032 18.6457 13.0585 18.6436C12.8138 18.6415 12.5797 18.5433 12.4067 18.3703C12.2336 18.1972 12.1355 17.9631 12.1333 17.7184C12.1312 17.4737 12.2253 17.2379 12.3953 17.0619L13.715 18.3817ZM16.7885 13.9884L17.4484 13.3286C17.6233 13.5036 17.7216 13.741 17.7216 13.9884C17.7216 14.2359 17.6233 14.4733 17.4484 14.6483L16.7885 13.9884ZM12.3953 10.915C12.2253 10.739 12.1312 10.5032 12.1333 10.2585C12.1355 10.0138 12.2336 9.77967 12.4067 9.60662C12.5797 9.43357 12.8138 9.33541 13.0585 9.33329C13.3032 9.33116 13.539 9.42524 13.715 9.59525L12.3953 10.915ZM12.3953 17.0619L16.1286 13.3286L17.4484 14.6483L13.715 18.3817L12.3953 17.0619ZM16.1286 14.6483L12.3953 10.915L13.715 9.59525L17.4484 13.3286L16.1286 14.6483Z" fill="white"/>
<defs>
<linearGradient id="paint0_linear_1197_19064" x1="25.7471" y1="8.03353e-08" x2="-4.23278" y2="6.87476" gradientUnits="userSpaceOnUse">
<stop stop-color="#B347FF"/>
<stop offset="0.442482" stop-color="#454CF9"/>
<stop offset="0.70862" stop-color="#0961FE"/>
<stop offset="1" stop-color="#02ACD3"/>
</linearGradient>
</defs>
</svg>