<svg width="16" height="16" viewBox="0 0 16 16" fill="none" xmlns="http://www.w3.org/2000/svg">
<path d="M1.33317 3.33317C0.966504 3.33317 0.666504 3.63317 0.666504 3.99984V13.9998C0.666504 14.7332 1.2665 15.3332 1.99984 15.3332H11.9998C12.3665 15.3332 12.6665 15.0332 12.6665 14.6665C12.6665 14.2998 12.3665 13.9998 11.9998 13.9998H2.6665C2.29984 13.9998 1.99984 13.6998 1.99984 13.3332V3.99984C1.99984 3.63317 1.69984 3.33317 1.33317 3.33317ZM13.9998 0.666504H4.6665C3.93317 0.666504 3.33317 1.2665 3.33317 1.99984V11.3332C3.33317 12.0665 3.93317 12.6665 4.6665 12.6665H13.9998C14.7332 12.6665 15.3332 12.0665 15.3332 11.3332V1.99984C15.3332 1.2665 14.7332 0.666504 13.9998 0.666504ZM13.3332 11.3332H5.33317C4.9665 11.3332 4.6665 11.0332 4.6665 10.6665V2.6665C4.6665 2.29984 4.9665 1.99984 5.33317 1.99984H13.3332C13.6998 1.99984 13.9998 2.29984 13.9998 2.6665V10.6665C13.9998 11.0332 13.6998 11.3332 13.3332 11.3332Z" fill="black" fill-opacity="0.54"/>
</svg>
