<svg width="80" height="80" viewBox="0 0 80 80" fill="none" xmlns="http://www.w3.org/2000/svg">
<circle cx="40" cy="40" r="40" fill="#A84DFF"/>
<g clip-path="url(#clip0_8_340)">
<path d="M57.8781 56.6433C57.8825 55.5083 57.6694 54.4169 57.1432 53.4124C55.7605 50.773 53.5689 49.3597 50.5903 49.3293C46.2506 49.2815 41.9109 49.3206 37.5669 49.3206C37.4756 49.3206 37.3799 49.3206 37.293 49.3206C37.2669 49.2336 37.2495 49.1728 37.2321 49.1119C36.5668 46.2593 35.9058 43.4025 35.2405 40.5499C34.7318 38.3671 34.223 36.1798 33.7099 33.9969C33.6882 33.91 33.6882 33.8361 33.7055 33.7578C33.0185 34.7623 32.0271 35.545 30.8661 35.9711C30.9704 35.9407 31.0791 35.9146 31.1835 35.8885C32.2315 40.3456 33.2838 44.82 34.3361 49.3119C33.3751 49.3119 32.4358 49.3119 31.4835 49.3119C30.4747 44.9679 29.4702 40.6326 28.4701 36.3146C28.4788 36.3146 28.4875 36.3146 28.4962 36.3146C27.2308 36.2364 26.0742 35.758 25.1523 35.0058C25.1567 35.0188 25.161 35.0362 25.1654 35.0492C25.3958 35.9841 25.6132 36.919 25.835 37.8583C26.6568 41.3196 27.4787 44.7896 28.3005 48.2639C28.4005 48.6857 28.4962 49.1075 28.5962 49.5467C28.3614 49.6206 28.1614 49.6815 27.9657 49.7511C27.77 49.8207 27.57 49.8946 27.383 49.9859C24.8958 51.2121 23.4564 53.1906 23.1608 55.9562C23.0868 56.6259 23.1521 57.3129 23.1521 57.9999C34.7274 57.9999 46.2984 57.9999 57.8868 57.9999C57.8781 57.539 57.8781 57.0911 57.8781 56.6433ZM26.6481 55.0996C26.6438 55.0778 26.6351 55.0604 26.6395 55.0517C27.2178 53.682 28.1049 52.6428 29.6224 52.2949C29.8529 52.2427 30.0964 52.2253 30.3356 52.2253C36.058 52.221 41.7848 52.221 47.5073 52.221C48.4856 52.221 49.464 52.2384 50.4424 52.2166C52.0209 52.1818 53.1471 52.9297 53.9515 54.2256C54.1168 54.4908 54.2429 54.7822 54.4081 55.0996C45.1157 55.0996 35.8797 55.0996 26.6481 55.0996Z" fill="white"/>
<path d="M34.7274 30.4574C34.7274 30.9922 34.6579 31.5053 34.5231 31.9967C34.5666 31.9663 34.6274 31.9489 34.7144 31.9532C37.0495 31.9576 39.3802 31.9576 41.7153 31.9576C41.7892 31.9576 41.8675 31.9663 41.9675 31.9706C41.9675 32.9403 41.9675 33.8839 41.9675 34.8405C42.0892 34.8405 42.1805 34.8405 42.2762 34.8405C44.2852 34.8405 46.2897 34.8449 48.2987 34.8362C48.49 34.8362 48.6205 34.8971 48.7509 35.0275C49.7206 35.9929 50.699 36.9538 51.6687 37.9192C51.7817 38.0322 51.8687 38.0366 52.0035 37.967C53.3689 37.28 54.7343 36.6016 56.0997 35.9189C56.3258 35.8059 56.5475 35.6928 56.7911 35.5667C56.3519 34.7014 55.917 33.8535 55.4822 33.0012C55.3778 33.049 55.2996 33.0881 55.2213 33.1273C54.3342 33.5708 53.4472 34.01 52.5601 34.4579C52.447 34.5144 52.3775 34.5188 52.2818 34.4231C51.286 33.4186 50.2859 32.4228 49.2901 31.4184C49.2336 31.3618 49.1901 31.2575 49.1901 31.1749C49.1814 30.74 49.1771 30.3052 49.1901 29.8703C49.1945 29.7703 49.2423 29.6442 49.3162 29.5703C50.2946 28.5832 51.2817 27.6005 52.2601 26.6134C52.3644 26.5091 52.4383 26.4917 52.5731 26.5612C53.4298 27.0004 54.2951 27.4266 55.1561 27.8571C55.2561 27.9092 55.3604 27.9571 55.4778 28.0136C55.917 27.1483 56.3475 26.3003 56.7824 25.4481C56.6954 25.4002 56.6389 25.3698 56.5823 25.3437C55.0604 24.5827 53.5385 23.8218 52.0252 23.0565C51.86 22.9738 51.7643 22.9912 51.6382 23.1173C50.6729 24.0783 49.6989 25.0306 48.7379 25.9959C48.6118 26.1221 48.4857 26.1786 48.303 26.1786C46.2898 26.1699 44.2721 26.1742 42.2588 26.1742C42.1631 26.1742 42.0631 26.1742 41.9501 26.1742C41.9501 27.157 41.9501 28.0962 41.9501 29.0485C41.8718 29.0529 41.8066 29.0615 41.7457 29.0615C39.3889 29.0615 37.0364 29.0615 34.6796 29.0659C34.6274 29.0659 34.5883 29.0615 34.5579 29.0485C34.6666 29.492 34.7274 29.9704 34.7274 30.4574ZM44.8548 29.0615C45.3375 29.0615 45.8027 29.0615 46.2811 29.0615C46.2811 30.0269 46.2811 30.9835 46.2811 31.9445C45.8027 31.9445 45.3331 31.9445 44.8548 31.9445C44.8548 30.9792 44.8548 30.0312 44.8548 29.0615Z" fill="white"/>
<path d="M28.8616 24.5957C25.6264 24.5957 23 27.2178 23 30.4573C23 33.6968 25.6264 36.3189 28.8616 36.3189C32.0968 36.3189 34.7275 33.6968 34.7275 30.4573C34.7275 27.2178 32.1011 24.5957 28.8616 24.5957ZM28.8616 33.4403C27.2136 33.4403 25.8786 32.1053 25.8786 30.4573C25.8786 28.8093 27.2136 27.4743 28.8616 27.4743C30.5096 27.4743 31.8446 28.8093 31.8446 30.4573C31.8489 32.1053 30.5096 33.4403 28.8616 33.4403Z" fill="white"/>
<path d="M55.4825 32.9973C55.3781 33.0451 55.2998 33.0842 55.2215 33.1234C54.3345 33.5669 53.4474 34.0061 52.5603 34.454C52.4473 34.5105 52.3777 34.5148 52.2821 34.4192C51.2863 33.4147 50.2862 32.4189 49.2904 31.4144C49.2338 31.3579 49.1904 31.2536 49.1904 31.1709C49.1817 30.7361 49.1773 30.3013 49.1904 29.8664C49.1947 29.7664 49.2425 29.6403 49.3165 29.5664C50.2948 28.5793 51.2819 27.5966 52.2603 26.6095C52.3647 26.5051 52.4386 26.4878 52.5734 26.5573C53.43 26.9965 54.2953 27.4227 55.1563 27.8531C55.2563 27.9053 55.3607 27.9532 55.4781 28.0097C55.9173 27.1444 56.3478 26.2964 56.7826 25.4441C56.6956 25.3963 56.6391 25.3659 56.5826 25.3398C55.0607 24.5788 53.5387 23.8179 52.0255 23.0525C51.8603 22.9699 51.7646 22.9873 51.6385 23.1134C50.6732 24.0744 49.6991 25.0267 48.7381 25.992C48.612 26.1181 48.4859 26.1747 48.3033 26.1747C46.29 26.166 44.2724 26.1703 42.2591 26.1703C42.1634 26.1703 42.0721 26.1703 41.9634 26.1703V31.9754H41.9677C41.9677 32.9451 41.9677 33.8887 41.9677 34.8453C42.0895 34.8453 42.1808 34.8453 42.2765 34.8453C44.2854 34.8453 46.29 34.8497 48.2989 34.841C48.4903 34.841 48.6207 34.9018 48.7512 35.0323C49.7209 35.9976 50.6992 36.9586 51.6689 37.924C51.782 38.037 51.869 38.0414 52.0038 37.9718C53.3691 37.2847 54.7345 36.6064 56.0999 35.9237C56.326 35.8106 56.5478 35.6976 56.7913 35.5715C56.3478 34.7018 55.9173 33.8539 55.4825 32.9973ZM46.2813 31.9449C45.803 31.9449 45.3334 31.9449 44.855 31.9449C44.855 30.9796 44.855 30.0317 44.855 29.062C45.3377 29.062 45.803 29.062 46.2813 29.062C46.2813 30.023 46.2813 30.9796 46.2813 31.9449Z" fill="white"/>
</g>
<defs>
<clipPath id="clip0_8_340">
<rect width="34.8782" height="35" fill="white" transform="translate(23 23)"/>
</clipPath>
</defs>
</svg>
