<svg width="80" height="80" viewBox="0 0 80 80" fill="none" xmlns="http://www.w3.org/2000/svg">
<circle cx="40" cy="40" r="40" fill="#A84DFF"/>
<g clip-path="url(#clip0_1_86)">
<path d="M52.3782 39.9825C52.7979 40.0431 53.1872 40.0777 53.5636 40.1642C55.7353 40.6661 57.3748 42.5479 57.5263 44.7715C57.5955 45.814 57.5609 46.861 57.5652 47.9035C57.5695 49.21 57.5652 50.5121 57.5652 51.8186C57.5652 51.9051 57.5652 51.9873 57.5652 52.0868C56.4058 52.0868 55.2724 52.0868 54.1087 52.0868C54.1087 51.996 54.1087 51.9138 54.1087 51.8273C54.1087 49.6123 54.1087 47.4017 54.1087 45.1868C54.1087 44.2394 53.3386 43.4693 52.3782 43.478C52.3782 43.5602 52.3782 43.6424 52.3782 43.7289C52.3782 45.9222 52.3869 48.1112 52.3782 50.3045C52.3696 52.6059 50.9723 54.5527 48.8136 55.2881C48.2685 55.4741 47.7104 55.5563 47.1351 55.5606C46.5294 55.5606 45.9238 55.565 45.3181 55.5563C45.1797 55.5563 45.1235 55.6039 45.0672 55.7293C44.2712 57.5679 42.8955 58.7143 40.9055 58.9566C38.8636 59.2075 37.2284 58.4028 36.0344 56.7373C35.8181 56.4345 35.6624 56.0884 35.5066 55.751C35.4374 55.5996 35.3595 55.5563 35.2038 55.5563C34.4381 55.5563 33.6724 55.5736 32.911 55.5217C30.6787 55.3703 28.6844 53.5836 28.2908 51.386C28.2215 50.9923 28.1956 50.5857 28.1913 50.1834C28.1826 48.042 28.1869 45.9006 28.1869 43.7592C28.1869 43.6727 28.1869 43.5905 28.1869 43.4823C27.7457 43.4693 27.378 43.6121 27.0622 43.876C26.6339 44.2394 26.4522 44.7152 26.4522 45.2733C26.4565 46.6879 26.4565 48.0982 26.4565 49.5128C26.4565 50.3045 26.4565 51.1005 26.4565 51.8921C26.4565 51.957 26.4479 52.0176 26.4435 52.0911C25.3015 52.0911 24.1724 52.0911 23.013 52.0911C23.0087 52.0176 23 51.9397 23 51.8662C23 49.621 23 47.3801 23.0043 45.1392C23.0087 42.6128 24.9727 40.3935 27.4818 40.0691C27.6548 40.0474 27.8279 40.0258 27.9966 40.0258C28.148 40.0258 28.1913 39.9739 28.1913 39.8225C28.1826 39.312 28.1826 38.7972 28.1913 38.2867C28.2389 34.4712 29.7616 31.3564 32.6817 28.9252C34.3299 27.5538 36.2334 26.7232 38.3445 26.3728C38.5132 26.3425 38.5522 26.2863 38.5522 26.1262C38.5478 25.0014 38.5435 23.8767 38.5522 22.7519C38.5608 21.7396 39.3568 20.9696 40.3475 20.9998C41.256 21.0301 42 21.7872 42.0044 22.6957C42.0087 23.8334 42.0087 24.9755 42.0044 26.1132C42.0044 26.2733 42.026 26.3425 42.212 26.3771C46.2309 27.1125 49.1986 29.3015 51.0977 32.9138C51.9716 34.575 52.3696 36.366 52.3826 38.2391C52.3826 38.8275 52.3782 39.4072 52.3782 39.9825ZM48.9131 43.1449C48.3031 43.3612 47.6931 43.465 47.0572 43.4607C42.8133 43.4564 38.5651 43.4607 34.3213 43.4564C33.7676 43.4564 33.2095 43.4477 32.6601 43.3958C32.3227 43.3655 31.9939 43.253 31.6478 43.1708C31.6435 43.2487 31.6391 43.3179 31.6391 43.3915C31.6391 43.9885 31.6348 44.5898 31.6391 45.1868C31.6391 46.9172 31.6348 48.6476 31.6435 50.378C31.6478 51.3471 32.4048 52.0998 33.3566 52.0998C37.9422 52.1041 42.5235 52.1041 47.1091 52.0998C48.1993 52.0998 48.9217 51.373 48.9217 50.2785C48.9261 47.9727 48.9217 45.667 48.9217 43.3612C48.9217 43.2963 48.9174 43.2314 48.9131 43.1449ZM40.2869 40.0215C42.5797 40.0215 44.8725 40.0215 47.1653 40.0171C48.0435 40.0171 48.7703 39.4548 48.8785 38.5895C48.9477 38.0574 48.9001 37.4951 48.8136 36.9586C48.1387 32.6672 44.3837 29.5265 39.9971 29.6692C37.9898 29.7341 36.2031 30.4176 34.6847 31.7328C32.6947 33.4545 31.6781 35.6435 31.6435 38.2824C31.6348 38.7496 31.8035 39.1563 32.128 39.4937C32.5043 39.8787 32.9672 40.0258 33.495 40.0258C35.7575 40.0215 38.0201 40.0215 40.2869 40.0215Z" fill="white"/>
<path d="M45.4736 34.8389C46.4383 34.8475 47.1997 35.6219 47.191 36.5823C47.178 37.5383 46.395 38.2997 45.4347 38.2867C44.4959 38.2738 43.7216 37.4778 43.7345 36.539C43.7475 35.596 44.5305 34.8302 45.4736 34.8389Z" fill="white"/>
<path d="M36.8172 36.5656C36.8085 37.5433 36.0341 38.3046 35.0608 38.2917C34.1177 38.2787 33.365 37.5 33.3736 36.5439C33.3779 35.5965 34.1566 34.8351 35.1084 34.8438C36.0644 34.8481 36.8215 35.6138 36.8172 36.5656Z" fill="white"/>
<path d="M28.161 39.9697C28.135 40.013 28.0831 40.0303 27.9923 40.0303C27.8192 40.0303 27.6462 40.0519 27.4775 40.0736C24.9727 40.3894 23.0087 42.6129 23.0043 45.1394C23 47.3802 23 49.6211 23 51.8664C23 51.9399 23.0087 52.0178 23.013 52.0913C24.168 52.0913 25.3015 52.0913 26.4435 52.0913C26.4479 52.0178 26.4565 51.9529 26.4565 51.8923C26.4565 51.1006 26.4565 50.3047 26.4565 49.513C26.4565 48.0984 26.4608 46.6881 26.4522 45.2735C26.4522 44.7154 26.6339 44.2395 27.0622 43.8761C27.3736 43.6123 27.7284 43.4738 28.161 43.4825V39.9697V39.9697Z" fill="white"/>
<path d="M57.5654 47.9034C57.5611 46.8565 57.5957 45.8096 57.5264 44.7714C57.375 42.5434 55.7355 40.6659 53.5638 40.1641C53.1874 40.0776 52.798 40.0473 52.3784 39.9824V43.4822C53.3345 43.4735 54.1045 44.2436 54.1045 45.191C54.1088 47.4059 54.1045 49.6165 54.1045 51.8315C54.1045 51.9137 54.1045 52.0002 54.1045 52.091C55.2682 52.091 56.406 52.091 57.5611 52.091C57.5611 51.9915 57.5611 51.9093 57.5611 51.8228C57.5654 50.5163 57.5697 49.2099 57.5654 47.9034Z" fill="white"/>
</g>
<defs>
<clipPath id="clip0_1_86">
<rect width="34.5694" height="38" fill="white" transform="translate(23 21)"/>
</clipPath>
</defs>
</svg>
