<svg width="25" height="24" viewBox="0 0 25 24" fill="none" xmlns="http://www.w3.org/2000/svg">
<path d="M24.2858 12C24.2858 18.6275 18.9133 24 12.2858 24C5.65826 24 0.285767 18.6275 0.285767 12C0.285767 5.3725 5.65826 0 12.2858 0C18.9133 0 24.2858 5.3725 24.2858 12Z" fill="#44454B"/>
<path d="M24.2858 12C24.2858 18.6275 18.9133 24 12.2858 24C5.65826 24 0.285767 18.6275 0.285767 12C0.285767 5.3725 5.65826 0 12.2858 0C18.9133 0 24.2858 5.3725 24.2858 12Z" fill="#44454B"/>
<path d="M9.28839 18.5646C15.3851 18.5646 18.7191 13.5137 18.7191 9.13397C18.7191 8.99042 18.7161 8.84778 18.7095 8.70569C19.3566 8.23767 19.9191 7.65393 20.363 6.98944C19.769 7.2533 19.1299 7.43109 18.4594 7.51111C19.1439 7.10095 19.6692 6.45166 19.9171 5.67767C19.2764 6.05743 18.5674 6.33337 17.8125 6.48224C17.2075 5.83807 16.3462 5.43506 15.3931 5.43506C13.5624 5.43506 12.078 6.91949 12.078 8.74927C12.078 9.00946 12.1071 9.26233 12.1639 9.50513C9.40942 9.36652 6.96661 8.04742 5.33203 6.04205C5.04712 6.53186 4.88324 7.10095 4.88324 7.70795C4.88324 8.85785 5.46844 9.87317 6.35815 10.467C5.81451 10.4503 5.30365 10.3007 4.85706 10.0522C4.85632 10.0662 4.85632 10.0801 4.85632 10.0945C4.85632 11.7 5.9989 13.0402 7.51538 13.3439C7.23706 13.4197 6.94409 13.4606 6.6416 13.4606C6.4281 13.4606 6.22046 13.4393 6.01849 13.4009C6.44055 14.7176 7.66406 15.676 9.11499 15.7031C7.98029 16.592 6.55133 17.1218 4.99841 17.1218C4.73108 17.1218 4.46722 17.1066 4.20776 17.0758C5.67462 18.0159 7.41632 18.5646 9.28839 18.5646Z" fill="white"/>
</svg>
