<svg width="22" height="36" viewBox="0 0 22 36" fill="none" xmlns="http://www.w3.org/2000/svg">
<path d="M16.3248 11.3934C15.9308 10.9757 15.4241 10.9757 14.9738 11.3934L11.8214 14.8399L9.6823 17.0331L6.58621 20.4796C6.19217 20.8974 5.68553 20.8974 5.2352 20.4796L2.81462 17.7642C2.42057 17.3465 2.13911 16.5109 2.13911 15.571V10.3491C2.13911 9.51354 2.36428 8.67803 2.81462 8.15583L5.2352 5.54486C5.62924 5.1271 6.13587 5.1271 6.58621 5.54486L9.00679 8.26027C9.40083 8.67803 9.6823 9.51354 9.6823 10.4535V13.9L11.8214 11.6023V8.05139C11.8214 7.21588 11.5962 6.38037 11.1459 5.85818L6.64251 0.949547C6.24846 0.531792 5.74183 0.531792 5.29149 0.949547L0.675509 5.96262C0.22517 6.38037 0 7.21588 0 8.05139V17.8687C0 18.7042 0.22517 19.5397 0.675509 20.0619L5.2352 24.9705C5.62924 25.3883 6.13587 25.3883 6.58621 24.9705L9.6823 21.6285L11.8214 19.3308L14.9175 15.9888C15.3115 15.571 15.8182 15.571 16.2685 15.9888L18.6891 18.5997C19.0831 19.0175 19.3646 19.853 19.3646 20.7929V26.0149C19.3646 26.8504 19.1394 27.6859 18.6891 28.2081L16.3248 30.8191C15.9308 31.2368 15.4241 31.2368 14.9738 30.8191L12.5532 28.2081C12.1592 27.7904 11.8777 26.9548 11.8777 26.0149V22.6728L9.73859 24.9705V28.417C9.73859 29.2525 9.96376 30.088 10.4141 30.6102L14.9738 35.5188C15.3678 35.9366 15.8745 35.9366 16.3248 35.5188L20.8845 30.6102C21.2785 30.1924 21.56 29.3569 21.56 28.417V18.4953C21.56 17.6598 21.3348 16.8243 20.8845 16.3021L16.3248 11.3934Z" fill="#8247E5"/>
</svg>
