<svg width="66" height="62" viewBox="0 0 66 62" fill="none" xmlns="http://www.w3.org/2000/svg">
<g filter="url(#filter0_d_153_157)">
<path d="M32.7225 47C42.5104 47 50.445 39.8366 50.445 31C50.445 22.1634 42.5104 15 32.7225 15C22.9346 15 15 22.1634 15 31C15 39.8366 22.9346 47 32.7225 47Z" fill="#3A39BB"/>
<path d="M38.8869 30.6441L32.7225 33.9582V28.0962L38.8869 30.6441Z" fill="white"/>
<path d="M32.7225 28.0962V33.9582L26.5581 30.6441L32.7225 28.0962Z" fill="white"/>
<path d="M32.7225 21.3225L38.8869 30.644L32.7225 28.0961V21.3225Z" fill="white"/>
<path d="M32.723 21.3228L26.5586 30.6443L32.723 28.0963V21.3228Z" fill="white"/>
<path d="M32.7225 35.0192L38.8869 31.7134L32.7225 39.6342V35.0192Z" fill="white"/>
<path d="M32.7225 35.0192L26.5581 31.7134L32.7225 39.6342V35.0192Z" fill="white"/>
</g>
<defs>
<filter id="filter0_d_153_157" x="0" y="0" width="65.4449" height="62" filterUnits="userSpaceOnUse" color-interpolation-filters="sRGB">
<feFlood flood-opacity="0" result="BackgroundImageFix"/>
<feColorMatrix in="SourceAlpha" type="matrix" values="0 0 0 0 0 0 0 0 0 0 0 0 0 0 0 0 0 0 127 0" result="hardAlpha"/>
<feOffset/>
<feGaussianBlur stdDeviation="7.5"/>
<feColorMatrix type="matrix" values="0 0 0 0 0 0 0 0 0 0 0 0 0 0 0 0 0 0 0.15 0"/>
<feBlend mode="normal" in2="BackgroundImageFix" result="effect1_dropShadow_153_157"/>
<feBlend mode="normal" in="SourceGraphic" in2="effect1_dropShadow_153_157" result="shape"/>
</filter>
</defs>
</svg>
