<svg width="25" height="24" viewBox="0 0 25 24" fill="none" xmlns="http://www.w3.org/2000/svg">
<path d="M12.5714 24C19.1988 24 24.5714 18.6274 24.5714 12C24.5714 5.37258 19.1988 0 12.5714 0C5.94399 0 0.571411 5.37258 0.571411 12C0.571411 18.6274 5.94399 24 12.5714 24Z" fill="#44454B"/>
<path d="M17.9502 8.39114L18.9715 7.41406V7.2002H15.4334L12.9117 13.4765L10.0429 7.2002H6.33299V7.41406L7.52607 8.85035C7.64234 8.95648 7.70314 9.11168 7.68767 9.26795V14.9123C7.72447 15.1155 7.65834 15.3246 7.5154 15.4723L6.17139 17.1011V17.3123H9.9821V17.0984L8.63808 15.4723C8.49248 15.324 8.42368 15.1187 8.45301 14.9123V10.0301L11.7981 17.315H12.1869L15.0632 10.0301V15.8334C15.0632 15.9864 15.0632 16.0179 14.963 16.1182L13.9283 17.1192V17.3336H18.9481V17.1198L17.9507 16.1432C17.8633 16.0771 17.8179 15.9662 17.8366 15.8584V8.67595C17.8179 8.56768 17.8627 8.45674 17.9502 8.39114Z" fill="white"/>
</svg>
