<svg width="24" height="24" viewBox="0 0 24 24" fill="none" xmlns="http://www.w3.org/2000/svg">
<path d="M12 24C18.6274 24 24 18.6274 24 12C24 5.37258 18.6274 0 12 0C5.37258 0 0 5.37258 0 12C0 18.6274 5.37258 24 12 24Z" fill="#44454B"/>
<path d="M10.8345 13.7483L16.2576 17.8427L18.9951 6.15723L5.00476 11.6604L9.26186 13.0704L17.0312 7.859L10.8345 13.7483Z" fill="white"/>
<path d="M9.26196 13.0703L10.4279 17.2659L10.8346 13.7481L17.0313 7.85889L9.26196 13.0703Z" fill="#D2D2D7"/>
<path d="M12.5972 15.0792L10.428 17.2663L10.8347 13.7485L12.5972 15.0792Z" fill="#B9B9BE"/>
</svg>
