<svg width="36" height="32" viewBox="0 0 36 32" fill="none" xmlns="http://www.w3.org/2000/svg">
<g clip-path="url(#clip0_153_165)">
<path d="M17.7225 32C27.5104 32 35.445 24.8366 35.445 16C35.445 7.16344 27.5104 0 17.7225 0C7.93463 0 0 7.16344 0 16C0 24.8366 7.93463 32 17.7225 32Z" fill="#EDBC04"/>
<path d="M17.9543 11.0895L21.5117 14.3018C21.6397 14.4173 21.8472 14.4173 21.9751 14.3018L23.8502 12.6085C23.9781 12.4931 23.9781 12.3058 23.8502 12.1904L17.9542 6.86621C17.8264 6.75065 17.6187 6.75065 17.4909 6.86621L11.597 12.1884C11.4691 12.3039 11.4691 12.4912 11.597 12.6067L13.4722 14.2999C13.6 14.4154 13.8075 14.4154 13.9355 14.2999L17.4909 11.0895C17.619 10.974 17.8264 10.974 17.9543 11.0895Z" fill="white"/>
<path d="M9.48246 14.0975L7.60729 15.7908C7.47937 15.9063 7.47937 16.0935 7.60729 16.2091L9.48231 17.9022C9.61023 18.0178 9.81773 18.0178 9.94565 17.9022L11.8208 16.209C11.9487 16.0935 11.9487 15.9062 11.8208 15.7908L9.94572 14.0977C9.81788 13.9821 9.61047 13.9821 9.48246 14.0975Z" fill="white"/>
<path d="M17.954 25.1338L23.8511 19.8088C23.9789 19.6932 23.9789 19.5058 23.8508 19.3904L21.9748 17.6981C21.8468 17.5827 21.6394 17.5827 21.5114 17.6982L17.954 20.9105C17.826 21.026 17.6186 21.026 17.4907 20.9105L13.9349 17.6998C13.8071 17.5844 13.6 17.5843 13.472 17.6995L11.5941 19.3905C11.4658 19.506 11.4657 19.6934 11.5938 19.809L17.4907 25.1338C17.6187 25.2493 17.826 25.2493 17.954 25.1338Z" fill="white"/>
<path d="M25.4995 14.0983L23.6243 15.7917C23.4965 15.9071 23.4965 16.0944 23.6243 16.2098L25.4995 17.9031C25.6274 18.0186 25.8348 18.0186 25.9628 17.9031L27.838 16.2098C27.9658 16.0943 27.9658 15.907 27.838 15.7915L25.9628 14.0983C25.8348 13.9829 25.6275 13.9829 25.4995 14.0983Z" fill="white"/>
<path d="M19.8651 15.7908L17.9543 14.0654C17.8265 13.9499 17.6189 13.9499 17.491 14.0654L15.5803 15.7908C15.4524 15.9062 15.4524 16.0935 15.5803 16.209L17.491 17.9344C17.6189 18.0501 17.8265 18.0501 17.9543 17.9344L19.8651 16.209C19.9929 16.0934 19.9929 15.9062 19.8651 15.7908Z" fill="white"/>
</g>
<defs>
<clipPath id="clip0_153_165">
<rect width="35.445" height="32" fill="white"/>
</clipPath>
</defs>
</svg>
