<svg width="15" height="15" viewBox="0 0 15 15" fill="none" xmlns="http://www.w3.org/2000/svg">
<path d="M7.5 0C9.48912 0 11.3968 0.790176 12.8033 2.1967C14.2098 3.60322 15 5.51088 15 7.5C15 9.48912 14.2098 11.3968 12.8033 12.8033C11.3968 14.2098 9.48912 15 7.5 15C5.51088 15 3.60322 14.2098 2.1967 12.8033C0.790176 11.3968 0 9.48912 0 7.5C0 5.51088 0.790176 3.60322 2.1967 2.1967C3.60322 0.790176 5.51088 0 7.5 0V0ZM7.5 13.9286C9.20496 13.9286 10.8401 13.2513 12.0457 12.0457C13.2513 10.8401 13.9286 9.20496 13.9286 7.5C13.9286 5.79504 13.2513 4.1599 12.0457 2.95431C10.8401 1.74872 9.20496 1.07143 7.5 1.07143C5.79504 1.07143 4.1599 1.74872 2.95431 2.95431C1.74872 4.1599 1.07143 5.79504 1.07143 7.5C1.07143 9.20496 1.74872 10.8401 2.95431 12.0457C4.1599 13.2513 5.79504 13.9286 7.5 13.9286V13.9286ZM8.30357 10.9821C8.30357 11.1953 8.21891 11.3997 8.06821 11.5504C7.91751 11.7011 7.71312 11.7857 7.5 11.7857C7.28688 11.7857 7.08249 11.7011 6.93179 11.5504C6.78109 11.3997 6.69643 11.1953 6.69643 10.9821C6.69643 10.769 6.78109 10.5646 6.93179 10.4139C7.08249 10.2632 7.28688 10.1786 7.5 10.1786C7.71312 10.1786 7.91751 10.2632 8.06821 10.4139C8.21891 10.5646 8.30357 10.769 8.30357 10.9821ZM7.5 3.21429C7.64208 3.21429 7.77834 3.27073 7.87881 3.37119C7.97927 3.47166 8.03571 3.60792 8.03571 3.75V8.57143C8.03571 8.71351 7.97927 8.84977 7.87881 8.95024C7.77834 9.0507 7.64208 9.10714 7.5 9.10714C7.35792 9.10714 7.22166 9.0507 7.12119 8.95024C7.02073 8.84977 6.96429 8.71351 6.96429 8.57143V3.75C6.96429 3.60792 7.02073 3.47166 7.12119 3.37119C7.22166 3.27073 7.35792 3.21429 7.5 3.21429V3.21429Z" fill="white"/>
</svg>
