<svg width="10" height="6" viewBox="0 0 10 6" fill="none" xmlns="http://www.w3.org/2000/svg">
<path d="M9.69471 1.70106C9.87687 1.51246 9.97766 1.25986 9.97539 0.997658C9.97311 0.735462 9.86794 0.484649 9.68253 0.299241C9.49712 0.113833 9.24631 0.00866388 8.98411 0.00638546C8.72192 0.00410704 8.46931 0.104901 8.28071 0.287059L9.69471 1.70106ZM4.98771 4.99406L4.28071 5.70106C4.46824 5.88853 4.72255 5.99385 4.98771 5.99385C5.25288 5.99385 5.50718 5.88853 5.69471 5.70106L4.98771 4.99406ZM1.69471 0.287059C1.50611 0.104901 1.25351 0.00410704 0.991311 0.00638546C0.729114 0.00866388 0.478302 0.113833 0.292894 0.299241C0.107485 0.484649 0.00231622 0.735462 3.78025e-05 0.997658C-0.00224062 1.25986 0.0985542 1.51246 0.280712 1.70106L1.69471 0.287059ZM8.28071 0.287059L4.28071 4.28706L5.69471 5.70106L9.69471 1.70106L8.28071 0.287059ZM5.69471 4.28706L1.69471 0.287059L0.280712 1.70106L4.28071 5.70106L5.69471 4.28706Z" fill="white"/>
</svg>
