<svg width="32" height="32" viewBox="0 0 32 32" fill="none" xmlns="http://www.w3.org/2000/svg">
<path opacity="0.16" d="M16 32C24.8366 32 32 24.8366 32 16C32 7.16344 24.8366 0 16 0C7.16344 0 0 7.16344 0 16C0 24.8366 7.16344 32 16 32Z" fill="#8247E5"/>
<path d="M21.5719 12.2446C21.1866 12.0244 20.6912 12.0244 20.2508 12.2446L17.1682 14.0611L15.0765 15.2171L12.0489 17.0337C11.6636 17.2538 11.1681 17.2538 10.7278 17.0337L8.36073 15.6024C7.97541 15.3823 7.70017 14.9419 7.70017 14.4465V11.6941C7.70017 11.2538 7.92036 10.8134 8.36073 10.5382L10.7278 9.16202C11.1131 8.94183 11.6085 8.94183 12.0489 9.16202L14.4159 10.5932C14.8012 10.8134 15.0765 11.2538 15.0765 11.7492V13.5657L17.1682 12.3547V10.4831C17.1682 10.0427 16.948 9.60239 16.5077 9.32716L12.1039 6.73997C11.7186 6.51978 11.2232 6.51978 10.7828 6.73997L6.26896 9.3822C5.82859 9.60239 5.6084 10.0427 5.6084 10.4831V15.6575C5.6084 16.0979 5.82859 16.5382 6.26896 16.8135L10.7278 19.4007C11.1131 19.6208 11.6085 19.6208 12.0489 19.4007L15.0765 17.6392L17.1682 16.4281L20.1958 14.6667C20.5811 14.4465 21.0765 14.4465 21.5169 14.6667L23.8839 16.0428C24.2692 16.263 24.5445 16.7034 24.5445 17.1988V19.9511C24.5445 20.3915 24.3243 20.8319 23.8839 21.1071L21.5719 22.4833C21.1866 22.7035 20.6912 22.7035 20.2508 22.4833L17.8838 21.1071C17.4985 20.8869 17.2233 20.4465 17.2233 19.9511V18.1896L15.1315 19.4007V21.2172C15.1315 21.6576 15.3517 22.0979 15.7921 22.3732L20.2508 24.9604C20.6362 25.1805 21.1316 25.1805 21.5719 24.9604L26.0307 22.3732C26.416 22.153 26.6913 21.7126 26.6913 21.2172V15.9878C26.6913 15.5474 26.4711 15.107 26.0307 14.8318L21.5719 12.2446Z" fill="#8247E5"/>
</svg>
