<svg width="98" height="28" viewBox="0 0 98 28" fill="none" xmlns="http://www.w3.org/2000/svg">
<path d="M22.6992 18.5H21.5215L18.4336 14.334L17.5195 15.1543V18.5H16.5234V9.93359H17.5195V14.2051C17.7422 13.9512 17.9707 13.6992 18.2051 13.4492C18.4395 13.1953 18.6719 12.9395 18.9023 12.6816L21.4043 9.93359H22.5703L19.1602 13.6484L22.6992 18.5ZM26.0566 14.2285L28.3359 9.93359H29.4082L26.5547 15.1777V18.5H25.5586V15.2246L22.6992 9.93359H23.7891L26.0566 14.2285ZM34.248 10.6895C33.7754 10.6895 33.3496 10.7715 32.9707 10.9355C32.5957 11.0957 32.2754 11.3301 32.0098 11.6387C31.748 11.9434 31.5469 12.3125 31.4062 12.7461C31.2656 13.1797 31.1953 13.668 31.1953 14.2109C31.1953 14.9297 31.3066 15.5547 31.5293 16.0859C31.7559 16.6133 32.0918 17.0215 32.5371 17.3105C32.9863 17.5996 33.5469 17.7441 34.2188 17.7441C34.6016 17.7441 34.9609 17.7129 35.2969 17.6504C35.6367 17.584 35.9668 17.502 36.2871 17.4043V18.2715C35.9746 18.3887 35.6465 18.4746 35.3027 18.5293C34.959 18.5879 34.5508 18.6172 34.0781 18.6172C33.207 18.6172 32.4785 18.4375 31.8926 18.0781C31.3105 17.7148 30.873 17.2031 30.5801 16.543C30.291 15.8828 30.1465 15.1035 30.1465 14.2051C30.1465 13.5566 30.2363 12.9648 30.416 12.4297C30.5996 11.8906 30.8652 11.4258 31.2129 11.0352C31.5645 10.6445 31.9941 10.3438 32.502 10.1328C33.0137 9.91797 33.5996 9.81055 34.2598 9.81055C34.6934 9.81055 35.1113 9.85352 35.5137 9.93945C35.916 10.0254 36.2793 10.1484 36.6035 10.3086L36.2051 11.1523C35.9316 11.0273 35.6309 10.9199 35.3027 10.8301C34.9785 10.7363 34.627 10.6895 34.248 10.6895ZM47.959 18.5H46.8105L42.1406 11.3047H42.0938C42.1055 11.4961 42.1191 11.7148 42.1348 11.9609C42.1504 12.2031 42.1621 12.4629 42.1699 12.7402C42.1816 13.0137 42.1875 13.293 42.1875 13.5781V18.5H41.2617V9.93359H42.4043L47.0566 17.1055H47.0977C47.0898 16.9688 47.0801 16.7754 47.0684 16.5254C47.0566 16.2715 47.0449 16 47.0332 15.7109C47.0254 15.418 47.0215 15.1465 47.0215 14.8965V9.93359H47.959V18.5ZM55.6875 15.2773C55.6875 15.8047 55.6191 16.2754 55.4824 16.6895C55.3457 17.1035 55.1484 17.4531 54.8906 17.7383C54.6328 18.0234 54.3203 18.2422 53.9531 18.3945C53.5898 18.543 53.1777 18.6172 52.7168 18.6172C52.2871 18.6172 51.8926 18.543 51.5332 18.3945C51.1777 18.2422 50.8691 18.0234 50.6074 17.7383C50.3496 17.4531 50.1484 17.1035 50.0039 16.6895C49.8633 16.2754 49.793 15.8047 49.793 15.2773C49.793 14.5742 49.9121 13.9766 50.1504 13.4844C50.3887 12.9883 50.7285 12.6113 51.1699 12.3535C51.6152 12.0918 52.1445 11.9609 52.7578 11.9609C53.3438 11.9609 53.8555 12.0918 54.293 12.3535C54.7344 12.6152 55.0762 12.9941 55.3184 13.4902C55.5645 13.9824 55.6875 14.5781 55.6875 15.2773ZM50.8008 15.2773C50.8008 15.793 50.8691 16.2402 51.0059 16.6191C51.1426 16.998 51.3535 17.291 51.6387 17.498C51.9238 17.7051 52.291 17.8086 52.7402 17.8086C53.1855 17.8086 53.5508 17.7051 53.8359 17.498C54.125 17.291 54.3379 16.998 54.4746 16.6191C54.6113 16.2402 54.6797 15.793 54.6797 15.2773C54.6797 14.7656 54.6113 14.3242 54.4746 13.9531C54.3379 13.5781 54.127 13.2891 53.8418 13.0859C53.5566 12.8828 53.1875 12.7812 52.7344 12.7812C52.0664 12.7812 51.5762 13.002 51.2637 13.4434C50.9551 13.8848 50.8008 14.4961 50.8008 15.2773ZM62.5957 18.4883L61.4531 14.75C61.4023 14.5898 61.3535 14.4336 61.3066 14.2812C61.2637 14.125 61.2227 13.9766 61.1836 13.8359C61.1484 13.6914 61.1152 13.5586 61.084 13.4375C61.0566 13.3125 61.0332 13.2051 61.0137 13.1152H60.9727C60.957 13.2051 60.9355 13.3125 60.9082 13.4375C60.8809 13.5586 60.8477 13.6914 60.8086 13.8359C60.7734 13.9805 60.7344 14.1328 60.6914 14.293C60.6484 14.4492 60.5996 14.6074 60.5449 14.7676L59.3496 18.4883H58.2539L56.4844 12.0664H57.4922L58.418 15.6113C58.4805 15.8457 58.5391 16.0781 58.5938 16.3086C58.6523 16.5352 58.7012 16.75 58.7402 16.9531C58.7832 17.1523 58.8145 17.3262 58.834 17.4746H58.8809C58.9043 17.377 58.9297 17.2598 58.957 17.123C58.9883 16.9863 59.0215 16.8418 59.0566 16.6895C59.0957 16.5332 59.1367 16.3789 59.1797 16.2266C59.2227 16.0703 59.2656 15.9238 59.3086 15.7871L60.4922 12.0664H61.541L62.6836 15.7812C62.7422 15.9688 62.7988 16.1641 62.8535 16.3672C62.9121 16.5703 62.9648 16.7676 63.0117 16.959C63.0586 17.1465 63.0918 17.3145 63.1113 17.4629H63.1582C63.1738 17.3301 63.2031 17.166 63.2461 16.9707C63.2891 16.7754 63.3379 16.5605 63.3926 16.3262C63.4512 16.0918 63.5117 15.8535 63.5742 15.6113L64.5117 12.0664H65.502L63.7266 18.4883H62.5957Z" fill="white"/>
<path d="M77 8L75.909 9.091L80.039 13.221H71V14.779H80.039L75.909 18.909L77 20L83 14L77 8Z" fill="#A84DFF"/>
<rect x="0.5" y="0.5" width="97" height="27" rx="13.5" stroke="url(#paint0_linear_110_5081)"/>
<defs>
<linearGradient id="paint0_linear_110_5081" x1="7.88506" y1="8.03353e-08" x2="75.0608" y2="53.9147" gradientUnits="userSpaceOnUse">
<stop stop-color="#B347FF"/>
<stop offset="0.442482" stop-color="#454CF9"/>
<stop offset="0.70862" stop-color="#0961FE"/>
<stop offset="1" stop-color="#02ACD3"/>
</linearGradient>
</defs>
</svg>
