<svg width="18" height="18" viewBox="0 0 18 18" fill="none" xmlns="http://www.w3.org/2000/svg">
<path d="M9 0.640625C4.02961 0.640625 0 4.10279 0 8.37397C0 10.2166 0.752695 11.9064 2.00461 13.2348C1.56305 15.1053 0.0949219 16.7754 0.0773438 16.7951C0.0394885 16.8373 0.0141567 16.8903 0.00448421 16.9475C-0.00518826 17.0048 0.00122334 17.0637 0.0229253 17.1172C0.0446272 17.1706 0.0806666 17.2161 0.126582 17.2481C0.172497 17.28 0.226272 17.2971 0.28125 17.2971C2.6107 17.2971 4.35902 16.1166 5.22422 15.3868C6.37348 15.8445 7.64965 16.1073 9 16.1073C13.9704 16.1073 18 12.6452 18 8.37397C18 4.10279 13.9704 0.640625 9 0.640625ZM9.84375 11.8852V12.5381C9.84375 12.8667 9.59203 13.133 9.28125 13.133H8.71875C8.40797 13.133 8.15625 12.8667 8.15625 12.5381V11.8789C7.75477 11.8287 7.37297 11.6859 7.03898 11.4528C6.82031 11.3 6.79922 10.9654 6.98449 10.7695L7.60043 10.1181C7.73191 9.97901 7.92773 9.96042 8.09648 10.0426C8.20828 10.0969 8.33062 10.1251 8.45719 10.1251H9.60961C9.77344 10.1251 9.90633 9.98459 9.90633 9.81208C9.90633 9.67265 9.81773 9.54885 9.69117 9.51055L7.9309 8.97888C7.14867 8.74279 6.5243 8.06018 6.42234 7.20653C6.27996 6.01419 7.09137 4.99695 8.15625 4.86236V4.20986C8.15625 3.8812 8.40797 3.61499 8.71875 3.61499H9.28125C9.59203 3.61499 9.84375 3.8812 9.84375 4.20986V4.86906C10.2452 4.91925 10.627 5.06202 10.961 5.29513C11.1797 5.44794 11.2008 5.78256 11.0155 5.97849L10.3996 6.62988C10.2681 6.76893 10.0723 6.78752 9.90352 6.70535C9.79033 6.65062 9.66727 6.62246 9.54281 6.62282H8.39039C8.22656 6.62282 8.09367 6.76335 8.09367 6.93587C8.09367 7.07529 8.18227 7.1991 8.30883 7.23739L10.0691 7.76906C10.8513 8.00552 11.4757 8.68777 11.5777 9.54141C11.72 10.7334 10.9086 11.7506 9.84375 11.8852Z" fill="white"/>
</svg>
