<svg width="32" height="32" viewBox="0 0 32 32" fill="none" xmlns="http://www.w3.org/2000/svg">
<path opacity="0.16" d="M16 32C24.8366 32 32 24.8366 32 16C32 7.16344 24.8366 0 16 0C7.16344 0 0 7.16344 0 16C0 24.8366 7.16344 32 16 32Z" fill="#8247E5"/>
<path d="M21.5719 12.2445C21.1866 12.0243 20.6912 12.0243 20.2508 12.2445L17.1682 14.061L15.0765 15.217L12.0489 17.0336C11.6636 17.2537 11.1681 17.2537 10.7278 17.0336L8.36073 15.6023C7.97541 15.3822 7.70017 14.9418 7.70017 14.4464V11.694C7.70017 11.2537 7.92036 10.8133 8.36073 10.5381L10.7278 9.1619C11.1131 8.94171 11.6085 8.94171 12.0489 9.1619L14.4159 10.5931C14.8012 10.8133 15.0765 11.2537 15.0765 11.7491V13.5656L17.1682 12.3546V10.483C17.1682 10.0426 16.948 9.60227 16.5077 9.32704L12.1039 6.73985C11.7186 6.51966 11.2232 6.51966 10.7828 6.73985L6.26896 9.38208C5.82859 9.60227 5.6084 10.0426 5.6084 10.483V15.6574C5.6084 16.0978 5.82859 16.5381 6.26896 16.8134L10.7278 19.4006C11.1131 19.6207 11.6085 19.6207 12.0489 19.4006L15.0765 17.6391L17.1682 16.428L20.1958 14.6666C20.5811 14.4464 21.0765 14.4464 21.5169 14.6666L23.8839 16.0427C24.2692 16.2629 24.5445 16.7033 24.5445 17.1987V19.951C24.5445 20.3914 24.3243 20.8318 23.8839 21.107L21.5719 22.4832C21.1866 22.7034 20.6912 22.7034 20.2508 22.4832L17.8838 21.107C17.4985 20.8868 17.2233 20.4464 17.2233 19.951V18.1895L15.1315 19.4006V21.2171C15.1315 21.6575 15.3517 22.0978 15.7921 22.3731L20.2508 24.9603C20.6362 25.1804 21.1316 25.1804 21.5719 24.9603L26.0307 22.3731C26.416 22.1529 26.6913 21.7125 26.6913 21.2171V15.9877C26.6913 15.5473 26.4711 15.1069 26.0307 14.8317L21.5719 12.2445Z" fill="#8247E5"/>
</svg>
