<svg width="14" height="18" viewBox="0 0 14 18" fill="none" xmlns="http://www.w3.org/2000/svg">
<path d="M6.8189 13.8624C4.99793 13.8624 3.28462 13.1523 1.99734 11.8651C0.710063 10.5778 0 8.86448 0 7.04351C0 5.22254 0.710063 3.50923 1.99734 2.22195C3.28462 0.934673 4.99793 0.224609 6.8189 0.224609C8.63987 0.224609 10.3532 0.934673 11.6405 2.22195C12.9277 3.50923 13.6378 5.22254 13.6378 7.04351C13.6378 8.86448 12.9277 10.5778 11.6405 11.8651C10.3532 13.1546 8.63987 13.8624 6.8189 13.8624ZM6.8189 1.36987C3.69004 1.36987 1.14526 3.91465 1.14526 7.04351C1.14526 10.1724 3.69004 12.7171 6.8189 12.7171C9.94776 12.7171 12.4925 10.1724 12.4925 7.04351C12.4925 3.91465 9.94776 1.36987 6.8189 1.36987Z" fill="#A84DFF"/>
<path d="M0.679932 17.7746L2.0405 11.6818L3.15828 11.9315L2.23062 16.0911L6.69256 14.6985L11.4202 16.098L10.3001 11.7506L11.4087 11.4642L13.035 17.7701L6.70172 15.8964L0.679932 17.7746ZM6.84144 3.41992L7.9157 5.59363L10.3162 5.94408L8.57766 7.63678L8.98766 10.0281L6.84144 8.89886L4.69522 10.0281L5.10523 7.63678L3.36672 5.94408L5.76719 5.59363L6.84144 3.41992Z" fill="#A84DFF"/>
</svg>
