<svg width="34" height="35" viewBox="0 0 34 35" fill="none" xmlns="http://www.w3.org/2000/svg">
<g clip-path="url(#clip0_872_1514)">
<path d="M19.7271 12.042C19.7919 11.7835 19.7048 11.5106 19.5025 11.3369L15.1502 7.60878C14.7095 7.23135 14.1307 7.08137 13.5622 7.19731L9.30209 8.06629C8.87094 8.15425 8.51884 8.45173 8.3602 8.86214C8.20154 9.27251 8.26199 9.72946 8.52179 10.0845L11.2905 13.868C11.312 13.8975 11.3355 13.9249 11.3608 13.9501C11.5286 14.1179 11.7725 14.1916 12.009 14.1395L19.1963 12.5576C19.4566 12.5003 19.6621 12.3006 19.7271 12.042Z" fill="#E45A6E"/>
<path d="M19.7272 22.0296C19.6623 21.771 19.4567 21.5713 19.1964 21.514L12.0091 19.9321C11.737 19.8722 11.4552 19.9787 11.2906 20.2036L8.52186 23.9871C8.26203 24.3422 8.20164 24.7991 8.36031 25.2095C8.4263 25.3802 8.52577 25.5313 8.65046 25.656C8.82551 25.8311 9.0504 25.954 9.30217 26.0054L13.5623 26.8743C14.1308 26.9904 14.7096 26.8404 15.1503 26.4628L19.5026 22.7347C19.7051 22.5613 19.7921 22.2882 19.7272 22.0296Z" fill="#D82E44"/>
<path d="M9.72793 20.1231C9.72793 20.5189 9.91653 20.8926 10.2387 21.1224C14.9629 24.4931 21.5168 24.3448 25.0936 23.2067C29.0651 21.9431 31.8815 19.227 33.108 17.8589C33.5283 17.3901 33.5283 16.6814 33.108 16.2126C31.8814 14.8446 29.0651 12.1286 25.0935 10.8649C21.5168 9.72683 14.9629 9.5785 10.2387 12.9492C9.91656 13.1791 9.72793 13.5528 9.72793 13.9485L9.72793 20.1231Z" fill="#F1F1FB"/>
<path d="M33.4228 17.0361L9.72755 17.0361L9.72755 20.1234C9.72754 20.5192 9.91618 20.8929 10.2383 21.1228C14.9625 24.4934 21.5165 24.3451 25.0931 23.2071C29.0647 21.9434 31.8811 19.2274 33.1076 17.8593C33.3177 17.6249 33.4228 17.3305 33.4228 17.0361Z" fill="#D7D6FB"/>
<path d="M20.7953 19.5208C20.1585 18.8842 19.7644 18.0055 19.7644 17.0361C19.7644 16.0971 20.1301 15.2142 20.7941 14.5502C21.4581 13.8862 22.341 13.5205 23.28 13.5205C25.2184 13.5205 26.7956 15.0975 26.7956 17.0361C26.7956 17.9751 26.4299 18.858 25.7659 19.522C25.1019 20.186 24.219 20.5517 23.28 20.5517C22.3108 20.5517 21.4318 20.1573 20.7953 19.5208ZM23.28 14.2236L23.2803 14.2239L23.28 14.2236Z" fill="#466288"/>
<path d="M10.2382 12.9492C9.91604 13.1791 9.72741 13.5528 9.72741 13.9486L9.72741 20.1232C9.72741 20.5189 9.91604 20.8926 10.2382 21.1225C11.2662 21.8559 12.3808 22.4226 13.5325 22.8489L13.5324 11.2229C12.3808 11.6491 11.2661 12.2158 10.2382 12.9492Z" fill="#466288"/>
<path d="M3.52211 14.5582C3.64933 14.6854 3.82516 14.7641 4.0193 14.7641L7.26578 14.7641C7.65409 14.7641 7.9689 14.4493 7.9689 14.0609C7.96894 13.6726 7.65415 13.3579 7.26579 13.3578L4.01933 13.3579C3.63103 13.3578 3.31621 13.6726 3.31621 14.061C3.31618 14.2552 3.39487 14.4309 3.52211 14.5582Z" fill="#FDB43A"/>
<path d="M7.96847 17.0365C7.96847 16.6483 7.65365 16.3334 7.26535 16.3334L1.02377 16.3334C0.635467 16.3334 0.320651 16.6482 0.320651 17.0365C0.320651 17.2307 0.399372 17.4065 0.526618 17.5337C0.653864 17.6609 0.829669 17.7396 1.0238 17.7396L7.26538 17.7396C7.65369 17.7396 7.9685 17.4248 7.96847 17.0365Z" fill="#FDB43A"/>
<path d="M7.96844 20.0111C7.96844 19.6228 7.65362 19.308 7.26532 19.308L4.01891 19.308C3.63061 19.3079 3.31579 19.6228 3.31579 20.0111C3.31579 20.2053 3.39448 20.3811 3.52169 20.5083C3.64891 20.6355 3.82474 20.7142 4.01888 20.7142L7.26535 20.7142C7.65365 20.7142 7.96847 20.3994 7.96844 20.0111Z" fill="#F57A21"/>
<path d="M0.321074 17.0359C0.321074 17.23 0.399794 17.4058 0.527041 17.533C0.654287 17.6603 0.830092 17.739 1.02423 17.7389L7.26581 17.7389C7.65411 17.739 7.96893 17.4242 7.96893 17.0358L0.321074 17.0359Z" fill="#F57A21"/>
<path d="M9.72787 17.0358L9.72787 20.1231C9.72787 20.5188 9.9165 20.8926 10.2386 21.1224C11.2666 21.8559 12.3812 22.4225 13.5329 22.8488L13.5329 17.0358L9.72787 17.0358Z" fill="#354A67"/>
<path d="M19.7642 17.0356C19.7642 18.005 20.1583 18.8838 20.795 19.5204C21.4316 20.1568 22.3106 20.5512 23.2798 20.5512C24.2188 20.5512 25.1017 20.1855 25.7657 19.5215C26.4297 18.8575 26.7954 17.9747 26.7954 17.0356L19.7642 17.0356Z" fill="#354A67"/>
<path d="M24.7704 15.5453C24.3884 15.1633 23.8611 14.9267 23.2795 14.9268C22.7161 14.9268 22.1864 15.1461 21.788 15.5445C21.3896 15.9429 21.1702 16.4727 21.1702 17.0361C21.1702 18.1992 22.1165 19.1455 23.2796 19.1455C23.843 19.1454 24.3727 18.9261 24.7712 18.5276C25.1696 18.1292 25.389 17.5995 25.389 17.0361C25.3889 16.4546 25.1524 15.9273 24.7704 15.5453Z" fill="#4BBEFD"/>
<path d="M25.3891 17.0361L21.1704 17.0361C21.1704 18.1992 22.1167 19.1455 23.2798 19.1455C23.8432 19.1454 24.3729 18.926 24.7713 18.5276C25.1697 18.1292 25.3892 17.5996 25.3891 17.0361Z" fill="#0590FB"/>
</g>
<defs>
<clipPath id="clip0_872_1514">
<rect width="24" height="24" fill="white" transform="translate(17 0.0654297) rotate(45)"/>
</clipPath>
</defs>
</svg>
