<svg width="21" height="22" viewBox="0 0 21 22" fill="none" xmlns="http://www.w3.org/2000/svg">
<path fill-rule="evenodd" clip-rule="evenodd" d="M14.4254 14.4276C14.5866 14.2663 14.8053 14.1758 15.0334 14.1758C15.2614 14.1758 15.4801 14.2663 15.6414 14.4276L20.7364 19.5276C20.8188 19.6068 20.8845 19.7017 20.9298 19.8067C20.975 19.9117 20.9989 20.0247 21 20.139C21.0011 20.2533 20.9794 20.3667 20.9361 20.4725C20.8929 20.5783 20.829 20.6745 20.7481 20.7553C20.6673 20.8362 20.5712 20.9001 20.4653 20.9433C20.3595 20.9866 20.2461 21.0083 20.1318 21.0072C20.0175 21.0061 19.9045 20.9822 19.7995 20.9369C19.6946 20.8917 19.5997 20.8259 19.5204 20.7436L14.4204 15.6486C14.3401 15.5683 14.2766 15.4729 14.2333 15.368C14.1901 15.263 14.1681 15.1505 14.1686 15.037C14.1691 14.9235 14.192 14.8112 14.2361 14.7066C14.2801 14.602 14.3445 14.5072 14.4254 14.4276Z" fill="white"/>
<path fill-rule="evenodd" clip-rule="evenodd" d="M16.1185 13.1734C16.346 13.1871 16.5588 13.2905 16.7101 13.4609C16.8614 13.6313 16.9389 13.8549 16.9255 14.0824C16.943 14.8332 16.677 15.5629 16.1805 16.1264C15.6063 16.6148 14.8848 16.8965 14.1315 16.9264C13.9087 16.9466 13.6868 16.8791 13.5129 16.7384C13.339 16.5976 13.2268 16.3946 13.2001 16.1725C13.1734 15.9503 13.2344 15.7265 13.37 15.5486C13.5056 15.3706 13.7053 15.2526 13.9265 15.2194C14.6435 15.1334 14.8765 15.0024 14.9705 14.9084C15.0485 14.8304 15.1705 14.6404 15.2085 13.9844C15.2148 13.8713 15.2433 13.7606 15.2925 13.6585C15.3416 13.5565 15.4105 13.4652 15.495 13.3898C15.5796 13.3145 15.6782 13.2566 15.7852 13.2194C15.8922 13.1823 16.0055 13.1666 16.1185 13.1734Z" fill="white"/>
<path fill-rule="evenodd" clip-rule="evenodd" d="M9.48991 2.71017C8.14836 2.71017 6.83694 3.10798 5.72148 3.85331C4.60602 4.59863 3.73663 5.65799 3.22324 6.89743C2.70985 8.13686 2.57552 9.50069 2.83725 10.8165C3.09897 12.1322 3.74499 13.3409 4.69361 14.2895C5.64223 15.2381 6.85084 15.8841 8.16662 16.1458C9.48239 16.4076 10.8462 16.2732 12.0857 15.7598C13.3251 15.2465 14.3844 14.3771 15.1298 13.2616C15.8751 12.1461 16.2729 10.8347 16.2729 9.49317C16.2729 7.6942 15.5583 5.96892 14.2862 4.69686C13.0142 3.4248 11.2889 2.71017 9.48991 2.71017ZM0.989915 9.49317C0.989915 7.81203 1.48843 6.16864 2.42242 4.77082C3.35642 3.373 4.68393 2.28354 6.23711 1.64019C7.79028 0.996847 9.49934 0.828519 11.1482 1.15649C12.797 1.48447 14.3116 2.29401 15.5003 3.48276C16.6891 4.67151 17.4986 6.18606 17.8266 7.8349C18.1546 9.48374 17.9862 11.1928 17.3429 12.746C16.6995 14.2991 15.6101 15.6267 14.2123 16.5607C12.8144 17.4947 11.1711 17.9932 9.48991 17.9932C8.37343 17.9934 7.26782 17.7737 6.23626 17.3466C5.2047 16.9195 4.26738 16.2934 3.47786 15.5039C2.68834 14.7145 2.06207 13.7773 1.63484 12.7457C1.20761 11.7142 0.987784 10.6087 0.987915 9.49217L0.989915 9.49317Z" fill="white"/>
</svg>
