<svg width="22" height="20" viewBox="0 0 22 20" fill="none" xmlns="http://www.w3.org/2000/svg">
<path fill-rule="evenodd" clip-rule="evenodd" d="M10.5401 1.62158C10.4417 1.62158 10.1995 1.64861 10.0709 1.9059L8.09688 5.85283C7.78446 6.4766 7.18231 6.9101 6.48611 7.00956L2.06676 7.6463C1.77487 7.68846 1.67542 7.90467 1.64515 7.99548C1.61812 8.08305 1.57488 8.30574 1.77596 8.49817L4.97155 11.5684C5.48073 12.0581 5.71208 12.764 5.591 13.4548L4.83858 17.7898C4.7921 18.0612 4.96182 18.219 5.0375 18.2731C5.1175 18.3336 5.33154 18.4536 5.5964 18.3152L9.54766 16.2666C10.1703 15.9456 10.9119 15.9456 11.5325 16.2666L15.4826 18.3141C15.7486 18.4514 15.9626 18.3314 16.0437 18.2731C16.1194 18.219 16.2891 18.0612 16.2426 17.7898L15.4881 13.4548C15.367 12.764 15.5983 12.0581 16.1075 11.5684L19.3031 8.49817C19.5053 8.30574 19.462 8.08196 19.4339 7.99548C19.4047 7.90467 19.3053 7.68846 19.0134 7.6463L14.594 7.00956C13.8989 6.9101 13.2968 6.4766 12.9843 5.85175L11.0082 1.9059C10.8806 1.64861 10.6384 1.62158 10.5401 1.62158ZM5.34789 19.9995C4.90141 19.9995 4.45818 19.859 4.07873 19.5822C3.42361 19.1022 3.10254 18.3098 3.24199 17.512L3.99441 13.177C4.02251 13.0159 3.96738 12.8527 3.84846 12.7381L0.652866 9.66787C0.0647726 9.10464 -0.146033 8.27223 0.102609 7.49928C0.353414 6.71767 1.01718 6.15877 1.83554 6.04202L6.25489 5.40527C6.4257 5.38149 6.57272 5.27663 6.64623 5.12744L8.62132 1.17943C8.98564 0.451881 9.72075 0 10.5402 0C11.3596 0 12.0947 0.451881 12.4591 1.17943L14.4352 5.12636C14.5098 5.27663 14.6558 5.38149 14.8255 5.40527L19.2448 6.04202C20.0632 6.15877 20.727 6.71767 20.9778 7.49928C21.2264 8.27223 21.0145 9.10464 20.4264 9.66787L17.2308 12.7381C17.1119 12.8527 17.0579 13.0159 17.086 13.1759L17.8395 17.512C17.9778 18.3109 17.6568 19.1033 17.0006 19.5822C16.3357 20.0698 15.4698 20.1357 14.7358 19.753L10.7867 17.7066C10.6321 17.6266 10.4472 17.6266 10.2926 17.7066L6.34354 19.7541C6.02787 19.9184 5.68734 19.9995 5.34789 19.9995Z" fill="white"/>
</svg>
