<svg width="80" height="80" viewBox="0 0 80 80" fill="none" xmlns="http://www.w3.org/2000/svg">
<circle cx="40" cy="40" r="40" fill="#A84DFF"/>
<g clip-path="url(#clip0_5_9194)">
<path d="M52.2811 23.0064C53.3565 23.0064 54.4319 23.0005 55.5132 23.0064C56.1772 23.0122 56.8119 23.5352 56.9705 24.1993C57.0058 24.3521 57.0234 24.5049 57.0234 24.6635C57.0234 26.5381 57.0293 28.4127 57.0175 30.2873C57.0117 31.0806 56.9588 31.8739 56.8589 32.6672C56.6062 34.724 56.0538 36.6926 55.2076 38.5848C54.5494 40.0598 53.7326 41.4349 52.7454 42.7159C52.5573 42.9627 52.3575 43.2037 52.1636 43.4446C52.099 43.521 52.0813 43.6209 52.052 43.709C50.7474 47.3936 49.4487 51.0781 48.15 54.7685C47.8856 55.5207 47.6329 56.2787 47.3449 57.0192C46.9571 58.024 45.6349 58.3296 44.8298 57.6186C43.7779 56.6901 42.7202 55.7734 41.6624 54.8508C40.9925 54.2631 40.3285 53.6755 39.6586 53.0937C39.4118 52.8763 39.165 52.6647 38.924 52.4473C38.8476 52.3768 38.7889 52.3768 38.6948 52.4179C38.1131 52.653 37.5372 52.888 36.9495 53.1172C36.2855 53.3699 35.6979 53.2465 35.1866 52.7587C35.0456 52.6295 34.9104 52.4943 34.7811 52.3533C34.7282 52.2945 34.6989 52.2886 34.6342 52.3474C34.1524 52.7646 33.6646 53.1642 33.1592 53.5462C32.2425 54.2278 31.2788 54.839 30.2739 55.3796C28.4287 56.3786 26.4836 57.1308 24.4974 57.8066C24.1742 57.9182 23.8569 58.0299 23.5043 58.0182C22.8167 57.9888 22.1703 57.4423 22.041 56.7606C21.9882 56.4785 21.994 56.1965 22.0881 55.9261C22.7345 53.981 23.4573 52.0653 24.3916 50.2378C25.1379 48.7804 26.0135 47.4112 27.0536 46.1419C27.2593 45.8951 27.465 45.6483 27.6765 45.4073C27.7353 45.3427 27.7294 45.3133 27.6707 45.2545C27.4826 45.0606 27.2711 44.8902 27.1124 44.6728C26.7481 44.1909 26.6834 43.662 26.895 43.0979C27.1242 42.5044 27.3651 41.9167 27.606 41.3291C27.6413 41.2409 27.6295 41.1763 27.5708 41.1117C27.13 40.6122 26.6834 40.1068 26.2427 39.6014C25.5845 38.8492 24.9322 38.1029 24.28 37.3507C23.8392 36.8454 23.3867 36.34 22.946 35.8287C22.711 35.5584 22.4465 35.3057 22.2526 35.0002C21.7061 34.154 22.1057 32.9904 23.0577 32.6496C25.3906 31.8269 27.7294 31.0042 30.0624 30.1815C32.1896 29.4293 34.3228 28.6771 36.45 27.9249C36.5852 27.8779 36.6733 27.7721 36.7791 27.684C38.1307 26.5792 39.5998 25.6625 41.1806 24.928C42.6673 24.2345 44.2187 23.735 45.8229 23.4118C46.4223 23.2884 47.0276 23.2062 47.6388 23.1356C48.8728 22.9887 50.1069 23.024 51.3409 23.0181C51.6524 23.0005 51.9697 23.0005 52.2811 23.0064C52.2811 23.0005 52.2811 23.0005 52.2811 23.0064ZM26.3308 53.6931C26.7363 53.5462 27.13 53.3581 27.5237 53.176C29.2632 52.365 30.8792 51.3602 32.3365 50.1026C32.4306 50.0203 32.4188 49.9851 32.3424 49.9087C31.5902 49.1624 30.8439 48.4161 30.1035 47.6639C30.0154 47.5757 29.9801 47.5934 29.9096 47.6756C29.4395 48.228 28.9929 48.8039 28.5815 49.4033C27.894 50.4023 27.3181 51.4601 26.8009 52.5531C26.6305 52.9233 26.4484 53.2876 26.3191 53.6755C26.3132 53.6813 26.3015 53.6931 26.3015 53.6931C26.3073 53.7048 26.3191 53.699 26.3308 53.6931ZM53.8208 28.4656C53.8266 28.4656 53.8266 28.4656 53.8208 28.4656C53.8266 27.7545 53.8208 27.0493 53.8266 26.3383C53.8266 26.2031 53.7855 26.1796 53.6621 26.1796C52.9158 26.1855 52.1754 26.1796 51.4291 26.1855C50.2009 26.1855 48.9786 26.162 47.7563 26.3207C47.0276 26.4147 46.3048 26.544 45.5938 26.7203C44.107 27.0964 42.6908 27.6605 41.351 28.4009C40.1169 29.0885 38.9828 29.9112 37.9544 30.8749C37.4255 31.3685 36.926 31.8915 36.4618 32.4439C35.8154 33.2078 35.1514 33.9659 34.552 34.771C33.4589 36.2518 32.5246 37.8326 31.7783 39.5133C31.2435 40.7179 30.7852 41.9637 30.2798 43.1802C30.2445 43.2683 30.268 43.3212 30.3327 43.38C32.4247 45.472 34.5226 47.564 36.6087 49.656C36.6792 49.7265 36.7439 49.7441 36.8379 49.7089C37.2492 49.5385 37.6547 49.3739 38.0719 49.2153C39.5763 48.6217 41.0807 48.0223 42.4969 47.2173C43.6604 46.5591 44.7711 45.8246 45.8229 44.996C46.393 44.5494 46.9277 44.0675 47.486 43.6033C48.3557 42.8805 49.1549 42.0813 49.8659 41.2057C50.8062 40.0598 51.5877 38.8081 52.2106 37.4624C53.239 35.2411 53.7679 32.9023 53.8266 30.4577C53.8384 29.7995 53.8208 29.1296 53.8208 28.4656ZM31.9605 32.914C31.9017 32.8788 31.8723 32.9082 31.837 32.9258C30.8733 33.2666 29.9155 33.6016 28.9517 33.9424C28.1231 34.2362 27.2946 34.53 26.466 34.818C26.3602 34.8533 26.3602 34.8826 26.4307 34.9649C26.5835 35.1294 26.7304 35.2999 26.8773 35.4703C27.3357 35.9933 27.7941 36.5222 28.2524 37.0452C28.4992 37.3272 28.746 37.6093 29.0046 37.9031C29.8273 36.1284 30.8087 34.4772 31.9605 32.914ZM47.1393 48.0106C45.5467 49.1859 43.8837 50.1731 42.109 51.0017C43.1315 51.8949 44.1364 52.7705 45.1472 53.6578C45.8171 51.7656 46.4693 49.9087 47.1393 48.0106Z" fill="white"/>
<path d="M45.8698 38.9135C43.2372 38.9076 41.0864 36.8097 41.0923 34.1359C41.0923 31.4857 43.1961 29.3643 45.8639 29.3584C48.5612 29.3525 50.665 31.5092 50.6473 34.1594C50.6356 36.8273 48.4907 38.9076 45.8698 38.9135ZM45.8698 35.7167C46.6866 35.7402 47.4506 35.0585 47.4564 34.1477C47.4564 33.2721 46.7865 32.5552 45.8816 32.5493C44.9825 32.5434 44.2949 33.2545 44.2891 34.1301C44.2773 35.0409 45.0412 35.7402 45.8698 35.7167Z" fill="white"/>
</g>
<defs>
<clipPath id="clip0_5_9194">
<rect width="35.0235" height="35" fill="white" transform="translate(22 23)"/>
</clipPath>
</defs>
</svg>
