<svg width="80" height="80" viewBox="0 0 80 80" fill="none" xmlns="http://www.w3.org/2000/svg">
<circle cx="40" cy="40" r="40" fill="#1E123E"/>
<g clip-path="url(#clip0_1_9068)">
<path d="M38.5001 31.7419C38.5001 31.0278 38.5166 30.3547 38.4837 29.6898C38.4755 29.5585 38.3031 29.4108 38.1718 29.3123C37.0144 28.3765 36.5137 27.1781 36.8503 25.7253C37.1868 24.2724 38.1472 23.3777 39.6 23.074C41.1842 22.7375 42.7931 23.6075 43.4579 25.1096C44.1064 26.5871 43.6631 28.3273 42.358 29.2794C42.0954 29.4682 41.9886 29.6652 41.9969 29.9853C42.0215 30.5517 42.0051 31.1263 42.0051 31.7501C42.1938 31.7501 42.3416 31.7501 42.4811 31.7501C44.6235 31.7501 46.7658 31.7419 48.9164 31.7501C51.4856 31.7583 53.5705 33.4328 54.1204 35.9363C54.2107 36.3303 54.2436 36.7489 54.2436 37.1511C54.2518 42.2977 54.2518 47.4525 54.2518 52.5991C54.2518 55.6525 52.0109 57.9673 48.9575 57.9837C43.1542 58.0165 37.351 58.0165 31.5477 57.9837C28.4943 57.9673 26.2534 55.6525 26.2534 52.5991C26.2534 47.4525 26.2534 42.2977 26.2534 37.1511C26.2534 34.0484 28.5599 31.7501 31.6709 31.7501C33.7722 31.7501 35.8735 31.7501 37.983 31.7501C38.1308 31.7419 38.2785 31.7419 38.5001 31.7419ZM40.2567 54.4788C41.8163 54.4788 43.3676 54.4788 44.9272 54.4788C46.2487 54.4788 47.5785 54.487 48.9 54.4706C49.9917 54.4541 50.7386 53.7482 50.7386 52.6976C50.7469 47.4771 50.7469 42.2649 50.7386 37.0444C50.7386 36.0102 49.9835 35.2715 48.9492 35.2468C48.3582 35.2386 47.7755 35.255 47.1845 35.2386C46.9218 35.2304 46.8397 35.3207 46.7823 35.5669C46.3883 37.2661 45.9696 38.957 45.5674 40.6561C45.3048 41.7642 44.7056 42.2485 43.5646 42.2485C41.3566 42.2485 39.1404 42.2485 36.9324 42.2485C35.7996 42.2485 35.2004 41.7642 34.9295 40.6561C34.5273 38.957 34.1087 37.2661 33.7147 35.5752C33.6573 35.3289 33.5752 35.2304 33.3125 35.2468C32.8118 35.2632 32.3029 35.255 31.794 35.255C30.4396 35.255 29.7583 35.9445 29.7583 37.2989C29.7583 42.3223 29.7583 47.354 29.7583 52.3774C29.7583 53.8303 30.4068 54.487 31.8514 54.487C34.6587 54.4788 37.4577 54.4788 40.2567 54.4788ZM42.3826 38.7435C42.6699 37.578 42.9572 36.437 43.2445 35.2797C41.2089 35.2797 39.2635 35.2797 37.2607 35.2797C37.548 36.4042 37.8188 37.4959 38.1061 38.5876C38.1226 38.6533 38.2621 38.7353 38.3442 38.7353C39.6821 38.7435 41.0119 38.7435 42.3826 38.7435Z" fill="#A84DFF"/>
<path d="M24.5213 47.4938C24.5213 48.0684 24.5213 48.643 24.5213 49.2176C24.5131 50.1943 23.7826 50.9659 22.8551 50.9823C21.8537 51.007 21.0492 50.2928 21.0246 49.2832C20.9918 48.0848 20.9918 46.8782 21.0246 45.6798C21.0492 44.6948 21.8619 43.9643 22.8222 43.9889C23.7908 44.0135 24.5131 44.7687 24.5213 45.7701C24.5295 46.3529 24.5213 46.9274 24.5213 47.4938Z" fill="#0961FE"/>
<path d="M55.9917 47.4775C55.9917 46.9029 55.9917 46.3283 55.9917 45.7537C55.9999 44.777 56.714 44.03 57.6662 43.989C58.6265 43.9479 59.4556 44.6703 59.4884 45.6552C59.5294 46.8701 59.5212 48.0849 59.4884 49.2997C59.4556 50.3011 58.6429 51.0152 57.6415 50.9824C56.714 50.9496 55.9917 50.178 55.9917 49.2012C55.9917 48.6266 55.9917 48.0521 55.9917 47.4775Z" fill="#0961FE"/>
<path d="M36.7599 47.5424C36.7271 48.5028 35.9227 49.2744 34.9787 49.2497C34.0102 49.2251 33.2304 48.4043 33.2632 47.4357C33.296 46.4343 34.1004 45.7038 35.1265 45.7448C36.0458 45.7776 36.7928 46.5985 36.7599 47.5424Z" fill="#0961FE"/>
<path d="M45.5347 45.7452C46.495 45.7534 47.2584 46.5414 47.2502 47.5017C47.242 48.4785 46.4294 49.2747 45.469 49.2501C44.5169 49.2255 43.7453 48.4293 43.7535 47.4771C43.7617 46.4921 44.5415 45.737 45.5347 45.7452Z" fill="#0961FE"/>
</g>
<defs>
<clipPath id="clip0_1_9068">
<rect width="38.5131" height="35" fill="white" transform="translate(21 23)"/>
</clipPath>
</defs>
</svg>
