<svg width="16" height="16" viewBox="0 0 16 16" fill="none" xmlns="http://www.w3.org/2000/svg">
<path d="M11.4187 11.9209L10.875 12.4646L10.4957 12.5945L7.9367 13.4699L5.36443 14.3498L2.81866 15.2208L0.543749 15.999H0V15.4553L0.465246 14.3385L1.12658 12.7511L1.78792 11.1641L2.49785 9.46042L3.11059 7.98992L3.77192 6.40285L4.07812 5.66777L4.62187 5.12402L7.17749 7.67965L10.1134 10.6156L11.4187 11.9209Z" fill="#D69651"/>
<path d="M5.36451 14.3496L2.81875 15.2206L0.465332 14.3384L1.12667 12.751L5.36451 14.3496Z" fill="#C78640"/>
<path d="M10.4959 12.594L7.93687 13.4694L1.78809 11.1636L2.49802 9.45996L10.4959 12.594Z" fill="#C78640"/>
<path d="M10.1137 10.615L3.11084 7.98941L3.77218 6.40234L7.17775 7.67913L10.1137 10.615Z" fill="#C78640"/>
<path d="M5.98144 4.85136L7.11831 3.7145C7.26078 3.57203 7.34082 3.3788 7.34082 3.17731C7.34082 3.02863 7.29719 2.88322 7.21535 2.7591C7.1335 2.63498 7.01703 2.5376 6.88038 2.47903L6.17248 2.17565C5.69107 1.96933 5.27229 1.64021 4.95804 1.22121L4.62207 0.773242L5.43769 0.229492C5.79011 0.758116 6.30867 1.15419 6.9114 1.3551L7.23521 1.46304C7.58264 1.57885 7.88482 1.80104 8.09895 2.09813C8.31309 2.39522 8.42832 2.75216 8.42832 3.11839C8.42832 3.53491 8.27932 3.93769 8.00825 4.25394L6.79707 5.66699L5.98144 4.85136Z" fill="#FFC431"/>
<path d="M9.7875 3.49258L9.51562 1.86133L11.1469 2.40508L9.7875 3.49258Z" fill="#D1E4FF"/>
<path d="M8.09473 0.767578L8.22686 0.240141L9.3142 0.512537L9.18207 1.03997L8.09473 0.767578Z" fill="#FB6A83"/>
<path d="M10.7241 0.543945L11.5397 -8.99059e-05L11.8415 0.452309L11.0259 0.996345L10.7241 0.543945Z" fill="#FFC431"/>
<path d="M4.35889 2.46777L4.88632 2.33564L5.15872 3.42299L4.63128 3.55512L4.35889 2.46777Z" fill="#6173E8"/>
<path d="M11.1467 10.0172L12.2835 8.88032C12.426 8.73785 12.6192 8.65781 12.8207 8.65781C12.9694 8.65781 13.1148 8.70144 13.2389 8.78328C13.3631 8.86513 13.4604 8.9816 13.519 9.11825L13.8224 9.82615C14.0287 10.3076 14.3578 10.7263 14.7768 11.0406L15.2248 11.3766L15.7685 10.5609C15.2399 10.2085 14.8438 9.68996 14.6429 9.08723L14.535 8.76342C14.4192 8.41599 14.197 8.11381 13.8999 7.89967C13.6028 7.68554 13.2459 7.57031 12.8797 7.57031C12.4631 7.57031 12.0603 7.71931 11.7441 7.99038L10.3311 9.20156L11.1467 10.0172Z" fill="#6173E8"/>
<path d="M13.3218 6.4834L14.953 6.75527L14.4093 5.12402L13.3218 6.4834Z" fill="#FFC431"/>
<path d="M14.9629 7.62793L15.4903 7.4958L15.7627 8.58315L15.2353 8.71528L14.9629 7.62793Z" fill="#FB6A83"/>
<path d="M15.0034 4.97559L15.5475 4.16002L15.9999 4.4618L15.4558 5.27737L15.0034 4.97559Z" fill="#D1E4FF"/>
<path d="M12.4453 11.376L12.5774 10.8485L13.6648 11.1209L13.5327 11.6484L12.4453 11.376Z" fill="#6173E8"/>
<path d="M7.88428 7.02636L8.96707 5.76228C9.31865 5.35176 9.81308 5.09018 10.3503 5.03049L10.3811 5.02706C10.8419 4.97657 11.2754 4.78313 11.6206 4.47387C11.9659 4.16461 12.2058 3.75504 12.3066 3.30258V3.30258C12.3668 3.03156 12.4999 2.78213 12.6915 2.5812C12.8831 2.38027 13.1259 2.23547 13.3937 2.16243L15.4968 1.58887L15.7686 2.67637L14.2985 3.00307C14.0081 3.0676 13.7428 3.21535 13.5351 3.42825C13.3274 3.64116 13.1862 3.90999 13.1288 4.20185L13.1211 4.24114C13.0246 4.73187 12.7728 5.17854 12.4029 5.51509C12.0329 5.85164 11.5645 6.06022 11.0668 6.10998L11.0347 6.11319C10.4104 6.17412 9.83514 6.47858 9.43367 6.96061C9.07734 7.38906 8.6999 7.84199 8.6999 7.84199L7.88428 7.02636Z" fill="#FB6A83"/>
</svg>
