<svg width="20" height="18" viewBox="0 0 20 18" fill="none" xmlns="http://www.w3.org/2000/svg">
<path d="M18.9999 11.2279H15.165C14.4888 11.2279 13.8402 10.972 13.3621 10.5166C12.8839 10.0612 12.6152 9.44353 12.6152 8.79948C12.6152 8.15543 12.8839 7.53776 13.3621 7.08235C13.8402 6.62694 14.4888 6.37109 15.165 6.37109H18.9999" stroke="white" stroke-width="1.5" stroke-linecap="round" stroke-linejoin="round"/>
<path fill-rule="evenodd" clip-rule="evenodd" d="M5.93573 1H14.064C15.3731 1 16.6285 1.49525 17.5541 2.3768C18.4798 3.25835 18.9998 4.45399 18.9998 5.70069V12.1292C18.9998 13.3759 18.4798 14.5715 17.5541 15.4531C16.6285 16.3346 15.3731 16.8299 14.064 16.8299H5.93573C4.62669 16.8299 3.37127 16.3346 2.44564 15.4531C1.52001 14.5715 1 13.3759 1 12.1292V5.70069C1 4.45399 1.52001 3.25835 2.44564 2.3768C3.37127 1.49525 4.62669 1 5.93573 1V1Z" stroke="white" stroke-width="1.5" stroke-linecap="round" stroke-linejoin="round"/>
<path d="M5.25391 5.06348H10.3696" stroke="white" stroke-width="1.5" stroke-linecap="round" stroke-linejoin="round"/>
</svg>
