<svg width="21" height="20" viewBox="0 0 21 20" fill="none" xmlns="http://www.w3.org/2000/svg">
<path d="M20.0002 12.5646H15.9522C15.2384 12.5646 14.5538 12.2811 14.0491 11.7763C13.5443 11.2716 13.2607 10.587 13.2607 9.87314C13.2607 9.15931 13.5443 8.47472 14.0491 7.96996C14.5538 7.46521 15.2384 7.18164 15.9522 7.18164H20.0002" stroke="#A84DFF" stroke-width="1.5" stroke-linecap="round" stroke-linejoin="round"/>
<path d="M16.437 9.80762H16.125" stroke="#A84DFF" stroke-width="1.5" stroke-linecap="round" stroke-linejoin="round"/>
<path fill-rule="evenodd" clip-rule="evenodd" d="M6.21 1.22754H14.79C16.1718 1.22754 17.497 1.77645 18.474 2.75351C19.4511 3.73058 20 5.05576 20 6.43754V13.5625C20 14.9443 19.4511 16.2695 18.474 17.2466C17.497 18.2236 16.1718 18.7725 14.79 18.7725H6.21C4.82822 18.7725 3.50304 18.2236 2.52597 17.2466C1.54891 16.2695 1 14.9443 1 13.5625V6.43754C1 5.05576 1.54891 3.73058 2.52597 2.75351C3.50304 1.77645 4.82822 1.22754 6.21 1.22754V1.22754Z" stroke="#A84DFF" stroke-width="1.5" stroke-linecap="round" stroke-linejoin="round"/>
<path d="M5.49023 5.73242H10.8902" stroke="#A84DFF" stroke-width="1.5" stroke-linecap="round" stroke-linejoin="round"/>
</svg>
