<svg width="26" height="26" viewBox="0 0 26 26" fill="none" xmlns="http://www.w3.org/2000/svg">
<path fill-rule="evenodd" clip-rule="evenodd" d="M12.8333 0C5.74583 0 0 5.74583 0 12.8333C0 19.9208 5.74583 25.6667 12.8333 25.6667C19.9208 25.6667 25.6667 19.9208 25.6667 12.8333C25.6667 5.74583 19.9208 0 12.8333 0ZM17.1582 10.1582C17.3707 9.93813 17.4883 9.64343 17.4856 9.33753C17.483 9.03164 17.3603 8.73902 17.144 8.52271C16.9276 8.3064 16.635 8.18371 16.3291 8.18105C16.0232 8.17839 15.7285 8.29598 15.5085 8.5085L12.8333 11.1837L10.1582 8.5085C10.0505 8.39707 9.92181 8.30819 9.77947 8.24705C9.63713 8.1859 9.48404 8.15372 9.32913 8.15237C9.17422 8.15103 9.0206 8.18055 8.87722 8.23921C8.73384 8.29787 8.60358 8.3845 8.49404 8.49404C8.3845 8.60358 8.29787 8.73384 8.23921 8.87722C8.18055 9.0206 8.15103 9.17422 8.15237 9.32913C8.15372 9.48404 8.1859 9.63713 8.24705 9.77947C8.30819 9.92181 8.39707 10.0505 8.5085 10.1582L11.1837 12.8333L8.5085 15.5085C8.39707 15.6161 8.30819 15.7449 8.24705 15.8872C8.1859 16.0295 8.15372 16.1826 8.15237 16.3375C8.15103 16.4924 8.18055 16.6461 8.23921 16.7894C8.29787 16.9328 8.3845 17.0631 8.49404 17.1726C8.60358 17.2822 8.73384 17.3688 8.87722 17.4275C9.0206 17.4861 9.17422 17.5156 9.32913 17.5143C9.48404 17.5129 9.63713 17.4808 9.77947 17.4196C9.92181 17.3585 10.0505 17.2696 10.1582 17.1582L12.8333 14.483L15.5085 17.1582C15.7285 17.3707 16.0232 17.4883 16.3291 17.4856C16.635 17.483 16.9276 17.3603 17.144 17.144C17.3603 16.9276 17.483 16.635 17.4856 16.3291C17.4883 16.0232 17.3707 15.7285 17.1582 15.5085L14.483 12.8333L17.1582 10.1582Z" fill="black"/>
</svg>
