<svg width="744" height="315" viewBox="0 0 744 315" fill="none" xmlns="http://www.w3.org/2000/svg">
<path d="M1.38114 21.753C0.638322 10.0536 10.0713 0.226811 21.7912 0.490752L723.818 16.3008C734.934 16.5511 743.711 25.8195 743.357 36.9325L735.117 295.637C734.773 306.429 725.925 315 715.127 315H38.7704C28.2168 315 19.4793 306.8 18.8106 296.267L1.38114 21.753Z" fill="url(#paint0_linear_303_28)"/>
<path d="M40.158 73V54.8H48.036C49.6653 54.8 51.0693 55.0687 52.248 55.606C53.4267 56.126 54.3367 56.88 54.978 57.868C55.6193 58.856 55.94 60.0347 55.94 61.404C55.94 62.756 55.6193 63.926 54.978 64.914C54.3367 65.902 53.4267 66.6647 52.248 67.202C51.0693 67.722 49.6653 67.982 48.036 67.982H42.498L44.37 66.084V73H40.158ZM44.37 66.552L42.498 64.55H47.802C49.102 64.55 50.0727 64.2727 50.714 63.718C51.3553 63.1633 51.676 62.392 51.676 61.404C51.676 60.3987 51.3553 59.6187 50.714 59.064C50.0727 58.5093 49.102 58.232 47.802 58.232H42.498L44.37 56.23V66.552ZM71.4271 54.8H75.6391V73H71.4271V54.8ZM63.1591 73H58.9471V54.8H63.1591V73ZM71.7391 65.538H62.8471V61.976H71.7391V65.538ZM77.5531 73L85.6651 54.8H89.8251L97.9631 73H93.5431L86.8871 56.932H88.5511L81.8691 73H77.5531ZM81.6091 69.1L82.7271 65.902H92.0871L93.2311 69.1H81.6091ZM105.831 73.312C104.375 73.312 102.98 73.1213 101.645 72.74C100.311 72.3413 99.236 71.83 98.4214 71.206L99.8514 68.034C100.631 68.5887 101.55 69.048 102.607 69.412C103.682 69.7587 104.765 69.932 105.857 69.932C106.689 69.932 107.357 69.854 107.859 69.698C108.379 69.5247 108.761 69.2907 109.003 68.996C109.246 68.7013 109.367 68.3633 109.367 67.982C109.367 67.4967 109.177 67.1153 108.795 66.838C108.414 66.5433 107.911 66.3093 107.287 66.136C106.663 65.9453 105.97 65.772 105.207 65.616C104.462 65.4427 103.708 65.2347 102.945 64.992C102.2 64.7493 101.515 64.4373 100.891 64.056C100.267 63.6747 99.756 63.172 99.3574 62.548C98.976 61.924 98.7854 61.1267 98.7854 60.156C98.7854 59.116 99.0627 58.1713 99.6174 57.322C100.189 56.4553 101.039 55.7707 102.165 55.268C103.309 54.748 104.739 54.488 106.455 54.488C107.599 54.488 108.726 54.6267 109.835 54.904C110.945 55.164 111.924 55.5627 112.773 56.1L111.473 59.298C110.624 58.8127 109.775 58.4573 108.925 58.232C108.076 57.9893 107.244 57.868 106.429 57.868C105.615 57.868 104.947 57.9633 104.427 58.154C103.907 58.3447 103.535 58.596 103.309 58.908C103.084 59.2027 102.971 59.5493 102.971 59.948C102.971 60.416 103.162 60.7973 103.543 61.092C103.925 61.3693 104.427 61.5947 105.051 61.768C105.675 61.9413 106.36 62.1147 107.105 62.288C107.868 62.4613 108.622 62.6607 109.367 62.886C110.13 63.1113 110.823 63.4147 111.447 63.796C112.071 64.1773 112.574 64.68 112.955 65.304C113.354 65.928 113.553 66.7167 113.553 67.67C113.553 68.6927 113.267 69.6287 112.695 70.478C112.123 71.3273 111.265 72.012 110.121 72.532C108.995 73.052 107.565 73.312 105.831 73.312ZM120.305 62.132H129.067V65.408H120.305V62.132ZM120.617 69.62H130.523V73H116.431V54.8H130.185V58.18H120.617V69.62ZM139.886 69.178V66.344L148.466 54.8H152.886L144.488 66.344L142.434 65.746H156.76V69.178H139.886ZM149.688 73V69.178L149.818 65.746V62.34H153.796V73H149.688Z" fill="white"/>
<path d="M43.088 121.288C41.952 121.288 40.904 121.08 39.944 120.664C39 120.232 38.224 119.624 37.616 118.84L39.776 116.248C40.24 116.856 40.728 117.32 41.24 117.64C41.752 117.944 42.304 118.096 42.896 118.096C44.48 118.096 45.272 117.168 45.272 115.312V107.32H39.368V104.2H49.136V115.096C49.136 117.176 48.624 118.728 47.6 119.752C46.576 120.776 45.072 121.288 43.088 121.288ZM58.1604 121.192C57.0884 121.192 56.1284 120.984 55.2804 120.568C54.4484 120.152 53.8004 119.52 53.3364 118.672C52.8724 117.808 52.6404 116.712 52.6404 115.384V108.088H56.3844V114.832C56.3844 115.904 56.6084 116.696 57.0564 117.208C57.5204 117.704 58.1684 117.952 59.0004 117.952C59.5764 117.952 60.0884 117.832 60.5364 117.592C60.9844 117.336 61.3364 116.952 61.5924 116.44C61.8484 115.912 61.9764 115.256 61.9764 114.472V108.088H65.7204V121H62.1684V117.448L62.8164 118.48C62.3844 119.376 61.7444 120.056 60.8964 120.52C60.0644 120.968 59.1524 121.192 58.1604 121.192ZM69.1889 121V103.192H72.9329V121H69.1889ZM78.0397 125.848C77.3677 125.848 76.7037 125.744 76.0477 125.536C75.3917 125.328 74.8557 125.04 74.4397 124.672L75.8077 122.008C76.0957 122.264 76.4237 122.464 76.7917 122.608C77.1757 122.752 77.5517 122.824 77.9197 122.824C78.4477 122.824 78.8637 122.696 79.1677 122.44C79.4877 122.2 79.7757 121.792 80.0317 121.216L80.7037 119.632L80.9917 119.224L85.6237 108.088H89.2237L83.3917 121.792C82.9757 122.832 82.4957 123.648 81.9517 124.24C81.4237 124.832 80.8317 125.248 80.1757 125.488C79.5357 125.728 78.8237 125.848 78.0397 125.848ZM80.2477 121.504L74.4877 108.088H78.3517L82.8157 118.888L80.2477 121.504Z" fill="white"/>
<rect x="167" y="57" width="534" height="65" rx="10" fill="#757575" fill-opacity="0.4"/>
<rect x="167" y="141" width="534" height="65" rx="10" fill="#757575" fill-opacity="0.4"/>
<rect x="167" y="229" width="534" height="65" rx="10" fill="#757575" fill-opacity="0.4"/>
<path d="M185.31 98V82.6H187.51V98H185.31ZM192.121 98V82.6H198.611C200.253 82.6 201.698 82.9227 202.945 83.568C204.206 84.2133 205.181 85.1153 205.871 86.274C206.575 87.4327 206.927 88.7747 206.927 90.3C206.927 91.8253 206.575 93.1673 205.871 94.326C205.181 95.4847 204.206 96.3867 202.945 97.032C201.698 97.6773 200.253 98 198.611 98H192.121ZM194.321 96.086H198.479C199.755 96.086 200.855 95.844 201.779 95.36C202.717 94.876 203.443 94.2013 203.957 93.336C204.47 92.456 204.727 91.444 204.727 90.3C204.727 89.1413 204.47 88.1293 203.957 87.264C203.443 86.3987 202.717 85.724 201.779 85.24C200.855 84.756 199.755 84.514 198.479 84.514H194.321V96.086ZM217.248 98.176C216.075 98.176 214.982 97.978 213.97 97.582C212.973 97.186 212.108 96.636 211.374 95.932C210.641 95.2133 210.069 94.3773 209.658 93.424C209.248 92.4707 209.042 91.4293 209.042 90.3C209.042 89.1707 209.248 88.1293 209.658 87.176C210.069 86.2227 210.641 85.394 211.374 84.69C212.108 83.9713 212.973 83.414 213.97 83.018C214.968 82.622 216.06 82.424 217.248 82.424C218.422 82.424 219.5 82.622 220.482 83.018C221.48 83.3993 222.345 83.9493 223.078 84.668C223.826 85.372 224.398 86.2007 224.794 87.154C225.205 88.1073 225.41 89.156 225.41 90.3C225.41 91.444 225.205 92.4927 224.794 93.446C224.398 94.3993 223.826 95.2353 223.078 95.954C222.345 96.658 221.48 97.208 220.482 97.604C219.5 97.9853 218.422 98.176 217.248 98.176ZM217.248 96.218C218.099 96.218 218.884 96.0713 219.602 95.778C220.336 95.4847 220.966 95.074 221.494 94.546C222.037 94.0033 222.455 93.3727 222.748 92.654C223.056 91.9353 223.21 91.1507 223.21 90.3C223.21 89.4493 223.056 88.6647 222.748 87.946C222.455 87.2273 222.037 86.604 221.494 86.076C220.966 85.5333 220.336 85.1153 219.602 84.822C218.884 84.5287 218.099 84.382 217.248 84.382C216.383 84.382 215.584 84.5287 214.85 84.822C214.132 85.1153 213.501 85.5333 212.958 86.076C212.416 86.604 211.99 87.2273 211.682 87.946C211.389 88.6647 211.242 89.4493 211.242 90.3C211.242 91.1507 211.389 91.9353 211.682 92.654C211.99 93.3727 212.416 94.0033 212.958 94.546C213.501 95.074 214.132 95.4847 214.85 95.778C215.584 96.0713 216.383 96.218 217.248 96.218ZM237.717 98.132C236.749 98.132 235.825 98 234.945 97.736C234.08 97.472 233.398 97.1493 232.899 96.768L233.779 95.096C234.278 95.4333 234.894 95.7193 235.627 95.954C236.36 96.1887 237.108 96.306 237.871 96.306C238.854 96.306 239.558 96.1667 239.983 95.888C240.423 95.6093 240.643 95.2207 240.643 94.722C240.643 94.3553 240.511 94.0693 240.247 93.864C239.983 93.6587 239.631 93.5047 239.191 93.402C238.766 93.2993 238.289 93.2113 237.761 93.138C237.233 93.05 236.705 92.9473 236.177 92.83C235.649 92.698 235.165 92.522 234.725 92.302C234.285 92.0673 233.933 91.752 233.669 91.356C233.405 90.9453 233.273 90.4027 233.273 89.728C233.273 89.024 233.471 88.408 233.867 87.88C234.263 87.352 234.82 86.9487 235.539 86.67C236.272 86.3767 237.138 86.23 238.135 86.23C238.898 86.23 239.668 86.3253 240.445 86.516C241.237 86.692 241.882 86.9487 242.381 87.286L241.479 88.958C240.951 88.606 240.401 88.364 239.829 88.232C239.257 88.1 238.685 88.034 238.113 88.034C237.189 88.034 236.5 88.188 236.045 88.496C235.59 88.7893 235.363 89.1707 235.363 89.64C235.363 90.036 235.495 90.344 235.759 90.564C236.038 90.7693 236.39 90.9307 236.815 91.048C237.255 91.1653 237.739 91.268 238.267 91.356C238.795 91.4293 239.323 91.532 239.851 91.664C240.379 91.7813 240.856 91.95 241.281 92.17C241.721 92.39 242.073 92.698 242.337 93.094C242.616 93.49 242.755 94.018 242.755 94.678C242.755 95.382 242.55 95.9907 242.139 96.504C241.728 97.0173 241.149 97.4207 240.401 97.714C239.653 97.9927 238.758 98.132 237.717 98.132ZM249.399 98.132C248.225 98.132 247.316 97.8167 246.671 97.186C246.025 96.5553 245.703 95.6533 245.703 94.48V83.788H247.815V94.392C247.815 95.0227 247.969 95.5067 248.277 95.844C248.599 96.1813 249.054 96.35 249.641 96.35C250.301 96.35 250.851 96.1667 251.291 95.8L251.951 97.318C251.628 97.5967 251.239 97.802 250.785 97.934C250.345 98.066 249.883 98.132 249.399 98.132ZM243.723 88.078V86.34H251.159V88.078H243.723ZM261.742 98V95.536L261.632 95.074V90.872C261.632 89.9773 261.368 89.288 260.84 88.804C260.327 88.3053 259.549 88.056 258.508 88.056C257.819 88.056 257.144 88.1733 256.484 88.408C255.824 88.628 255.267 88.9287 254.812 89.31L253.932 87.726C254.533 87.242 255.252 86.8753 256.088 86.626C256.939 86.362 257.826 86.23 258.75 86.23C260.349 86.23 261.581 86.6187 262.446 87.396C263.311 88.1733 263.744 89.3613 263.744 90.96V98H261.742ZM257.914 98.132C257.049 98.132 256.286 97.9853 255.626 97.692C254.981 97.3987 254.482 96.9953 254.13 96.482C253.778 95.954 253.602 95.36 253.602 94.7C253.602 94.0693 253.749 93.4973 254.042 92.984C254.35 92.4707 254.841 92.06 255.516 91.752C256.205 91.444 257.129 91.29 258.288 91.29H261.984V92.808H258.376C257.32 92.808 256.609 92.984 256.242 93.336C255.875 93.688 255.692 94.1133 255.692 94.612C255.692 95.184 255.919 95.646 256.374 95.998C256.829 96.3353 257.459 96.504 258.266 96.504C259.058 96.504 259.747 96.328 260.334 95.976C260.935 95.624 261.368 95.1107 261.632 94.436L262.05 95.888C261.771 96.5773 261.28 97.1273 260.576 97.538C259.872 97.934 258.985 98.132 257.914 98.132ZM269.368 95.184L269.412 92.478L276.122 86.34H278.674L273.526 91.4L272.382 92.368L269.368 95.184ZM267.652 98V81.676H269.764V98H267.652ZM276.562 98L271.986 92.324L273.35 90.63L279.158 98H276.562ZM281.209 98V86.34H283.321V98H281.209ZM282.265 84.096C281.854 84.096 281.51 83.964 281.231 83.7C280.967 83.436 280.835 83.1133 280.835 82.732C280.835 82.336 280.967 82.006 281.231 81.742C281.51 81.478 281.854 81.346 282.265 81.346C282.676 81.346 283.013 81.478 283.277 81.742C283.556 81.9913 283.695 82.3067 283.695 82.688C283.695 83.084 283.563 83.4213 283.299 83.7C283.035 83.964 282.69 84.096 282.265 84.096ZM293.58 86.23C294.533 86.23 295.369 86.4133 296.088 86.78C296.821 87.1467 297.393 87.704 297.804 88.452C298.214 89.2 298.42 90.146 298.42 91.29V98H296.308V91.532C296.308 90.4027 296.029 89.552 295.472 88.98C294.929 88.408 294.159 88.122 293.162 88.122C292.414 88.122 291.761 88.2687 291.204 88.562C290.646 88.8553 290.214 89.288 289.906 89.86C289.612 90.432 289.466 91.1433 289.466 91.994V98H287.354V86.34H289.378V89.486L289.048 88.65C289.429 87.8873 290.016 87.2933 290.808 86.868C291.6 86.4427 292.524 86.23 293.58 86.23ZM307.432 102.4C306.362 102.4 305.32 102.246 304.308 101.938C303.311 101.645 302.497 101.219 301.866 100.662L302.878 99.034C303.421 99.5033 304.088 99.87 304.88 100.134C305.672 100.413 306.501 100.552 307.366 100.552C308.745 100.552 309.757 100.229 310.402 99.584C311.048 98.9387 311.37 97.956 311.37 96.636V94.172L311.59 91.862L311.48 89.53V86.34H313.482V96.416C313.482 98.4693 312.969 99.98 311.942 100.948C310.916 101.916 309.412 102.4 307.432 102.4ZM307.168 97.516C306.039 97.516 305.027 97.2813 304.132 96.812C303.252 96.328 302.548 95.6607 302.02 94.81C301.507 93.9593 301.25 92.9767 301.25 91.862C301.25 90.7327 301.507 89.75 302.02 88.914C302.548 88.0633 303.252 87.4033 304.132 86.934C305.027 86.4647 306.039 86.23 307.168 86.23C308.166 86.23 309.075 86.4353 309.896 86.846C310.718 87.242 311.37 87.858 311.854 88.694C312.353 89.53 312.602 90.586 312.602 91.862C312.602 93.1233 312.353 94.172 311.854 95.008C311.37 95.844 310.718 96.4747 309.896 96.9C309.075 97.3107 308.166 97.516 307.168 97.516ZM307.41 95.668C308.188 95.668 308.877 95.5067 309.478 95.184C310.08 94.8613 310.549 94.414 310.886 93.842C311.238 93.27 311.414 92.61 311.414 91.862C311.414 91.114 311.238 90.454 310.886 89.882C310.549 89.31 310.08 88.87 309.478 88.562C308.877 88.2393 308.188 88.078 307.41 88.078C306.633 88.078 305.936 88.2393 305.32 88.562C304.719 88.87 304.242 89.31 303.89 89.882C303.553 90.454 303.384 91.114 303.384 91.862C303.384 92.61 303.553 93.27 303.89 93.842C304.242 94.414 304.719 94.8613 305.32 95.184C305.936 95.5067 306.633 95.668 307.41 95.668ZM338.012 86.23C338.95 86.23 339.779 86.4133 340.498 86.78C341.216 87.1467 341.774 87.704 342.17 88.452C342.58 89.2 342.786 90.146 342.786 91.29V98H340.674V91.532C340.674 90.4027 340.41 89.552 339.882 88.98C339.354 88.408 338.613 88.122 337.66 88.122C336.956 88.122 336.34 88.2687 335.812 88.562C335.284 88.8553 334.873 89.288 334.58 89.86C334.301 90.432 334.162 91.1433 334.162 91.994V98H332.05V91.532C332.05 90.4027 331.786 89.552 331.258 88.98C330.744 88.408 330.004 88.122 329.036 88.122C328.346 88.122 327.738 88.2687 327.21 88.562C326.682 88.8553 326.271 89.288 325.978 89.86C325.684 90.432 325.538 91.1433 325.538 91.994V98H323.426V86.34H325.45V89.442L325.12 88.65C325.486 87.8873 326.051 87.2933 326.814 86.868C327.576 86.4427 328.464 86.23 329.476 86.23C330.59 86.23 331.551 86.5087 332.358 87.066C333.164 87.6087 333.692 88.4373 333.942 89.552L333.084 89.2C333.436 88.3053 334.052 87.5867 334.932 87.044C335.812 86.5013 336.838 86.23 338.012 86.23ZM351.864 98.132C350.617 98.132 349.517 97.8753 348.564 97.362C347.625 96.8487 346.892 96.1447 346.364 95.25C345.851 94.3553 345.594 93.3287 345.594 92.17C345.594 91.0113 345.843 89.9847 346.342 89.09C346.855 88.1953 347.552 87.4987 348.432 87C349.327 86.4867 350.331 86.23 351.446 86.23C352.575 86.23 353.573 86.4793 354.438 86.978C355.303 87.4767 355.978 88.1807 356.462 89.09C356.961 89.9847 357.21 91.0333 357.21 92.236C357.21 92.324 357.203 92.4267 357.188 92.544C357.188 92.6613 357.181 92.7713 357.166 92.874H347.244V91.356H356.066L355.208 91.884C355.223 91.136 355.069 90.4687 354.746 89.882C354.423 89.2953 353.976 88.8407 353.404 88.518C352.847 88.1807 352.194 88.012 351.446 88.012C350.713 88.012 350.06 88.1807 349.488 88.518C348.916 88.8407 348.469 89.3027 348.146 89.904C347.823 90.4907 347.662 91.1653 347.662 91.928V92.28C347.662 93.0573 347.838 93.754 348.19 94.37C348.557 94.9713 349.063 95.4407 349.708 95.778C350.353 96.1153 351.094 96.284 351.93 96.284C352.619 96.284 353.243 96.1667 353.8 95.932C354.372 95.6973 354.871 95.3453 355.296 94.876L356.462 96.24C355.934 96.856 355.274 97.3253 354.482 97.648C353.705 97.9707 352.832 98.132 351.864 98.132ZM365.225 98.132C364.037 98.132 362.973 97.8753 362.035 97.362C361.111 96.8487 360.385 96.1447 359.857 95.25C359.329 94.3553 359.065 93.3287 359.065 92.17C359.065 91.0113 359.329 89.9847 359.857 89.09C360.385 88.1953 361.111 87.4987 362.035 87C362.973 86.4867 364.037 86.23 365.225 86.23C366.281 86.23 367.219 86.4427 368.041 86.868C368.877 87.2787 369.522 87.8947 369.977 88.716L368.371 89.75C367.989 89.178 367.52 88.76 366.963 88.496C366.42 88.2173 365.833 88.078 365.203 88.078C364.44 88.078 363.758 88.2467 363.157 88.584C362.555 88.9213 362.079 89.398 361.727 90.014C361.375 90.6153 361.199 91.334 361.199 92.17C361.199 93.006 361.375 93.732 361.727 94.348C362.079 94.964 362.555 95.4407 363.157 95.778C363.758 96.1153 364.44 96.284 365.203 96.284C365.833 96.284 366.42 96.152 366.963 95.888C367.52 95.6093 367.989 95.184 368.371 94.612L369.977 95.624C369.522 96.4307 368.877 97.054 368.041 97.494C367.219 97.9193 366.281 98.132 365.225 98.132ZM378.787 86.23C379.74 86.23 380.576 86.4133 381.295 86.78C382.028 87.1467 382.6 87.704 383.011 88.452C383.421 89.2 383.627 90.146 383.627 91.29V98H381.515V91.532C381.515 90.4027 381.236 89.552 380.679 88.98C380.136 88.408 379.366 88.122 378.369 88.122C377.621 88.122 376.968 88.2687 376.411 88.562C375.853 88.8553 375.421 89.288 375.113 89.86C374.819 90.432 374.673 91.1433 374.673 91.994V98H372.561V81.676H374.673V89.486L374.255 88.65C374.636 87.8873 375.223 87.2933 376.015 86.868C376.807 86.4427 377.731 86.23 378.787 86.23ZM394.773 98V95.536L394.663 95.074V90.872C394.663 89.9773 394.399 89.288 393.871 88.804C393.358 88.3053 392.581 88.056 391.539 88.056C390.85 88.056 390.175 88.1733 389.515 88.408C388.855 88.628 388.298 88.9287 387.843 89.31L386.963 87.726C387.565 87.242 388.283 86.8753 389.119 86.626C389.97 86.362 390.857 86.23 391.781 86.23C393.38 86.23 394.612 86.6187 395.477 87.396C396.343 88.1733 396.775 89.3613 396.775 90.96V98H394.773ZM390.945 98.132C390.08 98.132 389.317 97.9853 388.657 97.692C388.012 97.3987 387.513 96.9953 387.161 96.482C386.809 95.954 386.633 95.36 386.633 94.7C386.633 94.0693 386.78 93.4973 387.073 92.984C387.381 92.4707 387.873 92.06 388.547 91.752C389.237 91.444 390.161 91.29 391.319 91.29H395.015V92.808H391.407C390.351 92.808 389.64 92.984 389.273 93.336C388.907 93.688 388.723 94.1133 388.723 94.612C388.723 95.184 388.951 95.646 389.405 95.998C389.86 96.3353 390.491 96.504 391.297 96.504C392.089 96.504 392.779 96.328 393.365 95.976C393.967 95.624 394.399 95.1107 394.663 94.436L395.081 95.888C394.803 96.5773 394.311 97.1273 393.607 97.538C392.903 97.934 392.016 98.132 390.945 98.132ZM406.91 86.23C407.863 86.23 408.699 86.4133 409.418 86.78C410.151 87.1467 410.723 87.704 411.134 88.452C411.544 89.2 411.75 90.146 411.75 91.29V98H409.638V91.532C409.638 90.4027 409.359 89.552 408.802 88.98C408.259 88.408 407.489 88.122 406.492 88.122C405.744 88.122 405.091 88.2687 404.534 88.562C403.976 88.8553 403.544 89.288 403.236 89.86C402.942 90.432 402.796 91.1433 402.796 91.994V98H400.684V86.34H402.708V89.486L402.378 88.65C402.759 87.8873 403.346 87.2933 404.138 86.868C404.93 86.4427 405.854 86.23 406.91 86.23ZM415.658 98V86.34H417.77V98H415.658ZM416.714 84.096C416.304 84.096 415.959 83.964 415.68 83.7C415.416 83.436 415.284 83.1133 415.284 82.732C415.284 82.336 415.416 82.006 415.68 81.742C415.959 81.478 416.304 81.346 416.714 81.346C417.125 81.346 417.462 81.478 417.726 81.742C418.005 81.9913 418.144 82.3067 418.144 82.688C418.144 83.084 418.012 83.4213 417.748 83.7C417.484 83.964 417.14 84.096 416.714 84.096ZM426.885 98.132C425.697 98.132 424.633 97.8753 423.695 97.362C422.771 96.8487 422.045 96.1447 421.517 95.25C420.989 94.3553 420.725 93.3287 420.725 92.17C420.725 91.0113 420.989 89.9847 421.517 89.09C422.045 88.1953 422.771 87.4987 423.695 87C424.633 86.4867 425.697 86.23 426.885 86.23C427.941 86.23 428.879 86.4427 429.701 86.868C430.537 87.2787 431.182 87.8947 431.637 88.716L430.031 89.75C429.649 89.178 429.18 88.76 428.623 88.496C428.08 88.2173 427.493 88.078 426.863 88.078C426.1 88.078 425.418 88.2467 424.817 88.584C424.215 88.9213 423.739 89.398 423.387 90.014C423.035 90.6153 422.859 91.334 422.859 92.17C422.859 93.006 423.035 93.732 423.387 94.348C423.739 94.964 424.215 95.4407 424.817 95.778C425.418 96.1153 426.1 96.284 426.863 96.284C427.493 96.284 428.08 96.152 428.623 95.888C429.18 95.6093 429.649 95.184 430.031 94.612L431.637 95.624C431.182 96.4307 430.537 97.054 429.701 97.494C428.879 97.9193 427.941 98.132 426.885 98.132ZM437.715 98.132C436.747 98.132 435.823 98 434.943 97.736C434.078 97.472 433.396 97.1493 432.897 96.768L433.777 95.096C434.276 95.4333 434.892 95.7193 435.625 95.954C436.358 96.1887 437.106 96.306 437.869 96.306C438.852 96.306 439.556 96.1667 439.981 95.888C440.421 95.6093 440.641 95.2207 440.641 94.722C440.641 94.3553 440.509 94.0693 440.245 93.864C439.981 93.6587 439.629 93.5047 439.189 93.402C438.764 93.2993 438.287 93.2113 437.759 93.138C437.231 93.05 436.703 92.9473 436.175 92.83C435.647 92.698 435.163 92.522 434.723 92.302C434.283 92.0673 433.931 91.752 433.667 91.356C433.403 90.9453 433.271 90.4027 433.271 89.728C433.271 89.024 433.469 88.408 433.865 87.88C434.261 87.352 434.818 86.9487 435.537 86.67C436.27 86.3767 437.136 86.23 438.133 86.23C438.896 86.23 439.666 86.3253 440.443 86.516C441.235 86.692 441.88 86.9487 442.379 87.286L441.477 88.958C440.949 88.606 440.399 88.364 439.827 88.232C439.255 88.1 438.683 88.034 438.111 88.034C437.187 88.034 436.498 88.188 436.043 88.496C435.588 88.7893 435.361 89.1707 435.361 89.64C435.361 90.036 435.493 90.344 435.757 90.564C436.036 90.7693 436.388 90.9307 436.813 91.048C437.253 91.1653 437.737 91.268 438.265 91.356C438.793 91.4293 439.321 91.532 439.849 91.664C440.377 91.7813 440.854 91.95 441.279 92.17C441.719 92.39 442.071 92.698 442.335 93.094C442.614 93.49 442.753 94.018 442.753 94.678C442.753 95.382 442.548 95.9907 442.137 96.504C441.726 97.0173 441.147 97.4207 440.399 97.714C439.651 97.9927 438.756 98.132 437.715 98.132ZM451.609 98V82.6H453.809V96.086H462.147V98H451.609ZM464.363 98V86.34H466.475V98H464.363ZM465.419 84.096C465.009 84.096 464.664 83.964 464.385 83.7C464.121 83.436 463.989 83.1133 463.989 82.732C463.989 82.336 464.121 82.006 464.385 81.742C464.664 81.478 465.009 81.346 465.419 81.346C465.83 81.346 466.167 81.478 466.431 81.742C466.71 81.9913 466.849 82.3067 466.849 82.688C466.849 83.084 466.717 83.4213 466.453 83.7C466.189 83.964 465.845 84.096 465.419 84.096ZM473.566 98L468.462 86.34H470.662L475.194 96.9H474.138L478.758 86.34H480.826L475.722 98H473.566ZM487.667 98.132C486.42 98.132 485.32 97.8753 484.367 97.362C483.428 96.8487 482.695 96.1447 482.167 95.25C481.653 94.3553 481.397 93.3287 481.397 92.17C481.397 91.0113 481.646 89.9847 482.145 89.09C482.658 88.1953 483.355 87.4987 484.235 87C485.129 86.4867 486.134 86.23 487.249 86.23C488.378 86.23 489.375 86.4793 490.241 86.978C491.106 87.4767 491.781 88.1807 492.265 89.09C492.763 89.9847 493.013 91.0333 493.013 92.236C493.013 92.324 493.005 92.4267 492.991 92.544C492.991 92.6613 492.983 92.7713 492.969 92.874H483.047V91.356H491.869L491.011 91.884C491.025 91.136 490.871 90.4687 490.549 89.882C490.226 89.2953 489.779 88.8407 489.207 88.518C488.649 88.1807 487.997 88.012 487.249 88.012C486.515 88.012 485.863 88.1807 485.291 88.518C484.719 88.8407 484.271 89.3027 483.949 89.904C483.626 90.4907 483.465 91.1653 483.465 91.928V92.28C483.465 93.0573 483.641 93.754 483.993 94.37C484.359 94.9713 484.865 95.4407 485.511 95.778C486.156 96.1153 486.897 96.284 487.733 96.284C488.422 96.284 489.045 96.1667 489.603 95.932C490.175 95.6973 490.673 95.3453 491.099 94.876L492.265 96.24C491.737 96.856 491.077 97.3253 490.285 97.648C489.507 97.9707 488.635 98.132 487.667 98.132Z" fill="white"/>
<path d="M189.028 182V176.104L189.534 177.468L182.912 166.6H185.266L190.832 175.774H189.556L195.144 166.6H197.322L190.722 177.468L191.206 176.104V182H189.028ZM198.881 182V170.34H200.993V182H198.881ZM199.937 168.096C199.526 168.096 199.182 167.964 198.903 167.7C198.639 167.436 198.507 167.113 198.507 166.732C198.507 166.336 198.639 166.006 198.903 165.742C199.182 165.478 199.526 165.346 199.937 165.346C200.348 165.346 200.685 165.478 200.949 165.742C201.228 165.991 201.367 166.307 201.367 166.688C201.367 167.084 201.235 167.421 200.971 167.7C200.707 167.964 200.362 168.096 199.937 168.096ZM210.217 182.132C208.971 182.132 207.871 181.875 206.917 181.362C205.979 180.849 205.245 180.145 204.717 179.25C204.204 178.355 203.947 177.329 203.947 176.17C203.947 175.011 204.197 173.985 204.695 173.09C205.209 172.195 205.905 171.499 206.785 171C207.68 170.487 208.685 170.23 209.799 170.23C210.929 170.23 211.926 170.479 212.791 170.978C213.657 171.477 214.331 172.181 214.815 173.09C215.314 173.985 215.563 175.033 215.563 176.236C215.563 176.324 215.556 176.427 215.541 176.544C215.541 176.661 215.534 176.771 215.519 176.874H205.597V175.356H214.419L213.561 175.884C213.576 175.136 213.422 174.469 213.099 173.882C212.777 173.295 212.329 172.841 211.757 172.518C211.2 172.181 210.547 172.012 209.799 172.012C209.066 172.012 208.413 172.181 207.841 172.518C207.269 172.841 206.822 173.303 206.499 173.904C206.177 174.491 206.015 175.165 206.015 175.928V176.28C206.015 177.057 206.191 177.754 206.543 178.37C206.91 178.971 207.416 179.441 208.061 179.778C208.707 180.115 209.447 180.284 210.283 180.284C210.973 180.284 211.596 180.167 212.153 179.932C212.725 179.697 213.224 179.345 213.649 178.876L214.815 180.24C214.287 180.856 213.627 181.325 212.835 181.648C212.058 181.971 211.185 182.132 210.217 182.132ZM218.496 182V165.676H220.608V182H218.496ZM229.459 182.132C228.329 182.132 227.317 181.883 226.423 181.384C225.543 180.885 224.846 180.189 224.333 179.294C223.819 178.399 223.563 177.358 223.563 176.17C223.563 174.982 223.819 173.948 224.333 173.068C224.846 172.173 225.543 171.477 226.423 170.978C227.317 170.479 228.329 170.23 229.459 170.23C230.441 170.23 231.329 170.45 232.121 170.89C232.913 171.33 233.543 171.99 234.013 172.87C234.497 173.75 234.739 174.85 234.739 176.17C234.739 177.49 234.504 178.59 234.035 179.47C233.58 180.35 232.957 181.017 232.165 181.472C231.373 181.912 230.471 182.132 229.459 182.132ZM229.635 180.284C230.368 180.284 231.028 180.115 231.615 179.778C232.216 179.441 232.685 178.964 233.023 178.348C233.375 177.717 233.551 176.991 233.551 176.17C233.551 175.334 233.375 174.615 233.023 174.014C232.685 173.398 232.216 172.921 231.615 172.584C231.028 172.247 230.368 172.078 229.635 172.078C228.887 172.078 228.219 172.247 227.633 172.584C227.046 172.921 226.577 173.398 226.225 174.014C225.873 174.615 225.697 175.334 225.697 176.17C225.697 176.991 225.873 177.717 226.225 178.348C226.577 178.964 227.046 179.441 227.633 179.778C228.219 180.115 228.887 180.284 229.635 180.284ZM233.617 182V178.854L233.749 176.148L233.529 173.442V165.676H235.641V182H233.617ZM251.727 182.132C250.73 182.132 249.828 181.912 249.021 181.472C248.229 181.017 247.598 180.35 247.129 179.47C246.674 178.59 246.447 177.49 246.447 176.17C246.447 174.85 246.682 173.75 247.151 172.87C247.635 171.99 248.273 171.33 249.065 170.89C249.872 170.45 250.759 170.23 251.727 170.23C252.871 170.23 253.883 170.479 254.763 170.978C255.643 171.477 256.34 172.173 256.853 173.068C257.366 173.948 257.623 174.982 257.623 176.17C257.623 177.358 257.366 178.399 256.853 179.294C256.34 180.189 255.643 180.885 254.763 181.384C253.883 181.883 252.871 182.132 251.727 182.132ZM245.545 182V165.676H247.657V173.442L247.437 176.148L247.569 178.854V182H245.545ZM251.551 180.284C252.299 180.284 252.966 180.115 253.553 179.778C254.154 179.441 254.624 178.964 254.961 178.348C255.313 177.717 255.489 176.991 255.489 176.17C255.489 175.334 255.313 174.615 254.961 174.014C254.624 173.398 254.154 172.921 253.553 172.584C252.966 172.247 252.299 172.078 251.551 172.078C250.818 172.078 250.15 172.247 249.549 172.584C248.962 172.921 248.493 173.398 248.141 174.014C247.804 174.615 247.635 175.334 247.635 176.17C247.635 176.991 247.804 177.717 248.141 178.348C248.493 178.964 248.962 179.441 249.549 179.778C250.15 180.115 250.818 180.284 251.551 180.284ZM265.535 182.132C264.362 182.132 263.32 181.875 262.411 181.362C261.502 180.849 260.783 180.145 260.255 179.25C259.727 178.341 259.463 177.314 259.463 176.17C259.463 175.011 259.727 173.985 260.255 173.09C260.783 172.195 261.502 171.499 262.411 171C263.32 170.487 264.362 170.23 265.535 170.23C266.694 170.23 267.728 170.487 268.637 171C269.561 171.499 270.28 172.195 270.793 173.09C271.321 173.97 271.585 174.997 271.585 176.17C271.585 177.329 271.321 178.355 270.793 179.25C270.28 180.145 269.561 180.849 268.637 181.362C267.728 181.875 266.694 182.132 265.535 182.132ZM265.535 180.284C266.283 180.284 266.95 180.115 267.537 179.778C268.138 179.441 268.608 178.964 268.945 178.348C269.282 177.717 269.451 176.991 269.451 176.17C269.451 175.334 269.282 174.615 268.945 174.014C268.608 173.398 268.138 172.921 267.537 172.584C266.95 172.247 266.283 172.078 265.535 172.078C264.787 172.078 264.12 172.247 263.533 172.584C262.946 172.921 262.477 173.398 262.125 174.014C261.773 174.615 261.597 175.334 261.597 176.17C261.597 176.991 261.773 177.717 262.125 178.348C262.477 178.964 262.946 179.441 263.533 179.778C264.12 180.115 264.787 180.284 265.535 180.284ZM272.425 182L277.441 175.488L277.419 176.566L272.645 170.34H274.999L278.651 175.136H277.749L281.401 170.34H283.711L278.871 176.61L278.893 175.488L283.953 182H281.555L277.705 176.896L278.563 177.028L274.779 182H272.425ZM297.27 186.4C296.199 186.4 295.158 186.246 294.146 185.938C293.149 185.645 292.335 185.219 291.704 184.662L292.716 183.034C293.259 183.503 293.926 183.87 294.718 184.134C295.51 184.413 296.339 184.552 297.204 184.552C298.583 184.552 299.595 184.229 300.24 183.584C300.885 182.939 301.208 181.956 301.208 180.636V178.172L301.428 175.862L301.318 173.53V170.34H303.32V180.416C303.32 182.469 302.807 183.98 301.78 184.948C300.753 185.916 299.25 186.4 297.27 186.4ZM297.006 181.516C295.877 181.516 294.865 181.281 293.97 180.812C293.09 180.328 292.386 179.661 291.858 178.81C291.345 177.959 291.088 176.977 291.088 175.862C291.088 174.733 291.345 173.75 291.858 172.914C292.386 172.063 293.09 171.403 293.97 170.934C294.865 170.465 295.877 170.23 297.006 170.23C298.003 170.23 298.913 170.435 299.734 170.846C300.555 171.242 301.208 171.858 301.692 172.694C302.191 173.53 302.44 174.586 302.44 175.862C302.44 177.123 302.191 178.172 301.692 179.008C301.208 179.844 300.555 180.475 299.734 180.9C298.913 181.311 298.003 181.516 297.006 181.516ZM297.248 179.668C298.025 179.668 298.715 179.507 299.316 179.184C299.917 178.861 300.387 178.414 300.724 177.842C301.076 177.27 301.252 176.61 301.252 175.862C301.252 175.114 301.076 174.454 300.724 173.882C300.387 173.31 299.917 172.87 299.316 172.562C298.715 172.239 298.025 172.078 297.248 172.078C296.471 172.078 295.774 172.239 295.158 172.562C294.557 172.87 294.08 173.31 293.728 173.882C293.391 174.454 293.222 175.114 293.222 175.862C293.222 176.61 293.391 177.27 293.728 177.842C294.08 178.414 294.557 178.861 295.158 179.184C295.774 179.507 296.471 179.668 297.248 179.668ZM312.35 182.132C311.176 182.132 310.135 181.875 309.226 181.362C308.316 180.849 307.598 180.145 307.07 179.25C306.542 178.341 306.278 177.314 306.278 176.17C306.278 175.011 306.542 173.985 307.07 173.09C307.598 172.195 308.316 171.499 309.226 171C310.135 170.487 311.176 170.23 312.35 170.23C313.508 170.23 314.542 170.487 315.452 171C316.376 171.499 317.094 172.195 317.608 173.09C318.136 173.97 318.4 174.997 318.4 176.17C318.4 177.329 318.136 178.355 317.608 179.25C317.094 180.145 316.376 180.849 315.452 181.362C314.542 181.875 313.508 182.132 312.35 182.132ZM312.35 180.284C313.098 180.284 313.765 180.115 314.352 179.778C314.953 179.441 315.422 178.964 315.76 178.348C316.097 177.717 316.266 176.991 316.266 176.17C316.266 175.334 316.097 174.615 315.76 174.014C315.422 173.398 314.953 172.921 314.352 172.584C313.765 172.247 313.098 172.078 312.35 172.078C311.602 172.078 310.934 172.247 310.348 172.584C309.761 172.921 309.292 173.398 308.94 174.014C308.588 174.615 308.412 175.334 308.412 176.17C308.412 176.991 308.588 177.717 308.94 178.348C309.292 178.964 309.761 179.441 310.348 179.778C310.934 180.115 311.602 180.284 312.35 180.284ZM326.512 182.132C325.266 182.132 324.166 181.875 323.212 181.362C322.274 180.849 321.54 180.145 321.012 179.25C320.499 178.355 320.242 177.329 320.242 176.17C320.242 175.011 320.492 173.985 320.99 173.09C321.504 172.195 322.2 171.499 323.08 171C323.975 170.487 324.98 170.23 326.094 170.23C327.224 170.23 328.221 170.479 329.086 170.978C329.952 171.477 330.626 172.181 331.11 173.09C331.609 173.985 331.858 175.033 331.858 176.236C331.858 176.324 331.851 176.427 331.836 176.544C331.836 176.661 331.829 176.771 331.814 176.874H321.892V175.356H330.714L329.856 175.884C329.871 175.136 329.717 174.469 329.394 173.882C329.072 173.295 328.624 172.841 328.052 172.518C327.495 172.181 326.842 172.012 326.094 172.012C325.361 172.012 324.708 172.181 324.136 172.518C323.564 172.841 323.117 173.303 322.794 173.904C322.472 174.491 322.31 175.165 322.31 175.928V176.28C322.31 177.057 322.486 177.754 322.838 178.37C323.205 178.971 323.711 179.441 324.356 179.778C325.002 180.115 325.742 180.284 326.578 180.284C327.268 180.284 327.891 180.167 328.448 179.932C329.02 179.697 329.519 179.345 329.944 178.876L331.11 180.24C330.582 180.856 329.922 181.325 329.13 181.648C328.353 181.971 327.48 182.132 326.512 182.132ZM338.135 182.132C337.167 182.132 336.243 182 335.363 181.736C334.498 181.472 333.816 181.149 333.317 180.768L334.197 179.096C334.696 179.433 335.312 179.719 336.045 179.954C336.778 180.189 337.526 180.306 338.289 180.306C339.272 180.306 339.976 180.167 340.401 179.888C340.841 179.609 341.061 179.221 341.061 178.722C341.061 178.355 340.929 178.069 340.665 177.864C340.401 177.659 340.049 177.505 339.609 177.402C339.184 177.299 338.707 177.211 338.179 177.138C337.651 177.05 337.123 176.947 336.595 176.83C336.067 176.698 335.583 176.522 335.143 176.302C334.703 176.067 334.351 175.752 334.087 175.356C333.823 174.945 333.691 174.403 333.691 173.728C333.691 173.024 333.889 172.408 334.285 171.88C334.681 171.352 335.238 170.949 335.957 170.67C336.69 170.377 337.556 170.23 338.553 170.23C339.316 170.23 340.086 170.325 340.863 170.516C341.655 170.692 342.3 170.949 342.799 171.286L341.897 172.958C341.369 172.606 340.819 172.364 340.247 172.232C339.675 172.1 339.103 172.034 338.531 172.034C337.607 172.034 336.918 172.188 336.463 172.496C336.008 172.789 335.781 173.171 335.781 173.64C335.781 174.036 335.913 174.344 336.177 174.564C336.456 174.769 336.808 174.931 337.233 175.048C337.673 175.165 338.157 175.268 338.685 175.356C339.213 175.429 339.741 175.532 340.269 175.664C340.797 175.781 341.274 175.95 341.699 176.17C342.139 176.39 342.491 176.698 342.755 177.094C343.034 177.49 343.173 178.018 343.173 178.678C343.173 179.382 342.968 179.991 342.557 180.504C342.146 181.017 341.567 181.421 340.819 181.714C340.071 181.993 339.176 182.132 338.135 182.132ZM351.721 182V165.676H353.833V182H351.721ZM357.865 182V170.34H359.977V182H357.865ZM358.921 168.096C358.511 168.096 358.166 167.964 357.887 167.7C357.623 167.436 357.491 167.113 357.491 166.732C357.491 166.336 357.623 166.006 357.887 165.742C358.166 165.478 358.511 165.346 358.921 165.346C359.332 165.346 359.669 165.478 359.933 165.742C360.212 165.991 360.351 166.307 360.351 166.688C360.351 167.084 360.219 167.421 359.955 167.7C359.691 167.964 359.347 168.096 358.921 168.096ZM367.068 182L361.964 170.34H364.164L368.696 180.9H367.64L372.26 170.34H374.328L369.224 182H367.068ZM381.169 182.132C379.922 182.132 378.822 181.875 377.869 181.362C376.93 180.849 376.197 180.145 375.669 179.25C375.155 178.355 374.899 177.329 374.899 176.17C374.899 175.011 375.148 173.985 375.647 173.09C376.16 172.195 376.857 171.499 377.737 171C378.631 170.487 379.636 170.23 380.751 170.23C381.88 170.23 382.877 170.479 383.743 170.978C384.608 171.477 385.283 172.181 385.767 173.09C386.265 173.985 386.515 175.033 386.515 176.236C386.515 176.324 386.507 176.427 386.493 176.544C386.493 176.661 386.485 176.771 386.471 176.874H376.549V175.356H385.371L384.513 175.884C384.527 175.136 384.373 174.469 384.051 173.882C383.728 173.295 383.281 172.841 382.709 172.518C382.151 172.181 381.499 172.012 380.751 172.012C380.017 172.012 379.365 172.181 378.793 172.518C378.221 172.841 377.773 173.303 377.451 173.904C377.128 174.491 376.967 175.165 376.967 175.928V176.28C376.967 177.057 377.143 177.754 377.495 178.37C377.861 178.971 378.367 179.441 379.013 179.778C379.658 180.115 380.399 180.284 381.235 180.284C381.924 180.284 382.547 180.167 383.105 179.932C383.677 179.697 384.175 179.345 384.601 178.876L385.767 180.24C385.239 180.856 384.579 181.325 383.787 181.648C383.009 181.971 382.137 182.132 381.169 182.132Z" fill="white"/>
<path d="M185.31 270V254.6H191.316C192.665 254.6 193.817 254.813 194.77 255.238C195.723 255.663 196.457 256.279 196.97 257.086C197.483 257.893 197.74 258.853 197.74 259.968C197.74 261.083 197.483 262.043 196.97 262.85C196.457 263.642 195.723 264.251 194.77 264.676C193.817 265.101 192.665 265.314 191.316 265.314H186.52L187.51 264.302V270H185.31ZM195.606 270L191.69 264.412H194.044L198.004 270H195.606ZM187.51 264.522L186.52 263.444H191.25C192.658 263.444 193.721 263.143 194.44 262.542C195.173 261.926 195.54 261.068 195.54 259.968C195.54 258.868 195.173 258.017 194.44 257.416C193.721 256.815 192.658 256.514 191.25 256.514H186.52L187.51 255.414V264.522ZM205.98 270.132C204.807 270.132 203.766 269.875 202.856 269.362C201.947 268.849 201.228 268.145 200.7 267.25C200.172 266.341 199.908 265.314 199.908 264.17C199.908 263.011 200.172 261.985 200.7 261.09C201.228 260.195 201.947 259.499 202.856 259C203.766 258.487 204.807 258.23 205.98 258.23C207.139 258.23 208.173 258.487 209.082 259C210.006 259.499 210.725 260.195 211.238 261.09C211.766 261.97 212.03 262.997 212.03 264.17C212.03 265.329 211.766 266.355 211.238 267.25C210.725 268.145 210.006 268.849 209.082 269.362C208.173 269.875 207.139 270.132 205.98 270.132ZM205.98 268.284C206.728 268.284 207.396 268.115 207.982 267.778C208.584 267.441 209.053 266.964 209.39 266.348C209.728 265.717 209.896 264.991 209.896 264.17C209.896 263.334 209.728 262.615 209.39 262.014C209.053 261.398 208.584 260.921 207.982 260.584C207.396 260.247 206.728 260.078 205.98 260.078C205.232 260.078 204.565 260.247 203.978 260.584C203.392 260.921 202.922 261.398 202.57 262.014C202.218 262.615 202.042 263.334 202.042 264.17C202.042 264.991 202.218 265.717 202.57 266.348C202.922 266.964 203.392 267.441 203.978 267.778C204.565 268.115 205.232 268.284 205.98 268.284ZM215.135 274.4C214.578 274.4 214.035 274.305 213.507 274.114C212.979 273.938 212.524 273.674 212.143 273.322L213.045 271.738C213.338 272.017 213.661 272.229 214.013 272.376C214.365 272.523 214.739 272.596 215.135 272.596C215.648 272.596 216.074 272.464 216.411 272.2C216.748 271.936 217.064 271.467 217.357 270.792L218.083 269.186L218.303 268.922L222.879 258.34H224.947L219.293 271.166C218.956 271.987 218.574 272.633 218.149 273.102C217.738 273.571 217.284 273.901 216.785 274.092C216.286 274.297 215.736 274.4 215.135 274.4ZM217.907 270.374L212.583 258.34H214.783L219.315 268.724L217.907 270.374ZM233.791 270V267.536L233.681 267.074V262.872C233.681 261.977 233.417 261.288 232.889 260.804C232.375 260.305 231.598 260.056 230.557 260.056C229.867 260.056 229.193 260.173 228.533 260.408C227.873 260.628 227.315 260.929 226.861 261.31L225.981 259.726C226.582 259.242 227.301 258.875 228.137 258.626C228.987 258.362 229.875 258.23 230.799 258.23C232.397 258.23 233.629 258.619 234.495 259.396C235.36 260.173 235.793 261.361 235.793 262.96V270H233.791ZM229.963 270.132C229.097 270.132 228.335 269.985 227.675 269.692C227.029 269.399 226.531 268.995 226.179 268.482C225.827 267.954 225.651 267.36 225.651 266.7C225.651 266.069 225.797 265.497 226.091 264.984C226.399 264.471 226.89 264.06 227.565 263.752C228.254 263.444 229.178 263.29 230.337 263.29H234.033V264.808H230.425C229.369 264.808 228.657 264.984 228.291 265.336C227.924 265.688 227.741 266.113 227.741 266.612C227.741 267.184 227.968 267.646 228.423 267.998C228.877 268.335 229.508 268.504 230.315 268.504C231.107 268.504 231.796 268.328 232.383 267.976C232.984 267.624 233.417 267.111 233.681 266.436L234.099 267.888C233.82 268.577 233.329 269.127 232.625 269.538C231.921 269.934 231.033 270.132 229.963 270.132ZM239.701 270V253.676H241.813V270H239.701ZM250.151 270.132C248.977 270.132 248.068 269.817 247.423 269.186C246.777 268.555 246.455 267.653 246.455 266.48V255.788H248.567V266.392C248.567 267.023 248.721 267.507 249.029 267.844C249.351 268.181 249.806 268.35 250.393 268.35C251.053 268.35 251.603 268.167 252.043 267.8L252.703 269.318C252.38 269.597 251.991 269.802 251.537 269.934C251.097 270.066 250.635 270.132 250.151 270.132ZM244.475 260.078V258.34H251.911V260.078H244.475ZM255.547 274.4C254.99 274.4 254.447 274.305 253.919 274.114C253.391 273.938 252.936 273.674 252.555 273.322L253.457 271.738C253.75 272.017 254.073 272.229 254.425 272.376C254.777 272.523 255.151 272.596 255.547 272.596C256.06 272.596 256.486 272.464 256.823 272.2C257.16 271.936 257.476 271.467 257.769 270.792L258.495 269.186L258.715 268.922L263.291 258.34H265.359L259.705 271.166C259.368 271.987 258.986 272.633 258.561 273.102C258.15 273.571 257.696 273.901 257.197 274.092C256.698 274.297 256.148 274.4 255.547 274.4ZM258.319 270.374L252.995 258.34H255.195L259.727 268.724L258.319 270.374ZM278.056 270.132C276.927 270.132 275.915 269.883 275.02 269.384C274.14 268.885 273.444 268.189 272.93 267.294C272.417 266.399 272.16 265.358 272.16 264.17C272.16 262.982 272.417 261.948 272.93 261.068C273.444 260.173 274.14 259.477 275.02 258.978C275.915 258.479 276.927 258.23 278.056 258.23C279.039 258.23 279.926 258.45 280.718 258.89C281.51 259.33 282.141 259.99 282.61 260.87C283.094 261.75 283.336 262.85 283.336 264.17C283.336 265.49 283.102 266.59 282.632 267.47C282.178 268.35 281.554 269.017 280.762 269.472C279.97 269.912 279.068 270.132 278.056 270.132ZM278.232 268.284C278.966 268.284 279.626 268.115 280.212 267.778C280.814 267.441 281.283 266.964 281.62 266.348C281.972 265.717 282.148 264.991 282.148 264.17C282.148 263.334 281.972 262.615 281.62 262.014C281.283 261.398 280.814 260.921 280.212 260.584C279.626 260.247 278.966 260.078 278.232 260.078C277.484 260.078 276.817 260.247 276.23 260.584C275.644 260.921 275.174 261.398 274.822 262.014C274.47 262.615 274.294 263.334 274.294 264.17C274.294 264.991 274.47 265.717 274.822 266.348C275.174 266.964 275.644 267.441 276.23 267.778C276.817 268.115 277.484 268.284 278.232 268.284ZM282.214 270V266.854L282.346 264.148L282.126 261.442V253.676H284.238V270H282.214ZM288.234 270V258.34H290.346V270H288.234ZM289.29 256.096C288.88 256.096 288.535 255.964 288.256 255.7C287.992 255.436 287.86 255.113 287.86 254.732C287.86 254.336 287.992 254.006 288.256 253.742C288.535 253.478 288.88 253.346 289.29 253.346C289.701 253.346 290.038 253.478 290.302 253.742C290.581 253.991 290.72 254.307 290.72 254.688C290.72 255.084 290.588 255.421 290.324 255.7C290.06 255.964 289.716 256.096 289.29 256.096ZM297.723 270.132C296.755 270.132 295.831 270 294.951 269.736C294.086 269.472 293.404 269.149 292.905 268.768L293.785 267.096C294.284 267.433 294.9 267.719 295.633 267.954C296.366 268.189 297.114 268.306 297.877 268.306C298.86 268.306 299.564 268.167 299.989 267.888C300.429 267.609 300.649 267.221 300.649 266.722C300.649 266.355 300.517 266.069 300.253 265.864C299.989 265.659 299.637 265.505 299.197 265.402C298.772 265.299 298.295 265.211 297.767 265.138C297.239 265.05 296.711 264.947 296.183 264.83C295.655 264.698 295.171 264.522 294.731 264.302C294.291 264.067 293.939 263.752 293.675 263.356C293.411 262.945 293.279 262.403 293.279 261.728C293.279 261.024 293.477 260.408 293.873 259.88C294.269 259.352 294.826 258.949 295.545 258.67C296.278 258.377 297.144 258.23 298.141 258.23C298.904 258.23 299.674 258.325 300.451 258.516C301.243 258.692 301.888 258.949 302.387 259.286L301.485 260.958C300.957 260.606 300.407 260.364 299.835 260.232C299.263 260.1 298.691 260.034 298.119 260.034C297.195 260.034 296.506 260.188 296.051 260.496C295.596 260.789 295.369 261.171 295.369 261.64C295.369 262.036 295.501 262.344 295.765 262.564C296.044 262.769 296.396 262.931 296.821 263.048C297.261 263.165 297.745 263.268 298.273 263.356C298.801 263.429 299.329 263.532 299.857 263.664C300.385 263.781 300.862 263.95 301.287 264.17C301.727 264.39 302.079 264.698 302.343 265.094C302.622 265.49 302.761 266.018 302.761 266.678C302.761 267.382 302.556 267.991 302.145 268.504C301.734 269.017 301.155 269.421 300.407 269.714C299.659 269.993 298.764 270.132 297.723 270.132ZM309.404 270.132C308.231 270.132 307.322 269.817 306.676 269.186C306.031 268.555 305.708 267.653 305.708 266.48V255.788H307.82V266.392C307.82 267.023 307.974 267.507 308.282 267.844C308.605 268.181 309.06 268.35 309.646 268.35C310.306 268.35 310.856 268.167 311.296 267.8L311.956 269.318C311.634 269.597 311.245 269.802 310.79 269.934C310.35 270.066 309.888 270.132 309.404 270.132ZM303.728 260.078V258.34H311.164V260.078H303.728ZM314.51 270V258.34H316.534V261.508L316.336 260.716C316.658 259.909 317.201 259.293 317.964 258.868C318.726 258.443 319.665 258.23 320.78 258.23V260.276C320.692 260.261 320.604 260.254 320.516 260.254C320.442 260.254 320.369 260.254 320.296 260.254C319.166 260.254 318.272 260.591 317.612 261.266C316.952 261.941 316.622 262.916 316.622 264.192V270H314.51ZM323.383 270V258.34H325.495V270H323.383ZM324.439 256.096C324.028 256.096 323.684 255.964 323.405 255.7C323.141 255.436 323.009 255.113 323.009 254.732C323.009 254.336 323.141 254.006 323.405 253.742C323.684 253.478 324.028 253.346 324.439 253.346C324.85 253.346 325.187 253.478 325.451 253.742C325.73 253.991 325.869 254.307 325.869 254.688C325.869 255.084 325.737 255.421 325.473 255.7C325.209 255.964 324.864 256.096 324.439 256.096ZM335.709 270.132C334.712 270.132 333.81 269.912 333.003 269.472C332.211 269.017 331.581 268.35 331.111 267.47C330.657 266.59 330.429 265.49 330.429 264.17C330.429 262.85 330.664 261.75 331.133 260.87C331.617 259.99 332.255 259.33 333.047 258.89C333.854 258.45 334.741 258.23 335.709 258.23C336.853 258.23 337.865 258.479 338.745 258.978C339.625 259.477 340.322 260.173 340.835 261.068C341.349 261.948 341.605 262.982 341.605 264.17C341.605 265.358 341.349 266.399 340.835 267.294C340.322 268.189 339.625 268.885 338.745 269.384C337.865 269.883 336.853 270.132 335.709 270.132ZM329.527 270V253.676H331.639V261.442L331.419 264.148L331.551 266.854V270H329.527ZM335.533 268.284C336.281 268.284 336.949 268.115 337.535 267.778C338.137 267.441 338.606 266.964 338.943 266.348C339.295 265.717 339.471 264.991 339.471 264.17C339.471 263.334 339.295 262.615 338.943 262.014C338.606 261.398 338.137 260.921 337.535 260.584C336.949 260.247 336.281 260.078 335.533 260.078C334.8 260.078 334.133 260.247 333.531 260.584C332.945 260.921 332.475 261.398 332.123 262.014C331.786 262.615 331.617 263.334 331.617 264.17C331.617 264.991 331.786 265.717 332.123 266.348C332.475 266.964 332.945 267.441 333.531 267.778C334.133 268.115 334.8 268.284 335.533 268.284ZM349.429 270.132C348.432 270.132 347.552 269.949 346.789 269.582C346.041 269.215 345.455 268.658 345.029 267.91C344.619 267.147 344.413 266.194 344.413 265.05V258.34H346.525V264.808C346.525 265.952 346.797 266.81 347.339 267.382C347.897 267.954 348.674 268.24 349.671 268.24C350.405 268.24 351.043 268.093 351.585 267.8C352.128 267.492 352.546 267.052 352.839 266.48C353.133 265.893 353.279 265.189 353.279 264.368V258.34H355.391V270H353.389V266.854L353.719 267.69C353.338 268.467 352.766 269.069 352.003 269.494C351.241 269.919 350.383 270.132 349.429 270.132ZM363.416 270.132C362.243 270.132 361.333 269.817 360.688 269.186C360.043 268.555 359.72 267.653 359.72 266.48V255.788H361.832V266.392C361.832 267.023 361.986 267.507 362.294 267.844C362.617 268.181 363.071 268.35 363.658 268.35C364.318 268.35 364.868 268.167 365.308 267.8L365.968 269.318C365.645 269.597 365.257 269.802 364.802 269.934C364.362 270.066 363.9 270.132 363.416 270.132ZM357.74 260.078V258.34H365.176V260.078H357.74ZM368.522 270V258.34H370.634V270H368.522ZM369.578 256.096C369.167 256.096 368.822 255.964 368.544 255.7C368.28 255.436 368.148 255.113 368.148 254.732C368.148 254.336 368.28 254.006 368.544 253.742C368.822 253.478 369.167 253.346 369.578 253.346C369.988 253.346 370.326 253.478 370.59 253.742C370.868 253.991 371.008 254.307 371.008 254.688C371.008 255.084 370.876 255.421 370.612 255.7C370.348 255.964 370.003 256.096 369.578 256.096ZM379.66 270.132C378.487 270.132 377.445 269.875 376.536 269.362C375.627 268.849 374.908 268.145 374.38 267.25C373.852 266.341 373.588 265.314 373.588 264.17C373.588 263.011 373.852 261.985 374.38 261.09C374.908 260.195 375.627 259.499 376.536 259C377.445 258.487 378.487 258.23 379.66 258.23C380.819 258.23 381.853 258.487 382.762 259C383.686 259.499 384.405 260.195 384.918 261.09C385.446 261.97 385.71 262.997 385.71 264.17C385.71 265.329 385.446 266.355 384.918 267.25C384.405 268.145 383.686 268.849 382.762 269.362C381.853 269.875 380.819 270.132 379.66 270.132ZM379.66 268.284C380.408 268.284 381.075 268.115 381.662 267.778C382.263 267.441 382.733 266.964 383.07 266.348C383.407 265.717 383.576 264.991 383.576 264.17C383.576 263.334 383.407 262.615 383.07 262.014C382.733 261.398 382.263 260.921 381.662 260.584C381.075 260.247 380.408 260.078 379.66 260.078C378.912 260.078 378.245 260.247 377.658 260.584C377.071 260.921 376.602 261.398 376.25 262.014C375.898 262.615 375.722 263.334 375.722 264.17C375.722 264.991 375.898 265.717 376.25 266.348C376.602 266.964 377.071 267.441 377.658 267.778C378.245 268.115 378.912 268.284 379.66 268.284ZM394.857 258.23C395.81 258.23 396.646 258.413 397.365 258.78C398.098 259.147 398.67 259.704 399.081 260.452C399.492 261.2 399.697 262.146 399.697 263.29V270H397.585V263.532C397.585 262.403 397.306 261.552 396.749 260.98C396.206 260.408 395.436 260.122 394.439 260.122C393.691 260.122 393.038 260.269 392.481 260.562C391.924 260.855 391.491 261.288 391.183 261.86C390.89 262.432 390.743 263.143 390.743 263.994V270H388.631V258.34H390.655V261.486L390.325 260.65C390.706 259.887 391.293 259.293 392.085 258.868C392.877 258.443 393.801 258.23 394.857 258.23ZM412.858 270.132C411.89 270.132 410.966 270 410.086 269.736C409.22 269.472 408.538 269.149 408.04 268.768L408.92 267.096C409.418 267.433 410.034 267.719 410.768 267.954C411.501 268.189 412.249 268.306 413.012 268.306C413.994 268.306 414.698 268.167 415.124 267.888C415.564 267.609 415.784 267.221 415.784 266.722C415.784 266.355 415.652 266.069 415.388 265.864C415.124 265.659 414.772 265.505 414.332 265.402C413.906 265.299 413.43 265.211 412.902 265.138C412.374 265.05 411.846 264.947 411.318 264.83C410.79 264.698 410.306 264.522 409.866 264.302C409.426 264.067 409.074 263.752 408.81 263.356C408.546 262.945 408.414 262.403 408.414 261.728C408.414 261.024 408.612 260.408 409.008 259.88C409.404 259.352 409.961 258.949 410.68 258.67C411.413 258.377 412.278 258.23 413.276 258.23C414.038 258.23 414.808 258.325 415.586 258.516C416.378 258.692 417.023 258.949 417.522 259.286L416.62 260.958C416.092 260.606 415.542 260.364 414.97 260.232C414.398 260.1 413.826 260.034 413.254 260.034C412.33 260.034 411.64 260.188 411.186 260.496C410.731 260.789 410.504 261.171 410.504 261.64C410.504 262.036 410.636 262.344 410.9 262.564C411.178 262.769 411.53 262.931 411.956 263.048C412.396 263.165 412.88 263.268 413.408 263.356C413.936 263.429 414.464 263.532 414.992 263.664C415.52 263.781 415.996 263.95 416.422 264.17C416.862 264.39 417.214 264.698 417.478 265.094C417.756 265.49 417.896 266.018 417.896 266.678C417.896 267.382 417.69 267.991 417.28 268.504C416.869 269.017 416.29 269.421 415.542 269.714C414.794 269.993 413.899 270.132 412.858 270.132ZM424.539 270.132C423.366 270.132 422.457 269.817 421.811 269.186C421.166 268.555 420.843 267.653 420.843 266.48V255.788H422.955V266.392C422.955 267.023 423.109 267.507 423.417 267.844C423.74 268.181 424.195 268.35 424.781 268.35C425.441 268.35 425.991 268.167 426.431 267.8L427.091 269.318C426.769 269.597 426.38 269.802 425.925 269.934C425.485 270.066 425.023 270.132 424.539 270.132ZM418.863 260.078V258.34H426.299V260.078H418.863ZM436.883 270V267.536L436.773 267.074V262.872C436.773 261.977 436.509 261.288 435.981 260.804C435.467 260.305 434.69 260.056 433.649 260.056C432.959 260.056 432.285 260.173 431.625 260.408C430.965 260.628 430.407 260.929 429.953 261.31L429.073 259.726C429.674 259.242 430.393 258.875 431.229 258.626C432.079 258.362 432.967 258.23 433.891 258.23C435.489 258.23 436.721 258.619 437.587 259.396C438.452 260.173 438.885 261.361 438.885 262.96V270H436.883ZM433.055 270.132C432.189 270.132 431.427 269.985 430.767 269.692C430.121 269.399 429.623 268.995 429.271 268.482C428.919 267.954 428.743 267.36 428.743 266.7C428.743 266.069 428.889 265.497 429.183 264.984C429.491 264.471 429.982 264.06 430.657 263.752C431.346 263.444 432.27 263.29 433.429 263.29H437.125V264.808H433.517C432.461 264.808 431.749 264.984 431.383 265.336C431.016 265.688 430.833 266.113 430.833 266.612C430.833 267.184 431.06 267.646 431.515 267.998C431.969 268.335 432.6 268.504 433.407 268.504C434.199 268.504 434.888 268.328 435.475 267.976C436.076 267.624 436.509 267.111 436.773 266.436L437.191 267.888C436.912 268.577 436.421 269.127 435.717 269.538C435.013 269.934 434.125 270.132 433.055 270.132ZM442.793 270V258.34H444.817V261.508L444.619 260.716C444.942 259.909 445.484 259.293 446.247 258.868C447.01 258.443 447.948 258.23 449.063 258.23V260.276C448.975 260.261 448.887 260.254 448.799 260.254C448.726 260.254 448.652 260.254 448.579 260.254C447.45 260.254 446.555 260.591 445.895 261.266C445.235 261.941 444.905 262.916 444.905 264.192V270H442.793ZM456.143 270.132C454.969 270.132 454.06 269.817 453.415 269.186C452.769 268.555 452.447 267.653 452.447 266.48V255.788H454.559V266.392C454.559 267.023 454.713 267.507 455.021 267.844C455.343 268.181 455.798 268.35 456.385 268.35C457.045 268.35 457.595 268.167 458.035 267.8L458.695 269.318C458.372 269.597 457.983 269.802 457.529 269.934C457.089 270.066 456.627 270.132 456.143 270.132ZM450.467 260.078V258.34H457.903V260.078H450.467ZM464.592 270.132C463.624 270.132 462.7 270 461.82 269.736C460.955 269.472 460.273 269.149 459.774 268.768L460.654 267.096C461.153 267.433 461.769 267.719 462.502 267.954C463.235 268.189 463.983 268.306 464.746 268.306C465.729 268.306 466.433 268.167 466.858 267.888C467.298 267.609 467.518 267.221 467.518 266.722C467.518 266.355 467.386 266.069 467.122 265.864C466.858 265.659 466.506 265.505 466.066 265.402C465.641 265.299 465.164 265.211 464.636 265.138C464.108 265.05 463.58 264.947 463.052 264.83C462.524 264.698 462.04 264.522 461.6 264.302C461.16 264.067 460.808 263.752 460.544 263.356C460.28 262.945 460.148 262.403 460.148 261.728C460.148 261.024 460.346 260.408 460.742 259.88C461.138 259.352 461.695 258.949 462.414 258.67C463.147 258.377 464.013 258.23 465.01 258.23C465.773 258.23 466.543 258.325 467.32 258.516C468.112 258.692 468.757 258.949 469.256 259.286L468.354 260.958C467.826 260.606 467.276 260.364 466.704 260.232C466.132 260.1 465.56 260.034 464.988 260.034C464.064 260.034 463.375 260.188 462.92 260.496C462.465 260.789 462.238 261.171 462.238 261.64C462.238 262.036 462.37 262.344 462.634 262.564C462.913 262.769 463.265 262.931 463.69 263.048C464.13 263.165 464.614 263.268 465.142 263.356C465.67 263.429 466.198 263.532 466.726 263.664C467.254 263.781 467.731 263.95 468.156 264.17C468.596 264.39 468.948 264.698 469.212 265.094C469.491 265.49 469.63 266.018 469.63 266.678C469.63 267.382 469.425 267.991 469.014 268.504C468.603 269.017 468.024 269.421 467.276 269.714C466.528 269.993 465.633 270.132 464.592 270.132Z" fill="white"/>
<defs>
<linearGradient id="paint0_linear_303_28" x1="2" y1="156.83" x2="744" y2="156.83" gradientUnits="userSpaceOnUse">
<stop stop-color="#A1A8E1"/>
<stop offset="1" stop-color="#3B48B9"/>
</linearGradient>
</defs>
</svg>
