<svg width="742" height="322" viewBox="0 0 742 322" fill="none" xmlns="http://www.w3.org/2000/svg">
<path d="M1.37912 21.6622C0.636388 9.99595 10.0146 0.182206 21.7025 0.394857L721.319 13.1237C732.627 13.3295 741.514 22.8622 740.929 34.1563L726.984 303.036C726.432 313.665 717.654 322 707.01 322H39.2672C28.7149 322 19.9781 313.802 19.3076 303.271L1.37912 21.6622Z" fill="url(#paint0_linear_2_232)"/>
<path d="M38.158 74V55.8H46.036C47.6653 55.8 49.0693 56.0687 50.248 56.606C51.4267 57.126 52.3367 57.88 52.978 58.868C53.6193 59.856 53.94 61.0347 53.94 62.404C53.94 63.756 53.6193 64.926 52.978 65.914C52.3367 66.902 51.4267 67.6647 50.248 68.202C49.0693 68.722 47.6653 68.982 46.036 68.982H40.498L42.37 67.084V74H38.158ZM42.37 67.552L40.498 65.55H45.802C47.102 65.55 48.0727 65.2727 48.714 64.718C49.3553 64.1633 49.676 63.392 49.676 62.404C49.676 61.3987 49.3553 60.6187 48.714 60.064C48.0727 59.5093 47.102 59.232 45.802 59.232H40.498L42.37 57.23V67.552ZM69.4271 55.8H73.6391V74H69.4271V55.8ZM61.1591 74H56.9471V55.8H61.1591V74ZM69.7391 66.538H60.8471V62.976H69.7391V66.538ZM75.5531 74L83.6651 55.8H87.8251L95.9631 74H91.5431L84.8871 57.932H86.5511L79.8691 74H75.5531ZM79.6091 70.1L80.7271 66.902H90.0871L91.2311 70.1H79.6091ZM103.831 74.312C102.375 74.312 100.98 74.1213 99.6454 73.74C98.3107 73.3413 97.236 72.83 96.4214 72.206L97.8514 69.034C98.6314 69.5887 99.55 70.048 100.607 70.412C101.682 70.7587 102.765 70.932 103.857 70.932C104.689 70.932 105.357 70.854 105.859 70.698C106.379 70.5247 106.761 70.2907 107.003 69.996C107.246 69.7013 107.367 69.3633 107.367 68.982C107.367 68.4967 107.177 68.1153 106.795 67.838C106.414 67.5433 105.911 67.3093 105.287 67.136C104.663 66.9453 103.97 66.772 103.207 66.616C102.462 66.4427 101.708 66.2347 100.945 65.992C100.2 65.7493 99.5154 65.4373 98.8914 65.056C98.2674 64.6747 97.756 64.172 97.3574 63.548C96.976 62.924 96.7854 62.1267 96.7854 61.156C96.7854 60.116 97.0627 59.1713 97.6174 58.322C98.1894 57.4553 99.0387 56.7707 100.165 56.268C101.309 55.748 102.739 55.488 104.455 55.488C105.599 55.488 106.726 55.6267 107.835 55.904C108.945 56.164 109.924 56.5627 110.773 57.1L109.473 60.298C108.624 59.8127 107.775 59.4573 106.925 59.232C106.076 58.9893 105.244 58.868 104.429 58.868C103.615 58.868 102.947 58.9633 102.427 59.154C101.907 59.3447 101.535 59.596 101.309 59.908C101.084 60.2027 100.971 60.5493 100.971 60.948C100.971 61.416 101.162 61.7973 101.543 62.092C101.925 62.3693 102.427 62.5947 103.051 62.768C103.675 62.9413 104.36 63.1147 105.105 63.288C105.868 63.4613 106.622 63.6607 107.367 63.886C108.13 64.1113 108.823 64.4147 109.447 64.796C110.071 65.1773 110.574 65.68 110.955 66.304C111.354 66.928 111.553 67.7167 111.553 68.67C111.553 69.6927 111.267 70.6287 110.695 71.478C110.123 72.3273 109.265 73.012 108.121 73.532C106.995 74.052 105.565 74.312 103.831 74.312ZM118.305 63.132H127.067V66.408H118.305V63.132ZM118.617 70.62H128.523V74H114.431V55.8H128.185V59.18H118.617V70.62ZM143.996 74.312C142.731 74.312 141.474 74.1473 140.226 73.818C138.978 73.4713 137.921 72.986 137.054 72.362L138.692 69.138C139.385 69.6407 140.191 70.0393 141.11 70.334C142.029 70.6287 142.956 70.776 143.892 70.776C144.949 70.776 145.781 70.568 146.388 70.152C146.995 69.736 147.298 69.164 147.298 68.436C147.298 67.7427 147.029 67.1967 146.492 66.798C145.955 66.3993 145.088 66.2 143.892 66.2H141.968V63.418L147.038 57.672L147.506 59.18H137.964V55.8H150.704V58.53L145.66 64.276L143.528 63.054H144.75C146.986 63.054 148.676 63.5567 149.82 64.562C150.964 65.5673 151.536 66.8587 151.536 68.436C151.536 69.4587 151.267 70.4207 150.73 71.322C150.193 72.206 149.369 72.9253 148.26 73.48C147.151 74.0347 145.729 74.312 143.996 74.312Z" fill="white"/>
<path d="M37.992 122V105.2H41.208L48.36 117.056H46.656L53.688 105.2H56.88L56.928 122H53.28L53.256 110.792H53.928L48.312 120.224H46.56L40.824 110.792H41.64V122H37.992ZM68.5699 122V119.48L68.3299 118.928V114.416C68.3299 113.616 68.0819 112.992 67.5859 112.544C67.1059 112.096 66.3619 111.872 65.3539 111.872C64.6659 111.872 63.9859 111.984 63.3139 112.208C62.6579 112.416 62.0979 112.704 61.6339 113.072L60.2899 110.456C60.9939 109.96 61.8419 109.576 62.8339 109.304C63.8259 109.032 64.8339 108.896 65.8579 108.896C67.8259 108.896 69.3539 109.36 70.4419 110.288C71.5299 111.216 72.0739 112.664 72.0739 114.632V122H68.5699ZM64.6339 122.192C63.6259 122.192 62.7619 122.024 62.0419 121.688C61.3219 121.336 60.7699 120.864 60.3859 120.272C60.0019 119.68 59.8099 119.016 59.8099 118.28C59.8099 117.512 59.9939 116.84 60.3619 116.264C60.7459 115.688 61.3459 115.24 62.1619 114.92C62.9779 114.584 64.0419 114.416 65.3539 114.416H68.7859V116.6H65.7619C64.8819 116.6 64.2739 116.744 63.9379 117.032C63.6179 117.32 63.4579 117.68 63.4579 118.112C63.4579 118.592 63.6419 118.976 64.0099 119.264C64.3939 119.536 64.9139 119.672 65.5699 119.672C66.1939 119.672 66.7539 119.528 67.2499 119.24C67.7459 118.936 68.1059 118.496 68.3299 117.92L68.9059 119.648C68.6339 120.48 68.1379 121.112 67.4179 121.544C66.6979 121.976 65.7699 122.192 64.6339 122.192ZM76.86 126.848C76.188 126.848 75.524 126.744 74.868 126.536C74.212 126.328 73.676 126.04 73.26 125.672L74.628 123.008C74.916 123.264 75.244 123.464 75.612 123.608C75.996 123.752 76.372 123.824 76.74 123.824C77.268 123.824 77.684 123.696 77.988 123.44C78.308 123.2 78.596 122.792 78.852 122.216L79.524 120.632L79.812 120.224L84.444 109.088H88.044L82.212 122.792C81.796 123.832 81.316 124.648 80.772 125.24C80.244 125.832 79.652 126.248 78.996 126.488C78.356 126.728 77.644 126.848 76.86 126.848ZM79.068 122.504L73.308 109.088H77.172L81.636 119.888L79.068 122.504Z" fill="white"/>
<rect x="165" y="58" width="534" height="65" rx="10" fill="#757575" fill-opacity="0.4"/>
<rect x="160" y="142" width="534" height="65" rx="10" fill="#757575" fill-opacity="0.4"/>
<rect x="158" y="226" width="534" height="65" rx="10" fill="#757575" fill-opacity="0.4"/>
<path d="M183.31 99V83.6H185.114L192.022 95.238H191.054L197.874 83.6H199.678L199.7 99H197.588L197.566 86.922H198.072L192 97.13H190.988L184.872 86.922H185.422V99H183.31ZM204.014 99V87.34H206.126V99H204.014ZM205.07 85.096C204.659 85.096 204.314 84.964 204.036 84.7C203.772 84.436 203.64 84.1133 203.64 83.732C203.64 83.336 203.772 83.006 204.036 82.742C204.314 82.478 204.659 82.346 205.07 82.346C205.48 82.346 205.818 82.478 206.082 82.742C206.36 82.9913 206.5 83.3067 206.5 83.688C206.5 84.084 206.368 84.4213 206.104 84.7C205.84 84.964 205.495 85.096 205.07 85.096ZM216.384 87.23C217.338 87.23 218.174 87.4133 218.892 87.78C219.626 88.1467 220.198 88.704 220.608 89.452C221.019 90.2 221.224 91.146 221.224 92.29V99H219.112V92.532C219.112 91.4027 218.834 90.552 218.276 89.98C217.734 89.408 216.964 89.122 215.966 89.122C215.218 89.122 214.566 89.2687 214.008 89.562C213.451 89.8553 213.018 90.288 212.71 90.86C212.417 91.432 212.27 92.1433 212.27 92.994V99H210.158V87.34H212.182V90.486L211.852 89.65C212.234 88.8873 212.82 88.2933 213.612 87.868C214.404 87.4427 215.328 87.23 216.384 87.23ZM229.137 99.132C227.964 99.132 227.054 98.8167 226.409 98.186C225.764 97.5553 225.441 96.6533 225.441 95.48V84.788H227.553V95.392C227.553 96.0227 227.707 96.5067 228.015 96.844C228.338 97.1813 228.792 97.35 229.379 97.35C230.039 97.35 230.589 97.1667 231.029 96.8L231.689 98.318C231.366 98.5967 230.978 98.802 230.523 98.934C230.083 99.066 229.621 99.132 229.137 99.132ZM223.461 89.078V87.34H230.897V89.078H223.461ZM234.242 99V87.34H236.354V99H234.242ZM235.298 85.096C234.888 85.096 234.543 84.964 234.264 84.7C234 84.436 233.868 84.1133 233.868 83.732C233.868 83.336 234 83.006 234.264 82.742C234.543 82.478 234.888 82.346 235.298 82.346C235.709 82.346 236.046 82.478 236.31 82.742C236.589 82.9913 236.728 83.3067 236.728 83.688C236.728 84.084 236.596 84.4213 236.332 84.7C236.068 84.964 235.724 85.096 235.298 85.096ZM246.613 87.23C247.566 87.23 248.402 87.4133 249.121 87.78C249.854 88.1467 250.426 88.704 250.837 89.452C251.247 90.2 251.453 91.146 251.453 92.29V99H249.341V92.532C249.341 91.4027 249.062 90.552 248.505 89.98C247.962 89.408 247.192 89.122 246.195 89.122C245.447 89.122 244.794 89.2687 244.237 89.562C243.679 89.8553 243.247 90.288 242.939 90.86C242.645 91.432 242.499 92.1433 242.499 92.994V99H240.387V87.34H242.411V90.486L242.081 89.65C242.462 88.8873 243.049 88.2933 243.841 87.868C244.633 87.4427 245.557 87.23 246.613 87.23ZM260.465 103.4C259.395 103.4 258.353 103.246 257.341 102.938C256.344 102.645 255.53 102.219 254.899 101.662L255.911 100.034C256.454 100.503 257.121 100.87 257.913 101.134C258.705 101.413 259.534 101.552 260.399 101.552C261.778 101.552 262.79 101.229 263.435 100.584C264.081 99.9387 264.403 98.956 264.403 97.636V95.172L264.623 92.862L264.513 90.53V87.34H266.515V97.416C266.515 99.4693 266.002 100.98 264.975 101.948C263.949 102.916 262.445 103.4 260.465 103.4ZM260.201 98.516C259.072 98.516 258.06 98.2813 257.165 97.812C256.285 97.328 255.581 96.6607 255.053 95.81C254.54 94.9593 254.283 93.9767 254.283 92.862C254.283 91.7327 254.54 90.75 255.053 89.914C255.581 89.0633 256.285 88.4033 257.165 87.934C258.06 87.4647 259.072 87.23 260.201 87.23C261.199 87.23 262.108 87.4353 262.929 87.846C263.751 88.242 264.403 88.858 264.887 89.694C265.386 90.53 265.635 91.586 265.635 92.862C265.635 94.1233 265.386 95.172 264.887 96.008C264.403 96.844 263.751 97.4747 262.929 97.9C262.108 98.3107 261.199 98.516 260.201 98.516ZM260.443 96.668C261.221 96.668 261.91 96.5067 262.511 96.184C263.113 95.8613 263.582 95.414 263.919 94.842C264.271 94.27 264.447 93.61 264.447 92.862C264.447 92.114 264.271 91.454 263.919 90.882C263.582 90.31 263.113 89.87 262.511 89.562C261.91 89.2393 261.221 89.078 260.443 89.078C259.666 89.078 258.969 89.2393 258.353 89.562C257.752 89.87 257.275 90.31 256.923 90.882C256.586 91.454 256.417 92.114 256.417 92.862C256.417 93.61 256.586 94.27 256.923 94.842C257.275 95.414 257.752 95.8613 258.353 96.184C258.969 96.5067 259.666 96.668 260.443 96.668ZM281.563 103.4C280.492 103.4 279.451 103.246 278.439 102.938C277.442 102.645 276.628 102.219 275.997 101.662L277.009 100.034C277.552 100.503 278.219 100.87 279.011 101.134C279.803 101.413 280.632 101.552 281.497 101.552C282.876 101.552 283.888 101.229 284.533 100.584C285.178 99.9387 285.501 98.956 285.501 97.636V95.172L285.721 92.862L285.611 90.53V87.34H287.613V97.416C287.613 99.4693 287.1 100.98 286.073 101.948C285.046 102.916 283.543 103.4 281.563 103.4ZM281.299 98.516C280.17 98.516 279.158 98.2813 278.263 97.812C277.383 97.328 276.679 96.6607 276.151 95.81C275.638 94.9593 275.381 93.9767 275.381 92.862C275.381 91.7327 275.638 90.75 276.151 89.914C276.679 89.0633 277.383 88.4033 278.263 87.934C279.158 87.4647 280.17 87.23 281.299 87.23C282.296 87.23 283.206 87.4353 284.027 87.846C284.848 88.242 285.501 88.858 285.985 89.694C286.484 90.53 286.733 91.586 286.733 92.862C286.733 94.1233 286.484 95.172 285.985 96.008C285.501 96.844 284.848 97.4747 284.027 97.9C283.206 98.3107 282.296 98.516 281.299 98.516ZM281.541 96.668C282.318 96.668 283.008 96.5067 283.609 96.184C284.21 95.8613 284.68 95.414 285.017 94.842C285.369 94.27 285.545 93.61 285.545 92.862C285.545 92.114 285.369 91.454 285.017 90.882C284.68 90.31 284.21 89.87 283.609 89.562C283.008 89.2393 282.318 89.078 281.541 89.078C280.764 89.078 280.067 89.2393 279.451 89.562C278.85 89.87 278.373 90.31 278.021 90.882C277.684 91.454 277.515 92.114 277.515 92.862C277.515 93.61 277.684 94.27 278.021 94.842C278.373 95.414 278.85 95.8613 279.451 96.184C280.067 96.5067 280.764 96.668 281.541 96.668ZM296.642 99.132C295.469 99.132 294.428 98.8753 293.518 98.362C292.609 97.8487 291.89 97.1447 291.362 96.25C290.834 95.3407 290.57 94.314 290.57 93.17C290.57 92.0113 290.834 90.9847 291.362 90.09C291.89 89.1953 292.609 88.4987 293.518 88C294.428 87.4867 295.469 87.23 296.642 87.23C297.801 87.23 298.835 87.4867 299.744 88C300.668 88.4987 301.387 89.1953 301.9 90.09C302.428 90.97 302.692 91.9967 302.692 93.17C302.692 94.3287 302.428 95.3553 301.9 96.25C301.387 97.1447 300.668 97.8487 299.744 98.362C298.835 98.8753 297.801 99.132 296.642 99.132ZM296.642 97.284C297.39 97.284 298.058 97.1153 298.644 96.778C299.246 96.4407 299.715 95.964 300.052 95.348C300.39 94.7173 300.558 93.9913 300.558 93.17C300.558 92.334 300.39 91.6153 300.052 91.014C299.715 90.398 299.246 89.9213 298.644 89.584C298.058 89.2467 297.39 89.078 296.642 89.078C295.894 89.078 295.227 89.2467 294.64 89.584C294.054 89.9213 293.584 90.398 293.232 91.014C292.88 91.6153 292.704 92.334 292.704 93.17C292.704 93.9913 292.88 94.7173 293.232 95.348C293.584 95.964 294.054 96.4407 294.64 96.778C295.227 97.1153 295.894 97.284 296.642 97.284ZM310.805 99.132C309.559 99.132 308.459 98.8753 307.505 98.362C306.567 97.8487 305.833 97.1447 305.305 96.25C304.792 95.3553 304.535 94.3287 304.535 93.17C304.535 92.0113 304.785 90.9847 305.283 90.09C305.797 89.1953 306.493 88.4987 307.373 88C308.268 87.4867 309.273 87.23 310.387 87.23C311.517 87.23 312.514 87.4793 313.379 87.978C314.245 88.4767 314.919 89.1807 315.403 90.09C315.902 90.9847 316.151 92.0333 316.151 93.236C316.151 93.324 316.144 93.4267 316.129 93.544C316.129 93.6613 316.122 93.7713 316.107 93.874H306.185V92.356H315.007L314.149 92.884C314.164 92.136 314.01 91.4687 313.687 90.882C313.365 90.2953 312.917 89.8407 312.345 89.518C311.788 89.1807 311.135 89.012 310.387 89.012C309.654 89.012 309.001 89.1807 308.429 89.518C307.857 89.8407 307.41 90.3027 307.087 90.904C306.765 91.4907 306.603 92.1653 306.603 92.928V93.28C306.603 94.0573 306.779 94.754 307.131 95.37C307.498 95.9713 308.004 96.4407 308.649 96.778C309.295 97.1153 310.035 97.284 310.871 97.284C311.561 97.284 312.184 97.1667 312.741 96.932C313.313 96.6973 313.812 96.3453 314.237 95.876L315.403 97.24C314.875 97.856 314.215 98.3253 313.423 98.648C312.646 98.9707 311.773 99.132 310.805 99.132ZM322.428 99.132C321.46 99.132 320.536 99 319.656 98.736C318.791 98.472 318.109 98.1493 317.61 97.768L318.49 96.096C318.989 96.4333 319.605 96.7193 320.338 96.954C321.071 97.1887 321.819 97.306 322.582 97.306C323.565 97.306 324.269 97.1667 324.694 96.888C325.134 96.6093 325.354 96.2207 325.354 95.722C325.354 95.3553 325.222 95.0693 324.958 94.864C324.694 94.6587 324.342 94.5047 323.902 94.402C323.477 94.2993 323 94.2113 322.472 94.138C321.944 94.05 321.416 93.9473 320.888 93.83C320.36 93.698 319.876 93.522 319.436 93.302C318.996 93.0673 318.644 92.752 318.38 92.356C318.116 91.9453 317.984 91.4027 317.984 90.728C317.984 90.024 318.182 89.408 318.578 88.88C318.974 88.352 319.531 87.9487 320.25 87.67C320.983 87.3767 321.849 87.23 322.846 87.23C323.609 87.23 324.379 87.3253 325.156 87.516C325.948 87.692 326.593 87.9487 327.092 88.286L326.19 89.958C325.662 89.606 325.112 89.364 324.54 89.232C323.968 89.1 323.396 89.034 322.824 89.034C321.9 89.034 321.211 89.188 320.756 89.496C320.301 89.7893 320.074 90.1707 320.074 90.64C320.074 91.036 320.206 91.344 320.47 91.564C320.749 91.7693 321.101 91.9307 321.526 92.048C321.966 92.1653 322.45 92.268 322.978 92.356C323.506 92.4293 324.034 92.532 324.562 92.664C325.09 92.7813 325.567 92.95 325.992 93.17C326.432 93.39 326.784 93.698 327.048 94.094C327.327 94.49 327.466 95.018 327.466 95.678C327.466 96.382 327.261 96.9907 326.85 97.504C326.439 98.0173 325.86 98.4207 325.112 98.714C324.364 98.9927 323.469 99.132 322.428 99.132ZM336.014 99V82.676H338.126V99H336.014ZM342.158 99V87.34H344.27V99H342.158ZM343.214 85.096C342.804 85.096 342.459 84.964 342.18 84.7C341.916 84.436 341.784 84.1133 341.784 83.732C341.784 83.336 341.916 83.006 342.18 82.742C342.459 82.478 342.804 82.346 343.214 82.346C343.625 82.346 343.962 82.478 344.226 82.742C344.505 82.9913 344.644 83.3067 344.644 83.688C344.644 84.084 344.512 84.4213 344.248 84.7C343.984 84.964 343.64 85.096 343.214 85.096ZM351.361 99L346.257 87.34H348.457L352.989 97.9H351.933L356.553 87.34H358.621L353.517 99H351.361ZM365.462 99.132C364.215 99.132 363.115 98.8753 362.162 98.362C361.223 97.8487 360.49 97.1447 359.962 96.25C359.448 95.3553 359.192 94.3287 359.192 93.17C359.192 92.0113 359.441 90.9847 359.94 90.09C360.453 89.1953 361.15 88.4987 362.03 88C362.924 87.4867 363.929 87.23 365.044 87.23C366.173 87.23 367.17 87.4793 368.036 87.978C368.901 88.4767 369.576 89.1807 370.06 90.09C370.558 90.9847 370.808 92.0333 370.808 93.236C370.808 93.324 370.8 93.4267 370.786 93.544C370.786 93.6613 370.778 93.7713 370.764 93.874H360.842V92.356H369.664L368.806 92.884C368.82 92.136 368.666 91.4687 368.344 90.882C368.021 90.2953 367.574 89.8407 367.002 89.518C366.444 89.1807 365.792 89.012 365.044 89.012C364.31 89.012 363.658 89.1807 363.086 89.518C362.514 89.8407 362.066 90.3027 361.744 90.904C361.421 91.4907 361.26 92.1653 361.26 92.928V93.28C361.26 94.0573 361.436 94.754 361.788 95.37C362.154 95.9713 362.66 96.4407 363.306 96.778C363.951 97.1153 364.692 97.284 365.528 97.284C366.217 97.284 366.84 97.1667 367.398 96.932C367.97 96.6973 368.468 96.3453 368.894 95.876L370.06 97.24C369.532 97.856 368.872 98.3253 368.08 98.648C367.302 98.9707 366.43 99.132 365.462 99.132ZM373.85 94.138L373.454 83.6H375.94L375.522 94.138H373.85ZM374.708 99.132C374.298 99.132 373.953 98.9927 373.674 98.714C373.396 98.4353 373.256 98.1053 373.256 97.724C373.256 97.3133 373.396 96.976 373.674 96.712C373.953 96.448 374.298 96.316 374.708 96.316C375.119 96.316 375.456 96.448 375.72 96.712C375.984 96.976 376.116 97.3133 376.116 97.724C376.116 98.1053 375.984 98.4353 375.72 98.714C375.456 98.9927 375.119 99.132 374.708 99.132Z" fill="white"/>
<path d="M178.31 183V167.6H180.114L190.3 180.25H189.354V167.6H191.554V183H189.75L179.564 170.35H180.51V183H178.31ZM198.144 174.882H206.086V176.774H198.144V174.882ZM198.364 183H196.164V167.6H207.032V169.514H198.364V183ZM213.294 183V169.514H208.014V167.6H220.752V169.514H215.472V183H213.294ZM228.748 183V171.34H230.86V183H228.748ZM229.804 169.096C229.393 169.096 229.049 168.964 228.77 168.7C228.506 168.436 228.374 168.113 228.374 167.732C228.374 167.336 228.506 167.006 228.77 166.742C229.049 166.478 229.393 166.346 229.804 166.346C230.215 166.346 230.552 166.478 230.816 166.742C231.095 166.991 231.234 167.307 231.234 167.688C231.234 168.084 231.102 168.421 230.838 168.7C230.574 168.964 230.229 169.096 229.804 169.096ZM241.119 171.23C242.072 171.23 242.908 171.413 243.627 171.78C244.36 172.147 244.932 172.704 245.343 173.452C245.753 174.2 245.959 175.146 245.959 176.29V183H243.847V176.532C243.847 175.403 243.568 174.552 243.011 173.98C242.468 173.408 241.698 173.122 240.701 173.122C239.953 173.122 239.3 173.269 238.743 173.562C238.185 173.855 237.753 174.288 237.445 174.86C237.151 175.432 237.005 176.143 237.005 176.994V183H234.893V171.34H236.917V174.486L236.587 173.65C236.968 172.887 237.555 172.293 238.347 171.868C239.139 171.443 240.063 171.23 241.119 171.23ZM253.871 183.132C252.698 183.132 251.789 182.817 251.143 182.186C250.498 181.555 250.175 180.653 250.175 179.48V168.788H252.287V179.392C252.287 180.023 252.441 180.507 252.749 180.844C253.072 181.181 253.527 181.35 254.113 181.35C254.773 181.35 255.323 181.167 255.763 180.8L256.423 182.318C256.101 182.597 255.712 182.802 255.257 182.934C254.817 183.066 254.355 183.132 253.871 183.132ZM248.195 173.078V171.34H255.631V173.078H248.195ZM263.782 183.132C262.535 183.132 261.435 182.875 260.482 182.362C259.543 181.849 258.81 181.145 258.282 180.25C257.769 179.355 257.512 178.329 257.512 177.17C257.512 176.011 257.761 174.985 258.26 174.09C258.773 173.195 259.47 172.499 260.35 172C261.245 171.487 262.249 171.23 263.364 171.23C264.493 171.23 265.491 171.479 266.356 171.978C267.221 172.477 267.896 173.181 268.38 174.09C268.879 174.985 269.128 176.033 269.128 177.236C269.128 177.324 269.121 177.427 269.106 177.544C269.106 177.661 269.099 177.771 269.084 177.874H259.162V176.356H267.984L267.126 176.884C267.141 176.136 266.987 175.469 266.664 174.882C266.341 174.295 265.894 173.841 265.322 173.518C264.765 173.181 264.112 173.012 263.364 173.012C262.631 173.012 261.978 173.181 261.406 173.518C260.834 173.841 260.387 174.303 260.064 174.904C259.741 175.491 259.58 176.165 259.58 176.928V177.28C259.58 178.057 259.756 178.754 260.108 179.37C260.475 179.971 260.981 180.441 261.626 180.778C262.271 181.115 263.012 181.284 263.848 181.284C264.537 181.284 265.161 181.167 265.718 180.932C266.29 180.697 266.789 180.345 267.214 179.876L268.38 181.24C267.852 181.856 267.192 182.325 266.4 182.648C265.623 182.971 264.75 183.132 263.782 183.132ZM277.165 187.4C276.094 187.4 275.053 187.246 274.041 186.938C273.043 186.645 272.229 186.219 271.599 185.662L272.611 184.034C273.153 184.503 273.821 184.87 274.613 185.134C275.405 185.413 276.233 185.552 277.099 185.552C278.477 185.552 279.489 185.229 280.135 184.584C280.78 183.939 281.103 182.956 281.103 181.636V179.172L281.323 176.862L281.213 174.53V171.34H283.215V181.416C283.215 183.469 282.701 184.98 281.675 185.948C280.648 186.916 279.145 187.4 277.165 187.4ZM276.901 182.516C275.771 182.516 274.759 182.281 273.865 181.812C272.985 181.328 272.281 180.661 271.753 179.81C271.239 178.959 270.983 177.977 270.983 176.862C270.983 175.733 271.239 174.75 271.753 173.914C272.281 173.063 272.985 172.403 273.865 171.934C274.759 171.465 275.771 171.23 276.901 171.23C277.898 171.23 278.807 171.435 279.629 171.846C280.45 172.242 281.103 172.858 281.587 173.694C282.085 174.53 282.335 175.586 282.335 176.862C282.335 178.123 282.085 179.172 281.587 180.008C281.103 180.844 280.45 181.475 279.629 181.9C278.807 182.311 277.898 182.516 276.901 182.516ZM277.143 180.668C277.92 180.668 278.609 180.507 279.211 180.184C279.812 179.861 280.281 179.414 280.619 178.842C280.971 178.27 281.147 177.61 281.147 176.862C281.147 176.114 280.971 175.454 280.619 174.882C280.281 174.31 279.812 173.87 279.211 173.562C278.609 173.239 277.92 173.078 277.143 173.078C276.365 173.078 275.669 173.239 275.053 173.562C274.451 173.87 273.975 174.31 273.623 174.882C273.285 175.454 273.117 176.114 273.117 176.862C273.117 177.61 273.285 178.27 273.623 178.842C273.975 179.414 274.451 179.861 275.053 180.184C275.669 180.507 276.365 180.668 277.143 180.668ZM287.25 183V171.34H289.274V174.508L289.076 173.716C289.399 172.909 289.941 172.293 290.704 171.868C291.467 171.443 292.405 171.23 293.52 171.23V173.276C293.432 173.261 293.344 173.254 293.256 173.254C293.183 173.254 293.109 173.254 293.036 173.254C291.907 173.254 291.012 173.591 290.352 174.266C289.692 174.941 289.362 175.916 289.362 177.192V183H287.25ZM302.502 183V180.536L302.392 180.074V175.872C302.392 174.977 302.128 174.288 301.6 173.804C301.086 173.305 300.309 173.056 299.268 173.056C298.578 173.056 297.904 173.173 297.244 173.408C296.584 173.628 296.026 173.929 295.572 174.31L294.692 172.726C295.293 172.242 296.012 171.875 296.848 171.626C297.698 171.362 298.586 171.23 299.51 171.23C301.108 171.23 302.34 171.619 303.206 172.396C304.071 173.173 304.504 174.361 304.504 175.96V183H302.502ZM298.674 183.132C297.808 183.132 297.046 182.985 296.386 182.692C295.74 182.399 295.242 181.995 294.89 181.482C294.538 180.954 294.362 180.36 294.362 179.7C294.362 179.069 294.508 178.497 294.802 177.984C295.11 177.471 295.601 177.06 296.276 176.752C296.965 176.444 297.889 176.29 299.048 176.29H302.744V177.808H299.136C298.08 177.808 297.368 177.984 297.002 178.336C296.635 178.688 296.452 179.113 296.452 179.612C296.452 180.184 296.679 180.646 297.134 180.998C297.588 181.335 298.219 181.504 299.026 181.504C299.818 181.504 300.507 181.328 301.094 180.976C301.695 180.624 302.128 180.111 302.392 179.436L302.81 180.888C302.531 181.577 302.04 182.127 301.336 182.538C300.632 182.934 299.744 183.132 298.674 183.132ZM312.416 183.132C311.243 183.132 310.333 182.817 309.688 182.186C309.043 181.555 308.72 180.653 308.72 179.48V168.788H310.832V179.392C310.832 180.023 310.986 180.507 311.294 180.844C311.617 181.181 312.071 181.35 312.658 181.35C313.318 181.35 313.868 181.167 314.308 180.8L314.968 182.318C314.645 182.597 314.257 182.802 313.802 182.934C313.362 183.066 312.9 183.132 312.416 183.132ZM306.74 173.078V171.34H314.176V173.078H306.74ZM317.522 183V171.34H319.634V183H317.522ZM318.578 169.096C318.167 169.096 317.822 168.964 317.544 168.7C317.28 168.436 317.148 168.113 317.148 167.732C317.148 167.336 317.28 167.006 317.544 166.742C317.822 166.478 318.167 166.346 318.578 166.346C318.988 166.346 319.326 166.478 319.59 166.742C319.868 166.991 320.008 167.307 320.008 167.688C320.008 168.084 319.876 168.421 319.612 168.7C319.348 168.964 319.003 169.096 318.578 169.096ZM328.66 183.132C327.487 183.132 326.445 182.875 325.536 182.362C324.627 181.849 323.908 181.145 323.38 180.25C322.852 179.341 322.588 178.314 322.588 177.17C322.588 176.011 322.852 174.985 323.38 174.09C323.908 173.195 324.627 172.499 325.536 172C326.445 171.487 327.487 171.23 328.66 171.23C329.819 171.23 330.853 171.487 331.762 172C332.686 172.499 333.405 173.195 333.918 174.09C334.446 174.97 334.71 175.997 334.71 177.17C334.71 178.329 334.446 179.355 333.918 180.25C333.405 181.145 332.686 181.849 331.762 182.362C330.853 182.875 329.819 183.132 328.66 183.132ZM328.66 181.284C329.408 181.284 330.075 181.115 330.662 180.778C331.263 180.441 331.733 179.964 332.07 179.348C332.407 178.717 332.576 177.991 332.576 177.17C332.576 176.334 332.407 175.615 332.07 175.014C331.733 174.398 331.263 173.921 330.662 173.584C330.075 173.247 329.408 173.078 328.66 173.078C327.912 173.078 327.245 173.247 326.658 173.584C326.071 173.921 325.602 174.398 325.25 175.014C324.898 175.615 324.722 176.334 324.722 177.17C324.722 177.991 324.898 178.717 325.25 179.348C325.602 179.964 326.071 180.441 326.658 180.778C327.245 181.115 327.912 181.284 328.66 181.284ZM343.857 171.23C344.81 171.23 345.646 171.413 346.365 171.78C347.098 172.147 347.67 172.704 348.081 173.452C348.492 174.2 348.697 175.146 348.697 176.29V183H346.585V176.532C346.585 175.403 346.306 174.552 345.749 173.98C345.206 173.408 344.436 173.122 343.439 173.122C342.691 173.122 342.038 173.269 341.481 173.562C340.924 173.855 340.491 174.288 340.183 174.86C339.89 175.432 339.743 176.143 339.743 176.994V183H337.631V171.34H339.655V174.486L339.325 173.65C339.706 172.887 340.293 172.293 341.085 171.868C341.877 171.443 342.801 171.23 343.857 171.23ZM360.978 183L356.644 171.34H358.646L362.496 181.9H361.55L365.554 171.34H367.336L371.252 181.9H370.328L374.266 171.34H376.158L371.802 183H369.778L366.104 173.364H366.72L363.002 183H360.978ZM378.301 183V171.34H380.413V183H378.301ZM379.357 169.096C378.946 169.096 378.601 168.964 378.323 168.7C378.059 168.436 377.927 168.113 377.927 167.732C377.927 167.336 378.059 167.006 378.323 166.742C378.601 166.478 378.946 166.346 379.357 166.346C379.767 166.346 380.105 166.478 380.369 166.742C380.647 166.991 380.787 167.307 380.787 167.688C380.787 168.084 380.655 168.421 380.391 168.7C380.127 168.964 379.782 169.096 379.357 169.096ZM388.449 183.132C387.276 183.132 386.367 182.817 385.721 182.186C385.076 181.555 384.753 180.653 384.753 179.48V168.788H386.865V179.392C386.865 180.023 387.019 180.507 387.327 180.844C387.65 181.181 388.105 181.35 388.691 181.35C389.351 181.35 389.901 181.167 390.341 180.8L391.001 182.318C390.679 182.597 390.29 182.802 389.835 182.934C389.395 183.066 388.933 183.132 388.449 183.132ZM382.773 173.078V171.34H390.209V173.078H382.773ZM399.781 171.23C400.734 171.23 401.57 171.413 402.289 171.78C403.022 172.147 403.594 172.704 404.005 173.452C404.415 174.2 404.621 175.146 404.621 176.29V183H402.509V176.532C402.509 175.403 402.23 174.552 401.673 173.98C401.13 173.408 400.36 173.122 399.363 173.122C398.615 173.122 397.962 173.269 397.405 173.562C396.847 173.855 396.415 174.288 396.107 174.86C395.813 175.432 395.667 176.143 395.667 176.994V183H393.555V166.676H395.667V174.486L395.249 173.65C395.63 172.887 396.217 172.293 397.009 171.868C397.801 171.443 398.725 171.23 399.781 171.23ZM419.19 183L412.414 167.6H414.79L421.016 181.812H419.652L425.922 167.6H428.122L421.368 183H419.19ZM430.085 183V167.6H432.285V183H430.085ZM441.384 183.176C440.211 183.176 439.089 183 438.018 182.648C436.947 182.281 436.104 181.812 435.488 181.24L436.302 179.524C436.889 180.037 437.637 180.463 438.546 180.8C439.455 181.137 440.401 181.306 441.384 181.306C442.279 181.306 443.005 181.203 443.562 180.998C444.119 180.793 444.53 180.514 444.794 180.162C445.058 179.795 445.19 179.385 445.19 178.93C445.19 178.402 445.014 177.977 444.662 177.654C444.325 177.331 443.877 177.075 443.32 176.884C442.777 176.679 442.176 176.503 441.516 176.356C440.856 176.209 440.189 176.041 439.514 175.85C438.854 175.645 438.245 175.388 437.688 175.08C437.145 174.772 436.705 174.361 436.368 173.848C436.031 173.32 435.862 172.645 435.862 171.824C435.862 171.032 436.067 170.306 436.478 169.646C436.903 168.971 437.549 168.436 438.414 168.04C439.294 167.629 440.409 167.424 441.758 167.424C442.653 167.424 443.54 167.541 444.42 167.776C445.3 168.011 446.063 168.348 446.708 168.788L445.982 170.548C445.322 170.108 444.625 169.793 443.892 169.602C443.159 169.397 442.447 169.294 441.758 169.294C440.893 169.294 440.181 169.404 439.624 169.624C439.067 169.844 438.656 170.137 438.392 170.504C438.143 170.871 438.018 171.281 438.018 171.736C438.018 172.279 438.187 172.711 438.524 173.034C438.876 173.357 439.323 173.613 439.866 173.804C440.423 173.995 441.032 174.171 441.692 174.332C442.352 174.479 443.012 174.647 443.672 174.838C444.347 175.029 444.955 175.278 445.498 175.586C446.055 175.894 446.503 176.305 446.84 176.818C447.177 177.331 447.346 177.991 447.346 178.798C447.346 179.575 447.133 180.301 446.708 180.976C446.283 181.636 445.623 182.171 444.728 182.582C443.848 182.978 442.733 183.176 441.384 183.176ZM450.56 183V167.6H456.566C457.915 167.6 459.067 167.813 460.02 168.238C460.973 168.663 461.707 169.279 462.22 170.086C462.733 170.893 462.99 171.853 462.99 172.968C462.99 174.083 462.733 175.043 462.22 175.85C461.707 176.642 460.973 177.258 460.02 177.698C459.067 178.123 457.915 178.336 456.566 178.336H451.77L452.76 177.302V183H450.56ZM452.76 177.522L451.77 176.422H456.5C457.908 176.422 458.971 176.121 459.69 175.52C460.423 174.919 460.79 174.068 460.79 172.968C460.79 171.868 460.423 171.017 459.69 170.416C458.971 169.815 457.908 169.514 456.5 169.514H451.77L452.76 168.414V177.522ZM463.854 183L470.256 174.266V175.96L464.206 167.6H466.714L471.51 174.178L470.52 174.2L475.294 167.6H477.692L471.686 175.828V174.244L478.088 183H475.558L470.454 175.982H471.422L466.384 183H463.854ZM486.281 183V166.676H488.393V183H486.281ZM499.664 183V180.536L499.554 180.074V175.872C499.554 174.977 499.29 174.288 498.762 173.804C498.248 173.305 497.471 173.056 496.43 173.056C495.74 173.056 495.066 173.173 494.406 173.408C493.746 173.628 493.188 173.929 492.734 174.31L491.854 172.726C492.455 172.242 493.174 171.875 494.01 171.626C494.86 171.362 495.748 171.23 496.672 171.23C498.27 171.23 499.502 171.619 500.368 172.396C501.233 173.173 501.666 174.361 501.666 175.96V183H499.664ZM495.836 183.132C494.97 183.132 494.208 182.985 493.548 182.692C492.902 182.399 492.404 181.995 492.052 181.482C491.7 180.954 491.524 180.36 491.524 179.7C491.524 179.069 491.67 178.497 491.964 177.984C492.272 177.471 492.763 177.06 493.438 176.752C494.127 176.444 495.051 176.29 496.21 176.29H499.906V177.808H496.298C495.242 177.808 494.53 177.984 494.164 178.336C493.797 178.688 493.614 179.113 493.614 179.612C493.614 180.184 493.841 180.646 494.296 180.998C494.75 181.335 495.381 181.504 496.188 181.504C496.98 181.504 497.669 181.328 498.256 180.976C498.857 180.624 499.29 180.111 499.554 179.436L499.972 180.888C499.693 181.577 499.202 182.127 498.498 182.538C497.794 182.934 496.906 183.132 495.836 183.132ZM510.48 183.132C509.483 183.132 508.603 182.949 507.84 182.582C507.092 182.215 506.506 181.658 506.08 180.91C505.67 180.147 505.464 179.194 505.464 178.05V171.34H507.576V177.808C507.576 178.952 507.848 179.81 508.39 180.382C508.948 180.954 509.725 181.24 510.722 181.24C511.456 181.24 512.094 181.093 512.636 180.8C513.179 180.492 513.597 180.052 513.89 179.48C514.184 178.893 514.33 178.189 514.33 177.368V171.34H516.442V183H514.44V179.854L514.77 180.69C514.389 181.467 513.817 182.069 513.054 182.494C512.292 182.919 511.434 183.132 510.48 183.132ZM526.689 171.23C527.642 171.23 528.478 171.413 529.197 171.78C529.93 172.147 530.502 172.704 530.913 173.452C531.324 174.2 531.529 175.146 531.529 176.29V183H529.417V176.532C529.417 175.403 529.138 174.552 528.581 173.98C528.038 173.408 527.268 173.122 526.271 173.122C525.523 173.122 524.87 173.269 524.313 173.562C523.756 173.855 523.323 174.288 523.015 174.86C522.722 175.432 522.575 176.143 522.575 176.994V183H520.463V171.34H522.487V174.486L522.157 173.65C522.538 172.887 523.125 172.293 523.917 171.868C524.709 171.443 525.633 171.23 526.689 171.23ZM540.52 183.132C539.332 183.132 538.268 182.875 537.33 182.362C536.406 181.849 535.68 181.145 535.152 180.25C534.624 179.355 534.36 178.329 534.36 177.17C534.36 176.011 534.624 174.985 535.152 174.09C535.68 173.195 536.406 172.499 537.33 172C538.268 171.487 539.332 171.23 540.52 171.23C541.576 171.23 542.514 171.443 543.336 171.868C544.172 172.279 544.817 172.895 545.272 173.716L543.666 174.75C543.284 174.178 542.815 173.76 542.258 173.496C541.715 173.217 541.128 173.078 540.498 173.078C539.735 173.078 539.053 173.247 538.452 173.584C537.85 173.921 537.374 174.398 537.022 175.014C536.67 175.615 536.494 176.334 536.494 177.17C536.494 178.006 536.67 178.732 537.022 179.348C537.374 179.964 537.85 180.441 538.452 180.778C539.053 181.115 539.735 181.284 540.498 181.284C541.128 181.284 541.715 181.152 542.258 180.888C542.815 180.609 543.284 180.184 543.666 179.612L545.272 180.624C544.817 181.431 544.172 182.054 543.336 182.494C542.514 182.919 541.576 183.132 540.52 183.132ZM554.082 171.23C555.035 171.23 555.871 171.413 556.59 171.78C557.323 172.147 557.895 172.704 558.306 173.452C558.716 174.2 558.922 175.146 558.922 176.29V183H556.81V176.532C556.81 175.403 556.531 174.552 555.974 173.98C555.431 173.408 554.661 173.122 553.664 173.122C552.916 173.122 552.263 173.269 551.706 173.562C551.148 173.855 550.716 174.288 550.408 174.86C550.114 175.432 549.968 176.143 549.968 176.994V183H547.856V166.676H549.968V174.486L549.55 173.65C549.931 172.887 550.518 172.293 551.31 171.868C552.102 171.443 553.026 171.23 554.082 171.23ZM569.012 183.132C568.044 183.132 567.157 182.912 566.35 182.472C565.558 182.017 564.92 181.35 564.436 180.47C563.967 179.59 563.732 178.49 563.732 177.17C563.732 175.85 563.959 174.75 564.414 173.87C564.883 172.99 565.514 172.33 566.306 171.89C567.113 171.45 568.015 171.23 569.012 171.23C570.156 171.23 571.168 171.479 572.048 171.978C572.928 172.477 573.625 173.173 574.138 174.068C574.651 174.948 574.908 175.982 574.908 177.17C574.908 178.358 574.651 179.399 574.138 180.294C573.625 181.189 572.928 181.885 572.048 182.384C571.168 182.883 570.156 183.132 569.012 183.132ZM562.83 187.268V171.34H564.854V174.486L564.722 177.192L564.942 179.898V187.268H562.83ZM568.836 181.284C569.584 181.284 570.251 181.115 570.838 180.778C571.439 180.441 571.909 179.964 572.246 179.348C572.598 178.717 572.774 177.991 572.774 177.17C572.774 176.334 572.598 175.615 572.246 175.014C571.909 174.398 571.439 173.921 570.838 173.584C570.251 173.247 569.584 173.078 568.836 173.078C568.103 173.078 567.435 173.247 566.834 173.584C566.247 173.921 565.778 174.398 565.426 175.014C565.089 175.615 564.92 176.334 564.92 177.17C564.92 177.991 565.089 178.717 565.426 179.348C565.778 179.964 566.247 180.441 566.834 180.778C567.435 181.115 568.103 181.284 568.836 181.284ZM584.957 183V180.536L584.847 180.074V175.872C584.847 174.977 584.583 174.288 584.055 173.804C583.541 173.305 582.764 173.056 581.723 173.056C581.033 173.056 580.359 173.173 579.699 173.408C579.039 173.628 578.481 173.929 578.027 174.31L577.147 172.726C577.748 172.242 578.467 171.875 579.303 171.626C580.153 171.362 581.041 171.23 581.965 171.23C583.563 171.23 584.795 171.619 585.661 172.396C586.526 173.173 586.959 174.361 586.959 175.96V183H584.957ZM581.129 183.132C580.263 183.132 579.501 182.985 578.841 182.692C578.195 182.399 577.697 181.995 577.345 181.482C576.993 180.954 576.817 180.36 576.817 179.7C576.817 179.069 576.963 178.497 577.257 177.984C577.565 177.471 578.056 177.06 578.731 176.752C579.42 176.444 580.344 176.29 581.503 176.29H585.199V177.808H581.591C580.535 177.808 579.823 177.984 579.457 178.336C579.09 178.688 578.907 179.113 578.907 179.612C578.907 180.184 579.134 180.646 579.589 180.998C580.043 181.335 580.674 181.504 581.481 181.504C582.273 181.504 582.962 181.328 583.549 180.976C584.15 180.624 584.583 180.111 584.847 179.436L585.265 180.888C584.986 181.577 584.495 182.127 583.791 182.538C583.087 182.934 582.199 183.132 581.129 183.132ZM595.685 183.132C594.556 183.132 593.544 182.883 592.649 182.384C591.769 181.885 591.073 181.189 590.559 180.294C590.046 179.399 589.789 178.358 589.789 177.17C589.789 175.982 590.046 174.948 590.559 174.068C591.073 173.173 591.769 172.477 592.649 171.978C593.544 171.479 594.556 171.23 595.685 171.23C596.668 171.23 597.555 171.45 598.347 171.89C599.139 172.33 599.77 172.99 600.239 173.87C600.723 174.75 600.965 175.85 600.965 177.17C600.965 178.49 600.731 179.59 600.261 180.47C599.807 181.35 599.183 182.017 598.391 182.472C597.599 182.912 596.697 183.132 595.685 183.132ZM595.861 181.284C596.595 181.284 597.255 181.115 597.841 180.778C598.443 180.441 598.912 179.964 599.249 179.348C599.601 178.717 599.777 177.991 599.777 177.17C599.777 176.334 599.601 175.615 599.249 175.014C598.912 174.398 598.443 173.921 597.841 173.584C597.255 173.247 596.595 173.078 595.861 173.078C595.113 173.078 594.446 173.247 593.859 173.584C593.273 173.921 592.803 174.398 592.451 175.014C592.099 175.615 591.923 176.334 591.923 177.17C591.923 177.991 592.099 178.717 592.451 179.348C592.803 179.964 593.273 180.441 593.859 180.778C594.446 181.115 595.113 181.284 595.861 181.284ZM599.843 183V179.854L599.975 177.148L599.755 174.442V166.676H601.867V183H599.843Z" fill="white"/>
<path d="M176.31 267V251.6H182.8C184.443 251.6 185.887 251.923 187.134 252.568C188.395 253.213 189.371 254.115 190.06 255.274C190.764 256.433 191.116 257.775 191.116 259.3C191.116 260.825 190.764 262.167 190.06 263.326C189.371 264.485 188.395 265.387 187.134 266.032C185.887 266.677 184.443 267 182.8 267H176.31ZM178.51 265.086H182.668C183.944 265.086 185.044 264.844 185.968 264.36C186.907 263.876 187.633 263.201 188.146 262.336C188.659 261.456 188.916 260.444 188.916 259.3C188.916 258.141 188.659 257.129 188.146 256.264C187.633 255.399 186.907 254.724 185.968 254.24C185.044 253.756 183.944 253.514 182.668 253.514H178.51V265.086ZM201.416 267V264.536L201.306 264.074V259.872C201.306 258.977 201.042 258.288 200.514 257.804C200 257.305 199.223 257.056 198.182 257.056C197.492 257.056 196.818 257.173 196.158 257.408C195.498 257.628 194.94 257.929 194.486 258.31L193.606 256.726C194.207 256.242 194.926 255.875 195.762 255.626C196.612 255.362 197.5 255.23 198.424 255.23C200.022 255.23 201.254 255.619 202.12 256.396C202.985 257.173 203.418 258.361 203.418 259.96V267H201.416ZM197.588 267.132C196.722 267.132 195.96 266.985 195.3 266.692C194.654 266.399 194.156 265.995 193.804 265.482C193.452 264.954 193.276 264.36 193.276 263.7C193.276 263.069 193.422 262.497 193.716 261.984C194.024 261.471 194.515 261.06 195.19 260.752C195.879 260.444 196.803 260.29 197.962 260.29H201.658V261.808H198.05C196.994 261.808 196.282 261.984 195.916 262.336C195.549 262.688 195.366 263.113 195.366 263.612C195.366 264.184 195.593 264.646 196.048 264.998C196.502 265.335 197.133 265.504 197.94 265.504C198.732 265.504 199.421 265.328 200.008 264.976C200.609 264.624 201.042 264.111 201.306 263.436L201.724 264.888C201.445 265.577 200.954 266.127 200.25 266.538C199.546 266.934 198.658 267.132 197.588 267.132ZM212.32 267.132C211.147 267.132 210.106 266.875 209.196 266.362C208.287 265.849 207.568 265.145 207.04 264.25C206.512 263.341 206.248 262.314 206.248 261.17C206.248 260.011 206.512 258.985 207.04 258.09C207.568 257.195 208.287 256.499 209.196 256C210.106 255.487 211.147 255.23 212.32 255.23C213.479 255.23 214.513 255.487 215.422 256C216.346 256.499 217.065 257.195 217.578 258.09C218.106 258.97 218.37 259.997 218.37 261.17C218.37 262.329 218.106 263.355 217.578 264.25C217.065 265.145 216.346 265.849 215.422 266.362C214.513 266.875 213.479 267.132 212.32 267.132ZM212.32 265.284C213.068 265.284 213.736 265.115 214.322 264.778C214.924 264.441 215.393 263.964 215.73 263.348C216.068 262.717 216.236 261.991 216.236 261.17C216.236 260.334 216.068 259.615 215.73 259.014C215.393 258.398 214.924 257.921 214.322 257.584C213.736 257.247 213.068 257.078 212.32 257.078C211.572 257.078 210.905 257.247 210.318 257.584C209.732 257.921 209.262 258.398 208.91 259.014C208.558 259.615 208.382 260.334 208.382 261.17C208.382 261.991 208.558 262.717 208.91 263.348C209.262 263.964 209.732 264.441 210.318 264.778C210.905 265.115 211.572 265.284 212.32 265.284ZM234.437 267V264.536L234.327 264.074V259.872C234.327 258.977 234.063 258.288 233.535 257.804C233.022 257.305 232.245 257.056 231.203 257.056C230.514 257.056 229.839 257.173 229.179 257.408C228.519 257.628 227.962 257.929 227.507 258.31L226.627 256.726C227.229 256.242 227.947 255.875 228.783 255.626C229.634 255.362 230.521 255.23 231.445 255.23C233.044 255.23 234.276 255.619 235.141 256.396C236.007 257.173 236.439 258.361 236.439 259.96V267H234.437ZM230.609 267.132C229.744 267.132 228.981 266.985 228.321 266.692C227.676 266.399 227.177 265.995 226.825 265.482C226.473 264.954 226.297 264.36 226.297 263.7C226.297 263.069 226.444 262.497 226.737 261.984C227.045 261.471 227.537 261.06 228.211 260.752C228.901 260.444 229.825 260.29 230.983 260.29H234.679V261.808H231.071C230.015 261.808 229.304 261.984 228.937 262.336C228.571 262.688 228.387 263.113 228.387 263.612C228.387 264.184 228.615 264.646 229.069 264.998C229.524 265.335 230.155 265.504 230.961 265.504C231.753 265.504 232.443 265.328 233.029 264.976C233.631 264.624 234.063 264.111 234.327 263.436L234.745 264.888C234.467 265.577 233.975 266.127 233.271 266.538C232.567 266.934 231.68 267.132 230.609 267.132ZM245.43 267.132C244.242 267.132 243.178 266.875 242.24 266.362C241.316 265.849 240.59 265.145 240.062 264.25C239.534 263.355 239.27 262.329 239.27 261.17C239.27 260.011 239.534 258.985 240.062 258.09C240.59 257.195 241.316 256.499 242.24 256C243.178 255.487 244.242 255.23 245.43 255.23C246.486 255.23 247.424 255.443 248.246 255.868C249.082 256.279 249.727 256.895 250.182 257.716L248.576 258.75C248.194 258.178 247.725 257.76 247.168 257.496C246.625 257.217 246.038 257.078 245.408 257.078C244.645 257.078 243.963 257.247 243.362 257.584C242.76 257.921 242.284 258.398 241.932 259.014C241.58 259.615 241.404 260.334 241.404 261.17C241.404 262.006 241.58 262.732 241.932 263.348C242.284 263.964 242.76 264.441 243.362 264.778C243.963 265.115 244.645 265.284 245.408 265.284C246.038 265.284 246.625 265.152 247.168 264.888C247.725 264.609 248.194 264.184 248.576 263.612L250.182 264.624C249.727 265.431 249.082 266.054 248.246 266.494C247.424 266.919 246.486 267.132 245.43 267.132ZM257.826 267.132C256.638 267.132 255.575 266.875 254.636 266.362C253.712 265.849 252.986 265.145 252.458 264.25C251.93 263.355 251.666 262.329 251.666 261.17C251.666 260.011 251.93 258.985 252.458 258.09C252.986 257.195 253.712 256.499 254.636 256C255.575 255.487 256.638 255.23 257.826 255.23C258.882 255.23 259.821 255.443 260.642 255.868C261.478 256.279 262.124 256.895 262.578 257.716L260.972 258.75C260.591 258.178 260.122 257.76 259.564 257.496C259.022 257.217 258.435 257.078 257.804 257.078C257.042 257.078 256.36 257.247 255.758 257.584C255.157 257.921 254.68 258.398 254.328 259.014C253.976 259.615 253.8 260.334 253.8 261.17C253.8 262.006 253.976 262.732 254.328 263.348C254.68 263.964 255.157 264.441 255.758 264.778C256.36 265.115 257.042 265.284 257.804 265.284C258.435 265.284 259.022 265.152 259.564 264.888C260.122 264.609 260.591 264.184 260.972 263.612L262.578 264.624C262.124 265.431 261.478 266.054 260.642 266.494C259.821 266.919 258.882 267.132 257.826 267.132ZM270.333 267.132C269.086 267.132 267.986 266.875 267.033 266.362C266.094 265.849 265.361 265.145 264.833 264.25C264.319 263.355 264.063 262.329 264.063 261.17C264.063 260.011 264.312 258.985 264.811 258.09C265.324 257.195 266.021 256.499 266.901 256C267.795 255.487 268.8 255.23 269.915 255.23C271.044 255.23 272.041 255.479 272.907 255.978C273.772 256.477 274.447 257.181 274.931 258.09C275.429 258.985 275.679 260.033 275.679 261.236C275.679 261.324 275.671 261.427 275.657 261.544C275.657 261.661 275.649 261.771 275.635 261.874H265.713V260.356H274.535L273.677 260.884C273.691 260.136 273.537 259.469 273.215 258.882C272.892 258.295 272.445 257.841 271.873 257.518C271.315 257.181 270.663 257.012 269.915 257.012C269.181 257.012 268.529 257.181 267.957 257.518C267.385 257.841 266.937 258.303 266.615 258.904C266.292 259.491 266.131 260.165 266.131 260.928V261.28C266.131 262.057 266.307 262.754 266.659 263.37C267.025 263.971 267.531 264.441 268.177 264.778C268.822 265.115 269.563 265.284 270.399 265.284C271.088 265.284 271.711 265.167 272.269 264.932C272.841 264.697 273.339 264.345 273.765 263.876L274.931 265.24C274.403 265.856 273.743 266.325 272.951 266.648C272.173 266.971 271.301 267.132 270.333 267.132ZM281.955 267.132C280.987 267.132 280.063 267 279.183 266.736C278.318 266.472 277.636 266.149 277.137 265.768L278.017 264.096C278.516 264.433 279.132 264.719 279.865 264.954C280.599 265.189 281.347 265.306 282.109 265.306C283.092 265.306 283.796 265.167 284.221 264.888C284.661 264.609 284.881 264.221 284.881 263.722C284.881 263.355 284.749 263.069 284.485 262.864C284.221 262.659 283.869 262.505 283.429 262.402C283.004 262.299 282.527 262.211 281.999 262.138C281.471 262.05 280.943 261.947 280.415 261.83C279.887 261.698 279.403 261.522 278.963 261.302C278.523 261.067 278.171 260.752 277.907 260.356C277.643 259.945 277.511 259.403 277.511 258.728C277.511 258.024 277.709 257.408 278.105 256.88C278.501 256.352 279.059 255.949 279.777 255.67C280.511 255.377 281.376 255.23 282.373 255.23C283.136 255.23 283.906 255.325 284.683 255.516C285.475 255.692 286.121 255.949 286.619 256.286L285.717 257.958C285.189 257.606 284.639 257.364 284.067 257.232C283.495 257.1 282.923 257.034 282.351 257.034C281.427 257.034 280.738 257.188 280.283 257.496C279.829 257.789 279.601 258.171 279.601 258.64C279.601 259.036 279.733 259.344 279.997 259.564C280.276 259.769 280.628 259.931 281.053 260.048C281.493 260.165 281.977 260.268 282.505 260.356C283.033 260.429 283.561 260.532 284.089 260.664C284.617 260.781 285.094 260.95 285.519 261.17C285.959 261.39 286.311 261.698 286.575 262.094C286.854 262.49 286.993 263.018 286.993 263.678C286.993 264.382 286.788 264.991 286.377 265.504C285.967 266.017 285.387 266.421 284.639 266.714C283.891 266.993 282.997 267.132 281.955 267.132ZM292.977 267.132C292.009 267.132 291.085 267 290.205 266.736C289.34 266.472 288.658 266.149 288.159 265.768L289.039 264.096C289.538 264.433 290.154 264.719 290.887 264.954C291.62 265.189 292.368 265.306 293.131 265.306C294.114 265.306 294.818 265.167 295.243 264.888C295.683 264.609 295.903 264.221 295.903 263.722C295.903 263.355 295.771 263.069 295.507 262.864C295.243 262.659 294.891 262.505 294.451 262.402C294.026 262.299 293.549 262.211 293.021 262.138C292.493 262.05 291.965 261.947 291.437 261.83C290.909 261.698 290.425 261.522 289.985 261.302C289.545 261.067 289.193 260.752 288.929 260.356C288.665 259.945 288.533 259.403 288.533 258.728C288.533 258.024 288.731 257.408 289.127 256.88C289.523 256.352 290.08 255.949 290.799 255.67C291.532 255.377 292.398 255.23 293.395 255.23C294.158 255.23 294.928 255.325 295.705 255.516C296.497 255.692 297.142 255.949 297.641 256.286L296.739 257.958C296.211 257.606 295.661 257.364 295.089 257.232C294.517 257.1 293.945 257.034 293.373 257.034C292.449 257.034 291.76 257.188 291.305 257.496C290.85 257.789 290.623 258.171 290.623 258.64C290.623 259.036 290.755 259.344 291.019 259.564C291.298 259.769 291.65 259.931 292.075 260.048C292.515 260.165 292.999 260.268 293.527 260.356C294.055 260.429 294.583 260.532 295.111 260.664C295.639 260.781 296.116 260.95 296.541 261.17C296.981 261.39 297.333 261.698 297.597 262.094C297.876 262.49 298.015 263.018 298.015 263.678C298.015 264.382 297.81 264.991 297.399 265.504C296.988 266.017 296.409 266.421 295.661 266.714C294.913 266.993 294.018 267.132 292.977 267.132ZM311.469 267.132C310.471 267.132 309.591 266.949 308.829 266.582C308.081 266.215 307.494 265.658 307.069 264.91C306.658 264.147 306.453 263.194 306.453 262.05V255.34H308.565V261.808C308.565 262.952 308.836 263.81 309.379 264.382C309.936 264.954 310.713 265.24 311.711 265.24C312.444 265.24 313.082 265.093 313.625 264.8C314.167 264.492 314.585 264.052 314.879 263.48C315.172 262.893 315.319 262.189 315.319 261.368V255.34H317.431V267H315.429V263.854L315.759 264.69C315.377 265.467 314.805 266.069 314.043 266.494C313.28 266.919 312.422 267.132 311.469 267.132ZM327.677 255.23C328.631 255.23 329.467 255.413 330.185 255.78C330.919 256.147 331.491 256.704 331.901 257.452C332.312 258.2 332.517 259.146 332.517 260.29V267H330.405V260.532C330.405 259.403 330.127 258.552 329.569 257.98C329.027 257.408 328.257 257.122 327.259 257.122C326.511 257.122 325.859 257.269 325.301 257.562C324.744 257.855 324.311 258.288 324.003 258.86C323.71 259.432 323.563 260.143 323.563 260.994V267H321.451V255.34H323.475V258.486L323.145 257.65C323.527 256.887 324.113 256.293 324.905 255.868C325.697 255.443 326.621 255.23 327.677 255.23ZM336.426 267V250.676H338.538V267H336.426ZM347.564 267.132C346.391 267.132 345.35 266.875 344.44 266.362C343.531 265.849 342.812 265.145 342.284 264.25C341.756 263.341 341.492 262.314 341.492 261.17C341.492 260.011 341.756 258.985 342.284 258.09C342.812 257.195 343.531 256.499 344.44 256C345.35 255.487 346.391 255.23 347.564 255.23C348.723 255.23 349.757 255.487 350.666 256C351.59 256.499 352.309 257.195 352.822 258.09C353.35 258.97 353.614 259.997 353.614 261.17C353.614 262.329 353.35 263.355 352.822 264.25C352.309 265.145 351.59 265.849 350.666 266.362C349.757 266.875 348.723 267.132 347.564 267.132ZM347.564 265.284C348.312 265.284 348.98 265.115 349.566 264.778C350.168 264.441 350.637 263.964 350.974 263.348C351.312 262.717 351.48 261.991 351.48 261.17C351.48 260.334 351.312 259.615 350.974 259.014C350.637 258.398 350.168 257.921 349.566 257.584C348.98 257.247 348.312 257.078 347.564 257.078C346.816 257.078 346.149 257.247 345.562 257.584C344.976 257.921 344.506 258.398 344.154 259.014C343.802 259.615 343.626 260.334 343.626 261.17C343.626 261.991 343.802 262.717 344.154 263.348C344.506 263.964 344.976 264.441 345.562 264.778C346.149 265.115 346.816 265.284 347.564 265.284ZM361.617 267.132C360.429 267.132 359.366 266.875 358.427 266.362C357.503 265.849 356.777 265.145 356.249 264.25C355.721 263.355 355.457 262.329 355.457 261.17C355.457 260.011 355.721 258.985 356.249 258.09C356.777 257.195 357.503 256.499 358.427 256C359.366 255.487 360.429 255.23 361.617 255.23C362.673 255.23 363.612 255.443 364.433 255.868C365.269 256.279 365.915 256.895 366.369 257.716L364.763 258.75C364.382 258.178 363.913 257.76 363.355 257.496C362.813 257.217 362.226 257.078 361.595 257.078C360.833 257.078 360.151 257.247 359.549 257.584C358.948 257.921 358.471 258.398 358.119 259.014C357.767 259.615 357.591 260.334 357.591 261.17C357.591 262.006 357.767 262.732 358.119 263.348C358.471 263.964 358.948 264.441 359.549 264.778C360.151 265.115 360.833 265.284 361.595 265.284C362.226 265.284 362.813 265.152 363.355 264.888C363.913 264.609 364.382 264.184 364.763 263.612L366.369 264.624C365.915 265.431 365.269 266.054 364.433 266.494C363.612 266.919 362.673 267.132 361.617 267.132ZM370.669 264.184L370.713 261.478L377.423 255.34H379.975L374.827 260.4L373.683 261.368L370.669 264.184ZM368.953 267V250.676H371.065V267H368.953ZM377.863 267L373.287 261.324L374.651 259.63L380.459 267H377.863ZM382.51 267V255.34H384.622V267H382.51ZM383.566 253.096C383.155 253.096 382.81 252.964 382.532 252.7C382.268 252.436 382.136 252.113 382.136 251.732C382.136 251.336 382.268 251.006 382.532 250.742C382.81 250.478 383.155 250.346 383.566 250.346C383.976 250.346 384.314 250.478 384.578 250.742C384.856 250.991 384.996 251.307 384.996 251.688C384.996 252.084 384.864 252.421 384.6 252.7C384.336 252.964 383.991 253.096 383.566 253.096ZM394.88 255.23C395.834 255.23 396.67 255.413 397.388 255.78C398.122 256.147 398.694 256.704 399.104 257.452C399.515 258.2 399.72 259.146 399.72 260.29V267H397.608V260.532C397.608 259.403 397.33 258.552 396.772 257.98C396.23 257.408 395.46 257.122 394.462 257.122C393.714 257.122 393.062 257.269 392.504 257.562C391.947 257.855 391.514 258.288 391.206 258.86C390.913 259.432 390.766 260.143 390.766 260.994V267H388.654V255.34H390.678V258.486L390.348 257.65C390.73 256.887 391.316 256.293 392.108 255.868C392.9 255.443 393.824 255.23 394.88 255.23ZM408.733 271.4C407.662 271.4 406.621 271.246 405.609 270.938C404.612 270.645 403.798 270.219 403.167 269.662L404.179 268.034C404.722 268.503 405.389 268.87 406.181 269.134C406.973 269.413 407.802 269.552 408.667 269.552C410.046 269.552 411.058 269.229 411.703 268.584C412.348 267.939 412.671 266.956 412.671 265.636V263.172L412.891 260.862L412.781 258.53V255.34H414.783V265.416C414.783 267.469 414.27 268.98 413.243 269.948C412.216 270.916 410.713 271.4 408.733 271.4ZM408.469 266.516C407.34 266.516 406.328 266.281 405.433 265.812C404.553 265.328 403.849 264.661 403.321 263.81C402.808 262.959 402.551 261.977 402.551 260.862C402.551 259.733 402.808 258.75 403.321 257.914C403.849 257.063 404.553 256.403 405.433 255.934C406.328 255.465 407.34 255.23 408.469 255.23C409.466 255.23 410.376 255.435 411.197 255.846C412.018 256.242 412.671 256.858 413.155 257.694C413.654 258.53 413.903 259.586 413.903 260.862C413.903 262.123 413.654 263.172 413.155 264.008C412.671 264.844 412.018 265.475 411.197 265.9C410.376 266.311 409.466 266.516 408.469 266.516ZM408.711 264.668C409.488 264.668 410.178 264.507 410.779 264.184C411.38 263.861 411.85 263.414 412.187 262.842C412.539 262.27 412.715 261.61 412.715 260.862C412.715 260.114 412.539 259.454 412.187 258.882C411.85 258.31 411.38 257.87 410.779 257.562C410.178 257.239 409.488 257.078 408.711 257.078C407.934 257.078 407.237 257.239 406.621 257.562C406.02 257.87 405.543 258.31 405.191 258.882C404.854 259.454 404.685 260.114 404.685 260.862C404.685 261.61 404.854 262.27 405.191 262.842C405.543 263.414 406.02 263.861 406.621 264.184C407.237 264.507 407.934 264.668 408.711 264.668Z" fill="white"/>
<defs>
<linearGradient id="paint0_linear_2_232" x1="1.2567e-06" y1="161" x2="742" y2="161" gradientUnits="userSpaceOnUse">
<stop stop-color="#A1A8E1"/>
<stop offset="1" stop-color="#3B48B9"/>
</linearGradient>
</defs>
</svg>
