<svg width="740" height="174" viewBox="0 0 740 174" fill="none" xmlns="http://www.w3.org/2000/svg">
<path d="M2.32572 22.4819C1.08979 10.5346 10.589 0.200332 22.5979 0.427527L719.114 13.6049C730.499 13.8203 739.407 23.484 738.697 34.8489L731.172 155.248C730.513 165.788 721.772 174 711.211 174H36.0378C25.7889 174 17.1985 166.252 16.1439 156.058L2.32572 22.4819Z" fill="url(#paint0_linear_2_202)"/>
<path d="M38.158 74V55.8H46.036C47.6653 55.8 49.0693 56.0687 50.248 56.606C51.4267 57.126 52.3367 57.88 52.978 58.868C53.6193 59.856 53.94 61.0347 53.94 62.404C53.94 63.756 53.6193 64.926 52.978 65.914C52.3367 66.902 51.4267 67.6647 50.248 68.202C49.0693 68.722 47.6653 68.982 46.036 68.982H40.498L42.37 67.084V74H38.158ZM42.37 67.552L40.498 65.55H45.802C47.102 65.55 48.0727 65.2727 48.714 64.718C49.3553 64.1633 49.676 63.392 49.676 62.404C49.676 61.3987 49.3553 60.6187 48.714 60.064C48.0727 59.5093 47.102 59.232 45.802 59.232H40.498L42.37 57.23V67.552ZM69.4271 55.8H73.6391V74H69.4271V55.8ZM61.1591 74H56.9471V55.8H61.1591V74ZM69.7391 66.538H60.8471V62.976H69.7391V66.538ZM75.5531 74L83.6651 55.8H87.8251L95.9631 74H91.5431L84.8871 57.932H86.5511L79.8691 74H75.5531ZM79.6091 70.1L80.7271 66.902H90.0871L91.2311 70.1H79.6091ZM103.831 74.312C102.375 74.312 100.98 74.1213 99.6454 73.74C98.3107 73.3413 97.236 72.83 96.4214 72.206L97.8514 69.034C98.6314 69.5887 99.55 70.048 100.607 70.412C101.682 70.7587 102.765 70.932 103.857 70.932C104.689 70.932 105.357 70.854 105.859 70.698C106.379 70.5247 106.761 70.2907 107.003 69.996C107.246 69.7013 107.367 69.3633 107.367 68.982C107.367 68.4967 107.177 68.1153 106.795 67.838C106.414 67.5433 105.911 67.3093 105.287 67.136C104.663 66.9453 103.97 66.772 103.207 66.616C102.462 66.4427 101.708 66.2347 100.945 65.992C100.2 65.7493 99.5154 65.4373 98.8914 65.056C98.2674 64.6747 97.756 64.172 97.3574 63.548C96.976 62.924 96.7854 62.1267 96.7854 61.156C96.7854 60.116 97.0627 59.1713 97.6174 58.322C98.1894 57.4553 99.0387 56.7707 100.165 56.268C101.309 55.748 102.739 55.488 104.455 55.488C105.599 55.488 106.726 55.6267 107.835 55.904C108.945 56.164 109.924 56.5627 110.773 57.1L109.473 60.298C108.624 59.8127 107.775 59.4573 106.925 59.232C106.076 58.9893 105.244 58.868 104.429 58.868C103.615 58.868 102.947 58.9633 102.427 59.154C101.907 59.3447 101.535 59.596 101.309 59.908C101.084 60.2027 100.971 60.5493 100.971 60.948C100.971 61.416 101.162 61.7973 101.543 62.092C101.925 62.3693 102.427 62.5947 103.051 62.768C103.675 62.9413 104.36 63.1147 105.105 63.288C105.868 63.4613 106.622 63.6607 107.367 63.886C108.13 64.1113 108.823 64.4147 109.447 64.796C110.071 65.1773 110.574 65.68 110.955 66.304C111.354 66.928 111.553 67.7167 111.553 68.67C111.553 69.6927 111.267 70.6287 110.695 71.478C110.123 72.3273 109.265 73.012 108.121 73.532C106.995 74.052 105.565 74.312 103.831 74.312ZM118.305 63.132H127.067V66.408H118.305V63.132ZM118.617 70.62H128.523V74H114.431V55.8H128.185V59.18H118.617V70.62ZM144.282 74.312C143.017 74.312 141.76 74.1473 140.512 73.818C139.281 73.4713 138.224 72.986 137.34 72.362L139.004 69.138C139.697 69.6407 140.495 70.0393 141.396 70.334C142.315 70.6287 143.242 70.776 144.178 70.776C145.235 70.776 146.067 70.568 146.674 70.152C147.281 69.736 147.584 69.1553 147.584 68.41C147.584 67.942 147.463 67.526 147.22 67.162C146.977 66.798 146.544 66.5207 145.92 66.33C145.313 66.1393 144.455 66.044 143.346 66.044H138.692L139.628 55.8H150.73V59.18H141.136L143.32 57.256L142.67 64.562L140.486 62.638H144.334C146.137 62.638 147.584 62.8893 148.676 63.392C149.785 63.8773 150.591 64.5447 151.094 65.394C151.597 66.2433 151.848 67.2053 151.848 68.28C151.848 69.3547 151.579 70.3513 151.042 71.27C150.505 72.1713 149.673 72.908 148.546 73.48C147.437 74.0347 146.015 74.312 144.282 74.312Z" fill="white"/>
<path d="M35.784 122L43.272 105.2H47.112L54.624 122H50.544L44.4 107.168H45.936L39.768 122H35.784ZM39.528 118.4L40.56 115.448H49.2L50.256 118.4H39.528ZM61.3166 122.192C60.2446 122.192 59.2846 121.984 58.4366 121.568C57.6046 121.152 56.9566 120.52 56.4926 119.672C56.0286 118.808 55.7966 117.712 55.7966 116.384V109.088H59.5406V115.832C59.5406 116.904 59.7646 117.696 60.2126 118.208C60.6766 118.704 61.3246 118.952 62.1566 118.952C62.7326 118.952 63.2446 118.832 63.6926 118.592C64.1406 118.336 64.4926 117.952 64.7486 117.44C65.0046 116.912 65.1326 116.256 65.1326 115.472V109.088H68.8766V122H65.3246V118.448L65.9726 119.48C65.5406 120.376 64.9006 121.056 64.0526 121.52C63.2206 121.968 62.3086 122.192 61.3166 122.192ZM78.4172 126.848C77.2012 126.848 76.0252 126.696 74.8892 126.392C73.7692 126.104 72.8332 125.664 72.0812 125.072L73.5692 122.384C74.1132 122.832 74.8012 123.184 75.6332 123.44C76.4812 123.712 77.3132 123.848 78.1292 123.848C79.4572 123.848 80.4172 123.552 81.0092 122.96C81.6172 122.368 81.9212 121.488 81.9212 120.32V118.376L82.1612 115.136L82.1132 111.872V109.088H85.6652V119.84C85.6652 122.24 85.0412 124.008 83.7932 125.144C82.5452 126.28 80.7532 126.848 78.4172 126.848ZM77.8412 121.376C76.6412 121.376 75.5532 121.12 74.5772 120.608C73.6172 120.08 72.8412 119.352 72.2492 118.424C71.6732 117.48 71.3852 116.384 71.3852 115.136C71.3852 113.872 71.6732 112.776 72.2492 111.848C72.8412 110.904 73.6172 110.176 74.5772 109.664C75.5532 109.152 76.6412 108.896 77.8412 108.896C78.9292 108.896 79.8892 109.12 80.7212 109.568C81.5532 110 82.2012 110.68 82.6652 111.608C83.1292 112.52 83.3612 113.696 83.3612 115.136C83.3612 116.56 83.1292 117.736 82.6652 118.664C82.2012 119.576 81.5532 120.256 80.7212 120.704C79.8892 121.152 78.9292 121.376 77.8412 121.376ZM78.5852 118.304C79.2412 118.304 79.8252 118.176 80.3372 117.92C80.8492 117.648 81.2492 117.272 81.5372 116.792C81.8252 116.312 81.9692 115.76 81.9692 115.136C81.9692 114.496 81.8252 113.944 81.5372 113.48C81.2492 113 80.8492 112.632 80.3372 112.376C79.8252 112.104 79.2412 111.968 78.5852 111.968C77.9292 111.968 77.3452 112.104 76.8332 112.376C76.3212 112.632 75.9132 113 75.6092 113.48C75.3212 113.944 75.1772 114.496 75.1772 115.136C75.1772 115.76 75.3212 116.312 75.6092 116.792C75.9132 117.272 76.3212 117.648 76.8332 117.92C77.3452 118.176 77.9292 118.304 78.5852 118.304ZM94.5979 122.192C93.5259 122.192 92.5659 121.984 91.7179 121.568C90.8859 121.152 90.2379 120.52 89.7739 119.672C89.3099 118.808 89.0779 117.712 89.0779 116.384V109.088H92.8219V115.832C92.8219 116.904 93.0459 117.696 93.4939 118.208C93.9579 118.704 94.6059 118.952 95.4379 118.952C96.0139 118.952 96.5259 118.832 96.9739 118.592C97.4219 118.336 97.7739 117.952 98.0299 117.44C98.2859 116.912 98.4139 116.256 98.4139 115.472V109.088H102.158V122H98.6059V118.448L99.2539 119.48C98.8219 120.376 98.1819 121.056 97.3339 121.52C96.5019 121.968 95.5899 122.192 94.5979 122.192ZM109.97 122.192C108.866 122.192 107.802 122.064 106.778 121.808C105.77 121.536 104.97 121.2 104.378 120.8L105.626 118.112C106.218 118.48 106.914 118.784 107.714 119.024C108.53 119.248 109.33 119.36 110.114 119.36C110.978 119.36 111.586 119.256 111.938 119.048C112.306 118.84 112.49 118.552 112.49 118.184C112.49 117.88 112.346 117.656 112.058 117.512C111.786 117.352 111.418 117.232 110.954 117.152C110.49 117.072 109.978 116.992 109.418 116.912C108.874 116.832 108.322 116.728 107.762 116.6C107.202 116.456 106.69 116.248 106.226 115.976C105.762 115.704 105.386 115.336 105.098 114.872C104.826 114.408 104.69 113.808 104.69 113.072C104.69 112.256 104.922 111.536 105.386 110.912C105.866 110.288 106.554 109.8 107.45 109.448C108.346 109.08 109.418 108.896 110.666 108.896C111.546 108.896 112.442 108.992 113.354 109.184C114.266 109.376 115.026 109.656 115.634 110.024L114.386 112.688C113.762 112.32 113.13 112.072 112.49 111.944C111.866 111.8 111.258 111.728 110.666 111.728C109.834 111.728 109.226 111.84 108.842 112.064C108.458 112.288 108.266 112.576 108.266 112.928C108.266 113.248 108.402 113.488 108.674 113.648C108.962 113.808 109.338 113.936 109.802 114.032C110.266 114.128 110.77 114.216 111.314 114.296C111.874 114.36 112.434 114.464 112.994 114.608C113.554 114.752 114.058 114.96 114.506 115.232C114.97 115.488 115.346 115.848 115.634 116.312C115.922 116.76 116.066 117.352 116.066 118.088C116.066 118.888 115.826 119.6 115.346 120.224C114.866 120.832 114.17 121.312 113.258 121.664C112.362 122.016 111.266 122.192 109.97 122.192ZM123.656 122.192C122.136 122.192 120.952 121.808 120.104 121.04C119.256 120.256 118.832 119.096 118.832 117.56V106.232H122.576V117.512C122.576 118.056 122.72 118.48 123.008 118.784C123.296 119.072 123.688 119.216 124.184 119.216C124.776 119.216 125.28 119.056 125.696 118.736L126.704 121.376C126.32 121.648 125.856 121.856 125.312 122C124.784 122.128 124.232 122.192 123.656 122.192ZM116.84 112.256V109.376H125.792V112.256H116.84Z" fill="white"/>
<rect x="165" y="58" width="534" height="65" rx="10" fill="#757575" fill-opacity="0.4"/>
<path d="M181.286 99L187.688 90.266V91.96L181.638 83.6H184.146L188.942 90.178L187.952 90.2L192.726 83.6H195.124L189.118 91.828V90.244L195.52 99H192.99L187.886 91.982H188.854L183.816 99H181.286ZM197.597 99V83.6H204.505C206.28 83.6 207.644 83.9593 208.597 84.678C209.55 85.382 210.027 86.35 210.027 87.582C210.027 88.418 209.836 89.122 209.455 89.694C209.088 90.266 208.59 90.706 207.959 91.014C207.328 91.322 206.646 91.476 205.913 91.476L206.309 90.816C207.189 90.816 207.966 90.97 208.641 91.278C209.316 91.586 209.851 92.0407 210.247 92.642C210.643 93.2287 210.841 93.962 210.841 94.842C210.841 96.162 210.342 97.1887 209.345 97.922C208.362 98.6407 206.896 99 204.945 99H197.597ZM199.797 97.218H204.857C206.074 97.218 207.006 97.0127 207.651 96.602C208.296 96.1913 208.619 95.546 208.619 94.666C208.619 93.7713 208.296 93.1187 207.651 92.708C207.006 92.2973 206.074 92.092 204.857 92.092H199.599V90.31H204.307C205.422 90.31 206.287 90.1047 206.903 89.694C207.519 89.2833 207.827 88.6673 207.827 87.846C207.827 87.0247 207.519 86.4087 206.903 85.998C206.287 85.5873 205.422 85.382 204.307 85.382H199.797V97.218ZM221.2 99.176C220.026 99.176 218.934 98.978 217.922 98.582C216.924 98.186 216.059 97.636 215.326 96.932C214.592 96.2133 214.02 95.3773 213.61 94.424C213.199 93.4707 212.994 92.4293 212.994 91.3C212.994 90.1707 213.199 89.1293 213.61 88.176C214.02 87.2227 214.592 86.394 215.326 85.69C216.059 84.9713 216.924 84.414 217.922 84.018C218.919 83.622 220.012 83.424 221.2 83.424C222.373 83.424 223.451 83.622 224.434 84.018C225.431 84.3993 226.296 84.9493 227.03 85.668C227.778 86.372 228.35 87.2007 228.746 88.154C229.156 89.1073 229.362 90.156 229.362 91.3C229.362 92.444 229.156 93.4927 228.746 94.446C228.35 95.3993 227.778 96.2353 227.03 96.954C226.296 97.658 225.431 98.208 224.434 98.604C223.451 98.9853 222.373 99.176 221.2 99.176ZM221.2 97.218C222.05 97.218 222.835 97.0713 223.553 96.778C224.287 96.4847 224.918 96.074 225.446 95.546C225.988 95.0033 226.406 94.3727 226.7 93.654C227.008 92.9353 227.162 92.1507 227.162 91.3C227.162 90.4493 227.008 89.6647 226.7 88.946C226.406 88.2273 225.988 87.604 225.446 87.076C224.918 86.5333 224.287 86.1153 223.553 85.822C222.835 85.5287 222.05 85.382 221.2 85.382C220.334 85.382 219.535 85.5287 218.802 85.822C218.083 86.1153 217.452 86.5333 216.91 87.076C216.367 87.604 215.942 88.2273 215.634 88.946C215.34 89.6647 215.194 90.4493 215.194 91.3C215.194 92.1507 215.34 92.9353 215.634 93.654C215.942 94.3727 216.367 95.0033 216.91 95.546C217.452 96.074 218.083 96.4847 218.802 96.778C219.535 97.0713 220.334 97.218 221.2 97.218ZM232.724 99V83.6H238.73C240.079 83.6 241.231 83.8127 242.184 84.238C243.137 84.6633 243.871 85.2793 244.384 86.086C244.897 86.8927 245.154 87.8533 245.154 88.968C245.154 90.0827 244.897 91.0433 244.384 91.85C243.871 92.642 243.137 93.2507 242.184 93.676C241.231 94.1013 240.079 94.314 238.73 94.314H233.934L234.924 93.302V99H232.724ZM243.02 99L239.104 93.412H241.458L245.418 99H243.02ZM234.924 93.522L233.934 92.444H238.664C240.072 92.444 241.135 92.1433 241.854 91.542C242.587 90.926 242.954 90.068 242.954 88.968C242.954 87.868 242.587 87.0173 241.854 86.416C241.135 85.8147 240.072 85.514 238.664 85.514H233.934L234.924 84.414V93.522ZM255.66 99.176C254.472 99.176 253.38 98.9853 252.382 98.604C251.385 98.208 250.52 97.658 249.786 96.954C249.053 96.2353 248.481 95.3993 248.07 94.446C247.66 93.4927 247.454 92.444 247.454 91.3C247.454 90.156 247.66 89.1073 248.07 88.154C248.481 87.2007 249.053 86.372 249.786 85.668C250.534 84.9493 251.407 84.3993 252.404 84.018C253.402 83.622 254.502 83.424 255.704 83.424C256.922 83.424 258.036 83.622 259.048 84.018C260.06 84.414 260.918 85.008 261.622 85.8L260.258 87.164C259.628 86.548 258.938 86.1007 258.19 85.822C257.457 85.5287 256.658 85.382 255.792 85.382C254.912 85.382 254.091 85.5287 253.328 85.822C252.58 86.1153 251.928 86.526 251.37 87.054C250.828 87.582 250.402 88.2127 250.094 88.946C249.801 89.6647 249.654 90.4493 249.654 91.3C249.654 92.136 249.801 92.9207 250.094 93.654C250.402 94.3727 250.828 95.0033 251.37 95.546C251.928 96.074 252.58 96.4847 253.328 96.778C254.076 97.0713 254.89 97.218 255.77 97.218C256.592 97.218 257.376 97.0933 258.124 96.844C258.887 96.58 259.591 96.1473 260.236 95.546L261.49 97.218C260.728 97.8633 259.833 98.3547 258.806 98.692C257.794 99.0147 256.746 99.176 255.66 99.176ZM259.378 96.932V91.212H261.49V97.218L259.378 96.932ZM271.611 99V83.6H273.415L280.323 95.238H279.355L286.175 83.6H287.979L288.001 99H285.889L285.867 86.922H286.373L280.301 97.13H279.289L273.173 86.922H273.723V99H271.611ZM299.553 99V96.536L299.443 96.074V91.872C299.443 90.9773 299.179 90.288 298.651 89.804C298.137 89.3053 297.36 89.056 296.319 89.056C295.629 89.056 294.955 89.1733 294.295 89.408C293.635 89.628 293.077 89.9287 292.623 90.31L291.743 88.726C292.344 88.242 293.063 87.8753 293.899 87.626C294.749 87.362 295.637 87.23 296.561 87.23C298.159 87.23 299.391 87.6187 300.257 88.396C301.122 89.1733 301.555 90.3613 301.555 91.96V99H299.553ZM295.725 99.132C294.859 99.132 294.097 98.9853 293.437 98.692C292.791 98.3987 292.293 97.9953 291.941 97.482C291.589 96.954 291.413 96.36 291.413 95.7C291.413 95.0693 291.559 94.4973 291.853 93.984C292.161 93.4707 292.652 93.06 293.327 92.752C294.016 92.444 294.94 92.29 296.099 92.29H299.795V93.808H296.187C295.131 93.808 294.419 93.984 294.053 94.336C293.686 94.688 293.503 95.1133 293.503 95.612C293.503 96.184 293.73 96.646 294.185 96.998C294.639 97.3353 295.27 97.504 296.077 97.504C296.869 97.504 297.558 97.328 298.145 96.976C298.746 96.624 299.179 96.1107 299.443 95.436L299.861 96.888C299.582 97.5773 299.091 98.1273 298.387 98.538C297.683 98.934 296.795 99.132 295.725 99.132ZM305.463 99V87.34H307.487V90.508L307.289 89.716C307.612 88.9093 308.154 88.2933 308.917 87.868C309.68 87.4427 310.618 87.23 311.733 87.23V89.276C311.645 89.2613 311.557 89.254 311.469 89.254C311.396 89.254 311.322 89.254 311.249 89.254C310.12 89.254 309.225 89.5913 308.565 90.266C307.905 90.9407 307.575 91.916 307.575 93.192V99H305.463ZM316.052 96.184L316.096 93.478L322.806 87.34H325.358L320.21 92.4L319.066 93.368L316.052 96.184ZM314.336 99V82.676H316.448V99H314.336ZM323.246 99L318.67 93.324L320.034 91.63L325.842 99H323.246ZM332.612 99.132C331.365 99.132 330.265 98.8753 329.312 98.362C328.373 97.8487 327.64 97.1447 327.112 96.25C326.599 95.3553 326.342 94.3287 326.342 93.17C326.342 92.0113 326.591 90.9847 327.09 90.09C327.603 89.1953 328.3 88.4987 329.18 88C330.075 87.4867 331.079 87.23 332.194 87.23C333.323 87.23 334.321 87.4793 335.186 87.978C336.051 88.4767 336.726 89.1807 337.21 90.09C337.709 90.9847 337.958 92.0333 337.958 93.236C337.958 93.324 337.951 93.4267 337.936 93.544C337.936 93.6613 337.929 93.7713 337.914 93.874H327.992V92.356H336.814L335.956 92.884C335.971 92.136 335.817 91.4687 335.494 90.882C335.171 90.2953 334.724 89.8407 334.152 89.518C333.595 89.1807 332.942 89.012 332.194 89.012C331.461 89.012 330.808 89.1807 330.236 89.518C329.664 89.8407 329.217 90.3027 328.894 90.904C328.571 91.4907 328.41 92.1653 328.41 92.928V93.28C328.41 94.0573 328.586 94.754 328.938 95.37C329.305 95.9713 329.811 96.4407 330.456 96.778C331.101 97.1153 331.842 97.284 332.678 97.284C333.367 97.284 333.991 97.1667 334.548 96.932C335.12 96.6973 335.619 96.3453 336.044 95.876L337.21 97.24C336.682 97.856 336.022 98.3253 335.23 98.648C334.453 98.9707 333.58 99.132 332.612 99.132ZM344.895 99.132C343.721 99.132 342.812 98.8167 342.167 98.186C341.521 97.5553 341.199 96.6533 341.199 95.48V84.788H343.311V95.392C343.311 96.0227 343.465 96.5067 343.773 96.844C344.095 97.1813 344.55 97.35 345.137 97.35C345.797 97.35 346.347 97.1667 346.787 96.8L347.447 98.318C347.124 98.5967 346.735 98.802 346.281 98.934C345.841 99.066 345.379 99.132 344.895 99.132ZM339.219 89.078V87.34H346.655V89.078H339.219ZM356.182 99.132C355.214 99.132 354.327 98.912 353.52 98.472C352.728 98.0173 352.09 97.35 351.606 96.47C351.137 95.59 350.902 94.49 350.902 93.17C350.902 91.85 351.129 90.75 351.584 89.87C352.053 88.99 352.684 88.33 353.476 87.89C354.283 87.45 355.185 87.23 356.182 87.23C357.326 87.23 358.338 87.4793 359.218 87.978C360.098 88.4767 360.795 89.1733 361.308 90.068C361.821 90.948 362.078 91.982 362.078 93.17C362.078 94.358 361.821 95.3993 361.308 96.294C360.795 97.1887 360.098 97.8853 359.218 98.384C358.338 98.8827 357.326 99.132 356.182 99.132ZM350 103.268V87.34H352.024V90.486L351.892 93.192L352.112 95.898V103.268H350ZM356.006 97.284C356.754 97.284 357.421 97.1153 358.008 96.778C358.609 96.4407 359.079 95.964 359.416 95.348C359.768 94.7173 359.944 93.9913 359.944 93.17C359.944 92.334 359.768 91.6153 359.416 91.014C359.079 90.398 358.609 89.9213 358.008 89.584C357.421 89.2467 356.754 89.078 356.006 89.078C355.273 89.078 354.605 89.2467 354.004 89.584C353.417 89.9213 352.948 90.398 352.596 91.014C352.259 91.6153 352.09 92.334 352.09 93.17C352.09 93.9913 352.259 94.7173 352.596 95.348C352.948 95.964 353.417 96.4407 354.004 96.778C354.605 97.1153 355.273 97.284 356.006 97.284ZM364.996 99V82.676H367.108V99H364.996ZM378.379 99V96.536L378.269 96.074V91.872C378.269 90.9773 378.005 90.288 377.477 89.804C376.963 89.3053 376.186 89.056 375.145 89.056C374.455 89.056 373.781 89.1733 373.121 89.408C372.461 89.628 371.903 89.9287 371.449 90.31L370.569 88.726C371.17 88.242 371.889 87.8753 372.725 87.626C373.575 87.362 374.463 87.23 375.387 87.23C376.985 87.23 378.217 87.6187 379.083 88.396C379.948 89.1733 380.381 90.3613 380.381 91.96V99H378.379ZM374.551 99.132C373.685 99.132 372.923 98.9853 372.263 98.692C371.617 98.3987 371.119 97.9953 370.767 97.482C370.415 96.954 370.239 96.36 370.239 95.7C370.239 95.0693 370.385 94.4973 370.679 93.984C370.987 93.4707 371.478 93.06 372.153 92.752C372.842 92.444 373.766 92.29 374.925 92.29H378.621V93.808H375.013C373.957 93.808 373.245 93.984 372.879 94.336C372.512 94.688 372.329 95.1133 372.329 95.612C372.329 96.184 372.556 96.646 373.011 96.998C373.465 97.3353 374.096 97.504 374.903 97.504C375.695 97.504 376.384 97.328 376.971 96.976C377.572 96.624 378.005 96.1107 378.269 95.436L378.687 96.888C378.408 97.5773 377.917 98.1273 377.213 98.538C376.509 98.934 375.621 99.132 374.551 99.132ZM389.371 99.132C388.183 99.132 387.12 98.8753 386.181 98.362C385.257 97.8487 384.531 97.1447 384.003 96.25C383.475 95.3553 383.211 94.3287 383.211 93.17C383.211 92.0113 383.475 90.9847 384.003 90.09C384.531 89.1953 385.257 88.4987 386.181 88C387.12 87.4867 388.183 87.23 389.371 87.23C390.427 87.23 391.366 87.4427 392.187 87.868C393.023 88.2787 393.668 88.8947 394.123 89.716L392.517 90.75C392.136 90.178 391.666 89.76 391.109 89.496C390.566 89.2173 389.98 89.078 389.349 89.078C388.586 89.078 387.904 89.2467 387.303 89.584C386.702 89.9213 386.225 90.398 385.873 91.014C385.521 91.6153 385.345 92.334 385.345 93.17C385.345 94.006 385.521 94.732 385.873 95.348C386.225 95.964 386.702 96.4407 387.303 96.778C387.904 97.1153 388.586 97.284 389.349 97.284C389.98 97.284 390.566 97.152 391.109 96.888C391.666 96.6093 392.136 96.184 392.517 95.612L394.123 96.624C393.668 97.4307 393.023 98.054 392.187 98.494C391.366 98.9193 390.427 99.132 389.371 99.132ZM401.878 99.132C400.631 99.132 399.531 98.8753 398.578 98.362C397.639 97.8487 396.906 97.1447 396.378 96.25C395.864 95.3553 395.608 94.3287 395.608 93.17C395.608 92.0113 395.857 90.9847 396.356 90.09C396.869 89.1953 397.566 88.4987 398.446 88C399.34 87.4867 400.345 87.23 401.46 87.23C402.589 87.23 403.586 87.4793 404.452 87.978C405.317 88.4767 405.992 89.1807 406.476 90.09C406.974 90.9847 407.224 92.0333 407.224 93.236C407.224 93.324 407.216 93.4267 407.202 93.544C407.202 93.6613 407.194 93.7713 407.18 93.874H397.258V92.356H406.08L405.222 92.884C405.236 92.136 405.082 91.4687 404.76 90.882C404.437 90.2953 403.99 89.8407 403.418 89.518C402.86 89.1807 402.208 89.012 401.46 89.012C400.726 89.012 400.074 89.1807 399.502 89.518C398.93 89.8407 398.482 90.3027 398.16 90.904C397.837 91.4907 397.676 92.1653 397.676 92.928V93.28C397.676 94.0573 397.852 94.754 398.204 95.37C398.57 95.9713 399.076 96.4407 399.722 96.778C400.367 97.1153 401.108 97.284 401.944 97.284C402.633 97.284 403.256 97.1667 403.814 96.932C404.386 96.6973 404.884 96.3453 405.31 95.876L406.476 97.24C405.948 97.856 405.288 98.3253 404.496 98.648C403.718 98.9707 402.846 99.132 401.878 99.132Z" fill="white"/>
<defs>
<linearGradient id="paint0_linear_2_202" x1="1.2567e-06" y1="86.9999" x2="742" y2="86.9999" gradientUnits="userSpaceOnUse">
<stop stop-color="#A1A8E1"/>
<stop offset="1" stop-color="#3B48B9"/>
</linearGradient>
</defs>
</svg>
