<svg width="742" height="174" viewBox="0 0 742 174" fill="none" xmlns="http://www.w3.org/2000/svg">
<path d="M1.83587 22.0304C0.85303 10.2364 10.2704 0.173018 22.1037 0.372366L720.953 12.1454C732.398 12.3382 741.347 22.0807 740.57 33.5017L732.27 155.359C731.555 165.853 722.834 174 712.316 174H32.9026C22.5009 174 13.8356 166.027 12.9717 155.661L1.83587 22.0304Z" fill="url(#paint0_linear_2_195)"/>
<path d="M43.158 74V55.8H51.036C52.6653 55.8 54.0693 56.0687 55.248 56.606C56.4267 57.126 57.3367 57.88 57.978 58.868C58.6193 59.856 58.94 61.0347 58.94 62.404C58.94 63.756 58.6193 64.926 57.978 65.914C57.3367 66.902 56.4267 67.6647 55.248 68.202C54.0693 68.722 52.6653 68.982 51.036 68.982H45.498L47.37 67.084V74H43.158ZM47.37 67.552L45.498 65.55H50.802C52.102 65.55 53.0727 65.2727 53.714 64.718C54.3553 64.1633 54.676 63.392 54.676 62.404C54.676 61.3987 54.3553 60.6187 53.714 60.064C53.0727 59.5093 52.102 59.232 50.802 59.232H45.498L47.37 57.23V67.552ZM74.4271 55.8H78.6391V74H74.4271V55.8ZM66.1591 74H61.9471V55.8H66.1591V74ZM74.7391 66.538H65.8471V62.976H74.7391V66.538ZM80.5531 74L88.6651 55.8H92.8251L100.963 74H96.5431L89.8871 57.932H91.5511L84.8691 74H80.5531ZM84.6091 70.1L85.7271 66.902H95.0871L96.2311 70.1H84.6091ZM108.831 74.312C107.375 74.312 105.98 74.1213 104.645 73.74C103.311 73.3413 102.236 72.83 101.421 72.206L102.851 69.034C103.631 69.5887 104.55 70.048 105.607 70.412C106.682 70.7587 107.765 70.932 108.857 70.932C109.689 70.932 110.357 70.854 110.859 70.698C111.379 70.5247 111.761 70.2907 112.003 69.996C112.246 69.7013 112.367 69.3633 112.367 68.982C112.367 68.4967 112.177 68.1153 111.795 67.838C111.414 67.5433 110.911 67.3093 110.287 67.136C109.663 66.9453 108.97 66.772 108.207 66.616C107.462 66.4427 106.708 66.2347 105.945 65.992C105.2 65.7493 104.515 65.4373 103.891 65.056C103.267 64.6747 102.756 64.172 102.357 63.548C101.976 62.924 101.785 62.1267 101.785 61.156C101.785 60.116 102.063 59.1713 102.617 58.322C103.189 57.4553 104.039 56.7707 105.165 56.268C106.309 55.748 107.739 55.488 109.455 55.488C110.599 55.488 111.726 55.6267 112.835 55.904C113.945 56.164 114.924 56.5627 115.773 57.1L114.473 60.298C113.624 59.8127 112.775 59.4573 111.925 59.232C111.076 58.9893 110.244 58.868 109.429 58.868C108.615 58.868 107.947 58.9633 107.427 59.154C106.907 59.3447 106.535 59.596 106.309 59.908C106.084 60.2027 105.971 60.5493 105.971 60.948C105.971 61.416 106.162 61.7973 106.543 62.092C106.925 62.3693 107.427 62.5947 108.051 62.768C108.675 62.9413 109.36 63.1147 110.105 63.288C110.868 63.4613 111.622 63.6607 112.367 63.886C113.13 64.1113 113.823 64.4147 114.447 64.796C115.071 65.1773 115.574 65.68 115.955 66.304C116.354 66.928 116.553 67.7167 116.553 68.67C116.553 69.6927 116.267 70.6287 115.695 71.478C115.123 72.3273 114.265 73.012 113.121 73.532C111.995 74.052 110.565 74.312 108.831 74.312ZM123.305 63.132H132.067V66.408H123.305V63.132ZM123.617 70.62H133.523V74H119.431V55.8H133.185V59.18H123.617V70.62ZM145.902 74V57.36L147.722 59.18H142.262V55.8H150.114V74H145.902Z" fill="white"/>
<path d="M42.992 122V105.2H46.208L53.36 117.056H51.656L58.688 105.2H61.88L61.928 122H58.28L58.256 110.792H58.928L53.312 120.224H51.56L45.824 110.792H46.64V122H42.992ZM73.5699 122V119.48L73.3299 118.928V114.416C73.3299 113.616 73.0819 112.992 72.5859 112.544C72.1059 112.096 71.3619 111.872 70.3539 111.872C69.6659 111.872 68.9859 111.984 68.3139 112.208C67.6579 112.416 67.0979 112.704 66.6339 113.072L65.2899 110.456C65.9939 109.96 66.8419 109.576 67.8339 109.304C68.8259 109.032 69.8339 108.896 70.8579 108.896C72.8259 108.896 74.3539 109.36 75.4419 110.288C76.5299 111.216 77.0739 112.664 77.0739 114.632V122H73.5699ZM69.6339 122.192C68.6259 122.192 67.7619 122.024 67.0419 121.688C66.3219 121.336 65.7699 120.864 65.3859 120.272C65.0019 119.68 64.8099 119.016 64.8099 118.28C64.8099 117.512 64.9939 116.84 65.3619 116.264C65.7459 115.688 66.3459 115.24 67.1619 114.92C67.9779 114.584 69.0419 114.416 70.3539 114.416H73.7859V116.6H70.7619C69.8819 116.6 69.2739 116.744 68.9379 117.032C68.6179 117.32 68.4579 117.68 68.4579 118.112C68.4579 118.592 68.6419 118.976 69.0099 119.264C69.3939 119.536 69.9139 119.672 70.5699 119.672C71.1939 119.672 71.7539 119.528 72.2499 119.24C72.7459 118.936 73.1059 118.496 73.3299 117.92L73.9059 119.648C73.6339 120.48 73.1379 121.112 72.4179 121.544C71.6979 121.976 70.7699 122.192 69.6339 122.192ZM80.4624 122V109.088H84.0384V112.736L83.5344 111.68C83.9184 110.768 84.5344 110.08 85.3824 109.616C86.2304 109.136 87.2624 108.896 88.4784 108.896V112.352C88.3184 112.336 88.1744 112.328 88.0464 112.328C87.9184 112.312 87.7824 112.304 87.6384 112.304C86.6144 112.304 85.7824 112.6 85.1424 113.192C84.5184 113.768 84.2064 114.672 84.2064 115.904V122H80.4624ZM96.8508 122.192C95.4588 122.192 94.2188 121.912 93.1308 121.352C92.0428 120.776 91.1868 119.984 90.5628 118.976C89.9548 117.968 89.6508 116.824 89.6508 115.544C89.6508 114.248 89.9548 113.104 90.5628 112.112C91.1868 111.104 92.0428 110.32 93.1308 109.76C94.2188 109.184 95.4588 108.896 96.8508 108.896C98.2108 108.896 99.3948 109.184 100.403 109.76C101.411 110.32 102.155 111.128 102.635 112.184L99.7308 113.744C99.3948 113.136 98.9708 112.688 98.4588 112.4C97.9628 112.112 97.4188 111.968 96.8268 111.968C96.1868 111.968 95.6108 112.112 95.0988 112.4C94.5868 112.688 94.1788 113.096 93.8748 113.624C93.5868 114.152 93.4428 114.792 93.4428 115.544C93.4428 116.296 93.5868 116.936 93.8748 117.464C94.1788 117.992 94.5868 118.4 95.0988 118.688C95.6108 118.976 96.1868 119.12 96.8268 119.12C97.4188 119.12 97.9628 118.984 98.4588 118.712C98.9708 118.424 99.3948 117.968 99.7308 117.344L102.635 118.928C102.155 119.968 101.411 120.776 100.403 121.352C99.3948 121.912 98.2108 122.192 96.8508 122.192ZM112.568 108.896C113.592 108.896 114.504 109.104 115.304 109.52C116.12 109.92 116.76 110.544 117.224 111.392C117.688 112.224 117.92 113.296 117.92 114.608V122H114.176V115.184C114.176 114.144 113.944 113.376 113.48 112.88C113.032 112.384 112.392 112.136 111.56 112.136C110.968 112.136 110.432 112.264 109.952 112.52C109.488 112.76 109.12 113.136 108.848 113.648C108.592 114.16 108.464 114.816 108.464 115.616V122H104.72V104.192H108.464V112.664L107.624 111.584C108.088 110.72 108.752 110.056 109.616 109.592C110.48 109.128 111.464 108.896 112.568 108.896Z" fill="white"/>
<rect x="165" y="58" width="534" height="65" rx="10" fill="#757575" fill-opacity="0.4"/>
<path d="M181.286 99L187.688 90.266V91.96L181.638 83.6H184.146L188.942 90.178L187.952 90.2L192.726 83.6H195.124L189.118 91.828V90.244L195.52 99H192.99L187.886 91.982H188.854L183.816 99H181.286ZM203.987 99.132C202.989 99.132 202.087 98.912 201.281 98.472C200.489 98.0173 199.858 97.35 199.389 96.47C198.934 95.59 198.707 94.49 198.707 93.17C198.707 91.85 198.941 90.75 199.411 89.87C199.895 88.99 200.533 88.33 201.325 87.89C202.131 87.45 203.019 87.23 203.987 87.23C205.131 87.23 206.143 87.4793 207.023 87.978C207.903 88.4767 208.599 89.1733 209.113 90.068C209.626 90.948 209.883 91.982 209.883 93.17C209.883 94.358 209.626 95.3993 209.113 96.294C208.599 97.1887 207.903 97.8853 207.023 98.384C206.143 98.8827 205.131 99.132 203.987 99.132ZM197.805 99V82.676H199.917V90.442L199.697 93.148L199.829 95.854V99H197.805ZM203.811 97.284C204.559 97.284 205.226 97.1153 205.813 96.778C206.414 96.4407 206.883 95.964 207.221 95.348C207.573 94.7173 207.749 93.9913 207.749 93.17C207.749 92.334 207.573 91.6153 207.221 91.014C206.883 90.398 206.414 89.9213 205.813 89.584C205.226 89.2467 204.559 89.078 203.811 89.078C203.077 89.078 202.41 89.2467 201.809 89.584C201.222 89.9213 200.753 90.398 200.401 91.014C200.063 91.6153 199.895 92.334 199.895 93.17C199.895 93.9913 200.063 94.7173 200.401 95.348C200.753 95.964 201.222 96.4407 201.809 96.778C202.41 97.1153 203.077 97.284 203.811 97.284ZM217.795 99.132C216.621 99.132 215.58 98.8753 214.671 98.362C213.761 97.8487 213.043 97.1447 212.515 96.25C211.987 95.3407 211.723 94.314 211.723 93.17C211.723 92.0113 211.987 90.9847 212.515 90.09C213.043 89.1953 213.761 88.4987 214.671 88C215.58 87.4867 216.621 87.23 217.795 87.23C218.953 87.23 219.987 87.4867 220.897 88C221.821 88.4987 222.539 89.1953 223.053 90.09C223.581 90.97 223.845 91.9967 223.845 93.17C223.845 94.3287 223.581 95.3553 223.053 96.25C222.539 97.1447 221.821 97.8487 220.897 98.362C219.987 98.8753 218.953 99.132 217.795 99.132ZM217.795 97.284C218.543 97.284 219.21 97.1153 219.797 96.778C220.398 96.4407 220.867 95.964 221.205 95.348C221.542 94.7173 221.711 93.9913 221.711 93.17C221.711 92.334 221.542 91.6153 221.205 91.014C220.867 90.398 220.398 89.9213 219.797 89.584C219.21 89.2467 218.543 89.078 217.795 89.078C217.047 89.078 216.379 89.2467 215.793 89.584C215.206 89.9213 214.737 90.398 214.385 91.014C214.033 91.6153 213.857 92.334 213.857 93.17C213.857 93.9913 214.033 94.7173 214.385 95.348C214.737 95.964 215.206 96.4407 215.793 96.778C216.379 97.1153 217.047 97.284 217.795 97.284ZM226.766 99V87.34H228.79V90.508L228.592 89.716C228.914 88.9093 229.457 88.2933 230.22 87.868C230.982 87.4427 231.921 87.23 233.036 87.23V89.276C232.948 89.2613 232.86 89.254 232.772 89.254C232.698 89.254 232.625 89.254 232.552 89.254C231.422 89.254 230.528 89.5913 229.868 90.266C229.208 90.9407 228.878 91.916 228.878 93.192V99H226.766ZM240.635 103.4C239.565 103.4 238.523 103.246 237.511 102.938C236.514 102.645 235.7 102.219 235.069 101.662L236.081 100.034C236.624 100.503 237.291 100.87 238.083 101.134C238.875 101.413 239.704 101.552 240.569 101.552C241.948 101.552 242.96 101.229 243.605 100.584C244.251 99.9387 244.573 98.956 244.573 97.636V95.172L244.793 92.862L244.683 90.53V87.34H246.685V97.416C246.685 99.4693 246.172 100.98 245.145 101.948C244.119 102.916 242.615 103.4 240.635 103.4ZM240.371 98.516C239.242 98.516 238.23 98.2813 237.335 97.812C236.455 97.328 235.751 96.6607 235.223 95.81C234.71 94.9593 234.453 93.9767 234.453 92.862C234.453 91.7327 234.71 90.75 235.223 89.914C235.751 89.0633 236.455 88.4033 237.335 87.934C238.23 87.4647 239.242 87.23 240.371 87.23C241.369 87.23 242.278 87.4353 243.099 87.846C243.921 88.242 244.573 88.858 245.057 89.694C245.556 90.53 245.805 91.586 245.805 92.862C245.805 94.1233 245.556 95.172 245.057 96.008C244.573 96.844 243.921 97.4747 243.099 97.9C242.278 98.3107 241.369 98.516 240.371 98.516ZM240.613 96.668C241.391 96.668 242.08 96.5067 242.681 96.184C243.283 95.8613 243.752 95.414 244.089 94.842C244.441 94.27 244.617 93.61 244.617 92.862C244.617 92.114 244.441 91.454 244.089 90.882C243.752 90.31 243.283 89.87 242.681 89.562C242.08 89.2393 241.391 89.078 240.613 89.078C239.836 89.078 239.139 89.2393 238.523 89.562C237.922 89.87 237.445 90.31 237.093 90.882C236.756 91.454 236.587 92.114 236.587 92.862C236.587 93.61 236.756 94.27 237.093 94.842C237.445 95.414 237.922 95.8613 238.523 96.184C239.139 96.5067 239.836 96.668 240.613 96.668ZM263.867 99V96.536L263.757 96.074V91.872C263.757 90.9773 263.493 90.288 262.965 89.804C262.452 89.3053 261.674 89.056 260.633 89.056C259.944 89.056 259.269 89.1733 258.609 89.408C257.949 89.628 257.392 89.9287 256.937 90.31L256.057 88.726C256.658 88.242 257.377 87.8753 258.213 87.626C259.064 87.362 259.951 87.23 260.875 87.23C262.474 87.23 263.706 87.6187 264.571 88.396C265.436 89.1733 265.869 90.3613 265.869 91.96V99H263.867ZM260.039 99.132C259.174 99.132 258.411 98.9853 257.751 98.692C257.106 98.3987 256.607 97.9953 256.255 97.482C255.903 96.954 255.727 96.36 255.727 95.7C255.727 95.0693 255.874 94.4973 256.167 93.984C256.475 93.4707 256.966 93.06 257.641 92.752C258.33 92.444 259.254 92.29 260.413 92.29H264.109V93.808H260.501C259.445 93.808 258.734 93.984 258.367 94.336C258 94.688 257.817 95.1133 257.817 95.612C257.817 96.184 258.044 96.646 258.499 96.998C258.954 97.3353 259.584 97.504 260.391 97.504C261.183 97.504 261.872 97.328 262.459 96.976C263.06 96.624 263.493 96.1107 263.757 95.436L264.175 96.888C263.896 97.5773 263.405 98.1273 262.701 98.538C261.997 98.934 261.11 99.132 260.039 99.132ZM269.777 99V87.34H271.801V90.508L271.603 89.716C271.926 88.9093 272.469 88.2933 273.231 87.868C273.994 87.4427 274.933 87.23 276.047 87.23V89.276C275.959 89.2613 275.871 89.254 275.783 89.254C275.71 89.254 275.637 89.254 275.563 89.254C274.434 89.254 273.539 89.5913 272.879 90.266C272.219 90.9407 271.889 91.916 271.889 93.192V99H269.777ZM283.127 99.132C281.954 99.132 281.044 98.8167 280.399 98.186C279.754 97.5553 279.431 96.6533 279.431 95.48V84.788H281.543V95.392C281.543 96.0227 281.697 96.5067 282.005 96.844C282.328 97.1813 282.782 97.35 283.369 97.35C284.029 97.35 284.579 97.1667 285.019 96.8L285.679 98.318C285.356 98.5967 284.968 98.802 284.513 98.934C284.073 99.066 283.611 99.132 283.127 99.132ZM277.451 89.078V87.34H284.887V89.078H277.451ZM298.959 99.132C297.829 99.132 296.817 98.8827 295.923 98.384C295.043 97.8853 294.346 97.1887 293.833 96.294C293.319 95.3993 293.063 94.358 293.063 93.17C293.063 91.982 293.319 90.948 293.833 90.068C294.346 89.1733 295.043 88.4767 295.923 87.978C296.817 87.4793 297.829 87.23 298.959 87.23C299.941 87.23 300.829 87.45 301.621 87.89C302.413 88.33 303.043 88.99 303.513 89.87C303.997 90.75 304.239 91.85 304.239 93.17C304.239 94.49 304.004 95.59 303.535 96.47C303.08 97.35 302.457 98.0173 301.665 98.472C300.873 98.912 299.971 99.132 298.959 99.132ZM299.135 97.284C299.868 97.284 300.528 97.1153 301.115 96.778C301.716 96.4407 302.185 95.964 302.523 95.348C302.875 94.7173 303.051 93.9913 303.051 93.17C303.051 92.334 302.875 91.6153 302.523 91.014C302.185 90.398 301.716 89.9213 301.115 89.584C300.528 89.2467 299.868 89.078 299.135 89.078C298.387 89.078 297.719 89.2467 297.133 89.584C296.546 89.9213 296.077 90.398 295.725 91.014C295.373 91.6153 295.197 92.334 295.197 93.17C295.197 93.9913 295.373 94.7173 295.725 95.348C296.077 95.964 296.546 96.4407 297.133 96.778C297.719 97.1153 298.387 97.284 299.135 97.284ZM303.117 99V95.854L303.249 93.148L303.029 90.442V82.676H305.141V99H303.117ZM314.329 99.132C313.082 99.132 311.982 98.8753 311.029 98.362C310.09 97.8487 309.357 97.1447 308.829 96.25C308.315 95.3553 308.059 94.3287 308.059 93.17C308.059 92.0113 308.308 90.9847 308.807 90.09C309.32 89.1953 310.017 88.4987 310.897 88C311.791 87.4867 312.796 87.23 313.911 87.23C315.04 87.23 316.037 87.4793 316.903 87.978C317.768 88.4767 318.443 89.1807 318.927 90.09C319.425 90.9847 319.675 92.0333 319.675 93.236C319.675 93.324 319.667 93.4267 319.653 93.544C319.653 93.6613 319.645 93.7713 319.631 93.874H309.709V92.356H318.531L317.673 92.884C317.687 92.136 317.533 91.4687 317.211 90.882C316.888 90.2953 316.441 89.8407 315.869 89.518C315.311 89.1807 314.659 89.012 313.911 89.012C313.177 89.012 312.525 89.1807 311.953 89.518C311.381 89.8407 310.933 90.3027 310.611 90.904C310.288 91.4907 310.127 92.1653 310.127 92.928V93.28C310.127 94.0573 310.303 94.754 310.655 95.37C311.021 95.9713 311.527 96.4407 312.173 96.778C312.818 97.1153 313.559 97.284 314.395 97.284C315.084 97.284 315.707 97.1667 316.265 96.932C316.837 96.6973 317.335 96.3453 317.761 95.876L318.927 97.24C318.399 97.856 317.739 98.3253 316.947 98.648C316.169 98.9707 315.297 99.132 314.329 99.132ZM325.951 99.132C324.983 99.132 324.059 99 323.179 98.736C322.314 98.472 321.632 98.1493 321.133 97.768L322.013 96.096C322.512 96.4333 323.128 96.7193 323.861 96.954C324.595 97.1887 325.343 97.306 326.105 97.306C327.088 97.306 327.792 97.1667 328.217 96.888C328.657 96.6093 328.877 96.2207 328.877 95.722C328.877 95.3553 328.745 95.0693 328.481 94.864C328.217 94.6587 327.865 94.5047 327.425 94.402C327 94.2993 326.523 94.2113 325.995 94.138C325.467 94.05 324.939 93.9473 324.411 93.83C323.883 93.698 323.399 93.522 322.959 93.302C322.519 93.0673 322.167 92.752 321.903 92.356C321.639 91.9453 321.507 91.4027 321.507 90.728C321.507 90.024 321.705 89.408 322.101 88.88C322.497 88.352 323.055 87.9487 323.773 87.67C324.507 87.3767 325.372 87.23 326.369 87.23C327.132 87.23 327.902 87.3253 328.679 87.516C329.471 87.692 330.117 87.9487 330.615 88.286L329.713 89.958C329.185 89.606 328.635 89.364 328.063 89.232C327.491 89.1 326.919 89.034 326.347 89.034C325.423 89.034 324.734 89.188 324.279 89.496C323.825 89.7893 323.597 90.1707 323.597 90.64C323.597 91.036 323.729 91.344 323.993 91.564C324.272 91.7693 324.624 91.9307 325.049 92.048C325.489 92.1653 325.973 92.268 326.501 92.356C327.029 92.4293 327.557 92.532 328.085 92.664C328.613 92.7813 329.09 92.95 329.515 93.17C329.955 93.39 330.307 93.698 330.571 94.094C330.85 94.49 330.989 95.018 330.989 95.678C330.989 96.382 330.784 96.9907 330.373 97.504C329.963 98.0173 329.383 98.4207 328.635 98.714C327.887 98.9927 326.993 99.132 325.951 99.132ZM333.629 99V87.34H335.741V99H333.629ZM334.685 85.096C334.274 85.096 333.93 84.964 333.651 84.7C333.387 84.436 333.255 84.1133 333.255 83.732C333.255 83.336 333.387 83.006 333.651 82.742C333.93 82.478 334.274 82.346 334.685 82.346C335.096 82.346 335.433 82.478 335.697 82.742C335.976 82.9913 336.115 83.3067 336.115 83.688C336.115 84.084 335.983 84.4213 335.719 84.7C335.455 84.964 335.11 85.096 334.685 85.096ZM344.877 103.4C343.807 103.4 342.765 103.246 341.753 102.938C340.756 102.645 339.942 102.219 339.311 101.662L340.323 100.034C340.866 100.503 341.533 100.87 342.325 101.134C343.117 101.413 343.946 101.552 344.811 101.552C346.19 101.552 347.202 101.229 347.847 100.584C348.493 99.9387 348.815 98.956 348.815 97.636V95.172L349.035 92.862L348.925 90.53V87.34H350.927V97.416C350.927 99.4693 350.414 100.98 349.387 101.948C348.361 102.916 346.857 103.4 344.877 103.4ZM344.613 98.516C343.484 98.516 342.472 98.2813 341.577 97.812C340.697 97.328 339.993 96.6607 339.465 95.81C338.952 94.9593 338.695 93.9767 338.695 92.862C338.695 91.7327 338.952 90.75 339.465 89.914C339.993 89.0633 340.697 88.4033 341.577 87.934C342.472 87.4647 343.484 87.23 344.613 87.23C345.611 87.23 346.52 87.4353 347.341 87.846C348.163 88.242 348.815 88.858 349.299 89.694C349.798 90.53 350.047 91.586 350.047 92.862C350.047 94.1233 349.798 95.172 349.299 96.008C348.815 96.844 348.163 97.4747 347.341 97.9C346.52 98.3107 345.611 98.516 344.613 98.516ZM344.855 96.668C345.633 96.668 346.322 96.5067 346.923 96.184C347.525 95.8613 347.994 95.414 348.331 94.842C348.683 94.27 348.859 93.61 348.859 92.862C348.859 92.114 348.683 91.454 348.331 90.882C347.994 90.31 347.525 89.87 346.923 89.562C346.322 89.2393 345.633 89.078 344.855 89.078C344.078 89.078 343.381 89.2393 342.765 89.562C342.164 89.87 341.687 90.31 341.335 90.882C340.998 91.454 340.829 92.114 340.829 92.862C340.829 93.61 340.998 94.27 341.335 94.842C341.687 95.414 342.164 95.8613 342.765 96.184C343.381 96.5067 344.078 96.668 344.855 96.668ZM361.189 87.23C362.142 87.23 362.978 87.4133 363.697 87.78C364.43 88.1467 365.002 88.704 365.413 89.452C365.824 90.2 366.029 91.146 366.029 92.29V99H363.917V92.532C363.917 91.4027 363.638 90.552 363.081 89.98C362.538 89.408 361.768 89.122 360.771 89.122C360.023 89.122 359.37 89.2687 358.813 89.562C358.256 89.8553 357.823 90.288 357.515 90.86C357.222 91.432 357.075 92.1433 357.075 92.994V99H354.963V87.34H356.987V90.486L356.657 89.65C357.038 88.8873 357.625 88.2933 358.417 87.868C359.209 87.4427 360.133 87.23 361.189 87.23ZM383.084 99V96.536L382.974 96.074V91.872C382.974 90.9773 382.71 90.288 382.182 89.804C381.668 89.3053 380.891 89.056 379.85 89.056C379.16 89.056 378.486 89.1733 377.826 89.408C377.166 89.628 376.608 89.9287 376.154 90.31L375.274 88.726C375.875 88.242 376.594 87.8753 377.43 87.626C378.28 87.362 379.168 87.23 380.092 87.23C381.69 87.23 382.922 87.6187 383.788 88.396C384.653 89.1733 385.086 90.3613 385.086 91.96V99H383.084ZM379.256 99.132C378.39 99.132 377.628 98.9853 376.968 98.692C376.322 98.3987 375.824 97.9953 375.472 97.482C375.12 96.954 374.944 96.36 374.944 95.7C374.944 95.0693 375.09 94.4973 375.384 93.984C375.692 93.4707 376.183 93.06 376.858 92.752C377.547 92.444 378.471 92.29 379.63 92.29H383.326V93.808H379.718C378.662 93.808 377.95 93.984 377.584 94.336C377.217 94.688 377.034 95.1133 377.034 95.612C377.034 96.184 377.261 96.646 377.716 96.998C378.17 97.3353 378.801 97.504 379.608 97.504C380.4 97.504 381.089 97.328 381.676 96.976C382.277 96.624 382.71 96.1107 382.974 95.436L383.392 96.888C383.113 97.5773 382.622 98.1273 381.918 98.538C381.214 98.934 380.326 99.132 379.256 99.132ZM395.22 87.23C396.174 87.23 397.01 87.4133 397.728 87.78C398.462 88.1467 399.034 88.704 399.444 89.452C399.855 90.2 400.06 91.146 400.06 92.29V99H397.948V92.532C397.948 91.4027 397.67 90.552 397.112 89.98C396.57 89.408 395.8 89.122 394.802 89.122C394.054 89.122 393.402 89.2687 392.844 89.562C392.287 89.8553 391.854 90.288 391.546 90.86C391.253 91.432 391.106 92.1433 391.106 92.994V99H388.994V87.34H391.018V90.486L390.688 89.65C391.07 88.8873 391.656 88.2933 392.448 87.868C393.24 87.4427 394.164 87.23 395.22 87.23ZM408.787 99.132C407.657 99.132 406.645 98.8827 405.751 98.384C404.871 97.8853 404.174 97.1887 403.661 96.294C403.147 95.3993 402.891 94.358 402.891 93.17C402.891 91.982 403.147 90.948 403.661 90.068C404.174 89.1733 404.871 88.4767 405.751 87.978C406.645 87.4793 407.657 87.23 408.787 87.23C409.769 87.23 410.657 87.45 411.449 87.89C412.241 88.33 412.871 88.99 413.341 89.87C413.825 90.75 414.067 91.85 414.067 93.17C414.067 94.49 413.832 95.59 413.363 96.47C412.908 97.35 412.285 98.0173 411.493 98.472C410.701 98.912 409.799 99.132 408.787 99.132ZM408.963 97.284C409.696 97.284 410.356 97.1153 410.943 96.778C411.544 96.4407 412.013 95.964 412.351 95.348C412.703 94.7173 412.879 93.9913 412.879 93.17C412.879 92.334 412.703 91.6153 412.351 91.014C412.013 90.398 411.544 89.9213 410.943 89.584C410.356 89.2467 409.696 89.078 408.963 89.078C408.215 89.078 407.547 89.2467 406.961 89.584C406.374 89.9213 405.905 90.398 405.553 91.014C405.201 91.6153 405.025 92.334 405.025 93.17C405.025 93.9913 405.201 94.7173 405.553 95.348C405.905 95.964 406.374 96.4407 406.961 96.778C407.547 97.1153 408.215 97.284 408.963 97.284ZM412.945 99V95.854L413.077 93.148L412.857 90.442V82.676H414.969V99H412.945ZM429.625 99L422.849 83.6H425.225L431.451 97.812H430.087L436.357 83.6H438.557L431.803 99H429.625ZM440.521 99V83.6H442.721V99H440.521ZM451.819 99.176C450.646 99.176 449.524 99 448.453 98.648C447.383 98.2813 446.539 97.812 445.923 97.24L446.737 95.524C447.324 96.0373 448.072 96.4627 448.981 96.8C449.891 97.1373 450.837 97.306 451.819 97.306C452.714 97.306 453.44 97.2033 453.997 96.998C454.555 96.7927 454.965 96.514 455.229 96.162C455.493 95.7953 455.625 95.3847 455.625 94.93C455.625 94.402 455.449 93.9767 455.097 93.654C454.76 93.3313 454.313 93.0747 453.755 92.884C453.213 92.6787 452.611 92.5027 451.951 92.356C451.291 92.2093 450.624 92.0407 449.949 91.85C449.289 91.6447 448.681 91.388 448.123 91.08C447.581 90.772 447.141 90.3613 446.803 89.848C446.466 89.32 446.297 88.6453 446.297 87.824C446.297 87.032 446.503 86.306 446.913 85.646C447.339 84.9713 447.984 84.436 448.849 84.04C449.729 83.6293 450.844 83.424 452.193 83.424C453.088 83.424 453.975 83.5413 454.855 83.776C455.735 84.0107 456.498 84.348 457.143 84.788L456.417 86.548C455.757 86.108 455.061 85.7927 454.327 85.602C453.594 85.3967 452.883 85.294 452.193 85.294C451.328 85.294 450.617 85.404 450.059 85.624C449.502 85.844 449.091 86.1373 448.827 86.504C448.578 86.8707 448.453 87.2813 448.453 87.736C448.453 88.2787 448.622 88.7113 448.959 89.034C449.311 89.3567 449.759 89.6133 450.301 89.804C450.859 89.9947 451.467 90.1707 452.127 90.332C452.787 90.4787 453.447 90.6473 454.107 90.838C454.782 91.0287 455.391 91.278 455.933 91.586C456.491 91.894 456.938 92.3047 457.275 92.818C457.613 93.3313 457.781 93.9913 457.781 94.798C457.781 95.5753 457.569 96.3013 457.143 96.976C456.718 97.636 456.058 98.1713 455.163 98.582C454.283 98.978 453.169 99.176 451.819 99.176ZM460.996 99V83.6H467.002C468.351 83.6 469.502 83.8127 470.456 84.238C471.409 84.6633 472.142 85.2793 472.656 86.086C473.169 86.8927 473.426 87.8533 473.426 88.968C473.426 90.0827 473.169 91.0433 472.656 91.85C472.142 92.642 471.409 93.258 470.456 93.698C469.502 94.1233 468.351 94.336 467.002 94.336H462.206L463.196 93.302V99H460.996ZM463.196 93.522L462.206 92.422H466.936C468.344 92.422 469.407 92.1213 470.126 91.52C470.859 90.9187 471.226 90.068 471.226 88.968C471.226 87.868 470.859 87.0173 470.126 86.416C469.407 85.8147 468.344 85.514 466.936 85.514H462.206L463.196 84.414V93.522ZM474.29 99L480.692 90.266V91.96L474.642 83.6H477.15L481.946 90.178L480.956 90.2L485.73 83.6H488.128L482.122 91.828V90.244L488.524 99H485.994L480.89 91.982H481.858L476.82 99H474.29ZM502.899 99.132C501.902 99.132 501 98.912 500.193 98.472C499.401 98.0173 498.77 97.35 498.301 96.47C497.846 95.59 497.619 94.49 497.619 93.17C497.619 91.85 497.854 90.75 498.323 89.87C498.807 88.99 499.445 88.33 500.237 87.89C501.044 87.45 501.931 87.23 502.899 87.23C504.043 87.23 505.055 87.4793 505.935 87.978C506.815 88.4767 507.512 89.1733 508.025 90.068C508.538 90.948 508.795 91.982 508.795 93.17C508.795 94.358 508.538 95.3993 508.025 96.294C507.512 97.1887 506.815 97.8853 505.935 98.384C505.055 98.8827 504.043 99.132 502.899 99.132ZM496.717 99V82.676H498.829V90.442L498.609 93.148L498.741 95.854V99H496.717ZM502.723 97.284C503.471 97.284 504.138 97.1153 504.725 96.778C505.326 96.4407 505.796 95.964 506.133 95.348C506.485 94.7173 506.661 93.9913 506.661 93.17C506.661 92.334 506.485 91.6153 506.133 91.014C505.796 90.398 505.326 89.9213 504.725 89.584C504.138 89.2467 503.471 89.078 502.723 89.078C501.99 89.078 501.322 89.2467 500.721 89.584C500.134 89.9213 499.665 90.398 499.313 91.014C498.976 91.6153 498.807 92.334 498.807 93.17C498.807 93.9913 498.976 94.7173 499.313 95.348C499.665 95.964 500.134 96.4407 500.721 96.778C501.322 97.1153 501.99 97.284 502.723 97.284ZM511.713 99V87.34H513.737V90.508L513.539 89.716C513.862 88.9093 514.404 88.2933 515.167 87.868C515.93 87.4427 516.868 87.23 517.983 87.23V89.276C517.895 89.2613 517.807 89.254 517.719 89.254C517.646 89.254 517.572 89.254 517.499 89.254C516.37 89.254 515.475 89.5913 514.815 90.266C514.155 90.9407 513.825 91.916 513.825 93.192V99H511.713ZM526.965 99V96.536L526.855 96.074V91.872C526.855 90.9773 526.591 90.288 526.063 89.804C525.549 89.3053 524.772 89.056 523.731 89.056C523.041 89.056 522.367 89.1733 521.707 89.408C521.047 89.628 520.489 89.9287 520.035 90.31L519.155 88.726C519.756 88.242 520.475 87.8753 521.311 87.626C522.161 87.362 523.049 87.23 523.973 87.23C525.571 87.23 526.803 87.6187 527.669 88.396C528.534 89.1733 528.967 90.3613 528.967 91.96V99H526.965ZM523.137 99.132C522.271 99.132 521.509 98.9853 520.849 98.692C520.203 98.3987 519.705 97.9953 519.353 97.482C519.001 96.954 518.825 96.36 518.825 95.7C518.825 95.0693 518.971 94.4973 519.265 93.984C519.573 93.4707 520.064 93.06 520.739 92.752C521.428 92.444 522.352 92.29 523.511 92.29H527.207V93.808H523.599C522.543 93.808 521.831 93.984 521.465 94.336C521.098 94.688 520.915 95.1133 520.915 95.612C520.915 96.184 521.142 96.646 521.597 96.998C522.051 97.3353 522.682 97.504 523.489 97.504C524.281 97.504 524.97 97.328 525.557 96.976C526.158 96.624 526.591 96.1107 526.855 95.436L527.273 96.888C526.994 97.5773 526.503 98.1273 525.799 98.538C525.095 98.934 524.207 99.132 523.137 99.132ZM539.101 87.23C540.054 87.23 540.89 87.4133 541.609 87.78C542.342 88.1467 542.914 88.704 543.325 89.452C543.736 90.2 543.941 91.146 543.941 92.29V99H541.829V92.532C541.829 91.4027 541.55 90.552 540.993 89.98C540.45 89.408 539.68 89.122 538.683 89.122C537.935 89.122 537.282 89.2687 536.725 89.562C536.168 89.8553 535.735 90.288 535.427 90.86C535.134 91.432 534.987 92.1433 534.987 92.994V99H532.875V87.34H534.899V90.486L534.569 89.65C534.95 88.8873 535.537 88.2933 536.329 87.868C537.121 87.4427 538.045 87.23 539.101 87.23ZM552.668 99.132C551.538 99.132 550.526 98.8827 549.632 98.384C548.752 97.8853 548.055 97.1887 547.542 96.294C547.028 95.3993 546.772 94.358 546.772 93.17C546.772 91.982 547.028 90.948 547.542 90.068C548.055 89.1733 548.752 88.4767 549.632 87.978C550.526 87.4793 551.538 87.23 552.668 87.23C553.65 87.23 554.538 87.45 555.33 87.89C556.122 88.33 556.752 88.99 557.222 89.87C557.706 90.75 557.948 91.85 557.948 93.17C557.948 94.49 557.713 95.59 557.244 96.47C556.789 97.35 556.166 98.0173 555.374 98.472C554.582 98.912 553.68 99.132 552.668 99.132ZM552.844 97.284C553.577 97.284 554.237 97.1153 554.824 96.778C555.425 96.4407 555.894 95.964 556.232 95.348C556.584 94.7173 556.76 93.9913 556.76 93.17C556.76 92.334 556.584 91.6153 556.232 91.014C555.894 90.398 555.425 89.9213 554.824 89.584C554.237 89.2467 553.577 89.078 552.844 89.078C552.096 89.078 551.428 89.2467 550.842 89.584C550.255 89.9213 549.786 90.398 549.434 91.014C549.082 91.6153 548.906 92.334 548.906 93.17C548.906 93.9913 549.082 94.7173 549.434 95.348C549.786 95.964 550.255 96.4407 550.842 96.778C551.428 97.1153 552.096 97.284 552.844 97.284ZM556.826 99V95.854L556.958 93.148L556.738 90.442V82.676H558.85V99H556.826ZM583.34 87.23C584.279 87.23 585.107 87.4133 585.826 87.78C586.545 88.1467 587.102 88.704 587.498 89.452C587.909 90.2 588.114 91.146 588.114 92.29V99H586.002V92.532C586.002 91.4027 585.738 90.552 585.21 89.98C584.682 89.408 583.941 89.122 582.988 89.122C582.284 89.122 581.668 89.2687 581.14 89.562C580.612 89.8553 580.201 90.288 579.908 90.86C579.629 91.432 579.49 92.1433 579.49 92.994V99H577.378V92.532C577.378 91.4027 577.114 90.552 576.586 89.98C576.073 89.408 575.332 89.122 574.364 89.122C573.675 89.122 573.066 89.2687 572.538 89.562C572.01 89.8553 571.599 90.288 571.306 90.86C571.013 91.432 570.866 92.1433 570.866 92.994V99H568.754V87.34H570.778V90.442L570.448 89.65C570.815 88.8873 571.379 88.2933 572.142 87.868C572.905 87.4427 573.792 87.23 574.804 87.23C575.919 87.23 576.879 87.5087 577.686 88.066C578.493 88.6087 579.021 89.4373 579.27 90.552L578.412 90.2C578.764 89.3053 579.38 88.5867 580.26 88.044C581.14 87.5013 582.167 87.23 583.34 87.23ZM599.238 99V96.536L599.128 96.074V91.872C599.128 90.9773 598.864 90.288 598.336 89.804C597.823 89.3053 597.045 89.056 596.004 89.056C595.315 89.056 594.64 89.1733 593.98 89.408C593.32 89.628 592.763 89.9287 592.308 90.31L591.428 88.726C592.029 88.242 592.748 87.8753 593.584 87.626C594.435 87.362 595.322 87.23 596.246 87.23C597.845 87.23 599.077 87.6187 599.942 88.396C600.807 89.1733 601.24 90.3613 601.24 91.96V99H599.238ZM595.41 99.132C594.545 99.132 593.782 98.9853 593.122 98.692C592.477 98.3987 591.978 97.9953 591.626 97.482C591.274 96.954 591.098 96.36 591.098 95.7C591.098 95.0693 591.245 94.4973 591.538 93.984C591.846 93.4707 592.337 93.06 593.012 92.752C593.701 92.444 594.625 92.29 595.784 92.29H599.48V93.808H595.872C594.816 93.808 594.105 93.984 593.738 94.336C593.371 94.688 593.188 95.1133 593.188 95.612C593.188 96.184 593.415 96.646 593.87 96.998C594.325 97.3353 594.955 97.504 595.762 97.504C596.554 97.504 597.243 97.328 597.83 96.976C598.431 96.624 598.864 96.1107 599.128 95.436L599.546 96.888C599.267 97.5773 598.776 98.1273 598.072 98.538C597.368 98.934 596.481 99.132 595.41 99.132ZM608.492 99.132C607.524 99.132 606.6 99 605.72 98.736C604.855 98.472 604.173 98.1493 603.674 97.768L604.554 96.096C605.053 96.4333 605.669 96.7193 606.402 96.954C607.136 97.1887 607.884 97.306 608.646 97.306C609.629 97.306 610.333 97.1667 610.758 96.888C611.198 96.6093 611.418 96.2207 611.418 95.722C611.418 95.3553 611.286 95.0693 611.022 94.864C610.758 94.6587 610.406 94.5047 609.966 94.402C609.541 94.2993 609.064 94.2113 608.536 94.138C608.008 94.05 607.48 93.9473 606.952 93.83C606.424 93.698 605.94 93.522 605.5 93.302C605.06 93.0673 604.708 92.752 604.444 92.356C604.18 91.9453 604.048 91.4027 604.048 90.728C604.048 90.024 604.246 89.408 604.642 88.88C605.038 88.352 605.596 87.9487 606.314 87.67C607.048 87.3767 607.913 87.23 608.91 87.23C609.673 87.23 610.443 87.3253 611.22 87.516C612.012 87.692 612.658 87.9487 613.156 88.286L612.254 89.958C611.726 89.606 611.176 89.364 610.604 89.232C610.032 89.1 609.46 89.034 608.888 89.034C607.964 89.034 607.275 89.188 606.82 89.496C606.366 89.7893 606.138 90.1707 606.138 90.64C606.138 91.036 606.27 91.344 606.534 91.564C606.813 91.7693 607.165 91.9307 607.59 92.048C608.03 92.1653 608.514 92.268 609.042 92.356C609.57 92.4293 610.098 92.532 610.626 92.664C611.154 92.7813 611.631 92.95 612.056 93.17C612.496 93.39 612.848 93.698 613.112 94.094C613.391 94.49 613.53 95.018 613.53 95.678C613.53 96.382 613.325 96.9907 612.914 97.504C612.504 98.0173 611.924 98.4207 611.176 98.714C610.428 98.9927 609.534 99.132 608.492 99.132ZM621.252 99.132C620.064 99.132 619.001 98.8753 618.062 98.362C617.138 97.8487 616.412 97.1447 615.884 96.25C615.356 95.3553 615.092 94.3287 615.092 93.17C615.092 92.0113 615.356 90.9847 615.884 90.09C616.412 89.1953 617.138 88.4987 618.062 88C619.001 87.4867 620.064 87.23 621.252 87.23C622.308 87.23 623.247 87.4427 624.068 87.868C624.904 88.2787 625.549 88.8947 626.004 89.716L624.398 90.75C624.017 90.178 623.547 89.76 622.99 89.496C622.447 89.2173 621.861 89.078 621.23 89.078C620.467 89.078 619.785 89.2467 619.184 89.584C618.583 89.9213 618.106 90.398 617.754 91.014C617.402 91.6153 617.226 92.334 617.226 93.17C617.226 94.006 617.402 94.732 617.754 95.348C618.106 95.964 618.583 96.4407 619.184 96.778C619.785 97.1153 620.467 97.284 621.23 97.284C621.861 97.284 622.447 97.152 622.99 96.888C623.547 96.6093 624.017 96.184 624.398 95.612L626.004 96.624C625.549 97.4307 624.904 98.054 624.068 98.494C623.247 98.9193 622.308 99.132 621.252 99.132ZM633.56 99.132C632.387 99.132 631.346 98.8753 630.436 98.362C629.527 97.8487 628.808 97.1447 628.28 96.25C627.752 95.3407 627.488 94.314 627.488 93.17C627.488 92.0113 627.752 90.9847 628.28 90.09C628.808 89.1953 629.527 88.4987 630.436 88C631.346 87.4867 632.387 87.23 633.56 87.23C634.719 87.23 635.753 87.4867 636.662 88C637.586 88.4987 638.305 89.1953 638.818 90.09C639.346 90.97 639.61 91.9967 639.61 93.17C639.61 94.3287 639.346 95.3553 638.818 96.25C638.305 97.1447 637.586 97.8487 636.662 98.362C635.753 98.8753 634.719 99.132 633.56 99.132ZM633.56 97.284C634.308 97.284 634.976 97.1153 635.562 96.778C636.164 96.4407 636.633 95.964 636.97 95.348C637.308 94.7173 637.476 93.9913 637.476 93.17C637.476 92.334 637.308 91.6153 636.97 91.014C636.633 90.398 636.164 89.9213 635.562 89.584C634.976 89.2467 634.308 89.078 633.56 89.078C632.812 89.078 632.145 89.2467 631.558 89.584C630.972 89.9213 630.502 90.398 630.15 91.014C629.798 91.6153 629.622 92.334 629.622 93.17C629.622 93.9913 629.798 94.7173 630.15 95.348C630.502 95.964 630.972 96.4407 631.558 96.778C632.145 97.1153 632.812 97.284 633.56 97.284ZM646.535 99.132C645.362 99.132 644.453 98.8167 643.807 98.186C643.162 97.5553 642.839 96.6533 642.839 95.48V84.788H644.951V95.392C644.951 96.0227 645.105 96.5067 645.413 96.844C645.736 97.1813 646.191 97.35 646.777 97.35C647.437 97.35 647.987 97.1667 648.427 96.8L649.087 98.318C648.765 98.5967 648.376 98.802 647.921 98.934C647.481 99.066 647.019 99.132 646.535 99.132ZM640.859 89.078V87.34H648.295V89.078H640.859Z" fill="white"/>
<path d="M181 92.18H649.637V93.28H181V92.18Z" fill="white"/>
<defs>
<linearGradient id="paint0_linear_2_195" x1="1.2567e-06" y1="86.9999" x2="742" y2="86.9999" gradientUnits="userSpaceOnUse">
<stop stop-color="#A1A8E1"/>
<stop offset="1" stop-color="#3B48B9"/>
</linearGradient>
</defs>
</svg>
