<svg width="744" height="235" viewBox="0 0 744 235" fill="none" xmlns="http://www.w3.org/2000/svg">
<path d="M1.87789 22.0652C0.873123 10.2592 10.2948 0.172964 22.1418 0.372006L723.479 12.1552C734.725 12.3442 743.604 21.7675 743.125 33.0056L735.318 215.853C734.86 226.557 726.05 235 715.336 235H38.3702C27.9819 235 19.3231 227.047 18.4422 216.696L1.87789 22.0652Z" fill="url(#paint0_linear_2_209)"/>
<path d="M40.158 73V54.8H48.036C49.6653 54.8 51.0693 55.0687 52.248 55.606C53.4267 56.126 54.3367 56.88 54.978 57.868C55.6193 58.856 55.94 60.0347 55.94 61.404C55.94 62.756 55.6193 63.926 54.978 64.914C54.3367 65.902 53.4267 66.6647 52.248 67.202C51.0693 67.722 49.6653 67.982 48.036 67.982H42.498L44.37 66.084V73H40.158ZM44.37 66.552L42.498 64.55H47.802C49.102 64.55 50.0727 64.2727 50.714 63.718C51.3553 63.1633 51.676 62.392 51.676 61.404C51.676 60.3987 51.3553 59.6187 50.714 59.064C50.0727 58.5093 49.102 58.232 47.802 58.232H42.498L44.37 56.23V66.552ZM71.4271 54.8H75.6391V73H71.4271V54.8ZM63.1591 73H58.9471V54.8H63.1591V73ZM71.7391 65.538H62.8471V61.976H71.7391V65.538ZM77.5531 73L85.6651 54.8H89.8251L97.9631 73H93.5431L86.8871 56.932H88.5511L81.8691 73H77.5531ZM81.6091 69.1L82.7271 65.902H92.0871L93.2311 69.1H81.6091ZM105.831 73.312C104.375 73.312 102.98 73.1213 101.645 72.74C100.311 72.3413 99.236 71.83 98.4214 71.206L99.8514 68.034C100.631 68.5887 101.55 69.048 102.607 69.412C103.682 69.7587 104.765 69.932 105.857 69.932C106.689 69.932 107.357 69.854 107.859 69.698C108.379 69.5247 108.761 69.2907 109.003 68.996C109.246 68.7013 109.367 68.3633 109.367 67.982C109.367 67.4967 109.177 67.1153 108.795 66.838C108.414 66.5433 107.911 66.3093 107.287 66.136C106.663 65.9453 105.97 65.772 105.207 65.616C104.462 65.4427 103.708 65.2347 102.945 64.992C102.2 64.7493 101.515 64.4373 100.891 64.056C100.267 63.6747 99.756 63.172 99.3574 62.548C98.976 61.924 98.7854 61.1267 98.7854 60.156C98.7854 59.116 99.0627 58.1713 99.6174 57.322C100.189 56.4553 101.039 55.7707 102.165 55.268C103.309 54.748 104.739 54.488 106.455 54.488C107.599 54.488 108.726 54.6267 109.835 54.904C110.945 55.164 111.924 55.5627 112.773 56.1L111.473 59.298C110.624 58.8127 109.775 58.4573 108.925 58.232C108.076 57.9893 107.244 57.868 106.429 57.868C105.615 57.868 104.947 57.9633 104.427 58.154C103.907 58.3447 103.535 58.596 103.309 58.908C103.084 59.2027 102.971 59.5493 102.971 59.948C102.971 60.416 103.162 60.7973 103.543 61.092C103.925 61.3693 104.427 61.5947 105.051 61.768C105.675 61.9413 106.36 62.1147 107.105 62.288C107.868 62.4613 108.622 62.6607 109.367 62.886C110.13 63.1113 110.823 63.4147 111.447 63.796C112.071 64.1773 112.574 64.68 112.955 65.304C113.354 65.928 113.553 66.7167 113.553 67.67C113.553 68.6927 113.267 69.6287 112.695 70.478C112.123 71.3273 111.265 72.012 110.121 72.532C108.995 73.052 107.565 73.312 105.831 73.312ZM120.305 62.132H129.067V65.408H120.305V62.132ZM120.617 69.62H130.523V73H116.431V54.8H130.185V58.18H120.617V69.62ZM139.886 69.178V66.344L148.466 54.8H152.886L144.488 66.344L142.434 65.746H156.76V69.178H139.886ZM149.688 73V69.178L149.818 65.746V62.34H153.796V73H149.688Z" fill="white"/>
<path d="M43.088 121.288C41.952 121.288 40.904 121.08 39.944 120.664C39 120.232 38.224 119.624 37.616 118.84L39.776 116.248C40.24 116.856 40.728 117.32 41.24 117.64C41.752 117.944 42.304 118.096 42.896 118.096C44.48 118.096 45.272 117.168 45.272 115.312V107.32H39.368V104.2H49.136V115.096C49.136 117.176 48.624 118.728 47.6 119.752C46.576 120.776 45.072 121.288 43.088 121.288ZM58.1604 121.192C57.0884 121.192 56.1284 120.984 55.2804 120.568C54.4484 120.152 53.8004 119.52 53.3364 118.672C52.8724 117.808 52.6404 116.712 52.6404 115.384V108.088H56.3844V114.832C56.3844 115.904 56.6084 116.696 57.0564 117.208C57.5204 117.704 58.1684 117.952 59.0004 117.952C59.5764 117.952 60.0884 117.832 60.5364 117.592C60.9844 117.336 61.3364 116.952 61.5924 116.44C61.8484 115.912 61.9764 115.256 61.9764 114.472V108.088H65.7204V121H62.1684V117.448L62.8164 118.48C62.3844 119.376 61.7444 120.056 60.8964 120.52C60.0644 120.968 59.1524 121.192 58.1604 121.192ZM77.0369 107.896C78.0609 107.896 78.9729 108.104 79.7729 108.52C80.5889 108.92 81.2289 109.544 81.6929 110.392C82.1569 111.224 82.3889 112.296 82.3889 113.608V121H78.6449V114.184C78.6449 113.144 78.4129 112.376 77.9489 111.88C77.5009 111.384 76.8609 111.136 76.0289 111.136C75.4369 111.136 74.9009 111.264 74.4209 111.52C73.9569 111.76 73.5889 112.136 73.3169 112.648C73.0609 113.16 72.9329 113.816 72.9329 114.616V121H69.1889V108.088H72.7649V111.664L72.0929 110.584C72.5569 109.72 73.2209 109.056 74.0849 108.592C74.9489 108.128 75.9329 107.896 77.0369 107.896ZM92.2844 121.192C90.8124 121.192 89.5164 120.904 88.3964 120.328C87.2924 119.752 86.4364 118.968 85.8284 117.976C85.2204 116.968 84.9164 115.824 84.9164 114.544C84.9164 113.248 85.2124 112.104 85.8044 111.112C86.4124 110.104 87.2364 109.32 88.2764 108.76C89.3164 108.184 90.4924 107.896 91.8044 107.896C93.0684 107.896 94.2044 108.168 95.2124 108.712C96.2364 109.24 97.0444 110.008 97.6364 111.016C98.2284 112.008 98.5244 113.2 98.5244 114.592C98.5244 114.736 98.5164 114.904 98.5004 115.096C98.4844 115.272 98.4684 115.44 98.4524 115.6H87.9644V113.416H96.4844L95.0444 114.064C95.0444 113.392 94.9084 112.808 94.6364 112.312C94.3644 111.816 93.9884 111.432 93.5084 111.16C93.0284 110.872 92.4684 110.728 91.8284 110.728C91.1884 110.728 90.6204 110.872 90.1244 111.16C89.6444 111.432 89.2684 111.824 88.9964 112.336C88.7244 112.832 88.5884 113.424 88.5884 114.112V114.688C88.5884 115.392 88.7404 116.016 89.0444 116.56C89.3644 117.088 89.8044 117.496 90.3644 117.784C90.9404 118.056 91.6124 118.192 92.3804 118.192C93.0684 118.192 93.6684 118.088 94.1804 117.88C94.7084 117.672 95.1884 117.36 95.6204 116.944L97.6124 119.104C97.0204 119.776 96.2764 120.296 95.3804 120.664C94.4844 121.016 93.4524 121.192 92.2844 121.192Z" fill="white"/>
<rect x="167" y="57" width="534" height="65" rx="10" fill="#757575" fill-opacity="0.4"/>
<rect x="167" y="141" width="534" height="65" rx="10" fill="#757575" fill-opacity="0.4"/>
<path d="M189.798 98.176C188.625 98.176 187.503 98 186.432 97.648C185.361 97.2813 184.518 96.812 183.902 96.24L184.716 94.524C185.303 95.0373 186.051 95.4627 186.96 95.8C187.869 96.1373 188.815 96.306 189.798 96.306C190.693 96.306 191.419 96.2033 191.976 95.998C192.533 95.7927 192.944 95.514 193.208 95.162C193.472 94.7953 193.604 94.3847 193.604 93.93C193.604 93.402 193.428 92.9767 193.076 92.654C192.739 92.3313 192.291 92.0747 191.734 91.884C191.191 91.6787 190.59 91.5027 189.93 91.356C189.27 91.2093 188.603 91.0407 187.928 90.85C187.268 90.6447 186.659 90.388 186.102 90.08C185.559 89.772 185.119 89.3613 184.782 88.848C184.445 88.32 184.276 87.6453 184.276 86.824C184.276 86.032 184.481 85.306 184.892 84.646C185.317 83.9713 185.963 83.436 186.828 83.04C187.708 82.6293 188.823 82.424 190.172 82.424C191.067 82.424 191.954 82.5413 192.834 82.776C193.714 83.0107 194.477 83.348 195.122 83.788L194.396 85.548C193.736 85.108 193.039 84.7927 192.306 84.602C191.573 84.3967 190.861 84.294 190.172 84.294C189.307 84.294 188.595 84.404 188.038 84.624C187.481 84.844 187.07 85.1373 186.806 85.504C186.557 85.8707 186.432 86.2813 186.432 86.736C186.432 87.2787 186.601 87.7113 186.938 88.034C187.29 88.3567 187.737 88.6133 188.28 88.804C188.837 88.9947 189.446 89.1707 190.106 89.332C190.766 89.4787 191.426 89.6473 192.086 89.838C192.761 90.0287 193.369 90.278 193.912 90.586C194.469 90.894 194.917 91.3047 195.254 91.818C195.591 92.3313 195.76 92.9913 195.76 93.798C195.76 94.5753 195.547 95.3013 195.122 95.976C194.697 96.636 194.037 97.1713 193.142 97.582C192.262 97.978 191.147 98.176 189.798 98.176ZM202.67 98.132C201.497 98.132 200.587 97.8167 199.942 97.186C199.297 96.5553 198.974 95.6533 198.974 94.48V83.788H201.086V94.392C201.086 95.0227 201.24 95.5067 201.548 95.844C201.871 96.1813 202.325 96.35 202.912 96.35C203.572 96.35 204.122 96.1667 204.562 95.8L205.222 97.318C204.899 97.5967 204.511 97.802 204.056 97.934C203.616 98.066 203.154 98.132 202.67 98.132ZM196.994 88.078V86.34H204.43V88.078H196.994ZM215.013 98V95.536L214.903 95.074V90.872C214.903 89.9773 214.639 89.288 214.111 88.804C213.598 88.3053 212.821 88.056 211.779 88.056C211.09 88.056 210.415 88.1733 209.755 88.408C209.095 88.628 208.538 88.9287 208.083 89.31L207.203 87.726C207.805 87.242 208.523 86.8753 209.359 86.626C210.21 86.362 211.097 86.23 212.021 86.23C213.62 86.23 214.852 86.6187 215.717 87.396C216.583 88.1733 217.015 89.3613 217.015 90.96V98H215.013ZM211.185 98.132C210.32 98.132 209.557 97.9853 208.897 97.692C208.252 97.3987 207.753 96.9953 207.401 96.482C207.049 95.954 206.873 95.36 206.873 94.7C206.873 94.0693 207.02 93.4973 207.313 92.984C207.621 92.4707 208.113 92.06 208.787 91.752C209.477 91.444 210.401 91.29 211.559 91.29H215.255V92.808H211.647C210.591 92.808 209.88 92.984 209.513 93.336C209.147 93.688 208.963 94.1133 208.963 94.612C208.963 95.184 209.191 95.646 209.645 95.998C210.1 96.3353 210.731 96.504 211.537 96.504C212.329 96.504 213.019 96.328 213.605 95.976C214.207 95.624 214.639 95.1107 214.903 94.436L215.321 95.888C215.043 96.5773 214.551 97.1273 213.847 97.538C213.143 97.934 212.256 98.132 211.185 98.132ZM226.006 98.132C224.818 98.132 223.755 97.8753 222.816 97.362C221.892 96.8487 221.166 96.1447 220.638 95.25C220.11 94.3553 219.846 93.3287 219.846 92.17C219.846 91.0113 220.11 89.9847 220.638 89.09C221.166 88.1953 221.892 87.4987 222.816 87C223.755 86.4867 224.818 86.23 226.006 86.23C227.062 86.23 228.001 86.4427 228.822 86.868C229.658 87.2787 230.303 87.8947 230.758 88.716L229.152 89.75C228.771 89.178 228.301 88.76 227.744 88.496C227.201 88.2173 226.615 88.078 225.984 88.078C225.221 88.078 224.539 88.2467 223.938 88.584C223.337 88.9213 222.86 89.398 222.508 90.014C222.156 90.6153 221.98 91.334 221.98 92.17C221.98 93.006 222.156 93.732 222.508 94.348C222.86 94.964 223.337 95.4407 223.938 95.778C224.539 96.1153 225.221 96.284 225.984 96.284C226.615 96.284 227.201 96.152 227.744 95.888C228.301 95.6093 228.771 95.184 229.152 94.612L230.758 95.624C230.303 96.4307 229.658 97.054 228.822 97.494C228.001 97.9193 227.062 98.132 226.006 98.132ZM235.058 95.184L235.102 92.478L241.812 86.34H244.364L239.216 91.4L238.072 92.368L235.058 95.184ZM233.342 98V81.676H235.454V98H233.342ZM242.252 98L237.676 92.324L239.04 90.63L244.848 98H242.252ZM246.898 98V86.34H249.01V98H246.898ZM247.954 84.096C247.544 84.096 247.199 83.964 246.92 83.7C246.656 83.436 246.524 83.1133 246.524 82.732C246.524 82.336 246.656 82.006 246.92 81.742C247.199 81.478 247.544 81.346 247.954 81.346C248.365 81.346 248.702 81.478 248.966 81.742C249.245 81.9913 249.384 82.3067 249.384 82.688C249.384 83.084 249.252 83.4213 248.988 83.7C248.724 83.964 248.38 84.096 247.954 84.096ZM259.269 86.23C260.222 86.23 261.058 86.4133 261.777 86.78C262.51 87.1467 263.082 87.704 263.493 88.452C263.904 89.2 264.109 90.146 264.109 91.29V98H261.997V91.532C261.997 90.4027 261.718 89.552 261.161 88.98C260.618 88.408 259.848 88.122 258.851 88.122C258.103 88.122 257.45 88.2687 256.893 88.562C256.336 88.8553 255.903 89.288 255.595 89.86C255.302 90.432 255.155 91.1433 255.155 91.994V98H253.043V86.34H255.067V89.486L254.737 88.65C255.118 87.8873 255.705 87.2933 256.497 86.868C257.289 86.4427 258.213 86.23 259.269 86.23ZM273.122 102.4C272.051 102.4 271.01 102.246 269.998 101.938C269 101.645 268.186 101.219 267.556 100.662L268.568 99.034C269.11 99.5033 269.778 99.87 270.57 100.134C271.362 100.413 272.19 100.552 273.056 100.552C274.434 100.552 275.446 100.229 276.092 99.584C276.737 98.9387 277.06 97.956 277.06 96.636V94.172L277.28 91.862L277.17 89.53V86.34H279.172V96.416C279.172 98.4693 278.658 99.98 277.632 100.948C276.605 101.916 275.102 102.4 273.122 102.4ZM272.858 97.516C271.728 97.516 270.716 97.2813 269.822 96.812C268.942 96.328 268.238 95.6607 267.71 94.81C267.196 93.9593 266.94 92.9767 266.94 91.862C266.94 90.7327 267.196 89.75 267.71 88.914C268.238 88.0633 268.942 87.4033 269.822 86.934C270.716 86.4647 271.728 86.23 272.858 86.23C273.855 86.23 274.764 86.4353 275.586 86.846C276.407 87.242 277.06 87.858 277.544 88.694C278.042 89.53 278.292 90.586 278.292 91.862C278.292 93.1233 278.042 94.172 277.544 95.008C277.06 95.844 276.407 96.4747 275.586 96.9C274.764 97.3107 273.855 97.516 272.858 97.516ZM273.1 95.668C273.877 95.668 274.566 95.5067 275.168 95.184C275.769 94.8613 276.238 94.414 276.576 93.842C276.928 93.27 277.104 92.61 277.104 91.862C277.104 91.114 276.928 90.454 276.576 89.882C276.238 89.31 275.769 88.87 275.168 88.562C274.566 88.2393 273.877 88.078 273.1 88.078C272.322 88.078 271.626 88.2393 271.01 88.562C270.408 88.87 269.932 89.31 269.58 89.882C269.242 90.454 269.074 91.114 269.074 91.862C269.074 92.61 269.242 93.27 269.58 93.842C269.932 94.414 270.408 94.8613 271.01 95.184C271.626 95.5067 272.322 95.668 273.1 95.668ZM303.701 86.23C304.64 86.23 305.469 86.4133 306.187 86.78C306.906 87.1467 307.463 87.704 307.859 88.452C308.27 89.2 308.475 90.146 308.475 91.29V98H306.363V91.532C306.363 90.4027 306.099 89.552 305.571 88.98C305.043 88.408 304.303 88.122 303.349 88.122C302.645 88.122 302.029 88.2687 301.501 88.562C300.973 88.8553 300.563 89.288 300.269 89.86C299.991 90.432 299.851 91.1433 299.851 91.994V98H297.739V91.532C297.739 90.4027 297.475 89.552 296.947 88.98C296.434 88.408 295.693 88.122 294.725 88.122C294.036 88.122 293.427 88.2687 292.899 88.562C292.371 88.8553 291.961 89.288 291.667 89.86C291.374 90.432 291.227 91.1433 291.227 91.994V98H289.115V86.34H291.139V89.442L290.809 88.65C291.176 87.8873 291.741 87.2933 292.503 86.868C293.266 86.4427 294.153 86.23 295.165 86.23C296.28 86.23 297.241 86.5087 298.047 87.066C298.854 87.6087 299.382 88.4373 299.631 89.552L298.773 89.2C299.125 88.3053 299.741 87.5867 300.621 87.044C301.501 86.5013 302.528 86.23 303.701 86.23ZM317.553 98.132C316.307 98.132 315.207 97.8753 314.253 97.362C313.315 96.8487 312.581 96.1447 312.053 95.25C311.54 94.3553 311.283 93.3287 311.283 92.17C311.283 91.0113 311.533 89.9847 312.031 89.09C312.545 88.1953 313.241 87.4987 314.121 87C315.016 86.4867 316.021 86.23 317.135 86.23C318.265 86.23 319.262 86.4793 320.127 86.978C320.993 87.4767 321.667 88.1807 322.151 89.09C322.65 89.9847 322.899 91.0333 322.899 92.236C322.899 92.324 322.892 92.4267 322.877 92.544C322.877 92.6613 322.87 92.7713 322.855 92.874H312.933V91.356H321.755L320.897 91.884C320.912 91.136 320.758 90.4687 320.435 89.882C320.113 89.2953 319.665 88.8407 319.093 88.518C318.536 88.1807 317.883 88.012 317.135 88.012C316.402 88.012 315.749 88.1807 315.177 88.518C314.605 88.8407 314.158 89.3027 313.835 89.904C313.513 90.4907 313.351 91.1653 313.351 91.928V92.28C313.351 93.0573 313.527 93.754 313.879 94.37C314.246 94.9713 314.752 95.4407 315.397 95.778C316.043 96.1153 316.783 96.284 317.619 96.284C318.309 96.284 318.932 96.1667 319.489 95.932C320.061 95.6973 320.56 95.3453 320.985 94.876L322.151 96.24C321.623 96.856 320.963 97.3253 320.171 97.648C319.394 97.9707 318.521 98.132 317.553 98.132ZM330.914 98.132C329.726 98.132 328.663 97.8753 327.724 97.362C326.8 96.8487 326.074 96.1447 325.546 95.25C325.018 94.3553 324.754 93.3287 324.754 92.17C324.754 91.0113 325.018 89.9847 325.546 89.09C326.074 88.1953 326.8 87.4987 327.724 87C328.663 86.4867 329.726 86.23 330.914 86.23C331.97 86.23 332.909 86.4427 333.73 86.868C334.566 87.2787 335.211 87.8947 335.666 88.716L334.06 89.75C333.679 89.178 333.209 88.76 332.652 88.496C332.109 88.2173 331.523 88.078 330.892 88.078C330.129 88.078 329.447 88.2467 328.846 88.584C328.245 88.9213 327.768 89.398 327.416 90.014C327.064 90.6153 326.888 91.334 326.888 92.17C326.888 93.006 327.064 93.732 327.416 94.348C327.768 94.964 328.245 95.4407 328.846 95.778C329.447 96.1153 330.129 96.284 330.892 96.284C331.523 96.284 332.109 96.152 332.652 95.888C333.209 95.6093 333.679 95.184 334.06 94.612L335.666 95.624C335.211 96.4307 334.566 97.054 333.73 97.494C332.909 97.9193 331.97 98.132 330.914 98.132ZM344.476 86.23C345.429 86.23 346.265 86.4133 346.984 86.78C347.717 87.1467 348.289 87.704 348.7 88.452C349.111 89.2 349.316 90.146 349.316 91.29V98H347.204V91.532C347.204 90.4027 346.925 89.552 346.368 88.98C345.825 88.408 345.055 88.122 344.058 88.122C343.31 88.122 342.657 88.2687 342.1 88.562C341.543 88.8553 341.11 89.288 340.802 89.86C340.509 90.432 340.362 91.1433 340.362 91.994V98H338.25V81.676H340.362V89.486L339.944 88.65C340.325 87.8873 340.912 87.2933 341.704 86.868C342.496 86.4427 343.42 86.23 344.476 86.23ZM360.463 98V95.536L360.353 95.074V90.872C360.353 89.9773 360.089 89.288 359.561 88.804C359.047 88.3053 358.27 88.056 357.229 88.056C356.539 88.056 355.865 88.1733 355.205 88.408C354.545 88.628 353.987 88.9287 353.533 89.31L352.653 87.726C353.254 87.242 353.973 86.8753 354.809 86.626C355.659 86.362 356.547 86.23 357.471 86.23C359.069 86.23 360.301 86.6187 361.167 87.396C362.032 88.1733 362.465 89.3613 362.465 90.96V98H360.463ZM356.635 98.132C355.769 98.132 355.007 97.9853 354.347 97.692C353.701 97.3987 353.203 96.9953 352.851 96.482C352.499 95.954 352.323 95.36 352.323 94.7C352.323 94.0693 352.469 93.4973 352.763 92.984C353.071 92.4707 353.562 92.06 354.237 91.752C354.926 91.444 355.85 91.29 357.009 91.29H360.705V92.808H357.097C356.041 92.808 355.329 92.984 354.963 93.336C354.596 93.688 354.413 94.1133 354.413 94.612C354.413 95.184 354.64 95.646 355.095 95.998C355.549 96.3353 356.18 96.504 356.987 96.504C357.779 96.504 358.468 96.328 359.055 95.976C359.656 95.624 360.089 95.1107 360.353 94.436L360.771 95.888C360.492 96.5773 360.001 97.1273 359.297 97.538C358.593 97.934 357.705 98.132 356.635 98.132ZM372.599 86.23C373.552 86.23 374.388 86.4133 375.107 86.78C375.84 87.1467 376.412 87.704 376.823 88.452C377.234 89.2 377.439 90.146 377.439 91.29V98H375.327V91.532C375.327 90.4027 375.048 89.552 374.491 88.98C373.948 88.408 373.178 88.122 372.181 88.122C371.433 88.122 370.78 88.2687 370.223 88.562C369.666 88.8553 369.233 89.288 368.925 89.86C368.632 90.432 368.485 91.1433 368.485 91.994V98H366.373V86.34H368.397V89.486L368.067 88.65C368.448 87.8873 369.035 87.2933 369.827 86.868C370.619 86.4427 371.543 86.23 372.599 86.23ZM381.348 98V86.34H383.46V98H381.348ZM382.404 84.096C381.993 84.096 381.648 83.964 381.37 83.7C381.106 83.436 380.974 83.1133 380.974 82.732C380.974 82.336 381.106 82.006 381.37 81.742C381.648 81.478 381.993 81.346 382.404 81.346C382.814 81.346 383.152 81.478 383.416 81.742C383.694 81.9913 383.834 82.3067 383.834 82.688C383.834 83.084 383.702 83.4213 383.438 83.7C383.174 83.964 382.829 84.096 382.404 84.096ZM392.574 98.132C391.386 98.132 390.323 97.8753 389.384 97.362C388.46 96.8487 387.734 96.1447 387.206 95.25C386.678 94.3553 386.414 93.3287 386.414 92.17C386.414 91.0113 386.678 89.9847 387.206 89.09C387.734 88.1953 388.46 87.4987 389.384 87C390.323 86.4867 391.386 86.23 392.574 86.23C393.63 86.23 394.569 86.4427 395.39 86.868C396.226 87.2787 396.872 87.8947 397.326 88.716L395.72 89.75C395.339 89.178 394.87 88.76 394.312 88.496C393.77 88.2173 393.183 88.078 392.552 88.078C391.79 88.078 391.108 88.2467 390.506 88.584C389.905 88.9213 389.428 89.398 389.076 90.014C388.724 90.6153 388.548 91.334 388.548 92.17C388.548 93.006 388.724 93.732 389.076 94.348C389.428 94.964 389.905 95.4407 390.506 95.778C391.108 96.1153 391.79 96.284 392.552 96.284C393.183 96.284 393.77 96.152 394.312 95.888C394.87 95.6093 395.339 95.184 395.72 94.612L397.326 95.624C396.872 96.4307 396.226 97.054 395.39 97.494C394.569 97.9193 393.63 98.132 392.574 98.132ZM403.405 98.132C402.437 98.132 401.513 98 400.633 97.736C399.767 97.472 399.085 97.1493 398.587 96.768L399.467 95.096C399.965 95.4333 400.581 95.7193 401.315 95.954C402.048 96.1887 402.796 96.306 403.559 96.306C404.541 96.306 405.245 96.1667 405.671 95.888C406.111 95.6093 406.331 95.2207 406.331 94.722C406.331 94.3553 406.199 94.0693 405.935 93.864C405.671 93.6587 405.319 93.5047 404.879 93.402C404.453 93.2993 403.977 93.2113 403.449 93.138C402.921 93.05 402.393 92.9473 401.865 92.83C401.337 92.698 400.853 92.522 400.413 92.302C399.973 92.0673 399.621 91.752 399.357 91.356C399.093 90.9453 398.961 90.4027 398.961 89.728C398.961 89.024 399.159 88.408 399.555 87.88C399.951 87.352 400.508 86.9487 401.227 86.67C401.96 86.3767 402.825 86.23 403.823 86.23C404.585 86.23 405.355 86.3253 406.133 86.516C406.925 86.692 407.57 86.9487 408.069 87.286L407.167 88.958C406.639 88.606 406.089 88.364 405.517 88.232C404.945 88.1 404.373 88.034 403.801 88.034C402.877 88.034 402.187 88.188 401.733 88.496C401.278 88.7893 401.051 89.1707 401.051 89.64C401.051 90.036 401.183 90.344 401.447 90.564C401.725 90.7693 402.077 90.9307 402.503 91.048C402.943 91.1653 403.427 91.268 403.955 91.356C404.483 91.4293 405.011 91.532 405.539 91.664C406.067 91.7813 406.543 91.95 406.969 92.17C407.409 92.39 407.761 92.698 408.025 93.094C408.303 93.49 408.443 94.018 408.443 94.678C408.443 95.382 408.237 95.9907 407.827 96.504C407.416 97.0173 406.837 97.4207 406.089 97.714C405.341 97.9927 404.446 98.132 403.405 98.132ZM424.228 98V95.536L424.118 95.074V90.872C424.118 89.9773 423.854 89.288 423.326 88.804C422.813 88.3053 422.036 88.056 420.994 88.056C420.305 88.056 419.63 88.1733 418.97 88.408C418.31 88.628 417.753 88.9287 417.298 89.31L416.418 87.726C417.02 87.242 417.738 86.8753 418.574 86.626C419.425 86.362 420.312 86.23 421.236 86.23C422.835 86.23 424.067 86.6187 424.932 87.396C425.798 88.1733 426.23 89.3613 426.23 90.96V98H424.228ZM420.4 98.132C419.535 98.132 418.772 97.9853 418.112 97.692C417.467 97.3987 416.968 96.9953 416.616 96.482C416.264 95.954 416.088 95.36 416.088 94.7C416.088 94.0693 416.235 93.4973 416.528 92.984C416.836 92.4707 417.328 92.06 418.002 91.752C418.692 91.444 419.616 91.29 420.774 91.29H424.47V92.808H420.862C419.806 92.808 419.095 92.984 418.728 93.336C418.362 93.688 418.178 94.1133 418.178 94.612C418.178 95.184 418.406 95.646 418.86 95.998C419.315 96.3353 419.946 96.504 420.752 96.504C421.544 96.504 422.234 96.328 422.82 95.976C423.422 95.624 423.854 95.1107 424.118 94.436L424.536 95.888C424.258 96.5773 423.766 97.1273 423.062 97.538C422.358 97.934 421.471 98.132 420.4 98.132ZM436.365 86.23C437.318 86.23 438.154 86.4133 438.873 86.78C439.606 87.1467 440.178 87.704 440.589 88.452C440.999 89.2 441.205 90.146 441.205 91.29V98H439.093V91.532C439.093 90.4027 438.814 89.552 438.257 88.98C437.714 88.408 436.944 88.122 435.947 88.122C435.199 88.122 434.546 88.2687 433.989 88.562C433.431 88.8553 432.999 89.288 432.691 89.86C432.397 90.432 432.251 91.1433 432.251 91.994V98H430.139V86.34H432.163V89.486L431.833 88.65C432.214 87.8873 432.801 87.2933 433.593 86.868C434.385 86.4427 435.309 86.23 436.365 86.23ZM449.931 98.132C448.802 98.132 447.79 97.8827 446.895 97.384C446.015 96.8853 445.319 96.1887 444.805 95.294C444.292 94.3993 444.035 93.358 444.035 92.17C444.035 90.982 444.292 89.948 444.805 89.068C445.319 88.1733 446.015 87.4767 446.895 86.978C447.79 86.4793 448.802 86.23 449.931 86.23C450.914 86.23 451.801 86.45 452.593 86.89C453.385 87.33 454.016 87.99 454.485 88.87C454.969 89.75 455.211 90.85 455.211 92.17C455.211 93.49 454.977 94.59 454.507 95.47C454.053 96.35 453.429 97.0173 452.637 97.472C451.845 97.912 450.943 98.132 449.931 98.132ZM450.107 96.284C450.841 96.284 451.501 96.1153 452.087 95.778C452.689 95.4407 453.158 94.964 453.495 94.348C453.847 93.7173 454.023 92.9913 454.023 92.17C454.023 91.334 453.847 90.6153 453.495 90.014C453.158 89.398 452.689 88.9213 452.087 88.584C451.501 88.2467 450.841 88.078 450.107 88.078C449.359 88.078 448.692 88.2467 448.105 88.584C447.519 88.9213 447.049 89.398 446.697 90.014C446.345 90.6153 446.169 91.334 446.169 92.17C446.169 92.9913 446.345 93.7173 446.697 94.348C447.049 94.964 447.519 95.4407 448.105 95.778C448.692 96.1153 449.359 96.284 450.107 96.284ZM454.089 98V94.854L454.221 92.148L454.001 89.442V81.676H456.113V98H454.089ZM470.044 98V92.104L470.55 93.468L463.928 82.6H466.282L471.848 91.774H470.572L476.16 82.6H478.338L471.738 93.468L472.222 92.104V98H470.044ZM479.897 98V86.34H482.009V98H479.897ZM480.953 84.096C480.542 84.096 480.197 83.964 479.919 83.7C479.655 83.436 479.523 83.1133 479.523 82.732C479.523 82.336 479.655 82.006 479.919 81.742C480.197 81.478 480.542 81.346 480.953 81.346C481.363 81.346 481.701 81.478 481.965 81.742C482.243 81.9913 482.383 82.3067 482.383 82.688C482.383 83.084 482.251 83.4213 481.987 83.7C481.723 83.964 481.378 84.096 480.953 84.096ZM491.233 98.132C489.986 98.132 488.886 97.8753 487.933 97.362C486.994 96.8487 486.261 96.1447 485.733 95.25C485.22 94.3553 484.963 93.3287 484.963 92.17C484.963 91.0113 485.212 89.9847 485.711 89.09C486.224 88.1953 486.921 87.4987 487.801 87C488.696 86.4867 489.7 86.23 490.815 86.23C491.944 86.23 492.942 86.4793 493.807 86.978C494.672 87.4767 495.347 88.1807 495.831 89.09C496.33 89.9847 496.579 91.0333 496.579 92.236C496.579 92.324 496.572 92.4267 496.557 92.544C496.557 92.6613 496.55 92.7713 496.535 92.874H486.613V91.356H495.435L494.577 91.884C494.592 91.136 494.438 90.4687 494.115 89.882C493.792 89.2953 493.345 88.8407 492.773 88.518C492.216 88.1807 491.563 88.012 490.815 88.012C490.082 88.012 489.429 88.1807 488.857 88.518C488.285 88.8407 487.838 89.3027 487.515 89.904C487.192 90.4907 487.031 91.1653 487.031 91.928V92.28C487.031 93.0573 487.207 93.754 487.559 94.37C487.926 94.9713 488.432 95.4407 489.077 95.778C489.722 96.1153 490.463 96.284 491.299 96.284C491.988 96.284 492.612 96.1667 493.169 95.932C493.741 95.6973 494.24 95.3453 494.665 94.876L495.831 96.24C495.303 96.856 494.643 97.3253 493.851 97.648C493.074 97.9707 492.201 98.132 491.233 98.132ZM499.512 98V81.676H501.624V98H499.512ZM510.474 98.132C509.345 98.132 508.333 97.8827 507.438 97.384C506.558 96.8853 505.862 96.1887 505.348 95.294C504.835 94.3993 504.578 93.358 504.578 92.17C504.578 90.982 504.835 89.948 505.348 89.068C505.862 88.1733 506.558 87.4767 507.438 86.978C508.333 86.4793 509.345 86.23 510.474 86.23C511.457 86.23 512.344 86.45 513.136 86.89C513.928 87.33 514.559 87.99 515.028 88.87C515.512 89.75 515.754 90.85 515.754 92.17C515.754 93.49 515.52 94.59 515.05 95.47C514.596 96.35 513.972 97.0173 513.18 97.472C512.388 97.912 511.486 98.132 510.474 98.132ZM510.65 96.284C511.384 96.284 512.044 96.1153 512.63 95.778C513.232 95.4407 513.701 94.964 514.038 94.348C514.39 93.7173 514.566 92.9913 514.566 92.17C514.566 91.334 514.39 90.6153 514.038 90.014C513.701 89.398 513.232 88.9213 512.63 88.584C512.044 88.2467 511.384 88.078 510.65 88.078C509.902 88.078 509.235 88.2467 508.648 88.584C508.062 88.9213 507.592 89.398 507.24 90.014C506.888 90.6153 506.712 91.334 506.712 92.17C506.712 92.9913 506.888 93.7173 507.24 94.348C507.592 94.964 508.062 95.4407 508.648 95.778C509.235 96.1153 509.902 96.284 510.65 96.284ZM514.632 98V94.854L514.764 92.148L514.544 89.442V81.676H516.656V98H514.632ZM532.743 98.132C531.745 98.132 530.843 97.912 530.037 97.472C529.245 97.0173 528.614 96.35 528.145 95.47C527.69 94.59 527.463 93.49 527.463 92.17C527.463 90.85 527.697 89.75 528.167 88.87C528.651 87.99 529.289 87.33 530.081 86.89C530.887 86.45 531.775 86.23 532.743 86.23C533.887 86.23 534.899 86.4793 535.779 86.978C536.659 87.4767 537.355 88.1733 537.869 89.068C538.382 89.948 538.639 90.982 538.639 92.17C538.639 93.358 538.382 94.3993 537.869 95.294C537.355 96.1887 536.659 96.8853 535.779 97.384C534.899 97.8827 533.887 98.132 532.743 98.132ZM526.561 98V81.676H528.673V89.442L528.453 92.148L528.585 94.854V98H526.561ZM532.567 96.284C533.315 96.284 533.982 96.1153 534.569 95.778C535.17 95.4407 535.639 94.964 535.977 94.348C536.329 93.7173 536.505 92.9913 536.505 92.17C536.505 91.334 536.329 90.6153 535.977 90.014C535.639 89.398 535.17 88.9213 534.569 88.584C533.982 88.2467 533.315 88.078 532.567 88.078C531.833 88.078 531.166 88.2467 530.565 88.584C529.978 88.9213 529.509 89.398 529.157 90.014C528.819 90.6153 528.651 91.334 528.651 92.17C528.651 92.9913 528.819 93.7173 529.157 94.348C529.509 94.964 529.978 95.4407 530.565 95.778C531.166 96.1153 531.833 96.284 532.567 96.284ZM546.551 98.132C545.377 98.132 544.336 97.8753 543.427 97.362C542.517 96.8487 541.799 96.1447 541.271 95.25C540.743 94.3407 540.479 93.314 540.479 92.17C540.479 91.0113 540.743 89.9847 541.271 89.09C541.799 88.1953 542.517 87.4987 543.427 87C544.336 86.4867 545.377 86.23 546.551 86.23C547.709 86.23 548.743 86.4867 549.653 87C550.577 87.4987 551.295 88.1953 551.809 89.09C552.337 89.97 552.601 90.9967 552.601 92.17C552.601 93.3287 552.337 94.3553 551.809 95.25C551.295 96.1447 550.577 96.8487 549.653 97.362C548.743 97.8753 547.709 98.132 546.551 98.132ZM546.551 96.284C547.299 96.284 547.966 96.1153 548.553 95.778C549.154 95.4407 549.623 94.964 549.961 94.348C550.298 93.7173 550.467 92.9913 550.467 92.17C550.467 91.334 550.298 90.6153 549.961 90.014C549.623 89.398 549.154 88.9213 548.553 88.584C547.966 88.2467 547.299 88.078 546.551 88.078C545.803 88.078 545.135 88.2467 544.549 88.584C543.962 88.9213 543.493 89.398 543.141 90.014C542.789 90.6153 542.613 91.334 542.613 92.17C542.613 92.9913 542.789 93.7173 543.141 94.348C543.493 94.964 543.962 95.4407 544.549 95.778C545.135 96.1153 545.803 96.284 546.551 96.284ZM553.441 98L558.457 91.488L558.435 92.566L553.661 86.34H556.015L559.667 91.136H558.765L562.417 86.34H564.727L559.887 92.61L559.909 91.488L564.969 98H562.571L558.721 92.896L559.579 93.028L555.795 98H553.441ZM578.286 102.4C577.215 102.4 576.174 102.246 575.162 101.938C574.164 101.645 573.35 101.219 572.72 100.662L573.732 99.034C574.274 99.5033 574.942 99.87 575.734 100.134C576.526 100.413 577.354 100.552 578.22 100.552C579.598 100.552 580.61 100.229 581.256 99.584C581.901 98.9387 582.224 97.956 582.224 96.636V94.172L582.444 91.862L582.334 89.53V86.34H584.336V96.416C584.336 98.4693 583.822 99.98 582.796 100.948C581.769 101.916 580.266 102.4 578.286 102.4ZM578.022 97.516C576.892 97.516 575.88 97.2813 574.986 96.812C574.106 96.328 573.402 95.6607 572.874 94.81C572.36 93.9593 572.104 92.9767 572.104 91.862C572.104 90.7327 572.36 89.75 572.874 88.914C573.402 88.0633 574.106 87.4033 574.986 86.934C575.88 86.4647 576.892 86.23 578.022 86.23C579.019 86.23 579.928 86.4353 580.75 86.846C581.571 87.242 582.224 87.858 582.708 88.694C583.206 89.53 583.456 90.586 583.456 91.862C583.456 93.1233 583.206 94.172 582.708 95.008C582.224 95.844 581.571 96.4747 580.75 96.9C579.928 97.3107 579.019 97.516 578.022 97.516ZM578.264 95.668C579.041 95.668 579.73 95.5067 580.332 95.184C580.933 94.8613 581.402 94.414 581.74 93.842C582.092 93.27 582.268 92.61 582.268 91.862C582.268 91.114 582.092 90.454 581.74 89.882C581.402 89.31 580.933 88.87 580.332 88.562C579.73 88.2393 579.041 88.078 578.264 88.078C577.486 88.078 576.79 88.2393 576.174 88.562C575.572 88.87 575.096 89.31 574.744 89.882C574.406 90.454 574.238 91.114 574.238 91.862C574.238 92.61 574.406 93.27 574.744 93.842C575.096 94.414 575.572 94.8613 576.174 95.184C576.79 95.5067 577.486 95.668 578.264 95.668ZM593.365 98.132C592.192 98.132 591.15 97.8753 590.241 97.362C589.332 96.8487 588.613 96.1447 588.085 95.25C587.557 94.3407 587.293 93.314 587.293 92.17C587.293 91.0113 587.557 89.9847 588.085 89.09C588.613 88.1953 589.332 87.4987 590.241 87C591.15 86.4867 592.192 86.23 593.365 86.23C594.524 86.23 595.558 86.4867 596.467 87C597.391 87.4987 598.11 88.1953 598.623 89.09C599.151 89.97 599.415 90.9967 599.415 92.17C599.415 93.3287 599.151 94.3553 598.623 95.25C598.11 96.1447 597.391 96.8487 596.467 97.362C595.558 97.8753 594.524 98.132 593.365 98.132ZM593.365 96.284C594.113 96.284 594.78 96.1153 595.367 95.778C595.968 95.4407 596.438 94.964 596.775 94.348C597.112 93.7173 597.281 92.9913 597.281 92.17C597.281 91.334 597.112 90.6153 596.775 90.014C596.438 89.398 595.968 88.9213 595.367 88.584C594.78 88.2467 594.113 88.078 593.365 88.078C592.617 88.078 591.95 88.2467 591.363 88.584C590.776 88.9213 590.307 89.398 589.955 90.014C589.603 90.6153 589.427 91.334 589.427 92.17C589.427 92.9913 589.603 93.7173 589.955 94.348C590.307 94.964 590.776 95.4407 591.363 95.778C591.95 96.1153 592.617 96.284 593.365 96.284ZM607.528 98.132C606.281 98.132 605.181 97.8753 604.228 97.362C603.289 96.8487 602.556 96.1447 602.028 95.25C601.515 94.3553 601.258 93.3287 601.258 92.17C601.258 91.0113 601.507 89.9847 602.006 89.09C602.519 88.1953 603.216 87.4987 604.096 87C604.991 86.4867 605.995 86.23 607.11 86.23C608.239 86.23 609.237 86.4793 610.102 86.978C610.967 87.4767 611.642 88.1807 612.126 89.09C612.625 89.9847 612.874 91.0333 612.874 92.236C612.874 92.324 612.867 92.4267 612.852 92.544C612.852 92.6613 612.845 92.7713 612.83 92.874H602.908V91.356H611.73L610.872 91.884C610.887 91.136 610.733 90.4687 610.41 89.882C610.087 89.2953 609.64 88.8407 609.068 88.518C608.511 88.1807 607.858 88.012 607.11 88.012C606.377 88.012 605.724 88.1807 605.152 88.518C604.58 88.8407 604.133 89.3027 603.81 89.904C603.487 90.4907 603.326 91.1653 603.326 91.928V92.28C603.326 93.0573 603.502 93.754 603.854 94.37C604.221 94.9713 604.727 95.4407 605.372 95.778C606.017 96.1153 606.758 96.284 607.594 96.284C608.283 96.284 608.907 96.1667 609.464 95.932C610.036 95.6973 610.535 95.3453 610.96 94.876L612.126 96.24C611.598 96.856 610.938 97.3253 610.146 97.648C609.369 97.9707 608.496 98.132 607.528 98.132ZM619.151 98.132C618.183 98.132 617.259 98 616.379 97.736C615.513 97.472 614.831 97.1493 614.333 96.768L615.213 95.096C615.711 95.4333 616.327 95.7193 617.061 95.954C617.794 96.1887 618.542 96.306 619.305 96.306C620.287 96.306 620.991 96.1667 621.417 95.888C621.857 95.6093 622.077 95.2207 622.077 94.722C622.077 94.3553 621.945 94.0693 621.681 93.864C621.417 93.6587 621.065 93.5047 620.625 93.402C620.199 93.2993 619.723 93.2113 619.195 93.138C618.667 93.05 618.139 92.9473 617.611 92.83C617.083 92.698 616.599 92.522 616.159 92.302C615.719 92.0673 615.367 91.752 615.103 91.356C614.839 90.9453 614.707 90.4027 614.707 89.728C614.707 89.024 614.905 88.408 615.301 87.88C615.697 87.352 616.254 86.9487 616.973 86.67C617.706 86.3767 618.571 86.23 619.569 86.23C620.331 86.23 621.101 86.3253 621.879 86.516C622.671 86.692 623.316 86.9487 623.815 87.286L622.913 88.958C622.385 88.606 621.835 88.364 621.263 88.232C620.691 88.1 620.119 88.034 619.547 88.034C618.623 88.034 617.933 88.188 617.479 88.496C617.024 88.7893 616.797 89.1707 616.797 89.64C616.797 90.036 616.929 90.344 617.193 90.564C617.471 90.7693 617.823 90.9307 618.249 91.048C618.689 91.1653 619.173 91.268 619.701 91.356C620.229 91.4293 620.757 91.532 621.285 91.664C621.813 91.7813 622.289 91.95 622.715 92.17C623.155 92.39 623.507 92.698 623.771 93.094C624.049 93.49 624.189 94.018 624.189 94.678C624.189 95.382 623.983 95.9907 623.573 96.504C623.162 97.0173 622.583 97.4207 621.835 97.714C621.087 97.9927 620.192 98.132 619.151 98.132ZM632.736 98V81.676H634.848V98H632.736ZM638.881 98V86.34H640.993V98H638.881ZM639.937 84.096C639.526 84.096 639.182 83.964 638.903 83.7C638.639 83.436 638.507 83.1133 638.507 82.732C638.507 82.336 638.639 82.006 638.903 81.742C639.182 81.478 639.526 81.346 639.937 81.346C640.348 81.346 640.685 81.478 640.949 81.742C641.228 81.9913 641.367 82.3067 641.367 82.688C641.367 83.084 641.235 83.4213 640.971 83.7C640.707 83.964 640.362 84.096 639.937 84.096ZM648.083 98L642.979 86.34H645.179L649.711 96.9H648.655L653.275 86.34H655.343L650.239 98H648.083ZM662.184 98.132C660.938 98.132 659.838 97.8753 658.884 97.362C657.946 96.8487 657.212 96.1447 656.684 95.25C656.171 94.3553 655.914 93.3287 655.914 92.17C655.914 91.0113 656.164 89.9847 656.662 89.09C657.176 88.1953 657.872 87.4987 658.752 87C659.647 86.4867 660.652 86.23 661.766 86.23C662.896 86.23 663.893 86.4793 664.758 86.978C665.624 87.4767 666.298 88.1807 666.782 89.09C667.281 89.9847 667.53 91.0333 667.53 92.236C667.53 92.324 667.523 92.4267 667.508 92.544C667.508 92.6613 667.501 92.7713 667.486 92.874H657.564V91.356H666.386L665.528 91.884C665.543 91.136 665.389 90.4687 665.066 89.882C664.744 89.2953 664.296 88.8407 663.724 88.518C663.167 88.1807 662.514 88.012 661.766 88.012C661.033 88.012 660.38 88.1807 659.808 88.518C659.236 88.8407 658.789 89.3027 658.466 89.904C658.144 90.4907 657.982 91.1653 657.982 91.928V92.28C657.982 93.0573 658.158 93.754 658.51 94.37C658.877 94.9713 659.383 95.4407 660.028 95.778C660.674 96.1153 661.414 96.284 662.25 96.284C662.94 96.284 663.563 96.1667 664.12 95.932C664.692 95.6973 665.191 95.3453 665.616 94.876L666.782 96.24C666.254 96.856 665.594 97.3253 664.802 97.648C664.025 97.9707 663.152 98.132 662.184 98.132Z" fill="white"/>
<path d="M183.286 182L189.688 173.266V174.96L183.638 166.6H186.146L190.942 173.178L189.952 173.2L194.726 166.6H197.124L191.118 174.828V173.244L197.52 182H194.99L189.886 174.982H190.854L185.816 182H183.286ZM205.987 182.132C204.989 182.132 204.087 181.912 203.281 181.472C202.489 181.017 201.858 180.35 201.389 179.47C200.934 178.59 200.707 177.49 200.707 176.17C200.707 174.85 200.941 173.75 201.411 172.87C201.895 171.99 202.533 171.33 203.325 170.89C204.131 170.45 205.019 170.23 205.987 170.23C207.131 170.23 208.143 170.479 209.023 170.978C209.903 171.477 210.599 172.173 211.113 173.068C211.626 173.948 211.883 174.982 211.883 176.17C211.883 177.358 211.626 178.399 211.113 179.294C210.599 180.189 209.903 180.885 209.023 181.384C208.143 181.883 207.131 182.132 205.987 182.132ZM199.805 182V165.676H201.917V173.442L201.697 176.148L201.829 178.854V182H199.805ZM205.811 180.284C206.559 180.284 207.226 180.115 207.813 179.778C208.414 179.441 208.883 178.964 209.221 178.348C209.573 177.717 209.749 176.991 209.749 176.17C209.749 175.334 209.573 174.615 209.221 174.014C208.883 173.398 208.414 172.921 207.813 172.584C207.226 172.247 206.559 172.078 205.811 172.078C205.077 172.078 204.41 172.247 203.809 172.584C203.222 172.921 202.753 173.398 202.401 174.014C202.063 174.615 201.895 175.334 201.895 176.17C201.895 176.991 202.063 177.717 202.401 178.348C202.753 178.964 203.222 179.441 203.809 179.778C204.41 180.115 205.077 180.284 205.811 180.284ZM219.795 182.132C218.621 182.132 217.58 181.875 216.671 181.362C215.761 180.849 215.043 180.145 214.515 179.25C213.987 178.341 213.723 177.314 213.723 176.17C213.723 175.011 213.987 173.985 214.515 173.09C215.043 172.195 215.761 171.499 216.671 171C217.58 170.487 218.621 170.23 219.795 170.23C220.953 170.23 221.987 170.487 222.897 171C223.821 171.499 224.539 172.195 225.053 173.09C225.581 173.97 225.845 174.997 225.845 176.17C225.845 177.329 225.581 178.355 225.053 179.25C224.539 180.145 223.821 180.849 222.897 181.362C221.987 181.875 220.953 182.132 219.795 182.132ZM219.795 180.284C220.543 180.284 221.21 180.115 221.797 179.778C222.398 179.441 222.867 178.964 223.205 178.348C223.542 177.717 223.711 176.991 223.711 176.17C223.711 175.334 223.542 174.615 223.205 174.014C222.867 173.398 222.398 172.921 221.797 172.584C221.21 172.247 220.543 172.078 219.795 172.078C219.047 172.078 218.379 172.247 217.793 172.584C217.206 172.921 216.737 173.398 216.385 174.014C216.033 174.615 215.857 175.334 215.857 176.17C215.857 176.991 216.033 177.717 216.385 178.348C216.737 178.964 217.206 179.441 217.793 179.778C218.379 180.115 219.047 180.284 219.795 180.284ZM228.766 182V170.34H230.79V173.508L230.592 172.716C230.914 171.909 231.457 171.293 232.22 170.868C232.982 170.443 233.921 170.23 235.036 170.23V172.276C234.948 172.261 234.86 172.254 234.772 172.254C234.698 172.254 234.625 172.254 234.552 172.254C233.422 172.254 232.528 172.591 231.868 173.266C231.208 173.941 230.878 174.916 230.878 176.192V182H228.766ZM242.635 186.4C241.565 186.4 240.523 186.246 239.511 185.938C238.514 185.645 237.7 185.219 237.069 184.662L238.081 183.034C238.624 183.503 239.291 183.87 240.083 184.134C240.875 184.413 241.704 184.552 242.569 184.552C243.948 184.552 244.96 184.229 245.605 183.584C246.251 182.939 246.573 181.956 246.573 180.636V178.172L246.793 175.862L246.683 173.53V170.34H248.685V180.416C248.685 182.469 248.172 183.98 247.145 184.948C246.119 185.916 244.615 186.4 242.635 186.4ZM242.371 181.516C241.242 181.516 240.23 181.281 239.335 180.812C238.455 180.328 237.751 179.661 237.223 178.81C236.71 177.959 236.453 176.977 236.453 175.862C236.453 174.733 236.71 173.75 237.223 172.914C237.751 172.063 238.455 171.403 239.335 170.934C240.23 170.465 241.242 170.23 242.371 170.23C243.369 170.23 244.278 170.435 245.099 170.846C245.921 171.242 246.573 171.858 247.057 172.694C247.556 173.53 247.805 174.586 247.805 175.862C247.805 177.123 247.556 178.172 247.057 179.008C246.573 179.844 245.921 180.475 245.099 180.9C244.278 181.311 243.369 181.516 242.371 181.516ZM242.613 179.668C243.391 179.668 244.08 179.507 244.681 179.184C245.283 178.861 245.752 178.414 246.089 177.842C246.441 177.27 246.617 176.61 246.617 175.862C246.617 175.114 246.441 174.454 246.089 173.882C245.752 173.31 245.283 172.87 244.681 172.562C244.08 172.239 243.391 172.078 242.613 172.078C241.836 172.078 241.139 172.239 240.523 172.562C239.922 172.87 239.445 173.31 239.093 173.882C238.756 174.454 238.587 175.114 238.587 175.862C238.587 176.61 238.756 177.27 239.093 177.842C239.445 178.414 239.922 178.861 240.523 179.184C241.139 179.507 241.836 179.668 242.613 179.668ZM258.937 182V169.306C258.937 168.162 259.267 167.253 259.927 166.578C260.602 165.889 261.555 165.544 262.787 165.544C263.242 165.544 263.674 165.603 264.085 165.72C264.51 165.823 264.87 165.991 265.163 166.226L264.525 167.832C264.305 167.656 264.056 167.524 263.777 167.436C263.498 167.333 263.205 167.282 262.897 167.282C262.281 167.282 261.812 167.458 261.489 167.81C261.166 168.147 261.005 168.653 261.005 169.328V170.89L261.049 171.858V182H258.937ZM256.957 172.078V170.34H264.393V172.078H256.957ZM273.408 182V179.536L273.298 179.074V174.872C273.298 173.977 273.034 173.288 272.506 172.804C271.993 172.305 271.215 172.056 270.174 172.056C269.485 172.056 268.81 172.173 268.15 172.408C267.49 172.628 266.933 172.929 266.478 173.31L265.598 171.726C266.199 171.242 266.918 170.875 267.754 170.626C268.605 170.362 269.492 170.23 270.416 170.23C272.015 170.23 273.247 170.619 274.112 171.396C274.977 172.173 275.41 173.361 275.41 174.96V182H273.408ZM269.58 182.132C268.715 182.132 267.952 181.985 267.292 181.692C266.647 181.399 266.148 180.995 265.796 180.482C265.444 179.954 265.268 179.36 265.268 178.7C265.268 178.069 265.415 177.497 265.708 176.984C266.016 176.471 266.507 176.06 267.182 175.752C267.871 175.444 268.795 175.29 269.954 175.29H273.65V176.808H270.042C268.986 176.808 268.275 176.984 267.908 177.336C267.541 177.688 267.358 178.113 267.358 178.612C267.358 179.184 267.585 179.646 268.04 179.998C268.495 180.335 269.125 180.504 269.932 180.504C270.724 180.504 271.413 180.328 272 179.976C272.601 179.624 273.034 179.111 273.298 178.436L273.716 179.888C273.437 180.577 272.946 181.127 272.242 181.538C271.538 181.934 270.651 182.132 269.58 182.132ZM279.318 182V170.34H281.342V173.508L281.144 172.716C281.467 171.909 282.01 171.293 282.772 170.868C283.535 170.443 284.474 170.23 285.588 170.23V172.276C285.5 172.261 285.412 172.254 285.324 172.254C285.251 172.254 285.178 172.254 285.104 172.254C283.975 172.254 283.08 172.591 282.42 173.266C281.76 173.941 281.43 174.916 281.43 176.192V182H279.318ZM302.777 170.23C303.716 170.23 304.545 170.413 305.263 170.78C305.982 171.147 306.539 171.704 306.935 172.452C307.346 173.2 307.551 174.146 307.551 175.29V182H305.439V175.532C305.439 174.403 305.175 173.552 304.647 172.98C304.119 172.408 303.379 172.122 302.425 172.122C301.721 172.122 301.105 172.269 300.577 172.562C300.049 172.855 299.639 173.288 299.345 173.86C299.067 174.432 298.927 175.143 298.927 175.994V182H296.815V175.532C296.815 174.403 296.551 173.552 296.023 172.98C295.51 172.408 294.769 172.122 293.801 172.122C293.112 172.122 292.503 172.269 291.975 172.562C291.447 172.855 291.037 173.288 290.743 173.86C290.45 174.432 290.303 175.143 290.303 175.994V182H288.191V170.34H290.215V173.442L289.885 172.65C290.252 171.887 290.817 171.293 291.579 170.868C292.342 170.443 293.229 170.23 294.241 170.23C295.356 170.23 296.317 170.509 297.123 171.066C297.93 171.609 298.458 172.437 298.707 173.552L297.849 173.2C298.201 172.305 298.817 171.587 299.697 171.044C300.577 170.501 301.604 170.23 302.777 170.23ZM311.438 182V170.34H313.55V182H311.438ZM312.494 168.096C312.083 168.096 311.738 167.964 311.46 167.7C311.196 167.436 311.064 167.113 311.064 166.732C311.064 166.336 311.196 166.006 311.46 165.742C311.738 165.478 312.083 165.346 312.494 165.346C312.904 165.346 313.242 165.478 313.506 165.742C313.784 165.991 313.924 166.307 313.924 166.688C313.924 167.084 313.792 167.421 313.528 167.7C313.264 167.964 312.919 168.096 312.494 168.096ZM323.808 170.23C324.761 170.23 325.597 170.413 326.316 170.78C327.049 171.147 327.621 171.704 328.032 172.452C328.443 173.2 328.648 174.146 328.648 175.29V182H326.536V175.532C326.536 174.403 326.257 173.552 325.7 172.98C325.157 172.408 324.387 172.122 323.39 172.122C322.642 172.122 321.989 172.269 321.432 172.562C320.875 172.855 320.442 173.288 320.134 173.86C319.841 174.432 319.694 175.143 319.694 175.994V182H317.582V170.34H319.606V173.486L319.276 172.65C319.657 171.887 320.244 171.293 321.036 170.868C321.828 170.443 322.752 170.23 323.808 170.23ZM337.661 186.4C336.59 186.4 335.549 186.246 334.537 185.938C333.539 185.645 332.725 185.219 332.095 184.662L333.107 183.034C333.649 183.503 334.317 183.87 335.109 184.134C335.901 184.413 336.729 184.552 337.595 184.552C338.973 184.552 339.985 184.229 340.631 183.584C341.276 182.939 341.599 181.956 341.599 180.636V178.172L341.819 175.862L341.709 173.53V170.34H343.711V180.416C343.711 182.469 343.197 183.98 342.171 184.948C341.144 185.916 339.641 186.4 337.661 186.4ZM337.397 181.516C336.267 181.516 335.255 181.281 334.361 180.812C333.481 180.328 332.777 179.661 332.249 178.81C331.735 177.959 331.479 176.977 331.479 175.862C331.479 174.733 331.735 173.75 332.249 172.914C332.777 172.063 333.481 171.403 334.361 170.934C335.255 170.465 336.267 170.23 337.397 170.23C338.394 170.23 339.303 170.435 340.125 170.846C340.946 171.242 341.599 171.858 342.083 172.694C342.581 173.53 342.831 174.586 342.831 175.862C342.831 177.123 342.581 178.172 342.083 179.008C341.599 179.844 340.946 180.475 340.125 180.9C339.303 181.311 338.394 181.516 337.397 181.516ZM337.639 179.668C338.416 179.668 339.105 179.507 339.707 179.184C340.308 178.861 340.777 178.414 341.115 177.842C341.467 177.27 341.643 176.61 341.643 175.862C341.643 175.114 341.467 174.454 341.115 173.882C340.777 173.31 340.308 172.87 339.707 172.562C339.105 172.239 338.416 172.078 337.639 172.078C336.861 172.078 336.165 172.239 335.549 172.562C334.947 172.87 334.471 173.31 334.119 173.882C333.781 174.454 333.613 175.114 333.613 175.862C333.613 176.61 333.781 177.27 334.119 177.842C334.471 178.414 334.947 178.861 335.549 179.184C336.165 179.507 336.861 179.668 337.639 179.668ZM359.836 182.132C358.868 182.132 357.981 181.912 357.174 181.472C356.382 181.017 355.744 180.35 355.26 179.47C354.791 178.59 354.556 177.49 354.556 176.17C354.556 174.85 354.784 173.75 355.238 172.87C355.708 171.99 356.338 171.33 357.13 170.89C357.937 170.45 358.839 170.23 359.836 170.23C360.98 170.23 361.992 170.479 362.872 170.978C363.752 171.477 364.449 172.173 364.962 173.068C365.476 173.948 365.732 174.982 365.732 176.17C365.732 177.358 365.476 178.399 364.962 179.294C364.449 180.189 363.752 180.885 362.872 181.384C361.992 181.883 360.98 182.132 359.836 182.132ZM353.654 186.268V170.34H355.678V173.486L355.546 176.192L355.766 178.898V186.268H353.654ZM359.66 180.284C360.408 180.284 361.076 180.115 361.662 179.778C362.264 179.441 362.733 178.964 363.07 178.348C363.422 177.717 363.598 176.991 363.598 176.17C363.598 175.334 363.422 174.615 363.07 174.014C362.733 173.398 362.264 172.921 361.662 172.584C361.076 172.247 360.408 172.078 359.66 172.078C358.927 172.078 358.26 172.247 357.658 172.584C357.072 172.921 356.602 173.398 356.25 174.014C355.913 174.615 355.744 175.334 355.744 176.17C355.744 176.991 355.913 177.717 356.25 178.348C356.602 178.964 357.072 179.441 357.658 179.778C358.26 180.115 358.927 180.284 359.66 180.284ZM373.644 182.132C372.471 182.132 371.43 181.875 370.52 181.362C369.611 180.849 368.892 180.145 368.364 179.25C367.836 178.341 367.572 177.314 367.572 176.17C367.572 175.011 367.836 173.985 368.364 173.09C368.892 172.195 369.611 171.499 370.52 171C371.43 170.487 372.471 170.23 373.644 170.23C374.803 170.23 375.837 170.487 376.746 171C377.67 171.499 378.389 172.195 378.902 173.09C379.43 173.97 379.694 174.997 379.694 176.17C379.694 177.329 379.43 178.355 378.902 179.25C378.389 180.145 377.67 180.849 376.746 181.362C375.837 181.875 374.803 182.132 373.644 182.132ZM373.644 180.284C374.392 180.284 375.06 180.115 375.646 179.778C376.248 179.441 376.717 178.964 377.054 178.348C377.392 177.717 377.56 176.991 377.56 176.17C377.56 175.334 377.392 174.615 377.054 174.014C376.717 173.398 376.248 172.921 375.646 172.584C375.06 172.247 374.392 172.078 373.644 172.078C372.896 172.078 372.229 172.247 371.642 172.584C371.056 172.921 370.586 173.398 370.234 174.014C369.882 174.615 369.706 175.334 369.706 176.17C369.706 176.991 369.882 177.717 370.234 178.348C370.586 178.964 371.056 179.441 371.642 179.778C372.229 180.115 372.896 180.284 373.644 180.284ZM387.609 182.132C386.436 182.132 385.395 181.875 384.485 181.362C383.576 180.849 382.857 180.145 382.329 179.25C381.801 178.341 381.537 177.314 381.537 176.17C381.537 175.011 381.801 173.985 382.329 173.09C382.857 172.195 383.576 171.499 384.485 171C385.395 170.487 386.436 170.23 387.609 170.23C388.768 170.23 389.802 170.487 390.711 171C391.635 171.499 392.354 172.195 392.867 173.09C393.395 173.97 393.659 174.997 393.659 176.17C393.659 177.329 393.395 178.355 392.867 179.25C392.354 180.145 391.635 180.849 390.711 181.362C389.802 181.875 388.768 182.132 387.609 182.132ZM387.609 180.284C388.357 180.284 389.025 180.115 389.611 179.778C390.213 179.441 390.682 178.964 391.019 178.348C391.357 177.717 391.525 176.991 391.525 176.17C391.525 175.334 391.357 174.615 391.019 174.014C390.682 173.398 390.213 172.921 389.611 172.584C389.025 172.247 388.357 172.078 387.609 172.078C386.861 172.078 386.194 172.247 385.607 172.584C385.021 172.921 384.551 173.398 384.199 174.014C383.847 174.615 383.671 175.334 383.671 176.17C383.671 176.991 383.847 177.717 384.199 178.348C384.551 178.964 385.021 179.441 385.607 179.778C386.194 180.115 386.861 180.284 387.609 180.284ZM396.58 182V165.676H398.692V182H396.58ZM408.633 182V165.676H410.745V182H408.633ZM414.777 182V170.34H416.889V182H414.777ZM415.833 168.096C415.423 168.096 415.078 167.964 414.799 167.7C414.535 167.436 414.403 167.113 414.403 166.732C414.403 166.336 414.535 166.006 414.799 165.742C415.078 165.478 415.423 165.346 415.833 165.346C416.244 165.346 416.581 165.478 416.845 165.742C417.124 165.991 417.263 166.307 417.263 166.688C417.263 167.084 417.131 167.421 416.867 167.7C416.603 167.964 416.259 168.096 415.833 168.096ZM423.98 182L418.876 170.34H421.076L425.608 180.9H424.552L429.172 170.34H431.24L426.136 182H423.98ZM438.081 182.132C436.834 182.132 435.734 181.875 434.781 181.362C433.842 180.849 433.109 180.145 432.581 179.25C432.067 178.355 431.811 177.329 431.811 176.17C431.811 175.011 432.06 173.985 432.559 173.09C433.072 172.195 433.769 171.499 434.649 171C435.543 170.487 436.548 170.23 437.663 170.23C438.792 170.23 439.789 170.479 440.655 170.978C441.52 171.477 442.195 172.181 442.679 173.09C443.177 173.985 443.427 175.033 443.427 176.236C443.427 176.324 443.419 176.427 443.405 176.544C443.405 176.661 443.397 176.771 443.383 176.874H433.461V175.356H442.283L441.425 175.884C441.439 175.136 441.285 174.469 440.963 173.882C440.64 173.295 440.193 172.841 439.621 172.518C439.063 172.181 438.411 172.012 437.663 172.012C436.929 172.012 436.277 172.181 435.705 172.518C435.133 172.841 434.685 173.303 434.363 173.904C434.04 174.491 433.879 175.165 433.879 175.928V176.28C433.879 177.057 434.055 177.754 434.407 178.37C434.773 178.971 435.279 179.441 435.925 179.778C436.57 180.115 437.311 180.284 438.147 180.284C438.836 180.284 439.459 180.167 440.017 179.932C440.589 179.697 441.087 179.345 441.513 178.876L442.679 180.24C442.151 180.856 441.491 181.325 440.699 181.648C439.921 181.971 439.049 182.132 438.081 182.132Z" fill="white"/>
<defs>
<linearGradient id="paint0_linear_2_209" x1="2" y1="117" x2="744" y2="117" gradientUnits="userSpaceOnUse">
<stop stop-color="#A1A8E1"/>
<stop offset="1" stop-color="#3B48B9"/>
</linearGradient>
</defs>
</svg>
