<svg width="401" height="168" viewBox="0 0 401 168" fill="none" xmlns="http://www.w3.org/2000/svg">
<g clip-path="url(#clip0_1184_225)">
<path d="M43.7173 126.959C42.6616 126.959 41.694 126.334 41.1661 125.351L2.36943 46.6326C1.75361 45.2027 2.28145 43.5051 3.77702 42.7905C5.09662 42.1648 6.76814 42.7009 7.47193 44.0412L43.7173 117.667L80.4904 43.952C81.1064 42.5224 82.7778 41.8967 84.1855 42.5224C85.5931 43.1478 86.2088 44.8454 85.5931 46.275C85.5931 46.3645 85.505 46.4538 85.505 46.543L46.1807 125.262C45.7407 126.334 44.7731 126.959 43.7173 126.959Z" fill="white"/>
<path d="M186.851 126.423C185.268 126.423 184.036 125.172 184.036 123.564V81.9261H244.474C253.272 81.9261 260.398 73.795 260.398 64.86C260.398 55.9247 253.272 48.6873 244.562 48.6873H186.851C185.268 48.7766 183.948 47.5258 183.86 46.0067C183.772 44.3983 185.003 43.0583 186.499 42.9688C186.587 42.9688 186.675 42.9688 186.851 42.9688H244.474C256.351 42.9688 266.028 52.7975 266.028 64.86C266.028 76.9225 256.351 87.6447 244.474 87.6447H189.666V123.653C189.666 125.172 188.434 126.423 186.851 126.423Z" fill="white"/>
<path d="M156.411 126.959H102.307C100.724 126.959 99.4922 125.708 99.4922 124.1C99.4922 122.491 100.724 121.241 102.307 121.241H156.411C165.561 121.241 172.951 113.735 172.951 104.443C172.951 95.15 165.561 87.6446 156.411 87.6446H121.662C109.433 87.6446 99.4922 77.5478 99.4922 65.1279C99.4922 52.7081 109.433 42.6113 121.662 42.6113H175.766C177.349 42.6113 178.581 43.8624 178.581 45.4708C178.581 47.0788 177.349 48.3299 175.766 48.3299H121.662C112.512 48.3299 105.122 55.8353 105.122 65.1279C105.122 74.4206 112.512 81.926 121.662 81.926H156.411C168.64 81.926 178.581 92.0228 178.581 104.532C178.581 116.862 168.64 126.959 156.411 126.959Z" fill="white"/>
<path d="M91.1361 126.424C89.5525 126.424 88.3208 125.173 88.3208 123.564V45.8286C88.233 44.2202 89.4644 42.8799 90.9602 42.7906C92.4556 42.7014 93.8633 43.9521 93.9511 45.4713C93.9511 45.5605 93.9511 45.6498 93.9511 45.8286V123.564C93.9511 125.173 92.7194 126.424 91.1361 126.424Z" fill="white"/>
<path d="M398.605 13.8402C398.693 15.1805 398.166 16.5208 397.196 17.5036C396.406 18.3078 395.79 19.0226 395.086 19.7374C394.382 20.4522 393.503 20.9883 392.534 21.2564C392.094 21.4351 391.744 21.6138 391.39 21.9712C389.63 23.3115 387.959 24.6517 386.288 26.0814C384.617 27.511 383.034 28.9406 381.363 30.281C380.747 30.6383 380.22 31.0851 379.866 31.7105C378.811 32.604 377.844 33.4081 376.874 34.3016C375.908 35.1953 374.853 36.0888 373.709 36.893C372.3 38.3225 370.894 39.6628 369.486 41.0924C368.077 42.4327 366.494 43.8623 365 45.2918L363.768 46.5429C363.329 46.9002 362.975 47.3471 362.536 47.7044L358.751 51.2785C357.519 52.44 356.29 53.5122 354.97 54.6737C354.882 54.7633 354.793 54.8525 354.793 54.8525C354.793 54.8525 354.705 54.8525 354.616 55.0313C353.738 56.729 352.506 58.1585 351.012 59.2308C349.515 60.3923 348.197 61.5538 346.877 62.8941L346.349 63.4302C346.172 63.609 346.084 63.7875 345.907 63.9663C345.733 64.4132 345.556 64.7705 345.206 65.1278C344.852 65.4854 344.413 65.664 343.974 65.664C343.181 65.932 342.476 66.3789 341.949 67.0938C341.333 67.6296 340.982 68.2553 340.805 69.0595C340.894 70.0422 341.07 71.1145 341.421 72.0079C341.775 72.9016 341.949 73.8843 341.949 74.8673C342.037 75.3139 342.126 75.7608 342.214 76.0288C342.302 76.3861 342.302 76.7438 342.302 77.1011C341.949 78.0838 342.126 79.2456 342.83 80.0498C342.918 80.2283 343.004 80.4071 343.092 80.5859C343.181 80.7644 343.269 80.9432 343.269 81.1217C343.092 82.194 343.269 83.3558 343.708 84.3385C344.147 85.4107 344.324 86.5722 344.147 87.6444C344.062 88.4486 344.147 89.3421 344.59 90.057C344.94 90.6824 345.291 91.3973 345.733 92.2015C345.907 92.7376 346.172 93.363 346.349 93.9884C346.611 94.5245 346.7 95.1499 346.7 95.7756C346.788 97.4732 347.139 99.0816 347.667 100.6C348.197 102.209 348.725 103.728 349.164 105.336C349.603 106.498 349.954 107.838 350.042 109.089C350.131 110.34 349.78 111.591 349.075 112.663C349.252 113.199 349.515 113.556 349.954 113.556C350.396 113.556 350.746 113.646 351.186 113.735C351.451 113.914 351.713 114.003 351.978 114.271C352.329 114.539 352.506 114.718 352.506 114.897C352.329 115.969 352.418 116.952 352.86 117.935C353.299 118.918 353.65 119.9 353.826 120.973C354.003 122.045 354.177 122.938 354.354 123.832C354.531 124.815 354.97 125.798 355.409 126.691C355.586 126.959 355.674 127.316 355.586 127.674C355.498 128.031 355.498 128.389 355.498 128.836C355.498 130.98 355.763 133.035 356.376 135.09C356.992 137.145 357.785 139.111 358.84 140.987C359.279 142.238 359.721 143.4 360.249 144.651C360.776 145.902 361.215 147.152 361.831 148.493C361.92 148.672 363.152 150.458 362.975 150.905C362.447 151.084 361.92 151.084 361.392 150.995C360.865 150.816 360.425 150.637 359.895 150.369C357.873 149.029 356.025 147.421 354.442 145.544C352.86 143.668 351.451 141.702 350.219 139.558C349.341 138.128 348.548 136.698 347.755 135.269C346.965 133.839 346.084 132.41 345.379 130.98C344.324 129.282 343.446 127.585 342.565 125.798C341.686 124.01 340.894 122.313 340.101 120.615C339.222 118.739 338.518 116.773 337.902 114.718C337.286 112.663 336.582 110.786 335.792 108.821C335.264 107.302 334.648 105.872 334.121 104.443C333.593 103.013 333.063 101.583 332.623 100.064C332.184 98.5454 331.745 97.2944 331.391 95.8648C331.041 94.4353 330.602 93.0949 330.248 91.6654C329.986 90.9505 329.546 89.8782 328.842 88.4486C328.314 87.2871 327.61 86.2149 326.729 85.2319C326.555 85.5895 326.378 85.8576 326.113 86.1256C325.851 86.3041 325.762 86.5722 325.674 86.9298C325.323 87.4659 324.884 88.0018 324.442 88.5379C324.003 89.074 323.475 89.4316 322.859 89.7889C321.45 90.7719 320.133 92.0227 319.078 93.4523C318.812 94.1672 318.285 94.7033 317.58 95.0606C317.053 95.3287 316.437 95.5968 315.821 95.8648C315.644 96.3117 315.47 96.8478 315.293 97.3839C315.116 97.9198 314.854 98.3666 314.415 98.724C313.622 99.7962 312.918 100.779 312.039 101.851C311.158 102.924 310.28 103.906 309.399 104.979C307.816 107.123 306.145 109.357 304.474 111.501C302.714 113.735 301.04 115.88 299.369 118.113C298.491 119.454 297.698 120.615 296.819 121.777C295.938 122.938 295.06 124.1 294.18 125.351C294.004 125.619 293.828 125.798 293.74 126.155C293.652 126.423 293.476 126.602 293.212 126.78C292.508 126.959 291.892 127.316 291.452 127.853C291.012 128.389 290.573 128.836 290.133 129.372C289.077 130.622 288.021 132.052 287.142 133.482C286.262 134.911 285.206 136.162 284.063 137.324C283.535 137.949 283.183 138.664 282.919 139.379C282.655 140.094 282.303 140.898 281.951 141.523C281.071 143.132 280.279 144.74 279.488 146.438C278.696 148.135 277.64 149.654 276.321 150.995C276.057 151.441 275.793 151.888 275.617 152.335C275.441 152.871 275.177 153.318 274.913 153.854C274.473 154.837 274.297 155.82 274.385 156.892C274.473 157.875 274.209 158.858 273.857 159.751C273.593 160.019 273.33 160.376 273.33 160.734C273.154 161.806 273.066 162.878 273.066 163.951C273.066 165.023 272.978 166.184 272.89 167.435L272.626 167.971C271.834 167.971 271.042 167.882 270.251 167.703C269.459 167.346 268.755 166.72 268.491 165.827C267.259 163.504 266.38 160.913 266.028 158.232C265.676 155.552 265.764 152.782 266.204 150.101C266.731 147.51 267.347 145.098 268.051 142.685C268.755 140.183 269.635 137.771 270.602 135.358C271.394 133.214 272.45 131.069 273.682 129.104C274.913 127.048 276.057 124.993 277.024 122.849C277.2 122.402 277.464 121.866 277.64 121.419C277.904 120.883 278.168 120.436 278.52 119.99C279.312 118.649 280.016 117.398 280.895 116.237C281.775 115.075 282.567 113.914 283.447 112.752C283.798 112.395 284.062 111.948 284.326 111.501L284.854 110.34C285.206 109.893 285.558 109.446 285.822 108.91C286.086 108.463 290.573 101.941 290.925 101.494C292.244 102.12 292.948 102.656 293.036 103.102C293.124 103.549 288.637 110.161 287.67 110.876L286.878 111.68C286.614 111.859 286.526 112.127 286.438 112.484C286.174 113.288 285.822 114.003 285.206 114.629C284.678 115.254 284.15 115.88 283.447 116.684C283.183 116.952 283.095 117.22 283.007 117.577C282.831 117.935 282.567 118.292 282.215 118.56C280.192 121.866 277.992 125.083 275.529 128.031C275.353 128.299 275.177 128.657 275.177 129.014C275.177 129.372 275.001 129.729 274.825 129.997C274.649 130.176 274.561 130.354 274.561 130.533C274.561 130.712 274.473 130.98 274.297 131.069C273.154 132.32 272.362 133.928 272.098 135.626C271.746 136.877 271.306 138.039 270.602 139.111C269.899 140.183 269.371 141.345 268.843 142.596C268.579 143.757 268.315 144.919 268.051 146.08C267.787 147.331 267.875 148.582 268.227 149.833C268.403 149.565 268.579 149.297 268.755 149.029C268.931 148.761 269.107 148.493 269.195 148.225C269.635 147.242 270.075 146.348 270.427 145.544C270.778 144.74 271.13 143.846 271.394 142.953C272.362 140.094 273.506 137.324 274.913 134.643C276.233 132.052 277.816 129.55 279.664 127.227C280.104 126.512 280.543 125.708 280.895 124.993C281.247 124.189 281.599 123.474 282.039 122.76C282.215 122.581 282.391 122.313 282.567 122.134C282.743 121.866 283.007 121.509 283.183 121.241C283.447 121.419 286.614 117.845 286.79 118.024C286.966 118.203 284.414 122.313 284.854 122.492C284.062 123.832 283.183 125.172 282.303 126.423C281.335 127.763 283.623 127.942 284.766 126.512C285.91 125.083 286.702 123.385 287.054 121.509C287.142 121.062 287.318 120.704 287.581 120.347C289.341 119.096 290.749 117.577 291.98 115.79C293.124 114.092 294.443 112.395 295.85 110.786C296.292 110.429 296.643 109.982 296.993 109.536C297.347 109 297.698 108.553 298.137 108.106C297.609 107.927 297.259 107.659 297.259 107.302C297.259 106.944 297.259 106.587 297.259 106.23C297.347 105.872 297.347 105.515 297.435 105.068C297.524 104.621 296.731 105.515 296.292 105.247C295.85 105.425 296.027 104.443 295.676 104.711C295.322 104.979 294.971 105.157 294.619 105.336C294.531 105.336 294.443 105.247 294.355 105.157L296.027 102.388C296.554 101.494 297.17 100.6 297.698 99.7069H298.225C298.314 100.064 298.402 100.422 298.402 100.779C298.402 101.137 299.018 100.422 299.107 100.958C299.723 100.868 299.811 101.673 300.25 101.315C300.689 100.958 301.04 100.511 301.394 100.064C301.744 99.6177 302.098 99.0816 302.449 98.5454C302.8 98.0093 303.33 97.652 303.858 97.3839C304.032 98.1878 303.769 98.992 303.242 99.5281C302.714 99.8858 302.272 100.332 301.921 100.779C301.656 101.226 301.305 101.762 301.04 102.298C300.778 102.834 300.339 103.46 299.985 103.996C300.778 104.174 301.217 104.174 301.482 103.906C301.744 103.638 302.01 103.37 302.272 103.013C302.888 102.03 303.681 101.137 304.474 100.332C305.264 99.5281 306.056 98.6347 306.761 97.7413C307.023 97.4732 307.288 97.2944 307.639 97.2051C307.993 97.1159 308.343 96.9371 308.606 96.7583C308.078 95.8648 306.672 95.8648 306.145 94.9714C306.407 94.8818 307.551 93.8991 307.816 93.8099C307.993 93.7203 308.255 93.6311 308.432 93.6311C308.959 93.5418 309.487 93.5418 310.015 93.5418C310.631 93.6311 311.247 93.5418 311.863 93.4523C312.918 93.1842 313.711 92.2908 313.799 91.2185C313.445 91.0397 313.095 90.8612 312.655 90.6824L311.423 90.1463C311.686 89.8782 312.039 89.6997 312.39 89.6101C312.741 89.5209 313.095 89.4316 313.445 89.2528C313.799 89.1636 314.061 88.8955 314.238 88.6274C314.415 88.2698 314.5 87.9125 314.5 87.4656C315.028 87.4656 315.47 87.5552 315.998 87.6444C316.348 87.8233 316.788 87.7337 317.23 87.5552C317.58 87.3764 317.931 87.0191 318.108 86.6618C318.373 86.2149 318.724 85.9468 319.163 85.6788C319.956 84.4277 320.834 83.3558 321.715 82.2835C322.594 81.2113 323.475 80.2283 324.353 79.156C324.795 78.7987 325.058 78.3518 325.323 77.8157C325.497 77.3691 325.323 76.833 324.884 76.2076C324.53 75.85 324.268 75.3139 324.268 74.7778C324.179 74.2416 324.091 73.7058 323.914 73.2589C323.563 72.3655 323.124 71.4718 322.508 70.6676V68.2553C322.066 68.0765 321.539 68.1658 321.276 68.4338C321.011 68.7914 320.66 69.1488 320.307 69.5061C320.133 69.6849 319.867 69.8637 319.605 70.0422C319.34 70.1318 319.078 70.3103 318.901 70.5783C318.635 70.0422 318.373 69.5061 318.196 68.8807C317.931 67.8977 318.285 66.915 319.078 66.3789L321.011 64.4132C321.715 63.8771 321.981 62.9836 321.715 62.1794C320.66 58.4266 319.691 54.6737 318.812 51.0104C317.931 47.3471 316.876 43.6835 315.909 40.1094C315.382 37.7864 314.677 35.3738 313.884 33.1401C313.095 30.9063 312.39 28.5832 311.686 26.2601C311.335 25.0091 310.981 23.8476 310.631 22.686C310.28 21.5245 309.926 20.3629 309.399 19.112C308.871 17.8611 308.52 16.4314 308.167 15.0911C307.816 13.7509 307.2 12.4106 306.495 11.1597C305.617 10.0875 305.703 9.01524 306.584 7.76433C307.462 6.5134 308.609 5.35184 309.752 5.9773C310.103 5.70924 310.454 6.33471 310.719 6.06665L311.423 5.35184C312.125 4.63702 313.183 4.27962 314.238 4.54768C314.854 4.72637 315.558 4.81574 316.26 4.72637C316.876 4.72637 317.492 4.63702 318.196 4.54768C318.989 4.27962 319.779 4.45833 320.395 4.99443C320.834 5.44118 321.45 6.15599 322.243 6.96015C322.42 7.13887 322.682 7.31755 322.947 7.40693C324.795 7.76433 326.027 8.65784 326.555 9.99812C327.083 11.3384 327.61 12.6786 328.049 14.0189C328.665 15.7166 329.281 17.4143 329.72 18.9332C330.16 20.5416 330.69 22.1499 331.129 23.7582V24.2943C331.129 26.5281 331.48 28.6726 332.184 30.8171C332.889 32.872 333.505 35.0165 334.032 37.0715C334.295 38.2333 334.56 39.216 334.822 40.199C335.087 41.1816 335.264 42.0754 335.438 43.0581L335.615 43.9515C335.703 44.2196 335.703 44.4876 335.792 44.7557C336.054 45.2026 336.67 45.2918 337.551 44.9345C338.341 44.5772 339.046 44.2196 339.75 43.6835C340.015 43.3261 340.278 42.9688 340.543 42.7008C340.805 42.3434 341.07 42.0754 341.421 41.8073C343.092 40.1094 344.763 38.5013 346.349 36.893C348.02 35.2846 349.515 33.4974 350.835 31.6213C351.539 30.6383 352.329 29.6554 353.21 28.7619C354.089 27.8684 355.058 26.9749 356.025 26.1707L364.207 18.3971C367.022 15.806 369.836 13.2148 372.828 10.7129C374.148 9.46199 375.469 8.30043 376.701 7.13887C377.93 5.9773 379.338 4.81574 380.57 3.83287C381.802 2.76064 383.208 1.77778 384.794 1.15232C385.495 0.884265 386.2 0.705562 386.993 0.616211C387.785 0.616211 388.487 0.884265 389.014 1.50973C389.63 1.95648 390.158 2.04583 390.6 1.68843C391.039 1.33102 391.567 1.33102 392.36 1.68843V2.58194C392.36 2.93935 393.15 3.29675 392.976 3.74352C393.503 3.92221 393.15 4.10093 393.677 4.27962C394.205 4.45833 394.735 4.63702 395.263 4.81574C395.79 4.99443 396.229 5.17315 396.669 5.44118C397.022 5.70924 397.108 6.15599 396.934 6.78146C396.934 7.13887 397.022 7.49627 397.196 7.76433C397.901 8.47915 398.34 9.37265 398.428 10.3555C398.254 11.8745 398.428 12.8574 398.605 13.8402ZM288.549 113.646C288.373 113.11 288.373 112.574 288.461 112.127C288.989 111.412 289.605 110.786 290.221 110.25C290.484 111.233 290.397 111.859 289.957 112.306C289.517 112.752 288.989 113.199 288.549 113.646ZM305.001 85.5C305.44 85.4107 305.703 85.0534 305.791 84.6065C305.791 84.0704 305.703 83.445 305.617 82.9089C307.111 81.0324 308.609 79.156 310.103 77.2799C311.597 75.4034 313.183 73.4378 314.766 71.4718C315.028 71.0252 318.547 67.0935 318.812 66.915C319.078 66.7362 319.605 66.915 320.307 67.3616C319.779 67.8977 315.998 72.0974 315.47 72.7228C314.943 73.3482 314.327 73.8843 313.799 74.5097C314.061 74.6885 314.327 74.8673 314.5 75.0458C314.677 75.2246 314.854 75.4035 315.028 75.582C314.943 76.4757 314.415 76.833 313.534 76.833C312.213 76.6542 311.774 77.1011 312.302 78.2626C312.655 78.7094 312.567 79.3348 312.125 79.6921C312.125 79.6921 312.039 79.7817 311.951 79.7817C311.512 80.4071 311.07 81.0325 310.631 81.5686C310.191 82.1047 309.752 82.5516 309.31 83.0877C309.136 83.2662 308.959 83.3558 308.783 83.5343C308.609 83.6238 308.343 83.8023 308.255 83.9811C306.935 85.768 305.617 87.5552 304.297 89.2528L300.162 94.5245C299.369 95.418 298.667 96.4009 297.963 97.2051C297.17 98.0986 296.554 99.1708 295.938 100.154C295.411 101.226 294.883 101.762 294.355 101.762C293.828 101.762 293.036 101.405 291.892 100.6C293.74 97.9198 295.676 95.3287 297.609 92.7376C299.546 90.1463 301.482 87.4659 303.416 84.6958C304.297 85.1426 304.736 85.4107 305.001 85.5ZM294.795 108.553C295.06 109.268 294.883 110.072 294.355 110.697C293.828 111.233 293.212 111.68 292.596 112.127C292.948 111.501 293.3 110.876 293.74 110.25C294.18 109.625 294.355 109.089 294.795 108.553ZM300.427 97.3839C300.339 97.2944 300.25 97.2051 300.25 97.2051C300.162 97.2051 300.073 97.1159 300.073 97.0263C300.866 96.2221 301.656 95.5075 302.537 94.8818C302.36 95.418 302.098 95.8648 301.656 96.2221C301.305 96.669 300.955 96.9371 300.427 97.3839ZM300.866 91.3078C300.955 91.1293 301.04 91.0397 301.217 90.8612C301.04 90.6824 300.955 90.5039 300.955 90.4143C300.778 90.5931 300.689 90.6824 300.601 90.9505C300.512 91.1293 300.427 91.3078 300.25 91.4866L300.512 91.7546C300.601 91.5758 300.778 91.4866 300.866 91.3078ZM302.714 94.7033C302.714 94.7926 302.714 94.7926 302.626 94.8818L302.714 94.7033ZM305.617 91.0397C305.264 91.8439 304.824 92.5588 304.297 93.1842L302.8 94.7033C302.888 93.8991 303.065 93.1842 303.504 92.4696C303.946 91.6654 304.736 91.1293 305.617 91.0397ZM306.233 89.6997C306.584 89.3421 306.935 88.9848 307.2 88.6274C307.288 88.6274 307.462 88.806 307.639 89.074C307.288 89.3421 306.935 89.7889 306.672 90.2358L306.233 89.6997ZM308.783 87.7337C308.609 86.8403 308.606 86.3937 308.694 86.2149C309.136 85.8576 309.575 85.5 310.191 85.3214C310.015 85.768 309.752 86.1256 309.487 86.4829C309.222 86.8403 308.959 87.2871 308.783 87.7337ZM310.365 85.3214L310.191 85.1426H310.365V85.3214ZM310.28 85.3214V85.1426L310.454 85.3214H310.28ZM310.365 85.1426C310.365 84.5173 310.542 83.8919 310.807 83.2662C311.247 82.7301 311.951 82.3728 312.655 82.3728L310.365 85.1426ZM313.884 81.3898C313.711 80.6751 313.799 79.9602 314.061 79.3348C314.766 78.6199 315.558 77.9053 316.348 77.2799L316.614 77.5476C316.174 78.0838 315.732 78.7094 315.293 79.3348C314.854 79.9602 314.415 80.5859 313.884 81.3898ZM317.053 81.1217C317.669 81.2113 318.108 81.8366 318.019 82.462C318.019 82.5516 317.931 82.6408 317.931 82.8196C317.404 82.7301 317.053 82.5516 317.053 82.2835C316.964 81.8366 316.964 81.4793 317.053 81.1217ZM320.133 77.9945C320.307 79.0668 320.307 79.0668 319.867 79.3348C319.428 79.6029 318.901 79.7817 318.462 79.9602C318.724 79.6029 318.989 79.156 319.163 78.7987C319.517 78.3518 319.779 78.5306 320.133 77.9945ZM318.724 76.1181C318.462 75.4035 318.462 74.8673 318.812 74.5993C319.251 74.3312 319.779 74.2416 320.395 74.2416C320.044 74.4205 320.221 74.8673 319.956 75.1354C319.691 75.4034 319.078 75.7608 318.724 76.1181ZM339.662 102.03C340.894 102.388 341.159 99.7069 341.07 99.0816C340.982 98.4559 340.805 97.7413 340.628 97.1159C340.454 96.5798 340.366 95.9541 340.278 95.3287C340.101 94.0779 339.927 92.8269 339.662 91.5758C339.485 90.9505 339.046 90.4143 338.518 90.057C338.341 89.8782 338.256 89.6997 338.256 89.4316C338.256 89.1636 337.463 86.751 337.375 85.6788C337.198 85.3214 337.024 84.9638 336.935 84.5173C336.759 84.1596 336.582 83.8023 336.408 83.3558C336.231 82.8196 336.054 82.194 335.969 81.5686C335.88 80.9432 335.615 80.3178 335.438 79.6921C335.176 79.6921 334.911 79.6921 334.56 79.8709C334.121 81.0325 333.944 82.3728 334.032 83.6238C334.121 84.8746 334.383 86.0361 334.911 87.1979C335.264 88.2698 335.615 89.2528 335.969 90.2358C336.319 91.3078 336.582 92.38 336.759 93.4523C336.935 94.0779 337.286 94.7033 337.725 95.3287C339.134 96.1329 339.75 97.5625 339.573 99.6177V100.868C339.485 101.137 339.573 101.583 339.662 102.03ZM352.86 42.3434C354.266 41.1816 355.674 39.9309 356.906 38.5013C356.818 37.7864 356.553 37.161 356.114 36.6249C354.354 37.8757 352.771 39.3055 351.186 40.8243C350.042 41.8966 348.899 42.9688 347.755 44.1303L344.501 47.4363C343.708 48.1513 343.092 48.8659 342.653 49.4916C342.214 50.117 341.598 50.7423 340.894 51.3677C340.631 51.8146 340.366 52.2614 340.189 52.6188C340.015 52.9761 340.101 53.4229 340.628 53.8695C341.333 53.691 341.949 53.423 342.476 52.9761C343.004 52.5295 343.446 51.9934 343.885 51.4573L346.523 48.7766C346.7 48.5978 346.965 48.4193 347.227 48.1513C347.493 47.9725 347.755 47.7044 347.932 47.3471C348.459 46.2748 349.164 45.2918 350.131 44.4876C350.923 43.8623 351.89 43.0581 352.86 42.3434ZM340.015 62.0899C340.717 61.8218 342.126 59.7669 342.388 59.4096C342.742 59.052 342.918 58.5158 342.83 57.9797C342.388 58.2478 341.949 58.5158 341.598 58.8734C340.982 59.9457 340.543 61.0176 340.015 62.0899ZM342.476 109C342.742 108.374 342.742 107.838 342.476 107.48C342.214 107.123 341.86 106.855 341.51 106.587C341.421 107.034 341.333 107.48 341.333 108.017C341.333 108.463 341.686 108.821 342.476 109ZM349.954 132.052C348.81 129.461 347.755 126.959 346.611 124.368C345.468 121.777 343.974 119.364 342.126 117.309C342.476 118.65 341.775 118.203 341.686 119.543C341.598 120.883 344.678 124.904 345.645 126.155C346.084 126.602 346.438 127.227 346.523 127.853C346.611 128.478 346.877 129.014 347.316 129.55C348.371 131.159 348.371 131.963 349.164 133.75C349.954 135.537 350.131 137.145 351.451 138.396C351.802 138.843 352.155 139.379 352.418 139.915C352.683 140.451 352.945 140.898 353.299 141.434C353.738 141.97 354.003 142.506 354.354 143.042C354.705 143.668 354.793 141.613 354.266 140.987C353.738 140.272 353.299 139.468 353.034 138.575C352.418 137.503 351.89 136.43 351.713 135.18C351.451 133.928 350.835 132.856 349.954 132.052ZM363.414 32.2466C363.502 32.0678 363.591 31.7998 363.591 31.6213C363.591 31.3532 363.679 31.0851 363.768 30.8171C362.447 30.9956 361.215 31.6213 360.249 32.604C359.194 33.4974 358.489 34.7485 358.224 36.0888C358.751 35.91 359.279 35.5526 359.721 35.1953C360.337 34.7485 361.039 34.2123 361.655 33.6762C362.271 33.1401 362.798 32.7828 363.414 32.2466Z" fill="url(#paint0_linear_1184_225)"/>
</g>
<defs>
<linearGradient id="paint0_linear_1184_225" x1="388.516" y1="24.6713" x2="321.144" y2="90.9957" gradientUnits="userSpaceOnUse">
<stop stop-color="#12DEF6"/>
<stop offset="0.12" stop-color="#18E0FF"/>
<stop offset="0.29" stop-color="#2BD3FD"/>
<stop offset="0.49" stop-color="#4FBAFB"/>
<stop offset="0.72" stop-color="#8892F9"/>
<stop offset="0.96" stop-color="#E04EF1"/>
<stop offset="1" stop-color="#EF40EA"/>
</linearGradient>
<clipPath id="clip0_1184_225">
<rect width="400.835" height="167.355" fill="white" transform="translate(0.078125 0.616211)"/>
</clipPath>
</defs>
</svg>
