<svg width="26" height="47" viewBox="0 0 26 47" fill="none" xmlns="http://www.w3.org/2000/svg">
<path d="M5.55664 40H4.44922V32.877C4.44922 32.2845 4.46745 31.724 4.50391 31.1953C4.4082 31.291 4.30111 31.3913 4.18262 31.4961C4.06413 31.6009 3.52181 32.0452 2.55566 32.8291L1.9541 32.0498L4.59961 30.0059H5.55664V40ZM15.9883 34.9893C15.9883 36.7165 15.7148 38.0062 15.168 38.8584C14.6257 39.7106 13.7939 40.1367 12.6729 40.1367C11.5973 40.1367 10.7793 39.7015 10.2188 38.8311C9.6582 37.9561 9.37793 36.6755 9.37793 34.9893C9.37793 33.2484 9.64909 31.9564 10.1914 31.1133C10.7337 30.2702 11.5609 29.8486 12.6729 29.8486C13.7575 29.8486 14.5801 30.2884 15.1406 31.168C15.7057 32.0475 15.9883 33.3213 15.9883 34.9893ZM10.5264 34.9893C10.5264 36.443 10.6973 37.5026 11.0391 38.168C11.3809 38.8288 11.9255 39.1592 12.6729 39.1592C13.4294 39.1592 13.9762 38.8242 14.3135 38.1543C14.6553 37.4798 14.8262 36.4248 14.8262 34.9893C14.8262 33.5537 14.6553 32.5033 14.3135 31.8379C13.9762 31.168 13.4294 30.833 12.6729 30.833C11.9255 30.833 11.3809 31.1634 11.0391 31.8242C10.6973 32.4805 10.5264 33.5355 10.5264 34.9893ZM24 34.9893C24 36.7165 23.7266 38.0062 23.1797 38.8584C22.6374 39.7106 21.8057 40.1367 20.6846 40.1367C19.609 40.1367 18.791 39.7015 18.2305 38.8311C17.6699 37.9561 17.3896 36.6755 17.3896 34.9893C17.3896 33.2484 17.6608 31.9564 18.2031 31.1133C18.7454 30.2702 19.5726 29.8486 20.6846 29.8486C21.7692 29.8486 22.5918 30.2884 23.1523 31.168C23.7174 32.0475 24 33.3213 24 34.9893ZM18.5381 34.9893C18.5381 36.443 18.709 37.5026 19.0508 38.168C19.3926 38.8288 19.9372 39.1592 20.6846 39.1592C21.4411 39.1592 21.988 38.8242 22.3252 38.1543C22.667 37.4798 22.8379 36.4248 22.8379 34.9893C22.8379 33.5537 22.667 32.5033 22.3252 31.8379C21.988 31.168 21.4411 30.833 20.6846 30.833C19.9372 30.833 19.3926 31.1634 19.0508 31.8242C18.709 32.4805 18.5381 33.5355 18.5381 34.9893Z" fill="white"/>
<path d="M22.2129 3.40179C21.7002 2.8891 21.0916 2.48241 20.4217 2.20495C19.7519 1.92748 19.034 1.78467 18.3089 1.78467C17.5839 1.78467 16.8659 1.92748 16.1961 2.20495C15.5262 2.48241 14.9176 2.8891 14.4049 3.40179L13.6159 4.19079C13.4323 4.37424 13.1834 4.47728 12.9239 4.47728C12.6644 4.47728 12.4155 4.37424 12.2319 4.19079L11.4429 3.40179C10.4075 2.36639 9.0032 1.78471 7.53891 1.78471C6.07463 1.78471 4.67032 2.36639 3.63491 3.40179C2.59951 4.4372 2.01782 5.84151 2.01782 7.30579C2.01782 8.77008 2.59951 10.1744 3.63491 11.2098L5.11291 12.6908L12.9129 20.4998L20.7209 12.6918L22.2129 11.2088C23.248 10.1734 23.8295 8.76934 23.8295 7.30529C23.8295 5.84125 23.248 4.43715 22.2129 3.40179Z" fill="white" stroke="white" stroke-width="2" stroke-miterlimit="10" stroke-linecap="round"/>
</svg>
