<svg width="32" height="32" viewBox="0 0 32 32" fill="none" xmlns="http://www.w3.org/2000/svg">
<path d="M29.3538 21.7187V5.32585C29.3538 4.35794 28.5664 3.57052 27.5985 3.57052H23.426V2.99499C23.426 2.04297 22.6514 1.26843 21.6994 1.26843C20.7474 1.26843 19.9728 2.04297 19.9728 2.99499V3.57052H10.6494V2.99499C10.6494 2.04297 9.87488 1.26843 8.92285 1.26843C7.97082 1.26843 7.19629 2.04297 7.19629 2.99499V3.57052H3.02376C2.05591 3.57052 1.26842 4.35794 1.26842 5.32585V26.6777C1.26842 27.6456 2.05591 28.433 3.02376 28.433H10.8682C11.186 28.433 11.4437 28.1754 11.4437 27.8575C11.4437 27.5396 11.186 27.282 10.8682 27.282H3.02376C2.69054 27.282 2.41947 27.0109 2.41947 26.6777V5.32585C2.41947 4.99263 2.69054 4.72156 3.02376 4.72156H7.19629V5.29708C7.19629 6.2491 7.97082 7.02364 8.92285 7.02364C9.87488 7.02364 10.6494 6.2491 10.6494 5.29708V4.72156H19.9728V5.29708C19.9728 6.2491 20.7474 7.02364 21.6994 7.02364C22.6514 7.02364 23.426 6.2491 23.426 5.29708V4.72156H27.5985C27.9317 4.72156 28.2028 4.99263 28.2028 5.32585V8.17468H6.44811C6.13031 8.17468 5.87259 8.43234 5.87259 8.7502C5.87259 9.06806 6.13031 9.32572 6.44811 9.32572H28.2028V20.7462C27.7128 20.4371 27.1701 20.2046 26.5913 20.0653V11.5127C26.5913 11.1948 26.3336 10.9372 26.0158 10.9372H4.60644C4.28864 10.9372 4.03092 11.1948 4.03092 11.5127V25.095C4.03092 25.4129 4.28864 25.6705 4.60644 25.6705H19.9266C19.9624 26.2354 20.085 26.777 20.2817 27.282H15.4723C15.1545 27.282 14.8968 27.5396 14.8968 27.8575C14.8968 28.1754 15.1545 28.433 15.4723 28.433H20.8996C21.8795 29.8243 23.4979 30.7351 25.3252 30.7351C28.3082 30.7351 30.7351 28.3082 30.7351 25.3252C30.7351 23.9408 30.2122 22.6765 29.3538 21.7187ZM9.49837 5.29708C9.49837 5.61442 9.24019 5.8726 8.92285 5.8726C8.60551 5.8726 8.34733 5.61442 8.34733 5.29708V2.99499C8.34733 2.67765 8.60551 2.41947 8.92285 2.41947C9.24019 2.41947 9.49837 2.67765 9.49837 2.99499V5.29708ZM22.2749 5.29708C22.2749 5.61442 22.0168 5.8726 21.6994 5.8726C21.3821 5.8726 21.1239 5.61442 21.1239 5.29708V2.99499C21.1239 2.67765 21.3821 2.41947 21.6994 2.41947C22.0168 2.41947 22.2749 2.67765 22.2749 2.99499V5.29708ZM25.3252 19.9153C25.0576 19.9153 24.7946 19.9352 24.5373 19.9729H22.3095V16.6348H25.4403V19.9167C25.402 19.9159 25.3637 19.9153 25.3252 19.9153ZM19.9753 24.5195H18.0276V21.1239H21.1584V21.8786C20.5447 22.6193 20.1244 23.5256 19.9753 24.5195ZM5.18197 16.6348H8.3128V19.9729H5.18197V16.6348ZM9.46384 16.6348H12.5947V19.9729H9.46384V16.6348ZM18.0276 16.6348H21.1584V19.9729H18.0276V16.6348ZM16.8765 19.9729H13.7457V16.6348H16.8765V19.9729ZM18.0276 15.4838V12.0882H21.1584V15.4838H18.0276ZM16.8765 15.4838H13.7457V12.0882H16.8765V15.4838ZM12.5947 15.4838H9.46384V12.0882H12.5947V15.4838ZM12.5947 21.1239V24.5195H9.46384V21.1239H12.5947ZM13.7457 21.1239H16.8765V24.5195H13.7457V21.1239ZM25.4403 15.4838H22.3095V12.0882H25.4403V15.4838ZM8.3128 12.0882V15.4838H5.18197V12.0882H8.3128ZM5.18197 21.1239H8.3128V24.5195H5.18197V21.1239ZM25.3252 29.5841C22.9768 29.5841 21.0663 27.6736 21.0663 25.3252C21.0663 22.9768 22.9768 21.0663 25.3252 21.0663C27.6735 21.0663 29.584 22.9768 29.584 25.3252C29.584 27.6736 27.6735 29.5841 25.3252 29.5841Z" fill="white"/>
<path d="M26.9899 23.9303L25.2099 25.7103L24.4179 24.9183C24.1932 24.6935 23.8289 24.6935 23.6039 24.9183C23.3792 25.143 23.3792 25.5074 23.6039 25.7322L24.8029 26.9312C24.9109 27.0391 25.0572 27.0997 25.2098 27.0997C25.3625 27.0997 25.5088 27.0391 25.6168 26.9312L27.8038 24.7442C28.0285 24.5194 28.0285 24.155 27.8038 23.9302C27.579 23.7055 27.2147 23.7055 26.9899 23.9303Z" fill="white"/>
<path d="M13.1696 27.2819C13.0183 27.2819 12.8698 27.3435 12.7627 27.4505C12.6558 27.5576 12.5941 27.7061 12.5941 27.8574C12.5941 28.0088 12.6557 28.1573 12.7627 28.2643C12.8698 28.3714 13.0183 28.433 13.1696 28.433C13.321 28.433 13.4695 28.3714 13.5765 28.2643C13.6835 28.1573 13.7452 28.0088 13.7452 27.8574C13.7452 27.7061 13.6836 27.5576 13.5765 27.4505C13.4695 27.3435 13.321 27.2819 13.1696 27.2819Z" fill="white"/>
<path d="M4.55286 9.1571C4.65997 9.05005 4.72155 8.90157 4.72155 8.7502C4.72155 8.59884 4.65997 8.45036 4.55286 8.34331C4.44587 8.23626 4.29739 8.17468 4.14603 8.17468C3.99403 8.17468 3.84618 8.23626 3.73913 8.34331C3.63209 8.45036 3.57051 8.59884 3.57051 8.7502C3.57051 8.90157 3.63203 9.05005 3.73913 9.1571C3.84624 9.26414 3.99403 9.32572 4.14603 9.32572C4.29739 9.32572 4.44587 9.26414 4.55286 9.1571Z" fill="white"/>
</svg>
