<svg width="32" height="32" viewBox="0 0 32 32" fill="none" xmlns="http://www.w3.org/2000/svg">
<g clip-path="url(#clip0)">
<path d="M16.3405 26.5025C16.3468 26.4953 16.353 26.4882 16.359 26.4808L27.0305 13.4296C27.1653 13.2663 27.166 13.0284 27.0408 12.8637L25.9565 11.379C25.8076 11.1751 25.5216 11.1304 25.3176 11.2794C25.1137 11.4284 25.0691 11.7144 25.2181 11.9183L25.7765 12.683H20.4605L23.1185 9.04332L23.7939 9.96802C23.9428 10.1719 24.2288 10.2166 24.4328 10.0676C24.6367 9.91864 24.6813 9.6326 24.5323 9.42867L23.4878 7.99833C23.4033 7.88231 23.2617 7.80994 23.1165 7.8108H8.88593C8.74626 7.8108 8.59745 7.88646 8.51496 8.00076L4.96354 12.8638C4.83845 13.0283 4.83912 13.2664 4.97385 13.4297L10.4013 20.0674C10.6069 20.267 10.8214 20.2885 11.0447 20.1319C11.2402 19.9721 11.2691 19.684 11.1092 19.4885L6.29232 13.5975H12.0948L14.996 24.242L12.6991 21.4328C12.5392 21.2374 12.2512 21.2085 12.0557 21.3682C11.8601 21.5281 11.8312 21.8162 11.9911 22.0117L15.6456 26.481C15.8198 26.6974 16.1537 26.7081 16.3405 26.5025ZM16.0022 24.4561L13.0425 13.5975H18.9618L16.0022 24.4561ZM13.3441 12.683L16.0022 9.04332L18.6602 12.683H13.3441ZM12.4441 12.365L9.78601 8.72526H15.1021L12.4441 12.365ZM25.712 13.5975L17.0083 24.242L19.9096 13.5975H25.712ZM19.5603 12.365L16.9023 8.72526H22.2183L19.5603 12.365ZM6.22789 12.683L8.88593 9.04332L11.544 12.683H6.22789Z" fill="white"/>
<path d="M25.8086 6.69544C25.9256 6.69544 26.0427 6.65075 26.132 6.56138L27.4378 5.25448C27.8556 4.83627 27.2087 4.18992 26.7909 4.60814L25.4852 5.91503C25.2139 6.18657 25.4249 6.69544 25.8086 6.69544Z" fill="white"/>
<path d="M29.4878 12.8775C29.527 12.8775 29.5669 12.8725 29.6066 12.8618L31.2653 12.417C31.8363 12.2638 31.5996 11.3808 31.0284 11.5337L29.3697 11.9786C28.8582 12.1158 28.977 12.8775 29.4878 12.8775Z" fill="white"/>
<path d="M27.2324 18.5783L26.4272 18.3623C25.8561 18.2094 25.6193 19.0924 26.1903 19.2456L26.9955 19.4615C27.5466 19.6091 27.7973 18.7298 27.2324 18.5783Z" fill="white"/>
<path d="M31.2379 19.653L28.8806 19.0208C28.3095 18.868 28.0727 19.7509 28.6437 19.9041L31.001 20.5363C31.552 20.6839 31.8027 19.8046 31.2379 19.653Z" fill="white"/>
<path d="M23.2882 22.7101C22.8703 22.2918 22.2234 22.9382 22.6413 23.3564L24.7624 25.4795C25.1802 25.8978 25.8271 25.2514 25.4093 24.8332L23.2882 22.7101Z" fill="white"/>
<path d="M26.7279 26.1516C26.3101 25.7334 25.6632 26.3797 26.081 26.7979L26.7167 27.4342C27.1346 27.8525 27.7815 27.2061 27.3636 26.7879L26.7279 26.1516Z" fill="white"/>
<path d="M19.6271 27.9803L19.472 27.401C19.3191 26.8299 18.4358 27.0664 18.5886 27.6375L18.7437 28.2168C18.894 28.7779 19.7804 28.5533 19.6271 27.9803Z" fill="white"/>
<path d="M20.0919 29.7133C19.939 29.1422 19.0557 29.3786 19.2085 29.9498L19.5607 31.2657C19.6212 31.4914 19.8967 31.6491 20.1207 31.5892C20.3646 31.5239 20.5094 31.2732 20.4442 31.0292L20.0919 29.7133Z" fill="white"/>
<path d="M18.7791 5.79757C19.003 5.85762 19.2786 5.69978 19.339 5.47415L19.5501 4.6854C19.703 4.11434 18.8196 3.8778 18.6668 4.44892L18.4556 5.23767C18.3903 5.48159 18.5351 5.73234 18.7791 5.79757Z" fill="white"/>
<path d="M19.4381 3.33309C19.662 3.39302 19.9376 3.23537 19.998 3.00962L20.545 0.966638C20.6978 0.395524 19.8144 0.159104 19.6616 0.730157L19.1147 2.77314C19.0494 3.01711 19.1942 3.2678 19.4381 3.33309Z" fill="white"/>
<path d="M5.86176 6.56091C6.27961 6.97919 6.9265 6.33278 6.50865 5.91457L5.20292 4.60774C4.78507 4.18946 4.13817 4.83587 4.55602 5.25408L5.86176 6.56091Z" fill="white"/>
<path d="M0.729426 12.4166L2.38821 12.8615C2.93926 13.0091 3.18995 12.1297 2.62511 11.9782L0.966334 11.5334C0.395341 11.3803 0.158434 12.2635 0.729426 12.4166Z" fill="white"/>
<path d="M5.56719 18.3619L4.76191 18.5778C4.19848 18.729 4.45264 19.6074 4.99882 19.4611L5.8041 19.2451C6.37509 19.092 6.13818 18.2091 5.56719 18.3619Z" fill="white"/>
<path d="M3.11299 19.0212L0.755745 19.6533C0.192251 19.8045 0.446473 20.6829 0.992653 20.5366L3.34996 19.9044C3.9209 19.7512 3.68417 18.8684 3.11299 19.0212Z" fill="white"/>
<path d="M8.70737 22.7082L6.58624 24.8313C6.16839 25.2495 6.81528 25.8959 7.23313 25.4777L9.35426 23.3546C9.77211 22.9363 9.12516 22.29 8.70737 22.7082Z" fill="white"/>
<path d="M5.26628 26.152L4.63061 26.7883C4.21276 27.2064 4.85965 27.8529 5.2775 27.4346L5.91318 26.7983C6.33109 26.3801 5.68413 25.7338 5.26628 26.152Z" fill="white"/>
<path d="M13.082 27.0764C12.8381 27.0111 12.5874 27.1559 12.522 27.3998L12.367 27.9792C12.2183 28.5346 13.0957 28.7931 13.2503 28.2157L13.4054 27.6363C13.4708 27.3924 13.326 27.1417 13.082 27.0764Z" fill="white"/>
<path d="M12.4633 29.3899C12.2195 29.3247 11.9687 29.4694 11.9033 29.7134L11.5511 31.0293C11.4024 31.5847 12.2798 31.8432 12.4344 31.2658L12.7867 29.9499C12.852 29.7059 12.7072 29.4553 12.4633 29.3899Z" fill="white"/>
<path d="M12.7689 4.12469C12.525 4.18999 12.3802 4.44067 12.4455 4.68459L12.6567 5.47335C12.8068 6.03452 13.6934 5.80981 13.54 5.23687L13.3288 4.44811C13.2634 4.20419 13.0126 4.05916 12.7689 4.12469Z" fill="white"/>
<path d="M11.9962 3.00922C12.1465 3.57033 13.0329 3.34568 12.8796 2.77273L12.3326 0.729756C12.1797 0.158642 11.2964 0.395123 11.4493 0.966237L11.9962 3.00922Z" fill="white"/>
</g>
<defs>
<clipPath id="clip0">
<rect width="31.2" height="31.2" fill="white" transform="translate(0.398438 0.402344)"/>
</clipPath>
</defs>
</svg>
