<svg width="32" height="32" viewBox="0 0 32 32" fill="none" xmlns="http://www.w3.org/2000/svg">
<g clip-path="url(#clip0)">
<path d="M16.0151 4.59711C15.624 4.59711 15.2303 4.62032 14.8449 4.66609C14.5943 4.69576 14.4152 4.92312 14.445 5.17376C14.4748 5.42439 14.7025 5.6041 14.9526 5.57369C15.3025 5.53219 15.6599 5.51117 16.0151 5.51117C20.9363 5.51117 24.9399 9.51945 24.9399 14.4463C24.9399 19.3732 20.9363 23.3815 16.0151 23.3815C14.1753 23.3815 12.4088 22.8256 10.9068 21.774C9.43791 20.7456 8.32282 19.3205 7.68212 17.6528C7.59163 17.4172 7.3274 17.2994 7.09164 17.39C6.85599 17.4805 6.73838 17.7449 6.82887 17.9805C7.53508 19.8188 8.76388 21.3895 10.3825 22.5227C12.039 23.6825 13.9867 24.2955 16.0151 24.2955C21.4402 24.2955 25.8539 19.8771 25.8539 14.4463C25.8539 9.01538 21.4402 4.59711 16.0151 4.59711Z" fill="white"/>
<path d="M7.18431 15.7464C7.12209 15.3189 7.09046 14.8812 7.09046 14.4456C7.09046 12.6064 7.64408 10.8401 8.69147 9.33783C9.71559 7.86893 11.1352 6.75232 12.7969 6.10894C13.0323 6.01778 13.1492 5.75306 13.0581 5.51772C12.9669 5.28238 12.7023 5.16538 12.4669 5.25655C10.6349 5.96592 9.0702 7.19643 7.94164 8.81505C6.78681 10.4716 6.17634 12.4186 6.17634 14.4456C6.17634 14.9252 6.21108 15.4071 6.27969 15.8782C6.31284 16.1056 6.50815 16.2694 6.73136 16.2694C6.7533 16.2694 6.77554 16.2678 6.79784 16.2646C7.04769 16.2283 7.22069 15.9962 7.18431 15.7464Z" fill="white"/>
<path d="M22.7254 17.8468C22.9572 17.9469 23.2261 17.8403 23.3263 17.6086C23.7586 16.6084 23.9778 15.5444 23.9778 14.446C23.9778 10.0507 20.4057 6.47498 16.0151 6.47498C11.6245 6.47498 8.05253 10.0507 8.05253 14.446C8.05253 18.8412 11.6246 22.417 16.0152 22.417C18.4004 22.417 20.6399 21.3597 22.1595 19.5162C22.3201 19.3215 22.2923 19.0334 22.0975 18.8728C21.9028 18.7122 21.6147 18.74 21.4541 18.9348C20.1088 20.5668 18.1264 21.5029 16.0151 21.5029C12.1285 21.5029 8.96653 18.3372 8.96653 14.446C8.96653 10.5547 12.1285 7.38904 16.0151 7.38904C19.9017 7.38904 23.0637 10.5547 23.0637 14.446C23.0637 15.4189 22.8697 16.3609 22.4872 17.2459C22.387 17.4776 22.4937 17.7466 22.7254 17.8468Z" fill="white"/>
<path d="M31.4679 24.5846L27.1193 20.2311C28.025 18.4996 28.5375 16.5314 28.5375 14.4458C28.5375 7.54097 22.92 1.92352 16.0152 1.92352C9.11049 1.92352 3.49298 7.54097 3.49298 14.4458C3.49298 16.5242 4.00199 18.4861 4.90191 20.2131L0.53532 24.5846C0.421306 24.6988 0.375908 24.8647 0.415944 25.0211C0.456041 25.1774 0.5756 25.3011 0.730563 25.3463L4.13635 26.341L5.13006 29.7508C5.17521 29.9059 5.29892 30.0256 5.45546 30.0657C5.493 30.0753 5.53103 30.0799 5.56881 30.0799C5.68855 30.0799 5.80537 30.0328 5.8922 29.9459L10.2653 25.5681C11.9881 26.4624 13.9438 26.9681 16.0153 26.9681C18.0797 26.9681 20.0289 26.4659 21.7474 25.5774L26.1112 29.9459C26.198 30.0328 26.3148 30.0799 26.4346 30.0799C26.4723 30.0799 26.5104 30.0753 26.5479 30.0657C26.7044 30.0256 26.8282 29.9059 26.8733 29.7508L27.867 26.341L31.2728 25.3463C31.4278 25.3011 31.5473 25.1775 31.5874 25.0211C31.6273 24.8647 31.5819 24.6988 31.4679 24.5846ZM1.72689 24.6851L5.37143 21.0366C5.80226 21.7298 6.29884 22.378 6.85239 22.9725L4.37291 25.4578L1.72689 24.6851ZM5.79141 28.7534L5.01934 26.1041L7.49912 23.6184C8.09545 24.1724 8.74566 24.6691 9.44095 25.0998L5.79141 28.7534ZM4.40704 14.4458C4.40704 8.04499 9.61444 2.83758 16.0152 2.83758C22.416 2.83758 27.6234 8.04499 27.6234 14.4458C27.6234 20.8466 22.416 26.054 16.0152 26.054C9.61444 26.054 4.40704 20.8466 4.40704 14.4458ZM26.2118 28.7534L22.5728 25.1102C23.2689 24.6806 23.92 24.1847 24.5172 23.6315L26.9839 26.1041L26.2118 28.7534ZM27.6303 25.4578L25.1649 22.9865C25.7193 22.393 26.2168 21.7457 26.6486 21.0533L30.2763 24.685L27.6303 25.4578Z" fill="white"/>
<path d="M20.546 13.239C20.4923 13.0735 20.3493 12.9529 20.1771 12.9279L17.5868 12.5517L16.4264 10.1662C16.3499 10.0089 16.1904 9.90906 16.0155 9.90906C15.8406 9.90906 15.681 10.0089 15.6045 10.1662L14.4441 12.5517L11.8539 12.9279C11.6817 12.9529 11.5386 13.0735 11.4849 13.2389C11.4311 13.4044 11.476 13.5861 11.6006 13.7075L13.477 15.5355L13.0343 18.1165C13.0049 18.2879 13.0754 18.4612 13.2161 18.5635C13.3568 18.6657 13.5434 18.6792 13.6974 18.5983L16.0153 17.3796L18.3333 18.5983C18.4002 18.6334 18.4732 18.6507 18.5459 18.6507C18.6407 18.6507 18.735 18.6213 18.8146 18.5634C18.9553 18.4611 19.0258 18.2879 18.9963 18.1164L18.5537 15.5354L20.4301 13.7074C20.5549 13.5861 20.5998 13.4044 20.546 13.239ZM17.7439 15.0485C17.6361 15.1535 17.5869 15.3048 17.6124 15.4531L17.9391 17.3583L16.2281 16.4587C16.1615 16.4238 16.0885 16.4063 16.0155 16.4063C15.9424 16.4063 15.8694 16.4238 15.8028 16.4587L14.0918 17.3583L14.4185 15.4532C14.444 15.3048 14.3948 15.1535 14.287 15.0485L12.902 13.6992L14.815 13.4214C14.9648 13.3997 15.0941 13.3052 15.1603 13.169L16.0155 11.4108L16.8707 13.169C16.9368 13.3051 17.0661 13.3996 17.2159 13.4214L19.1288 13.6992L17.7439 15.0485Z" fill="white"/>
</g>
<defs>
<clipPath id="clip0">
<rect width="31.2" height="31.2" fill="white" transform="translate(0.401692 0.401672)"/>
</clipPath>
</defs>
</svg>
